<svg class="infra-svg " width="40" height="40" viewBox="0 0 40 40" fill="none" xmlns="http://www.w3.org/2000/svg">
<path d="M3.92335 23.6716C4.14814 23.7014 4.33688 23.791 4.47656 23.9503C4.61415 24.1072 4.69198 24.318 4.72392 24.5689C5.38212 29.5117 8.39396 33.7145 12.8384 35.8929C14.6182 36.7644 15.8726 37.0405 17.1694 36.8758C18.5407 36.6953 19.5585 36.2001 20.5015 35.2571C21.1169 34.6344 21.4879 34.0759 21.745 33.3902L21.7451 33.39C21.8943 32.9933 21.9728 32.7386 22.017 32.3478C22.0621 31.9495 22.0715 31.4101 22.0752 30.444L22.0752 30.4435C22.0825 29.4328 22.0991 28.8059 22.1621 28.2912C22.2257 27.7721 22.3362 27.37 22.5261 26.8076C23.1274 25.0113 24.433 23.3007 25.9963 22.2484L25.9973 22.2477L26.4595 21.9418L26.499 21.33C26.499 21.3298 26.499 21.3297 26.499 21.3296C26.5211 20.9611 26.5728 19.9213 26.6171 19.0274L26.6171 19.0273C26.7429 16.5415 27.0167 14.1257 27.3585 12.4834L27.359 12.4814C27.4473 12.084 27.5283 11.6863 27.5503 11.5762L27.5502 11.5762L27.5515 11.5709C27.5641 11.5179 27.5579 11.5088 27.5514 11.4991L27.5504 11.4977C27.5302 11.4674 27.4794 11.4215 27.3467 11.3305L27.3456 11.3298C26.8558 10.9877 26.4412 10.4784 26.1437 9.83794C26.1185 9.78496 26.0935 9.73252 26.0693 9.68168C25.9614 9.45498 25.8688 9.26032 25.8355 9.19228C25.829 9.18728 25.8189 9.18016 25.8042 9.17094C25.7678 9.1482 25.7144 9.11946 25.6445 9.08558C25.5054 9.01815 25.3128 8.93597 25.0874 8.84758C24.6372 8.67097 24.0656 8.47309 23.5496 8.32306C22.314 7.96482 21.0489 7.76726 19.7094 7.72335L19.7088 7.72332C17.9173 7.65751 16.3176 7.88392 14.6137 8.4397C13.7917 8.70883 12.1939 9.47099 11.4727 9.92979C8.37132 11.9414 6.14199 14.9319 5.16264 18.4035L5.1624 18.4044C5.04529 18.8106 4.94039 19.0931 4.78876 19.27C4.62132 19.4653 4.41276 19.5172 4.15423 19.5172C3.92761 19.5172 3.71186 19.4205 3.55331 19.2772C3.39532 19.1343 3.28051 18.9321 3.28051 18.7099C3.28051 18.6018 3.31556 18.4257 3.3669 18.2228C3.41973 18.0139 3.49434 17.7598 3.5822 17.487C3.7578 16.9416 3.98844 16.3145 4.20882 15.814C5.96024 11.7896 9.27638 8.60015 13.3606 7.01267C17.1044 5.55099 21.4406 5.57467 25.4164 7.06371L25.417 7.06393L25.9128 7.25202L26.0705 6.77323L26.0712 6.77131C26.3046 6.09373 26.9341 4.80827 27.56 3.6526C27.8738 3.07312 28.1887 2.5225 28.4554 2.0927C28.5887 1.87795 28.711 1.69182 28.8157 1.54676C28.9169 1.40654 29.0115 1.29061 29.0894 1.22972L29.0899 1.22932L30.0606 1.35531L30.1566 1.24008C30.1569 1.24035 30.1572 1.24061 30.1576 1.24088C30.2264 1.29864 30.3146 1.41646 30.41 1.55795C30.5102 1.7065 30.6304 1.89978 30.7633 2.1239C31.0294 2.57246 31.35 3.15024 31.6701 3.75341C32.3079 4.95545 32.9527 6.27492 33.1566 6.87531L33.1566 6.8754C33.6216 8.24765 33.4254 9.5646 32.5786 10.6201L32.4474 10.7907L32.7912 11.0679L32.7924 11.0689C33.4729 11.6297 34.5594 12.7533 35.0767 13.4429C36.2423 14.9897 36.7886 16.3472 36.8642 17.9199L36.8642 17.92C36.9283 19.274 36.5857 20.4125 35.9087 21.215C35.23 22.0196 34.2278 22.4711 33.0072 22.4711H32.6968L32.655 24.9601L32.655 24.9604C32.5995 27.9287 32.4424 30.5387 32.1952 32.68C31.9483 34.8186 31.6107 36.4988 31.1903 37.6023C30.8176 38.5885 30.2247 39.15 29.5732 39.15C28.9217 39.15 28.3288 38.5885 27.956 37.6023C27.5542 36.5581 27.2313 34.9945 26.9863 32.9623C26.741 30.9274 26.5727 28.4135 26.484 25.4642L26.4429 24.1127L26.0237 24.5319L26.0232 24.5324C25.2382 25.3101 24.7555 26.0174 24.3874 26.9125L24.3873 26.9126C24.157 27.4719 24.029 27.8579 23.9549 28.3705C23.88 28.8887 23.8595 29.5396 23.8521 30.6302C23.8448 31.7219 23.821 32.3943 23.731 32.9366C23.6402 33.4847 23.4825 33.8957 23.2179 34.466L23.2177 34.4664C22.8407 35.2733 22.5501 35.6854 21.8609 36.4045C20.3842 37.949 18.6459 38.6738 16.4644 38.6663L16.4642 38.6663C14.9366 38.6588 13.8507 38.37 12.042 37.4843C8.09941 35.5614 5.0809 32.1183 3.70185 27.9814C3.51877 27.4396 3.34021 26.7677 3.20462 26.151C3.0697 25.5375 2.97472 24.9669 2.96306 24.6309C2.95592 24.4558 2.95446 24.3207 2.99972 24.2031C3.04667 24.081 3.13709 23.9944 3.24873 23.8936L3.24914 23.8932C3.35529 23.798 3.44767 23.7225 3.55839 23.6848C3.67227 23.6459 3.78729 23.6528 3.92335 23.6716ZM3.92335 23.6716C3.92349 23.6717 3.92364 23.6717 3.92378 23.6717L3.90314 23.8203L3.92278 23.6716C3.92297 23.6716 3.92316 23.6716 3.92335 23.6716ZM25.8428 9.19851C25.8433 9.19888 25.8429 9.19848 25.8416 9.1973C25.8422 9.19791 25.8426 9.19831 25.8428 9.19851ZM27.5054 12.5139C27.1657 14.146 26.8924 16.5535 26.7669 19.0348L26.2795 9.77414C26.5675 10.3945 26.9663 10.8819 27.4315 11.2068C27.69 11.3841 27.7343 11.4505 27.6974 11.6056C27.6752 11.7164 27.594 12.1152 27.5054 12.5139ZM29.9151 4.22036L29.9141 4.21864C29.8043 4.01723 29.7001 3.8363 29.6219 3.70626C29.6133 3.69206 29.6051 3.67852 29.5973 3.66567C29.5533 3.73325 29.4994 3.82182 29.4375 3.92799C29.2828 4.19342 29.0839 4.55922 28.8763 4.95743C28.4602 5.75541 28.0149 6.67234 27.8223 7.16284C27.5947 7.74438 27.5169 8.21313 27.5762 8.61591C27.635 9.01483 27.8311 9.36652 28.1859 9.71079L28.1861 9.71104C29.008 10.5124 30.3565 10.4481 31.1443 9.55691C31.3975 9.26899 31.5498 8.95994 31.6066 8.62217C31.6635 8.28333 31.6257 7.90606 31.4839 7.48055L31.4835 7.47943C31.3038 6.9258 30.5125 5.28244 29.9151 4.22036ZM32.5473 13.2705L32.5456 13.2688C32.3625 13.0821 32.1722 12.8973 32.0132 12.7493C31.9289 12.6707 31.8557 12.6048 31.7981 12.5549C31.8075 12.6043 31.8176 12.6583 31.8282 12.7157C31.8698 12.9417 31.9216 13.2341 31.9734 13.5374L31.9735 13.5378C32.2184 14.9997 32.433 17.0881 32.544 19.1672L32.544 19.1673L32.6248 20.7022L33.111 20.6795L33.1116 20.6795C33.372 20.6685 33.5334 20.6523 33.6681 20.6198C33.7999 20.5881 33.9126 20.5393 34.0734 20.4536C34.4344 20.2575 34.679 20.0027 34.836 19.6448C34.9955 19.2811 35.0689 18.8013 35.0653 18.1495V18.1486C35.0653 17.7908 35.0577 17.578 35.0256 17.3796C34.9937 17.1819 34.9365 16.9929 34.8298 16.6837L34.8295 16.6829C34.4179 15.4697 33.739 14.4476 32.5473 13.2705ZM30.8706 22.1393L30.8706 22.1388C30.8596 21.427 30.843 20.7651 30.8264 20.2713C30.8181 20.0243 30.8098 19.8199 30.8023 19.6725C30.7985 19.5987 30.7949 19.5401 30.7917 19.4978C30.7901 19.4766 30.7886 19.4605 30.7873 19.4492C30.787 19.4464 30.7867 19.4441 30.7865 19.4424C30.773 19.4384 30.7459 19.4322 30.696 19.4267C30.5291 19.4085 30.2097 19.4064 29.5732 19.4064C28.9367 19.4064 28.6172 19.4085 28.4503 19.4267C28.4005 19.4322 28.3734 19.4384 28.3598 19.4424C28.3596 19.4441 28.3593 19.4464 28.359 19.4493C28.3577 19.4608 28.3563 19.4771 28.3547 19.4986C28.3514 19.5415 28.3479 19.6012 28.3441 19.6761C28.3365 19.8258 28.3282 20.0335 28.3199 20.2842C28.3034 20.7854 28.2868 21.4565 28.2757 22.1757L28.2757 22.1762C28.1872 26.9564 28.5195 32.1652 29.0925 35.0452C29.195 35.5507 29.3251 36.0687 29.4418 36.4591C29.4893 36.618 29.534 36.7537 29.5732 36.8578C29.6123 36.7537 29.657 36.618 29.7045 36.4591C29.8213 36.0687 29.9513 35.5507 30.0539 35.0451C30.6195 32.202 30.9592 26.8677 30.8706 22.1393ZM30.7873 19.4436L30.787 19.4425L30.7873 19.4436ZM28.3591 19.4436C28.3591 19.4432 28.3592 19.4429 28.3593 19.4425L28.3591 19.4436ZM30.659 17.6025C30.6592 17.5856 30.6591 17.5664 30.6586 17.5448C30.6566 17.4391 30.6475 17.29 30.6323 17.1064C30.6018 16.7401 30.5476 16.2462 30.4804 15.71C30.3457 14.6365 30.1599 13.4027 30.0098 12.6927L29.873 12.0584H29.5732H29.2733L29.1364 12.6933C28.9864 13.3881 28.8006 14.6216 28.666 15.6988C28.5987 16.2369 28.5445 16.7335 28.5141 17.1022C28.4988 17.2869 28.4897 17.4371 28.4877 17.5436C28.4873 17.5657 28.4872 17.5853 28.4874 17.6025C28.5493 17.6072 28.635 17.6117 28.7397 17.6157C28.9581 17.6239 29.2534 17.6294 29.5732 17.6294C29.8929 17.6294 30.1882 17.6239 30.4066 17.6157C30.5113 17.6117 30.5971 17.6072 30.659 17.6025Z" fill="#9696A0" stroke="#9696A0" stroke-width="0.3"/>
<path d="M20.1335 9.64638C21.2835 9.70077 22.2167 10.333 22.7419 11.3834L22.7419 11.3834L22.7426 11.3849C22.8707 11.6483 22.9475 11.8137 22.9879 12.0013C23.0279 12.1869 23.031 12.3884 23.031 12.7206C23.031 13.0529 23.0279 13.2543 22.9879 13.44C22.9475 13.6276 22.8707 13.793 22.7426 14.0564L22.7422 14.0573C22.3944 14.7606 21.9409 15.198 21.2247 15.5368C20.9986 15.6443 20.8437 15.7108 20.6604 15.747C20.4804 15.7826 20.2796 15.7877 19.9639 15.7877C19.6483 15.7877 19.4474 15.7826 19.2674 15.747C19.0842 15.7108 18.9293 15.6444 18.7033 15.5369C17.987 15.198 17.5334 14.7606 17.1857 14.0573L17.1857 14.0573L17.1852 14.0564C17.0572 13.793 16.9804 13.6276 16.94 13.4411C16.8999 13.2563 16.8969 13.0567 16.8969 12.728C16.8969 12.4087 16.902 12.2061 16.9375 12.0252C16.9737 11.8412 17.04 11.6864 17.1473 11.4607C17.2788 11.175 17.5304 10.793 17.7043 10.6032L17.7043 10.6032L17.7054 10.602C17.8807 10.4148 18.1407 10.22 18.4129 10.0578C18.685 9.89572 18.9813 9.75902 19.2328 9.69514L19.2328 9.69509L19.2365 9.69425C19.4181 9.65298 19.8176 9.63134 20.1335 9.64638ZM20.1335 9.64638L20.1264 9.79621M20.1335 9.64638C20.1335 9.64638 20.1335 9.64638 20.1335 9.64638L20.1264 9.79621M20.1264 9.79621C19.8162 9.78145 19.4322 9.8036 19.2697 9.84052M20.1264 9.79621C21.2194 9.84791 22.1056 10.4461 22.6077 11.4504C22.8662 11.9822 22.881 12.0486 22.881 12.7206C22.881 13.3927 22.8662 13.4591 22.6077 13.9909C22.2754 14.6629 21.8471 15.0764 21.1603 15.4014C20.7098 15.6155 20.599 15.6377 19.9639 15.6377C19.3288 15.6377 19.218 15.6155 18.7676 15.4014L19.2697 9.84052M19.2697 9.84052C18.8045 9.95868 18.1398 10.3575 17.8149 10.7046C17.6524 10.8818 17.4087 11.251 17.2832 11.5243C17.069 11.9748 17.0469 12.0855 17.0469 12.728C17.0469 13.3927 17.0616 13.4591 17.3201 13.9909L19.2697 9.84052ZM20.6936 11.6199L20.6935 11.6199L20.6924 11.6191C20.5598 11.5297 20.3542 11.4627 20.1278 11.434C19.9024 11.4054 19.6753 11.4171 19.5051 11.4685L19.5037 11.4689C19.3635 11.5098 19.1844 11.6358 19.023 11.8085C18.863 11.9799 18.7416 12.1746 18.6983 12.331C18.5444 12.9284 18.7807 13.5458 19.2822 13.8559L19.2822 13.8559L19.2834 13.8566C19.4627 13.9699 19.7161 14.0289 19.979 14.0246C20.2418 14.0203 20.4943 13.9532 20.6714 13.8362C20.885 13.6949 21.0273 13.5462 21.118 13.3737C21.2088 13.2008 21.254 12.992 21.254 12.7206C21.254 12.4532 21.2089 12.2437 21.1201 12.071C21.0317 11.899 20.8946 11.7528 20.6936 11.6199Z" fill="#9696A0" stroke="#9696A0" stroke-width="0.3"/>
<path d="M12.0124 13.3388C13.1624 13.3932 14.0956 14.0254 14.6208 15.0757L14.6208 15.0757L14.6215 15.0772C14.7496 15.3407 14.8264 15.5061 14.8668 15.6937C14.9068 15.8793 14.9099 16.0807 14.9099 16.413C14.9099 16.7453 14.9068 16.9467 14.8668 17.1323C14.8264 17.3199 14.7496 17.4854 14.6215 17.7488L14.6211 17.7497C14.2733 18.453 13.8198 18.8903 13.1036 19.2292C12.8775 19.3367 12.7226 19.4031 12.5393 19.4394C12.3593 19.475 12.1585 19.4801 11.8428 19.4801C11.5272 19.4801 11.3263 19.475 11.1463 19.4394C10.9631 19.4032 10.8082 19.3368 10.5822 19.2293C9.86595 18.8904 9.41235 18.453 9.06457 17.7497L9.06456 17.7497L9.06412 17.7488C8.93607 17.4854 8.8593 17.32 8.81888 17.1334C8.77884 16.9487 8.77578 16.7491 8.77578 16.4204C8.77578 16.1011 8.78089 15.8985 8.81645 15.7176C8.85263 15.5336 8.91895 15.3788 9.02622 15.1531C9.15766 14.8674 9.4093 14.4853 9.58324 14.2956L9.58323 14.2956L9.58431 14.2944C9.75961 14.1072 10.0197 13.9124 10.2918 13.7502C10.5639 13.5881 10.8602 13.4514 11.1117 13.3875L11.1117 13.3875L11.1154 13.3866C11.297 13.3454 11.6965 13.3237 12.0124 13.3388ZM12.0124 13.3388L12.0053 13.4886M12.0124 13.3388C12.0124 13.3388 12.0124 13.3388 12.0124 13.3388L12.0053 13.4886M12.0053 13.4886C11.6951 13.4738 11.3111 13.496 11.1486 13.5329M12.0053 13.4886C13.0983 13.5403 13.9845 14.1385 14.4866 15.1428C14.7451 15.6745 14.7599 15.741 14.7599 16.413C14.7599 17.0851 14.7451 17.1515 14.4866 17.6832C14.1543 18.3553 13.726 18.7688 13.0392 19.0938C12.5887 19.3079 12.4779 19.3301 11.8428 19.3301C11.2077 19.3301 11.097 19.3079 10.6465 19.0938L11.1486 13.5329M11.1486 13.5329C10.6834 13.6511 10.0188 14.0499 9.69381 14.3969C9.53135 14.5742 9.28764 14.9434 9.1621 15.2167C8.94794 15.6672 8.92578 15.7779 8.92578 16.4204C8.92578 17.0851 8.94055 17.1515 9.19902 17.6832L11.1486 13.5329ZM12.5725 15.3123L12.5725 15.3123L12.5713 15.3115C12.4387 15.2221 12.2331 15.1551 12.0067 15.1264C11.7813 15.0978 11.5542 15.1095 11.384 15.1609L11.3827 15.1613C11.2424 15.2022 11.0633 15.3281 10.9019 15.5009C10.7419 15.6723 10.6205 15.867 10.5772 16.0234C10.4233 16.6208 10.6596 17.2382 11.1611 17.5483L11.1611 17.5483L11.1623 17.549C11.3416 17.6623 11.595 17.7212 11.8579 17.717C12.1207 17.7127 12.3732 17.6455 12.5503 17.5286C12.7639 17.3873 12.9062 17.2386 12.9969 17.0661C13.0877 16.8931 13.1329 16.6844 13.1329 16.413C13.1329 16.1455 13.0878 15.9361 12.999 15.7634C12.9106 15.5914 12.7735 15.4452 12.5725 15.3123Z" fill="#9696A0" stroke="#9696A0" stroke-width="0.3"/>
<path d="M3.72289 22.4713C3.27687 22.4713 2.97531 22.1579 2.88188 21.8059C2.78834 21.4535 2.89585 21.033 3.28857 20.8164L3.36103 20.9477L3.28768 20.8168C3.87517 20.4875 4.61138 20.9218 4.61138 21.5902C4.61138 21.823 4.49857 22.0422 4.33908 22.2006C4.17945 22.3592 3.95856 22.4713 3.72289 22.4713Z" fill="#9696A0" stroke="#9696A0" stroke-width="0.3"/>
<path d="M9.80145 22.2006C10.9514 22.255 11.8847 22.8872 12.4099 23.9376L12.4099 23.9376L12.4106 23.9391C12.5387 24.2025 12.6155 24.3679 12.6559 24.5555C12.6959 24.7411 12.6989 24.9426 12.6989 25.2748C12.6989 25.6071 12.6959 25.8085 12.6559 25.9942C12.6155 26.1818 12.5387 26.3472 12.4106 26.6106L12.4102 26.6115C12.0624 27.3148 11.6088 27.7522 10.8927 28.091C10.6666 28.1985 10.5116 28.265 10.3284 28.3012C10.1484 28.3368 9.94755 28.3419 9.63189 28.3419C9.31623 28.3419 9.11538 28.3368 8.93538 28.3012C8.75217 28.265 8.5973 28.1986 8.37127 28.0911C7.65501 27.7522 7.20141 27.3148 6.85363 26.6115L6.85362 26.6115L6.85318 26.6106C6.72513 26.3472 6.64836 26.1818 6.60794 25.9953C6.56791 25.8105 6.56484 25.6109 6.56484 25.2822C6.56484 24.9629 6.56995 24.7603 6.60551 24.5794C6.64169 24.3954 6.70801 24.2406 6.81528 24.0149C6.94672 23.7292 7.19836 23.3472 7.3723 23.1574L7.3723 23.1574L7.37337 23.1562C7.54867 22.969 7.80871 22.7742 8.0809 22.612C8.35298 22.4499 8.64924 22.3132 8.90078 22.2493L8.90077 22.2493L8.90447 22.2485C9.08608 22.2072 9.48554 22.1855 9.80145 22.2006ZM9.80145 22.2006L9.79436 22.3504M9.80145 22.2006C9.80146 22.2006 9.80148 22.2006 9.80149 22.2006L9.79436 22.3504M9.79436 22.3504C9.48419 22.3356 9.10018 22.3578 8.93771 22.3947M9.79436 22.3504C10.8873 22.4021 11.7735 23.0003 12.2757 24.0046C12.5342 24.5364 12.5489 24.6028 12.5489 25.2748C12.5489 25.9469 12.5342 26.0133 12.2757 26.5451C11.9434 27.2171 11.515 27.6306 10.8283 27.9556C10.3778 28.1697 10.267 28.1919 9.63189 28.1919C8.99679 28.1919 8.88601 28.1697 8.43553 27.9556L8.93771 22.3947M8.93771 22.3947C8.47246 22.5129 7.80781 22.9117 7.48288 23.2588C7.32041 23.436 7.07671 23.8052 6.95116 24.0785C6.737 24.529 6.71484 24.6397 6.71484 25.2822C6.71484 25.9469 6.72961 26.0133 6.98809 26.5451L8.93771 22.3947ZM10.3615 24.1741L10.3615 24.1741L10.3604 24.1733C10.2278 24.0839 10.0222 24.0169 9.79578 23.9882C9.57033 23.9596 9.3433 23.9713 9.17307 24.0227L9.17172 24.0231C9.03142 24.064 8.85238 24.19 8.69101 24.3627C8.53095 24.5341 8.40954 24.7288 8.36631 24.8852C8.21241 25.4826 8.44867 26.1 8.95014 26.4101L8.95014 26.4101L8.95134 26.4108C9.13071 26.5241 9.38411 26.5831 9.64699 26.5788C9.90976 26.5745 10.1623 26.5074 10.3393 26.3904C10.553 26.2491 10.6953 26.1004 10.7859 25.9279C10.8768 25.755 10.922 25.5462 10.922 25.2748C10.922 25.0074 10.8768 24.7979 10.7881 24.6252C10.6997 24.4532 10.5626 24.307 10.3615 24.1741Z" fill="#9696A0" stroke="#9696A0" stroke-width="0.3"/>
<path d="M16.446 28.1083C17.596 28.1627 18.5292 28.795 19.0544 29.8453L19.0544 29.8453L19.0551 29.8468C19.1832 30.1102 19.26 30.2757 19.3004 30.4632C19.3404 30.6489 19.3435 30.8503 19.3435 31.1826C19.3435 31.5149 19.3404 31.7163 19.3004 31.9019C19.26 32.0895 19.1832 32.2549 19.0551 32.5184L19.0547 32.5193C18.7069 33.2225 18.2534 33.6599 17.5372 33.9988C17.3111 34.1063 17.1562 34.1727 16.9729 34.2089C16.7929 34.2445 16.5921 34.2496 16.2764 34.2496C15.9608 34.2496 15.7599 34.2445 15.5799 34.2089C15.3967 34.1727 15.2418 34.1063 15.0158 33.9988C14.2995 33.6599 13.8459 33.2225 13.4982 32.5193L13.4982 32.5193L13.4977 32.5183C13.3697 32.2549 13.2929 32.0895 13.2525 31.903C13.2124 31.7182 13.2094 31.5186 13.2094 31.1899C13.2094 30.8706 13.2145 30.668 13.25 30.4871C13.2862 30.3031 13.3525 30.1483 13.4598 29.9227C13.5913 29.6369 13.8429 29.2549 14.0168 29.0651L14.0168 29.0651L14.0179 29.064C14.1932 28.8767 14.4532 28.6819 14.7254 28.5197C14.9975 28.3576 15.2938 28.2209 15.5453 28.1571L15.5453 28.157L15.549 28.1562C15.7306 28.1149 16.1301 28.0933 16.446 28.1083ZM16.446 28.1083L16.4389 28.2581M16.446 28.1083C16.446 28.1083 16.446 28.1083 16.446 28.1083L16.4389 28.2581M16.4389 28.2581C16.1287 28.2434 15.7447 28.2655 15.5822 28.3024M16.4389 28.2581C17.5319 28.3098 18.4181 28.908 18.9202 29.9124C19.1787 30.4441 19.1935 30.5105 19.1935 31.1826C19.1935 31.8546 19.1787 31.9211 18.9202 32.4528C18.5879 33.1248 18.1596 33.5384 17.4728 33.8633C17.0223 34.0775 16.9115 34.0996 16.2764 34.0996C15.6413 34.0996 15.5305 34.0775 15.0801 33.8633L15.5822 28.3024M15.5822 28.3024C15.117 28.4206 14.4523 28.8194 14.1274 29.1665C13.9649 29.3437 13.7212 29.713 13.5957 29.9862C13.3815 30.4367 13.3594 30.5475 13.3594 31.1899C13.3594 31.8546 13.3741 31.9211 13.6326 32.4528L15.5822 28.3024ZM17.0061 30.0818L17.006 30.0818L17.0049 30.081C16.8723 29.9916 16.6667 29.9247 16.4403 29.8959C16.2149 29.8673 15.9878 29.879 15.8176 29.9304L15.8162 29.9308C15.676 29.9717 15.4969 30.0977 15.3355 30.2704C15.1755 30.4418 15.0541 30.6365 15.0108 30.7929C14.8569 31.3903 15.0932 32.0077 15.5947 32.3178L15.5947 32.3178L15.5959 32.3186C15.7752 32.4318 16.0286 32.4908 16.2915 32.4865C16.5543 32.4822 16.8068 32.4151 16.9839 32.2981C17.1975 32.1568 17.3398 32.0081 17.4305 31.8356C17.5213 31.6627 17.5665 31.4539 17.5665 31.1826C17.5665 30.9151 17.5214 30.7057 17.4326 30.5329C17.3442 30.3609 17.2071 30.2147 17.0061 30.0818Z" fill="#9696A0" stroke="#9696A0" stroke-width="0.3"/>
</svg>
