<svg class="infra-svg" width="41" height="40" viewBox="0 0 41 40" fill="none" xmlns="http://www.w3.org/2000/svg">
<path d="M0.417667 5.32102C-0.00831874 5.58135 -0.0162074 5.66023 0.00745851 8.92612L0.0311244 11.9159L0.236229 12.3498C0.528108 12.973 0.875207 13.3359 1.46685 13.6277C1.90073 13.8407 2.09794 13.8881 2.73692 13.9196L3.50212 13.967L3.54945 17.1618C3.58101 19.6152 3.62045 20.5224 3.723 21.0667C4.36198 24.5929 5.93182 27.5985 8.43251 30.0992C10.3258 32.0004 12.4873 33.3335 14.9801 34.1539C18.4274 35.282 21.9457 35.282 25.3931 34.1539C27.8859 33.3335 30.0473 32.0004 31.9406 30.0992C34.4413 27.5985 36.0111 24.5929 36.6501 21.0667C36.7527 20.5224 36.7921 19.6152 36.8237 17.1618L36.871 13.967L37.6204 13.9196C38.8668 13.8486 39.6162 13.399 40.0817 12.4445L40.342 11.9159L40.3657 8.90246C40.3814 6.29132 40.3736 5.85745 40.2631 5.65235C39.9949 5.13169 41.6436 5.17114 20.1708 5.17114C1.22231 5.17114 0.654326 5.17903 0.417667 5.32102ZM38.6302 9.27322L38.6065 11.6398L38.3462 11.8922L38.0937 12.1526H20.1866H2.27938L2.02695 11.8922L1.76662 11.6398L1.74296 9.27322L1.71929 6.90664H20.1866H38.6538L38.6302 9.27322ZM35.0724 16.9804C35.0408 20.1674 35.0014 20.5697 34.6306 22.037C33.4237 26.7544 29.8501 30.683 25.2747 32.3317C23.5156 32.9707 22.1508 33.1994 20.1866 33.1994C18.2223 33.1994 16.8576 32.9707 15.0984 32.3317C10.523 30.683 6.94945 26.7544 5.74249 22.037C5.37172 20.5697 5.33228 20.1674 5.30073 16.9804L5.26128 13.9275H20.1866H35.1118L35.0724 16.9804Z" fill="#9696A0"/>
<path d="M19.3178 15.7502C15.3813 16.1604 12.2969 19.5998 12.2969 23.5915C12.2969 26.8732 14.3637 29.8393 17.456 30.9989C19.1126 31.6221 21.2584 31.6221 22.915 30.9989C27.443 29.295 29.4152 24.0175 27.088 19.7892C25.8338 17.5015 23.5461 16.0105 20.9034 15.7423C20.4537 15.7029 20.0672 15.6713 20.0356 15.6713C20.0119 15.6792 19.6885 15.7186 19.3178 15.7502ZM21.4635 17.5961C23.7117 18.0695 25.463 19.734 26.1177 22.0217C26.3465 22.8342 26.3623 24.2778 26.1493 25.0509C25.8101 26.2973 25.2342 27.2755 24.3744 28.0643C23.1674 29.1766 21.8184 29.7052 20.1855 29.7052C17.3219 29.7052 15.0027 27.8908 14.2217 25.0509C14.0087 24.2778 14.0245 22.8342 14.2533 22.0217C14.9001 19.7576 16.6514 18.0773 18.876 17.5961C19.515 17.4541 20.8087 17.4541 21.4635 17.5961Z" fill="#9696A0"/>
<path d="M19.1276 19.3386C17.7234 19.6778 16.4376 20.8848 15.9958 22.2811C15.767 22.9989 15.767 24.1822 15.9958 24.9001C16.5638 26.6908 18.3072 27.9688 20.1847 27.9688C22.0621 27.9688 23.8055 26.6908 24.3735 24.9001C24.6023 24.1822 24.6023 22.9989 24.3735 22.2811C23.6793 20.1117 21.3522 18.8022 19.1276 19.3386ZM21.3443 21.2634C23.3007 22.2258 23.277 24.9632 21.3048 25.9335C20.8552 26.1544 20.7053 26.1938 20.1847 26.1938C19.664 26.1938 19.5141 26.1544 19.0645 25.9335C18.1178 25.4681 17.5814 24.624 17.5814 23.5906C17.5814 21.6342 19.5772 20.4036 21.3443 21.2634Z" fill="#9696A0"/>
<path d="M30.1355 17.7215C29.7963 18.0528 29.7884 18.5419 30.1118 18.9127C30.309 19.1257 30.3958 19.1572 30.7113 19.1572C31.0032 19.1572 31.1215 19.1178 31.303 18.9442C31.8867 18.3841 31.5002 17.4769 30.6956 17.4769C30.4431 17.4769 30.3248 17.5322 30.1355 17.7215Z" fill="#9696A0"/>
</svg>
