<svg class="infra-svg" width="41" height="40" viewBox="0 0 41 40" fill="none" xmlns="http://www.w3.org/2000/svg">
<path d="M7.99455 2.51046C7.63143 2.74545 3.56574 7.03578 3.52035 7.23049C3.49441 7.33792 3.49441 7.49234 3.51387 7.57963C3.56574 7.79448 6.08815 10.9636 8.03345 13.2665C10.8282 16.5564 12.5466 18.1611 13.2987 18.1611C13.5776 18.1611 14.5502 18.5169 15.2376 18.8728C15.8471 19.1884 16.716 19.6986 16.716 19.7456C16.716 19.8195 12.365 23.6868 7.99455 27.487C6.28268 28.9776 4.73941 30.3338 4.57081 30.5084C3.16371 31.9116 3.14426 34.2347 4.53839 35.6716C5.83526 37.0211 7.94267 37.1084 9.30439 35.8663C9.43407 35.7454 10.7828 34.1273 12.3002 32.2608C16.8133 26.7149 19.9906 22.8946 20.0879 22.8946C20.1851 22.8946 23.3819 26.7418 27.8756 32.2608C29.3929 34.1273 30.7416 35.7454 30.8713 35.8663C32.233 37.1084 34.3404 37.0211 35.6373 35.6716C36.9536 34.3153 37.025 32.1131 35.7929 30.7031C35.6633 30.5554 34.2886 29.3334 32.7388 27.9772C27.2595 23.2034 23.2782 19.6584 23.3171 19.5778C23.33 19.5576 23.9914 18.8997 24.7825 18.1275C25.5736 17.3487 27.9469 14.992 30.0478 12.8838C32.1487 10.7756 34.2497 8.69418 34.7101 8.25104C36.3182 6.72694 36.4868 6.50537 36.6294 5.69967C36.8823 4.28971 35.994 2.95359 34.6063 2.64474C34.2432 2.56418 33.8152 2.59103 33.3678 2.73203C33.0565 2.82602 30.7805 4.3837 28.9714 5.73996C25.2753 8.51289 21.8905 11.3731 20.8595 12.5951C20.2435 13.3202 20.0879 13.6223 20.0879 14.0923C20.0879 14.5489 19.9776 15.3479 19.9063 15.4217C19.7701 15.5627 18.7261 13.0046 18.7261 12.5414C18.7261 11.7625 17.1829 9.99 13.9991 7.0895C12.3066 5.55196 8.8829 2.60446 8.63001 2.45675C8.429 2.34932 8.21502 2.36275 7.99455 2.51046ZM10.1409 5.58553C10.9968 6.3308 12.3974 7.5662 13.2534 8.33833C16.1843 10.9971 17.2672 12.1251 17.332 12.5817C17.5525 14.1729 18.5575 16.2946 19.9906 18.1947C20.9568 19.4704 23.0512 21.3973 31.2539 28.5546C33.1668 30.2264 34.7879 31.6699 34.8592 31.7774C35.2158 32.3011 35.352 32.865 35.2547 33.4626C35.0018 35.0941 33.2122 35.8394 31.8764 34.8659C31.7726 34.792 30.3785 33.1135 28.7639 31.1328C20.8076 21.357 19.7896 20.2022 17.948 18.8527C16.4501 17.7583 14.3233 16.7511 13.5062 16.7511C13.3766 16.7511 13.195 16.6706 13.0134 16.543C12.2288 15.9589 9.3822 12.7428 6.54854 9.23131L5.10902 7.45206L5.33597 7.21707L5.56292 6.98207L8.85048 10.3794C11.0487 12.6488 12.1964 13.7902 12.3066 13.8103C12.767 13.8909 13.1496 13.5686 13.1496 13.0986C13.1496 12.8301 13.1301 12.8099 9.84259 9.39916L6.53557 5.97495L6.74307 5.75339L6.95705 5.53853L10.2641 8.96274C13.5581 12.3668 13.5776 12.3869 13.8369 12.3869C14.2908 12.3869 14.6021 11.9908 14.5243 11.5141C14.5048 11.4 13.4025 10.2116 11.2173 7.94219L7.93619 4.53141L8.15666 4.29642C8.3447 4.095 8.39009 4.07485 8.47439 4.15542C8.53275 4.20242 9.27845 4.84698 10.1409 5.58553ZM34.7879 4.23599C35.2029 4.55827 35.3715 5.02826 35.2483 5.53853C35.1899 5.78696 35.0861 5.92795 34.6841 6.31737C34.4118 6.57922 33.7439 7.23049 33.1927 7.76091C32.6415 8.29133 30.6833 10.2384 28.8482 12.0848C27.0066 13.9379 24.776 16.1603 23.8812 17.0331L22.2601 18.6244L21.91 18.2752C21.7219 18.0805 21.4042 17.718 21.2032 17.4628C20.8595 17.013 20.8465 16.9928 20.9308 16.7914C21.2226 16.0529 21.4496 14.9853 21.4496 14.3139V13.9312L21.9878 13.3806C23.8942 11.4201 29.3734 7.02907 32.7323 4.76641C33.2122 4.44413 33.6596 4.15542 33.7309 4.12185C33.9644 4.02114 34.5933 4.08828 34.7879 4.23599ZM18.8818 21.5114L19.1411 21.7867L19.0115 21.9344C17.6562 23.5055 14.5826 27.2319 11.0552 31.5692C9.64157 33.3082 8.40306 34.792 8.3058 34.8659C7.79353 35.2351 7.24885 35.3761 6.67174 35.2754C5.09605 35.0136 4.37628 33.1605 5.31651 31.7706C5.38784 31.6699 7.00893 30.2264 8.92181 28.5546C12.4493 25.4795 15.0819 23.1564 16.9105 21.498L17.9091 20.5916L18.2722 20.9139C18.4668 21.0952 18.7456 21.3637 18.8818 21.5114Z" fill="#9696A0"/>
</svg>
