<svg class="infra-svg" width="41" height="40" viewBox="0 0 41 40" fill="none" xmlns="http://www.w3.org/2000/svg">
<path d="M18.8359 1.26095C16.7213 1.67501 14.9763 2.99854 14.052 4.87661C13.5049 5.9857 13.3718 6.57722 13.3718 7.87116C13.3718 9.16511 13.5049 9.76402 14.0373 10.8288C14.2369 11.2132 14.3996 11.5534 14.4143 11.5829C14.4291 11.6125 14.333 11.6865 14.2073 11.753C12.8542 12.4554 12.5215 14.2817 13.5419 15.4426C13.8302 15.7679 14.2739 16.0341 14.7101 16.1524L15.0207 16.2338V16.9879C15.0207 19.0583 14.5474 21.9493 13.808 24.3745C13.4901 25.4097 12.8838 26.9846 12.3958 28.0345C12.0852 28.7074 12.0187 28.8035 11.7969 28.8701C11.3532 29.0179 10.4881 29.6464 10.0445 30.1344C9.5639 30.652 8.99456 31.7241 8.91323 32.2491C8.85407 32.6188 8.79492 32.678 8.42522 32.7371C7.73758 32.8406 6.82813 33.4987 6.42146 34.1937C6.07394 34.7926 6 35.2658 6 36.9073C6 37.9055 6.02958 38.4674 6.08873 38.5931C6.28097 39.022 5.40109 38.9998 20.0486 38.9998C34.696 38.9998 33.8161 39.022 34.0084 38.5931C34.1489 38.29 34.1267 35.5246 33.9788 34.9701C33.6904 33.861 32.707 32.9146 31.6719 32.7445C31.3096 32.6853 31.2726 32.6484 31.1543 32.1604C30.8512 30.9034 29.8086 29.6095 28.6477 29.0549L28.0414 28.7591L27.6939 28.0198C26.0894 24.5963 25.0765 20.3152 25.0765 16.9879V16.2338L25.4757 16.1228C25.9785 15.975 26.4443 15.6274 26.7549 15.1616C27.0506 14.7254 27.1468 14.4 27.1468 13.7863C27.1468 12.9656 26.6292 12.1375 25.8898 11.753C25.7641 11.6865 25.668 11.6125 25.6828 11.5829C25.6976 11.5534 25.8602 11.2132 26.0599 10.8288C26.5848 9.77142 26.7253 9.16511 26.7253 7.87116C26.7253 6.6068 26.5996 6.00788 26.082 4.95055C25.3426 3.41999 24.0931 2.25174 22.5255 1.62326C21.4017 1.17962 19.9598 1.03174 18.8359 1.26095ZM21.6457 2.88023C25.1282 4.04108 26.4148 8.22608 24.1744 11.0949L23.8565 11.4942H20.0486H16.2407L15.9227 11.0949C13.7415 8.30002 14.9097 4.20375 18.237 2.95417C18.9321 2.68799 19.3831 2.62144 20.2778 2.65841C20.8693 2.6806 21.202 2.73235 21.6457 2.88023ZM25.2169 13.0765C25.5053 13.2318 25.668 13.5054 25.668 13.8603C25.668 14.2152 25.5053 14.4888 25.2169 14.644C24.9064 14.7993 15.1907 14.7993 14.8802 14.644C14.2813 14.3335 14.2739 13.4093 14.8654 13.0839C15.1537 12.9286 24.9138 12.9213 25.2169 13.0765ZM23.6198 17.4981C23.7455 21.1507 24.5219 24.3671 26.2373 28.4042C26.2669 28.4782 25.0025 28.5004 20.0486 28.5004C15.0946 28.5004 13.8302 28.4782 13.8598 28.4042C13.882 28.3599 14.052 27.9606 14.2369 27.517C15.5604 24.3967 16.359 20.7958 16.4773 17.4981L16.5216 16.2264H20.0486H23.5755L23.6198 17.4981ZM27.0802 30.0531C28.2633 30.2749 29.4389 31.347 29.7051 32.434L29.7495 32.6336L26.4222 32.6558L23.0949 32.678L22.9026 32.8554C22.6734 33.0772 22.5921 33.3952 22.7104 33.6835C22.8952 34.1272 22.8435 34.1198 27.1985 34.1198C29.8825 34.1198 31.2726 34.1494 31.4722 34.2011C31.8641 34.312 32.4261 34.874 32.537 35.2658C32.5813 35.4285 32.6183 36.0052 32.6183 36.5376V37.521H20.0486H7.4788V36.4859C7.4788 35.325 7.54534 35.0662 7.94462 34.6521C8.44001 34.1346 8.18122 34.1641 12.8468 34.1198C16.8618 34.0828 17.0836 34.0754 17.2314 33.9423C17.4311 33.7575 17.505 33.3656 17.3867 33.0772C17.2019 32.641 17.1945 32.641 13.6084 32.641H10.3477L10.392 32.434C10.6508 31.3766 11.8265 30.2823 12.9503 30.0605C13.4309 29.9644 26.5848 29.9644 27.0802 30.0531Z" fill="#9696A0"/>
<path d="M19.8256 32.6928C19.2192 32.9146 19.1675 33.8019 19.7442 34.0459C20.0178 34.1568 20.4245 34.0902 20.5945 33.9128C21.0899 33.3582 20.5132 32.4414 19.8256 32.6928Z" fill="#9696A0"/>
</svg>
