<svg width="100" height="100" viewBox="0 0 100 100" fill="none" xmlns="http://www.w3.org/2000/svg">
<path fill-rule="evenodd" clip-rule="evenodd" d="M84.7759 29.9427C85.9541 26.5517 84.1602 22.8476 80.7692 21.6695L49.316 10.7414C46.139 9.63754 42.6447 11.1396 41.2596 14.2044L33.9527 30.3721L36.6865 31.6076L43.9934 15.4399C44.7392 13.7896 46.6208 12.9808 48.3314 13.5752L79.7846 24.5033C81.6106 25.1377 82.5765 27.1322 81.9421 28.9581L65.5281 76.2007C64.8937 78.0266 62.8992 78.9925 61.0733 78.3581L57.6774 77.1783L56.6928 80.0121L60.0887 81.192C63.4797 82.3701 67.1838 80.5763 68.3619 77.1853L84.7759 29.9427Z" fill="#6CD3D3"/>
<path fill-rule="evenodd" clip-rule="evenodd" d="M68.5206 46.8783C68.7925 46.0958 68.3786 45.241 67.596 44.9691L57.537 41.4742C56.7544 41.2023 55.8997 41.6163 55.6278 42.3988C55.3559 43.1814 55.7699 44.0362 56.5524 44.308L66.6114 47.803C67.394 48.0748 68.2488 47.6609 68.5206 46.8783Z" fill="#6CD3D3"/>
<path fill-rule="evenodd" clip-rule="evenodd" d="M54.7334 34.9501C54.456 35.7307 54.8639 36.5884 55.6445 36.8658L68.7788 41.5342C69.5594 41.8117 70.4171 41.4038 70.6945 40.6232C70.972 39.8426 70.5641 38.9849 69.7835 38.7075L56.6492 34.0391C55.8686 33.7616 55.0109 34.1695 54.7334 34.9501Z" fill="#6CD3D3"/>
<path fill-rule="evenodd" clip-rule="evenodd" d="M71.7172 33.6669C71.9891 32.8844 71.5751 32.0296 70.7926 31.7577L47.6543 23.7185C46.8718 23.4467 46.017 23.8606 45.7451 24.6432C45.4732 25.4257 45.8872 26.2805 46.6697 26.5524L69.808 34.5915C70.5905 34.8634 71.4453 34.4495 71.7172 33.6669Z" fill="#6CD3D3"/>
<path fill-rule="evenodd" clip-rule="evenodd" d="M66.3082 53.2411C66.5801 52.4586 66.1662 51.6038 65.3836 51.3319L57.135 48.466C56.3524 48.1941 55.4976 48.6081 55.2257 49.3906C54.9539 50.1732 55.3678 51.0279 56.1504 51.2998L64.399 54.1658C65.1816 54.4376 66.0364 54.0237 66.3082 53.2411Z" fill="#6CD3D3"/>
<path fill-rule="evenodd" clip-rule="evenodd" d="M64.3035 59.0096C64.5664 58.224 64.1427 57.374 63.3571 57.1111L56.6227 54.8572C55.8371 54.5943 54.9871 55.018 54.7242 55.8036C54.4613 56.5892 54.885 57.4392 55.6706 57.7021L62.405 59.956C63.1906 60.2189 64.0406 59.7952 64.3035 59.0096Z" fill="#6CD3D3"/>
<path fill-rule="evenodd" clip-rule="evenodd" d="M29.5223 32.9873H52.3892C53.4937 32.9873 54.3892 33.8827 54.3892 34.9873V85.0001C54.3892 86.1047 53.4937 87.0001 52.3892 87.0001H19.5229C18.4183 87.0001 17.5229 86.1047 17.5229 85.0001V45.4629C17.5229 44.9485 17.721 44.4539 18.0762 44.0819L28.0756 33.6064C28.4529 33.211 28.9757 32.9873 29.5223 32.9873ZM52.3892 29.9873C55.1506 29.9873 57.3892 32.2259 57.3892 34.9873V85.0001C57.3892 87.7615 55.1506 90.0001 52.3892 90.0001H19.5229C16.7615 90.0001 14.5229 87.7615 14.5229 85.0001V45.4629C14.5229 44.177 15.0183 42.9406 15.9061 42.0105L25.9055 31.5349C26.849 30.5465 28.1558 29.9873 29.5223 29.9873H52.3892Z" fill="#6CD3D3"/>
<path fill-rule="evenodd" clip-rule="evenodd" d="M49.0911 56.3203C49.0911 55.4919 48.4195 54.8203 47.5911 54.8203H23.096C22.2676 54.8203 21.596 55.4919 21.596 56.3203C21.596 57.1487 22.2676 57.8203 23.096 57.8203H47.5911C48.4195 57.8203 49.0911 57.1487 49.0911 56.3203Z" fill="#6CD3D3"/>
<path fill-rule="evenodd" clip-rule="evenodd" d="M49.0911 63.0562C49.0911 62.2277 48.4195 61.5562 47.5911 61.5562H23.096C22.2676 61.5562 21.596 62.2277 21.596 63.0562C21.596 63.8846 22.2676 64.5562 23.096 64.5562H47.5911C48.4195 64.5562 49.0911 63.8846 49.0911 63.0562Z" fill="#6CD3D3"/>
<path fill-rule="evenodd" clip-rule="evenodd" d="M49.0911 69.1802C49.0911 68.3517 48.4195 67.6802 47.5911 67.6802H23.096C22.2676 67.6802 21.596 68.3517 21.596 69.1802C21.596 70.0086 22.2676 70.6802 23.096 70.6802H47.5911C48.4195 70.6802 49.0911 70.0086 49.0911 69.1802Z" fill="#6CD3D3"/>
<path fill-rule="evenodd" clip-rule="evenodd" d="M49.0911 75.3027C49.0911 74.4743 48.4195 73.8027 47.5911 73.8027H34.1188C33.2904 73.8027 32.6188 74.4743 32.6188 75.3027C32.6188 76.1312 33.2904 76.8027 34.1188 76.8027H47.5911C48.4195 76.8027 49.0911 76.1312 49.0911 75.3027Z" fill="#6CD3D3"/>
<path fill-rule="evenodd" clip-rule="evenodd" d="M25.9371 42.2494L20.8022 42.249L25.9373 37.1726L25.9371 42.2494ZM28.937 44.2496C28.937 44.8019 28.4892 45.2496 27.9369 45.2496L15.9345 45.2487C15.0409 45.2486 14.596 44.1657 15.2316 43.5375L27.2345 31.6718C27.8661 31.0474 28.9376 31.4948 28.9375 32.383L28.937 44.2496Z" fill="#6CD3D3"/>
</svg>
