<svg id="group" class="organization-svg" viewBox="0 0 100 100" fill="none" xmlns="http://www.w3.org/2000/svg">
<path d="M48.0477 20.1487C43.1263 20.8754 39.1958 24.2444 37.6929 29.0502C37.1479 30.8338 37.1479 34.1863 37.6929 35.9864C39.3774 41.3867 44.1502 44.9044 49.8148 44.9209C51.9947 44.9209 53.3324 44.6236 55.3142 43.6658C57.9566 42.3941 59.7402 40.6105 61.0944 37.9351C62.1018 35.9369 62.3825 34.4836 62.2999 31.9733C62.2339 30.3549 62.1348 29.6943 61.7715 28.6373C61.1274 26.7546 60.153 25.1857 58.7162 23.7489C56.6849 21.7176 54.2903 20.5451 51.3837 20.1487C49.9304 19.9505 49.468 19.9505 48.0477 20.1487ZM52.9196 23.27C55.8922 24.2774 58.2538 26.639 59.2117 29.5787C59.7236 31.1476 59.7732 33.7734 59.2943 35.1607C58.0887 38.7279 55.6445 41.0399 52.1268 41.9482C48.9395 42.7575 45.5705 41.8822 43.0767 39.5536C41.7721 38.348 41.0289 37.192 40.4179 35.4579C39.8564 33.856 39.8233 31.3457 40.3518 29.7108C41.3922 26.4409 44.4805 23.6168 47.7174 22.9562C49.0551 22.692 51.6809 22.8406 52.9196 23.27Z" fill="#6CD3D3"/>
<path d="M73.7284 28.8025C70.3924 29.5622 67.4858 32.221 66.4454 35.491C66.0325 36.7461 65.9499 39.4215 66.2802 40.6105C66.7261 42.229 67.6179 43.7484 68.8235 44.987C70.1777 46.3412 71.086 46.9192 72.754 47.4807C75.2477 48.3229 77.758 48.1248 80.2682 46.9027C86.8411 43.6493 87.4522 34.467 81.3747 30.3053C79.1948 28.819 76.2221 28.241 73.7284 28.8025ZM77.8736 31.6265C79.1287 32.0063 79.9875 32.5513 80.9784 33.5918C84.2648 37.0599 83.1418 42.5593 78.7324 44.6071C75.8588 45.9613 72.143 45.0365 70.2273 42.5097C69.1868 41.1555 68.873 40.1316 68.8565 38.2159C68.8565 36.6965 68.9061 36.4818 69.385 35.4414C70.2438 33.6248 71.8787 32.2045 73.811 31.5935C74.7523 31.2962 76.8167 31.3127 77.8736 31.6265Z" fill="#6CD3D3"/>
<path d="M22.7153 29.4789C20.2381 30.0074 17.9921 31.5268 16.6048 33.5911C13.9955 37.4886 14.524 42.5421 17.86 45.8286C19.5775 47.5296 22.385 48.7021 24.7631 48.7021C28.8753 48.7021 32.8389 45.7625 34.1105 41.7659C34.639 40.1475 34.606 37.6372 34.0445 36.0188C33.4499 34.3178 32.7068 33.1452 31.4186 31.9396C29.0735 29.7101 25.8366 28.8018 22.7153 29.4789ZM27.6532 32.6333C29.635 33.5746 30.8571 34.9784 31.4847 37.0427C32.4755 40.2796 30.8571 43.7973 27.7028 45.2836C25.5724 46.2745 22.7153 46.0598 20.8161 44.7386C19.8087 44.0615 18.7518 42.8559 18.3224 41.8815C16.6048 38.1162 18.4875 33.7563 22.4676 32.3525C23.2438 32.0883 23.7557 32.0222 25.0109 32.0718C26.3651 32.1048 26.7284 32.1874 27.6532 32.6333Z" fill="#6CD3D3"/>
<path d="M48.2961 46.6714C43.2425 47.1668 38.4037 49.2642 34.8696 52.5011L33.7465 53.5415L32.1446 52.7818C30.1959 51.857 28.8582 51.4441 26.9094 51.1799C19.164 50.0899 11.4186 54.8792 8.87528 62.3274C8.19818 64.3091 8 65.9771 8 69.5113C8 72.7647 8 72.7812 8.46241 73.6565C8.79271 74.3006 9.13952 74.6804 9.73405 75.0438L10.5268 75.5392L18.8998 75.5888L27.2893 75.6383L27.3884 76.2989C27.537 77.2567 28.0159 78.1155 28.8086 78.8256C30.2124 80.0973 28.4453 79.9982 50.2778 79.9982C72.1104 79.9982 70.3433 80.0973 71.7471 78.8256C72.6884 77.9834 73.1013 77.0916 73.2004 75.7539L73.2829 74.6474L81.5568 74.5979C87.4361 74.5648 89.9629 74.4823 90.2601 74.3501C90.9868 74.0364 91.9281 73.1115 92.2419 72.4014C92.5061 71.8399 92.5557 71.2784 92.5557 68.5039C92.5557 64.9863 92.3575 63.3183 91.6804 61.3365C89.9629 56.2995 85.9663 52.402 80.9128 50.8001C76.3382 49.3633 71.0039 50.0073 67.0569 52.4515L66.2476 52.9635L65.2237 52.0882C60.55 48.1247 54.1918 46.0768 48.2961 46.6714ZM53.6799 49.611C61.9373 51.0313 68.4111 57.2573 70.1121 65.4156C70.3929 66.8029 70.4754 67.8598 70.525 71.2123C70.6075 75.6548 70.525 76.3815 69.8148 76.9264C69.3855 77.2733 69.3029 77.2733 50.2778 77.2733C31.3684 77.2733 31.1537 77.2733 30.7409 76.943C30.0307 76.3815 29.9647 75.853 30.0307 71.3279C30.0803 67.7938 30.1463 66.8359 30.4436 65.4156C32.1446 57.3234 38.5689 51.0808 46.7272 49.6275C48.5108 49.3137 51.8798 49.2972 53.6799 49.611ZM79.3274 53.1782C84.2488 54.4333 88.1462 58.3473 89.4179 63.3017C89.6986 64.4082 89.7482 65.1349 89.7482 68.025C89.7482 70.4527 89.6986 71.4766 89.55 71.6252C89.4014 71.7738 87.3535 71.8234 81.3091 71.8234H73.2829L73.1839 68.9663C73.0352 64.8376 72.4077 62.3109 70.6571 58.9253C70.2277 58.0831 69.4845 56.861 69.0056 56.2004L68.1303 54.9948L68.6753 54.648C71.5819 52.8644 75.7932 52.2864 79.3274 53.1782ZM28.1811 54.2186C29.5848 54.5654 31.7813 55.5068 31.7813 55.738C31.7813 55.7875 31.4675 56.2664 31.1042 56.828C30.1298 58.2482 28.7261 61.2539 28.2306 62.988C27.5865 65.2009 27.3223 67.3148 27.3223 70.2049V72.8143H19.2466C12.3599 72.8143 11.1543 72.7812 10.9727 72.5665C10.824 72.3849 10.791 71.361 10.8405 68.57C10.9066 65.2009 10.9561 64.6725 11.2864 63.6486C12.9049 58.7272 16.8024 55.16 21.7898 54.07C23.4909 53.6901 26.381 53.7562 28.1811 54.2186Z" fill="#6CD3D3"/>
</svg>
