<svg width="100" height="100" viewBox="0 0 100 100" fill="none" xmlns="http://www.w3.org/2000/svg">
<path fill-rule="evenodd" clip-rule="evenodd" d="M46.2564 10.0939C38.4721 10.8469 30.7561 14.0118 24.7058 18.9334C22.9262 20.3811 20.1084 23.221 18.6891 24.9978C15.1002 29.4901 12.1592 35.5666 10.9395 41.0091C10.1735 44.4278 10 46.0897 10 50.0113C10 53.933 10.1735 55.5949 10.9395 59.0135C12.1858 64.5747 15.2035 70.7381 18.9117 75.2957C20.3596 77.0752 23.1997 79.8927 24.9767 81.3119C29.4695 84.9004 35.5467 87.841 40.9898 89.0606C44.4088 89.8265 46.0709 90 49.993 90C53.9151 90 55.5771 89.8265 58.9961 89.0606C63.0886 88.1437 68.4396 85.8573 71.956 83.5231C78.0546 79.4746 82.7386 74.148 85.9367 67.6243C87.8956 63.6281 89.0083 60.0492 89.7091 55.4909C90.097 52.9687 90.097 47.0539 89.7091 44.5317C89.0083 39.9735 87.8956 36.3945 85.9367 32.3983C83.8463 28.134 81.5161 24.8897 78.152 21.5602C74.8492 18.2912 71.8237 16.143 67.6078 14.0736C63.6588 12.1351 60.0029 10.9919 55.6297 10.3279C53.6631 10.0294 48.3055 9.89552 46.2564 10.0939ZM55.0034 13.941C62.9556 15.096 70.1435 18.6768 75.7372 24.2699C81.3482 29.8802 84.8252 36.8661 86.0945 45.0797C86.2804 46.2821 86.3607 47.7705 86.3607 50.0113C86.3607 55.9334 85.1977 60.9412 82.6084 66.1685C77.2351 77.0157 67.2563 84.2037 54.9251 86.109C52.5604 86.4744 47.4256 86.4744 45.0608 86.109C36.8463 84.8398 29.8597 81.3632 24.2488 75.7527C18.6377 70.1424 15.1608 63.1566 13.8914 54.943C13.526 52.5784 13.526 47.4442 13.8914 45.0797C14.5368 40.9041 15.6314 37.3794 17.3776 33.8542C22.6547 23.2011 32.5627 15.9492 44.5078 13.9972C47.528 13.5038 51.8342 13.4806 55.0034 13.941ZM52.3601 30.1973C50.8891 30.6759 49.4736 32.013 49.0537 33.3206C48.5622 34.8515 49.1345 36.8379 50.3828 37.9338C53.1348 40.3499 57.7636 39.3167 58.8508 36.0435C59.8293 33.0982 57.583 30.1644 54.2423 30.0243C53.4987 29.9931 52.7866 30.0585 52.3601 30.1973ZM47.1824 43.6047C46.1111 43.7939 41.8324 45.2591 41.6031 45.5154C41.4268 45.7125 40.8591 47.6626 40.9511 47.7548C40.9798 47.7835 41.4583 47.664 42.0143 47.4896C44.197 46.8045 46.2323 47.122 46.7606 48.2298C47.3219 49.4067 47.05 51.0445 45.3033 57.0083C43.954 61.6159 43.7191 62.709 43.6947 64.4931C43.6789 65.6457 43.7404 66.0507 44.0326 66.7185C44.4938 67.7719 45.6376 68.8384 46.9806 69.4669C47.9271 69.9098 48.2111 69.9647 49.8591 70.0234C52.0541 70.1017 53.0963 69.8998 56.0212 68.8298L58.0567 68.0852L58.359 67.035C58.5253 66.4575 58.6243 65.9479 58.5792 65.9026C58.5339 65.8575 58.1865 65.9368 57.8071 66.0789C56.7922 66.459 54.1579 66.4659 53.4699 66.0902C51.8351 65.1978 51.9358 63.6923 54.1341 56.1612C55.5082 51.4534 55.6302 50.8782 55.6446 49.0416C55.665 46.4336 54.8196 45.0819 52.4982 44.011C51.5933 43.5936 51.2893 43.5366 49.7581 43.4978C48.8108 43.4737 47.6518 43.5219 47.1824 43.6047Z" fill="#6CD3D3"/>
</svg>
