<svg width="100" height="100" viewBox="0 0 100 100" fill="none" xmlns="http://www.w3.org/2000/svg">
<path d="M74.0075 12.2426C73.4895 12.4431 72.7878 12.9777 71.6181 14.1139L69.964 15.718L69.0617 15.6679C68.4101 15.6177 67.9756 15.7013 67.4577 15.9519C66.9564 16.1858 63.0299 20.0121 54.5084 28.5336L42.2609 40.7811L40.8407 45.7436C40.0553 48.4838 39.4204 50.8564 39.4204 51.0235C39.4204 51.4413 40.2057 52.2266 40.6234 52.2266C40.7905 52.2266 43.1632 51.5916 45.9034 50.8063L50.8659 49.3861L62.5286 37.7234L74.1913 26.0774L74.5923 26.5452C75.0769 27.0799 75.2606 27.9321 75.0936 28.7842C74.9933 29.3189 74.4252 29.9872 71.2338 33.1953C67.9088 36.5371 67.4911 37.0216 67.4911 37.5062C67.4911 38.2246 68.126 38.8596 68.8612 38.8596C69.3625 38.8596 69.7802 38.4753 73.1888 35.05C77.5832 30.6222 77.7502 30.3715 77.7502 28.166C77.7502 26.5954 77.4662 25.7766 76.4804 24.5903C76.0125 24.0055 75.9624 23.8551 75.9624 22.8025V21.6496L77.5665 19.9954C78.9032 18.6253 79.2039 18.2076 79.4211 17.4724C79.7553 16.3362 79.7553 15.7347 79.4044 14.7155C78.6859 12.5934 76.2298 11.474 74.0075 12.2426ZM76.5305 15.1165C77.3827 15.9853 77.2323 16.4532 75.5948 18.124L74.1913 19.561L73.1386 18.5083L72.086 17.4557L73.5229 16.0522C75.1938 14.4147 75.6617 14.2643 76.5305 15.1165ZM71.2004 20.4298C72.3867 21.5995 73.3391 22.6855 73.3391 22.8192C73.3391 22.9529 70.2146 26.1944 66.405 30.0039L59.4709 36.9381L57.0983 34.5487L54.7089 32.1761L61.643 25.242C65.4526 21.4324 68.6941 18.3078 68.8278 18.3078C68.9615 18.3078 70.0308 19.2602 71.2004 20.4298ZM55.2102 36.5204L57.5494 38.8596L53.8233 42.5856L50.114 46.295L47.7414 43.9056L45.352 41.533L49.0279 37.857C51.0497 35.8353 52.7373 34.1811 52.7874 34.1811C52.8375 34.1811 53.9236 35.2338 55.2102 36.5204ZM47.3069 47.5648C47.1398 47.7319 42.9125 48.9182 42.8123 48.8347C42.7454 48.7511 43.8816 44.5907 44.0487 44.3066C44.0989 44.2398 44.8842 44.9081 45.7864 45.8104C46.6887 46.7127 47.3738 47.498 47.3069 47.5648Z" fill="#6CD3D3"/>
<path d="M12.6859 41.7506C11.8672 42.018 10.4637 43.4549 10.213 44.3071C9.92899 45.3096 9.92899 83.205 10.213 84.2075C10.4804 85.1265 11.8672 86.5133 12.7862 86.7807C13.7553 87.0647 86.4383 87.0814 87.3907 86.7807C88.3097 86.5133 89.3623 85.5609 89.8135 84.5751L90.2145 83.723V64.3575C90.2145 49.6371 90.1643 44.825 90.014 44.3071C89.7466 43.3881 88.3598 42.0013 87.4408 41.7339C86.9228 41.5835 83.5644 41.5334 74.1908 41.5334H61.6258L61.2248 41.9511C60.6734 42.4858 60.6734 43.2544 61.2248 43.7891L61.6258 44.2068H74.1741H86.7223L87.1233 44.6245L87.5411 45.0255V64.2573V83.489L87.1233 83.89L86.7223 84.3078H50.1135H13.5047L13.1036 83.89L12.6859 83.489V64.2573V45.0255L13.1036 44.6245L13.5047 44.2068H25.3846H37.2645L37.6655 43.7891C38.2169 43.2544 38.2169 42.4858 37.6655 41.9511L37.2645 41.5334L25.2676 41.5501C17.0302 41.5668 13.0869 41.6337 12.6859 41.7506Z" fill="#6CD3D3"/>
<path d="M58.5515 52.6446C58.1338 53.0456 58.1338 53.079 58.1338 56.237C58.1338 59.3949 58.1338 59.4283 58.5515 59.8294L58.9525 60.2471H70.1641H81.3756L81.7766 59.8294C82.1944 59.4283 82.1944 59.3949 82.1944 56.237C82.1944 53.079 82.1944 53.0456 81.7766 52.6446L81.3756 52.2269H70.1641H58.9525L58.5515 52.6446ZM79.521 56.237V57.5737H70.1641H60.8072V56.237V54.9003H70.1641H79.521V56.237Z" fill="#6CD3D3"/>
<path d="M34.5573 57.8911C34.2565 58.1251 34.1562 58.3757 34.1562 58.9104C34.1562 59.4451 34.2565 59.6957 34.5573 59.9296C34.9249 60.2304 35.3593 60.2471 43.4296 60.2471C51.4999 60.2471 51.9343 60.2304 52.3019 59.9296C52.8533 59.4785 52.8533 58.3423 52.3019 57.8911C51.9343 57.5904 51.4999 57.5737 43.4296 57.5737C35.3593 57.5737 34.9249 57.5904 34.5573 57.8911Z" fill="#6CD3D3"/>
<path d="M34.4902 66.0114C34.2229 66.262 34.0725 66.6129 34.0725 66.9304C34.0725 67.2479 34.2229 67.5987 34.4902 67.8494L34.8912 68.2671H52.7863H70.6814L71.0824 67.8494C71.3497 67.5987 71.5001 67.2479 71.5001 66.9304C71.5001 66.6129 71.3497 66.262 71.0824 66.0114L70.6814 65.5937H52.7863H34.8912L34.4902 66.0114Z" fill="#6CD3D3"/>
<path d="M74.5925 66.0114C74.3252 66.262 74.1748 66.6129 74.1748 66.9304C74.1748 67.2479 74.3252 67.5987 74.5925 67.8494C74.9935 68.2671 75.027 68.2671 78.1849 68.2671C81.3429 68.2671 81.3763 68.2671 81.7773 67.8494C82.0446 67.5987 82.195 67.2479 82.195 66.9304C82.195 66.6129 82.0446 66.262 81.7773 66.0114C81.3763 65.5937 81.3429 65.5937 78.1849 65.5937C75.027 65.5937 74.9935 65.5937 74.5925 66.0114Z" fill="#6CD3D3"/>
<path d="M68.9936 73.6973C68.3921 73.8309 66.9385 74.4157 65.7354 75.0173C64.5491 75.6021 63.1957 76.1869 62.7613 76.3038C61.0236 76.7383 59.2524 76.0866 58.1998 74.6162C57.3811 73.48 56.6125 73.2795 55.8773 74.0314C55.2758 74.6162 55.3426 75.2512 56.0611 76.2203C57.498 78.1418 59.1856 79.0106 61.4747 79.0106C63.2625 79.0273 64.4154 78.6932 66.5876 77.5403C67.5066 77.0557 68.6929 76.521 69.2276 76.3707C71.2493 75.7859 72.9202 76.354 74.1733 78.0415C74.7916 78.877 74.9085 78.9605 75.4933 78.9605C76.2787 78.9605 76.8467 78.4091 76.8467 77.6739C76.8467 77.039 75.8943 75.719 74.8417 74.8836C73.3379 73.6806 71.0822 73.2294 68.9936 73.6973Z" fill="#6CD3D3"/>
<path d="M17.113 76.7048C16.8457 76.9554 16.6953 77.3063 16.6953 77.6238C16.6953 77.9412 16.8457 78.2921 17.113 78.5427L17.514 78.9604H31.2987C38.8678 78.9604 45.2004 78.9103 45.3508 78.8602C45.7685 78.6931 46.1361 77.8243 46.0191 77.2729C45.7852 76.2369 46.5371 76.2871 31.3489 76.2871H17.514L17.113 76.7048Z" fill="#6CD3D3"/>
<path d="M18.7815 69.0708V51.5454H24.3778C26.636 51.5454 28.2806 52.0036 29.3115 52.92C30.3587 53.8363 30.8824 55.0963 30.8824 56.6999C30.8824 57.649 30.6696 58.5408 30.2442 59.3754C29.8187 60.2099 29.1069 60.8808 28.1087 61.3881C27.1269 61.8954 25.7851 62.149 24.0833 62.149H22.4879V69.0708H18.7815ZM16.8179 66.4445V64.0636H26.2678V66.4445H16.8179ZM16.8179 62.149V59.1054H24.0097V62.149H16.8179ZM23.7151 59.1054C24.4188 59.1054 25.0242 59.0317 25.5315 58.8845C26.0388 58.7208 26.4315 58.4672 26.7097 58.1236C26.9878 57.7799 27.1269 57.3463 27.1269 56.8227C27.1269 56.0699 26.8897 55.5136 26.4151 55.1536C25.9406 54.7772 25.196 54.589 24.1815 54.589H22.4879V59.1054H23.7151Z" fill="#6CD3D3"/>
</svg>
