<svg id="standart" class="organization-svg" viewBox="0 0 100 100" fill="none" xmlns="http://www.w3.org/2000/svg">
<path fill-rule="evenodd" clip-rule="evenodd" d="M50.4198 57.1071C62.5996 57.1071 72.4733 47.2334 72.4733 35.0536C72.4733 22.8737 62.5996 13 50.4198 13C38.2399 13 28.3662 22.8737 28.3662 35.0536C28.3662 47.2334 38.2399 57.1071 50.4198 57.1071ZM69.136 84.0341L52.9377 59.9821C56.8201 59.5947 60.4415 58.3209 63.5965 56.3661L78.4831 77.7035H72.8382H71.8491L71.4594 78.6126L69.136 84.0341ZM75.4733 35.0536C75.4733 42.9794 71.7929 50.0457 66.0478 54.6365L82.5888 78.3453L84.2341 80.7035H81.3586H73.8272L70.8087 87.7468L69.724 90.2778L68.1858 87.9938L49.9256 60.8801L32.0482 87.4253L30.5101 89.7093L29.4254 87.1783L26.4068 80.135H18.8755H16L17.6453 77.7767L34.1561 54.1113C28.7766 49.5161 25.3662 42.6831 25.3662 35.0536C25.3662 21.2169 36.5831 10 50.4198 10C64.2564 10 75.4733 21.2169 75.4733 35.0536ZM46.9864 59.8738C43.1662 59.3502 39.6203 57.9655 36.5511 55.9216L21.751 77.135H27.3959H28.385L28.7746 78.0441L31.0981 83.4656L46.9864 59.8738ZM61.0024 28.0711C61.5882 28.6569 61.5882 29.6067 61.0024 30.1925L49.6419 41.553L48.5812 42.6137L47.5206 41.553L40.7042 34.7367C40.1184 34.1509 40.1184 33.2012 40.7042 32.6154C41.29 32.0296 42.2398 32.0296 42.8255 32.6154L48.5812 38.371L58.8811 28.0711C59.4669 27.4854 60.4167 27.4854 61.0024 28.0711ZM67.0071 35.0536C67.0071 44.2145 59.5807 51.6409 50.4198 51.6409C41.2588 51.6409 33.8324 44.2145 33.8324 35.0536C33.8324 25.8926 41.2588 18.4662 50.4198 18.4662C59.5807 18.4662 67.0071 25.8926 67.0071 35.0536ZM70.0071 35.0536C70.0071 45.8713 61.2375 54.6409 50.4198 54.6409C39.602 54.6409 30.8324 45.8713 30.8324 35.0536C30.8324 24.2358 39.602 15.4662 50.4198 15.4662C61.2375 15.4662 70.0071 24.2358 70.0071 35.0536Z" fill="#6CD3D3"/>
</svg>
