<svg width="100" height="100" viewBox="0 0 100 100" fill="none" xmlns="http://www.w3.org/2000/svg">
<path d="M25.5761 15.2012C24.6966 15.5888 24.6519 15.8721 24.6519 21.388C24.6519 26.9487 24.6966 27.2021 25.606 27.5748C26.3812 27.9028 35.7434 27.9028 36.5186 27.5748C37.6814 27.0978 37.7112 25.3535 36.5782 24.787C36.131 24.5634 35.6092 24.5187 33.0749 24.5187H30.0933L31.435 23.6391C35.6987 20.8811 40.4692 19.1667 45.7914 18.4959C47.9083 18.2275 51.7247 18.1828 53.8417 18.4213C60.5204 19.1369 66.8265 21.7756 72.1337 26.084C73.55 27.2319 73.8183 27.3959 74.3252 27.3959C75.4135 27.3959 76.3378 26.084 75.9353 25.115C75.5626 24.2056 71.12 21.06 67.8551 19.3903C60.2372 15.5143 51.9334 14.2024 43.6148 15.5888C38.6504 16.4088 33.5966 18.3617 29.6162 20.9855L27.9316 22.0887V19.2711C27.9316 16.0211 27.8273 15.5441 26.9775 15.2012C26.3365 14.9329 26.2023 14.9329 25.5761 15.2012Z" fill="#6CD3D3"/>
<path d="M26.5605 34.2081C24.1454 34.5808 21.8794 36.2505 20.806 38.442C20.1501 39.7837 19.9861 40.5291 19.9861 42.1094C20.001 43.8089 20.3588 45.0761 21.1936 46.373C24.4585 51.4119 32.0914 51.0989 34.8642 45.8215C36.0867 43.4958 36.1314 41.0062 35.0282 38.606C33.5822 35.4902 30.0788 33.6715 26.5605 34.2081ZM29.7955 37.7711C32.8368 39.2023 33.5523 42.9889 31.2267 45.3593C28.8712 47.7595 24.9355 47.0141 23.5342 43.8834C23.1764 43.0635 23.1317 42.8249 23.1913 41.8261C23.2658 40.5888 23.5789 39.8135 24.369 38.9191C25.7257 37.3686 27.9618 36.8916 29.7955 37.7711Z" fill="#6CD3D3"/>
<path d="M71.2251 34.2084C66.6186 34.9091 63.637 39.3218 64.6954 43.8688C66.2608 50.6519 75.3099 52.2172 79.0965 46.3733C79.9314 45.0763 80.2892 43.8091 80.3041 42.1096C80.3041 40.5294 80.1401 39.784 79.4842 38.4423C78.0381 35.4607 74.5645 33.6866 71.2251 34.2084ZM74.5645 37.8608C75.459 38.3528 76.2044 39.1131 76.7113 40.0523C76.9945 40.589 77.0542 40.917 77.0542 42.0351C77.0542 43.1979 76.9945 43.4812 76.6516 44.1371C76.428 44.5545 75.9062 45.2105 75.4888 45.5832C73.6253 47.2678 70.927 47.1932 69.1082 45.4043C66.7378 43.0786 67.4236 39.2324 70.4946 37.7565C71.2997 37.3689 71.5084 37.3242 72.5818 37.3689C73.5508 37.4136 73.9235 37.518 74.5645 37.8608Z" fill="#6CD3D3"/>
<path d="M18.7486 53.2906C16.1397 53.6782 13.9184 55.3181 12.7854 57.6586C12.1444 59.0152 11.9506 60.2824 12.0102 62.8764C12.055 65.3064 12.1444 65.53 13.173 65.8282C13.8737 66.0369 14.7086 65.694 14.9471 65.0977C15.0216 64.8741 15.126 63.6814 15.1558 62.459C15.2005 60.8191 15.29 60.029 15.4838 59.5072C15.8565 58.4786 16.9895 57.3008 18.0778 56.8089L18.9722 56.4213L28.0363 56.4511L37.1003 56.4958L37.801 56.8387C38.7253 57.3008 39.6049 58.1655 40.1117 59.1345C40.4994 59.8799 40.5292 60.0588 40.6037 62.4739C40.6932 65.3511 40.7528 65.5151 41.7963 65.8282C42.2436 65.9624 42.4523 65.9474 42.8846 65.7387C43.6897 65.366 43.7642 65.0082 43.7046 61.9819C43.6598 59.701 43.6002 59.209 43.317 58.4338C42.4374 56.0635 40.5888 54.3192 38.0694 53.4993C37.324 53.2459 36.4742 53.231 28.3792 53.2011C23.5043 53.1862 19.1661 53.216 18.7486 53.2906Z" fill="#6CD3D3"/>
<path d="M63.2483 53.2906C60.3711 53.7378 58.0007 55.6759 56.9721 58.4338C56.6888 59.209 56.6292 59.701 56.5845 61.9819C56.5249 65.0082 56.5994 65.366 57.4044 65.7387C57.8368 65.9474 58.0455 65.9624 58.4927 65.8282C59.5363 65.5151 59.5959 65.3511 59.6853 62.4739C59.7599 60.0588 59.7897 59.8799 60.1773 59.1345C60.6842 58.1655 61.5637 57.3008 62.488 56.8387L63.1887 56.4958L72.2528 56.4511L81.3168 56.4213L82.2113 56.8089C83.2996 57.3008 84.4326 58.4786 84.8053 59.5072C84.9991 60.029 85.0885 60.8191 85.1332 62.459C85.1631 63.6814 85.2674 64.8741 85.342 65.0977C85.5805 65.694 86.4153 66.0369 87.116 65.8282C88.1447 65.53 88.2341 65.3064 88.2788 62.8615C88.3086 61.6689 88.249 60.2675 88.1596 59.7159C87.6676 56.8983 85.5656 54.4832 82.8076 53.5589C81.8386 53.231 81.6597 53.231 72.9534 53.2011C68.0785 53.1862 63.7105 53.231 63.2483 53.2906Z" fill="#6CD3D3"/>
<path d="M64.0535 72.4477C63.8001 72.552 63.5168 72.7757 63.4274 72.9546C63.2187 73.3273 63.2187 74.3857 63.4125 74.7584C63.7405 75.3547 64.1132 75.4293 67.5867 75.5038L70.941 75.5784L69.5098 76.5027C65.4698 79.1115 61.4446 80.6918 56.3312 81.6459C54.7808 81.9292 54.0354 81.9739 50.6662 81.9888C46.5963 81.9888 45.6273 81.8993 42.6904 81.2285C37.413 80.0209 32.7915 77.74 28.334 74.1323C26.9178 72.9993 26.6196 72.8204 26.1276 72.8204C25.4717 72.8204 24.7412 73.3571 24.5921 73.9534C24.3834 74.7584 24.7412 75.2653 26.3364 76.5027C32.0163 80.9303 38.1286 83.5392 45.2993 84.6126C48.0125 85.03 52.6191 85.0598 55.3622 84.6871C61.3105 83.8821 66.4388 82.0633 71.1944 79.0817L72.5809 78.2171L72.6554 81.0794C72.7449 84.3293 72.8194 84.6126 73.8182 84.9107C74.2804 85.0449 74.4891 85.03 74.9214 84.8511C75.9054 84.4337 75.9203 84.3442 75.9501 78.6643C75.965 72.9993 75.9352 72.8502 74.9662 72.4328C74.2357 72.1346 64.7542 72.1346 64.0535 72.4477Z" fill="#6CD3D3"/>
</svg>
