<svg width="560" height="362" viewBox="0 0 560 362" fill="none" xmlns="http://www.w3.org/2000/svg">
<mask id="mask0_2175_121477" style="mask-type:alpha" maskUnits="userSpaceOnUse" x="0" y="0" width="560" height="362">
<path d="M0 312C0 339.614 22.3857 362 50 362L510 362C537.614 362 560 339.614 560 312V50C560 22.3858 537.614 3.05176e-05 510 3.05176e-05H50C22.3858 3.05176e-05 0 22.3858 0 50V312Z" fill="white"/>
</mask>
<g mask="url(#mask0_2175_121477)">
<g opacity="0.75">
<path d="M107.763 174.576C106.983 174.57 106.216 174.621 105.468 174.731C103.129 165.256 94.6212 158.193 84.4123 158.083C79.1596 158.025 74.3129 159.83 70.5103 162.865C70.0012 155.106 63.5884 148.925 55.6803 148.841C47.3856 148.751 40.5861 155.408 40.4959 163.703C40.4959 163.793 40.5023 163.877 40.5023 163.967C39.5098 163.787 38.4915 163.684 37.4538 163.671C27.4769 163.561 19.2982 171.566 19.1886 181.543C19.079 191.52 27.0838 199.699 37.0671 199.802C40.0769 199.834 42.9256 199.125 45.4392 197.843C47.9463 204.3 54.1786 208.915 61.5324 208.999C67.9259 209.07 73.5459 205.693 76.646 200.601C78.9275 201.432 81.3766 201.903 83.9418 201.929C88.4855 201.974 92.7135 200.646 96.2389 198.319C98.8813 201.594 102.909 203.707 107.447 203.759C115.509 203.843 122.109 197.385 122.199 189.322C122.283 181.266 115.819 174.66 107.763 174.576Z" fill="#00B2B5"/>
</g>
<path d="M103.247 170.065C102.467 170.058 101.7 170.11 100.953 170.219C98.613 160.745 90.1056 153.681 79.8966 153.572C74.6439 153.514 69.7973 155.318 65.9947 158.354C65.4856 150.594 59.0728 144.413 51.1647 144.33C42.87 144.239 36.0705 150.897 35.9802 159.192C35.9802 159.282 35.9867 159.366 35.9867 159.456C34.9941 159.276 33.9758 159.172 32.9382 159.16C22.9613 159.05 14.7826 167.055 14.673 177.032C14.5634 187.008 22.5681 195.187 32.5515 195.29C35.5613 195.323 38.41 194.614 40.9236 193.331C43.4307 199.789 49.663 204.404 57.0168 204.487C63.4103 204.558 69.0303 201.181 72.1304 196.09C74.4119 196.921 76.861 197.391 79.4261 197.417C83.9699 197.462 88.1978 196.135 91.7233 193.808C94.3657 197.082 98.3939 199.196 102.931 199.248C110.994 199.331 117.594 192.873 117.684 184.811C117.768 176.754 111.303 170.148 103.247 170.065Z" fill="#DDF0F2"/>
<g opacity="0.75">
<path d="M520.093 38.4502C519.514 38.4454 518.945 38.4836 518.39 38.565C516.654 31.5331 510.339 26.2903 502.762 26.209C498.864 26.1659 495.266 27.5053 492.444 29.7584C492.066 23.999 487.306 19.4115 481.437 19.3493C475.281 19.2823 470.234 24.2238 470.167 30.3803C470.167 30.4472 470.172 30.5094 470.172 30.5764C469.435 30.4424 468.679 30.3659 467.909 30.3563C460.504 30.275 454.434 36.2162 454.352 43.6212C454.271 51.0262 460.212 57.0966 467.622 57.1731C469.856 57.197 471.97 56.6708 473.836 55.7189C475.697 60.512 480.322 63.9371 485.781 63.9993C490.526 64.0519 494.697 61.5453 496.998 57.7663C498.691 58.3834 500.509 58.7326 502.413 58.7517C505.785 58.7852 508.924 57.7998 511.54 56.0729C513.501 58.5029 516.491 60.072 519.859 60.1102C525.843 60.1724 530.741 55.3793 530.808 49.395C530.871 43.4155 526.073 38.5124 520.093 38.4502Z" fill="#00B2B5"/>
</g>
<path d="M516.742 35.1015C516.163 35.0967 515.594 35.135 515.039 35.2163C513.302 28.1845 506.988 22.9417 499.411 22.8603C495.512 22.8173 491.915 24.1567 489.092 26.4098C488.715 20.6503 483.955 16.0629 478.085 16.0007C471.929 15.9337 466.882 20.8752 466.815 27.0316C466.815 27.0986 466.82 27.1608 466.82 27.2277C466.083 27.0938 465.328 27.0173 464.557 27.0077C457.153 26.9264 451.082 32.8676 451.001 40.2726C450.92 47.6776 456.861 53.7479 464.27 53.8245C466.504 53.8484 468.619 53.3222 470.484 52.3703C472.345 57.1634 476.971 60.5885 482.429 60.6506C487.174 60.7033 491.346 58.1967 493.646 54.4176C495.34 55.0347 497.158 55.3839 499.061 55.4031C502.434 55.4365 505.572 54.4511 508.189 52.7242C510.15 55.1543 513.14 56.7233 516.507 56.7616C522.491 56.8238 527.39 52.0306 527.457 46.0464C527.519 40.0669 522.721 35.1637 516.742 35.1015Z" fill="#DDF0F2"/>
<path d="M45.1986 362.395C35.8392 354.175 30.1523 337.791 30.1523 322.701C30.1523 290.167 56.5854 263.585 89.1846 263.585C109.95 263.585 128.209 274.178 138.728 290.374C129.433 298.161 122.082 308.302 117.742 320.187C146.481 274.87 207.994 275.658 235.761 321.499C246.235 321.143 256.436 322.914 265.847 326.481C277.169 310.551 295.389 301.225 314.497 300.999C318.098 308.463 323.837 314.222 330.651 317.931C285.35 280.861 360.102 221.467 385.926 274.456C383.808 266.591 379.598 260.225 373.989 255.41C386.645 227.594 426.797 227.155 439.621 255.507C439.699 255.681 439.77 255.869 439.848 256.05C432.995 257.342 426.376 259.85 420.028 263.766C468.593 244.339 514.918 297.25 489.288 342.975C508.356 340.06 527.703 345.941 540.152 362.382C317.45 362.395 267.998 362.395 45.1986 362.395ZM426.842 340.435C417.262 319.269 395.7 307.268 373.769 308.812C373.814 308.496 373.84 308.185 373.892 307.875C373.717 308.205 373.529 308.528 373.354 308.845C367.305 309.316 361.216 310.822 355.361 313.459C347.517 316.994 340.956 322.184 335.852 328.382C340.606 323.948 346.293 320.219 352.776 317.492C380.434 305.807 412.735 316.283 427.004 340.835C426.952 340.693 426.894 340.57 426.842 340.435Z" fill="#DDF0F2"/>
<path d="M280.758 36.9408C280.725 36.8138 280.607 36.7218 280.476 36.7436L273.493 37.7037C272.912 37.7833 272.335 37.4358 272.132 36.8748L270.233 31.6033C270.19 31.482 270.058 31.4112 269.933 31.443C269.807 31.4748 269.728 31.5866 269.741 31.7248L270.455 37.2748C270.532 37.8676 270.184 38.4244 269.625 38.6108L262.948 40.816C262.828 40.8578 262.744 40.9853 262.783 41.1222C262.816 41.2492 262.934 41.3412 263.065 41.3194L270.048 40.3593C270.629 40.2797 271.206 40.6272 271.409 41.1882L273.308 46.4597C273.351 46.581 273.483 46.6518 273.608 46.62C273.734 46.5882 273.813 46.4764 273.8 46.3382L273.086 40.7882C273.009 40.1954 273.367 39.633 273.916 39.4522L280.593 37.247C280.723 37.1996 280.791 37.0677 280.758 36.9408ZM270.556 33.9531L271.669 37.0464C271.952 37.84 272.751 38.3258 273.575 38.214L277.764 37.641L273.753 38.9613C272.965 39.2257 272.473 40.0105 272.585 40.8484L273.005 44.0986L271.892 41.0054C271.609 40.2118 270.804 39.7159 269.986 39.8378L265.797 40.4107L269.807 39.0905C270.596 38.8261 271.088 38.0412 270.975 37.2033L270.556 33.9531Z" fill="#00B2B5"/>
<g opacity="0.5">
<path d="M262.672 60.8042C262.638 60.6773 262.521 60.5853 262.389 60.607L257.645 61.2583C257.281 61.3068 256.936 61.092 256.803 60.7437L255.512 57.1551C255.469 57.0338 255.337 56.9631 255.212 56.9948C255.086 57.0266 255.006 57.1385 255.02 57.2766L255.507 61.0583C255.555 61.416 255.337 61.7659 254.997 61.8801L250.453 63.3855C250.333 63.4273 250.249 63.5548 250.288 63.6918C250.322 63.8187 250.439 63.9107 250.571 63.8889L255.315 63.2377C255.679 63.1892 256.024 63.4039 256.151 63.7423L257.442 67.3308C257.486 67.4522 257.617 67.5229 257.743 67.4911C257.868 67.4594 257.948 67.3475 257.934 67.2093L257.447 63.4276C257.399 63.07 257.617 62.72 257.957 62.6059L262.501 61.1004C262.621 61.0586 262.695 60.9368 262.672 60.8042ZM255.809 59.5062L256.314 60.9165C256.522 61.4875 257.105 61.8449 257.702 61.7698L259.672 61.4944L257.794 62.115C257.225 62.3071 256.863 62.8851 256.946 63.4879L257.139 64.9698L256.635 63.5595C256.426 62.9885 255.844 62.631 255.247 62.7062L253.277 62.9815L255.154 62.361C255.723 62.1689 256.085 61.5909 256.002 60.9881L255.809 59.5062Z" fill="#00B2B5"/>
</g>
<path d="M391.413 65.2703C391.379 65.1177 391.23 65.0169 391.073 65.0399L382.736 66.189C382.034 66.2847 381.35 65.8652 381.11 65.1929L378.842 58.8851C378.787 58.7438 378.634 58.6586 378.483 58.6916C378.333 58.7247 378.235 58.8734 378.254 59.0216L379.106 65.6602C379.195 66.3655 378.773 67.0441 378.114 67.2611L370.128 69.8947C369.973 69.9434 369.891 70.0965 369.931 70.2591C369.966 70.4117 370.115 70.5124 370.272 70.4894L378.614 69.3504C379.317 69.2547 380 69.6741 380.24 70.3464L382.508 76.6542C382.563 76.7956 382.716 76.8807 382.867 76.8477C383.018 76.8147 383.116 76.666 383.096 76.5178L382.245 69.8792C382.155 69.1739 382.577 68.4953 383.236 68.2782L391.222 65.6446C391.366 65.576 391.448 65.4229 391.413 65.2703ZM379.203 61.6908L380.531 65.3906C380.875 66.3356 381.839 66.9266 382.819 66.7918L387.832 66.1069L383.032 67.6916C382.088 68.0047 381.504 68.9483 381.632 69.95L382.132 73.8442L380.803 70.1443C380.46 69.1993 379.506 68.6027 378.516 68.7432L373.503 69.428L378.303 67.8433C379.246 67.5303 379.83 66.5867 379.708 65.595L379.203 61.6908Z" fill="#00B2B5"/>
<g opacity="0.5">
<path d="M408.699 75.0087C408.666 74.8818 408.554 74.7998 408.422 74.8216L403.773 75.4579C403.425 75.5108 403.081 75.296 402.953 74.9577L401.692 71.4448C401.649 71.3235 401.517 71.2527 401.402 71.2789C401.276 71.3107 401.196 71.4225 401.214 71.5451L401.691 75.2399C401.739 75.5975 401.525 75.9318 401.185 76.046L396.745 77.5053C396.625 77.5471 396.551 77.6689 396.585 77.7959C396.618 77.9228 396.73 78.0048 396.861 77.983L401.51 77.3467C401.858 77.2938 402.203 77.5086 402.331 77.8469L403.591 81.3598C403.634 81.4811 403.766 81.5519 403.882 81.5257C404.007 81.4939 404.087 81.3821 404.069 81.2595L403.592 77.5647C403.545 77.2071 403.759 76.8728 404.098 76.7587L408.538 75.2993C408.658 75.2576 408.732 75.1357 408.699 75.0087ZM402.002 73.749L402.499 75.1236C402.702 75.6846 403.269 76.0377 403.86 75.9525L405.785 75.6897L403.953 76.2977C403.393 76.4842 403.045 77.041 403.123 77.6338L403.308 79.08L402.811 77.7054C402.608 77.1444 402.041 76.7913 401.46 76.8709L399.535 77.1337L401.368 76.5257C401.927 76.3392 402.275 75.7824 402.198 75.1897L402.002 73.749Z" fill="#00B2B5"/>
</g>
<path d="M402.72 288.951C402.692 288.834 402.586 288.762 402.48 288.782L396.426 289.61C395.916 289.676 395.428 289.37 395.246 288.891L393.598 284.311C393.561 284.2 393.45 284.144 393.335 284.17C393.229 284.19 393.149 284.302 393.171 284.409L393.794 289.228C393.866 289.744 393.555 290.227 393.07 290.384L387.272 292.3C387.162 292.336 387.108 292.447 387.135 292.564C387.163 292.681 387.269 292.753 387.375 292.732L393.429 291.904C393.939 291.839 394.427 292.144 394.609 292.624L396.257 297.203C396.294 297.314 396.404 297.371 396.52 297.344C396.626 297.324 396.696 297.218 396.684 297.105L396.061 292.286C395.989 291.77 396.3 291.287 396.785 291.13L402.583 289.214C402.683 289.184 402.747 289.067 402.72 288.951ZM393.867 286.36L394.837 289.044C395.083 289.726 395.782 290.15 396.49 290.064L400.133 289.564L396.652 290.715C395.973 290.943 395.542 291.627 395.637 292.343L395.994 295.164L395.023 292.48C394.778 291.798 394.079 291.374 393.371 291.46L389.727 291.96L393.208 290.81C393.887 290.581 394.319 289.897 394.224 289.182L393.867 286.36Z" fill="#00B2B5"/>
<g opacity="0.5">
<path d="M410.026 317.451C409.998 317.334 409.892 317.262 409.786 317.283L405.658 317.847C405.344 317.893 405.043 317.707 404.932 317.399L403.808 314.286C403.77 314.175 403.66 314.118 403.544 314.144C403.439 314.165 403.359 314.277 403.381 314.384L403.801 317.66C403.842 317.982 403.656 318.273 403.361 318.375L399.415 319.672C399.306 319.708 399.241 319.824 399.279 319.935C399.306 320.052 399.413 320.124 399.519 320.104L403.647 319.539C403.96 319.493 404.262 319.679 404.373 319.987L405.497 323.1C405.534 323.212 405.645 323.268 405.76 323.242C405.866 323.221 405.946 323.109 405.924 323.003L405.503 319.727C405.463 319.405 405.649 319.113 405.943 319.011L409.889 317.715C409.999 317.678 410.063 317.562 410.026 317.451ZM404.086 316.329L404.524 317.553C404.702 318.048 405.205 318.358 405.725 318.286L407.433 318.055L405.795 318.592C405.301 318.754 404.985 319.253 405.053 319.784L405.224 321.067L404.787 319.844C404.609 319.348 404.105 319.038 403.585 319.11L401.877 319.342L403.515 318.805C404.01 318.642 404.325 318.143 404.257 317.612L404.086 316.329Z" fill="#00B2B5"/>
</g>
<g opacity="0.5">
<path d="M386.799 329.358C386.772 329.241 386.665 329.169 386.559 329.19L382.431 329.755C382.118 329.801 381.816 329.615 381.705 329.306L380.581 326.193C380.544 326.082 380.433 326.025 380.318 326.052C380.212 326.072 380.142 326.178 380.154 326.291L380.575 329.567C380.615 329.889 380.429 330.181 380.135 330.282L376.189 331.579C376.079 331.615 376.025 331.726 376.052 331.843C376.08 331.959 376.186 332.031 376.292 332.011L380.42 331.446C380.733 331.4 381.035 331.586 381.146 331.894L382.26 335.013C382.298 335.124 382.408 335.181 382.524 335.155C382.63 335.134 382.709 335.022 382.687 334.915L382.267 331.64C382.227 331.318 382.412 331.026 382.707 330.924L386.653 329.627C386.772 329.586 386.837 329.469 386.799 329.358ZM380.86 328.237L381.297 329.46C381.475 329.955 381.984 330.275 382.499 330.194L384.207 329.962L382.569 330.499C382.074 330.662 381.758 331.16 381.827 331.692L381.997 332.974L381.56 331.751C381.382 331.256 380.879 330.946 380.358 331.017L378.65 331.249L380.289 330.712C380.783 330.549 381.099 330.051 381.031 329.519L380.86 328.237Z" fill="#00B2B5"/>
</g>
<g opacity="0.5">
<path d="M521.609 366.596C521.576 366.469 521.458 366.377 521.327 366.399L516.582 367.05C516.218 367.099 515.874 366.884 515.74 366.536L514.449 362.947C514.406 362.826 514.274 362.755 514.149 362.787C514.024 362.819 513.944 362.93 513.957 363.069L514.445 366.85C514.492 367.208 514.274 367.558 513.935 367.672L509.39 369.178C509.271 369.219 509.197 369.341 509.226 369.484C509.259 369.611 509.377 369.703 509.508 369.681L514.253 369.03C514.617 368.981 514.961 369.196 515.095 369.544L516.386 373.133C516.429 373.254 516.56 373.325 516.686 373.293C516.811 373.261 516.891 373.15 516.877 373.011L516.39 369.23C516.343 368.872 516.561 368.522 516.9 368.408L521.444 366.902C521.564 366.861 521.633 366.729 521.609 366.596ZM514.753 365.308L515.257 366.718C515.466 367.289 516.048 367.647 516.645 367.572L518.615 367.296L516.737 367.917C516.168 368.109 515.806 368.687 515.889 369.29L516.082 370.772L515.578 369.362C515.369 368.791 514.787 368.433 514.19 368.508L512.23 368.778L514.107 368.157C514.677 367.965 515.038 367.387 514.956 366.785L514.753 365.308Z" fill="#00B2B5"/>
</g>
<path opacity="0.1" d="M267.122 360.605C178.233 322.191 136.046 218.821 172.893 129.722C209.741 40.6228 311.669 -0.464939 400.558 37.9496C489.446 76.3642 531.633 179.734 494.786 268.833C457.939 357.932 356.01 399.02 267.122 360.605Z" fill="#FFCC65"/>
<path opacity="0.2" d="M283.007 327.119C212.03 296.445 178.344 213.905 207.766 142.76C237.189 71.6145 318.578 38.8061 389.555 69.48C460.532 100.154 494.219 182.695 464.796 253.84C435.374 324.985 353.984 357.793 283.007 327.119Z" fill="#FFCC65"/>
<path opacity="0.2" d="M295.052 297.956C240.142 274.226 214.08 210.369 236.843 155.328C259.605 100.288 322.571 74.9057 377.482 98.6363C432.392 122.367 458.454 186.224 435.691 241.264C412.929 296.305 349.963 321.687 295.052 297.956Z" fill="#FFCC65"/>
<path d="M248.49 300.471C255.242 302.427 259.27 298.45 257.491 291.601C255.713 284.752 248.792 277.615 242.036 275.667C235.284 273.711 231.256 277.688 233.035 284.537C234.823 291.39 241.747 298.518 248.49 300.471Z" fill="#25282B"/>
<path d="M232.854 279.475L234.624 281.305C235.856 280.896 237.392 280.898 239.171 281.409C244.663 282.996 250.289 288.798 251.74 294.368C252.211 296.174 252.179 297.722 251.744 298.95L253.514 300.78L248.232 301.879L248.223 301.875C247.139 302.078 245.852 301.998 244.426 301.578C238.935 299.991 233.309 294.189 231.857 288.619C231.479 287.163 231.427 285.868 231.651 284.776L231.642 284.773L232.854 279.475Z" fill="#6CD3D3"/>
<path opacity="0.4" d="M232.854 279.475L234.624 281.305C235.856 280.896 237.392 280.898 239.171 281.409C244.663 282.996 250.289 288.798 251.74 294.368C252.211 296.174 252.179 297.722 251.744 298.95L253.514 300.78L248.232 301.879L248.223 301.875C247.139 302.078 245.852 301.998 244.426 301.578C238.935 299.991 233.309 294.189 231.857 288.619C231.479 287.163 231.427 285.868 231.651 284.776L231.642 284.773L232.854 279.475Z" fill="#25282B"/>
<path d="M240.905 292.383C231.961 283.206 228.909 271.606 234.09 266.474C239.271 261.342 250.722 264.62 259.667 273.797C268.612 282.974 271.663 294.574 266.483 299.706C261.302 304.838 249.85 301.559 240.905 292.383Z" fill="#6CD3D3"/>
<path d="M242.953 290.353C233.676 280.835 230.511 268.804 235.885 263.481C241.258 258.158 253.135 261.558 262.413 271.076C271.69 280.594 274.855 292.625 269.481 297.948C264.108 303.271 252.231 299.871 242.953 290.353Z" fill="#6CD3D3"/>
<path opacity="0.2" d="M242.953 290.353C233.676 280.835 230.511 268.804 235.885 263.481C241.258 258.158 253.135 261.558 262.413 271.076C271.69 280.594 274.855 292.625 269.481 297.948C264.108 303.271 252.231 299.871 242.953 290.353Z" fill="#25282B"/>
<path d="M245.279 288.048C235.765 278.287 232.52 265.949 238.031 260.491C243.541 255.032 255.721 258.519 265.235 268.279C274.749 278.04 277.994 290.377 272.483 295.836C266.972 301.295 254.793 297.808 245.279 288.048Z" fill="#6CD3D3"/>
<path d="M247.595 285.742C237.849 275.743 234.526 263.102 240.174 257.507C245.822 251.913 258.301 255.483 268.048 265.482C277.794 275.481 281.117 288.123 275.469 293.717C269.821 299.312 257.342 295.742 247.595 285.742Z" fill="#6CD3D3"/>
<path opacity="0.2" d="M247.595 285.742C237.849 275.743 234.526 263.102 240.174 257.507C245.822 251.913 258.301 255.483 268.048 265.482C277.794 275.481 281.117 288.123 275.469 293.717C269.821 299.312 257.342 295.742 247.595 285.742Z" fill="#25282B"/>
<path d="M265.761 293.53C276.911 296.725 283.54 290.149 280.567 278.855C277.594 267.561 266.15 255.822 255.009 252.631C243.859 249.435 237.23 256.011 240.203 267.305C243.172 278.608 254.616 290.347 265.761 293.53Z" fill="#6CD3D3"/>
<path d="M268.453 291.471C279.863 294.737 286.647 288.012 283.604 276.46C280.566 264.9 268.853 252.89 257.443 249.623C246.033 246.357 239.249 253.083 242.292 264.634C245.334 276.186 257.043 288.205 268.453 291.471Z" fill="#25282B"/>
<path d="M395.099 139.599C427.258 172.585 427.167 225.239 394.904 257.205C348.525 303.152 302.688 271.659 284.002 290.178C281.027 293.131 276.082 294.065 269.894 292.291C257.506 288.746 244.786 275.701 241.487 263.15C239.834 256.872 240.852 251.915 243.836 248.965C262.531 230.449 232.092 183.7 278.471 137.753C310.716 105.779 362.939 106.613 395.099 139.599Z" fill="#FFCC65"/>
<path opacity="0.9" d="M395.099 139.599C427.258 172.585 427.167 225.239 394.904 257.205C348.525 303.152 302.688 271.659 284.002 290.178C281.027 293.131 276.082 294.065 269.894 292.291C257.506 288.746 244.786 275.701 241.487 263.15C239.834 256.872 240.852 251.915 243.836 248.965C262.531 230.449 232.092 183.7 278.471 137.753C310.716 105.779 362.939 106.613 395.099 139.599Z" fill="#FFCC65"/>
<path d="M341.886 132.571C342.288 133.592 342.565 134.694 342.707 135.872C343.204 140.058 340.92 144.21 337.574 146.662C331.102 151.413 322.157 149.346 314.624 150.475C306.385 151.713 298.368 154.411 291.109 158.47C288.937 159.682 285.521 161.856 283.108 162.478C279.328 163.46 276.08 160.888 275.358 158.467C274.306 154.951 275.976 150.937 277.878 148.409C289.213 133.372 301.788 126.337 318.6 123.076C327.768 121.31 338.005 122.673 341.886 132.571Z" fill="#FFCC65"/>
<path opacity="0.6" d="M293.434 208.398C281.011 177.957 295.273 143.471 325.289 131.371C355.306 119.272 389.71 134.14 402.134 164.581C414.558 195.022 400.296 229.508 370.279 241.608C340.263 253.708 305.858 238.839 293.434 208.398Z" fill="#FFCC65"/>
<path d="M275.531 173.007C274.335 175.375 272.206 176.906 269.694 177.567C266.949 178.294 264.01 176.197 263.42 173.481C262.813 170.685 263.669 167.591 265.717 165.633C267.891 163.543 271.553 162.695 274.16 164.897C276.565 166.94 276.725 170.618 275.531 173.007Z" fill="#FFCC65"/>
<path opacity="0.15" d="M281.469 275.66C290.162 269.656 296.145 267.785 309.916 272.475C323.675 277.17 346.5 286.259 372.148 274.151C334.164 294.111 299.6 274.697 283.992 290.162C281.017 293.116 276.072 294.049 269.884 292.275C267.329 291.543 264.762 290.392 262.267 288.942C267.762 285.133 276.066 279.395 281.469 275.66Z" fill="#FFCC65"/>
<path opacity="0.15" d="M258.166 251.747C264.275 243.086 266.231 237.086 261.819 223.133C257.408 209.181 248.791 186.017 261.24 160.378C240.781 198.325 259.435 233.487 243.824 248.961C240.849 251.915 239.83 256.872 241.475 263.146C242.158 265.737 243.257 268.342 244.649 270.887C248.525 265.407 254.36 257.134 258.166 251.747Z" fill="#FFCC65"/>
<path d="M361.675 175.562C355.279 178.381 352.43 185.919 355.316 192.408C358.203 198.898 365.718 201.877 372.114 199.058C378.51 196.239 381.359 188.701 378.473 182.212C375.595 175.725 368.071 172.743 361.675 175.562Z" fill="#6CD3D3"/>
<path opacity="0.2" d="M362.009 194.163C367.355 198.272 374.415 196.867 378.761 192.045C377.608 195.083 375.306 197.655 372.116 199.058C365.72 201.877 358.204 198.898 355.318 192.408C353.186 187.61 354.193 182.234 357.452 178.617C355.343 181.448 356.318 189.79 362.009 194.163Z" fill="#25282B"/>
<path d="M352.887 199.973C346.491 202.793 343.642 210.33 346.528 216.82C349.415 223.309 356.931 226.289 363.327 223.469C369.723 220.65 372.571 213.113 369.685 206.623C366.807 200.137 359.279 197.162 352.887 199.973Z" fill="#6CD3D3"/>
<path opacity="0.45" d="M352.887 199.973C346.491 202.793 343.642 210.33 346.528 216.82C349.415 223.309 356.931 226.289 363.327 223.469C369.723 220.65 372.571 213.113 369.685 206.623C366.807 200.137 359.279 197.162 352.887 199.973Z" fill="white"/>
<path opacity="0.2" d="M353.224 218.573C358.57 222.683 365.63 221.277 369.976 216.455C368.823 219.493 366.521 222.065 363.331 223.468C356.935 226.288 349.419 223.308 346.533 216.819C344.401 212.02 345.407 206.644 348.667 203.027C346.557 205.859 347.542 214.204 353.224 218.573Z" fill="#6CD3D3"/>
<path d="M330.18 204.019C323.784 206.839 320.935 214.376 323.821 220.866C326.708 227.355 334.223 230.335 340.619 227.515C347.015 224.696 349.864 217.158 346.978 210.669C344.1 204.182 336.572 201.208 330.18 204.019Z" fill="#6CD3D3"/>
<path opacity="0.15" d="M330.18 204.019C323.784 206.839 320.935 214.376 323.821 220.866C326.708 227.355 334.223 230.335 340.619 227.515C347.015 224.696 349.864 217.158 346.978 210.669C344.1 204.182 336.572 201.208 330.18 204.019Z" fill="white"/>
<path opacity="0.4" d="M330.517 222.619C335.863 226.728 342.923 225.323 347.269 220.501C346.116 223.539 343.814 226.111 340.624 227.514C334.228 230.334 326.712 227.354 323.826 220.865C321.694 216.066 322.7 210.69 325.96 207.073C323.85 209.904 324.835 218.25 330.517 222.619Z" fill="#6CD3D3"/>
<path d="M314.327 185.943C307.931 188.762 305.082 196.299 307.969 202.789C310.855 209.279 318.371 212.258 324.767 209.439C331.163 206.619 334.011 199.082 331.125 192.592C328.238 186.102 320.723 183.123 314.327 185.943Z" fill="#6CD3D3"/>
<path opacity="0.2" d="M314.662 204.544C320.008 208.653 327.067 207.248 331.413 202.426C330.26 205.463 327.958 208.036 324.768 209.439C318.372 212.258 310.857 209.279 307.97 202.789C305.839 197.991 306.845 192.614 310.105 188.998C307.986 191.825 308.97 200.171 314.662 204.544Z" fill="#25282B"/>
<path d="M322.488 164.861C316.092 167.68 313.243 175.217 316.13 181.707C319.016 188.197 326.532 191.176 332.928 188.357C339.324 185.537 342.173 178 339.286 171.51C336.409 165.024 328.881 162.05 322.488 164.861Z" fill="#6CD3D3"/>
<path opacity="0.45" d="M322.488 164.861C316.092 167.68 313.243 175.217 316.13 181.707C319.016 188.197 326.532 191.176 332.928 188.357C339.324 185.537 342.173 178 339.286 171.51C336.409 165.024 328.881 162.05 322.488 164.861Z" fill="white"/>
<path opacity="0.2" d="M322.826 183.461C328.172 187.57 335.231 186.165 339.577 181.342C338.424 184.38 336.122 186.953 332.932 188.356C326.536 191.175 319.021 188.196 316.134 181.706C314.003 176.908 315.009 171.531 318.269 167.915C316.159 170.746 317.143 179.092 322.826 183.461Z" fill="#6CD3D3"/>
<path d="M322.576 176.931C317.492 179.17 315.235 185.153 317.527 190.31C319.811 195.464 325.785 197.829 330.869 195.59C335.952 193.351 338.209 187.368 335.917 182.21C333.625 177.053 327.65 174.688 322.576 176.931Z" fill="#6CD3D3"/>
<path opacity="0.3" d="M322.576 176.931C317.492 179.17 315.235 185.153 317.527 190.31C319.811 195.464 325.785 197.829 330.869 195.59C335.952 193.351 338.209 187.368 335.917 182.21C333.625 177.053 327.65 174.688 322.576 176.931Z" fill="white"/>
<path opacity="0.5" d="M322.838 191.695C327.089 194.959 332.688 193.843 336.137 190.018C335.224 192.426 333.386 194.475 330.863 195.587C325.783 197.817 319.818 195.456 317.522 190.307C315.828 186.494 316.633 182.23 319.214 179.355C317.543 181.6 318.322 188.223 322.838 191.695Z" fill="#6CD3D3"/>
<path d="M333.997 167.764C337.2 159.954 346.113 156.331 353.904 159.672C361.695 163.012 365.414 172.051 362.21 179.861C359.007 187.671 350.094 191.294 342.303 187.953C334.513 184.613 330.794 175.574 333.997 167.764Z" fill="#6CD3D3"/>
<path opacity="0.15" d="M333.997 167.764C337.2 159.954 346.113 156.331 353.904 159.672C361.695 163.012 365.414 172.051 362.21 179.861C359.007 187.671 350.094 191.294 342.303 187.953C334.513 184.613 330.794 175.574 333.997 167.764Z" fill="white"/>
<path opacity="0.4" d="M342.24 182.033C348.667 186.971 357.136 185.275 362.353 179.495C360.97 183.137 358.205 186.233 354.372 187.917C346.692 191.298 337.667 187.728 334.205 179.935C331.646 174.176 332.861 167.722 336.77 163.383C334.236 166.765 335.414 176.787 342.24 182.033Z" fill="#6CD3D3"/>
<path d="M336.334 210.202C328.552 206.839 324.859 197.79 328.085 189.99C331.311 182.19 340.234 178.593 348.016 181.955C355.797 185.318 359.49 194.368 356.265 202.168C353.039 209.968 344.116 213.565 336.334 210.202Z" fill="#6CD3D3"/>
<path opacity="0.2" d="M336.303 204.295C342.729 209.234 351.199 207.537 356.415 201.758C355.033 205.4 352.267 208.496 348.435 210.179C340.754 213.56 331.729 209.991 328.268 202.198C325.708 196.439 326.923 189.984 330.832 185.645C328.299 189.028 329.477 199.05 336.303 204.295Z" fill="#25282B"/>
<path d="M349.095 194.771C351.067 189.545 356.891 186.98 362.102 189.043C367.314 191.106 369.939 197.016 367.966 202.242C365.994 207.468 360.17 210.032 354.959 207.969C349.747 205.906 347.122 199.997 349.095 194.771Z" fill="#6CD3D3"/>
<path opacity="0.3" d="M349.095 194.771C351.067 189.545 356.891 186.98 362.102 189.043C367.314 191.106 369.939 197.016 367.966 202.242C365.994 207.468 360.17 210.032 354.959 207.969C349.747 205.906 347.122 199.997 349.095 194.771Z" fill="white"/>
<path opacity="0.5" d="M354.643 203.941C358.894 207.205 364.493 206.088 367.942 202.264C367.029 204.672 365.191 206.721 362.668 207.833C357.588 210.063 351.622 207.702 349.326 202.553C347.633 198.74 348.437 194.476 351.019 191.6C349.348 193.846 350.126 200.469 354.643 203.941Z" fill="#6CD3D3"/>
<path d="M217.306 230.414C217.998 230.713 218.71 231.011 219.448 231.298C219.884 231.466 220.374 231.254 220.534 230.816C220.694 230.379 220.458 229.853 220.041 229.714C217.213 228.595 214.65 227.384 212.464 226.109C212.061 225.862 211.536 226.008 211.306 226.415C211.076 226.822 211.219 227.349 211.626 227.587C213.337 228.564 215.241 229.522 217.306 230.414ZM227.491 233.999C227.526 234.014 227.561 234.029 227.6 234.035C230.189 234.782 232.984 235.483 235.901 236.113C236.366 236.211 236.807 235.916 236.903 235.461C236.993 234.993 236.703 234.547 236.242 234.441C233.363 233.817 230.599 233.119 228.044 232.387C227.593 232.254 227.124 232.517 227.007 232.973C226.893 233.399 227.106 233.832 227.491 233.999ZM204.979 222.408C205.276 222.537 205.638 222.486 205.889 222.254C206.227 221.935 206.244 221.394 205.923 221.048C205.303 220.377 204.754 219.685 204.285 218.996C203.74 218.244 203.362 217.439 203.12 216.9C202.697 215.953 202.408 214.98 202.255 214.004C202.18 213.537 201.746 213.215 201.284 213.284C200.822 213.353 200.509 213.787 200.584 214.253C200.76 215.374 201.098 216.502 201.577 217.588C201.849 218.202 202.278 219.111 202.903 219.971C203.409 220.717 204.01 221.483 204.689 222.211C204.767 222.296 204.865 222.359 204.979 222.408ZM244.096 237.649C244.157 237.675 244.222 237.693 244.299 237.706C247.012 238.154 249.858 238.557 252.739 238.923C253.201 238.978 253.628 238.645 253.676 238.18C253.724 237.715 253.396 237.284 252.926 237.225C250.062 236.867 247.246 236.467 244.55 236.025C244.087 235.949 243.655 236.269 243.59 236.727C243.528 237.124 243.746 237.497 244.096 237.649ZM260.948 239.752C261.027 239.786 261.118 239.815 261.211 239.814C263.966 240.063 266.819 240.272 269.699 240.442C270.163 240.467 270.567 240.114 270.589 239.637C270.607 239.169 270.248 238.766 269.778 238.729C266.919 238.558 264.078 238.344 261.342 238.102C260.876 238.056 260.472 238.408 260.433 238.877C260.393 239.274 260.616 239.608 260.948 239.752ZM277.883 240.783C277.979 240.825 278.082 240.849 278.193 240.855C280.971 240.949 283.831 241.017 286.688 241.042C287.16 241.049 287.536 240.664 287.533 240.197C287.533 239.722 287.146 239.337 286.683 239.334C283.838 239.304 280.986 239.24 278.227 239.153C277.759 239.137 277.369 239.507 277.359 239.978C277.35 240.326 277.568 240.647 277.883 240.783ZM202.459 206.926C202.87 207.104 203.354 206.93 203.546 206.517C204.57 204.364 206.193 202.16 208.373 199.959C208.706 199.627 208.693 199.084 208.365 198.756C208.04 198.419 207.493 198.42 207.172 198.747C204.857 201.076 203.126 203.441 202.021 205.765C201.826 206.187 201.997 206.695 202.424 206.911C202.432 206.915 202.45 206.922 202.459 206.926ZM294.833 240.953C294.938 240.999 295.05 241.027 295.177 241.019C297.954 240.989 300.818 240.924 303.663 240.83C304.133 240.816 304.491 240.423 304.471 239.948C304.45 239.474 304.055 239.107 303.585 239.121C300.744 239.207 297.902 239.271 295.133 239.305C294.667 239.31 294.3 239.699 294.311 240.17C294.316 240.533 294.535 240.825 294.833 240.953ZM311.768 240.414C311.881 240.463 312.015 240.489 312.142 240.482C313.879 240.396 315.624 240.292 317.382 240.182C318.46 240.121 319.532 240.047 320.612 239.955C321.08 239.92 321.416 239.506 321.375 239.033C321.333 238.561 320.919 238.216 320.45 238.251C319.383 238.338 318.322 238.407 317.254 238.473C315.496 238.582 313.751 238.686 312.022 238.776C311.557 238.803 311.198 239.196 311.228 239.674C311.273 240.014 311.479 240.289 311.768 240.414ZM213.912 194.722C214.174 194.835 214.483 194.813 214.733 194.632C216.83 193.129 219.197 191.619 221.78 190.139C222.184 189.911 222.317 189.389 222.084 188.978C221.852 188.568 221.324 188.422 220.929 188.655C218.306 190.158 215.881 191.706 213.74 193.241C213.36 193.511 213.274 194.043 213.548 194.43C213.641 194.553 213.772 194.661 213.912 194.722ZM328.654 239.191C328.777 239.244 328.919 239.275 329.062 239.254C331.951 239.003 334.762 238.739 337.497 238.463C337.96 238.415 338.296 238.002 338.246 237.525C338.192 237.057 337.777 236.713 337.305 236.757C334.583 237.028 331.771 237.291 328.891 237.546C328.422 237.581 328.083 238.003 328.137 238.471C328.173 238.808 328.374 239.07 328.654 239.191ZM345.493 237.462C345.624 237.519 345.778 237.544 345.93 237.527C348.727 237.174 351.556 236.794 354.329 236.4C354.79 236.331 355.104 235.898 355.037 235.435C354.962 234.968 354.532 234.637 354.07 234.706C351.297 235.1 348.486 235.488 345.692 235.832C345.225 235.889 344.903 236.318 344.97 236.781C345.017 237.091 345.221 237.345 345.493 237.462ZM228.5 186.261C228.719 186.355 228.974 186.362 229.199 186.242C230.787 185.47 232.456 184.703 234.184 183.94C235.057 183.552 235.955 183.175 236.857 182.789C237.282 182.611 237.489 182.111 237.301 181.668C237.118 181.237 236.619 181.022 236.191 181.209C235.276 181.599 234.374 181.985 233.493 182.369C231.752 183.137 230.058 183.915 228.458 184.691C228.035 184.891 227.863 185.406 228.071 185.827C228.162 186.032 228.316 186.181 228.5 186.261ZM362.241 235.053C362.381 235.113 362.548 235.134 362.712 235.112C365.476 234.662 368.298 234.175 371.063 233.675C371.52 233.593 371.828 233.147 371.732 232.682C371.644 232.22 371.198 231.903 370.737 231.993C367.972 232.494 365.172 232.98 362.419 233.424C361.957 233.493 361.649 233.939 361.728 234.397C361.788 234.702 361.987 234.943 362.241 235.053ZM244.052 179.684C244.245 179.768 244.466 179.781 244.686 179.7C247.233 178.753 249.904 177.808 252.628 176.907C253.072 176.758 253.301 176.278 253.155 175.832C253.001 175.383 252.521 175.145 252.081 175.286C249.341 176.2 246.649 177.146 244.086 178.107C243.648 178.269 243.432 178.765 243.603 179.201C243.665 179.424 243.842 179.594 244.052 179.684ZM378.886 232.02C379.043 232.088 379.21 232.108 379.39 232.072C382.169 231.515 384.953 230.919 387.681 230.31C388.136 230.206 388.418 229.749 388.309 229.289C388.201 228.828 387.743 228.537 387.288 228.64C384.572 229.245 381.801 229.836 379.031 230.397C378.571 230.488 378.28 230.941 378.38 231.398C378.443 231.694 378.641 231.914 378.886 232.02ZM395.391 228.327C395.558 228.399 395.746 228.418 395.929 228.373C398.699 227.688 401.458 226.978 404.134 226.243C404.588 226.118 404.844 225.65 404.723 225.194C404.593 224.735 404.125 224.47 403.675 224.586C401.014 225.308 398.264 226.022 395.515 226.706C395.065 226.821 394.792 227.282 394.904 227.734C394.962 228.018 395.155 228.225 395.391 228.327ZM411.695 223.875C411.87 223.95 412.071 223.965 412.27 223.906C415.017 223.077 417.735 222.215 420.352 221.35C420.796 221.201 421.025 220.721 420.879 220.275C420.725 219.826 420.245 219.588 419.806 219.728C417.21 220.592 414.504 221.449 411.769 222.273C411.321 222.41 411.074 222.883 411.216 223.337C411.289 223.585 411.476 223.78 411.695 223.875ZM427.723 218.518C427.916 218.601 428.137 218.614 428.356 218.533C431.077 217.517 433.737 216.474 436.247 215.418C436.671 215.24 436.878 214.74 436.686 214.305C436.503 213.875 436.004 213.659 435.567 213.843C433.082 214.888 430.444 215.93 427.739 216.932C427.301 217.094 427.085 217.591 427.256 218.026C427.348 218.252 427.513 218.427 427.723 218.518ZM443.284 211.945C443.503 212.04 443.758 212.047 443.979 211.936C446.659 210.643 449.189 209.317 451.51 207.993C451.914 207.765 452.056 207.247 451.815 206.833C451.582 206.422 451.063 206.28 450.659 206.509C448.366 207.813 445.874 209.125 443.226 210.39C442.803 210.59 442.631 211.105 442.839 211.525C442.942 211.725 443.1 211.866 443.284 211.945ZM457.891 203.513C458.154 203.627 458.462 203.605 458.709 203.432C461.255 201.617 463.472 199.773 465.3 197.947C465.633 197.615 465.629 197.076 465.295 196.735C464.962 196.394 464.427 196.391 464.094 196.722C462.333 198.484 460.184 200.265 457.711 202.029C457.331 202.299 457.245 202.831 457.519 203.218C457.626 203.357 457.751 203.453 457.891 203.513ZM469.409 191.378C469.829 191.559 470.308 191.374 470.5 190.96L470.548 190.867C470.704 190.542 470.843 190.23 470.97 189.923C472.062 187.282 472.402 184.689 471.981 182.191C471.906 181.724 471.468 181.411 471.006 181.48C470.544 181.549 470.236 181.995 470.315 182.453C470.678 184.616 470.372 186.903 469.407 189.237C469.291 189.518 469.163 189.803 469.025 190.085L468.966 190.204C468.771 190.626 468.951 191.139 469.381 191.345C469.383 191.367 469.391 191.37 469.409 191.378ZM410.816 158.404C410.894 158.438 410.985 158.467 411.079 158.466C413.953 158.726 416.782 159.018 419.491 159.351C419.953 159.406 420.38 159.074 420.428 158.608C420.476 158.143 420.14 157.708 419.678 157.653C416.947 157.321 414.095 157.009 411.209 156.754C410.743 156.708 410.339 157.061 410.3 157.53C410.26 157.926 410.483 158.26 410.816 158.404ZM427.659 160.503C427.721 160.53 427.794 160.551 427.863 160.56C430.739 161.038 433.534 161.563 436.175 162.136C436.632 162.23 437.082 161.939 437.169 161.48C437.259 161.012 436.96 160.562 436.504 160.469C433.845 159.888 431.02 159.36 428.114 158.88C427.65 158.804 427.219 159.124 427.153 159.581C427.092 159.979 427.309 160.352 427.659 160.503ZM466.83 175.663C467.128 175.792 467.489 175.741 467.744 175.5C468.082 175.181 468.09 174.636 467.769 174.291C465.99 172.405 463.649 170.608 460.793 168.96C460.377 168.718 459.865 168.858 459.643 169.269C459.413 169.677 459.556 170.204 459.967 170.433C462.673 171.995 464.892 173.689 466.548 175.448C466.627 175.555 466.725 175.618 466.83 175.663ZM444.268 164.144C444.303 164.16 444.338 164.175 444.376 164.181C447.252 165.01 449.945 165.905 452.38 166.854C452.816 167.022 453.306 166.81 453.47 166.363C453.63 165.926 453.404 165.425 452.968 165.257C450.481 164.286 447.744 163.372 444.821 162.533C444.37 162.4 443.901 162.662 443.784 163.119C443.657 163.55 443.883 163.978 444.268 164.144Z" fill="white"/>
<path d="M318.98 334.429C320.38 335.034 321.834 335.383 323.301 335.479C323.774 335.508 324.169 335.151 324.187 334.683C324.208 334.207 323.846 333.812 323.385 333.778C322.115 333.705 320.85 333.397 319.634 332.871L319.625 332.867C318.453 332.36 317.286 331.639 316.169 330.722L315.625 331.366L315.143 332.057C316.354 333.046 317.649 333.854 318.98 334.429C318.971 334.425 318.971 334.425 318.98 334.429ZM309.806 325.604C310.052 325.71 310.344 325.702 310.583 325.547C310.982 325.306 311.098 324.777 310.853 324.371C309.757 322.605 308.688 320.551 307.676 318.283C307.469 317.811 307.262 317.339 307.062 316.85C306.883 316.41 306.381 316.203 305.947 316.378C305.514 316.553 305.316 317.057 305.495 317.496C305.7 317.998 305.912 318.483 306.125 318.967C307.167 321.31 308.271 323.431 309.418 325.271C309.51 325.424 309.649 325.536 309.806 325.604ZM331.043 333.221C331.288 333.327 331.571 333.315 331.807 333.169C333.998 331.861 336.216 329.966 338.398 327.559C338.708 327.207 338.683 326.669 338.339 326.354C337.989 326.027 337.452 326.054 337.145 326.397C335.074 328.686 332.984 330.472 330.931 331.694C330.533 331.935 330.408 332.461 330.644 332.862C330.737 333.037 330.885 333.153 331.043 333.221ZM303.082 309.887C303.257 309.963 303.457 309.977 303.657 309.918C304.102 309.79 304.353 309.309 304.219 308.858C303.438 306.308 302.705 303.541 302.026 300.642C301.917 300.181 301.46 299.89 301.005 299.994C300.549 300.097 300.268 300.554 300.376 301.014C301.058 303.956 301.806 306.761 302.603 309.349C302.667 309.594 302.854 309.789 303.082 309.887ZM342.571 321.059C342.939 321.218 343.38 321.099 343.606 320.752C345.068 318.54 346.523 316.067 347.948 313.395C348.17 312.984 348.014 312.461 347.604 312.232C347.172 312.004 346.677 312.152 346.456 312.563C345.058 315.196 343.62 317.625 342.189 319.788C341.933 320.183 342.037 320.704 342.43 320.977C342.478 321.009 342.527 321.04 342.571 321.059ZM299.146 293.214C299.295 293.278 299.453 293.295 299.617 293.272C300.074 293.191 300.378 292.754 300.303 292.287C299.817 289.595 299.368 286.764 298.966 283.871C298.903 283.399 298.473 283.069 298.014 283.129C297.547 283.186 297.225 283.615 297.292 284.078C297.695 286.993 298.151 289.857 298.638 292.57C298.689 292.871 298.892 293.104 299.146 293.214ZM350.605 306.147C351.025 306.328 351.513 306.146 351.7 305.72C352.371 304.221 353.054 302.645 353.722 301.031C354.153 299.987 354.58 298.931 355.005 297.853C355.174 297.419 354.963 296.956 354.528 296.737C354.095 296.56 353.597 296.768 353.428 297.202C353.006 298.271 352.583 299.319 352.155 300.354C351.495 301.95 350.819 303.509 350.155 304.99C349.96 305.413 350.149 305.929 350.583 306.127C350.588 306.139 350.597 306.143 350.605 306.147ZM296.778 276.266C296.9 276.319 297.046 276.341 297.194 276.333C297.657 276.285 297.993 275.872 297.948 275.407C297.662 272.657 297.401 269.794 297.191 266.911C297.158 266.442 296.751 266.08 296.282 266.116C295.817 266.142 295.464 266.548 295.505 267.021C295.721 269.916 295.987 272.792 296.271 275.572C296.288 275.879 296.498 276.145 296.778 276.266ZM356.821 290.345C356.838 290.352 356.856 290.36 356.864 290.364C357.304 290.523 357.789 290.298 357.944 289.848C358.844 287.248 359.734 284.521 360.596 281.74C360.73 281.291 360.475 280.809 360.041 280.662C359.594 280.521 359.123 280.762 358.98 281.207C358.13 283.962 357.246 286.672 356.35 289.262C356.199 289.704 356.409 290.167 356.821 290.345ZM295.475 259.211C295.589 259.26 295.714 259.283 295.84 259.276C296.31 259.262 296.673 258.86 296.648 258.395C296.512 255.606 296.4 252.735 296.326 249.87C296.315 249.399 295.923 249.024 295.457 249.029C294.991 249.034 294.623 249.423 294.635 249.894C294.714 252.771 294.822 255.651 294.96 258.461C294.975 258.799 295.186 259.086 295.475 259.211ZM295.023 242.12C295.128 242.166 295.232 242.19 295.355 242.191C295.826 242.199 296.202 241.813 296.199 241.346C296.185 238.538 296.205 235.672 296.25 232.817C296.26 232.346 295.884 231.956 295.417 231.94C294.949 231.924 294.568 232.297 294.558 232.768C294.512 235.623 294.494 238.511 294.514 241.332C294.501 241.688 294.717 241.988 295.023 242.12ZM295.289 225.04C295.377 225.078 295.48 225.102 295.582 225.104C296.046 225.129 296.445 224.764 296.463 224.296C296.558 221.473 296.692 218.604 296.838 215.783C296.868 215.31 296.5 214.903 296.04 214.869C295.57 214.832 295.171 215.197 295.145 215.661C294.992 218.5 294.866 221.372 294.768 224.204C294.748 224.578 294.974 224.904 295.289 225.04ZM296.202 207.991C296.281 208.025 296.372 208.054 296.465 208.053C296.935 208.09 297.335 207.746 297.374 207.277C297.572 204.478 297.805 201.621 298.06 198.784C298.099 198.315 297.756 197.898 297.294 197.843C296.828 197.797 296.419 198.137 296.371 198.603C296.112 201.448 295.885 204.317 295.683 207.125C295.65 207.504 295.869 207.847 296.202 207.991ZM297.721 190.997C297.791 191.027 297.874 191.052 297.955 191.056C298.417 191.111 298.843 190.779 298.891 190.313C299.194 187.487 299.524 184.641 299.877 181.868C299.938 181.397 299.602 180.963 299.143 180.899C298.676 180.831 298.253 181.155 298.193 181.626C297.845 184.412 297.511 187.266 297.205 190.101C297.159 190.485 297.38 190.849 297.721 190.997ZM299.845 174.088C299.906 174.115 299.98 174.136 300.048 174.145C300.512 174.222 300.944 173.901 301.013 173.435C301.175 172.295 301.349 171.15 301.52 170.014C301.771 168.334 302.032 166.679 302.294 165.024C302.372 164.561 302.048 164.121 301.588 164.036C301.128 163.951 300.688 164.268 300.619 164.734C300.357 166.389 300.092 168.053 299.837 169.742C299.663 170.887 299.497 172.036 299.335 173.175C299.269 173.56 299.495 173.937 299.845 174.088ZM302.56 157.27C302.613 157.293 302.678 157.311 302.734 157.325C303.19 157.418 303.636 157.115 303.722 156.656C304.229 153.835 304.77 151.029 305.318 148.308C305.413 147.853 305.118 147.394 304.657 147.288C304.204 147.185 303.753 147.477 303.654 147.941C303.103 150.67 302.563 153.497 302.053 156.327C301.974 156.717 302.193 157.111 302.56 157.27ZM305.938 140.573C305.982 140.592 306.025 140.611 306.073 140.621C306.531 140.736 306.981 140.445 307.085 139.993C307.709 137.213 308.363 134.434 309.039 131.728C309.155 131.272 308.881 130.812 308.418 130.684C307.964 130.56 307.499 130.835 307.392 131.295C306.712 134.011 306.051 136.806 305.424 139.596C305.338 140.003 305.562 140.41 305.938 140.573ZM310.054 124.06C310.089 124.075 310.115 124.086 310.154 124.093C310.604 124.226 311.074 123.963 311.199 123.511C311.964 120.739 312.765 118.004 313.573 115.375C313.707 114.927 313.456 114.436 313.018 114.298C312.571 114.156 312.1 114.398 311.957 114.842C311.142 117.489 310.333 120.241 309.562 123.03C309.447 123.457 309.669 123.894 310.054 124.06ZM315.08 107.816C315.097 107.824 315.115 107.832 315.123 107.835C315.563 107.994 316.048 107.77 316.203 107.32C317.152 104.576 318.135 101.899 319.126 99.38C319.295 98.9464 319.109 98.4731 318.649 98.2639C318.216 98.0873 317.717 98.2957 317.548 98.7293C316.547 101.275 315.56 103.96 314.6 106.73C314.458 107.175 314.668 107.639 315.08 107.816ZM375.126 121.886C375.249 121.939 375.395 121.96 375.542 121.952C376.006 121.904 376.342 121.491 376.296 121.027C375.986 118.111 375.636 115.24 375.262 112.504C375.199 112.032 374.768 111.701 374.31 111.762C373.843 111.818 373.521 112.248 373.584 112.72C373.965 115.439 374.314 118.288 374.611 121.187C374.645 121.502 374.846 121.765 375.126 121.886ZM321.3 92.027C321.72 92.2085 322.208 92.0265 322.395 91.6004C323.607 88.9188 324.849 86.364 326.094 84.0275C326.315 83.6165 326.16 83.0944 325.749 82.8652C325.326 82.641 324.823 82.7854 324.601 83.1963C323.342 85.568 322.08 88.1454 320.853 90.862C320.658 91.2843 320.847 91.8002 321.281 91.9981C321.283 92.0194 321.291 92.0232 321.3 92.027ZM372.749 104.935C372.898 104.999 373.056 105.016 373.22 104.994C373.677 104.912 373.981 104.475 373.906 104.008C373.374 101.079 372.793 98.2433 372.173 95.5765C372.065 95.1159 371.607 94.8252 371.152 94.9283C370.697 95.0314 370.415 95.4886 370.524 95.9492C371.137 98.5821 371.716 101.397 372.238 104.3C372.296 104.584 372.495 104.825 372.749 104.935ZM329.326 77.1107C329.693 77.2696 330.134 77.1502 330.36 76.8032C332.025 74.2757 333.727 72.0542 335.408 70.1852C335.719 69.8335 335.694 69.2953 335.349 68.981C335.008 68.6579 334.462 68.6805 334.152 69.0323C332.407 70.9563 330.654 73.2491 328.94 75.8481C328.683 76.2439 328.797 76.7684 329.18 77.0377C329.229 77.0691 329.273 77.0881 329.326 77.1107ZM368.813 88.2615C368.988 88.3372 369.189 88.3514 369.388 88.2929C369.837 88.1559 370.084 87.6836 369.95 87.233C369.052 84.2909 368.071 81.5506 367.049 79.0824C366.87 78.643 366.367 78.4362 365.934 78.6108C365.501 78.7855 365.303 79.2893 365.482 79.7287C366.483 82.1467 367.444 84.8368 368.325 87.7199C368.407 87.9721 368.586 88.1632 368.813 88.2615ZM340.849 64.9366C341.094 65.0425 341.377 65.0306 341.613 64.8843C342.476 64.3682 343.333 63.9423 344.18 63.6156C345.867 62.9796 347.545 62.7123 349.147 62.8049C349.611 62.8297 350.015 62.4769 350.037 62.0003C350.055 61.5325 349.696 61.1291 349.235 61.0954C347.394 60.9823 345.481 61.2929 343.567 62.0062C342.624 62.3641 341.677 62.8337 340.732 63.3973C340.333 63.6385 340.209 64.1638 340.454 64.5695C340.547 64.744 340.682 64.8647 340.849 64.9366ZM362.068 72.5453C362.313 72.6512 362.605 72.6431 362.844 72.4881C363.234 72.2431 363.359 71.7178 363.105 71.3083C361.342 68.4885 359.439 66.2291 357.44 64.5791C357.07 64.2747 356.535 64.3225 356.251 64.6856C355.957 65.0449 356.004 65.5819 356.364 65.8825L356.373 65.8862C358.237 67.4156 360.011 69.5367 361.678 72.1907C361.779 72.3691 361.919 72.481 362.068 72.5453Z" fill="white"/>
<path d="M391.12 277.857C393.842 279.034 396.498 280.119 399.044 281.096C399.48 281.264 399.974 281.043 400.134 280.605C400.294 280.168 400.072 279.658 399.632 279.499C397.103 278.53 394.474 277.456 391.804 276.302C391.376 276.117 390.854 276.305 390.676 276.735C390.504 277.178 390.691 277.672 391.12 277.857ZM383.354 274.336C383.774 274.517 384.262 274.335 384.445 273.918C384.64 273.496 384.451 272.98 384.03 272.777C381.537 271.596 378.978 270.325 376.399 269.004C375.96 268.793 375.471 268.954 375.267 269.372C375.063 269.791 375.231 270.308 375.648 270.52C378.236 271.845 380.821 273.127 383.323 274.312C383.337 274.328 383.346 274.332 383.354 274.336ZM407.046 283.923C407.072 283.934 407.098 283.946 407.124 283.957C409.981 284.882 412.76 285.669 415.367 286.299C415.825 286.415 416.276 286.123 416.38 285.672C416.488 285.212 416.201 284.757 415.743 284.642C413.175 284.018 410.434 283.237 407.621 282.331C407.174 282.19 406.703 282.431 406.566 282.888C406.437 283.298 406.652 283.753 407.046 283.923ZM368.149 266.555C368.551 266.729 369.019 266.569 369.221 266.181C369.443 265.77 369.279 265.244 368.864 265.024C366.398 263.679 363.906 262.271 361.434 260.84C361.036 260.606 360.506 260.739 360.285 261.15C360.054 261.557 360.197 262.084 360.608 262.314C363.089 263.748 365.598 265.163 368.073 266.512C368.105 266.536 368.131 266.547 368.149 266.555ZM353.355 258.001C353.74 258.167 354.189 258.03 354.405 257.658C354.644 257.255 354.51 256.731 354.106 256.484C351.726 255.032 349.286 253.522 346.861 251.978C346.461 251.723 345.939 251.838 345.691 252.238C345.443 252.637 345.565 253.166 345.965 253.421C348.399 254.969 350.844 256.491 353.242 257.951C353.285 257.97 353.32 257.985 353.355 258.001ZM423.584 287.834C423.654 287.864 423.727 287.886 423.813 287.902C426.956 288.309 429.851 288.443 432.425 288.305C432.89 288.278 433.244 287.873 433.211 287.403C433.178 286.934 432.779 286.576 432.306 286.599C429.833 286.74 427.041 286.608 424 286.204C423.529 286.145 423.115 286.473 423.054 286.943C423.018 287.331 423.242 287.686 423.584 287.834ZM338.934 248.821C339.302 248.98 339.743 248.861 339.973 248.505C340.229 248.109 340.116 247.585 339.72 247.32C337.566 245.893 335.374 244.408 333.19 242.906L332.663 242.533C332.279 242.264 331.747 242.355 331.485 242.738C331.224 243.121 331.321 243.659 331.705 243.929L332.24 244.305C334.438 245.824 336.639 247.312 338.801 248.743C338.838 248.78 338.89 248.802 338.934 248.821ZM324.818 239.153C325.186 239.312 325.615 239.198 325.85 238.855C326.111 238.471 326.014 237.933 325.621 237.66C323.235 235.998 320.903 234.328 318.695 232.682C318.324 232.407 317.79 232.476 317.511 232.852C317.24 233.232 317.32 233.762 317.705 234.053C319.93 235.707 322.271 237.381 324.68 239.063C324.717 239.099 324.766 239.131 324.818 239.153ZM440.225 286.381C440.435 286.472 440.681 286.475 440.908 286.377L441.051 286.304C443.919 284.907 446.017 282.877 447.297 280.256C447.501 279.837 447.325 279.316 446.907 279.105C446.489 278.893 445.975 279.064 445.771 279.482C444.662 281.764 442.817 283.531 440.298 284.759L440.183 284.812C439.763 285.003 439.574 285.511 439.778 285.94C439.878 286.149 440.041 286.302 440.225 286.381ZM311.084 228.937C311.425 229.085 311.834 228.993 312.076 228.683C312.364 228.312 312.296 227.776 311.932 227.484C311.181 226.88 310.43 226.277 309.701 225.672C308.188 224.491 306.71 223.325 305.248 222.145C304.884 221.853 304.345 221.909 304.061 222.273C303.773 222.645 303.84 223.18 304.204 223.472C305.678 224.647 307.161 225.825 308.657 226.999C309.381 227.591 310.129 228.204 310.897 228.815C310.947 228.868 311.014 228.907 311.084 228.937ZM297.754 218.192C298.095 218.34 298.492 218.253 298.738 217.956C299.031 217.597 298.977 217.056 298.616 216.756C296.421 214.928 294.217 213.076 292.089 211.236C291.732 210.927 291.2 210.966 290.898 211.321C290.597 211.677 290.643 212.214 291 212.523C293.145 214.37 295.346 216.232 297.549 218.063C297.608 218.119 297.684 218.162 297.754 218.192ZM284.779 207.012C285.103 207.152 285.496 207.074 285.744 206.798C286.055 206.446 286.021 205.904 285.664 205.595C283.541 203.695 281.414 201.753 279.353 199.828C279.003 199.501 278.47 199.519 278.159 199.87C277.844 200.21 277.865 200.757 278.218 201.075C280.297 203.007 282.432 204.953 284.561 206.866C284.611 206.919 284.691 206.974 284.779 207.012ZM447.557 272.344C447.679 272.397 447.804 272.42 447.943 272.408C448.408 272.381 448.762 271.976 448.72 271.503C448.527 268.927 447.888 266.056 446.827 262.96C446.672 262.511 446.193 262.273 445.749 262.422C445.306 262.572 445.076 263.052 445.231 263.501C446.245 266.462 446.852 269.186 447.035 271.612C447.062 271.944 447.268 272.219 447.557 272.344ZM272.24 195.327C272.555 195.463 272.932 195.399 273.182 195.144C273.506 194.809 273.494 194.266 273.148 193.93C271.089 191.924 269.046 189.904 267.077 187.905C266.744 187.564 266.209 187.561 265.876 187.892C265.543 188.224 265.546 188.763 265.88 189.104C267.854 191.115 269.902 193.148 271.978 195.162C272.055 195.226 272.144 195.285 272.24 195.327ZM260.214 183.099C260.512 183.227 260.873 183.176 261.124 182.944C261.462 182.625 261.471 182.08 261.15 181.735C259.168 179.617 257.229 177.497 255.389 175.409C255.072 175.055 254.539 175.021 254.192 175.336C253.845 175.652 253.819 176.188 254.137 176.543C255.994 178.638 257.938 180.771 259.925 182.901C260.015 182.981 260.109 183.053 260.214 183.099ZM442.338 256.13C442.557 256.224 442.815 256.222 443.045 256.115C443.463 255.903 443.631 255.396 443.415 254.972C442.211 252.57 440.794 250.034 439.194 247.419C438.949 247.013 438.422 246.889 438.024 247.131C437.625 247.372 437.509 247.901 437.754 248.306C439.33 250.88 440.723 253.374 441.903 255.735C442.008 255.904 442.163 256.054 442.338 256.13ZM248.858 170.25C249.147 170.374 249.483 170.334 249.736 170.122C250.097 169.823 250.135 169.282 249.83 168.922C247.963 166.678 246.167 164.434 244.491 162.251C244.202 161.878 243.666 161.802 243.3 162.088C242.934 162.375 242.866 162.914 243.155 163.287C244.845 165.486 246.654 167.746 248.536 170.007C248.624 170.117 248.736 170.197 248.858 170.25ZM433.446 241.461C433.709 241.575 434.017 241.553 434.264 241.38C434.644 241.11 434.738 240.582 434.465 240.195C432.89 237.943 431.168 235.596 429.357 233.241C429.067 232.868 428.532 232.792 428.166 233.078C427.8 233.365 427.731 233.904 428.021 234.277C429.822 236.606 431.516 238.921 433.077 241.157C433.172 241.301 433.306 241.401 433.446 241.461ZM238.416 156.638C238.678 156.751 238.986 156.729 239.233 156.557C239.613 156.286 239.708 155.759 239.434 155.372C237.74 152.933 236.163 150.535 234.763 148.234C234.518 147.829 233.995 147.696 233.593 147.946C233.194 148.187 233.069 148.712 233.323 149.122C234.742 151.452 236.338 153.878 238.052 156.346C238.145 156.469 238.276 156.577 238.416 156.638ZM422.992 227.854C423.28 227.979 423.617 227.938 423.87 227.727C424.23 227.428 424.269 226.886 423.964 226.527C422.185 224.393 420.299 222.192 418.35 219.996C418.033 219.641 417.5 219.607 417.153 219.923C416.806 220.238 416.78 220.775 417.097 221.129C419.032 223.31 420.904 225.494 422.669 227.611C422.761 227.713 422.869 227.801 422.992 227.854ZM229.546 141.968C229.764 142.062 230.023 142.06 230.253 141.953C230.671 141.741 230.839 141.234 230.623 140.81C230.123 139.798 229.65 138.797 229.222 137.837C228.486 136.174 227.846 134.554 227.323 133.025C227.168 132.575 226.689 132.337 226.249 132.478C225.806 132.627 225.576 133.107 225.722 133.553C226.253 135.137 226.917 136.799 227.674 138.512C228.112 139.497 228.587 140.519 229.109 141.552C229.207 141.739 229.362 141.888 229.546 141.968ZM224.392 125.719C224.506 125.769 224.639 125.795 224.775 125.792C225.239 125.765 225.593 125.36 225.56 124.89C225.496 123.973 225.498 123.095 225.557 122.253C225.656 120.568 225.99 119.037 226.548 117.687C226.643 117.458 226.749 117.225 226.861 117.005C227.065 116.586 226.897 116.069 226.479 115.858C226.044 115.638 225.551 115.808 225.347 116.226C225.221 116.482 225.103 116.741 224.994 117.005C224.366 118.522 223.995 120.243 223.884 122.108C223.82 123.011 223.824 123.975 223.885 124.973C223.897 125.319 224.103 125.595 224.392 125.719ZM231.556 111.837C231.775 111.932 232.03 111.939 232.252 111.828C234.378 110.802 237.021 110.197 240.113 110.003C240.578 109.977 240.932 109.571 240.899 109.102C240.866 108.633 240.459 108.271 239.994 108.297C236.673 108.496 233.817 109.164 231.498 110.282C231.075 110.482 230.903 110.997 231.111 111.417C231.214 111.617 231.373 111.758 231.556 111.837ZM248.188 110.308C248.258 110.339 248.332 110.36 248.422 110.368C250.978 110.697 253.764 111.219 256.681 111.921C257.139 112.036 257.59 111.745 257.694 111.294C257.793 110.83 257.519 110.37 257.057 110.264C254.084 109.547 251.241 109.012 248.617 108.674C248.146 108.615 247.732 108.943 247.68 109.417C247.626 109.797 247.847 110.161 248.188 110.308ZM264.728 114.189C264.755 114.2 264.781 114.212 264.807 114.223C267.368 115.04 270.061 115.987 272.803 117.038C273.24 117.206 273.733 116.985 273.885 116.543C274.045 116.106 273.785 115.611 273.379 115.446C270.607 114.393 267.888 113.435 265.301 112.606C264.854 112.465 264.379 112.715 264.245 113.163C264.108 113.569 264.326 114.015 264.728 114.189ZM288.427 123.759C288.847 123.94 289.335 123.758 289.518 123.341C289.713 122.919 289.524 122.403 289.103 122.2C286.508 120.965 283.927 119.798 281.424 118.716L281.302 118.663C280.873 118.478 280.378 118.677 280.2 119.107C280.022 119.537 280.227 120.039 280.656 120.225L280.779 120.278C283.255 121.348 285.828 122.511 288.404 123.739C288.409 123.751 288.418 123.755 288.427 123.759Z" fill="white"/>
<path d="M448.73 250.085C444.298 246.959 438.24 248.012 435.203 252.438C432.166 256.864 433.295 262.988 437.728 266.113C442.16 269.239 448.218 268.186 451.255 263.76C454.301 259.337 453.172 253.214 448.73 250.085Z" fill="#6CD3D3"/>
<path opacity="0.2" d="M448.73 250.085C444.298 246.959 438.24 248.012 435.203 252.438C432.166 256.864 433.295 262.988 437.728 266.113C442.16 269.239 448.218 268.186 451.255 263.76C454.301 259.337 453.172 253.214 448.73 250.085Z" fill="white"/>
<path opacity="0.15" d="M436.802 257.533C436.309 262.666 440.098 266.775 444.996 267.775C442.556 268.189 439.944 267.67 437.739 266.117C433.306 262.992 432.177 256.868 435.214 252.442C437.467 249.166 441.364 247.748 445.04 248.489C442.337 248.189 437.323 252.082 436.802 257.533Z" fill="white"/>
<path d="M310.93 93.2113C310.931 87.7934 315.289 83.4644 320.662 83.5422C326.036 83.62 330.391 88.0751 330.389 93.493C330.388 98.9109 326.031 103.24 320.657 103.162C315.284 103.084 310.929 98.6292 310.93 93.2113Z" fill="#6CD3D3"/>
<path opacity="0.5" d="M310.93 93.2113C310.931 87.7934 315.289 83.4644 320.662 83.5422C326.036 83.62 330.391 88.0751 330.389 93.493C330.388 98.9109 326.031 103.24 320.657 103.162C315.284 103.084 310.929 98.6292 310.93 93.2113Z" fill="white"/>
<path opacity="0.35" d="M321.54 99.8152C326.626 99.3146 329.783 94.7747 329.672 89.7534C330.617 92.0848 330.686 94.7616 329.663 97.2354C327.606 102.209 321.911 104.505 316.949 102.36C313.273 100.772 311.037 97.1996 310.955 93.4314C311.252 96.1552 316.138 100.355 321.54 99.8152Z" fill="white"/>
<path d="M212.615 195.698C214.884 200.639 220.678 202.843 225.546 200.625C230.414 198.407 232.518 192.595 230.25 187.654C227.981 182.714 222.187 180.51 217.319 182.728C212.451 184.946 210.338 190.754 212.615 195.698Z" fill="#6CD3D3"/>
<path opacity="0.5" d="M212.615 195.698C214.884 200.639 220.678 202.843 225.546 200.625C230.414 198.407 232.518 192.595 230.25 187.654C227.981 182.714 222.187 180.51 217.319 182.728C212.451 184.946 210.338 190.754 212.615 195.698Z" fill="white"/>
<path opacity="0.35" d="M226.738 195.45C229.745 191.321 228.535 185.866 224.786 182.509C227.119 183.403 229.124 185.19 230.252 187.652C232.52 192.593 230.416 198.404 225.548 200.623C221.947 202.272 217.839 201.479 215.032 198.963C217.216 200.589 223.541 199.838 226.738 195.45Z" fill="white"/>
<path d="M202.248 358.765C201.716 359.064 201.077 359.064 200.591 358.719C200.106 358.426 199.763 357.834 199.763 357.247C199.763 352.347 200.98 347.884 202.637 344.106C180.962 362.095 165.572 362.394 164.841 362.394C164.841 362.394 164.795 362.394 164.749 362.394C164.212 362.343 163.726 362.049 163.43 361.607C163.138 361.112 163.087 360.474 163.332 359.934C167.474 351.554 177.7 339.587 185.104 331.449C178.626 334.094 172.198 335.422 171.759 335.515C171.125 335.664 170.491 335.422 170.051 334.882C169.662 334.342 169.616 333.657 169.903 333.07C189.971 292.371 219.827 288.552 221.095 288.402C221.58 288.356 222.117 288.5 222.46 288.891L224.751 291.192C220.803 293.544 215.982 297.863 212.085 305.754C211.988 305.949 211.988 306.243 212.132 306.438C212.28 306.634 212.52 306.732 212.766 306.685C212.909 306.634 215.394 306.145 217.93 305.115C215.056 308.255 211.109 312.908 209.503 316.146C209.401 316.342 209.401 316.584 209.549 316.779C209.647 316.975 209.841 317.078 210.035 317.078L210.086 317.078C210.373 317.078 216.319 316.975 224.745 309.964C224.111 311.436 223.621 313.155 223.621 315.065C223.621 315.312 223.769 315.508 223.963 315.6C224.157 315.703 224.398 315.75 224.597 315.6C225.083 315.307 233.704 310.602 237.993 304.421L242.472 308.883C242.718 309.125 242.912 309.47 242.963 309.861C246.527 334.352 204.099 357.792 202.248 358.765Z" fill="#FFCC65"/>
</g>
</svg>
