<svg width="1130" height="120" viewBox="0 0 1130 120" fill="none" xmlns="http://www.w3.org/2000/svg">
<g filter="url(#filter0_d_2164_180712)">
<rect x="6" y="6" width="1110" height="100" rx="20" fill="#DDF0F2"/>
</g>
<g opacity="0.3">
<path d="M83.5515 44.0884C88.7876 50.2282 91.9121 56.8121 92.1538 63.3335C92.3949 69.8371 89.7721 76.3544 83.3625 82.3917C73.3972 91.7783 56.0475 88.8159 45.5977 76.568C35.1665 64.3362 35.3375 47.2051 45.769 38.2807L45.7691 38.2806C56.2 29.3542 73.1181 31.857 83.5515 44.0884ZM83.5515 44.0884L83.932 43.7639M83.5515 44.0884L83.932 43.7639M83.932 43.7639C94.4962 56.1516 96.7007 70.5152 83.7053 82.7556C73.4624 92.4037 55.784 89.2775 45.2173 76.8924L83.932 43.7639Z" stroke="#00B2B5"/>
<path d="M85.2266 42.1653C95.523 54.2358 95.2513 71.2422 84.8163 80.1722C74.3813 89.1023 57.568 86.7168 47.2716 74.6464C36.9753 62.5759 37.2469 45.5695 47.6819 36.6395C58.1169 27.7094 74.9303 30.0949 85.2266 42.1653Z" stroke="#00B2B5"/>
<path d="M82.3689 44.6082C91.1263 54.8746 90.8858 69.3243 82.0281 76.9045C73.1704 84.4847 58.8833 82.4675 50.1258 72.2011C41.3683 61.9347 41.6089 47.4851 50.4665 39.9049C59.3242 32.3247 73.6114 34.3419 82.3689 44.6082Z" stroke="#00B2B5"/>
<path d="M79.7381 46.8576C87.0791 55.4635 86.8672 67.5599 79.4613 73.8976C72.0555 80.2354 60.0935 78.5572 52.7525 69.9513C45.4114 61.3454 45.6234 49.2491 53.0292 42.9113C60.4351 36.5735 72.3971 38.2517 79.7381 46.8576Z" stroke="#00B2B5"/>
<path d="M77.0079 49.1948C82.8761 56.0741 82.693 65.7245 76.7954 70.7715C70.8978 75.8186 61.3525 74.4935 55.4842 67.6142C49.616 60.7349 49.7991 51.0845 55.6967 46.0375C61.5943 40.9904 71.1397 42.3154 77.0079 49.1948Z" stroke="#00B2B5"/>
<path d="M74.2605 51.5553C78.6434 56.6934 78.49 63.8765 74.1143 67.6211C69.7385 71.3658 62.631 70.3965 58.248 65.2584C53.8651 60.1203 54.0185 52.9372 58.3942 49.1925C62.77 45.4479 69.8775 46.4172 74.2605 51.5553Z" stroke="#00B2B5"/>
<path d="M71.4626 53.9448C74.3397 57.3176 74.2163 61.9994 71.3833 64.4237C68.5503 66.8481 63.9142 66.2396 61.0371 62.8667C58.16 59.4939 58.2834 54.8122 61.1164 52.3878C63.9493 49.9634 68.5855 50.572 71.4626 53.9448Z" stroke="#00B2B5"/>
<path d="M68.2864 56.6623C69.455 58.0338 69.3666 59.8771 68.2845 60.8034C67.2029 61.7295 65.3704 61.5309 64.2026 60.1604C63.0341 58.7889 63.1224 56.9459 64.2043 56.0194C65.2887 55.0929 67.1189 55.292 68.2864 56.6623Z" stroke="#00B2B5"/>
<path d="M94.3688 30.0893C94.6437 29.2332 94.9926 28.1881 95.3745 27.1444C95.8236 25.9169 96.3125 24.7072 96.775 23.8107C97.0075 23.36 97.2223 23.0102 97.4101 22.78C97.504 22.6649 97.5782 22.5959 97.6302 22.5592C97.643 22.5502 97.6526 22.5443 97.6593 22.5407C97.8186 22.5493 97.9996 22.642 98.205 22.8825C98.4204 23.1348 98.6114 23.4932 98.7712 23.8854C98.9288 24.2721 99.0448 24.6634 99.1218 24.9609C99.1444 25.0485 99.1635 25.1274 99.1792 25.1948L94.3688 30.0893ZM97.6703 22.5354C97.6703 22.5354 97.6701 22.5355 97.6696 22.5356L97.6703 22.5354Z" stroke="#00B2B5"/>
<path d="M95.3471 31.0742L100.235 26.2544C100.302 26.27 100.381 26.2891 100.468 26.3116C100.765 26.3887 101.155 26.5049 101.541 26.6627C101.933 26.8227 102.29 27.0139 102.542 27.2297C102.782 27.4355 102.875 27.6172 102.884 27.7779C102.88 27.7846 102.874 27.7944 102.865 27.8076C102.828 27.8597 102.759 27.934 102.645 28.028C102.415 28.2161 102.066 28.4313 101.616 28.6641C100.721 29.1273 99.5131 29.6169 98.2875 30.0668C97.2454 30.4493 96.2019 30.7989 95.3471 31.0742ZM102.889 27.7671C102.889 27.7671 102.889 27.7673 102.889 27.7678L102.889 27.7671Z" stroke="#00B2B5"/>
<path d="M99.9877 25.5161L66.25 58.41" stroke="#00B2B5" stroke-miterlimit="10"/>
<path d="M110.185 42.0593C110.168 42.1482 110.152 42.2275 110.138 42.2951L103.708 44.6875C104.319 44.0281 105.077 43.2284 105.865 42.444C106.791 41.5226 107.745 40.6344 108.543 40.0186C108.944 39.709 109.287 39.4835 109.554 39.3548C109.688 39.2904 109.784 39.2595 109.847 39.2483C109.863 39.2455 109.874 39.2444 109.881 39.2439C110.023 39.3196 110.148 39.481 110.232 39.7864C110.321 40.1068 110.342 40.5128 110.321 40.936C110.301 41.3534 110.24 41.7572 110.185 42.0593ZM109.894 39.2438C109.894 39.2438 109.893 39.2437 109.893 39.2437L109.894 39.2438Z" stroke="#00B2B5"/>
<path d="M104.181 45.9948L110.646 43.7034C110.7 43.746 110.763 43.7965 110.833 43.854C111.069 44.0497 111.374 44.3205 111.657 44.6271C111.945 44.938 112.188 45.2629 112.325 45.5652C112.455 45.8534 112.463 46.0573 112.402 46.2062C112.396 46.2107 112.387 46.2171 112.373 46.2251C112.318 46.2567 112.224 46.2948 112.08 46.3312C111.792 46.404 111.385 46.4508 110.879 46.4709C109.873 46.5108 108.572 46.442 107.271 46.3297C106.165 46.2341 105.072 46.108 104.181 45.9948ZM112.412 46.1986C112.412 46.1987 112.411 46.1988 112.411 46.1992C112.411 46.1988 112.412 46.1986 112.412 46.1986Z" stroke="#00B2B5"/>
<path d="M110.725 42.9229L66.2539 58.4117" stroke="#00B2B5" stroke-miterlimit="10"/>
<path d="M112.031 67.8309L105.307 66.4792C106.173 66.2407 107.238 65.9608 108.32 65.7092C109.591 65.4135 110.869 65.1609 111.871 65.0576C112.375 65.0057 112.784 64.9943 113.079 65.0256C113.227 65.0413 113.325 65.0657 113.384 65.0891C113.398 65.0949 113.408 65.0998 113.415 65.1033C113.495 65.2422 113.517 65.4453 113.428 65.7493C113.336 66.0682 113.141 66.4244 112.9 66.773C112.664 67.1168 112.4 67.4282 112.194 67.6555C112.133 67.7222 112.078 67.7811 112.031 67.8309ZM113.425 65.1096C113.425 65.1096 113.425 65.1094 113.425 65.1091L113.425 65.1096Z" stroke="#00B2B5"/>
<path d="M105.026 67.8444L111.727 69.3023C111.75 69.3672 111.778 69.4435 111.806 69.5292C111.905 69.8204 112.021 70.2117 112.101 70.6219C112.182 71.0379 112.218 71.4427 112.175 71.7723C112.135 72.0864 112.034 72.2635 111.905 72.3582C111.898 72.3588 111.886 72.3592 111.871 72.3586C111.807 72.3564 111.708 72.3394 111.566 72.2946C111.284 72.2049 110.913 72.03 110.472 71.7804C109.595 71.2837 108.525 70.5396 107.479 69.7586C106.588 69.0941 105.724 68.4104 105.026 67.8444Z" stroke="#00B2B5"/>
<path d="M112.207 68.6835L66.2539 58.4116" stroke="#00B2B5" stroke-miterlimit="10"/>
<path d="M103.743 86.3619L98.2243 82.2864C99.1093 82.4376 100.192 82.6355 101.277 82.8662C102.554 83.1375 103.819 83.4508 104.77 83.7823C105.248 83.9489 105.624 84.1123 105.878 84.2658C106.005 84.3426 106.084 84.4063 106.127 84.4527C106.138 84.4643 106.146 84.4732 106.15 84.4793C106.164 84.6395 106.098 84.8325 105.889 85.0702C105.67 85.3194 105.343 85.5593 104.978 85.773C104.619 85.9838 104.248 86.1541 103.965 86.2723C103.882 86.307 103.807 86.337 103.743 86.3619ZM106.157 84.4892C106.157 84.4892 106.157 84.489 106.156 84.4885L106.157 84.4892Z" stroke="#00B2B5"/>
<path d="M97.3915 83.4043L102.844 87.5663C102.838 87.6353 102.83 87.7162 102.82 87.8063C102.786 88.1119 102.727 88.5159 102.626 88.9213C102.523 89.3324 102.385 89.7145 102.207 89.995C102.038 90.2622 101.872 90.3796 101.716 90.4107C101.708 90.4081 101.698 90.4037 101.684 90.3965C101.628 90.3676 101.544 90.3098 101.435 90.2092C101.217 90.008 100.955 89.6922 100.661 89.279C100.076 88.457 99.4215 87.3289 98.8035 86.1774C98.2778 85.1982 97.7846 84.2129 97.3915 83.4043ZM101.727 90.4144C101.727 90.4145 101.727 90.4144 101.726 90.4143L101.727 90.4144Z" stroke="#00B2B5"/>
<path d="M103.541 87.2088L66.2539 58.4116" stroke="#00B2B5" stroke-miterlimit="10"/>
</g>
<g opacity="0.3">
<path d="M631.458 42.2606C631.681 40.8475 630.959 38.792 629.516 38.234C627.475 37.4446 624.264 39.242 622.535 37.798C623.013 37.3341 623.486 36.8713 623.954 36.4122C624.083 36.4772 624.229 36.5223 624.41 36.5367C624.865 36.5742 625.317 36.2754 625.631 35.9787C625.99 35.6398 626.231 35.1711 626.3 34.6844C626.387 34.0596 626.04 33.6352 625.685 33.1648C620.636 26.6159 614.331 20.3322 607.867 15.1839C607.846 15.167 607.824 15.155 607.803 15.1419C607.784 15.1232 607.767 15.1052 607.746 15.0883C607.302 14.7434 606.873 14.4569 606.285 14.5197C605.796 14.5729 605.357 14.7997 605.016 15.1542C604.7 15.4821 604.491 15.9372 604.511 16.397C604.517 16.5325 604.546 16.6518 604.585 16.7639C604.186 17.1488 603.77 17.5517 603.336 17.9765C602.088 16.3658 603.557 13.1954 603.227 11.2984C602.937 9.63607 600.625 8.72059 599.153 8.90845C595.342 9.39537 592.368 12.7593 590.262 15.724C584.93 23.232 583.778 33.1878 590.585 40.1518C590.604 40.1717 590.625 40.1855 590.644 40.2024C590.731 41.0608 590.921 41.9117 591.218 42.7519C591.194 42.7981 591.173 42.8486 591.161 42.9091C590.772 44.8111 589.66 46.4944 588.439 47.9789C587.882 47.7811 587.331 47.7764 586.9 48.1798C586.29 48.7526 585.56 49.5582 585.799 50.4582C582.891 52.2871 579.825 52.3154 576.511 51.625C574.081 51.1188 573.488 50.9371 571.718 52.5669C570.683 51.6892 569.941 52.0928 568.914 53.09C566.866 55.0771 564.822 57.0686 562.746 59.0272C562.315 58.5329 561.854 58.0297 561.358 57.7256C559.614 56.6607 557.916 59.3915 556.854 60.42C556.629 60.6384 556.622 61.012 556.841 61.2371C563.9 68.4825 570.959 75.7291 578.017 82.9745C578.133 83.0926 578.263 83.1424 578.39 83.1468C578.537 83.1649 578.694 83.1226 578.833 82.9874C579.812 82.0318 582.056 80.6744 581.834 79.0872C581.749 78.4818 580.916 77.7474 580.322 77.206C582.212 75.3151 584.131 73.454 586.045 71.5886C587.201 70.4629 588.047 69.7362 587.052 68.4099C588.505 66.9333 588.741 66.304 588.242 64.1673C587.441 60.7333 587.61 57.3177 589.594 54.3609C590.435 54.6047 591.231 53.9949 591.816 53.4149C591.854 53.3769 591.884 53.3369 591.909 53.2969C591.91 53.2957 591.911 53.2945 591.912 53.2939C592.26 52.8372 592.286 52.3192 592.14 51.8042C593.625 50.6522 595.299 49.6158 597.159 49.2604C598.07 49.6112 599.022 49.8015 599.997 49.8671C600.006 49.877 600.011 49.8863 600.02 49.8956C606.838 56.9982 616.645 55.9576 624.387 50.9578C627.421 48.996 630.864 46.0159 631.458 42.2606ZM594.406 45.9071C590.627 42.0108 591.555 37.0927 593.468 32.6209C595.974 26.7605 600.813 21.99 605.336 17.6441C605.395 17.6909 605.456 17.7372 605.516 17.7853C611.888 22.9132 618.15 29.089 623.147 35.5875C618.643 40.0145 613.795 44.6165 607.903 47.1164C603.262 49.0857 598.279 49.9011 594.406 45.9071ZM591.288 34.7218C588.342 29.0393 590.524 22.062 594.067 17.0843C594.861 15.969 597.206 12.7683 598.973 13.5291C599.544 13.7742 598.891 15.7782 598.821 16.2311C598.525 18.1511 598.863 19.8442 599.999 21.3919C596.428 25.2387 592.782 29.9318 591.288 34.7218ZM624.442 35.3896C624.446 35.394 624.45 35.4002 624.462 35.4095C624.455 35.4039 624.448 35.3958 624.442 35.3896ZM607.217 48.6102C611.63 47.0553 615.507 44.2062 619.051 41.0556C620.554 42.2241 622.225 42.609 624.14 42.3715C624.739 42.2967 626.419 41.7211 626.841 42.3009C627.919 43.7785 623.949 46.5275 623.145 47.1048C618.159 50.6888 610.776 52.4487 605.25 49.228C605.908 49.048 606.565 48.8393 607.217 48.6102ZM607.101 16.0386C613.543 21.1768 619.824 27.4405 624.857 33.969C625.019 34.1834 625.176 34.3206 625.158 34.5862C625.147 34.7619 625.001 34.9606 624.888 35.0876C624.761 35.2321 624.618 35.3396 624.434 35.3828C624.301 35.2625 624.202 35.0797 624.098 34.9396C619.082 28.3844 612.768 22.1496 606.344 16.9805C605.985 16.6969 605.411 16.4542 605.819 15.983C606.258 15.4769 606.664 15.7042 607.101 16.0386ZM590.782 17.0118C592.6 14.1824 595.181 11.2524 598.472 10.2007C599.734 9.79768 601.606 10.1495 602.107 11.5743C602.416 12.4557 602.058 13.7326 601.934 14.6228C601.734 16.0657 601.546 17.605 602.512 18.793C601.953 19.3506 601.378 19.9374 600.795 20.5474C599.657 18.9286 599.793 17.182 600.149 15.2979C600.288 14.5654 600.541 13.6533 600.077 12.9901C598.438 10.6474 595.173 13.9953 594.129 15.1657C589.27 20.6136 586.64 29.7848 590.873 36.2938C590.725 37.0115 590.632 37.7288 590.599 38.4445C585.223 32.094 586.428 23.784 590.782 17.0118ZM590.956 52.6391C590.491 53.0983 590.121 53.4211 589.529 53.055C589.035 52.7491 588.612 52.3212 588.206 51.9106C587.355 51.0504 586.264 50.0033 587.672 49.0358C588.156 48.7031 589.542 50.0769 589.813 50.342C590.259 50.7789 591.373 51.9353 590.956 52.6391ZM578.453 81.7667C571.656 74.7887 564.857 67.8108 558.06 60.8328C559.122 59.6965 560.306 58.2268 561.616 59.5817C562.34 60.3303 563.064 61.0796 563.789 61.8276C566.086 64.2005 568.383 66.5721 570.68 68.9443C572.978 71.3165 575.275 73.6881 577.574 76.0597C578.298 76.8077 579.023 77.5552 579.749 78.3032C581.042 79.6358 579.595 80.7547 578.453 81.7667ZM584.36 71.6176C582.734 73.2019 581.107 74.7855 579.503 76.3904C576.952 73.7594 574.403 71.1273 571.853 68.4945C569.074 65.6255 566.295 62.7565 563.517 59.8862C565.009 58.4776 566.483 57.0503 567.957 55.6236C569.106 54.5119 570.276 52.7032 571.719 54.1961C573.943 56.4967 576.169 58.7944 578.395 61.0919C580.682 63.4536 582.97 65.8152 585.258 68.175C586.635 69.5941 585.624 70.385 584.36 71.6176ZM587.021 63.9087C587.141 64.5869 587.678 66.0097 587.191 66.5826C586.91 66.9141 586.602 67.2261 586.294 67.5352C584.158 65.1605 581.796 62.9448 579.578 60.6553C577.23 58.2308 574.881 55.8082 572.536 53.3807C573.508 52.4954 574.172 52.22 575.673 52.6201C576.803 52.9216 577.982 53.0858 579.144 53.2058C581.711 53.472 584.159 52.8486 586.319 51.4899C586.637 51.9383 587.032 52.3505 587.379 52.7166C587.739 53.0958 588.145 53.4776 588.584 53.801C587.243 55.7958 586.637 57.9377 586.622 60.3625C586.615 61.5474 586.816 62.7451 587.021 63.9087ZM591.63 50.7457C591.319 50.2748 590.944 49.8518 590.641 49.5384C590.373 49.2605 589.95 48.8687 589.469 48.5318C590.477 47.2788 591.396 45.9032 591.935 44.3864C592.294 45.0474 592.73 45.6997 593.25 46.3411C593.983 47.2449 594.778 47.945 595.619 48.4786C594.176 48.9824 592.849 49.8219 591.63 50.7457ZM623.117 50.3963C616.279 54.6648 607.78 55.4526 601.649 49.8645C602.327 49.8209 603.011 49.7253 603.698 49.5923C603.713 49.6054 603.727 49.6203 603.744 49.6322C609.932 54.062 618.821 51.9407 624.461 47.5671C625.893 46.4571 629.611 43.4543 627.533 41.3097C627.006 40.765 626.146 40.9266 625.479 41.0145C623.453 41.2828 621.63 41.5609 619.911 40.2794C620.517 39.725 621.114 39.1648 621.702 38.6015C624.275 40.7573 631.723 36.8399 630.147 42.9037C629.304 46.1479 625.803 48.7202 623.117 50.3963Z" fill="#00B2B5"/>
<path d="M580.281 68.4976C580.691 68.0933 581.024 67.6578 581.081 67.0693C581.147 66.3767 580.603 65.7343 580.163 65.2718C578.204 63.2509 576.247 61.23 574.29 59.2084C573.925 58.8371 573.506 58.5232 572.968 58.4997C572.417 58.4755 571.93 58.8559 571.554 59.2148C570.966 59.7855 570.375 60.3555 569.784 60.9237C569.246 61.4406 568.701 62.0022 568.677 62.794C568.658 63.4585 569.137 63.9302 569.563 64.3692C571.304 66.1675 573.046 67.9658 574.788 69.7641C575.289 70.2815 575.819 70.923 576.548 71.1038C577.421 71.3204 578.093 70.6389 578.657 70.0844C579.198 69.5552 579.739 69.0267 580.281 68.4976ZM576.786 69.9733C576.33 69.8604 575.923 69.2777 575.616 68.9606C573.874 67.1623 572.133 65.364 570.391 63.5657C570.283 63.4543 570.175 63.3424 570.067 63.2311C570.054 63.2174 569.962 63.1076 569.953 63.1038C569.868 62.9812 569.834 62.8839 569.831 62.8121C569.813 62.3958 570.315 62.0156 570.588 61.7538C571.179 61.1856 571.77 60.6156 572.358 60.0449C572.498 59.9116 572.601 59.8207 572.721 59.7459C572.737 59.7357 572.851 59.6829 572.86 59.6745C572.879 59.6692 572.898 59.6628 572.917 59.6588C572.923 59.657 572.924 59.6571 572.928 59.6559C572.935 59.656 572.94 59.6561 572.952 59.6563C572.967 59.6559 572.969 59.6547 572.972 59.6535C572.981 59.6573 572.995 59.663 573.029 59.6721C573.038 59.6753 573.036 59.6741 573.042 59.6766C573.066 59.6892 573.09 59.7019 573.114 59.7163C573.263 59.8019 573.304 59.8534 573.463 60.0145C575.42 62.0372 577.378 64.0575 579.335 66.0784C579.507 66.2599 579.672 66.4413 579.802 66.6553C579.889 66.7976 579.926 66.9139 579.929 66.9973C579.932 67.0788 579.901 67.1506 579.838 67.2569C579.756 67.3941 579.626 67.5239 579.478 67.6705C578.936 68.1996 578.395 68.7276 577.854 69.2579C577.608 69.498 577.191 70.0738 576.786 69.9733Z" fill="#00B2B5"/>
<path d="M620.64 36.4988C620.682 36.4387 620.597 36.3878 620.548 36.4257C616.733 39.3069 612.927 41.961 608.43 43.7021C606.006 44.6402 603.414 45.2975 600.802 45.261C598.187 45.2251 596.173 44.1285 594.099 42.6603C594.092 42.6559 594.086 42.657 594.079 42.6551C594.078 42.6545 594.076 42.6544 594.075 42.6538C594.064 42.6524 594.054 42.6547 594.044 42.6595C594.04 42.6612 594.037 42.6624 594.033 42.6648C594.031 42.6672 594.028 42.6696 594.026 42.6721C594.018 42.6799 594.013 42.6884 594.011 42.6994C594.011 42.7012 594.011 42.7031 594.011 42.7043C594.011 42.711 594.008 42.7171 594.01 42.7245C594.012 42.7294 594.015 42.7338 594.016 42.7381C594.016 42.7381 594.016 42.7381 594.017 42.7387L594.018 42.7393C596.073 48.3392 603.323 47.3149 607.636 45.6121C610.484 44.4875 613.152 42.8663 615.616 41.0576C617.391 39.755 619.355 38.3222 620.64 36.4988Z" fill="#00B2B5"/>
<path d="M586.891 54.9938C586.902 54.9646 586.884 54.9361 586.86 54.9211C586.836 54.906 586.803 54.9043 586.783 54.9297C584.441 57.8339 583.172 62.1494 586.103 65.0961C586.122 65.116 586.152 65.1165 586.176 65.1046C586.199 65.0927 586.214 65.0696 586.204 65.0401C585.697 63.6226 585.358 62.2101 585.392 60.6949C585.437 58.6828 586.215 56.856 586.891 54.9938Z" fill="#00B2B5"/>
<path d="M613.881 26.9979C613.885 27.0011 613.888 27.0042 613.892 27.0073C613.915 27.0248 613.938 27.0172 613.954 27.0009C613.956 26.9997 613.957 26.9991 613.959 26.9973C613.96 26.9955 613.96 26.9942 613.962 26.9924C613.979 26.9774 613.987 26.9548 613.971 26.9313C613.968 26.927 613.965 26.9238 613.962 26.9195C613.961 26.9189 613.961 26.9189 613.961 26.9189C612.656 25.1315 611.031 23.6547 609.372 22.2057C608.134 21.1245 606.761 19.7276 605.213 19.108C605.172 19.0908 605.14 19.1118 605.123 19.1434C605.107 19.175 605.107 19.2172 605.132 19.2458C606.235 20.5094 607.692 21.5179 608.939 22.6378C610.576 24.1074 612.143 25.6457 613.882 26.9967C613.88 26.9973 613.88 26.9973 613.881 26.9979Z" fill="#00B2B5"/>
</g>
<path opacity="0.3" d="M700.684 47.5852C698.765 45.8276 696.991 43.9202 695.016 42.224C694.84 41.9046 694.508 41.6899 694.015 41.735C688.929 42.2005 683.836 42.3665 678.732 42.3828C678.478 42.2872 678.184 42.3052 677.883 42.4892C677.739 42.5542 677.62 42.6463 677.523 42.7563C675.264 44.4742 673.201 46.5584 671.317 48.6696C670.967 49.0612 670.936 49.5159 671.082 49.9003C671.111 49.9996 671.149 50.0988 671.208 50.1999C675.186 56.9468 680.186 64.006 685.908 69.3996C686.021 69.5061 686.14 69.5783 686.262 69.6324C686.673 69.8995 687.203 69.9085 687.606 69.3996C692.638 63.0496 697.194 56.272 700.872 49.0414C700.897 48.9908 700.911 48.9439 700.929 48.8952C701.142 48.4928 701.127 47.9912 700.684 47.5852ZM699 48.6696C697.058 49.1226 693.853 48.8862 691.858 49.0973C692.685 47.6537 693.357 44.2847 694.015 42.7563C695.265 43.8914 697.784 47.4949 699 48.6696ZM690.3 48.9133C689.116 47.4895 687.897 45.0858 686.778 43.6097C688.763 43.5249 690.747 43.4004 692.73 43.238C692.031 44.8458 691.184 47.4029 690.3 48.9133ZM688.81 49.3662C688.08 49.4221 687.351 49.4726 686.626 49.5214C685.372 49.6044 684.074 49.6874 682.762 49.7397C683.706 48.2853 684.673 46.8291 685.517 45.3151C686.56 46.7063 687.689 48.0345 688.81 49.3662ZM681.537 48.9782C680.733 47.6321 680.033 45.2157 679.398 43.7812C681.004 43.7721 682.609 43.7433 684.21 43.6964C683.387 45.1598 682.452 47.5689 681.537 48.9782ZM685.682 51.0191C686.965 50.9577 688.266 50.8819 689.57 50.7809C688.846 55.792 687.295 61.5476 686.262 66.5082C684.657 61.7407 683.814 56.032 682.616 51.1526C683.652 51.1165 684.679 51.066 685.682 51.0191ZM691.042 50.6564C693.339 50.4398 696.775 50.0284 699 49.5214C696.251 54.6768 691.094 61.8165 687.606 66.5082C688.574 61.9482 690.403 55.2668 691.042 50.6564ZM678 44.2325C678.665 45.7465 679.489 48.3683 680.341 49.7848C678.218 49.7812 675.018 49.4762 673 49.0414C674.252 47.6826 676.579 45.3982 678 44.2325ZM673 50.6564C675.218 51.0696 678.853 51.2212 681.141 51.1851C682.272 55.7956 683.212 61.9789 684.677 66.5082C680.672 62.2099 676.041 55.6277 673 50.6564Z" fill="#00B2B5"/>
<path opacity="0.3" d="M1022.6 36.2002C1020.83 35.9204 1019.09 35.5008 1017.31 35.2771C1017.09 35.1614 1016.82 35.1638 1016.54 35.3757C1013.72 37.5591 1010.79 39.5743 1007.79 41.5081C1007.6 41.5493 1007.44 41.6703 1007.33 41.8888C1007.27 41.9802 1007.23 42.0776 1007.21 42.1771C1006.51 44.0096 1006.06 45.977 1005.72 47.8927C1005.65 48.248 1005.8 48.5191 1006.03 48.6835C1006.08 48.7293 1006.14 48.7717 1006.21 48.8069C1011.01 51.1582 1016.53 53.3026 1021.86 54.2238C1021.97 54.2418 1022.06 54.2381 1022.15 54.2229C1022.49 54.2204 1022.81 54.0258 1022.86 53.5832C1023.51 48.0612 1023.72 42.4745 1023.24 36.9608C1023.24 36.9224 1023.23 36.8902 1023.22 36.8556C1023.2 36.5457 1023.01 36.2648 1022.6 36.2002ZM1022.01 37.4543C1021.03 38.4451 1019.06 39.5188 1017.96 40.3913C1017.92 39.2555 1017.09 37.0791 1016.92 35.9587C1018.07 36.1351 1020.86 37.2423 1022.01 37.4543ZM1016.98 40.8738C1015.76 40.5075 1014.17 39.5953 1012.97 39.1746C1014.11 38.3776 1015.23 37.5586 1016.34 36.718C1016.51 37.8993 1016.95 39.6782 1016.98 40.8738ZM1016.26 41.6942C1015.86 42.0012 1015.44 42.3052 1015.04 42.6061C1014.33 43.1263 1013.59 43.6634 1012.84 44.1878C1012.87 43.0017 1012.91 41.8057 1012.85 40.6236C1013.97 41.0244 1015.12 41.3566 1016.26 41.6942ZM1011.84 44.2151C1010.88 43.7497 1009.59 42.6347 1008.69 42.0549C1009.63 41.4445 1010.57 40.8228 1011.49 40.1921C1011.54 41.3379 1011.87 43.0656 1011.84 44.2151ZM1015.03 43.817C1015.76 43.2983 1016.5 42.7645 1017.23 42.215C1018.63 45.3485 1019.81 49.2187 1021.02 52.4395C1018.33 50.3235 1015.75 47.3828 1013.27 45.0494C1013.87 44.6382 1014.45 44.2221 1015.03 43.817ZM1018.05 41.589C1019.32 40.5992 1021.19 39.0688 1022.32 37.9404C1022.58 41.9198 1022.15 47.9395 1021.81 51.9327C1020.71 48.9651 1019.35 44.4618 1018.05 41.589ZM1008.03 42.8399C1008.97 43.4534 1010.42 44.6393 1011.43 45.1266C1010.18 45.9248 1008.19 46.9575 1006.84 47.4701C1007.08 46.2224 1007.62 44.0413 1008.03 42.8399ZM1007.43 48.392C1008.89 47.7916 1011.08 46.5076 1012.41 45.6243C1014.76 47.8294 1017.57 51.0042 1020.08 53.0373C1016.16 52.0939 1011.03 50.083 1007.43 48.392Z" fill="#00B2B5"/>
<path opacity="0.3" d="M649.954 85.0845C649.376 84.4438 648.461 84.1723 647.707 83.7705C646.426 83.0837 645.309 82.5271 644.253 81.4873C642.111 79.3779 641.272 76.1445 640.733 73.2994C640.653 72.8786 640.326 72.7374 640.001 72.789C639.68 72.7374 639.35 72.8786 639.27 73.2994C638.709 76.2504 637.818 79.215 635.744 81.4873C634.174 83.2085 631.512 83.4529 630.043 85.0845C629.991 85.1415 629.986 85.2311 630.03 85.299C629.986 85.3669 629.991 85.4537 630.043 85.5134C630.618 86.1541 631.534 86.4256 632.29 86.8301C633.572 87.517 634.691 88.0735 635.747 89.1133C637.892 91.2228 638.731 94.4534 639.273 97.2986C639.352 97.7194 639.68 97.8606 640.004 97.809C640.329 97.8606 640.656 97.7194 640.736 97.2986C641.297 94.3503 642.185 91.3856 644.256 89.1133C645.826 87.3921 648.488 87.1478 649.957 85.5162C650.009 85.4591 650.014 85.3695 649.97 85.3017C650.012 85.2338 650.003 85.1442 649.954 85.0845ZM643.062 87.1288C641.632 88.364 640.601 89.9359 639.974 91.6544C639.396 90.1694 638.519 88.7848 637.348 87.5279C636.666 86.7976 635.51 85.8827 634.256 85.28C635.304 84.7587 636.272 84.0366 636.932 83.4665C638.365 82.2312 639.394 80.6593 640.023 78.9408C640.601 80.4258 641.475 81.8104 642.65 83.0674C643.329 83.7977 644.484 84.7126 645.738 85.3153C644.69 85.8365 643.722 86.5614 643.062 87.1288Z" fill="#00B2B5"/>
<path opacity="0.3" d="M714.913 14.6932C714.599 14.7791 714.332 15.0487 714.057 15.2386C713.587 15.561 713.192 15.8493 712.657 16.03C711.573 16.3967 710.398 16.109 709.404 15.7866C709.257 15.739 709.148 15.8274 709.099 15.9494C709.019 16.052 708.997 16.192 709.113 16.2951C709.921 17.0187 710.668 17.8594 710.964 18.987C711.188 19.8411 710.734 20.81 710.951 21.6126C710.958 21.641 710.985 21.659 711.015 21.6558C711.027 21.6833 711.055 21.6969 711.084 21.6895C711.398 21.6045 711.665 21.3348 711.942 21.1445C712.411 20.8222 712.808 20.5329 713.342 20.3521C714.426 19.9845 715.601 20.2718 716.595 20.5931C716.743 20.6408 716.852 20.5524 716.9 20.4304C716.981 20.3268 717.002 20.1878 716.887 20.0847C716.079 19.3616 715.332 18.5218 715.035 17.3951C714.811 16.5411 715.265 15.5722 715.049 14.7696C715.041 14.7412 715.014 14.7232 714.984 14.7264C714.972 14.6999 714.942 14.6867 714.913 14.6932ZM714.179 17.4544C714.28 18.1727 714.564 18.8126 714.975 19.3384C714.397 19.2731 713.791 19.3299 713.166 19.5119C712.803 19.6181 712.288 19.8556 711.85 20.1835C711.896 19.726 711.864 19.2602 711.817 18.9287C711.717 18.2095 711.432 17.5705 711.022 17.0438C711.6 17.1091 712.205 17.0532 712.831 16.8703C713.194 16.765 713.709 16.5275 714.146 16.1997C714.1 16.6572 714.134 17.1234 714.179 17.4544Z" fill="#00B2B5"/>
<path opacity="0.3" d="M661.977 94.2192C661.688 93.9373 661.23 93.8178 660.854 93.641C660.213 93.3388 659.655 93.0939 659.127 92.6364C658.055 91.7083 657.636 90.2856 657.366 89.0337C657.327 88.8486 657.163 88.7865 657.001 88.8092C656.84 88.7865 656.675 88.8486 656.635 89.0337C656.354 90.3322 655.909 91.6366 654.872 92.6364C654.087 93.3938 652.756 93.5013 652.022 94.2192C651.996 94.2443 651.993 94.2837 652.015 94.3136C651.993 94.3434 651.996 94.3816 652.022 94.4079C652.309 94.6898 652.767 94.8093 653.145 94.9873C653.786 95.2895 654.345 95.5344 654.874 95.9919C655.946 96.92 656.365 98.3415 656.636 99.5934C656.676 99.7785 656.84 99.8407 657.002 99.818C657.164 99.8407 657.328 99.7785 657.368 99.5934C657.648 98.2961 658.092 96.9917 659.128 95.9919C659.913 95.2345 661.244 95.127 661.978 94.4091C662.004 94.384 662.007 94.3446 661.985 94.3147C662.006 94.2849 662.002 94.2455 661.977 94.2192ZM658.531 95.1187C657.816 95.6622 657.3 96.3538 656.987 97.11C656.698 96.4565 656.26 95.8473 655.674 95.2943C655.333 94.9729 654.755 94.5704 654.128 94.3052C654.652 94.0758 655.136 93.7581 655.466 93.5073C656.183 92.9637 656.697 92.2721 657.012 91.516C657.3 92.1694 657.738 92.7786 658.325 93.3316C658.664 93.653 659.242 94.0555 659.869 94.3207C659.345 94.5501 658.861 94.869 658.531 95.1187Z" fill="#00B2B5"/>
<path opacity="0.3" d="M546.284 34.3777C546.192 33.908 545.834 33.5222 545.589 33.1164C545.174 32.428 544.8 31.8477 544.592 31.0533C544.17 29.4377 544.684 27.6407 545.231 26.1148C545.312 25.8891 545.196 25.7299 545.028 25.6646C544.889 25.5502 544.693 25.5268 544.536 25.7082C543.437 26.9795 542.177 28.1657 540.552 28.6884C539.32 29.0844 537.987 28.4627 536.829 28.8436C536.789 28.8567 536.761 28.8985 536.763 28.9422C536.724 28.9615 536.701 29.0064 536.71 29.0485C536.802 29.5181 537.16 29.9039 537.405 30.3098C537.82 30.9982 538.194 31.5785 538.403 32.3736C538.827 33.99 538.313 35.7857 537.768 37.3123C537.687 37.538 537.803 37.6973 537.971 37.7625C538.109 37.8769 538.306 37.9003 538.463 37.719C539.561 36.4489 540.819 35.262 542.444 34.7385C543.675 34.3425 545.01 34.965 546.167 34.582C546.208 34.5689 546.236 34.5271 546.233 34.4834C546.27 34.4659 546.292 34.4211 546.284 34.3777ZM542.436 33.4516C541.408 33.6516 540.475 34.1252 539.692 34.7821C539.837 33.9034 539.811 32.9899 539.61 32.0563C539.492 31.5135 539.202 30.75 538.778 30.1107C539.422 30.1498 540.086 30.0696 540.56 29.9773C541.589 29.7781 542.521 29.3038 543.305 28.6476C543.16 29.5264 543.185 30.4391 543.387 31.3747C543.503 31.9168 543.794 32.679 544.22 33.319C543.573 33.2784 542.91 33.3594 542.436 33.4516Z" fill="#00B2B5"/>
<path opacity="0.3" d="M35.9608 85.1224C35.4723 84.584 34.6939 84.3559 34.051 84.016C32.9617 83.4388 32.0103 82.9712 31.1151 82.0998C29.2941 80.3273 28.5811 77.6103 28.123 75.2196C28.0552 74.866 27.777 74.7474 27.5012 74.7908C27.2277 74.7474 26.9472 74.866 26.8794 75.2196C26.4025 77.6993 25.6451 80.1904 23.8826 82.0998C22.5479 83.5461 20.2851 83.7514 19.0368 85.1224C18.9924 85.1703 18.9877 85.2456 19.0251 85.3003C18.9877 85.3551 18.9924 85.4303 19.0368 85.4782C19.5254 86.0166 20.3038 86.2447 20.9466 86.5846C22.0359 87.1618 22.9873 87.6294 23.8849 88.5009C25.7083 90.2734 26.4212 92.988 26.8817 95.3787C26.9495 95.7323 27.2277 95.8509 27.5035 95.8076C27.777 95.8509 28.0575 95.7323 28.1253 95.3787C28.6022 92.9013 29.3572 90.4102 31.1174 88.5009C32.4521 87.0546 34.7172 86.8493 35.9632 85.476C36.0076 85.4281 36.0123 85.3528 35.9749 85.298C36.0099 85.2478 36.0052 85.1726 35.9608 85.1224ZM30.1052 86.8401C28.8897 87.8781 28.0131 89.1989 27.4801 90.6429C26.9892 89.3951 26.2436 88.2317 25.2478 87.1755C24.668 86.5618 23.6863 85.793 22.6227 85.2866C23.5133 84.8486 24.3361 84.2418 24.8971 83.7628C26.115 82.7248 26.9892 81.404 27.5245 79.96C28.0154 81.2078 28.7588 82.3712 29.7569 83.4297C30.3343 84.0434 31.3161 84.8098 32.382 85.3163C31.4867 85.7543 30.6662 86.3611 30.1052 86.8401Z" fill="#00B2B5"/>
<path opacity="0.3" d="M1042.07 92.9783C1041.7 92.5524 1041.1 92.3719 1040.6 92.1031C1039.76 91.6465 1039.03 91.2766 1038.34 90.5873C1036.93 89.1852 1036.39 87.0361 1036.03 85.145C1035.98 84.8671 1035.77 84.7732 1035.56 84.8057C1035.34 84.7696 1035.13 84.8635 1035.07 85.145C1034.71 87.1064 1034.12 89.0769 1032.76 90.5873C1031.73 91.7313 1029.99 91.8938 1029.03 92.9783C1028.99 93.0161 1028.99 93.0757 1029.02 93.119C1028.99 93.1623 1029 93.2219 1029.03 93.2598C1029.4 93.6856 1030.01 93.8679 1030.5 94.1349C1031.34 94.5915 1032.07 94.9614 1032.76 95.6507C1034.17 97.0528 1034.72 99.2001 1035.07 101.091C1035.12 101.373 1035.34 101.467 1035.56 101.43C1035.77 101.463 1035.98 101.369 1036.03 101.091C1036.4 99.1316 1036.98 97.1611 1038.34 95.6507C1039.37 94.5067 1041.11 94.3442 1042.07 93.2579C1042.11 93.2201 1042.11 93.1605 1042.08 93.1172C1042.11 93.0757 1042.11 93.0161 1042.07 92.9783ZM1037.56 94.337C1036.62 95.1581 1035.95 96.2029 1035.54 97.3451C1035.16 96.3581 1034.58 95.4378 1033.82 94.6023C1033.37 94.1169 1032.61 93.5106 1031.79 93.11C1032.48 92.7635 1033.11 92.2835 1033.54 91.9046C1034.48 91.0835 1035.16 90.0387 1035.57 88.8947C1035.95 89.8817 1036.52 90.8038 1037.29 91.6393C1037.74 92.1247 1038.49 92.731 1039.31 93.1316C1038.63 93.4781 1037.99 93.9581 1037.56 94.337Z" fill="#00B2B5"/>
<path opacity="0.3" d="M1058.18 99.1948C1058.15 98.823 1057.9 98.4953 1057.74 98.162C1057.47 97.5955 1057.23 97.1167 1057.13 96.4841C1056.92 95.1981 1057.46 93.8482 1058 92.7102C1058.08 92.5428 1058.01 92.4109 1057.88 92.3459C1057.78 92.2445 1057.63 92.2106 1057.5 92.3388C1056.55 93.2352 1055.48 94.0529 1054.17 94.3272C1053.19 94.5351 1052.2 93.9465 1051.28 94.1486C1051.24 94.1554 1051.22 94.1856 1051.22 94.2197C1051.18 94.2314 1051.16 94.2651 1051.17 94.2977C1051.2 94.6688 1051.45 94.9981 1051.61 95.3305C1051.88 95.897 1052.12 96.3765 1052.22 97.0084C1052.43 98.2944 1051.89 99.644 1051.35 100.783C1051.27 100.952 1051.35 101.086 1051.47 101.149C1051.57 101.248 1051.72 101.28 1051.86 101.154C1052.81 100.259 1053.87 99.4403 1055.17 99.1653C1056.16 98.9567 1057.15 99.546 1058.08 99.3429C1058.11 99.3361 1058.13 99.306 1058.13 99.2719C1058.17 99.2617 1058.19 99.2281 1058.18 99.1948ZM1055.27 98.1686C1054.46 98.241 1053.7 98.5336 1053.04 98.9789C1053.22 98.3098 1053.27 97.6002 1053.18 96.8602C1053.13 96.4304 1052.97 95.8166 1052.69 95.2874C1053.18 95.3694 1053.71 95.3606 1054.08 95.3272C1054.89 95.2548 1055.65 94.9629 1056.31 94.5167C1056.13 95.1857 1056.08 95.8956 1056.17 96.6356C1056.21 97.0647 1056.38 97.6785 1056.66 98.2084C1056.16 98.1256 1055.64 98.1352 1055.27 98.1686Z" fill="#00B2B5"/>
<g opacity="0.3">
<path d="M1071.56 52.0311C1067.1 50.7129 1062.1 53.479 1060.88 57.9639C1059.57 62.8176 1061.85 67.617 1066.69 69.2077C1071.44 70.7681 1076.13 68.0761 1077.83 63.5838C1077.86 63.5464 1077.87 63.5051 1077.89 63.4565C1077.91 63.4088 1077.91 63.3624 1077.92 63.3172C1079.24 58.3094 1076.57 53.5126 1071.56 52.0311ZM1061.6 60.0046C1061.85 55.5548 1065.73 52.616 1070 52.8613C1075.06 53.1526 1078.16 58.3877 1076.87 63.0359C1073.76 71.6039 1061.08 69.242 1061.6 60.0046Z" fill="#00B2B5"/>
<path d="M1059.29 61.8645C1058.87 61.6939 1058.47 61.9686 1058.36 62.3665C1058.27 62.6917 1058.49 63.0386 1058.79 63.1511C1059.08 63.2563 1059.34 63.1636 1059.52 62.9701C1059.6 62.911 1059.66 62.8292 1059.69 62.7201C1059.73 62.628 1059.73 62.5279 1059.71 62.4318C1059.68 62.1844 1059.53 61.9659 1059.29 61.8645ZM1058.62 62.474C1058.62 62.4931 1058.62 62.5102 1058.62 62.5283C1058.62 62.5245 1058.61 62.5207 1058.61 62.5161C1058.62 62.5026 1058.62 62.4883 1058.62 62.474Z" fill="#00B2B5"/>
<path d="M1080.03 58.1986C1079.68 58.0557 1079.23 58.2479 1079.13 58.617C1079.03 58.9752 1079.17 59.351 1079.53 59.4855C1079.82 59.592 1080.08 59.4963 1080.27 59.2972C1080.34 59.2392 1080.4 59.1603 1080.43 59.0567C1080.47 58.9638 1080.47 58.8642 1080.45 58.768C1080.42 58.52 1080.27 58.2993 1080.03 58.1986ZM1079.36 58.8073C1079.36 58.8264 1079.36 58.8435 1079.36 58.8617C1079.36 58.8578 1079.36 58.854 1079.35 58.8502C1079.36 58.8367 1079.36 58.8216 1079.36 58.8073Z" fill="#00B2B5"/>
<path d="M1067.35 50.9389C1067.44 50.9789 1067.55 50.9834 1067.64 50.9588C1067.89 50.9293 1068.11 50.7827 1068.21 50.5377C1068.38 50.1264 1068.11 49.7207 1067.71 49.6129C1067.38 49.5254 1067.04 49.7391 1066.93 50.0455C1066.82 50.3349 1066.91 50.5935 1067.11 50.7782C1067.17 50.8498 1067.25 50.9065 1067.35 50.9389ZM1067.6 49.8712C1067.58 49.8687 1067.57 49.8701 1067.55 49.8691C1067.55 49.8675 1067.55 49.866 1067.56 49.8641C1067.57 49.867 1067.59 49.8688 1067.6 49.8712Z" fill="#00B2B5"/>
<path d="M1071.46 70.4121C1071.1 70.3148 1070.72 70.4535 1070.59 70.822C1070.48 71.1082 1070.57 71.3632 1070.77 71.5472C1070.82 71.624 1070.91 71.6843 1071.02 71.717C1071.11 71.7561 1071.21 71.7599 1071.31 71.7345C1071.55 71.7035 1071.77 71.5589 1071.87 71.3139C1072.02 70.9688 1071.82 70.513 1071.46 70.4121ZM1071.26 70.6485C1071.24 70.646 1071.23 70.6478 1071.21 70.6468C1071.21 70.6449 1071.22 70.6433 1071.22 70.6414C1071.24 70.6435 1071.25 70.6456 1071.26 70.6485Z" fill="#00B2B5"/>
<path d="M1060.81 55.296C1060.89 55.3016 1060.97 55.2905 1061.04 55.2564C1061.05 55.2561 1061.05 55.2566 1061.05 55.2563C1061.05 55.2556 1061.05 55.2553 1061.05 55.255C1061.06 55.2504 1061.07 55.2466 1061.08 55.2418C1061.15 55.2117 1061.22 55.1606 1061.27 55.0958C1061.48 54.862 1061.55 54.4813 1061.33 54.2205C1061.12 53.9699 1060.78 53.8342 1060.47 54.0067C1060.15 54.1901 1059.98 54.5547 1060.15 54.9103C1060.28 55.1963 1060.54 55.3102 1060.81 55.296ZM1060.5 54.3126C1060.48 54.3238 1060.47 54.3361 1060.46 54.3474C1060.46 54.3445 1060.46 54.342 1060.47 54.3388C1060.48 54.331 1060.49 54.3218 1060.5 54.3126Z" fill="#00B2B5"/>
<path d="M1077.73 66.1058C1077.41 66.2922 1077.24 66.6516 1077.41 67.0094C1077.54 67.2957 1077.79 67.408 1078.07 67.3939C1078.15 67.4 1078.22 67.3889 1078.3 67.3552C1078.3 67.3549 1078.3 67.3546 1078.31 67.3543C1078.31 67.3536 1078.31 67.3533 1078.31 67.353C1078.32 67.3492 1078.33 67.3454 1078.34 67.3408C1078.41 67.3101 1078.48 67.2579 1078.53 67.1929C1078.74 66.9582 1078.81 66.5801 1078.59 66.3193C1078.38 66.071 1078.03 65.931 1077.73 66.1058ZM1077.76 66.4117C1077.74 66.4229 1077.73 66.4348 1077.72 66.4454C1077.72 66.4433 1077.72 66.4403 1077.72 66.4379C1077.73 66.429 1077.75 66.4198 1077.76 66.4117Z" fill="#00B2B5"/>
<path d="M1075.15 51.4036C1074.87 51.5358 1074.76 51.7945 1074.77 52.0707C1074.76 52.1455 1074.78 52.223 1074.81 52.3005C1074.81 52.3013 1074.81 52.302 1074.81 52.3036C1074.81 52.3051 1074.81 52.3066 1074.81 52.3081C1074.82 52.3173 1074.82 52.3257 1074.82 52.3338C1074.85 52.4107 1074.9 52.4736 1074.97 52.5222C1075.2 52.7354 1075.58 52.8026 1075.84 52.5875C1076.09 52.3822 1076.23 52.0309 1076.06 51.7287C1075.87 51.406 1075.51 51.2393 1075.15 51.4036ZM1075.75 51.7537C1075.74 51.7392 1075.73 51.7299 1075.72 51.7176C1075.72 51.7185 1075.72 51.7194 1075.72 51.7203C1075.73 51.7317 1075.74 51.7431 1075.75 51.7537Z" fill="#00B2B5"/>
<path d="M1063.07 68.6905C1062.79 68.8228 1062.67 69.0796 1062.69 69.3562C1062.68 69.431 1062.69 69.5088 1062.73 69.5878C1062.73 69.5886 1062.73 69.5896 1062.73 69.5912C1062.73 69.5927 1062.73 69.5942 1062.73 69.5957C1062.73 69.6049 1062.74 69.6125 1062.74 69.6214C1062.77 69.6991 1062.82 69.7627 1062.89 69.8114C1063.12 70.0221 1063.5 70.0905 1063.76 69.8748C1064.01 69.668 1064.15 69.3197 1063.98 69.0152C1063.79 68.6922 1063.43 68.5262 1063.07 68.6905ZM1063.67 69.0414C1063.66 69.027 1063.65 69.0172 1063.64 69.0049C1063.64 69.0058 1063.64 69.0074 1063.64 69.008C1063.65 69.0186 1063.66 69.0293 1063.67 69.0414Z" fill="#00B2B5"/>
<path d="M1059.48 58.8781C1059.56 58.8465 1059.62 58.7975 1059.67 58.7276C1059.68 58.7217 1059.68 58.7153 1059.69 58.709C1059.69 58.7087 1059.69 58.7076 1059.69 58.7065C1059.69 58.7065 1059.69 58.7062 1059.69 58.7054C1059.74 58.6394 1059.77 58.569 1059.78 58.4967C1059.86 58.2749 1059.83 58.0632 1059.67 57.8389C1059.43 57.4985 1058.86 57.528 1058.62 57.8413C1058.14 58.4518 1058.86 59.2254 1059.48 58.8781ZM1058.95 57.913C1058.95 57.9131 1058.95 57.9125 1058.95 57.9123C1058.94 57.9217 1058.93 57.9285 1058.91 57.9386C1058.92 57.9302 1058.94 57.9214 1058.95 57.913Z" fill="#00B2B5"/>
<path d="M1079.13 62.6221C1078.65 63.2313 1079.37 64.0039 1079.99 63.6599C1080.07 63.6287 1080.14 63.5786 1080.18 63.5079C1080.19 63.5012 1080.19 63.4956 1080.2 63.4882C1080.2 63.4879 1080.2 63.4876 1080.2 63.4868L1080.2 63.4857C1080.25 63.4194 1080.28 63.3479 1080.3 63.2744C1080.37 63.0529 1080.34 62.8428 1080.18 62.6185C1079.94 62.2788 1079.38 62.3099 1079.13 62.6221ZM1079.46 62.6948C1079.46 62.6942 1079.46 62.6943 1079.47 62.6941C1079.45 62.7035 1079.44 62.7103 1079.42 62.7204C1079.44 62.712 1079.45 62.7033 1079.46 62.6948Z" fill="#00B2B5"/>
<path d="M1071.34 50.9257C1071.35 50.9298 1071.35 50.9339 1071.36 50.9379C1071.36 50.9391 1071.36 50.9404 1071.36 50.9416C1071.36 50.942 1071.36 50.9425 1071.36 50.9432C1071.43 50.9926 1071.5 51.0235 1071.57 51.037C1071.79 51.112 1072 51.0845 1072.23 50.9234C1072.57 50.6786 1072.54 50.1173 1072.23 49.8693C1071.62 49.3866 1070.84 50.1137 1071.19 50.7369C1071.22 50.8121 1071.27 50.8786 1071.34 50.9257ZM1072.15 50.2012C1072.15 50.203 1072.15 50.2045 1072.15 50.2056C1072.14 50.1924 1072.14 50.1782 1072.13 50.1645C1072.14 50.1762 1072.15 50.1887 1072.15 50.2012Z" fill="#00B2B5"/>
<path d="M1066.42 71.2895C1066.45 71.3639 1066.5 71.4285 1066.57 71.4763C1066.58 71.4804 1066.58 71.4837 1066.58 71.4881C1066.59 71.489 1066.59 71.4912 1066.59 71.4921C1066.59 71.4934 1066.59 71.493 1066.59 71.4942C1066.66 71.5424 1066.72 71.5724 1066.79 71.5869C1067.02 71.6638 1067.23 71.6362 1067.46 71.474C1067.79 71.2302 1067.77 70.6647 1067.46 70.4191C1066.84 69.9421 1066.07 70.6658 1066.42 71.2895ZM1067.38 70.751C1067.38 70.7525 1067.38 70.7536 1067.38 70.7551C1067.38 70.7419 1067.37 70.7277 1067.36 70.7143C1067.37 70.7268 1067.37 70.7385 1067.38 70.751Z" fill="#00B2B5"/>
<path d="M1063.65 52.3753C1063.73 52.4113 1063.82 52.4265 1063.91 52.4027C1063.92 52.4011 1063.92 52.3992 1063.93 52.3984C1064.01 52.3858 1064.08 52.3558 1064.14 52.3121C1064.39 52.182 1064.56 51.9567 1064.52 51.6387C1064.48 51.2815 1064.15 50.9872 1063.78 51.03C1063.01 51.1192 1062.96 52.1796 1063.65 52.3753ZM1063.96 51.3162C1063.96 51.3174 1063.96 51.3179 1063.96 51.3191C1063.95 51.3166 1063.93 51.3121 1063.92 51.3099C1063.93 51.3122 1063.94 51.3142 1063.96 51.3162Z" fill="#00B2B5"/>
<path d="M1074.91 68.9414C1074.53 68.9887 1074.27 69.2886 1074.28 69.6723C1074.29 69.971 1074.52 70.2158 1074.79 70.2913C1074.87 70.3226 1074.96 70.3345 1075.05 70.3137C1075.06 70.3109 1075.07 70.3051 1075.08 70.3015C1075.14 70.2888 1075.2 70.268 1075.25 70.2381C1075.51 70.1117 1075.69 69.8774 1075.65 69.5512C1075.61 69.1956 1075.28 68.8953 1074.91 68.9414ZM1075.09 69.2284C1075.09 69.2284 1075.09 69.2284 1075.09 69.2288C1075.08 69.2264 1075.07 69.2219 1075.05 69.2206C1075.07 69.2236 1075.08 69.2264 1075.09 69.2284Z" fill="#00B2B5"/>
<path d="M1078.3 54.4111C1078 54.4189 1077.76 54.6421 1077.68 54.9185C1077.65 54.9991 1077.64 55.0867 1077.66 55.1749C1077.66 55.1832 1077.66 55.1905 1077.67 55.1988C1077.68 55.2723 1077.7 55.3359 1077.74 55.3911C1077.87 55.6439 1078.1 55.8225 1078.42 55.7823C1078.78 55.7376 1079.07 55.4095 1079.03 55.0417C1078.99 54.6575 1078.68 54.4012 1078.3 54.4111ZM1078.74 55.2185C1078.74 55.2188 1078.74 55.2199 1078.74 55.221C1078.74 55.2074 1078.75 55.1959 1078.75 55.1816C1078.75 55.1936 1078.75 55.206 1078.74 55.2185Z" fill="#00B2B5"/>
<path d="M1059.8 66.06C1059.76 66.1437 1059.75 66.2341 1059.77 66.3262C1059.77 66.3303 1059.77 66.3341 1059.78 66.3379C1059.79 66.4232 1059.82 66.4973 1059.86 66.5597C1059.99 66.8034 1060.22 66.9738 1060.54 66.9336C1060.89 66.8893 1061.19 66.5606 1061.14 66.1931C1061.05 65.4238 1060 65.3721 1059.8 66.06ZM1060.86 66.3694C1060.86 66.3708 1060.86 66.3719 1060.85 66.3733C1060.86 66.3598 1060.86 66.3471 1060.86 66.3328C1060.86 66.3453 1060.86 66.3577 1060.86 66.3694Z" fill="#00B2B5"/>
<path d="M1069.85 55.0287C1068.76 55.247 1067.66 55.1923 1066.93 56.0795C1065.7 57.5807 1065.25 57.8004 1065.57 59.7341C1065.61 60.0182 1065.88 60.2664 1066.18 60.2124C1066.61 60.1366 1067.04 60.0598 1067.47 59.984C1067.65 61.0143 1067.83 62.0445 1068.01 63.0739C1067.6 63.1469 1067.19 63.2195 1066.77 63.2932C1066.49 63.3432 1066.24 63.6017 1066.3 63.9083C1066.43 64.6479 1066.57 65.3878 1066.71 66.1253C1066.77 66.4059 1067.02 66.6609 1067.33 66.6036C1069.32 66.2367 1071.31 65.8641 1073.3 65.5065C1073.59 65.4547 1073.83 65.1997 1073.78 64.8915C1073.67 64.1983 1073.57 63.5045 1073.45 62.813C1073.4 62.5187 1073.15 62.2949 1072.84 62.3346C1072.45 62.3848 1072.07 62.4347 1071.69 62.4856C1071.28 60.1595 1070.87 57.833 1070.46 55.5071C1070.41 55.2291 1070.15 54.9677 1069.85 55.0287ZM1067.59 57.0078C1068.13 56.3531 1068.64 56.3332 1069.47 56.2097C1069.88 58.5291 1070.28 60.8486 1070.69 63.1683C1070.74 63.4624 1071 63.6871 1071.31 63.6467C1071.69 63.597 1072.07 63.5473 1072.45 63.4972C1072.5 63.8366 1072.55 64.1756 1072.61 64.516C1070.97 64.8118 1069.33 65.1143 1067.7 65.4176C1067.62 65.0399 1067.55 64.6626 1067.48 64.2847C1067.89 64.2119 1068.3 64.1391 1068.71 64.0664C1068.78 64.0545 1068.84 64.0315 1068.89 64.0026C1069.09 63.9219 1069.24 63.7331 1069.19 63.451C1068.94 62.061 1068.7 60.6703 1068.46 59.2776C1068.42 58.9934 1068.15 58.7453 1067.85 58.7992C1067.41 58.8778 1066.96 58.956 1066.52 59.0343C1066.45 58.7507 1066.39 58.4705 1066.48 58.3704C1066.85 57.9164 1067.22 57.4623 1067.59 57.0078Z" fill="#00B2B5"/>
<path d="M1074.21 31.1907C1074.19 29.1076 1073.76 27.0373 1073.4 24.9923C1072.96 22.4807 1072.61 19.8991 1071.97 17.4306C1071.17 14.3463 1067.4 15.4538 1065.22 15.8403C1062.14 16.384 1059.07 16.928 1056 17.4735C1052.47 18.2599 1052.08 20.3014 1052.63 23.5487C1053.04 26.0243 1053.44 28.5024 1053.91 30.9683C1054.21 32.5756 1054.47 34.5022 1055.43 35.8762C1056.67 37.6519 1058.94 38.8038 1061.1 39.7988C1060.57 42.2428 1061.63 44.601 1063.88 45.6302C1063.82 45.7582 1063.75 45.8867 1063.68 46.0155C1062.39 45.4479 1061.07 44.9518 1059.69 44.6045C1059.4 44.5289 1059.12 44.8054 1059.07 45.0754C1058.83 46.4902 1058.67 47.9106 1058.53 49.3389C1057.14 49.3089 1055.75 49.3436 1054.37 49.5476C1054.1 49.5882 1053.83 49.8649 1053.9 50.1627C1054.21 51.5833 1054.61 52.9746 1055.04 54.3664C1053.72 54.8796 1052.43 55.4643 1051.21 56.1938C1050.95 56.3534 1050.96 56.7452 1051.12 56.967C1051.94 58.1405 1052.83 59.2527 1053.74 60.3597C1052.73 61.3244 1051.77 62.3368 1050.94 63.4554C1050.77 63.6805 1050.79 64.0648 1051.05 64.227C1052.27 65.0053 1053.54 65.7018 1054.82 66.3863C1054.25 67.6813 1053.75 69.0018 1053.4 70.3746C1053.33 70.6741 1053.6 70.9477 1053.87 70.995C1055.29 71.2422 1056.71 71.398 1058.13 71.538C1058.1 72.9282 1058.13 74.3217 1058.34 75.6984C1058.38 75.9731 1058.65 76.2431 1058.95 76.1768C1060.37 75.8596 1061.76 75.4547 1063.15 75.0329C1063.66 76.3526 1064.24 77.6404 1064.97 78.856C1065.13 79.1225 1065.52 79.1077 1065.74 78.9523C1066.92 78.1287 1068.03 77.2348 1069.13 76.3262C1070.1 77.3312 1071.11 78.2914 1072.22 79.1243C1072.45 79.2921 1072.83 79.2734 1072.99 79.0182C1073.77 77.7904 1074.47 76.5226 1075.15 75.2421C1076.45 75.8097 1077.76 76.3059 1079.14 76.6531C1079.43 76.7287 1079.71 76.4522 1079.76 76.1823C1080 74.7671 1080.16 73.347 1080.3 71.919C1081.69 71.949 1083.08 71.9143 1084.46 71.71C1084.73 71.6695 1085 71.393 1084.94 71.095C1084.62 69.675 1084.22 68.283 1083.8 66.8923C1085.11 66.3791 1086.4 65.7944 1087.62 65.0642C1087.88 64.9045 1087.87 64.5135 1087.71 64.291C1086.89 63.1171 1086 62.0052 1085.09 60.8983C1086.1 59.9327 1087.06 58.9211 1087.89 57.8023C1088.06 57.5763 1088.04 57.1929 1087.78 57.0307C1086.56 56.2515 1085.29 55.5558 1084.01 54.8721C1084.58 53.5771 1085.08 52.2563 1085.43 50.883C1085.5 50.5835 1085.23 50.3099 1084.96 50.2626C1083.54 50.0154 1082.13 49.8604 1080.7 49.72C1080.73 48.3295 1080.7 46.9362 1080.49 45.5588C1080.45 45.2844 1080.18 45.0141 1079.88 45.0804C1078.46 45.3983 1077.07 45.8024 1075.68 46.2246C1075.17 44.9049 1074.58 43.6171 1073.86 42.4018C1073.7 42.1353 1073.31 42.1501 1073.09 42.3055C1071.91 43.1284 1070.8 44.0222 1069.69 44.9316C1069.62 44.851 1069.54 44.7703 1069.46 44.6903C1071.23 42.8807 1071.47 40.2088 1070.03 38.1169C1071.87 36.1648 1074.24 34.0571 1074.21 31.1907ZM1070.48 28.4387C1068.65 31.35 1066.7 34.1811 1064.74 37.0011C1064.51 36.9526 1064.27 36.8554 1064.03 36.732C1066.17 33.6697 1068.3 30.5953 1070.3 27.4344C1070.36 27.7631 1070.42 28.1002 1070.48 28.4387ZM1070.59 29.4883C1070.63 30.3688 1070.52 31.2274 1070.02 31.964C1069.49 32.7416 1068.81 33.4368 1068.19 34.1365C1067.66 34.7271 1066.61 36.2348 1065.67 36.8086C1067.35 34.3955 1069.01 31.9686 1070.59 29.4883ZM1056.13 18.5664C1056.49 18.5026 1056.85 18.4392 1057.21 18.3761C1056.7 19.1503 1056.16 19.9095 1055.62 20.665C1055.52 20.0465 1055.42 19.428 1055.31 18.8095C1055.56 18.7179 1055.82 18.6347 1056.13 18.5664ZM1055.78 21.5858C1056.57 20.4779 1057.36 19.3686 1058.09 18.2192C1058.43 18.1592 1058.77 18.0985 1059.11 18.0386C1058.11 19.602 1057.03 21.12 1055.96 22.6337C1055.9 22.2839 1055.84 21.934 1055.78 21.5858ZM1056.45 25.5098C1058.32 22.8866 1060.21 20.2692 1061.92 17.541C1062.26 17.4807 1062.6 17.4201 1062.94 17.3591C1060.96 20.4983 1058.79 23.5249 1056.63 26.5498C1056.57 26.2043 1056.51 25.8574 1056.45 25.5098ZM1056.8 27.4581C1059.2 24.0839 1061.64 20.7194 1063.82 17.2039C1064.17 17.1435 1064.51 17.0823 1064.85 17.0211C1062.39 20.9445 1059.67 24.7155 1056.99 28.489C1056.92 28.146 1056.86 27.8022 1056.8 27.4581ZM1057.19 29.5827C1057.18 29.5196 1057.17 29.4563 1057.15 29.3932C1060.08 25.284 1063.05 21.1891 1065.71 16.9031C1065.72 16.8896 1065.72 16.8749 1065.72 16.8605C1066.08 16.7895 1066.44 16.7104 1066.81 16.6348C1063.85 21.3533 1060.58 25.8844 1057.35 30.4216C1057.29 30.1408 1057.24 29.8594 1057.19 29.5827ZM1057.53 31.295C1061 26.4211 1064.53 21.5621 1067.69 16.4784C1067.9 16.4464 1068.12 16.4252 1068.34 16.4108C1068.36 16.5204 1068.38 16.6311 1068.4 16.7407C1065.1 22.04 1061.43 27.1167 1057.81 32.1997C1057.7 31.9084 1057.61 31.6053 1057.53 31.295ZM1070.13 26.4781C1068.02 29.863 1065.73 33.1421 1063.45 36.4091C1063.22 36.2746 1063 36.1392 1062.81 36.0254C1065.25 32.5553 1067.69 29.073 1069.96 25.4854C1070.01 25.8165 1070.07 26.1471 1070.13 26.4781ZM1069.79 24.5257C1067.41 28.3417 1064.81 32.0309 1062.23 35.7099C1062 35.5956 1061.78 35.477 1061.56 35.3595C1064.31 31.4678 1067.07 27.5703 1069.62 23.5401C1069.68 23.8683 1069.73 24.1971 1069.79 24.5257ZM1069.45 22.574C1066.79 26.8367 1063.87 30.9455 1060.97 35.0492C1060.75 34.9295 1060.54 34.8009 1060.32 34.6776C1063.38 30.3644 1066.46 26.0489 1069.28 21.5734C1069.33 21.9073 1069.39 22.2409 1069.45 22.574ZM1069.1 20.6166C1066.18 25.3172 1062.94 29.8333 1059.74 34.349C1059.61 34.2727 1059.48 34.2018 1059.35 34.1241C1059.26 34.0719 1059.18 34.0154 1059.1 33.9583C1062.45 29.2406 1065.85 24.5276 1068.92 19.6225C1068.98 19.9535 1069.04 20.2849 1069.1 20.6166ZM1068.75 18.6657C1065.59 23.7586 1062.07 28.6349 1058.61 33.5178C1058.42 33.3213 1058.27 33.106 1058.14 32.8795C1061.7 27.8813 1065.3 22.8915 1068.57 17.6957C1068.63 18.0191 1068.69 18.3426 1068.75 18.6657ZM1061.03 17.6987C1059.53 20.0483 1057.91 22.3251 1056.29 24.5972C1056.23 24.2485 1056.17 23.9005 1056.11 23.5518C1057.44 21.6861 1058.78 19.8242 1060 17.8816C1060.33 17.8224 1060.67 17.7626 1061 17.703C1061.01 17.7015 1061.02 17.6995 1061.03 17.6987ZM1062.13 40.2703C1062.41 40.3982 1062.68 40.5241 1062.94 40.6499C1062.79 42.1109 1063.55 43.3593 1064.86 43.8763C1064.71 44.1354 1064.56 44.3958 1064.42 44.657C1062.63 43.8654 1061.84 42.1565 1062.13 40.2703ZM1067.83 40.4563C1068.07 41.2246 1067.81 42.0494 1067.18 42.5864C1066.99 42.4341 1066.8 42.2783 1066.61 42.133C1066.38 41.9652 1066 41.9831 1065.84 42.2391C1065.7 42.4599 1065.56 42.6848 1065.43 42.9082C1064.59 42.6612 1064.1 41.9963 1064.04 41.1709C1065.66 41.8523 1066.78 41.3911 1067.83 40.4563ZM1070.22 45.928C1071.09 45.2105 1071.96 44.5013 1072.86 43.8267C1072.58 45.1067 1072.29 46.3856 1072 47.6657C1070.46 47.3087 1068.92 47.2578 1067.44 47.4699C1067.21 46.2017 1066.99 44.9336 1066.77 43.6647C1067.62 44.3743 1068.41 45.1488 1069.16 45.9571C1069.38 46.1861 1069.67 46.1783 1069.89 46.0532C1070 46.0531 1070.11 46.017 1070.22 45.928ZM1079.6 50.0603C1079.59 50.3722 1079.8 50.5759 1080.04 50.6446C1080.11 50.7217 1080.22 50.7773 1080.36 50.7906C1081.48 50.9007 1082.6 51.0179 1083.72 51.1797C1082.58 51.8996 1081.45 52.6195 1080.31 53.3386C1079.47 52.1037 1078.43 51.0019 1077.19 50.0836C1077.97 48.9712 1078.75 47.8582 1079.53 46.7454C1079.63 47.8468 1079.64 48.9546 1079.6 50.0603ZM1084.07 60.3653C1083.84 60.5802 1083.85 60.8734 1083.97 61.0893C1083.97 61.1967 1084.01 61.3104 1084.1 61.4185C1084.81 62.2908 1085.52 63.1655 1086.19 64.0681C1084.92 63.7816 1083.65 63.4954 1082.38 63.2088C1082.65 61.6602 1082.65 60.1283 1082.42 58.661C1083.73 58.4286 1085.05 58.1952 1086.36 57.962C1085.65 58.8126 1084.88 59.6052 1084.07 60.3653ZM1080.99 64.364C1078.85 70.4916 1073.29 73.6675 1066.93 72.5989C1060.01 71.4378 1056.32 64.665 1057.51 58.0849C1058.72 51.3719 1065.26 47.5588 1071.72 48.7488C1078.87 50.0645 1082.98 57.598 1080.99 64.364ZM1064.01 74.2165C1063.89 73.8855 1063.57 73.8248 1063.32 73.9272C1063.22 73.9003 1063.12 73.8975 1063 73.933C1061.97 74.2483 1060.94 74.5563 1059.89 74.8242C1060.61 73.8004 1061.32 72.7774 1062.04 71.7536C1063.06 72.4258 1064.18 72.9703 1065.4 73.3545C1065.65 73.4348 1065.91 73.5051 1066.16 73.5694C1065.89 74.7999 1065.61 76.03 1065.33 77.2608C1064.82 76.2783 1064.4 75.25 1064.01 74.2165ZM1059.23 71.1959C1059.24 70.8841 1059.03 70.6803 1058.8 70.6116C1058.72 70.5345 1058.61 70.4792 1058.48 70.4656C1057.35 70.3566 1056.23 70.2383 1055.11 70.0765C1056.18 69.3992 1057.25 68.7238 1058.32 68.0472C1059.17 69.3215 1060.24 70.4514 1061.5 71.3767C1060.77 72.4209 1060.04 73.4662 1059.31 74.5111C1059.21 73.4092 1059.2 72.3016 1059.23 71.1959ZM1054.76 60.892C1054.99 60.6771 1054.98 60.3828 1054.86 60.1673C1054.86 60.0599 1054.82 59.947 1054.73 59.8381C1054.02 58.9658 1053.31 58.091 1052.64 57.1877C1053.89 57.469 1055.14 57.7507 1056.39 58.032C1056.07 59.5869 1056.03 61.1358 1056.24 62.6245C1054.99 62.8476 1053.73 63.0699 1052.47 63.2922C1053.18 62.4433 1053.95 61.6526 1054.76 60.892ZM1076.65 49.7021C1075.62 49.0053 1074.47 48.4288 1073.21 48.0057C1073.02 47.941 1072.83 47.8838 1072.64 47.8294C1072.93 46.5512 1073.21 45.2741 1073.5 43.9962C1074.01 44.9787 1074.43 46.007 1074.82 47.0405C1074.95 47.3715 1075.26 47.433 1075.51 47.3295C1075.61 47.3556 1075.72 47.3591 1075.83 47.3236C1076.87 47.0084 1077.9 46.7004 1078.94 46.4322C1078.18 47.5222 1077.42 48.6119 1076.65 49.7021ZM1063.64 47.2014C1063.97 47.3468 1064.23 47.1681 1064.34 46.9175C1064.42 46.8678 1064.5 46.7933 1064.56 46.6866C1065.07 45.7322 1065.58 44.7844 1066.13 43.8563C1066.35 45.0978 1066.57 46.3393 1066.79 47.5808C1065.3 47.8747 1063.88 48.4337 1062.6 49.2151C1061.92 48.1396 1061.24 47.0643 1060.56 45.989C1061.62 46.3234 1062.64 46.7468 1063.64 47.2014ZM1059.6 49.6815C1059.71 48.5555 1059.83 47.4338 1059.99 46.316C1060.68 47.4006 1061.36 48.4851 1062.05 49.5704C1060.79 50.4252 1059.66 51.4996 1058.75 52.7497C1057.68 52.0051 1056.62 51.2612 1055.56 50.5173C1056.66 50.416 1057.77 50.4048 1058.87 50.4394C1059.18 50.4496 1059.38 50.24 1059.45 50.0023C1059.53 49.927 1059.59 49.822 1059.6 49.6815ZM1055.85 55.2282C1056.18 55.1038 1056.24 54.7904 1056.14 54.5369C1056.17 54.4399 1056.17 54.3315 1056.13 54.2157C1055.82 53.1811 1055.51 52.1481 1055.25 51.1028C1056.29 51.8323 1057.33 52.5617 1058.37 53.2911C1057.6 54.4536 1056.99 55.7486 1056.6 57.1488C1056.58 57.2298 1056.56 57.3104 1056.54 57.3926C1055.3 57.1125 1054.05 56.8328 1052.81 56.5527C1053.79 56.0426 1054.82 55.6173 1055.85 55.2282ZM1056 66.4184C1056.15 66.0961 1055.97 65.8309 1055.72 65.725C1055.67 65.6374 1055.59 65.5592 1055.49 65.5023C1054.54 64.9947 1053.59 64.4814 1052.66 63.9316C1053.89 63.7133 1055.13 63.4957 1056.36 63.2774C1056.65 64.7731 1057.2 66.1969 1057.97 67.491C1056.91 68.1622 1055.85 68.8337 1054.79 69.5057C1055.12 68.4511 1055.55 67.4255 1056 66.4184ZM1069.67 75.2999C1069.45 75.0709 1069.16 75.079 1068.94 75.2041C1068.84 75.2039 1068.72 75.2403 1068.62 75.3297C1067.74 76.0465 1066.87 76.7557 1065.97 77.4303C1066.25 76.1926 1066.53 74.9549 1066.8 73.7164C1068.37 74.0344 1069.92 74.0602 1071.4 73.8303C1071.62 75.0842 1071.85 76.3381 1072.07 77.5927C1071.22 76.8835 1070.43 76.1081 1069.67 75.2999ZM1075.19 74.0548C1074.87 73.9094 1074.6 74.0881 1074.49 74.3398C1074.41 74.3903 1074.33 74.4636 1074.27 74.5704C1073.76 75.5248 1073.25 76.4726 1072.7 77.4007C1072.49 76.1708 1072.27 74.9413 1072.05 73.7114C1073.54 73.4025 1074.95 72.8332 1076.23 72.0415C1076.91 73.1171 1077.59 74.1916 1078.27 75.2677C1077.22 74.9333 1076.19 74.5099 1075.19 74.0548ZM1079.23 71.5758C1079.12 72.7018 1079 73.8235 1078.84 74.941C1078.16 73.8557 1077.47 72.7696 1076.79 71.6843C1078.03 70.8264 1079.15 69.7506 1080.07 68.4928C1081.13 69.242 1082.2 69.9916 1083.27 70.7404C1082.17 70.841 1081.07 70.8532 1079.96 70.8179C1079.65 70.8077 1079.45 71.0173 1079.38 71.2551C1079.3 71.3292 1079.25 71.4342 1079.23 71.5758ZM1082.98 66.0288C1082.65 66.1531 1082.59 66.4658 1082.69 66.7191C1082.67 66.816 1082.66 66.9247 1082.7 67.0406C1083.01 68.0748 1083.32 69.107 1083.59 70.1523C1082.54 69.4179 1081.49 68.6835 1080.44 67.9491C1081.08 66.9846 1081.61 65.9263 1082.01 64.7842C1082.1 64.4736 1082.18 64.1634 1082.25 63.8539C1083.51 64.138 1084.77 64.421 1086.02 64.7043C1085.04 65.2144 1084.02 65.6397 1082.98 66.0288ZM1082.83 54.8386C1082.69 55.1609 1082.86 55.4253 1083.11 55.532C1083.16 55.6196 1083.24 55.6978 1083.34 55.7547C1084.3 56.2622 1085.24 56.7748 1086.17 57.3246C1084.88 57.5535 1083.59 57.7824 1082.3 58.0108C1081.98 56.5476 1081.43 55.1579 1080.66 53.8918C1081.79 53.1779 1082.92 52.4644 1084.04 51.7502C1083.71 52.8055 1083.29 53.8315 1082.83 54.8386ZM1068.69 43.9194C1068.47 43.7134 1068.25 43.5124 1068.03 43.314C1069.06 42.3636 1069.28 40.8662 1068.66 39.6243C1068.86 39.4092 1069.06 39.1847 1069.27 38.9534C1070.25 40.5612 1070.04 42.5589 1068.69 43.9194ZM1071.66 34.5909C1070.81 35.6528 1069.88 36.6582 1068.96 37.6649C1068.13 38.5727 1066.66 40.899 1065.22 40.5075C1062.65 39.8063 1059.79 37.8617 1057.57 36.4549C1055.21 34.961 1055.08 31.3418 1054.64 28.8445C1054.31 27.0375 1054.02 25.224 1053.72 23.4132C1053.42 21.644 1053.3 20.2739 1054.29 19.3952C1054.95 23.3563 1055.56 27.3441 1056.41 31.2676C1056.83 33.2174 1057.58 34.3856 1059.3 35.3663C1060.56 36.091 1061.86 36.7637 1063.16 37.423C1063.7 37.6999 1064.59 38.3068 1065.26 38.1409C1067.02 37.7101 1068.37 35.5825 1069.5 34.3108C1070.94 32.6973 1071.74 31.5588 1071.66 29.353C1071.49 25.081 1070.26 20.6662 1069.47 16.4584C1069.62 16.4835 1069.77 16.5111 1069.91 16.5563C1071.38 17.0074 1071.55 20.9626 1071.78 22.2146C1072.08 23.8409 1072.38 25.4681 1072.65 27.099C1073.12 29.8981 1073.54 32.2733 1071.66 34.5909Z" fill="#00B2B5"/>
</g>
<defs>
<filter id="filter0_d_2164_180712" x="0" y="0" width="1130" height="120" filterUnits="userSpaceOnUse" color-interpolation-filters="sRGB">
<feFlood flood-opacity="0" result="BackgroundImageFix"/>
<feColorMatrix in="SourceAlpha" type="matrix" values="0 0 0 0 0 0 0 0 0 0 0 0 0 0 0 0 0 0 127 0" result="hardAlpha"/>
<feOffset dx="4" dy="4"/>
<feGaussianBlur stdDeviation="5"/>
<feComposite in2="hardAlpha" operator="out"/>
<feColorMatrix type="matrix" values="0 0 0 0 0.500708 0 0 0 0 0.714125 0 0 0 0 0.820833 0 0 0 0.1 0"/>
<feBlend mode="normal" in2="BackgroundImageFix" result="effect1_dropShadow_2164_180712"/>
<feBlend mode="normal" in="SourceGraphic" in2="effect1_dropShadow_2164_180712" result="shape"/>
</filter>
</defs>
</svg>
