<svg width="64" height="62" viewBox="0 0 64 62" fill="none" xmlns="http://www.w3.org/2000/svg">
<path d="M48.7945 1.07543C44.1131 1.81002 40.2907 4.8355 38.6099 9.1434C38.3858 9.69122 38.1617 10.376 38.087 10.6624L37.95 11.1853L37.5516 10.9487C36.2443 10.1892 34.1402 10.1145 32.7083 10.7869C31.2267 11.4841 30.2182 12.642 29.7327 14.1983C29.521 14.8956 29.4961 15.4185 29.4961 20.3614C29.4961 25.603 29.5085 25.7774 29.7451 26.0139C30.0439 26.3127 30.3552 26.3252 30.6913 26.0886C30.9155 25.9143 30.9279 25.6653 30.9902 20.324L31.0524 14.7462L31.401 14.0365C32.4718 11.8576 35.2483 11.1355 37.2403 12.5175L37.7135 12.8537V13.9991C37.7135 16.4021 38.4231 18.7428 39.7803 20.8843C40.0666 21.32 40.1538 21.5566 40.0542 21.5815C39.1328 21.843 38.6224 22.1293 38.087 22.6772C37.4769 23.2997 37.452 23.2997 36.8419 23.2499C36.4435 23.2125 36.0824 23.0756 35.7961 22.8639C35.0241 22.2663 34.3518 22.4904 34.3518 23.3246C34.3518 23.8475 35.821 24.7564 36.6925 24.7689C37.066 24.7689 37.0909 24.7938 37.0909 25.242C37.0909 25.9268 37.4396 26.8605 37.7882 27.0847C38.1617 27.3337 38.4356 27.2714 38.7344 26.873C38.9585 26.5742 38.971 26.5244 38.7842 26.0762C38.3235 24.993 38.7095 23.8351 39.7056 23.2997C40.1787 23.0507 40.3779 23.0133 40.9382 23.0756C41.5233 23.1503 41.7225 23.2623 42.619 23.972C44.1753 25.2171 46.3666 26.2007 48.3338 26.5368C48.7945 26.624 49.168 26.736 49.168 26.7983C49.168 26.8605 48.9937 27.2963 48.7945 27.7694C48.3836 28.6908 48.4085 28.9771 48.919 29.2511C49.28 29.4503 49.417 29.4005 49.803 28.9896C50.1391 28.641 50.2014 28.6036 50.4877 28.7406C51.048 28.9896 51.9818 29.9856 52.3304 30.6829C53.202 32.4633 52.9281 34.4056 51.5834 35.9495C51.0605 36.5595 51.1227 36.5595 49.666 36.0366C49.1431 35.8623 48.3089 35.6756 47.7611 35.6382C46.6654 35.551 46.3044 35.7254 46.3044 36.3603C46.3044 36.8086 46.7028 37.0949 47.3253 37.0949C48.8069 37.0949 50.5873 37.8918 51.7826 39.087C54.1607 41.4651 54.4346 45.1131 52.4549 47.8771C51.3344 49.4459 49.1057 50.6536 47.3004 50.666C46.7028 50.666 46.3044 50.9648 46.3044 51.4006C46.3044 51.9858 46.6779 52.1975 47.5619 52.1352L48.3213 52.0854L48.2715 53.6417C48.2342 55.0735 48.2093 55.2727 47.8731 55.9575C47.3751 56.9536 46.4911 57.8127 45.4577 58.2982C44.6982 58.6593 44.5115 58.6966 43.4407 58.6966C42.37 58.6966 42.1832 58.6593 41.4237 58.2982C39.8176 57.5387 38.834 56.1816 38.585 54.4012C38.448 53.4176 38.2737 53.1561 37.7633 53.1561C37.2154 53.1561 37.0536 53.4799 37.1158 54.5133C37.203 55.7085 37.5765 56.6921 38.3484 57.7131L38.9461 58.5099L38.3858 58.8336C36.7548 59.7923 34.7253 59.73 33.1441 58.6717C32.3597 58.1488 31.8493 57.5387 31.3886 56.5551L31.0524 55.833L30.9902 43.121C30.9404 32.6003 30.903 30.3716 30.7536 30.2098C30.5295 29.9358 29.9568 29.9483 29.7078 30.2222C29.5085 30.4339 29.4961 31.4922 29.4961 42.9591C29.4961 53.7911 29.521 55.5716 29.6829 56.2065C30.4299 59.0328 32.9823 61 35.9081 61C37.3399 61 38.6846 60.5518 39.718 59.7425L40.1662 59.3814L40.6767 59.6304C43.5279 61.0125 47.0016 60.0538 48.782 57.3769C49.5664 56.2065 49.7905 55.3101 49.7905 53.3554V51.7243L50.6372 51.3259C55.6423 48.9105 56.85 42.2619 53.0277 38.1781L52.3055 37.4062L52.7911 36.8584C53.5132 36.0491 54.1233 34.7169 54.2727 33.6337C54.5964 31.2432 53.451 28.8153 51.3842 27.5453C50.9858 27.2963 50.6745 27.0349 50.6994 26.9602C50.7243 26.8855 51.3842 26.736 52.1686 26.624C53.7996 26.3999 54.9201 26.0637 56.3146 25.3789C59.8879 23.611 62.3656 20.3489 63.262 16.2402C63.3492 15.792 63.4114 14.7586 63.4114 13.6879C63.399 12.1564 63.3367 11.6958 63.0628 10.6375C61.5189 4.8604 56.4018 0.938477 50.4877 1.00073C49.7283 1.01318 48.9688 1.03808 48.7945 1.07543ZM53.3389 2.78116C57.4103 3.87681 60.5602 7.0019 61.6434 11.011C62.0294 12.4801 62.0294 15.1944 61.6434 16.676C60.0249 22.7519 53.9366 26.375 47.8233 24.8934C43.9387 23.9596 40.8386 20.959 39.6309 16.9873C39.332 15.9912 39.2947 15.6675 39.2822 13.9369C39.2698 11.8452 39.4067 11.0981 40.0915 9.44221C41.4486 6.13036 44.636 3.47839 48.2342 2.68156C49.3547 2.43254 52.2557 2.4948 53.3389 2.78116Z" fill="#00B2B5" stroke="#00B2B5" stroke-width="0.7"/>
<path d="M48.5325 6.57859C48.2462 6.81515 48.2337 6.88985 48.1964 8.86949L48.159 10.9363L46.0922 10.9736C43.4029 11.0234 43.5648 10.8367 43.5648 13.7626C43.5648 16.6137 43.3905 16.427 46.1047 16.427H48.159L48.1964 18.5187C48.2213 20.075 48.2835 20.6726 48.408 20.822C48.5574 21.0088 48.8936 21.0337 50.9106 21.0337C53.0023 21.0337 53.2637 21.0088 53.4381 20.8096C53.6124 20.6104 53.6497 20.2618 53.6497 18.5062V16.427H55.7414C57.6214 16.427 57.8705 16.4021 58.0448 16.2029C58.2315 16.0037 58.2564 15.6426 58.2564 13.7377C58.2564 11.9946 58.2191 11.4343 58.0821 11.2475C57.9203 11.0359 57.7086 11.011 55.7788 10.9736L53.6497 10.9363V8.88194C53.6497 6.16772 53.8365 6.34202 50.9853 6.34202C49.043 6.34202 48.794 6.36693 48.5325 6.57859ZM52.1556 9.91534C52.1556 11.6709 52.193 12.0195 52.3673 12.2187C52.5416 12.4179 52.7906 12.4428 54.6707 12.4428H56.7624V13.6879V14.9329H54.708C52.8155 14.9329 52.6288 14.9578 52.4047 15.1819C52.1805 15.406 52.1556 15.5928 52.1556 17.4853V19.5396H50.9106H49.6655V17.4355C49.6655 14.7462 49.8523 14.9329 47.0758 14.9329H45.0464L45.0837 13.7128L45.1211 12.5051L47.2252 12.4677C48.5201 12.4553 49.4041 12.3805 49.5037 12.3058C49.6282 12.1938 49.6655 11.6584 49.6655 10.0772C49.6655 8.94419 49.7029 7.9606 49.7527 7.92325C49.79 7.87344 50.3503 7.83609 50.9977 7.83609H52.1556V9.91534Z" fill="#00B2B5" stroke="#00B2B5" stroke-width="0.7"/>
<path d="M19.7235 10.5499C18.2294 11.0728 17.0591 12.1187 16.3867 13.538C16.0381 14.2975 16.0008 14.4843 15.9883 15.5924V16.8125L15.4903 16.7129C15.2164 16.6631 14.295 16.6133 13.4359 16.6133C12.0788 16.6258 11.7676 16.6631 10.9707 16.9495C8.46817 17.8459 6.67529 19.6513 5.7913 22.1414C5.46758 23.0752 5.41778 23.3864 5.41778 24.5817C5.40533 25.3287 5.45513 26.2376 5.50494 26.5862L5.60454 27.2087L5.08162 27.4453C4.35948 27.7815 3.11443 29.0514 2.69111 29.8856C1.5083 32.2637 1.84447 35.0277 3.5502 36.8455L4.11047 37.4431L3.73696 37.7046C3.20158 38.0905 2.26779 39.3854 1.78222 40.3939C0.699018 42.635 0.74882 45.1749 1.88182 47.553C2.57905 48.9972 4.08557 50.5287 5.49249 51.2259L6.46363 51.699V53.1059C6.46363 54.8116 6.61304 55.5587 7.16086 56.729C7.9079 58.3103 9.50157 59.6051 11.2571 60.0658C12.6391 60.4144 14.4818 60.2401 15.6397 59.6425L16.1004 59.4184L16.8225 59.9039C17.2085 60.1778 17.8559 60.514 18.2543 60.651C19.1632 60.9747 20.8191 61.0867 21.7654 60.8751C23.9691 60.3895 25.7869 58.746 26.5464 56.5298L26.8203 55.7081L26.8577 35.9739C26.8826 23.7475 26.8452 15.8663 26.7705 15.2438C26.4966 13.0027 25.2017 11.3467 23.1847 10.6246C22.1389 10.2635 20.6573 10.2262 19.7235 10.5499ZM23.0727 12.1809C24.2928 12.7785 25.0274 13.7995 25.264 15.194C25.4258 16.2149 25.4383 54.1144 25.264 55.2599C25.0274 56.9158 23.9318 58.4099 22.4253 59.1071C21.8027 59.4059 21.5662 59.4433 20.4083 59.4433C19.2255 59.4433 19.0262 59.4059 18.4037 59.0946C17.3454 58.5842 17.3081 58.497 17.8434 57.862C18.6029 56.978 19.2753 55.2101 19.2877 54.0895C19.2877 53.5541 18.9764 53.1557 18.5531 53.1557C18.0676 53.1557 17.8434 53.4794 17.7438 54.3012C17.5571 56.0442 16.5237 57.5134 14.9549 58.2854C14.183 58.6713 14.0336 58.6962 12.8757 58.6962C11.7427 58.6962 11.5559 58.6589 10.8213 58.3103C9.77548 57.8247 8.89149 56.9282 8.40592 55.8948C8.06975 55.1603 8.01995 54.9361 7.9826 53.579L7.9328 52.0601L8.71718 52.1223C9.57627 52.1846 9.86263 52.0601 9.99959 51.5869C10.1241 51.1761 9.65097 50.6656 9.15295 50.6656C6.16482 50.6656 3.30119 48.2751 2.66621 45.2496C2.4421 44.154 2.4421 43.6061 2.66621 42.5105C3.20158 39.9955 5.18122 37.9411 7.67133 37.2937C8.09465 37.1816 8.66738 37.0945 8.94129 37.0945C9.88753 37.0945 10.3607 36.2603 9.71323 35.7498C9.30236 35.4012 7.37252 35.7 5.75395 36.3599C5.35553 36.5218 5.33063 36.5093 4.79525 35.9864C4.48399 35.6876 4.08557 35.1024 3.88636 34.6791C3.58755 34.0192 3.53775 33.7702 3.53775 32.7368C3.53775 31.6785 3.5751 31.4793 3.89881 30.807C4.28478 30.0226 5.13142 29.0888 5.80375 28.7153L6.20217 28.4912L6.40138 28.8771C6.61304 29.3004 7.06126 29.4623 7.44722 29.2631C7.89544 29.0141 7.89544 28.5659 7.48458 27.657C6.999 26.5987 6.8496 25.9263 6.83715 24.8307C6.83715 23.0254 7.53438 21.3321 8.82924 20.0372C10.2735 18.593 11.8672 17.9704 13.934 18.0825C15.3284 18.1447 16.0879 18.3688 17.1089 18.9914C18.2045 19.6513 18.7897 19.5641 18.7897 18.7175C18.7897 18.3688 18.7025 18.2443 18.3041 17.9829C17.9181 17.7214 17.7812 17.5222 17.6069 16.9619C17.3081 16.0281 17.3952 14.8329 17.831 13.9862C18.2419 13.177 19.213 12.293 19.9974 12.0315C20.8689 11.7327 22.2883 11.7949 23.0727 12.1809Z" fill="#00B2B5" stroke="#00B2B5" stroke-width="0.7"/>
<path d="M14.8435 21.6066C14.5198 21.6813 14.1836 22.1046 14.1836 22.4283C14.1836 22.5528 14.2956 22.7645 14.4326 22.9015C14.6443 23.1131 14.7937 23.138 15.3415 23.0758C16.8231 22.9139 18.0059 24.2212 17.6449 25.6032C17.3958 26.5868 17.3834 26.7611 17.6075 27.0101C17.8565 27.2841 18.1802 27.3214 18.5288 27.1346C18.8152 26.9852 19.114 26.2631 19.2261 25.4414L19.3132 24.7939L19.9109 24.7192C20.6081 24.6321 21.6166 24.0096 21.8905 23.5115C22.0524 23.2127 22.0524 23.1505 21.8656 22.8517C21.5792 22.4159 21.1186 22.4283 20.4213 22.9015C20.0105 23.1754 19.7241 23.275 19.3132 23.275C18.8152 23.275 18.7031 23.2252 18.3172 22.777C17.732 22.0797 16.848 21.6564 15.8893 21.5941C15.466 21.5692 14.9929 21.5817 14.8435 21.6066Z" fill="#00B2B5" stroke="#00B2B5" stroke-width="0.7"/>
<path d="M9.41276 27.9806C9.26335 28.1424 9.2011 28.4413 9.2011 28.9891C9.2011 29.9229 9.01434 30.3337 8.26731 30.9314C7.84399 31.28 7.70703 31.4792 7.70703 31.7407C7.70703 32.2636 8.03075 32.525 8.56612 32.4503C8.97699 32.3881 9.03924 32.4254 9.38786 32.8986C9.67422 33.2845 9.87343 33.4339 10.1598 33.4588C10.9317 33.5335 11.1932 32.7616 10.6329 32.0893C10.1971 31.5788 10.1349 31.2177 10.3964 30.7322C10.5209 30.4832 10.6329 29.9229 10.6703 29.3751C10.7201 28.5533 10.6827 28.4039 10.4462 28.0926C10.1349 27.7067 9.69912 27.6569 9.41276 27.9806Z" fill="#00B2B5" stroke="#00B2B5" stroke-width="0.7"/>
<path d="M18.0397 32.8617C17.716 33.1854 17.7284 33.3348 18.1642 34.169C18.4506 34.7168 18.5377 35.0405 18.5377 35.6008C18.5377 35.9992 18.5004 36.4225 18.463 36.5346C18.4132 36.6466 18.077 36.933 17.716 37.1696C16.9814 37.6302 16.3589 38.4022 16.0102 39.2986C15.7363 39.9958 15.699 41.5397 15.948 41.7638C16.2593 42.0626 16.6203 42.0875 16.9316 41.8385C17.1681 41.6518 17.2304 41.4526 17.2927 40.6682C17.4296 38.9998 18.3385 38.0784 19.9197 37.9913C20.6668 37.9415 20.8784 37.9913 21.476 38.2777C22.2604 38.6636 22.7087 38.6263 22.9203 38.1532C23.1444 37.6676 22.883 37.2941 22.0737 36.8956C21.6753 36.7089 21.0776 36.5346 20.7041 36.4972L20.0318 36.4474V35.5883C20.0318 34.5798 19.6832 33.5464 19.1602 32.9862C18.7494 32.5504 18.3883 32.513 18.0397 32.8617Z" fill="#00B2B5" stroke="#00B2B5" stroke-width="0.7"/>
<path d="M11.6162 45.7482C11.2427 46.1217 11.28 46.3458 11.8901 47.1426C12.1267 47.4414 12.4006 48.0142 12.5126 48.4001C12.7866 49.3339 12.6247 50.4296 12.0769 51.3136C11.8652 51.6497 11.6909 52.0606 11.6909 52.21C11.6909 52.5586 12.052 52.9072 12.4255 52.9072C12.9982 52.9072 13.8324 51.5252 14.069 50.193L14.1935 49.4833H15.5257C16.7583 49.4833 16.9201 49.4584 17.6921 49.0849C18.1528 48.8732 18.6134 48.5495 18.7379 48.3628C18.9371 48.0515 18.9371 47.9893 18.7753 47.6904C18.5263 47.2422 18.0656 47.2173 17.2812 47.6282C16.4719 48.0266 15.3638 48.1387 14.5545 47.9021C14.069 47.7527 13.9445 47.6406 13.6456 47.0804C13.2223 46.296 12.4379 45.4369 12.1391 45.4369C12.0271 45.4369 11.7905 45.5738 11.6162 45.7482Z" fill="#00B2B5" stroke="#00B2B5" stroke-width="0.7"/>
<path d="M45.916 27.9935C45.6546 28.2051 45.6172 28.3296 45.6172 29.1514C45.6172 29.7988 45.6919 30.2221 45.8787 30.6205C46.1775 31.2555 46.1277 31.5294 45.6172 32.1395C45.2562 32.5628 45.2313 32.8243 45.5052 33.2103C45.8289 33.6709 46.3394 33.5713 46.8747 32.9363C47.2981 32.4383 47.3603 32.401 47.7961 32.4508C48.2069 32.513 48.2941 32.4757 48.4809 32.1893C48.7797 31.7411 48.6427 31.3551 48.0824 30.9816C47.3852 30.5458 47.0117 29.7366 47.0988 28.9148C47.1611 28.367 47.1362 28.2176 46.9245 28.0059C46.6133 27.6947 46.2896 27.6947 45.916 27.9935Z" fill="#00B2B5" stroke="#00B2B5" stroke-width="0.7"/>
<path d="M37.2027 32.8741C36.7047 33.3721 36.3063 34.4677 36.244 35.5011L36.1817 36.4723H35.7211C34.6628 36.4723 33.3555 37.2193 33.3555 37.8294C33.3555 38.2029 33.6916 38.5889 34.0153 38.5889C34.1274 38.5889 34.476 38.4519 34.7997 38.2776C35.8456 37.7173 37.2898 37.9041 38.1365 38.6885C38.6843 39.2114 39.0827 40.1576 39.0827 40.9669C39.0827 41.6891 39.1699 41.8509 39.6679 42.0003C39.8796 42.0626 40.029 42.0003 40.278 41.7638C40.5892 41.4525 40.6017 41.3778 40.5519 40.5934C40.4398 39.1367 39.5932 37.7298 38.3979 37.0201C38.012 36.796 37.8501 36.6092 37.7879 36.3353C37.6385 35.5509 37.7132 35.0031 38.0867 34.2934C38.5225 33.4717 38.5474 33.1106 38.2361 32.8243C37.9248 32.5379 37.514 32.5628 37.2027 32.8741Z" fill="#00B2B5" stroke="#00B2B5" stroke-width="0.7"/>
<path d="M43.4411 45.9346C43.1921 46.1961 42.8559 46.7065 42.6941 47.0427C42.3455 47.8146 41.9719 47.9889 40.702 47.9889C39.9301 47.9889 39.6437 47.9267 39.071 47.6403C38.685 47.4536 38.2617 47.3042 38.1123 47.3042C37.7512 47.3042 37.4648 47.6279 37.4648 48.0636C37.4648 48.8729 39.4569 49.6449 41.1876 49.5079L42.1587 49.4332L42.2334 50.118C42.3206 50.9397 42.9929 52.3466 43.466 52.7077C43.9018 53.019 44.4372 52.8696 44.6115 52.384C44.7111 52.1101 44.6737 51.9607 44.3874 51.5498C43.8893 50.8401 43.7026 50.2176 43.7026 49.2963C43.6901 48.4123 44.0014 47.5532 44.599 46.8559C44.9974 46.3828 45.0223 46.0218 44.6862 45.6856C44.3127 45.3121 43.9516 45.3743 43.4411 45.9346Z" fill="#00B2B5" stroke="#00B2B5" stroke-width="0.7"/>
</svg>
