<svg width="60" height="60" viewBox="0 0 60 60" fill="none" xmlns="http://www.w3.org/2000/svg">
<path d="M13.5402 0.89447C13.5402 2.28476 13.9271 3.86848 14.5678 5.21042C15.0393 6.16549 15.3053 6.54026 16.1274 7.35026C17.699 8.90981 19.2223 9.53846 21.7974 9.67144L23.2118 9.74398V13.3708V16.9977L22.5832 16.3811C21.4347 15.2568 20.0323 14.4951 18.2189 14.0357C17.3847 13.8181 17.1792 13.7214 17.2396 13.5763C17.2759 13.4796 17.3484 13.1653 17.3726 12.8872C17.566 11.3035 16.1274 9.70771 14.5074 9.70771C13.0083 9.70771 11.6059 11.1101 11.6059 12.6092C11.6059 13.5884 12.3555 14.8095 13.1775 15.148C13.3831 15.2326 13.5644 15.414 13.6007 15.559C13.6249 15.692 13.7095 16.1393 13.7941 16.5262C14.1205 18.2066 14.9305 19.7057 16.1878 20.9509C17.699 22.45 19.2707 23.0787 21.7974 23.2117L23.2118 23.2842V26.1615V29.0388L20.9269 29.0751C18.8354 29.1113 18.6057 29.1355 18.3035 29.3652C17.566 29.9093 17.4693 30.1631 17.4331 31.6864C17.4089 32.4964 17.4451 33.2822 17.5177 33.5361C17.6869 34.0922 18.3519 34.6967 18.9201 34.8055L19.3432 34.878V35.8331V36.7882H16.4417H13.5402V35.8331V34.878L13.9634 34.8055C14.5316 34.6967 15.1965 34.0922 15.3657 33.5361C15.4383 33.2822 15.4746 32.4964 15.4504 31.6864C15.4141 30.1631 15.3174 29.9093 14.5799 29.3652C14.2535 29.1113 14.1205 29.1113 8.70444 29.1113C3.28834 29.1113 3.15536 29.1113 2.82894 29.3652C2.09148 29.9093 1.99477 30.1631 1.9585 31.6864C1.93432 32.4964 1.97059 33.2822 2.04312 33.5361C2.21238 34.0922 2.8773 34.6967 3.44551 34.8055L3.86864 34.878V35.8331V36.7882H3.19163C2.81685 36.7882 2.28491 36.8486 2.00686 36.9332C1.34193 37.1267 0.338506 38.1301 0.145074 38.795C0.0362685 39.1698 0 41.8778 0 49.6514V60H0.96716H1.93432V49.6635V39.3149L2.23656 39.0247C2.47835 38.7709 2.6476 38.7225 3.19163 38.7225H3.85655L3.89282 45.5893L3.92909 52.4562L4.3764 53.375C4.92042 54.4751 5.62161 55.1521 6.74594 55.6841C7.4834 56.0346 7.66474 56.0709 8.70444 56.0709C9.74413 56.0709 9.92548 56.0346 10.6629 55.6841C11.7873 55.1521 12.4884 54.4751 13.0325 53.375L13.4798 52.4562L13.5161 45.5893L13.5523 38.7225H16.4417H19.3311L19.3674 45.5893L19.4036 52.4562L19.851 53.375C20.395 54.4751 21.0962 55.1642 22.2205 55.6841C22.9338 56.0226 23.1635 56.0588 24.0823 56.0709H25.122L25.1703 57.4249C25.2066 58.8878 25.3154 59.1416 26.0408 59.6857C26.3672 59.9396 26.4155 59.9396 40.6207 59.9396C54.8259 59.9396 54.8742 59.9396 55.2006 59.6857C55.8656 59.2021 56.0348 58.8394 56.0348 57.9569C56.0348 57.3403 55.9623 56.9776 55.7326 56.5061L55.4424 55.8654L55.7809 55.2367C58.4285 50.4614 59.4561 47.572 59.843 43.8122C60.2661 39.5808 59.4803 35.0594 57.6548 31.2391C56.3612 28.5069 54.9951 26.6451 52.2024 23.7799C50.921 22.4621 50.1714 21.6038 50.1714 21.4466C50.1714 21.0718 49.7241 19.9596 49.3856 19.5002L49.0833 19.0892L51.3078 16.8405C52.6256 15.5228 53.6411 14.3863 53.8103 14.0599C54.1972 13.3104 54.2093 11.9201 53.8345 11.2068L53.5686 10.7111L54.3302 9.96159L55.0918 9.19995L55.5875 9.45383C56.2161 9.78025 56.869 9.78025 57.7273 9.45383C59.3473 8.84936 60.4233 6.74578 59.7705 5.44012C59.5045 4.90818 55.1765 0.555965 54.6203 0.265816C53.2663 -0.435375 51.1627 0.604321 50.5462 2.27267C50.2198 3.13103 50.2198 3.78386 50.5462 4.41251L50.8001 4.90818L50.0505 5.65773L49.301 6.41937L48.7932 6.20176C48.1041 5.89952 47.4029 5.8028 46.8226 5.93579L46.3269 6.04459L46.1093 5.5731C45.6862 4.64221 44.5498 3.90475 43.5222 3.90475C42.0231 3.90475 40.6207 5.30714 40.6207 6.80623C40.6207 7.60414 40.8867 8.17234 41.6 8.87354L42.2891 9.55055L38.4567 13.3829L34.6364 17.2032L34.1286 16.6108C33.5967 16.0063 33.0285 15.6557 32.3394 15.5469L31.9284 15.4744L32.5933 14.7369C33.3549 13.9028 34.2012 12.2707 34.5155 11.0376C34.6243 10.6023 34.7452 9.69562 34.7815 9.00652L34.854 7.77339H33.8385C30.4655 7.77339 27.5278 8.801 25.7385 10.5902L25.1703 11.1464L25.1099 9.24831C25.0494 7.1931 24.8923 6.41937 24.2999 5.16206C23.2965 3.08267 21.4468 1.51104 19.053 0.701038C17.9287 0.338352 16.7439 0.14492 15.1481 0.0723839L13.5402 -0.000152588V0.89447ZM17.6507 2.34521C19.9114 2.86506 21.7127 4.1949 22.5348 5.97206C22.7645 6.46773 22.9942 7.0722 23.0426 7.31399L23.1151 7.77339H22.2326C18.9563 7.7613 16.5868 5.97206 15.7647 2.91341C15.6801 2.56282 15.5954 2.21222 15.5954 2.1276C15.5954 1.95834 16.2483 2.03088 17.6507 2.34521ZM55.9018 4.13445C57.8966 6.12922 58.0538 6.32265 57.9812 6.62489C57.8724 7.04802 57.3042 7.61623 56.8811 7.72503C56.5788 7.79757 56.3854 7.64041 54.3906 5.64564C53.2059 4.46087 52.2266 3.40908 52.2266 3.32446C52.2266 2.8167 53.0487 1.97044 53.5565 1.97044C53.6532 1.97044 54.7171 2.94968 55.9018 4.13445ZM44.1871 6.14131C44.3805 6.32265 44.4893 6.57653 44.4893 6.80623C44.4893 7.03593 44.3805 7.28981 44.1871 7.47115C44.0058 7.66459 43.7519 7.77339 43.5222 7.77339C43.2925 7.77339 43.0386 7.66459 42.8573 7.47115C42.6638 7.28981 42.555 7.03593 42.555 6.80623C42.555 6.57653 42.6638 6.32265 42.8573 6.14131C43.0386 5.94788 43.2925 5.83907 43.5222 5.83907C43.7519 5.83907 44.0058 5.94788 44.1871 6.14131ZM53.0124 7.04802L53.7378 7.77339L52.9762 8.53503L52.2266 9.28458L51.4771 8.53503L50.7154 7.77339L51.4408 7.04802C51.8398 6.64907 52.1903 6.32265 52.2266 6.32265C52.2629 6.32265 52.6135 6.64907 53.0124 7.04802ZM47.9711 7.94265C48.1525 8.03936 49.168 8.99443 50.2318 10.0583L52.1662 12.0047V12.6092V13.2137L49.8329 15.5469L47.4875 17.8923L46.9919 17.6989C46.6655 17.5901 46.0852 17.5175 45.3961 17.5054C44.4289 17.5054 44.2234 17.5538 43.498 17.8923C42.3737 18.4242 41.6725 19.1012 41.1285 20.2014C40.7053 21.0597 40.6811 21.1927 40.6811 22.2082C40.6932 22.8973 40.7658 23.4897 40.8746 23.8161L41.068 24.3118L39.8712 25.5087L38.6864 26.6934L35.9904 23.9975L33.3066 21.3136L39.8349 14.7732C43.4255 11.1705 46.5325 8.12399 46.7259 8.00309C47.1611 7.72503 47.5238 7.71294 47.9711 7.94265ZM32.7625 9.85278C32.7625 9.93741 32.6779 10.3001 32.5933 10.6507C31.7712 13.7093 29.4017 15.4986 26.1254 15.5107H25.2429L25.3154 15.0513C25.3638 14.8095 25.5935 14.205 25.8232 13.7093C26.7903 11.642 28.9302 10.2759 31.8921 9.84069C32.2669 9.78025 32.6175 9.73189 32.6779 9.7198C32.7263 9.7198 32.7625 9.78025 32.7625 9.85278ZM15.1723 11.9443C15.7768 12.5367 15.3537 13.5763 14.5074 13.5763C14.0117 13.5763 13.5402 13.1049 13.5402 12.6092C13.5402 12.1135 14.0117 11.642 14.5074 11.642C14.7371 11.642 14.991 11.7508 15.1723 11.9443ZM17.6507 15.8854C19.9114 16.4053 21.7127 17.7351 22.5348 19.5123C22.7645 20.008 22.9942 20.6124 23.0426 20.8542L23.1151 21.3136H22.2326C18.9563 21.3015 16.5868 19.5123 15.7647 16.4536C15.6801 16.1031 15.5954 15.7525 15.5954 15.6678C15.5954 15.4986 16.2483 15.5711 17.6507 15.8854ZM29.3775 17.0098C29.3775 17.0339 29.2928 17.2516 29.1961 17.4813C28.773 18.5089 29.0511 19.5486 29.994 20.4794L30.6831 21.1685L30.2237 21.6159C29.9699 21.8577 29.6072 22.3412 29.4258 22.6918C28.9543 23.526 28.9302 24.8317 29.3654 25.6658C29.7522 26.4154 33.4637 30.139 34.2616 30.5863C35.0958 31.0457 36.4015 31.0698 37.2356 30.6346C37.5621 30.4654 38.6985 29.4499 40.0283 28.1321L42.2649 25.8955L42.5913 26.1494C43.3288 26.7297 44.2596 27.044 45.384 27.0803C46.061 27.1045 46.5325 27.177 46.6534 27.2737C48.9383 29.1839 50.123 30.7072 51.1023 32.9679C52.6135 36.498 52.5772 40.4996 51.0056 44.0056C50.8001 44.4529 50.6187 44.8398 50.5945 44.864C50.5704 44.9002 50.3648 44.7431 50.1472 44.5134C49.2889 43.6671 47.415 42.712 46.5808 42.712C46.3874 42.712 46.2423 42.579 46.0731 42.2405C45.7587 41.6361 44.985 40.9832 44.3805 40.8019C44.0541 40.6931 41.7692 40.6568 36.4619 40.6568H29.0148V39.6897V38.7225H30.9491H32.8834V37.7553V36.7882H30.9491H29.0148V35.8331V34.878L29.4379 34.8055C30.0061 34.6967 30.671 34.0922 30.8403 33.5361C30.9128 33.2822 30.9491 32.4964 30.9249 31.6864C30.8887 30.1631 30.7919 29.9093 30.0545 29.3652C29.7522 29.1355 29.5225 29.1113 27.4311 29.0751L25.1461 29.0388V23.26V17.4813L26.5727 17.4087C27.3464 17.3724 28.229 17.2636 28.5312 17.1669C29.0873 16.9856 29.3775 16.9251 29.3775 17.0098ZM32.5812 17.7472C32.7746 17.9286 32.8834 18.1824 32.8834 18.4121C32.8834 18.6418 32.7746 18.8957 32.5812 19.0771C32.3998 19.2705 32.146 19.3793 31.9163 19.3793C31.6866 19.3793 31.4327 19.2705 31.2513 19.0771C31.0579 18.8957 30.9491 18.6418 30.9491 18.4121C30.9491 18.1824 31.0579 17.9286 31.2513 17.7472C31.4327 17.5538 31.6866 17.445 31.9163 17.445C32.146 17.445 32.3998 17.5538 32.5812 17.7472ZM46.3511 19.5244C47.3908 19.8387 48.358 21.1685 48.358 22.2808C48.358 23.7799 46.9556 25.1823 45.4565 25.1823C44.6949 25.1823 44.0783 24.9042 43.4617 24.2755C42.2286 23.0545 42.2286 21.5071 43.4617 20.286C44.308 19.4277 45.2147 19.198 46.3511 19.5244ZM34.6364 25.424L37.2961 28.0958L36.8488 28.5069C36.341 28.9784 35.9421 29.1113 35.4585 28.9905C35.2409 28.9421 34.3342 28.1321 33.0648 26.8627L31.0096 24.8196V24.2272C31.0096 23.7073 31.07 23.5623 31.4206 23.1996C31.6503 22.9578 31.8679 22.7644 31.9163 22.7644C31.9525 22.7644 33.1736 23.9612 34.6364 25.424ZM52.8794 27.3584C55.3094 30.2478 57.0141 33.8746 57.6911 37.6103C58.0296 39.5083 58.0658 43.2802 57.7515 45.009C57.2438 47.7654 56.4217 50.0503 54.9951 52.6254C53.8466 54.729 53.9796 54.596 53.2663 54.3784C52.9157 54.2696 52.1903 54.197 51.465 54.197H50.2681L50.4616 53.9311C51.8035 52.0935 52.1541 51.1626 52.1662 49.4217C52.1662 48.5754 52.0936 47.983 51.9365 47.4753L51.7189 46.7499L52.1057 46.1213C52.9641 44.731 53.7862 42.2405 54.04 40.2941C54.6566 35.5309 52.8432 30.4533 49.301 27.032L48.3942 26.1615L48.9625 25.557C49.2768 25.2185 49.6032 24.7833 49.6878 24.5778L49.845 24.1909L50.9814 25.3273C51.6101 25.9439 52.4684 26.8627 52.8794 27.3584ZM13.5402 31.9524V32.9195H8.70444H3.86864V31.9524V30.9852H8.70444H13.5402V31.9524ZM29.0148 31.9524V32.9195H24.179H19.3432V31.9524V30.9852H24.179H29.0148V31.9524ZM11.6059 35.821V36.7882H8.70444H5.80296V35.821V34.8539H8.70444H11.6059V35.821ZM27.0805 35.821V36.7882H24.179H21.2775V35.821V34.8539H24.179H27.0805V35.821ZM11.6059 45.2025C11.6059 49.9415 11.5696 51.8275 11.4608 52.1902C11.1465 53.2299 9.81667 54.197 8.70444 54.197C7.5922 54.197 6.26236 53.2299 5.94803 52.1902C5.83923 51.8275 5.80296 49.9415 5.80296 45.2025V38.7225H8.70444H11.6059V45.2025ZM27.0805 45.2025C27.0805 49.9415 27.0442 51.8275 26.9354 52.1902C26.6211 53.2299 25.2912 54.197 24.179 54.197C23.0668 54.197 21.7369 53.2299 21.4226 52.1902C21.3138 51.8275 21.2775 49.9415 21.2775 45.2025V38.7225H24.179H27.0805V45.2025ZM43.8123 42.6999C43.8486 42.7483 43.6431 42.8692 43.365 42.9538C42.6276 43.1714 41.8297 43.5946 41.2373 44.0902L40.7174 44.5254H34.8661H29.0148V43.5583V42.5911H36.3773C40.4394 42.5911 43.7761 42.6395 43.8123 42.6999ZM47.4392 44.9848C48.5393 45.4926 49.2405 46.1938 49.7845 47.2819C50.2077 48.1523 50.2318 48.2611 50.2318 49.3612C50.2318 50.4614 50.2077 50.5702 49.7845 51.4406C49.2405 52.5408 48.5393 53.2178 47.415 53.7497C46.6775 54.1003 46.4962 54.1366 45.4565 54.1366C44.4168 54.1366 44.2355 54.1003 43.498 53.7497C42.3737 53.2178 41.6725 52.5408 41.1285 51.4406C40.7053 50.5702 40.6811 50.4614 40.6811 49.3733C40.6811 48.3216 40.7174 48.1402 41.068 47.4027C41.5516 46.3751 42.2407 45.6256 43.1474 45.1541C44.0904 44.6463 44.6223 44.5254 45.7225 44.5738C46.4599 44.6101 46.8347 44.7068 47.4392 44.9848ZM39.2909 46.496C39.2909 46.5202 39.17 46.8587 39.0249 47.2577C38.6743 48.2369 38.6501 50.3284 38.9765 51.2956C39.2425 52.0814 39.9195 53.3629 40.1976 53.5926C40.3064 53.6772 40.4515 53.8585 40.5119 53.9794C40.6207 54.185 40.4031 54.197 34.3583 54.197H28.096L28.5191 53.3266L28.9543 52.4562L28.9906 49.458L29.039 46.4598H34.1649C36.9818 46.4598 39.2909 46.4839 39.2909 46.496ZM53.2663 56.4457C53.7378 56.7842 54.028 57.2073 54.1126 57.6667L54.1972 58.0657H40.6328H27.0805V57.0985V56.1314L40.0041 56.1555C52.8553 56.1918 52.9399 56.1918 53.2663 56.4457Z" fill="#00B2B5"/>
<path d="M44.7944 21.6155C44.601 21.7968 44.4922 22.0507 44.4922 22.2804C44.4922 22.5101 44.601 22.764 44.7944 22.9453C44.9758 23.1388 45.2296 23.2476 45.4593 23.2476C45.689 23.2476 45.9429 23.1388 46.1243 22.9453C46.3177 22.764 46.4265 22.5101 46.4265 22.2804C46.4265 22.0507 46.3177 21.7968 46.1243 21.6155C45.9429 21.422 45.689 21.3132 45.4593 21.3132C45.2296 21.3132 44.9758 21.422 44.7944 21.6155Z" fill="#00B2B5"/>
<path d="M44.4911 46.6168C43.8988 46.8103 42.8832 47.85 42.7019 48.4665C42.3634 49.6029 42.6052 50.5097 43.4635 51.3559C44.6846 52.589 46.232 52.589 47.4531 51.3559C48.6378 50.1832 48.6741 48.672 47.5498 47.4268C46.764 46.5564 45.6396 46.2541 44.4911 46.6168ZM46.1232 48.6962C46.7277 49.2886 46.3046 50.3283 45.4583 50.3283C44.9626 50.3283 44.4911 49.8568 44.4911 49.3611C44.4911 48.8655 44.9626 48.394 45.4583 48.394C45.688 48.394 45.9419 48.5028 46.1232 48.6962Z" fill="#00B2B5"/>
<path d="M27.081 0.193074C26.4886 0.386506 25.4731 1.4262 25.2917 2.04277C24.9532 3.17918 25.195 4.08589 26.0534 4.93216C26.6699 5.56081 27.2865 5.83887 28.0481 5.83887C28.8098 5.83887 29.4263 5.56081 30.0429 4.93216C31.2277 3.75947 31.2639 2.24829 30.1396 1.00307C29.3538 0.132626 28.2295 -0.169611 27.081 0.193074ZM28.7131 2.27247C29.3175 2.86485 28.8944 3.90455 28.0481 3.90455C27.5525 3.90455 27.081 3.43306 27.081 2.93739C27.081 2.44172 27.5525 1.97023 28.0481 1.97023C28.2778 1.97023 28.5317 2.07903 28.7131 2.27247Z" fill="#00B2B5"/>
<path d="M2.96159 2.07932C1.84936 2.36947 0.870107 3.16737 0.362349 4.20707C0.132648 4.70274 0.0722007 5.00498 0.0722007 5.83915C0.0601112 6.78213 0.0963797 6.92721 0.471154 7.6284C0.930555 8.47466 1.31742 8.83735 2.22413 9.32093C2.74398 9.5869 2.99786 9.63525 3.8683 9.63525C4.73875 9.63525 4.99262 9.5869 5.51247 9.32093C6.41919 8.83735 6.80605 8.47466 7.26545 7.6284C7.64022 6.92721 7.67649 6.78213 7.6644 5.83915C7.6644 4.96871 7.61604 4.71483 7.35008 4.19498C6.87859 3.28827 6.50381 2.90141 5.69382 2.46618C4.908 2.05514 3.71114 1.8738 2.96159 2.07932ZM4.62994 4.07409C5.87516 4.59394 6.17739 6.21393 5.21024 7.18109C3.85621 8.5472 1.63175 7.32616 1.98234 5.41602C2.19995 4.27961 3.5298 3.6026 4.62994 4.07409Z" fill="#00B2B5"/>
<path d="M4.89518 15.6196C3.78295 15.9098 2.8037 16.7077 2.29594 17.7474C2.06624 18.243 2.00579 18.5453 2.00579 19.3794C1.9937 20.3224 2.02997 20.4675 2.40475 21.1687C2.86415 22.0149 3.25101 22.3776 4.15772 22.8612C4.67757 23.1272 4.93145 23.1755 5.8019 23.1755C6.67234 23.1755 6.92622 23.1272 7.44607 22.8612C8.35278 22.3776 8.73964 22.0149 9.19904 21.1687C9.57382 20.4675 9.61009 20.3224 9.598 19.3794C9.598 18.509 9.54964 18.2551 9.28367 17.7353C8.81218 16.8286 8.43741 16.4417 7.62741 16.0065C6.84159 15.5954 5.64473 15.4141 4.89518 15.6196ZM6.56353 17.6144C7.80875 18.1342 8.11099 19.7542 7.14383 20.7214C5.78981 22.0875 3.56534 20.8664 3.91593 18.9563C4.13355 17.8199 5.46339 17.1429 6.56353 17.6144Z" fill="#00B2B5"/>
<path d="M11.6083 21.4707C11.3786 21.5433 10.9071 21.8818 10.5807 22.2203C9.72237 23.0665 9.48058 23.9732 9.81908 25.1097C10.0125 25.7746 11.0159 26.778 11.6809 26.9714C12.8173 27.3099 13.724 27.0682 14.5703 26.2098C15.755 25.0371 15.7913 23.5259 14.667 22.2807C13.8812 21.4103 12.7568 21.108 11.6083 21.4707ZM13.2404 23.5501C13.8449 24.1425 13.4218 25.1822 12.5755 25.1822C12.0798 25.1822 11.6083 24.7107 11.6083 24.215C11.6083 23.7194 12.0798 23.2479 12.5755 23.2479C12.8052 23.2479 13.0591 23.3567 13.2404 23.5501Z" fill="#00B2B5"/>
</svg>
