<svg width="60" height="60" viewBox="0 0 60 60" fill="none" xmlns="http://www.w3.org/2000/svg">
<path d="M17.0801 0.11853C16.1535 0.400047 15.5083 1.16249 15.4028 2.12435C15.3676 2.40587 15.262 4.91608 15.1564 7.69609L14.9805 12.7634L17.4555 23.3439C18.8279 29.1619 19.9071 33.9477 19.8719 33.9947C19.825 34.0299 19.4965 34.1002 19.1212 34.1472C18.7575 34.1941 18.2649 34.2645 18.042 34.2996L17.6314 34.3818L14.9336 27.8364C13.4556 24.2471 12.1301 21.1504 12.0011 20.9509C11.6257 20.3879 11.1917 20.1416 10.5114 20.0947C9.92486 20.0477 9.60815 20.165 5.49094 21.8659C3.07456 22.8747 0.96317 23.7896 0.79895 23.9186C0.634731 24.0359 0.411862 24.294 0.282832 24.5051C-0.198096 25.338 -0.209826 25.3028 3.77836 34.9213C5.81938 39.8362 7.48503 43.9065 7.48503 43.9651C7.48503 44.0238 7.19178 44.1059 6.82815 44.1528C4.84579 44.3874 2.76958 45.6425 1.5614 47.3316C0.0247728 49.49 -0.409236 52.1292 0.400132 54.5221C0.84587 55.8476 1.31507 56.5983 2.37077 57.6657C3.42646 58.7214 4.15372 59.1789 5.54959 59.6716L6.48798 60H29.9479H53.4078L54.3462 59.6833C56.9151 58.7918 58.7919 56.8681 59.5895 54.311C59.9414 53.1732 59.9649 51.0031 59.6364 49.9122C59.2494 48.5985 58.5338 47.402 57.572 46.4519C56.1761 45.0678 54.5926 44.2936 52.8096 44.1176C52.3404 44.0707 51.9299 44.0121 51.8947 43.9769C51.8595 43.9417 51.8947 43.3904 51.9651 42.757C52.0589 41.8772 52.0472 41.2438 51.9416 40.2233L51.8008 38.8626L53.6424 34.4169C54.6629 31.9771 55.8477 29.0915 56.2934 28.0124C57.3256 25.4787 57.9708 24.3292 59.2963 22.6283C60.1291 21.5492 60.1408 21.772 59.0265 16.9158C58.4048 14.2531 57.9473 12.5288 57.83 12.3881C57.5368 12.0714 57.1497 11.9541 56.7861 12.0948C56.27 12.2825 49.6894 16.4232 49.2789 16.8103C49.056 17.0214 48.8683 17.3264 48.8449 17.5258C48.2936 21.0917 48.1997 21.4319 46.3464 25.9127C45.5253 27.8834 44.8567 29.5138 44.845 29.5256C44.8332 29.549 44.3875 29.3731 43.8362 29.1385C43.2966 28.9156 42.5107 28.6223 42.0884 28.5168C41.1969 28.2704 41.2439 28.5754 41.5488 25.5491C41.6544 24.3996 41.76 22.3703 41.76 20.9744L41.7717 18.4759L42.2878 17.7487C44.4461 14.6989 44.8567 10.7224 43.3787 7.16824C42.4403 4.88089 40.587 2.34722 38.6515 0.681568C37.7601 -0.0926094 37.373 -0.174721 36.8569 0.271019C36.5167 0.575996 36.4932 0.728485 36.634 2.05397C36.7513 3.1214 36.5871 3.90731 35.9888 5.10376C35.4493 6.19465 34.4522 7.55533 33.0094 9.19752C31.4963 10.9218 31.0623 11.9071 31.0623 13.6784C31.0623 15.0742 31.5315 16.4232 32.4816 17.6666L32.8452 18.1592L32.5989 19.9539C32.2235 22.7926 32.118 24.2705 32.118 27.0623V29.6546L31.6136 29.9478C31.332 30.112 30.7807 30.4991 30.3702 30.7924C29.9714 31.0974 29.6312 31.332 29.6077 31.3085C29.596 31.285 28.5169 26.6634 27.2031 21.0565C25.9011 15.4379 24.7281 10.6168 24.599 10.3236C24.4583 10.0303 23.297 7.83685 22.0067 5.45566C19.5317 0.869247 19.1798 0.364857 18.3235 0.13026C17.7957 -0.0105019 17.5259 -0.0222321 17.0801 0.11853ZM18.9569 4.0598C19.5434 5.15068 20.0361 6.07735 20.0361 6.12427C20.0361 6.17119 19.8132 6.35887 19.5434 6.53482C19.1212 6.81634 18.9452 6.86326 18.171 6.86326H17.2796L17.3265 4.57592C17.3617 2.37068 17.432 1.93667 17.737 2.03051C17.8074 2.05397 18.3587 2.95718 18.9569 4.0598ZM39.9653 5.10376C41.1031 6.74596 41.9359 8.78697 42.2175 10.5817C42.5107 12.4936 41.7834 15.1212 40.458 16.8806L40.2351 17.1622L37.2674 16.9862L34.2997 16.8103L34.0182 16.4701C33.8657 16.2824 33.5959 15.8367 33.4317 15.4848C33.1619 14.9335 33.115 14.6871 33.115 13.7839C33.115 12.3881 33.3731 11.8485 34.9214 10.0303C36.9507 7.6609 38.3231 5.37355 38.5225 4.01288L38.5929 3.49676L39.0034 3.89558C39.2146 4.10672 39.6486 4.64629 39.9653 5.10376ZM21.9246 9.5025C22.3704 10.3119 22.7223 11.0509 22.734 11.1447C22.734 11.8368 21.6314 13.2092 20.7868 13.5611C19.7663 13.9951 18.1828 13.6197 17.3734 12.7634L16.9863 12.3646L17.0684 10.6403L17.1388 8.916H18.0655C19.0508 8.916 20.0244 8.64621 20.5991 8.22393C20.7751 8.09491 20.9628 8.00106 21.0214 8.01279C21.0801 8.03625 21.4906 8.70486 21.9246 9.5025ZM25.7134 23.4729C26.9098 28.6106 27.8952 32.8921 27.8952 32.9859C27.8952 33.0797 27.6136 33.5841 27.2617 34.1002C26.9216 34.6164 26.6049 35.1207 26.5814 35.2029C26.5462 35.2967 26.4993 35.3436 26.4641 35.3084C26.4289 35.2732 25.772 32.505 24.9861 29.1619C23.8483 24.294 23.5082 23.0154 23.297 22.7926C22.7692 22.2295 21.6783 22.6166 21.6783 23.3791C21.6783 23.5902 22.2413 26.1708 22.9217 29.1267C23.6137 32.071 24.1533 34.5108 24.1181 34.546C24.0712 34.5929 22.1475 34.1589 22.0536 34.0768C21.995 34.0181 17.6901 15.5669 17.737 15.52C17.7605 15.4965 18.0772 15.5552 18.4643 15.6607C18.8396 15.7546 19.2971 15.8367 19.4731 15.8367C19.8367 15.8367 19.8132 15.8015 20.2942 17.8894C20.5991 19.2266 20.8455 19.5903 21.4789 19.5903C21.9129 19.5903 22.3469 19.2618 22.4407 18.8513C22.4877 18.6988 22.3469 17.9012 22.1592 17.0801C21.9598 16.2472 21.7956 15.5082 21.7956 15.4261C21.7956 15.344 21.9363 15.215 22.124 15.1446C22.3 15.0742 22.6871 14.8044 22.9686 14.5581C23.2618 14.3001 23.5082 14.1124 23.5082 14.1241C23.5199 14.1241 24.5169 18.3352 25.7134 23.4729ZM54.182 17.432C53.2788 19.6137 53.2553 20.1181 54.053 20.3879C54.5222 20.5521 55.0618 20.3644 55.2729 19.9539C55.4137 19.6958 56.2817 17.6079 56.657 16.6578C56.7743 16.3763 56.7743 16.3763 56.8682 16.5991C56.9151 16.7282 57.1732 17.7956 57.4429 18.9686L57.9356 21.1152L57.5368 21.6078C56.9268 22.3703 56.1409 23.6254 55.531 24.8336C54.9914 25.9127 54.9914 25.9127 54.3814 26.1004C53.5721 26.335 52.9386 26.3233 52.0237 26.0418C51.1205 25.7602 50.1586 24.9626 49.7129 24.1415L49.4431 23.6371L49.8654 22.3468C50.2525 21.1269 50.5457 19.8366 50.7099 18.6519L50.7921 18.124L52.7979 16.8689C53.9005 16.1768 54.8272 15.6373 54.8506 15.6607C54.8741 15.6842 54.5691 16.4818 54.182 17.432ZM38.6398 19.0859L39.7072 19.1563L39.7776 19.8249C39.8128 20.2002 39.8011 20.8454 39.7776 21.2794L39.7072 22.0536L38.112 22.0418C36.458 22.0301 34.3936 21.8307 34.417 21.6665C34.417 21.6196 34.4991 20.9627 34.5812 20.212L34.7337 18.8513L36.1531 18.9334C36.9272 18.9686 38.0533 19.039 38.6398 19.0859ZM10.7577 22.9568C10.9571 23.4494 11.1096 23.86 11.0861 23.8834C11.0744 23.8952 10.2064 24.2588 9.15069 24.6928C7.05102 25.5608 6.71085 25.8306 6.82815 26.4523C6.91026 26.8629 7.39119 27.332 7.73136 27.332C7.87212 27.332 8.85744 26.9684 9.93659 26.5227L11.9072 25.725L12.2709 26.6048C12.4703 27.0974 12.611 27.5197 12.5876 27.5666C12.5641 27.6136 12.2826 27.7426 11.9776 27.8599C10.5231 28.3995 10.1829 28.6927 10.1829 29.3379C10.1829 29.6546 10.8046 30.2645 11.1213 30.2645C11.2621 30.2645 11.8251 30.0769 12.3764 29.854C12.9277 29.6194 13.3969 29.4552 13.4204 29.4669C13.5025 29.549 14.1828 31.2264 14.1476 31.2616C14.1242 31.285 13.2679 31.6487 12.2357 32.071C11.2034 32.505 10.2533 32.9624 10.136 33.0797C9.77237 33.4316 9.81929 34.1002 10.2298 34.4404C10.4058 34.5929 10.6756 34.7219 10.8163 34.7219C10.9688 34.7219 11.9307 34.3818 12.9395 33.9595C13.9482 33.5372 14.8397 33.2088 14.8984 33.2205C15.0274 33.2674 15.696 34.7688 15.696 35.0152C15.696 35.0973 15.5318 35.2263 15.3324 35.3084C15.133 35.3905 14.6403 35.6721 14.2532 35.9301C12.0949 37.326 10.5466 39.2966 9.65507 41.7834C9.45566 42.3699 9.24452 42.8039 9.22106 42.7452C9.18587 42.6866 7.55541 38.7922 5.60824 34.0768C2.76958 27.2382 2.08925 25.5022 2.21828 25.4201C2.40596 25.3028 10.2064 22.0653 10.312 22.0536C10.3589 22.0536 10.5583 22.4641 10.7577 22.9568ZM38.0768 24.0477L39.6251 24.0594V24.552C39.6251 24.8218 39.543 25.6781 39.4492 26.4523C39.3553 27.2265 39.2732 27.8951 39.2732 27.942C39.2732 28.0007 38.8861 28.0358 38.4287 28.0358C37.1618 28.0358 35.9771 28.2353 34.3818 28.6927L34.112 28.7631V26.6752C34.112 25.5139 34.1472 24.3878 34.1824 24.165L34.2528 23.7427L35.3789 23.8952C36.0123 23.9773 37.2205 24.0477 38.0768 24.0477ZM50.0413 27.3438C50.839 27.8482 52.27 28.2704 53.185 28.2704C53.5955 28.2704 53.9357 28.3174 53.9357 28.3877C53.9357 28.5285 50.9915 35.6838 50.8742 35.8245C50.8272 35.8832 50.6278 35.6134 50.4402 35.238C49.7246 33.8304 48.4226 32.2234 47.0971 31.1326L46.5341 30.6634L47.4959 28.3526L48.4461 26.0418L48.9622 26.5109C49.2437 26.769 49.7246 27.1444 50.0413 27.3438ZM41.2908 30.3701C43.367 30.9097 45.1265 31.9067 46.5927 33.3612C48.2467 34.9917 49.3493 37.0679 49.8419 39.4726C50.0531 40.4931 50.0179 42.8156 49.7715 43.8713C49.4079 45.4079 49.4079 45.4666 49.795 45.8537L50.1352 46.1938L51.6014 46.1352C52.9386 46.0765 53.1263 46.0883 53.8888 46.3581C55.9532 47.0736 57.3843 48.6571 57.877 50.7451C58.569 53.7127 56.8095 56.7743 53.8184 57.783C53.1967 57.9942 52.2935 58.0059 30.0066 58.0059C10.8046 58.0059 6.75777 57.9824 6.37068 57.8417C4.38832 57.1731 2.9338 55.8007 2.32385 54.006C1.22123 50.8272 3.01591 47.3082 6.22992 46.3229C6.89853 46.1117 7.21524 46.0883 8.22402 46.1469C8.8809 46.1821 9.61988 46.2408 9.85448 46.2877C10.2298 46.3463 10.3354 46.3111 10.6287 46.0179C10.9219 45.7364 10.9688 45.5721 11.0275 44.8097C11.2855 41.5136 13.2796 38.5459 16.2239 37.0796C19.2854 35.5548 22.6284 35.719 25.5961 37.5371C26.558 38.1236 26.9098 38.2175 27.2969 38.0063C27.4142 37.9477 27.8013 37.3025 28.165 36.5753C29.8423 33.1618 32.7983 30.898 36.4346 30.2059C37.678 29.9713 40.0943 30.0534 41.2908 30.3701Z" fill="#00B2B5"/>
<path d="M39.2131 8.93937C38.9316 9.19742 38.9199 9.25607 38.8847 10.7458L38.8612 12.2941L38.3099 13.3968C37.6765 14.6401 37.6179 15.0155 38.0401 15.426C38.697 16.0946 39.4595 15.6489 40.175 14.1827C40.7732 12.9745 40.9374 12.1065 40.8905 10.5816C40.8553 9.29126 40.8436 9.23261 40.5269 8.96283C40.1164 8.61093 39.612 8.5992 39.2131 8.93937Z" fill="#00B2B5"/>
<path d="M35.9298 32.1414C33.5017 32.634 31.2612 34.8275 31.0853 36.892C31.0384 37.4433 31.0618 37.5254 31.3551 37.7483C31.531 37.889 31.8243 38.0063 32.0002 38.0063C32.3521 38.0063 32.9386 37.6075 32.9386 37.3729C32.9386 37.2908 33.1263 36.8451 33.3609 36.3876C34.0295 35.0387 34.9914 34.3701 36.657 34.0768C37.6658 33.9009 37.9825 33.6545 37.9825 33.0798C37.9825 32.5871 37.8769 32.3877 37.5016 32.2C37.1497 32.0123 36.6687 32.0006 35.9298 32.1414Z" fill="#00B2B5"/>
<path d="M16.9646 39.4139C15.991 39.9183 14.9471 40.9388 14.5248 41.7951C14.0908 42.6983 13.9031 43.8948 14.1142 44.4226C14.5248 45.4197 15.8034 45.1616 15.991 44.0355C16.2256 42.6279 16.7652 41.8068 17.8209 41.2438C18.1728 41.0561 18.5716 40.7981 18.7241 40.669C19.3106 40.1295 18.8414 39.0503 18.0203 39.062C17.8092 39.0738 17.34 39.2262 16.9646 39.4139Z" fill="#00B2B5"/>
<path d="M28.8439 44.2936C26.0991 45.0326 24.1754 47.7422 24.41 50.5339C24.5742 52.5632 25.4539 53.5368 26.4275 52.7743C26.709 52.5515 26.7325 52.4576 26.6856 51.9767C26.6504 51.6835 26.5683 51.2025 26.4862 50.9093C26.017 49.1498 27.1665 46.9915 28.926 46.3346C29.4656 46.1235 29.7823 46.0883 30.5917 46.1235C32.0814 46.1938 32.9846 46.7569 33.9112 48.1645C34.4625 49.009 34.7441 49.0559 35.788 48.5281C36.7147 48.0472 37.4654 47.9651 38.3452 48.2348C38.9082 48.3991 39.6355 49.009 39.9874 49.5955C40.3393 50.182 40.5387 50.3228 41.0313 50.3228C41.5944 50.3228 41.9697 49.9357 41.9697 49.3727C41.9697 48.5281 40.656 47.0501 39.4126 46.4871C38.4977 46.0648 36.8085 45.9827 35.8936 46.2994L35.2836 46.5105L34.5447 45.8067C33.0432 44.3405 30.8263 43.754 28.8439 44.2936Z" fill="#00B2B5"/>
</svg>
