<svg width="70" height="60" viewBox="0 0 70 60" fill="none" xmlns="http://www.w3.org/2000/svg">
<path d="M39.0444 0.204781C37.802 0.873722 37.6109 1.36519 37.6109 3.89079C37.6109 5.84301 37.6109 5.88396 37.9659 6.23891C38.2389 6.51195 38.3891 6.56656 38.744 6.49829C39.5222 6.33447 39.5904 6.1843 39.6587 4.05461L39.727 2.11604L41.3515 2.07509C42.4164 2.04778 43.0307 2.08874 43.1536 2.19795C43.3038 2.32082 43.3447 2.97611 43.3447 5.51536C43.3447 9.02389 43.4403 9.67918 44.2048 11.1126C44.7645 12.1911 46.3072 13.7338 47.3857 14.3072C49.529 15.4266 52.314 15.4266 54.4573 14.3072C55.5631 13.7201 57.1195 12.1775 57.6382 11.1263C58.4573 9.50171 58.5392 9.09215 58.6212 5.46075L58.7031 2.11604L60.3276 2.07509C61.3652 2.04778 62.0068 2.08874 62.1024 2.1843C62.1979 2.27987 62.2799 4.01365 62.3208 7.34471L62.3891 12.3549L62.7577 13.1331C63.4676 14.6485 65.0102 15.8498 66.5256 16.041C67.9181 16.2184 67.7816 15.959 67.7816 18.4846V20.7099L59.372 24.7509L50.9625 28.7918L44.1229 25.5154C40.3549 23.6997 36.5461 21.884 35.6724 21.4608L34.0614 20.7099V18.5666C34.0614 17.0102 34.1024 16.3823 34.2389 16.273C34.3208 16.2048 34.7167 16.1092 35.0853 16.0819C36.1911 15.9864 37.3788 15.3584 38.2116 14.4573C39.2082 13.3925 39.5358 12.4915 39.6314 10.6894C39.686 9.33789 39.686 9.29693 39.3447 8.95563C38.8942 8.50512 38.3072 8.49147 37.9249 8.90102C37.6928 9.16041 37.6246 9.4471 37.5836 10.5119C37.5154 11.9317 37.2696 12.6007 36.5597 13.2696C36.1092 13.7065 35.3038 14.0614 34.8123 14.0614C33.5427 14.0614 32.4369 14.8259 32.1638 15.9044C32.0546 16.314 32.0136 19.9317 32.0136 27.4812V38.4437L29.4334 39.9863L26.8532 41.5154L26.0205 41.2287C25.2696 40.9829 24.8601 40.9556 21.7065 40.9556H18.2253V32.0956V23.2218L21.9522 23.1809L25.6655 23.1399L26.4164 22.7577C27.4539 22.2253 28.3686 21.2833 28.8191 20.2867C29.1468 19.5904 29.2014 19.2628 29.215 18.2935C29.215 17.256 29.1741 17.0375 28.7782 16.2321C27.9181 14.4983 26.4437 13.5427 24.4369 13.4198L23.3038 13.3379L23.2491 12.273C23.1672 10.8805 22.6621 9.84301 21.7201 9.13311C20.9693 8.55973 20.273 8.32765 19.0853 8.21843L18.2253 8.15017V6.8942C18.2253 5.8157 18.1843 5.56997 17.9249 5.18771C17.256 4.21843 17.0921 4.16383 14.6075 4.16383C12.1229 4.16383 11.959 4.21843 11.2901 5.18771C11.0307 5.56997 10.9898 5.8157 10.9898 6.8942V8.15017L9.93857 8.24574C7.49488 8.45051 6.10239 9.87031 5.96587 12.2457L5.89761 13.3788H5.06485C3.52218 13.3788 2.79863 13.7747 2.79863 14.6212C2.79863 14.8123 2.9215 15.0853 3.05802 15.2082C3.30375 15.4266 4.04096 15.4539 13.9795 15.4266C21.3652 15.4266 24.8191 15.4676 25.2014 15.5631C25.9659 15.7679 26.8532 16.6826 27.0853 17.5017C27.4676 18.8396 26.8532 20.2184 25.5973 20.8464L24.9966 21.1604H14.6485C3.33106 21.1604 3.75427 21.1877 2.88055 20.3686C2.29352 19.8089 1.97952 19.0307 1.97952 18.0478C1.97952 17.3925 1.92491 17.1468 1.70648 16.9283C1.36519 16.587 0.737201 16.5734 0.327645 16.9147C0.0273038 17.1604 0 17.2833 0 18.3208C0 19.7952 0.450512 20.8328 1.51536 21.843C2.82594 23.0853 2.98976 23.1263 7.27645 23.1809L10.9898 23.2218V32.0819V40.942L7.2628 40.9829C3.56314 41.0239 3.54949 41.0239 2.77133 41.3925C1.80205 41.843 0.887372 42.7713 0.382253 43.7952C0.0682594 44.4642 0.0136519 44.7509 0 45.802C0 46.8532 0.0546075 47.1399 0.354949 47.7952C1.25597 49.7065 3.00341 50.7713 5.22867 50.785H5.93857V51.6724C5.93857 53.2969 6.68942 54.6348 8.01365 55.3584C8.58703 55.6724 8.96928 55.7679 9.82935 55.8362L10.9215 55.9044L10.9898 57.2969C11.0717 58.8396 11.2355 59.2218 12.0956 59.727C12.5051 59.9727 12.8055 60 14.6075 60C16.4096 60 16.7099 59.9727 17.1195 59.727C17.9795 59.2218 18.157 58.8396 18.198 57.3242L18.2526 55.9727L19.0717 56.7235C19.5222 57.1468 20.2457 57.6655 20.6962 57.884C22.3891 58.744 21.3652 58.7167 42.6212 58.6758L61.9795 58.6348L62.7031 58.2253C63.5085 57.7884 63.9454 57.3242 64.4096 56.4642C64.6962 55.9317 64.7099 55.7133 64.7509 52.3413L64.7918 48.7782L65.6792 48.6962C66.157 48.6416 66.8259 48.4915 67.1672 48.3413C68.0136 47.959 68.942 47.058 69.3788 46.157L69.7611 45.3925L69.802 30.785C69.8293 17.6519 69.8157 16.1229 69.6246 15.6041C69.256 14.6485 68.314 14.0614 67.1536 14.0614C66.2799 14.0614 65.2969 13.4608 64.7509 12.587C64.4369 12.0819 64.4369 12.0273 64.3686 6.96246L64.3003 1.84301L63.959 1.24232C63.727 0.832767 63.413 0.532425 63.0171 0.313995C62.471 0.0273056 62.2389 0 60.4642 0C58.3754 0 57.9659 0.081913 57.3652 0.655293C56.6689 1.31058 56.6553 1.37884 56.5734 5.11946C56.5051 8.3413 56.4778 8.7372 56.2048 9.4198C55.5768 11.0171 54.1706 12.3549 52.6416 12.8328C49.9113 13.6928 47.1263 12.4642 45.8293 9.82935C45.4608 9.0785 45.4608 9.0512 45.3925 5.46075C45.3106 1.35154 45.256 1.09215 44.2594 0.436863C43.727 0.081913 43.6177 0.0682602 41.5836 0.0273056C39.8362 0 39.3857 0.0273056 39.0444 0.204781ZM16.1775 7.16724V8.19113H14.6075H13.0375V7.16724V6.14334H14.6075H16.1775V7.16724ZM20.2321 10.5666C20.8601 10.9488 21.2287 11.6997 21.2287 12.6143V13.3788H14.6075H7.98635V12.6143C7.98635 11.3993 8.46416 10.6894 9.4744 10.3618C9.66553 10.3072 12.0683 10.2662 14.8123 10.2799C19.4539 10.3072 19.8225 10.3208 20.2321 10.5666ZM42.4027 26.9625C46.8669 29.1058 50.6348 30.8942 50.7986 30.9352C50.9898 30.9898 53.7747 29.7201 59.3584 27.0444C63.9181 24.8601 67.6724 23.0717 67.7133 23.0717C67.7543 23.0717 67.7816 27.9317 67.7816 33.8567C67.7816 45.3788 67.7952 45.1741 67.1263 45.9249C66.785 46.3072 65.884 46.6894 65.2969 46.6894H64.7918L64.7509 41.7338C64.7099 36.942 64.6962 36.7782 64.4096 36.2321C63.9317 35.3311 63.4539 34.8532 62.6348 34.4573C61.9795 34.1297 61.6928 34.0751 60.7645 34.0751C58.9488 34.0887 58.3481 34.5119 57.4198 36.4915C56.4369 38.5666 54.8532 39.7816 52.6689 40.1638C49.9932 40.6143 47.2491 39.1263 46.0341 36.5597C44.9966 34.3891 44.3959 34.0614 41.5017 34.0614C39.2491 34.0751 39.413 34.0205 36.3959 35.8362C35.1945 36.5461 34.1843 37.1331 34.1433 37.1331C34.1024 37.1331 34.0614 33.9659 34.0614 30.1024C34.0614 26.2389 34.116 23.0717 34.1843 23.0717C34.2389 23.0717 37.9386 24.8191 42.4027 26.9625ZM16.1775 32.0819V40.9556H14.6075H13.0375V32.0819V23.2082H14.6075H16.1775V32.0819ZM43.1945 36.1911C43.5495 36.314 43.727 36.5461 44.2321 37.5427C45.6246 40.314 48.1911 42.0478 51.2218 42.2662C53.2014 42.4164 55.6451 41.5973 57.1741 40.2594C57.9932 39.5495 58.9625 38.198 59.372 37.1741C59.7543 36.2321 60.0956 36 60.9283 36.0956C61.7474 36.2048 62.2526 36.5051 62.5119 37.0512C62.7031 37.4608 62.7304 38.2935 62.7304 44.1502V50.785H55.6587H48.587L46.8259 48.2457C45.8567 46.8396 44.9283 45.6382 44.7509 45.5563C44 45.215 43.1399 46.0341 43.4266 46.785C43.5085 46.9898 44.1092 47.9317 44.7509 48.8601C45.4061 49.7884 45.9386 50.6075 45.9386 50.6621C45.9386 50.7304 45.4198 50.785 44.7918 50.785H43.6451L40.5734 46.3618C38.8669 43.9317 37.4744 41.8703 37.4471 41.7747C37.4061 41.6246 38.744 40.6826 38.9898 40.6826C39.0307 40.6826 39.5768 41.4198 40.2048 42.3208C41.3515 43.959 41.5973 44.1775 42.2526 44.0683C42.6894 44.0137 43.1263 43.3857 43.0307 42.9761C42.9761 42.8123 42.4573 41.9522 41.843 41.0922C41.2423 40.2457 40.7509 39.4676 40.7509 39.372C40.7509 39.2901 40.8328 39.1399 40.942 39.058C41.256 38.785 41.57 37.6928 41.57 36.8328V36.041H42.1706C42.4846 36.041 42.9488 36.1092 43.1945 36.1911ZM39.3174 37.7474C39.1536 38.0751 37.843 38.9215 33.4334 41.57C30.3072 43.4403 27.5904 44.9966 27.3857 45.0239C26.9352 45.0922 26.1024 44.6962 26.1843 44.4642C26.2116 44.3686 29.215 42.5119 32.8464 40.3276L39.4539 36.3686L39.4949 36.8464C39.5222 37.1195 39.4539 37.5154 39.3174 37.7474ZM38.3481 46.7577C39.8225 48.8601 41.0239 50.6212 41.0239 50.6758C41.0239 50.744 40.5188 50.785 39.8908 50.785H38.7577L36.3276 47.2901C34.5939 44.7918 33.9386 43.7543 34.0478 43.6451C34.3345 43.3584 35.4949 42.744 35.5904 42.8396C35.6451 42.8942 36.8874 44.6553 38.3481 46.7577ZM24.1638 43.1263C24.0819 43.1809 23.0307 43.8225 21.8294 44.5461C20.1092 45.57 19.4403 46.0614 18.7986 46.744C17.9113 47.6997 17.2696 48.8737 16.9966 50.0887C16.8328 50.8123 16.8737 52.8191 17.0785 53.4744L17.1604 53.7884H13.2014H9.24232L8.80546 53.4334C8.20478 52.9283 7.98635 52.4096 7.98635 51.5358V50.785H10.9215C14.0205 50.785 14.4027 50.7167 14.6621 50.1433C14.8669 49.6792 14.8532 49.5017 14.5529 49.1331L14.2935 48.8055L9.18771 48.7372L4.09556 48.6689L3.48123 48.3276C1.8157 47.3857 1.48805 45.1331 2.83959 43.8635C3.78157 42.9625 3.08532 43.0171 14.198 43.0034C19.7816 43.0034 24.2321 43.058 24.1638 43.1263ZM34.116 47.6997C35.2082 49.2696 36.1092 50.6075 36.1092 50.6758C36.1092 50.7304 35.5904 50.785 34.9625 50.785H33.8157L32.0819 48.314C31.1399 46.9625 30.3754 45.8294 30.4027 45.802C30.5119 45.6928 32.0683 44.7918 32.0956 44.8191C32.1092 44.8328 33.0239 46.1297 34.116 47.6997ZM25.6382 46.7031C26.3072 47.0444 27.413 47.1809 28.0819 46.9898L28.5734 46.8532L29.884 48.7372C30.6075 49.7747 31.1945 50.6621 31.1945 50.7031C31.1945 50.744 28.4642 50.785 25.1195 50.785H19.0444V50.471C19.0444 49.9659 19.7952 48.587 20.3686 48.0273C20.6553 47.7543 21.6519 47.058 22.5666 46.4983L24.2594 45.4744L24.6826 45.9522C24.901 46.2116 25.3379 46.5529 25.6382 46.7031ZM62.7031 54.198L62.6621 55.5631L62.1433 56.0683L61.6382 56.587H42.1433H22.6621L21.884 56.2184C20.6553 55.6451 19.4949 54.3481 19.1263 53.1331L19.0307 52.8328H40.8874H62.7577L62.7031 54.198ZM16.1775 56.9283V58.0205H14.6075H13.0375V56.9283V55.8362H14.6075H16.1775V56.9283Z" fill="#00B2B5"/>
<path d="M48.7056 18.1841C47.9274 18.5663 48.0503 19.7404 48.9103 19.9998L49.3472 20.1226V21.8701C49.3472 23.3581 49.3199 23.6175 49.1424 23.6175C48.8011 23.6175 48.2551 24.2591 48.2551 24.6414C48.2551 24.8325 48.4052 25.1465 48.5964 25.324C48.9103 25.6516 49.0196 25.6653 50.4394 25.6653C51.8592 25.6653 51.9684 25.6516 52.2824 25.324C52.4735 25.1465 52.6237 24.8325 52.6237 24.6414C52.6237 24.2182 52.0639 23.6175 51.668 23.6175C51.4086 23.6175 51.395 23.5492 51.395 21.324C51.395 18.8257 51.3404 18.6209 50.5759 18.225C50.1254 17.9929 49.1424 17.9656 48.7056 18.1841Z" fill="#00B2B5"/>
</svg>
