<svg width="61" height="60" viewBox="0 0 61 60" fill="none" xmlns="http://www.w3.org/2000/svg">
<path d="M28.0765 0.119164C27.4082 0.48262 27.2792 1.11574 27.6661 2.04198C28.4048 3.76548 28.6041 5.93451 28.1468 7.37662C27.7716 8.56079 27.1502 9.39323 25.3916 11.0464C23.8205 12.5237 22.777 13.6961 22.097 14.7162C21.9211 14.9975 21.7452 15.2203 21.6983 15.2203C21.6632 15.2203 21.499 14.8334 21.3466 14.3644C20.9597 13.1451 20.0569 11.3395 19.2362 10.1202C18.392 8.85391 16.7623 6.96626 16.2582 6.6497C15.7189 6.32142 15.1678 6.35659 14.7809 6.7435C14.4643 7.07178 14.4643 7.09523 14.3236 9.4753C14.0774 13.6375 13.585 15.6541 11.9318 19.3825C10.1966 23.2868 9.89179 24.6468 9.99731 28.1524C10.0677 30.6028 10.2435 31.7167 10.9118 33.7216C11.1111 34.3312 11.2518 34.8354 11.2284 34.8588C11.2049 34.8823 10.7946 34.8002 10.3139 34.6712C9.27039 34.4016 7.60551 34.3781 6.67928 34.6243C5.4951 34.9409 4.56887 35.4919 3.61919 36.4299C2.21225 37.8368 1.63775 39.2086 1.63775 41.1666C1.63775 43.1246 2.21225 44.5081 3.59574 45.9267C4.06472 46.4074 4.42818 46.8061 4.41645 46.8178C4.40473 46.8295 4.09989 46.9702 3.74815 47.1461C2.02465 47.9668 0.641165 49.7489 0.172185 51.6952C-0.671978 55.2829 1.67292 58.9761 5.34269 59.8437C6.91377 60.2072 7.04274 60.1837 19.0252 56.9712L30.011 54.0284L35.0291 55.365C37.7843 56.1036 42.7321 57.4285 46.0149 58.3078C52.6041 60.0782 53.2021 60.1837 54.6793 59.8437C56.0394 59.5272 56.9187 59.0113 57.9739 57.9561C58.6657 57.2761 59.0291 56.7953 59.3105 56.2091C60.5768 53.5711 60.0843 50.5227 58.0677 48.471C57.5049 47.8965 56.2387 46.9937 55.9925 46.9937C55.5235 46.9819 55.6173 46.7592 56.4263 45.9385C57.8098 44.5081 58.3843 43.1246 58.3843 41.1666C58.3843 39.2086 57.8098 37.8368 56.4028 36.4299C55.4532 35.4919 54.5269 34.9409 53.3427 34.6243C52.4165 34.3781 50.7516 34.4016 49.7082 34.6712C49.2275 34.8002 48.8171 34.894 48.8054 34.8706C48.7819 34.8471 48.9226 34.343 49.1219 33.7567C49.5206 32.5139 49.8957 30.7787 50.013 29.5711C50.0833 28.7621 50.0716 28.7269 49.7316 28.34C49.2626 27.8241 48.5826 27.789 48.1136 28.2579C47.844 28.5159 47.7736 28.7621 47.586 30.0166C47.3398 31.6111 46.8591 33.2995 46.226 34.7533L45.8156 35.7147L43.7404 36.2658C42.6031 36.5706 41.3251 36.9106 40.8913 37.0279L40.0941 37.2506L40.1058 35.8789C40.1058 34.1202 39.9886 33.5809 39.1561 31.576C38.4292 29.8407 38.1009 28.5628 38.0892 27.4489C38.0775 26.2648 37.925 25.6434 37.585 25.3385C37.2099 25.022 36.5885 24.9868 36.1664 25.2565C35.7326 25.5379 34.6656 26.9096 34.1849 27.789L33.7511 28.5628L32.7311 27.5076C32.1683 26.9331 31.6524 26.3234 31.5704 26.1475C31.3476 25.6668 31.3945 24.7171 31.6642 23.9433C31.8635 23.3688 31.8752 23.1812 31.7814 22.8295C31.5235 21.9736 30.7731 21.8095 29.6827 22.3605C28.2758 23.0757 26.904 24.3185 26.2123 25.5379C25.9309 26.0303 25.9074 26.042 25.9074 25.7372C25.9074 25.2682 25.6261 24.7875 25.2626 24.6233C24.4653 24.2599 24.055 24.5178 23.0349 26.0537C20.7487 29.489 19.9162 32.0098 19.9162 35.5154V37.2389L18.4272 36.8403C17.6065 36.6175 16.3285 36.2775 15.5782 36.0782L14.2181 35.7147L13.7374 34.5892C12.7174 32.1739 12.307 30.1456 12.307 27.5193C12.307 24.7992 12.6001 23.6502 14.183 20.1094C15.6485 16.8031 16.1878 14.7982 16.5865 11.1871L16.6685 10.4953L17.3134 11.4802C18.6031 13.4616 19.3886 15.4196 19.8342 17.7762C19.9748 18.5383 20.1624 19.2653 20.2562 19.4059C20.5025 19.8046 21.1121 19.957 21.6046 19.7577C21.9446 19.617 22.1087 19.3825 22.6715 18.339C23.9143 15.9707 25.1922 14.341 27.1033 12.6644C29.4365 10.6126 30.4096 8.93598 30.7145 6.48556C30.82 5.62967 30.8083 5.04345 30.6441 3.98824L30.5855 3.58961L31.1483 3.97652C31.9807 4.55102 33.5635 6.1221 34.2201 7.00144C35.9084 9.31116 36.6705 11.6443 36.776 14.892C36.8464 17.0376 36.7291 18.3507 36.2953 20.1446C36.0022 21.3757 36.0374 21.8212 36.4947 22.1612C36.6353 22.2785 36.9636 22.3722 37.2333 22.3722C37.6671 22.3722 37.7726 22.3019 38.2533 21.7977C39.4844 20.4729 41.032 17.7059 41.7355 15.572C42.0755 14.5286 42.439 12.8754 42.6383 11.445L42.7321 10.765L43.4121 11.914C44.3383 13.4734 45.4991 15.8652 46.0032 17.2721C46.2377 17.9169 46.5191 18.6673 46.6129 18.9487C46.9998 19.9922 48.3598 20.0742 48.7702 19.0777C48.9578 18.6439 48.8523 18.1749 48.2426 16.5217C47.1522 13.5906 45.5108 10.6126 43.0838 7.13041C41.7355 5.21931 41.4072 4.99655 40.5748 5.43036C40.0003 5.72347 39.9182 6.1221 40.1527 7.65801C40.5044 10.0029 40.2934 12.465 39.5313 14.6927L39.2147 15.6307L39.1444 14.2823C38.7927 8.23251 35.4864 3.31995 29.8703 0.494347C28.8151 -0.0332565 28.4751 -0.103603 28.0765 0.119164ZM29.6476 27.5193C29.8 27.8124 30.3627 28.4807 30.8904 29.0083C32.18 30.2746 32.7663 31.4236 33.0008 33.2057C33.1063 33.9795 33.5635 34.4485 34.2084 34.4485C34.6774 34.4485 35.2753 34.0498 35.2988 33.7216C35.2988 33.6395 35.3222 33.0181 35.3457 32.3381C35.3691 31.4704 35.4512 30.8608 35.6388 30.2863L35.8967 29.4656L36.2836 30.638C36.4947 31.2829 36.8581 32.2208 37.0809 32.7132C37.6554 33.9443 37.7609 34.4016 37.7609 35.6678C37.7609 36.5237 37.6085 37.7196 37.4678 37.9306C37.4561 37.9424 35.7795 38.3996 33.7277 38.9507L30.011 39.9473L26.2943 38.9507C24.2426 38.3996 22.566 37.9424 22.5542 37.9306C22.4018 37.6844 22.2611 36.4299 22.2611 35.4099C22.2611 33.4988 22.5191 32.1974 23.2343 30.4856C23.4336 30.0049 23.6329 29.6649 23.6798 29.7235C23.7267 29.7704 23.8322 30.0283 23.9143 30.2863C24.137 30.978 24.6998 32.0684 25.2391 32.8422C26.013 33.956 26.693 34.1554 27.3847 33.4636C27.8303 33.0181 27.8537 32.8657 27.6075 31.9043C27.373 31.0015 27.373 29.0435 27.6192 28.2228C27.8537 27.4255 28.2641 26.6165 28.6744 26.1358L28.991 25.7489L29.1903 26.382C29.2958 26.722 29.5069 27.2379 29.6476 27.5193ZM13.9485 38.0713C16.563 38.7631 20.1507 39.7245 21.9211 40.1935C23.6915 40.6624 25.1805 41.0845 25.2391 41.1314C25.286 41.1666 23.9377 41.577 22.2377 42.0342L19.1424 42.8549L14.8278 41.7059C12.4594 41.0611 10.3959 40.5452 10.2435 40.5452C10.0911 40.5452 9.79799 40.6976 9.58695 40.8852C9.27039 41.1666 9.20004 41.3073 9.20004 41.7177C9.20004 42.5501 9.52833 42.7377 12.1663 43.4177C13.3974 43.7343 14.4174 44.0274 14.4174 44.0626C14.4174 44.0977 13.034 44.4964 11.3456 44.9536L8.26208 45.7743L7.41792 45.5164C5.90546 45.0591 5.03785 44.3791 4.36955 43.1011C4.06472 42.5266 4.04127 42.3742 4.04127 41.1901C4.04127 40.0059 4.06472 39.8535 4.36955 39.279C5.22544 37.661 6.58548 36.8051 8.32071 36.8051C9.0828 36.7934 9.86834 36.9692 13.9485 38.0713ZM53.5538 37.192C54.4331 37.6375 55.1131 38.3058 55.5821 39.1617C55.969 39.8769 55.9808 39.9473 55.9808 41.1901C55.9808 42.4328 55.969 42.5032 55.5821 43.2184C55.1131 44.086 54.3628 44.8012 53.5421 45.1764C53.2021 45.3288 50.7751 46.044 48.1254 46.7475C45.4873 47.4509 37.3857 49.62 30.1283 51.5662C22.8708 53.5125 16.0706 55.3298 15.0154 55.6229C13.9485 55.9043 13.0691 56.1153 13.0457 56.0919C13.0222 56.0684 13.1043 55.7167 13.245 55.3181C14.1126 52.7387 13.1981 49.6082 11.0877 47.9434C10.7946 47.7089 10.6891 47.5682 10.7946 47.533C10.8884 47.4978 16.8913 45.8798 24.1488 43.9453C43.3535 38.7983 45.886 38.1182 48.4185 37.4265C50.5523 36.8403 50.7751 36.8051 51.8186 36.8285C52.7682 36.8637 53.0262 36.9106 53.5538 37.192ZM8.73106 49.2096C9.62212 49.6434 10.4546 50.511 10.8766 51.4255C11.3105 52.3518 11.3222 53.8642 10.9118 54.9077C10.5249 55.8691 9.45798 56.936 8.49657 57.3112C7.51172 57.7099 6.08133 57.7099 5.09647 57.3112C4.13506 56.936 3.06813 55.8691 2.69295 54.9077C2.30604 53.9346 2.29432 52.4925 2.68123 51.5428C3.15021 50.3469 4.35783 49.2682 5.61235 48.9048C6.51513 48.6468 7.86345 48.7875 8.73106 49.2096ZM55.16 49.2096C56.098 49.6669 56.9773 50.6165 57.3408 51.5428C57.7277 52.4925 57.716 53.9346 57.3291 54.9077C56.9539 55.8691 55.887 56.936 54.9256 57.3112C53.9524 57.6981 52.5103 57.7099 51.5606 57.323C50.6109 56.9478 49.6847 56.0802 49.2157 55.107C48.864 54.3918 48.8288 54.2277 48.8288 53.2077C48.8288 52.2462 48.8757 52 49.1454 51.4255C49.7082 50.2179 50.822 49.2565 52.0413 48.9048C52.9441 48.6468 54.2924 48.7875 55.16 49.2096ZM47.1757 50.1358C46.3784 51.7304 46.226 53.7001 46.7653 55.3063C46.906 55.7167 46.9998 56.0684 46.9763 56.0919C46.9529 56.1153 45.757 55.8105 44.3032 55.4236C42.8611 55.0367 40.1996 54.3215 38.394 53.8408C36.5885 53.3601 35.0056 52.9263 34.8884 52.8794C34.7243 52.809 35.3808 52.5863 37.1747 52.1056C38.5582 51.7421 41.3955 50.9683 43.4942 50.3938C45.5929 49.831 47.3633 49.362 47.4336 49.3503C47.5157 49.3386 47.3984 49.702 47.1757 50.1358Z" fill="#9696A0"/>
<path d="M42.4379 42.4327C38.6626 43.4527 35.415 44.3672 35.2039 44.461C34.3832 44.8479 34.4653 46.0673 35.3329 46.4776C35.7081 46.6652 35.8488 46.6301 42.9655 44.7307C51.0203 42.5734 50.8209 42.6555 50.8209 41.7058C50.8209 41.3071 50.7506 41.1664 50.434 40.8851C50.1644 40.6506 49.9416 40.545 49.6719 40.5568C49.4726 40.5685 46.2132 41.4127 42.4379 42.4327Z" fill="#9696A0"/>
<path d="M24.269 47.2989C22.0414 47.8968 19.6965 48.5299 19.0516 48.7058C17.6447 49.0927 17.3516 49.3272 17.3516 50.0893C17.3516 50.5231 17.4102 50.6521 17.715 50.91C17.9261 51.0859 18.2192 51.2148 18.4185 51.2148C18.6061 51.2148 21.1503 50.5817 24.0697 49.7962C28.9236 48.5065 29.3926 48.3541 29.6975 48.0375C30.1195 47.5803 30.1195 47.0292 29.7092 46.5368C29.4512 46.2202 29.334 46.1733 28.865 46.185C28.5602 46.1968 26.4967 46.6892 24.269 47.2989Z" fill="#9696A0"/>
<path d="M48.2336 22.7825C47.5302 23.146 47.3778 24.0488 47.9405 24.6116C48.7495 25.4088 50.133 24.6702 49.8868 23.5681C49.7344 22.8294 48.9019 22.4425 48.2336 22.7825Z" fill="#9696A0"/>
</svg>
