<svg width="468" height="597" viewBox="0 0 468 597" fill="none" xmlns="http://www.w3.org/2000/svg">
<path d="M467.803 596.706H9.10547L71.1532 502.264H405.736L467.803 596.706Z" fill="#BD81CD"/>
<path d="M62.469 463.249C37.9125 450.16 24.5917 433.962 15.885 407.553C13.8193 401.298 12.6996 393.44 17.5259 388.942C22.6998 384.116 31.0976 386.452 37.314 389.791C48.7428 395.931 58.801 404.599 66.5617 415.004C76.5427 428.383 84.9019 446.125 101.331 449.059C102.837 449.33 104.458 449.426 105.79 448.692C109.806 446.472 107.2 440.41 104.651 436.569C99.9795 429.541 96.9485 421.452 95.8481 413.093C95.655 411.587 95.5199 409.985 96.1184 408.595C96.9871 406.568 99.2072 405.429 101.369 404.966C109.246 403.267 116.91 408.19 123.165 413.248C139.112 426.144 161.274 447.534 172.259 464.851" fill="white"/>
<path d="M225.189 317.398C202.544 310.486 182.177 296.355 167.794 277.57C160.941 268.613 155.284 258.207 154.57 246.933C154.165 240.62 156.617 232.859 162.833 231.701C167.331 230.871 171.54 233.959 174.976 236.99C199.262 258.497 217.467 286.779 226.966 317.803" fill="white"/>
<path d="M92.6938 347.224C81.0526 344.849 69.257 342.378 58.6776 336.973C48.0982 331.567 38.6964 322.783 35.1829 311.432C33.7929 306.933 33.484 301.682 36.206 297.841C39.6231 292.995 46.4958 292.145 52.384 292.976C64.8167 294.713 76.1104 302.049 83.9291 311.876C91.7478 321.702 96.2846 333.864 98.2923 346.259" fill="white"/>
<path d="M110.961 354.252C107.544 347.9 105.459 340.931 103.992 333.884C101.984 324.328 101.308 313.537 107.042 305.641C108.76 303.266 111.27 301.162 114.185 301.085C115.942 301.027 117.641 301.702 119.166 302.552C125.421 306.027 129.764 312.726 130.363 319.869C130.903 326.433 128.471 332.9 125.189 338.614C121.907 344.309 117.756 349.483 114.417 355.159" fill="white"/>
<path d="M128.433 371.993C121.02 370.275 113.549 368.537 105.942 368.46C98.3359 368.383 90.4978 370.082 84.4166 374.638C83.2969 375.468 82.1772 376.51 81.9455 377.9C81.7139 379.232 82.3703 380.565 83.1811 381.665C86.019 385.449 90.9033 387.283 95.6331 387.399C100.363 387.514 104.977 386.086 109.398 384.387C115.363 382.07 121.444 378.904 124.688 373.383" fill="white"/>
<path d="M155.183 391.647C152.828 384.812 150.454 377.882 149.797 370.681C149.141 363.48 150.338 355.854 154.585 349.985C155.125 349.232 155.782 348.48 156.67 348.19C157.732 347.862 158.89 348.286 159.875 348.846C163.871 351.144 166.303 355.526 167.577 359.947C170.821 371.125 167.577 383.944 159.431 392.245" fill="white"/>
<path d="M51.7969 306.818C55.3491 321.355 69.7509 330.332 81.006 338.71C93.4966 348.035 106.258 356.993 118.941 366.047C144.115 384.001 169.27 402.322 191.24 424.195C203.538 436.454 214.735 449.813 224.098 464.466C225.025 465.914 227.361 464.582 226.415 463.115C210.044 437.516 188.267 416.067 164.772 397.013C140.891 377.63 115.312 360.506 90.485 342.398C83.5157 337.321 76.4885 332.224 69.8088 326.78C63.0519 321.278 56.5267 314.849 54.4031 306.104C53.9784 304.405 51.3914 305.119 51.7969 306.818Z" fill="white"/>
<path d="M102.466 432.921C104.937 423.557 112.717 415.468 121.887 412.187C115.883 407.515 108.721 403.364 101.404 404.947C99.2418 405.41 97.0217 406.549 96.153 408.576C95.5545 409.966 95.6703 411.569 95.8827 413.075C96.7707 420.044 99.0488 426.801 102.466 432.921Z" fill="white"/>
<path d="M61.3762 453.964C52.3605 443.693 43.4993 432.786 36.781 420.836C32.3601 412.959 27.4758 402.804 30.4875 393.615C31.2211 391.395 32.3022 389.541 33.6149 388.036C28.055 385.796 21.7228 385.005 17.5142 388.904C12.6878 393.403 13.8076 401.26 15.8732 407.515C24.5993 433.925 37.92 450.122 62.4573 463.211L69.6968 463.308C66.8203 460.238 64.0596 457.014 61.3762 453.964Z" fill="white"/>
<path d="M211.403 287.995C214.298 292.242 217.426 296.335 220.592 300.37C215.013 287.281 207.831 274.848 199.298 263.438C198.101 269.848 209.067 284.559 211.403 287.995Z" fill="white"/>
<path d="M168.524 264.713C166.555 253.921 171.208 245.408 178.602 240.311C177.405 239.191 176.208 238.072 174.992 236.99C171.555 233.959 167.347 230.871 162.849 231.701C156.632 232.859 154.18 240.62 154.586 246.933C155.3 258.207 160.937 268.613 167.81 277.57C171.304 282.146 175.185 286.432 179.335 290.428C174.065 282.551 170.204 273.941 168.524 264.713Z" fill="white"/>
<path d="M85.0989 345.023C68.1101 340.177 50.8124 320.505 46.9514 303.42C46.1405 299.868 45.9475 296.296 46.2371 292.841C42.2408 293.227 38.4763 294.655 36.1982 297.86C33.4762 301.702 33.785 306.953 35.175 311.451C38.6886 322.803 48.0904 331.587 58.6698 336.992C69.2492 342.398 81.0448 344.869 92.686 347.243L98.2652 346.278C98.1687 345.699 98.0529 345.139 97.937 344.56C94.1725 346.22 89.5778 346.297 85.0989 345.023Z" fill="white"/>
<path d="M130.344 319.849C129.746 312.725 125.421 306.007 119.147 302.532C118.549 302.203 117.911 301.914 117.274 301.663C121.85 314.617 124.282 328.999 116.792 341.027C114.398 344.849 110.498 345.95 107.004 344.984C108.085 348.17 109.359 351.278 110.962 354.232L114.398 355.1C117.738 349.424 121.869 344.251 125.17 338.556C128.452 332.88 130.885 326.412 130.344 319.849Z" fill="white"/>
<path d="M94.1466 379.348C91.6948 377.456 89.4747 375.101 88.1812 372.321C86.8684 372.996 85.6136 373.749 84.4166 374.637C83.2969 375.468 82.1772 376.51 81.9455 377.9C81.7139 379.232 82.3703 380.564 83.1811 381.665C86.019 385.448 90.9033 387.283 95.6331 387.398C99.6486 387.495 103.587 386.472 107.371 385.12C102.699 384.232 98.2393 382.495 94.1466 379.348Z" fill="white"/>
<path d="M156.211 358.073C159.821 357.185 163.527 357.32 167.022 358.266C165.651 354.443 163.354 350.872 159.879 348.864C158.913 348.304 157.755 347.88 156.674 348.208C155.786 348.497 155.129 349.25 154.589 350.003C152.272 353.189 150.882 356.895 150.168 360.776C151.925 359.579 153.933 358.633 156.211 358.073Z" fill="white"/>
<path d="M408.36 463.247C432.917 450.158 446.238 433.96 454.944 407.551C457.01 401.296 458.13 393.438 453.303 388.94C448.13 384.114 439.732 386.45 433.515 389.79C422.087 395.929 412.028 404.597 404.268 415.002C394.287 428.381 385.927 446.123 369.499 449.057C367.993 449.328 366.371 449.424 365.039 448.69C361.023 446.47 363.63 440.408 366.178 436.567C370.85 429.539 373.881 421.45 374.981 413.091C375.174 411.585 375.309 409.983 374.711 408.593C373.842 406.566 371.622 405.427 369.46 404.964C361.583 403.265 353.919 408.188 347.664 413.246C331.718 426.142 309.555 447.532 298.57 464.849" fill="white"/>
<path d="M272.575 266.119C284.062 260.018 293.56 250.25 299.333 238.589C302.093 233.029 304.043 226.832 303.232 220.674C302.788 217.218 300.645 213.299 297.17 213.338C294.661 213.357 292.711 215.481 291.186 217.469C280.355 231.62 273.521 248.802 271.668 266.524" fill="white"/>
<path d="M378.149 347.222C389.791 344.848 401.586 342.376 412.166 336.971C422.745 331.565 432.147 322.781 435.66 311.43C437.05 306.932 437.359 301.681 434.637 297.839C431.22 292.993 424.347 292.144 418.459 292.974C406.026 294.711 394.733 302.047 386.914 311.874C379.095 321.7 374.559 333.863 372.551 346.257" fill="white"/>
<path d="M359.88 354.249C363.297 347.897 365.382 340.928 366.849 333.881C368.857 324.325 369.532 313.533 363.799 305.637C362.081 303.263 359.571 301.159 356.656 301.081C354.899 301.023 353.2 301.699 351.675 302.549C345.42 306.024 341.076 312.723 340.478 319.866C339.937 326.429 342.37 332.897 345.652 338.611C348.934 344.306 353.084 349.48 356.424 355.156" fill="white"/>
<path d="M342.414 371.99C349.827 370.272 357.299 368.534 364.905 368.457C372.511 368.38 380.349 370.079 386.43 374.635C387.55 375.465 388.67 376.507 388.902 377.897C389.133 379.23 388.477 380.562 387.666 381.662C384.828 385.446 379.944 387.28 375.214 387.396C370.484 387.512 365.87 386.083 361.449 384.384C355.484 382.067 349.403 378.901 346.159 373.38" fill="white"/>
<path d="M315.668 391.643C318.023 384.809 320.397 377.879 321.054 370.678C321.71 363.477 320.513 355.851 316.266 349.982C315.725 349.229 315.069 348.476 314.181 348.187C313.119 347.859 311.961 348.283 310.976 348.843C306.98 351.14 304.548 355.523 303.273 359.944C300.03 371.122 303.273 383.94 311.42 392.242" fill="white"/>
<path d="M416.437 306.082C414.564 313.785 409.236 319.731 403.367 324.789C397.537 329.828 391.224 334.346 385.046 338.921C372.614 348.11 359.949 356.991 347.362 365.968C322.555 383.69 297.863 401.915 276.337 423.633C264.407 435.68 253.557 448.788 244.406 463.094C243.479 464.561 245.796 465.912 246.723 464.445C263.383 438.383 285.739 416.722 309.755 397.436C334.061 377.918 360.046 360.62 385.143 342.164C391.938 337.164 398.869 332.222 405.259 326.701C411.475 321.334 417.035 314.944 419.024 306.816C419.429 305.117 416.842 304.403 416.437 306.082Z" fill="white"/>
<path d="M276.93 248.803C275.81 251.409 274.555 253.938 273.281 256.448C274.922 248.803 277.471 241.351 280.868 234.305C282.181 237.625 277.818 246.718 276.93 248.803Z" fill="white"/>
<path d="M297.586 231.736C297.509 225.712 294.111 221.6 289.594 219.631C290.115 218.898 290.656 218.183 291.196 217.469C292.721 215.481 294.671 213.357 297.181 213.338C300.656 213.299 302.799 217.237 303.243 220.674C304.054 226.832 302.104 233.029 299.343 238.589C297.934 241.427 296.312 244.149 294.478 246.736C296.486 241.948 297.663 236.89 297.586 231.736Z" fill="white"/>
<path d="M368.378 432.919C365.907 423.556 358.127 415.467 348.957 412.185C354.961 407.513 362.123 403.362 369.44 404.946C371.602 405.409 373.822 406.548 374.691 408.575C375.29 409.965 375.174 411.567 374.961 413.073C374.073 420.042 371.795 426.799 368.378 432.919Z" fill="white"/>
<path d="M409.481 453.962C418.497 443.691 427.358 432.783 434.076 420.833C438.497 412.957 443.381 402.802 440.37 393.613C439.636 391.393 438.555 389.539 437.242 388.033C442.802 385.794 449.134 385.002 453.343 388.902C458.169 393.4 457.049 401.258 454.984 407.513C446.258 433.922 432.937 450.12 408.4 463.209L401.16 463.305C404.037 460.236 406.797 457.012 409.481 453.962Z" fill="white"/>
<path d="M385.768 345.019C402.757 340.173 420.054 320.501 423.915 303.416C424.726 299.863 424.919 296.292 424.63 292.836C428.626 293.222 432.391 294.651 434.669 297.856C437.391 301.697 437.082 306.948 435.692 311.447C432.178 322.798 422.776 331.582 412.197 336.988C401.618 342.393 389.822 344.864 378.181 347.239L372.602 346.274C372.698 345.694 372.814 345.135 372.93 344.555C376.694 346.216 381.289 346.293 385.768 345.019Z" fill="white"/>
<path d="M340.521 319.846C341.119 312.722 345.444 306.004 351.718 302.529C352.316 302.2 352.953 301.911 353.59 301.66C349.015 314.614 346.583 328.996 354.073 341.024C356.467 344.846 360.367 345.947 363.861 344.981C362.78 348.167 361.506 351.275 359.903 354.229L356.467 355.097C353.127 349.422 348.996 344.248 345.695 338.553C342.413 332.877 339.98 326.41 340.521 319.846Z" fill="white"/>
<path d="M376.724 379.345C379.176 377.453 381.396 375.098 382.69 372.318C384.002 372.994 385.257 373.746 386.454 374.635C387.574 375.465 388.694 376.507 388.925 377.897C389.157 379.229 388.501 380.561 387.69 381.662C384.852 385.446 379.968 387.28 375.238 387.395C371.222 387.492 367.284 386.469 363.5 385.117C368.172 384.229 372.631 382.492 376.724 379.345Z" fill="white"/>
<path d="M314.663 358.069C311.053 357.181 307.346 357.316 303.852 358.262C305.222 354.44 307.52 350.868 310.995 348.861C311.96 348.301 313.118 347.876 314.199 348.204C315.087 348.494 315.744 349.247 316.284 350C318.601 353.185 319.991 356.892 320.705 360.772C318.948 359.575 316.941 358.629 314.663 358.069Z" fill="white"/>
<g opacity="0.51">
<path d="M103.643 276.817C105.946 276.817 107.813 274.95 107.813 272.647C107.813 270.344 105.946 268.477 103.643 268.477C101.34 268.477 99.4727 270.344 99.4727 272.647C99.4727 274.95 101.34 276.817 103.643 276.817Z" fill="white"/>
<path d="M18.294 366.356C18.294 363.055 15.6299 360.391 12.3287 360.391C9.02743 360.391 6.36328 363.055 6.36328 366.356C6.36328 369.657 9.02743 372.321 12.3287 372.321C15.6299 372.321 18.294 369.657 18.294 366.356Z" fill="white"/>
<path d="M88.7137 135.366C88.7137 129.439 83.9067 124.632 77.9799 124.632C72.0531 124.632 67.2461 129.439 67.2461 135.366C67.2461 141.293 72.0531 146.1 77.9799 146.1C83.9067 146.119 88.7137 141.312 88.7137 135.366Z" fill="white"/>
<path d="M303.588 162.24C303.588 159.595 301.445 157.472 298.819 157.472C296.194 157.472 294.051 159.615 294.051 162.24C294.051 164.885 296.194 167.009 298.819 167.009C301.445 167.009 303.588 164.866 303.588 162.24Z" fill="white"/>
<path d="M467.127 357.397C467.127 353.111 463.652 349.636 459.366 349.636C455.08 349.636 451.605 353.111 451.605 357.397C451.605 361.683 455.08 365.158 459.366 365.158C463.652 365.158 467.127 361.683 467.127 357.397Z" fill="white"/>
<path d="M374.02 264.307C375.672 264.307 377.012 262.967 377.012 261.315C377.012 259.662 375.672 258.322 374.02 258.322C372.367 258.322 371.027 259.662 371.027 261.315C371.027 262.967 372.367 264.307 374.02 264.307Z" fill="white"/>
<path d="M245.097 57.7777C245.097 53.1637 241.352 49.4185 236.738 49.4185C232.124 49.4185 228.379 53.1637 228.379 57.7777C228.379 62.3917 232.124 66.137 236.738 66.137C241.371 66.137 245.097 62.3917 245.097 57.7777Z" fill="white"/>
</g>
<path d="M370.736 137.72C383.323 137.971 393.748 127.99 394.018 115.383C394.269 102.796 384.288 92.3713 371.682 92.1011C359.094 91.8501 348.669 101.831 348.399 114.437C348.148 127.044 358.148 137.469 370.736 137.72Z" stroke="white" stroke-width="0.7895" stroke-miterlimit="10"/>
<path d="M353.837 96.3104C344.802 92.0633 345.304 97.0248 345.671 99.5731C345.845 100.693 346.501 101.677 347.177 102.585C356.598 115.404 371.154 123.415 385.788 129.632C389.34 131.137 393.413 132.585 396.946 131.041C397.68 130.732 398.375 130.269 398.78 129.574C399.939 127.566 398.008 125.23 396.251 123.724" stroke="white" stroke-width="0.7895" stroke-miterlimit="10"/>
<path d="M76.177 218.687C76.3894 208.745 68.4935 200.54 58.5512 200.328C48.6089 200.115 40.404 208.011 40.1917 217.954C39.9793 227.896 47.8753 236.101 57.8176 236.313C67.7599 236.525 75.984 228.629 76.177 218.687Z" stroke="white" stroke-width="0.6229" stroke-miterlimit="10"/>
<path d="M43.5137 232.027C40.1739 239.151 44.0736 238.765 46.1006 238.456C46.9887 238.321 47.7609 237.8 48.4752 237.278C58.5912 229.846 64.9041 218.359 69.827 206.814C71.0239 204.015 72.1437 200.81 70.9467 198.011C70.6958 197.432 70.329 196.872 69.7884 196.563C68.2054 195.656 66.3713 197.181 65.1744 198.571" stroke="white" stroke-width="0.6229" stroke-miterlimit="10"/>
<path d="M280.081 423.479L278.247 434.811L194.461 445.236L187.492 429.097L280.081 423.479Z" fill="#FFA288"/>
<path d="M410.929 380.023C410.427 381.992 412.608 382.861 416.739 384.038C420.118 388.768 409.326 390.776 409.326 390.776L400.214 391.104C400.214 391.104 396.836 391.104 398.863 386.374C400.89 381.644 401.083 382.687 403.921 382.32C406.623 381.992 413.554 381.355 411.006 377.938C410.002 376.586 403.65 374.231 399.867 374.231C398.399 374.231 393.805 379.289 391.102 381.992C388.669 384.424 385.812 392.455 385.812 392.455C344.441 401.452 320.83 389.637 320.83 389.637C314.923 371.586 307.181 279.866 275.617 284.287C269.709 285.117 257.354 304.442 259.226 322.454C259.825 351.045 276.022 379.154 282.837 417.745C287.567 444.503 356.931 421.684 393.805 415.39C393.805 415.39 451.489 406.626 450.466 401.567C449.462 396.509 424.5 400.892 424.5 400.892C424.5 400.892 452.165 401.22 451.489 396.509C450.814 391.78 419.442 396.181 419.442 396.181L423.554 393.015C424.925 391.953 425.466 390.119 424.906 388.478L422.686 382.05C422.222 380.698 421.083 379.714 419.693 379.424C418.11 379.096 416.18 378.478 414.654 378.053C413.091 377.648 411.334 378.459 410.929 380.023Z" fill="#FFA288"/>
<path d="M264.593 161.927C272.894 138.452 260.732 116.598 238.53 111.076C202.68 102.177 205.286 103.721 190.441 66.2106C182.371 45.8627 166.637 28.6615 147.081 18.835C137.215 13.8735 125.536 10.7847 115.188 14.6264C80.2451 27.619 116.713 46.5576 127.736 55.8243C129.474 57.2915 131.269 59.0097 131.617 61.2684C131.906 63.1217 131.154 64.975 130.111 66.5195C124.57 74.8015 112.833 75.3035 102.871 75.2649C92.9095 75.2262 80.998 76.6162 76.4805 85.4967C72.2333 93.8367 77.33 104.049 84.0289 110.594C90.7279 117.138 99.2223 122.081 104.184 130.015C109.107 137.892 109.86 147.583 110.96 156.83C116.52 203.55 135.188 240.867 186.02 249.651C221.696 255.809 266.794 239.96 265.539 197.179" fill="#25282B"/>
<path d="M264.229 153.916C270.889 158.106 274.113 144.978 275.02 141.156C277.047 132.507 277.53 123.144 274.557 114.668C272.202 107.931 267.761 101.734 261.584 97.9886C255.078 94.0503 247.51 93.78 240.155 94.7453C231.834 95.8457 223.571 98.4519 215.096 98.0272C206.486 97.6025 199.459 93.0464 195.057 85.7103C185.443 69.6482 190.385 50.0532 184.652 32.8713C179.285 16.8285 165.404 4.22206 148.975 0.28375C148.029 0.0520846 147.624 1.51929 148.57 1.75095C163.068 5.22593 175.501 15.5736 181.601 29.184C188.667 44.9565 184.574 62.9492 190.308 79.0692C192.451 85.1118 195.868 90.8842 201.061 94.7646C206.679 98.9538 213.629 99.977 220.482 99.4172C235.212 98.2009 251.834 90.6911 264.537 102.043C271.468 108.24 274.827 117.333 275.117 126.483C275.271 131.734 274.518 136.966 273.225 142.044C272.511 144.843 269.904 155.693 265.001 152.604C264.151 152.082 263.398 153.395 264.229 153.916Z" fill="#25282B"/>
<path d="M220.696 241.429C203.862 258.901 177.028 264.152 155.058 253.65C144.768 248.727 135.926 240.812 130.135 230.927C123.86 220.193 121.351 207.819 120.926 195.502C120.443 181.37 122.49 167.277 124.69 153.358C124.845 152.393 123.378 151.987 123.223 152.952C119.285 177.818 115.25 205.56 127.297 228.9C138.243 250.136 162.162 263.109 185.947 260.252C199.499 258.611 212.279 252.318 221.758 242.491C222.453 241.815 221.372 240.734 220.696 241.429Z" fill="#25282B"/>
<path d="M205.678 190.849C205.485 191.698 204.655 192.219 203.806 192.007C200.292 191.099 192.377 188.3 188.902 197.2C185.388 206.196 192.917 213.668 198.168 215.309C199.693 215.791 203.149 217.007 203.902 218.397C206.219 222.703 205.794 230.695 205.852 240.811C205.968 263.167 198.188 282.8 198.188 282.8C198.188 282.8 241.664 311.546 248.015 284.345C248.015 284.345 247.822 231.892 248.131 231.699C253.498 228.494 272.591 230.405 271.143 192.258C269.792 156.929 245.081 153.145 238.671 152.662C233.266 152.257 215.022 148.821 205.678 190.849Z" fill="#FFA288"/>
<path d="M192.215 200.868C192.215 200.868 200.69 190.617 203.74 208.011L192.215 200.868Z" fill="#D66956"/>
<path opacity="0.63" d="M236.185 198.628C240.76 199.69 243.618 204.246 242.575 208.84C241.513 213.416 236.957 216.273 232.362 215.231C227.787 214.169 224.93 209.613 225.972 205.018C227.034 200.443 231.59 197.585 236.185 198.628Z" fill="#E7786B"/>
<path opacity="0.63" d="M269.783 210.444C266.172 208.803 264.107 204.807 265.033 200.791C265.748 197.702 268.045 195.386 270.883 194.536C270.883 194.536 272.08 204.556 269.783 210.444Z" fill="#E7786B"/>
<path d="M249.762 206.717C249.762 206.717 252.426 211.003 258.391 209.999C262.272 209.343 264.202 205.289 264.202 205.289" stroke="#25282B" stroke-width="0.5254" stroke-miterlimit="10" stroke-linecap="round"/>
<path d="M256.908 198.05L255.711 204.536L259.147 204.479C259.784 204.459 260.17 203.784 259.862 203.243L256.908 198.05Z" fill="#D66956"/>
<path d="M242.415 187.391C240.928 188.646 242.917 183.472 245.021 182.719C247.125 181.947 249.365 182.797 250.04 184.611C250.021 184.611 245.967 184.399 242.415 187.391Z" fill="#25282B"/>
<path d="M267.051 184.671C268.731 185.636 265.854 180.906 263.653 180.52C261.452 180.134 259.387 181.37 259.059 183.281C259.059 183.281 263.036 182.354 267.051 184.671Z" fill="#25282B"/>
<path d="M249.915 231.197C249.915 231.197 239.799 231.95 232 229.44C236.324 241.12 245.726 240.367 249.915 231.197Z" fill="#D66956"/>
<path d="M262.654 146.426C282.674 156.716 273.234 181.678 273.234 181.678C263.561 182.856 253.677 169.4 250.878 160.075L249.97 157.044C250.704 168.319 243.715 178.667 233.001 182.238L213.85 188.609L219.719 166.504L210.51 192.47L197.016 188.416C196.996 188.416 215.974 122.41 262.654 146.426Z" fill="#25282B"/>
<path d="M246.91 198.976C248.86 199.651 251.177 200.346 252.856 198.319" stroke="#25282B" stroke-width="0.5254" stroke-miterlimit="10" stroke-linecap="round"/>
<path d="M259.965 197.836C261.915 198.512 264.231 199.207 265.911 197.18" stroke="#25282B" stroke-width="0.5254" stroke-miterlimit="10" stroke-linecap="round"/>
<path d="M250.289 261.602C250.289 261.602 289.5 258.5 306.5 320L254.324 329.384L250.289 261.602Z" fill="#00B2B5"/>
<path opacity="0.58" d="M280.331 289.983C271.315 280.311 260.774 272.994 250.504 265.04L254.346 329.424L302.918 321.335C302.783 320.524 302.629 319.79 302.493 318.999C295.794 308.786 288.651 298.921 280.331 289.983Z" fill="#00B2B5"/>
<path d="M249.258 261.275C271.189 272.067 289.181 325.755 290.05 350.041C290.919 374.501 288.718 413.73 288.718 413.73C288.718 413.73 206.863 415.506 182.808 417.108C169.584 376.818 167.885 308.805 176.071 277.704C176.071 277.704 189.276 267.955 200.801 262.858C200.801 262.839 235.821 308.766 249.258 261.275Z" fill="#00B2B5"/>
<g opacity="0.58">
<path d="M174.966 282.49C168.093 315.348 170.255 378.766 182.823 417.088C195.043 416.277 222.148 415.427 245.894 414.771C211.704 377.067 182.804 332.897 174.966 282.49Z" fill="#00B2B5"/>
</g>
<path d="M40.5729 380.022C41.0749 381.992 38.8933 382.86 34.762 384.038C31.3835 388.768 42.1753 390.776 42.1753 390.776L51.2874 391.104C51.2874 391.104 54.6659 391.104 52.6388 386.374C50.6117 381.644 50.4187 382.687 47.5808 382.32C44.878 381.992 37.9474 381.354 40.4957 377.937C41.4996 376.586 47.8511 374.231 51.6349 374.231C53.1021 374.231 57.6968 379.289 60.3996 381.992C62.8321 384.424 65.6893 392.455 65.6893 392.455C107.061 401.451 130.671 389.636 130.671 389.636C136.579 371.586 144.32 279.866 175.885 284.287C181.792 285.117 194.148 304.442 192.275 322.454C191.677 351.045 175.479 379.154 168.664 417.745C163.935 444.503 94.5702 421.684 57.6968 415.39C57.6968 415.39 0.0121766 406.625 1.03536 401.567C2.03925 396.509 27.0012 400.892 27.0012 400.892C27.0012 400.892 -0.663511 401.22 0.0121789 396.509C0.687869 391.779 32.0592 396.181 32.0592 396.181L27.9472 393.015C26.5765 391.953 26.0166 390.119 26.5958 388.478L28.8159 382.049C29.2792 380.698 30.4182 379.713 31.8082 379.424C33.3913 379.096 35.3218 378.478 36.847 378.053C38.4107 377.648 40.1675 378.459 40.5729 380.022Z" fill="#FFA288"/>
<path d="M185.522 270.039C202.568 273.611 221.275 292.299 194.962 348.96L136.273 328.728C136.293 328.728 156.525 263.978 185.522 270.039Z" fill="#00B2B5"/>
<path d="M189.122 415.738C163.272 446.762 145.473 528.849 145.473 528.849L323.141 524.563C323.141 524.563 312.909 443.943 280.302 414.039C280.186 414.29 230.05 412.379 189.122 415.738Z" fill="#FFE8D8"/>
<path opacity="0.38" d="M189.122 415.738C163.272 446.762 145.473 528.849 145.473 528.849L323.141 524.563C323.141 524.563 312.909 443.943 280.302 414.039C280.186 414.29 230.05 412.379 189.122 415.738Z" fill="#D8C7BC"/>
<g opacity="0.31">
<path d="M153.996 290.503C156.178 295.021 159.247 298.959 162.491 302.704C165.753 306.469 169.151 310.156 172.163 314.21C175.078 318.361 177.356 323.052 178.282 328.072C178.726 330.581 178.823 333.168 178.398 335.697C177.935 338.207 176.95 340.62 175.367 342.589C178.012 338.265 178.244 333.033 177.143 328.323C176.024 323.554 173.842 319.056 170.927 315.118C168.089 311.083 164.691 307.415 161.583 303.457C158.514 299.519 155.598 295.272 153.996 290.503Z" fill="white"/>
<path d="M142.547 305.812C144.632 307.53 146.504 309.5 148.203 311.604C149.922 313.708 151.427 315.986 152.759 318.341C154.072 320.716 155.231 323.187 156.099 325.755C156.987 328.322 157.702 330.929 158.049 333.612C157.084 331.083 156.119 328.612 154.999 326.18C153.879 323.766 152.721 321.372 151.408 319.075C150.134 316.758 148.705 314.519 147.238 312.299C145.79 310.098 144.169 307.955 142.547 305.812Z" fill="white"/>
<path d="M176.672 273.4C177.637 277.86 178.448 282.358 179.548 286.74C180.649 291.123 181.942 295.466 183.911 299.501C185.765 303.575 188.352 307.32 191.498 310.486C194.645 313.652 198.487 316.2 202.85 317.59C198.313 316.818 194.124 314.444 190.688 311.335C187.251 308.208 184.568 304.308 182.541 300.157C180.629 295.949 179.278 291.489 178.409 286.991C177.541 282.493 177.019 277.956 176.672 273.4Z" fill="white"/>
<path d="M201.125 411.106C202.09 405.971 203.403 400.874 205.102 395.913C206.839 390.951 208.944 386.125 211.434 381.491C216.415 372.225 223.095 363.808 231.203 357.012C239.388 350.313 249.041 345.41 259.312 342.958C264.447 341.742 269.717 341.124 274.988 341.201C280.258 341.317 285.49 342.147 290.49 343.711C285.432 342.398 280.181 341.838 274.988 341.954C269.794 342.031 264.601 342.765 259.601 344.097C249.582 346.742 240.122 351.549 232.168 358.19C224.137 364.754 217.593 373.036 212.457 382.051C209.87 386.569 207.67 391.299 205.797 396.164C203.886 401.009 202.322 406.009 201.125 411.106Z" fill="white"/>
<path d="M292.034 374.694C289.543 373.458 287.072 372.145 284.389 371.605C281.782 370.987 278.906 371.296 276.763 372.725C275.682 373.439 274.91 374.443 274.408 375.62C273.906 376.817 273.635 378.169 273.211 379.539C272.361 382.281 271.01 384.848 269.215 387.107C267.4 389.327 265.16 391.2 262.67 392.609C260.199 393.999 257.631 395.08 255.141 396.258C252.65 397.416 250.314 398.864 248.5 400.891C246.646 402.86 245.353 405.467 245.527 408.285C245.006 405.505 246.183 402.629 247.921 400.409C249.697 398.169 252.129 396.528 254.581 395.215C257.033 393.864 259.62 392.822 261.956 391.412C264.292 390.042 266.338 388.265 268.018 386.161C269.716 384.095 271.029 381.702 271.879 379.134C272.303 377.86 272.593 376.47 273.191 375.118C273.771 373.748 274.832 372.512 276.126 371.759C278.713 370.215 281.84 370.099 284.562 370.891C287.304 371.682 289.717 373.169 292.034 374.694Z" fill="white"/>
<path d="M264.84 264.442C266.365 268.072 268.122 271.566 270.207 274.867C272.292 278.149 274.608 281.276 277.215 284.153C279.802 287.049 282.659 289.674 285.709 292.088C288.759 294.501 292.061 296.605 295.516 298.497C291.81 297.165 288.277 295.273 285.014 293.014C281.732 290.775 278.759 288.091 276.076 285.157C273.431 282.184 271.076 278.941 269.184 275.446C267.292 271.971 265.786 268.265 264.84 264.442Z" fill="white"/>
<path d="M253.011 264.442C254.092 269.79 254.942 275.176 255.54 280.601C256.1 286.026 256.409 291.489 256.467 296.972C256.563 302.397 256.39 308.092 254.131 313.304C253.011 315.891 251.139 318.266 248.648 319.752C246.138 321.258 243.223 321.721 240.482 321.876C237.702 321.992 234.98 321.857 232.335 322.05C231.022 322.165 229.71 322.358 228.455 322.725C227.219 323.111 226.041 323.652 224.941 324.366C220.539 327.301 218.03 332.32 215.095 336.876C212.18 341.529 208.609 345.795 204.516 349.444C200.404 353.073 195.771 356.104 190.848 358.402C195.674 355.873 200.114 352.649 204.014 348.884C207.952 345.158 211.35 340.911 214.111 336.258C215.501 333.922 216.813 331.529 218.397 329.251C219.96 326.972 221.814 324.791 224.188 323.189C225.385 322.397 226.679 321.779 228.049 321.355C229.42 320.949 230.81 320.737 232.219 320.602C234.999 320.37 237.741 320.486 240.405 320.351C243.069 320.235 245.694 319.81 247.915 318.497C250.135 317.204 251.814 315.119 252.876 312.725C255.058 307.879 255.251 302.358 255.309 296.972C255.386 291.547 255.212 286.103 254.807 280.678C254.459 275.253 253.861 269.828 253.011 264.442Z" fill="white"/>
</g>
<path d="M357.023 544.738C360.266 544.178 356.946 538.155 349.417 535.896C337.37 532.286 318.007 525.471 312.312 518.56C305.748 510.587 299.667 507.459 295.304 506.32C292.022 505.452 288.547 506.301 285.96 508.483C284.203 509.969 281.809 511.571 279.492 511.726C276.77 511.919 273.508 511.224 273.508 511.224L274.898 547.924C274.898 547.904 342.409 547.267 357.023 544.738Z" fill="#FFA288"/>
<path d="M280.042 547.573C280.042 547.573 54.3233 544.272 52.7595 485.892C51.3116 431.953 141.024 444.772 150.464 446.104C185.851 451.162 281.104 495.275 281.104 495.275L280.042 547.573Z" fill="#FFE8D8"/>
<path opacity="0.28" d="M219.923 469.04L279.288 494.001L278.013 547.748C278.013 547.748 132.875 539.91 98.8203 522.882L219.923 469.04Z" fill="#D8C7BC"/>
<path d="M259.285 547.072L265.752 487.109" stroke="white" stroke-width="1.0507" stroke-miterlimit="10"/>
<path d="M209.808 544.582C209.808 544.582 425.952 537.208 419.6 479.156C414.871 435.989 344.058 444.406 310.312 456.221C276.586 468.036 207.105 499.388 207.105 499.388L209.808 544.582Z" fill="#FFE8D8"/>
<path d="M128.431 544.699C125.149 544.448 127.871 538.154 135.15 535.162C146.791 530.394 165.401 521.745 170.401 514.312C176.154 505.74 181.907 502.034 186.135 500.47C189.321 499.293 192.854 499.794 195.653 501.725C197.545 503.038 200.093 504.389 202.41 504.331C205.132 504.254 208.317 503.25 208.317 503.25L210.499 539.911C210.479 539.892 143.239 545.819 128.431 544.699Z" fill="#FFA288"/>
<path d="M218.793 494.89L223.291 541.899" stroke="white" stroke-width="1.0507" stroke-miterlimit="10"/>
</svg>
