<svg width="116" height="112" viewBox="0 0 116 112" fill="none" xmlns="http://www.w3.org/2000/svg">
<path d="M0 0H116V112L57.5797 87.6899L0 112V0Z" fill="#F28D77"/>
<g clip-path="url(#clip0_2224_127237)">
<path d="M91.0674 22.4353C91.0674 39.1427 91.0674 55.8501 91.0674 72.5575C91.0464 72.5936 91.0109 72.6285 91.0054 72.6671C90.601 75.3886 88.3495 77.3717 85.2036 77.3681C67.396 77.3489 49.5884 77.3603 31.7802 77.3513C31.2133 77.3513 30.6271 77.311 30.0836 77.1647C27.4348 76.4527 25.9362 74.4148 25.9356 71.5687C25.9332 55.5203 25.9326 39.4725 25.9356 23.4242C25.9362 19.9834 28.216 17.644 31.6532 17.641C49.5457 17.6259 67.4381 17.6337 85.3306 17.6349C86.8713 17.6349 88.2472 18.0869 89.3871 19.1612C90.3344 20.0544 90.7912 21.1985 91.0674 22.4353ZM58.5018 74.6255C67.3196 74.6255 76.1373 74.6255 84.955 74.6243C85.2728 74.6243 85.5918 74.6249 85.9078 74.599C87.0814 74.5033 88.072 73.6168 88.276 72.4624C88.3386 72.1104 88.3591 71.7462 88.3591 71.3875C88.3627 55.4692 88.3627 39.5508 88.3597 23.6324C88.3597 23.2948 88.3459 22.9523 88.2893 22.6201C88.1099 21.5668 87.5045 20.8398 86.4885 20.5256C86.0546 20.3914 85.5719 20.3722 85.1115 20.3722C67.3701 20.3649 49.6287 20.3661 31.8879 20.3673C31.6129 20.3673 31.336 20.3698 31.0622 20.3944C29.9235 20.4967 28.9377 21.3742 28.7324 22.4979C28.6608 22.8909 28.6434 23.2984 28.6434 23.6992C28.6391 36.8834 28.6398 50.0675 28.6398 63.2511C28.6398 66.0064 28.606 68.7629 28.6638 71.5169C28.6777 72.1832 28.8679 72.9162 29.2007 73.4892C29.7508 74.4377 30.7378 74.6339 31.7953 74.6321C40.6966 74.6201 49.5992 74.6255 58.5018 74.6255Z" fill="white"/>
<path d="M58.495 28.5079C66.868 28.5079 75.2404 28.5073 83.6133 28.5091C83.9094 28.5091 84.2092 28.5055 84.5011 28.5482C85.127 28.6391 85.5669 29.135 85.6085 29.7555C85.6506 30.3917 85.3027 30.9334 84.6912 31.1121C84.4324 31.188 84.1496 31.209 83.8775 31.209C66.9625 31.2132 50.0474 31.2132 33.1324 31.212C31.9973 31.212 31.3708 30.7107 31.387 29.8284C31.3991 29.1802 31.8444 28.6469 32.4896 28.5494C32.7809 28.5055 33.0812 28.5091 33.3774 28.5091C41.7497 28.5073 50.1221 28.5079 58.495 28.5079Z" fill="white"/>
<path d="M46.3285 43.4477C46.326 44.8561 46.2701 46.2325 45.537 47.5096C44.4194 49.456 41.9879 50.57 39.7797 50.0892C37.4192 49.5752 35.601 47.5927 35.4945 45.2731C35.4181 43.6108 35.2303 41.9256 35.7545 40.291C36.505 37.951 38.8667 36.4723 41.4745 36.6938C43.8043 36.8924 45.8885 38.8821 46.187 41.2323C46.2791 41.9654 46.2833 42.7093 46.3285 43.4477ZM38.1535 43.3629C38.1547 43.3629 38.1559 43.3629 38.1571 43.3629C38.1571 43.8925 38.1276 44.4239 38.1625 44.9512C38.2558 46.3583 39.3951 47.4494 40.7818 47.4904C42.148 47.5307 43.38 46.5479 43.504 45.166C43.6057 44.0333 43.6081 42.8778 43.5124 41.7445C43.392 40.3175 42.1685 39.3178 40.7788 39.36C39.368 39.4027 38.2323 40.5215 38.1565 41.9648C38.1324 42.43 38.1535 42.897 38.1535 43.3629Z" fill="white"/>
<path d="M70.7514 43.3959C70.7496 44.8247 70.7033 46.224 69.9564 47.5204C68.8375 49.4614 66.3964 50.573 64.1924 50.0867C61.8536 49.5709 60.0348 47.6053 59.9223 45.3248C59.8404 43.6625 59.6527 41.9773 60.1648 40.3415C60.9099 37.9606 63.277 36.4662 65.9095 36.6955C68.2393 36.8983 70.3121 38.8874 70.6118 41.2443C70.7027 41.9557 70.7075 42.6785 70.7514 43.3959ZM68.0334 43.4507C68.0058 42.8669 68.0184 42.2698 67.9408 41.6848C67.7578 40.3072 66.574 39.3208 65.2077 39.3605C63.8458 39.4002 62.683 40.4583 62.5999 41.8359C62.5361 42.891 62.5367 43.9562 62.5993 45.0113C62.6812 46.3883 63.8421 47.4488 65.2035 47.4909C66.5697 47.533 67.756 46.5472 67.9414 45.1708C68.016 44.6068 68.0046 44.0309 68.0334 43.4507Z" fill="white"/>
<path d="M59.897 62.3924C59.8314 60.987 59.8705 59.6112 60.6138 58.3317C61.7441 56.3853 64.0341 55.332 66.3735 55.7618C68.5059 56.153 70.3614 58.0464 70.6015 60.2046C70.7935 61.9289 70.9103 63.6773 70.4384 65.3788C69.8131 67.6315 67.4617 69.5303 64.4175 69.1331C62.1004 68.8304 60.0541 66.6487 59.903 64.1714C59.8663 63.5804 59.897 62.9852 59.897 62.3924ZM62.5801 62.3984C62.5801 62.907 62.5542 63.4167 62.5849 63.9229C62.6721 65.3433 63.791 66.4302 65.1801 66.4723C66.6131 66.5157 67.8053 65.5665 67.9323 64.1269C68.0322 62.9942 68.0304 61.8393 67.9311 60.7066C67.8083 59.3139 66.5806 58.316 65.2294 58.3576C63.8018 58.4015 62.6673 59.4969 62.5831 60.9377C62.5548 61.4228 62.5789 61.9115 62.5801 62.3984Z" fill="white"/>
<path d="M39.4861 66.4853C39.4861 63.7355 39.4861 61.0921 39.4861 58.3417C39.069 58.3417 38.6754 58.3537 38.283 58.3392C37.388 58.3067 36.815 57.7843 36.8048 57.008C36.7946 56.2147 37.3952 55.661 38.3191 55.6418C39.0822 55.6261 39.8454 55.6303 40.6085 55.6399C41.6822 55.6532 42.2113 56.1738 42.2143 57.2487C42.2227 60.1532 42.2173 63.0572 42.2173 65.9617C42.2173 66.1074 42.2173 66.253 42.2173 66.4853C42.6331 66.4853 43.0063 66.4715 43.3782 66.4877C44.3328 66.5299 44.8997 67.039 44.9051 67.8401C44.9106 68.6436 44.3466 69.1924 43.3981 69.2075C41.7027 69.234 40.0067 69.2346 38.3113 69.2069C37.3808 69.1918 36.7922 68.6141 36.8054 67.8305C36.8187 67.0444 37.4055 66.5274 38.3498 66.4871C38.7091 66.4721 39.0678 66.4853 39.4861 66.4853Z" fill="white"/>
<path d="M51.6992 66.4842C51.6992 63.7397 51.6992 61.0964 51.6992 58.3417C51.2875 58.3417 50.8945 58.3531 50.5027 58.3393C49.6048 58.3074 49.0336 57.7904 49.0198 57.0134C49.0059 56.2196 49.6054 55.6623 50.528 55.6418C51.2695 55.6256 52.0122 55.634 52.7537 55.6394C53.9074 55.6478 54.4274 56.1588 54.4298 57.3071C54.4352 60.1057 54.4316 62.9037 54.4316 65.7024C54.4316 65.9323 54.4316 66.1622 54.4316 66.4854C54.8222 66.4854 55.1731 66.4769 55.524 66.4872C56.5249 66.5167 57.1117 67.0156 57.1201 67.8359C57.1285 68.6599 56.5447 69.2003 55.5553 69.2118C53.8809 69.231 52.206 69.2358 50.5322 69.2087C49.6018 69.1937 49.0113 68.6201 49.021 67.8377C49.0306 67.0493 49.615 66.5347 50.5593 66.4872C50.7284 66.4787 50.8981 66.4848 51.0679 66.4848C51.2562 66.4836 51.444 66.4842 51.6992 66.4842Z" fill="white"/>
<path d="M78.8555 66.4415C79.4303 66.48 79.9389 66.4776 80.4342 66.5564C81.1257 66.6666 81.5308 67.1631 81.544 67.8203C81.5579 68.5058 81.148 69.0607 80.4312 69.139C79.6349 69.2256 78.8261 69.2076 78.0226 69.2154C76.9844 69.225 75.945 69.2383 74.9074 69.2064C74.1232 69.1823 73.6393 68.7899 73.4991 68.164C73.3636 67.5603 73.5821 66.9729 74.1226 66.7093C74.4145 66.5672 74.7672 66.5293 75.0976 66.492C75.4093 66.4571 75.7283 66.4842 76.0973 66.4842C76.0973 63.7795 76.0973 61.1217 76.0973 58.3411C75.7229 58.3411 75.3317 58.352 74.9411 58.3387C74.0191 58.308 73.422 57.7555 73.4419 56.9641C73.4605 56.1937 74.0467 55.6623 74.9375 55.6418C75.7 55.6244 76.4638 55.631 77.2269 55.6394C78.3325 55.6515 78.8513 56.1727 78.8537 57.2921C78.8598 60.0907 78.8555 62.8887 78.8555 65.6873C78.8555 65.9184 78.8555 66.1496 78.8555 66.4415Z" fill="white"/>
<path d="M51.6883 47.4983C51.6883 44.734 51.6883 42.0732 51.6883 39.3535C51.2531 39.3535 50.8547 39.3685 50.4575 39.3505C49.5836 39.3101 49.0022 38.7456 49.0197 37.9752C49.0371 37.2163 49.5884 36.6873 50.4424 36.659C51.2044 36.6337 51.9681 36.6457 52.7307 36.6517C53.9476 36.6614 54.4285 37.1386 54.4297 38.3496C54.4339 41.1464 54.4309 43.9438 54.4309 46.7406C54.4309 46.9693 54.4309 47.1986 54.4309 47.4977C54.8763 47.4977 55.2729 47.4845 55.6683 47.5001C56.5518 47.5356 57.123 48.0767 57.1206 48.8573C57.1182 49.6463 56.5645 50.1832 55.6617 50.1934C53.9254 50.2127 52.1884 50.2145 50.4515 50.1916C49.5776 50.1802 48.9974 49.5934 49.0161 48.823C49.0341 48.0773 49.6041 47.5417 50.4473 47.5013C50.8469 47.4827 51.2471 47.4983 51.6883 47.4983Z" fill="white"/>
<path d="M76.1004 39.3515C75.649 39.3515 75.2464 39.3702 74.8461 39.3479C74.0102 39.3016 73.442 38.7455 73.4414 38.0016C73.4408 37.2505 74.0011 36.6907 74.8401 36.6606C75.6231 36.6324 76.4079 36.6438 77.1915 36.6516C78.364 36.6631 78.8521 37.1506 78.8545 38.3218C78.8593 41.1186 78.8563 43.916 78.8563 46.7128C78.8563 46.9439 78.8563 47.175 78.8563 47.4964C79.2589 47.4964 79.6309 47.4898 80.0028 47.4976C80.9417 47.5187 81.5345 48.0332 81.5465 48.8295C81.5592 49.642 80.991 50.1849 80.0509 50.1945C78.3567 50.2119 76.6619 50.2107 74.9677 50.1957C74.0324 50.1873 73.4408 49.6438 73.4414 48.85C73.442 48.0591 74.0451 47.5229 74.9725 47.4982C75.3312 47.4886 75.6911 47.4964 76.1004 47.4964C76.1004 44.7869 76.1004 42.111 76.1004 39.3515Z" fill="white"/>
<path d="M34.6978 25.7888C34.4222 25.7738 34.1447 25.7792 33.8733 25.7401C33.2456 25.6498 32.8116 25.1774 32.749 24.546C32.6883 23.9339 33.0355 23.2845 33.6458 23.1949C34.365 23.0889 35.1221 23.0877 35.842 23.1894C36.4631 23.2767 36.8013 23.8936 36.7574 24.531C36.7152 25.1515 36.2753 25.6462 35.6488 25.7365C35.3364 25.7816 35.0156 25.7732 34.6978 25.7888Z" fill="white"/>
<path d="M41.5315 25.7899C41.2354 25.7736 40.9369 25.7797 40.645 25.7369C40.0184 25.6448 39.5779 25.1525 39.5351 24.532C39.4894 23.8682 39.8493 23.2675 40.5107 23.1688C41.1698 23.0707 41.8631 23.0695 42.5245 23.1538C43.18 23.2374 43.5856 23.8513 43.5549 24.4827C43.5218 25.1537 43.0463 25.6689 42.3566 25.7465C42.0852 25.7772 41.8071 25.7514 41.5321 25.7514C41.5321 25.7646 41.5315 25.7772 41.5315 25.7899Z" fill="white"/>
<path d="M82.2178 25.7884C81.9427 25.7746 81.6659 25.7794 81.3939 25.7433C80.7336 25.656 80.2756 25.1558 80.2407 24.5107C80.2046 23.848 80.5735 23.2558 81.2386 23.1625C81.8988 23.0698 82.5921 23.0698 83.2524 23.1607C83.909 23.251 84.302 23.8691 84.2599 24.504C84.2159 25.1763 83.7393 25.6765 83.0429 25.7493C82.7709 25.7782 82.4928 25.7541 82.2178 25.7541C82.2178 25.7655 82.2178 25.777 82.2178 25.7884Z" fill="white"/>
</g>
<defs>
<clipPath id="clip0_2224_127237">
<rect width="65" height="65" fill="white" transform="translate(26 15)"/>
</clipPath>
</defs>
</svg>
