<svg width="116" height="112" viewBox="0 0 116 112" fill="none" xmlns="http://www.w3.org/2000/svg">
<path d="M0 0H116V112L57.5797 87.6899L0 112V0Z" fill="#67B96F"/>
<path d="M44.6921 79.9999C44.2575 79.8513 43.8086 79.7351 43.3915 79.5486C40.7451 78.3653 39.5926 75.1966 40.9648 72.6116C42.2028 70.2806 43.5744 68.0207 44.8919 65.7318C47.1573 61.7951 49.4341 57.8644 51.6814 53.9175C51.8872 53.5558 52.007 53.0924 52.01 52.6747C52.0365 49.3952 52.0226 46.1157 52.0256 42.8362C52.0268 41.5958 52.4626 41.1649 53.709 41.1612C54.8044 41.1582 55.9004 41.1606 57.0391 41.1606C57.0391 40.1742 57.0391 39.2353 57.0391 38.2549C56.2675 38.2549 55.5134 38.2886 54.7635 38.2495C49.8463 37.9907 45.9457 34.113 45.7026 29.1796C45.6478 28.0734 45.8211 26.9539 45.9174 25.8429C45.983 25.084 46.4543 24.6904 47.1831 24.5549C51.3245 23.787 54.885 24.7319 57.6319 28.0944C57.6686 28.1396 57.7306 28.1649 57.8215 28.2274C58.4059 26.904 59.1877 25.7442 60.3041 24.8348C62.8584 22.753 65.7647 22.3341 68.8949 23.0329C69.4059 23.1472 69.6942 23.5324 69.8158 24.0584C71.2891 30.4609 66.9052 36.0335 60.3661 35.6826C60.156 35.6711 59.9454 35.6621 59.677 35.6495C59.677 37.4773 59.677 39.2792 59.677 41.1606C60.7423 41.1606 61.8123 41.1594 62.8824 41.1612C64.2119 41.1636 64.6182 41.5699 64.6188 42.9084C64.6206 46.1879 64.6098 49.4674 64.6326 52.7469C64.635 53.1255 64.7452 53.5461 64.9329 53.8736C68.4195 59.9583 71.9307 66.0304 75.428 72.1103C76.8213 74.5327 76.4289 77.238 74.3549 78.8378C73.6622 79.3716 72.751 79.6208 71.9391 79.9999C62.8572 79.9999 53.7746 79.9999 44.6921 79.9999ZM57.092 64.7623C54.2086 64.7623 51.4244 64.7556 48.6402 64.7797C48.4735 64.7809 48.252 64.9976 48.1515 65.1703C46.5488 67.9268 44.9448 70.6827 43.3758 73.4584C42.251 75.4493 43.4264 77.4553 45.7116 77.4577C54.1135 77.4674 62.5153 77.4667 70.9178 77.4583C73.2367 77.4559 74.3959 75.4409 73.2439 73.4145C71.6785 70.661 70.0806 67.9262 68.5146 65.1733C68.3292 64.8477 68.1167 64.7532 67.7617 64.7556C65.4397 64.7695 63.1172 64.7629 60.7952 64.7629C60.4215 64.7629 60.0477 64.7629 59.6174 64.7629C59.6174 65.993 59.6246 67.1516 59.6126 68.3096C59.609 68.6231 59.5873 68.9481 59.5018 69.2473C59.3496 69.7811 58.761 70.1398 58.2241 70.0814C57.5843 70.0122 57.1137 69.5373 57.0992 68.8404C57.0728 67.5115 57.092 66.1826 57.092 64.7623ZM57.0469 62.1996C57.0469 56.0198 57.0469 49.8965 57.0469 43.7498C56.2043 43.7498 55.3978 43.7498 54.5594 43.7498C54.5594 44.0309 54.5594 44.2626 54.5594 44.4943C54.5594 47.3922 54.5793 50.2907 54.5408 53.188C54.5336 53.7105 54.3849 54.2846 54.1321 54.7408C52.861 57.0303 51.5327 59.2884 50.2267 61.5586C50.1154 61.7524 50.0167 61.9534 49.8867 62.1996C52.3013 62.1996 54.6389 62.1996 57.0469 62.1996ZM66.7499 62.1923C66.6223 61.9486 66.5242 61.7464 66.4123 61.5514C65.1075 59.2836 63.7816 57.0279 62.5117 54.7408C62.2589 54.2852 62.1085 53.7117 62.1012 53.1898C62.0627 50.2745 62.0826 47.3579 62.0826 44.4419C62.0826 44.2162 62.0826 43.9905 62.0826 43.7534C61.2219 43.7534 60.4371 43.7534 59.6559 43.7534C59.6559 49.9248 59.6559 56.0438 59.6559 62.193C62.023 62.1923 64.3516 62.1923 66.7499 62.1923ZM48.311 26.9876C47.3486 32.376 51.6729 36.5872 56.9337 35.5971C57.9123 30.0336 53.3575 25.9855 48.311 26.9876ZM67.4439 25.2651C67.0268 25.2651 66.6302 25.2633 66.2335 25.2651C62.2752 25.2874 59.438 28.328 59.6583 32.2815C59.6926 32.8918 59.8696 33.1518 60.5388 33.1705C65.0738 33.2974 68.145 29.8747 67.4439 25.2651Z" fill="white"/>
<path d="M60.0282 15C61.4017 15.207 62.7793 15.3888 64.1467 15.6313C64.9327 15.7704 65.7079 15.9864 66.4765 16.2067C67.3149 16.4469 67.7012 17.0963 67.493 17.8311C67.2956 18.5287 66.6191 18.8109 65.7392 18.6382C63.9228 18.2819 62.1124 17.8004 60.2768 17.653C54.1939 17.1631 48.6237 18.714 43.5844 22.1759C43.2432 22.41 43.3244 22.6194 43.4135 22.9192C43.9462 24.7115 43.369 26.5237 41.9137 27.6912C40.5306 28.8005 38.5824 28.9431 36.9863 28.0518C34.9713 26.9263 34.1751 24.2727 35.2368 22.2222C36.355 20.0616 38.9387 19.1528 41.0621 20.2162C41.4882 20.4299 41.7566 20.3896 42.1268 20.1278C45.7547 17.5609 49.7799 15.9768 54.168 15.313C54.9781 15.1902 55.7936 15.1035 56.6067 15C57.7472 15 58.8877 15 60.0282 15ZM39.165 22.3245C38.1082 22.3348 37.2951 23.1695 37.3059 24.233C37.3168 25.2917 38.1539 26.1138 39.209 26.1012C40.2592 26.0891 41.0916 25.2357 41.0747 24.1891C41.0579 23.1292 40.2225 22.3137 39.165 22.3245Z" fill="white"/>
<path d="M79.2438 28.3412C77.8926 28.8594 76.589 28.8348 75.3209 28.1432C73.4901 27.1442 72.6162 24.9576 73.2463 22.9294C73.8518 20.9824 75.8457 19.6427 77.821 19.8551C80.0129 20.0911 81.6422 21.7094 81.8486 23.8237C81.9334 24.6916 81.8203 25.5216 81.3984 26.2757C81.2052 26.6211 81.2774 26.842 81.4748 27.1201C83.0144 29.2837 84.2289 31.6195 85.0884 34.1329C86.3631 37.8589 86.8488 41.6867 86.5581 45.6198C86.3089 48.9866 85.4681 52.192 84.0839 55.2621C83.7595 55.9819 83.2708 56.3123 82.6876 56.2202C81.7348 56.0692 81.3815 55.2627 81.7559 54.2335C82.324 52.6693 82.9945 51.1225 83.3677 49.5096C85.1221 41.9365 83.7727 34.9237 79.3671 28.5116C79.3322 28.4592 79.2937 28.4099 79.2438 28.3412ZM77.4376 22.3697C76.397 22.3823 75.5646 23.2424 75.5761 24.2938C75.5869 25.347 76.4355 26.1818 77.4821 26.1698C78.5276 26.1577 79.3581 25.3019 79.3455 24.2492C79.3328 23.2008 78.4764 22.357 77.4376 22.3697Z" fill="white"/>
<path d="M37.4083 58.5398C38.7101 58.0372 39.9806 58.039 41.215 58.683C43.1825 59.7098 44.069 61.951 43.3558 64.0744C42.6787 66.09 40.5494 67.3497 38.4489 66.9771C36.2546 66.5877 34.6982 64.7208 34.7915 62.4921C34.8173 61.8758 34.9853 61.2342 35.2344 60.6697C35.412 60.2671 35.3572 60.0275 35.1333 59.7122C33.6106 57.5635 32.4232 55.2386 31.5583 52.7517C30.5297 49.793 30.035 46.7398 30.0001 43.6108C29.9911 42.7875 30.5039 42.2103 31.2183 42.1808C31.9441 42.1507 32.5074 42.7243 32.5243 43.5898C32.5857 46.7663 33.1297 49.8448 34.2847 52.8119C35.0707 54.8305 36.1005 56.7119 37.4083 58.5398ZM37.3066 62.6155C37.3084 63.6729 38.1426 64.5125 39.1904 64.5101C40.2334 64.5083 41.0754 63.6579 41.0736 62.6083C41.0718 61.5635 40.219 60.7064 39.1832 60.7088C38.142 60.7112 37.3048 61.5611 37.3066 62.6155Z" fill="white"/>
<path d="M33.0244 38.1574C33.0376 38.8315 32.4707 39.4105 31.7864 39.4213C31.1026 39.4321 30.5207 38.8754 30.508 38.1971C30.4954 37.5231 31.0629 36.9453 31.746 36.9357C32.4309 36.9266 33.0111 37.4809 33.0244 38.1574Z" fill="white"/>
<path d="M77.7423 59.9903C77.7315 59.3024 78.2804 58.7228 78.9587 58.7059C79.6291 58.6891 80.2117 59.2578 80.2256 59.9427C80.2394 60.6307 79.6899 61.206 79.0068 61.2181C78.3165 61.2301 77.7532 60.6836 77.7423 59.9903Z" fill="white"/>
<path d="M65.0838 67.5686C65.747 67.5553 66.3471 68.1373 66.3597 68.806C66.3723 69.4692 65.7879 70.0747 65.1241 70.0867C64.4651 70.0988 63.8572 69.5096 63.844 68.8463C63.8313 68.1843 64.4151 67.5824 65.0838 67.5686Z" fill="white"/>
<path d="M49.5755 73.3116C48.8863 73.3086 48.3368 72.7513 48.3399 72.058C48.3429 71.3658 48.8966 70.8157 49.5875 70.8194C50.2724 70.8224 50.8339 71.3875 50.8309 72.0706C50.8279 72.7507 50.2574 73.3146 49.5755 73.3116Z" fill="white"/>
<path d="M54.8047 74.1691C54.7999 73.477 55.3524 72.9052 56.0325 72.898C56.7048 72.8914 57.2801 73.4649 57.2856 74.1493C57.291 74.833 56.727 75.4143 56.0518 75.421C55.3741 75.427 54.8095 74.8606 54.8047 74.1691Z" fill="white"/>
</svg>
