<svg width="116" height="112" viewBox="0 0 116 112" fill="none" xmlns="http://www.w3.org/2000/svg">
<path d="M0 0H116V112L57.5797 87.6899L0 112V0Z" fill="#BD81CD"/>
<path d="M25.0037 36.3178C26.0273 35.2588 27.0281 34.1769 28.0835 33.1511C28.6266 32.6234 29.3009 32.689 29.889 33.2557C30.7189 34.0553 31.5303 34.8741 32.3343 35.6995C32.9467 36.3274 32.9895 37.0622 32.4773 37.6156C31.9717 38.1617 31.2266 38.1595 30.5575 37.609C30.4793 37.5449 30.4027 37.4793 30.2612 37.3606C30.2612 39.2546 30.2612 41.0646 30.2612 42.98C30.4256 42.7891 30.5494 42.6609 30.6555 42.5201C32.1464 40.548 33.8399 38.7808 35.8747 37.3599C41.2052 33.6375 47.9285 34.4165 52.2486 39.2819C52.9097 40.0262 53.483 40.8531 54.0498 41.6741C54.587 42.4531 54.4507 43.2387 53.7734 43.6669C53.0947 44.0965 52.3827 43.885 51.8551 43.0618C50.575 41.0632 49.0015 39.3681 46.7744 38.4373C43.167 36.9295 39.8322 37.5714 36.8003 39.9282C33.1066 42.8002 30.6319 46.5735 29.0776 50.9297C28.4188 52.7772 28.0783 54.7427 27.6501 56.667C27.4858 57.4054 28.0407 58.1512 28.6819 58.2463C29.3466 58.345 29.8596 57.8807 29.9826 57.017C30.7115 51.8958 32.775 47.4084 36.3699 43.6683C37.1032 42.9056 37.9293 42.2069 38.8012 41.6078C41.9539 39.4404 45.7375 39.8567 48.3987 42.6145C50.0016 44.2756 50.9663 46.3133 51.7688 48.4395C53.1234 52.0277 53.867 55.7819 54.7469 59.4976C55.5922 63.0675 56.3403 66.6691 57.8923 70.0223C58.3551 71.0216 58.9012 72.0032 59.5453 72.8935C62.04 76.3418 65.8103 77.2615 69.6329 75.3682C72.1895 74.1021 74.107 72.0917 75.7696 69.827C78.6033 65.966 80.2592 61.6238 80.9793 56.905C81.1561 55.7457 81.3662 54.5917 81.5659 53.4361C81.717 52.562 81.3625 51.8826 80.6646 51.73C80.0138 51.5878 79.411 52.1169 79.2371 53.002C78.7728 55.3662 78.4529 57.7687 77.825 60.088C76.6503 64.4265 74.5102 68.2543 71.1179 71.2773C70.3006 72.0054 69.3588 72.6429 68.3793 73.1315C65.8656 74.3866 63.5242 73.8457 61.7201 71.6937C60.4267 70.1505 59.5976 68.3405 59.0737 66.4318C58.0449 62.6872 57.1413 58.9073 56.1899 55.1414C56.0786 54.6993 55.9696 54.2556 55.8944 53.8061C55.7691 53.0551 56.1737 52.4382 56.8716 52.2695C57.5422 52.1066 58.2018 52.5068 58.4097 53.243C58.5983 53.9114 58.7221 54.5983 58.9248 55.2616C58.9749 55.4244 59.2218 55.6411 59.378 55.6418C64.9009 55.6573 70.4237 55.6499 75.9473 55.644C75.9871 55.644 76.0276 55.6175 76.1293 55.5821C76.3069 54.571 76.4963 53.5297 76.6702 52.4861C77.0417 50.2583 78.8826 48.8153 80.9579 49.1337C83.0966 49.4616 84.4725 51.3667 84.1821 53.5953C84.0959 54.2585 84.0141 54.9218 83.9257 55.6234C85.0164 55.6234 86.0747 55.6234 87.2155 55.6234C87.0688 55.4244 86.9435 55.2689 86.8323 55.1031C86.4608 54.5482 86.5242 53.8915 86.987 53.4376C87.4668 52.9666 88.1949 52.8907 88.6997 53.3646C89.6666 54.2711 90.6085 55.2078 91.5083 56.1798C92.0058 56.7178 91.9048 57.3973 91.3292 57.9883C90.5407 58.7983 89.7396 59.5971 88.9326 60.3886C88.3217 60.9885 87.5537 61.0394 87.0128 60.5404C86.4549 60.0253 86.4557 59.3097 87.0135 58.6251C87.0777 58.5462 87.1359 58.4615 87.2766 58.2713C86.0091 58.2713 84.8461 58.2559 83.6854 58.2927C83.5535 58.2971 83.3523 58.5831 83.3154 58.7658C82.7804 61.4174 81.9845 63.9806 80.8068 66.42C78.7241 70.7342 75.7608 74.3446 71.8748 77.1244C67.8635 79.9934 61.8093 79.748 57.9807 75.1538C55.9909 72.766 54.8398 69.9545 53.9952 67.0206C53.2148 64.3108 52.5839 61.5575 51.9199 58.8152C51.8168 58.3892 51.659 58.2588 51.2323 58.2603C45.1221 58.2721 39.012 58.2721 32.901 58.2603C32.5171 58.2595 32.3719 58.4313 32.1596 58.7253C31.7359 59.3119 31.2443 59.8735 30.6857 60.3297C30.3666 60.5906 30.2081 60.7851 30.2096 61.203C30.2251 65.7692 30.2229 70.3362 30.2111 74.9025C30.2104 75.2393 30.1661 75.6114 30.0187 75.9055C29.7439 76.4523 29.2309 76.6314 28.6377 76.5149C28.0584 76.4022 27.7408 76.0101 27.6324 75.4508C27.5919 75.2407 27.6111 75.0174 27.6111 74.8C27.6103 70.2986 27.6044 65.7972 27.6199 61.2966C27.6214 60.8743 27.5167 60.6466 27.1136 60.4579C25.9507 59.914 25.3825 58.8779 25.0007 57.7142C25.0007 57.2359 25.0007 56.7576 25.0007 56.2786C25.0383 56.1577 25.0943 56.0391 25.1105 55.9152C25.4871 53.142 26.2897 50.4956 27.4423 47.9486C27.5536 47.7025 27.6022 47.407 27.603 47.1343C27.614 44.0493 27.6103 40.9637 27.6074 37.8787C27.6074 37.7262 27.575 37.5736 27.5521 37.3761C26.4268 38.3268 25.72 38.2325 25 37.0983C25.0037 36.8396 25.0037 36.5787 25.0037 36.3178ZM44.1818 55.6264C46.5312 55.6264 48.8033 55.6264 51.082 55.6264C51.0916 55.5298 51.1152 55.4642 51.1019 55.406C51.0208 55.0464 50.9353 54.6875 50.844 54.33C50.2087 51.8457 49.4975 49.3865 48.3346 47.0879C48.0317 46.4894 47.6787 45.9102 47.2925 45.3611C45.2467 42.4582 42.2959 42.033 39.5566 44.2793C36.58 46.7201 34.6749 49.8905 33.4633 53.5046C33.2341 54.1878 33.0713 54.8931 32.8679 55.6264C35.8334 55.6264 38.6707 55.6264 41.5766 55.6264C41.5766 55.1864 41.5604 54.7774 41.5803 54.3713C41.6157 53.6248 42.1588 53.0757 42.853 53.0595C43.5686 53.0433 44.1427 53.6078 44.1781 54.3853C44.1965 54.7737 44.1818 55.1635 44.1818 55.6264ZM59.6013 58.3089C60.3611 61.5228 60.992 64.6793 62.3252 67.6205C62.7497 68.5572 63.3237 69.4533 63.9701 70.2551C64.7373 71.2066 65.8656 71.4122 66.9798 70.897C67.663 70.5809 68.3351 70.1932 68.9188 69.7216C71.5741 67.577 73.3155 64.7699 74.5654 61.6415C74.9936 60.5692 75.3024 59.4497 75.6805 58.3082C73.278 58.3082 71.0251 58.3082 68.7773 58.3082C68.5466 59.9369 68.2467 60.368 67.3778 60.3511C66.5421 60.3348 66.2569 59.9052 66.0439 58.3089C63.9303 58.3089 61.8108 58.3089 59.6013 58.3089Z" fill="white"/>
<path d="M82.2532 22.7193C81.3917 23.8675 80.5737 24.9575 79.7556 26.0474C79.6384 26.2037 79.5257 26.3643 79.3982 26.5125C78.8661 27.13 78.1328 27.2376 77.5491 26.7903C76.9736 26.3489 76.8682 25.5809 77.3399 24.9317C78.1314 23.8417 78.9501 22.7709 79.7571 21.6912C80.0305 21.3257 80.3017 20.9594 80.6179 20.5357C79.99 19.6948 79.3577 18.8465 78.7239 17.9998C78.3075 17.4426 77.8867 16.8891 77.4732 16.3298C76.8792 15.5265 76.9198 14.7402 77.5735 14.2663C78.2419 13.7814 78.9523 13.9612 79.5751 14.7858C80.4521 15.9473 81.3224 17.1139 82.2532 18.3557C82.8759 17.5266 83.4707 16.7351 84.0647 15.9436C84.3779 15.5265 84.6881 15.1072 85.0058 14.693C85.5674 13.9612 86.2881 13.8005 86.9212 14.2589C87.5704 14.7298 87.6441 15.5059 87.0826 16.2664C86.1532 17.5252 85.2269 18.7876 84.2578 20.0154C83.9364 20.4229 83.9689 20.6838 84.2725 21.0722C85.2224 22.2874 86.137 23.5322 87.056 24.7717C87.6338 25.5507 87.5896 26.2921 86.9551 26.7866C86.3124 27.2878 85.5519 27.1101 84.9476 26.3083C84.0588 25.1321 83.1766 23.9508 82.2532 22.7193Z" fill="white"/>
<path d="M54.9177 27.0759C53.0664 27.0074 51.7149 26.3662 50.6603 25.1193C50.1481 24.5135 50.1849 23.7352 50.7229 23.2503C51.2778 22.7492 52.0229 22.7787 52.5793 23.3815C53.1335 23.9814 53.7636 24.4007 54.5964 24.4442C55.3378 24.4825 55.903 24.1 56.0969 23.45C56.2693 22.8715 56.0136 22.3357 55.3157 21.9791C54.466 21.5442 53.5823 21.1765 52.7304 20.7461C51.2734 20.0099 50.6507 18.8064 50.8386 17.1637C51.0029 15.7237 52.0804 14.5003 53.5337 14.1488C55.27 13.7287 56.7498 14.2903 58.0373 15.434C58.5686 15.9057 58.5922 16.6788 58.1685 17.2006C57.7189 17.754 57.0041 17.813 56.357 17.4121C55.8839 17.1188 55.3908 16.8137 54.8639 16.6618C54.1616 16.4599 53.5514 16.8512 53.4453 17.446C53.3657 17.894 53.4637 18.2434 53.9361 18.4512C54.8101 18.8344 55.6908 19.214 56.528 19.6694C57.9724 20.4557 58.8679 21.6548 58.7485 23.3535C58.6276 25.0743 57.6681 26.252 56.0394 26.8379C55.6171 26.9882 55.155 27.0273 54.9177 27.0759Z" fill="white"/>
<path d="M33.271 21.424C33.756 20.0319 34.1665 18.7968 34.6167 17.5763C34.9543 16.661 35.8747 16.3419 36.6043 16.863C37.1556 17.2565 37.2794 17.8114 37.0686 18.4261C35.8917 21.8544 34.7096 25.2806 33.515 28.7023C33.2438 29.4798 32.5731 29.8314 31.8855 29.6206C31.1677 29.4002 30.8214 28.6883 31.0447 27.8865C31.0734 27.7819 31.0999 27.6735 31.1515 27.5792C31.9497 26.117 31.8347 24.7006 31.1582 23.1942C30.5111 21.7535 30.0748 20.2191 29.5501 18.7238C29.1794 17.6685 29.4285 16.9624 30.2605 16.6876C31.0343 16.4318 31.6527 16.8482 32.0204 17.8814C32.4191 19.0038 32.8134 20.1277 33.271 21.424Z" fill="white"/>
<path d="M66.6026 23.1163C66.6026 22.2909 66.5893 21.4655 66.6063 20.6401C66.6306 19.4838 67.5282 18.9495 68.5843 19.4219C68.7693 19.5045 69.0353 19.5045 69.2328 19.4426C71.7842 18.6466 74.2545 20.3218 74.4144 22.9984C74.4675 23.8857 74.4469 24.7797 74.4233 25.6692C74.4004 26.513 73.847 27.0657 73.096 27.0562C72.334 27.0458 71.8387 26.5005 71.8247 25.6301C71.813 24.8703 71.8314 24.1098 71.8188 23.35C71.8034 22.4265 71.2499 21.82 70.468 21.8443C69.7038 21.8679 69.2225 22.4442 69.2137 23.3617C69.2063 24.1002 69.2232 24.8386 69.2085 25.5771C69.1908 26.4798 68.6764 27.051 67.9041 27.0554C67.1185 27.0598 66.6159 26.5034 66.6055 25.5918C66.5945 24.7671 66.6026 23.9417 66.6026 23.1163Z" fill="white"/>
<path d="M43.7268 19.228C42.8815 19.228 42.0354 19.2398 41.1909 19.2251C40.3655 19.2111 39.7796 18.6591 39.7773 17.925C39.7751 17.194 40.3647 16.6265 41.1864 16.6199C42.8557 16.6059 44.5249 16.6059 46.1941 16.6199C47.0461 16.6272 47.5885 17.1534 47.5885 17.9206C47.5892 18.6908 47.0512 19.2081 46.1978 19.2243C45.3746 19.2398 44.5507 19.228 43.7268 19.228Z" fill="white"/>
<path d="M43.6828 24.4481C42.8589 24.4481 42.035 24.4562 41.2118 24.4459C40.3768 24.4356 39.7939 23.9072 39.7777 23.1702C39.7614 22.42 40.3694 21.8488 41.2324 21.8429C42.8796 21.8319 44.5274 21.8312 46.1745 21.8437C47.0375 21.8503 47.5792 22.3596 47.5895 23.1253C47.5998 23.9234 47.0508 24.4363 46.1539 24.4467C45.33 24.4555 44.5068 24.4481 43.6828 24.4481Z" fill="white"/>
<path d="M61.3881 23.4368C61.3881 22.6998 61.3741 21.9621 61.3918 21.2252C61.4109 20.4543 61.915 19.9207 62.6188 19.8868C63.3351 19.8522 63.9586 20.3865 63.977 21.1692C64.0131 22.7072 64.0146 24.2482 63.9756 25.7863C63.9557 26.5704 63.3366 27.0907 62.6092 27.0538C61.9017 27.0185 61.4102 26.4938 61.3918 25.7126C61.3741 24.955 61.3881 24.1959 61.3881 23.4368Z" fill="white"/>
<path d="M61.3947 15.3366C61.3829 14.5967 61.96 14.0056 62.6888 14.0108C63.3794 14.0159 63.9719 14.5989 63.9866 15.2872C64.0014 15.9998 63.3904 16.6167 62.6733 16.613C61.9673 16.6093 61.4065 16.0492 61.3947 15.3366Z" fill="white"/>
<path d="M56.8338 47.8855C56.8426 48.5966 56.2213 49.2201 55.5139 49.2091C54.8241 49.1987 54.2433 48.6121 54.2345 47.9179C54.2256 47.2052 54.7695 46.6363 55.4807 46.6135C56.2213 46.5906 56.8242 47.1573 56.8338 47.8855Z" fill="white"/>
<path d="M44.1793 47.1948C44.1793 47.6061 44.1911 48.018 44.1763 48.4292C44.1469 49.2384 43.6354 49.7654 42.8925 49.7735C42.1239 49.7823 41.5911 49.2406 41.5748 48.399C41.5586 47.5766 41.5579 46.7526 41.5756 45.9302C41.5925 45.152 42.1489 44.5786 42.8579 44.5675C43.5912 44.5565 44.1528 45.1424 44.1771 45.9604C44.1896 46.3716 44.1793 46.7836 44.1793 47.1948Z" fill="white"/>
<path d="M68.7092 66.2707C68.7092 66.6819 68.7225 67.0939 68.7063 67.5044C68.6753 68.3099 68.1602 68.8361 67.4158 68.8412C66.6715 68.8471 66.1269 68.3217 66.107 67.5265C66.0849 66.6613 66.0827 65.7939 66.1092 64.9287C66.132 64.1865 66.6951 63.6493 67.393 63.6427C68.0887 63.6353 68.6576 64.1688 68.7011 64.9066C68.7276 65.3598 68.7063 65.816 68.7063 66.2699C68.707 66.2707 68.7085 66.2707 68.7092 66.2707Z" fill="white"/>
</svg>
