<svg width="116" height="112" viewBox="0 0 116 112" fill="none" xmlns="http://www.w3.org/2000/svg">
<path d="M0 0H116V112L57.5797 87.6899L0 112V0Z" fill="#49C7E2"/>
<path d="M56.2788 9.1589C52.3818 10.2673 49.4691 14.6188 47.1682 22.7745C46.9687 23.4861 46.7958 24.0882 46.7692 24.1156C46.7559 24.1293 45.9978 23.965 45.0934 23.7461C38.6163 22.1588 34.1608 22.1724 31.115 23.8282C29.9446 24.4577 28.7476 25.744 28.1757 26.9755C27.7634 27.8787 27.7501 27.9608 27.7501 29.7534C27.7501 31.245 27.8033 31.765 28.0294 32.4902L28.3087 33.3934L27.8698 33.9133C26.6861 35.3228 26.7127 37.7859 27.9363 39.2228C28.7077 40.1122 29.652 40.5912 30.8224 40.6733C31.3544 40.7006 31.9662 40.6733 32.179 40.5912C32.5381 40.468 32.6046 40.4954 32.8574 40.8512C33.017 41.0701 33.7219 41.8638 34.4268 42.6164L35.7036 43.9848L34.3204 45.4627C27.5905 52.6331 25.7684 59.0099 29.3993 62.7456C30.6229 64.0046 32.8175 64.9351 35.0519 65.154C35.8499 65.2225 35.9297 65.2088 36.2489 64.8803C36.6745 64.4425 36.6878 63.9088 36.2888 63.4983C36.0627 63.2656 35.7701 63.1562 35.0785 63.0877C33.1766 62.8962 31.3012 62.0204 30.4766 60.953C29.8781 60.1867 29.652 59.393 29.652 58.1478C29.652 55.2057 31.9928 50.9226 35.9563 46.6532L37.1001 45.4216L37.7385 45.9964C39.4409 47.529 42.061 49.6911 43.3644 50.6489L44.8141 51.7163L44.9072 52.6742C45.0668 54.3984 45.6387 58.3804 45.9712 60.0636C46.1441 60.9667 46.2505 61.7467 46.1973 61.8014C46.1441 61.8425 45.4126 62.0478 44.5747 62.2393C43.258 62.5404 42.4201 62.6909 39.9463 63.0877C39.0419 63.2383 38.7227 64.0319 39.2946 64.7298C39.5606 65.0446 39.7069 65.0993 40.2256 65.0856C41.0901 65.0446 43.7102 64.5656 45.3328 64.1551C46.0909 63.9498 46.7426 63.813 46.7559 63.8404C46.7825 63.8677 47.0485 64.7572 47.3544 65.7972C49.1499 71.9687 51.3311 75.8823 54.0177 77.716C57.3162 79.9739 60.8407 79.2349 63.7401 75.6497L64.4982 74.7329L65.5489 74.7055C66.4001 74.6918 66.7459 74.6234 67.3444 74.3223C68.7941 73.5971 69.6187 72.2424 69.632 70.6003C69.6453 69.3824 69.4325 68.7803 68.6877 67.8361L68.0892 67.0835L68.5281 65.4824C68.7675 64.6067 68.9803 63.8677 68.9936 63.854C69.0202 63.8267 69.9113 64.0183 71.0019 64.2783C77.2396 65.7972 81.6553 65.7561 84.6744 64.1277C87.2147 62.7593 88.5181 60.0909 88.1058 57.1489C87.9063 55.8078 87.4807 54.3847 87.1216 53.9194C86.5896 53.2352 85.4059 53.6047 85.4059 54.4531C85.4059 54.6447 85.4857 55.0142 85.5921 55.2605C85.6985 55.5205 85.8847 56.2047 86.0044 56.7794C86.7093 60.0088 85.1798 62.1709 81.6154 62.9509C79.0086 63.5256 74.0476 63.0741 69.9645 61.9109L69.4857 61.7741L69.7916 60.2278C70.164 58.4078 70.7359 54.4942 70.8556 52.9205L70.9487 51.7984L72.9038 50.2932C73.9811 49.4721 75.6569 48.09 76.6278 47.2416C77.5987 46.3932 78.4632 45.6406 78.5563 45.5722C78.809 45.3806 81.4159 48.2953 83.0252 50.5668C83.6769 51.4837 83.8764 51.6479 84.3552 51.6479C84.7276 51.6479 85.2729 51.0458 85.2729 50.6489C85.2729 50.0742 83.7301 47.9532 81.376 45.3258L80.1923 43.9985L81.6287 42.3838C86.2305 37.2112 88.1989 33.4891 88.1989 29.945C88.1989 27.8239 87.627 26.4145 86.2305 25.0871C85.3128 24.2114 84.0892 23.5545 82.6661 23.1851C82.0942 23.0345 81.5888 22.8566 81.5356 22.8019C81.4824 22.7472 81.376 22.4598 81.2829 22.1587C81.0302 21.3788 79.7933 20.1472 78.9686 19.8598C76.7475 19.0798 74.4067 20.2156 73.6885 22.4051C73.5023 22.9798 73.3826 23.1303 73.0767 23.2124C71.7068 23.5682 69.0202 24.1566 68.9936 24.1156C68.9803 24.1019 68.8207 23.5545 68.6611 22.9114C68.1956 21.1872 67.0651 18.0946 66.7858 17.7935C66.4932 17.4788 65.8282 17.4514 65.509 17.7114C65.0169 18.1356 65.0435 18.4367 65.7351 20.3661C66.4001 22.2545 67.1183 24.6766 67.0385 24.745C67.0119 24.7587 66.2405 25.0461 65.3228 25.3745C63.3145 26.0724 61.5057 26.8113 59.524 27.7145C58.6994 28.0839 57.9812 28.385 57.9147 28.385C57.8482 28.385 56.9571 28.0155 55.9463 27.5503C53.9645 26.6745 51.2513 25.6071 49.6686 25.0871C48.5381 24.7177 48.5381 25.0871 49.5888 21.7756C51.2513 16.562 53.6985 12.6757 56.1192 11.4578C56.7443 11.1431 57.0502 11.0747 57.8748 11.0747C58.7393 11.0747 59.0053 11.1431 59.7368 11.5126C60.7343 12.0189 61.8648 13.0999 62.8889 14.523C63.5406 15.4262 63.647 15.522 64.0593 15.522C64.6445 15.522 65.0568 15.1251 65.0568 14.5504C65.0568 13.661 62.7958 10.9789 61.2397 10.0073C60.8141 9.74732 60.1757 9.4189 59.8033 9.29574C58.8856 8.96733 57.1965 8.89891 56.2788 9.1589ZM78.6228 21.9945C79.8465 22.8293 79.8997 24.6492 78.7292 25.5524C78.5297 25.7029 78.0775 25.8534 77.7184 25.8945C76.0559 26.0587 74.8722 24.2114 75.7101 22.7745C76.1889 21.9809 76.6677 21.7072 77.5721 21.6935C77.9977 21.6798 78.3169 21.7756 78.6228 21.9945ZM39.1217 24.8271C41.4226 25.0324 45.8914 25.8808 46.1973 26.1819C46.2505 26.2229 46.1441 27.0029 45.9712 27.9061C45.6387 29.5892 45.0668 33.5712 44.9072 35.2954L44.8141 36.2533L43.3644 37.3207C42.061 38.2786 39.4276 40.4543 37.7518 41.9596L37.1267 42.5206L36.7144 42.1238C36.4883 41.9048 35.8233 41.1933 35.2514 40.5364L34.214 39.3459L34.6396 38.4975C35.012 37.7449 35.0652 37.5123 35.0652 36.5407C35.0652 35.2544 34.746 34.4197 33.9347 33.5849C33.1367 32.7639 32.312 32.4218 31.1416 32.4218H30.1441L29.9579 31.9428C29.8648 31.6828 29.7584 30.8755 29.7185 30.1502C29.6254 28.426 29.8648 27.6324 30.7426 26.7292C31.4741 25.9766 32.046 25.6482 33.3362 25.2513C34.9322 24.745 36.7543 24.6219 39.1217 24.8271ZM82.7459 25.3471C84.2488 25.8534 85.3261 26.7292 85.8182 27.8787C86.3103 28.9871 86.2571 30.6429 85.6852 32.3944C84.7808 35.0902 82.2937 38.8259 79.514 41.6312L78.6627 42.5069L77.0135 41.0427C76.1091 40.2354 74.3668 38.8122 73.1565 37.868L70.9487 36.1712L70.8556 35.0491C70.7359 33.5028 70.1773 29.5892 69.8049 27.7282L69.499 26.1955L70.0443 26.045C70.8556 25.8124 73.3427 25.2377 73.5156 25.2377C73.5954 25.2377 73.7417 25.4292 73.8481 25.6619C74.1274 26.3871 75.2047 27.3724 76.0559 27.7008C77.0933 28.0976 78.3967 28.0292 79.3677 27.5229C80.1524 27.1124 81.0701 26.1134 81.2829 25.4292C81.4558 24.9092 81.4824 24.9092 82.7459 25.3471ZM52.9537 28.4945C53.499 28.7134 54.3103 29.0692 54.7492 29.2608L55.5472 29.6302L54.1507 30.3829C52.3685 31.3544 50.3203 32.5723 48.6312 33.6534C47.8997 34.1186 47.2214 34.5428 47.1283 34.5976C47.0086 34.6797 46.982 34.5702 47.0352 34.1733C47.4209 31.2039 47.5672 30.2597 47.8598 28.7271C48.0327 27.7555 48.2189 26.9071 48.2455 26.8524C48.312 26.7566 51.0651 27.7145 52.9537 28.4945ZM67.7833 27.8513C68.036 29.0829 68.5946 32.627 68.7143 33.8449L68.8074 34.7344L68.435 34.4744C67.2513 33.667 63.5539 31.4365 62.1042 30.6429C61.1599 30.1366 60.4018 29.685 60.4018 29.6166C60.4018 29.4387 67.3843 26.6745 67.5439 26.7976C67.5572 26.8113 67.6769 27.2903 67.7833 27.8513ZM59.2314 31.4092C62.0244 32.846 65.4292 34.8849 67.9429 36.5954L69.0335 37.348L69.1399 38.3743C69.2729 39.7154 69.2729 48.2679 69.1399 49.5953L69.0335 50.6216L68.1424 51.2237C65.4558 53.071 62.051 55.1099 59.2314 56.5604L57.8881 57.2583L56.1192 56.2457C52.9404 54.4531 49.2164 52.2363 47.6204 51.1689L46.7426 50.5805L46.6495 49.1574C46.5298 47.4058 46.5564 39.7701 46.6761 38.3743L46.7692 37.348L48.0327 36.486C49.9745 35.1586 52.6345 33.5439 55.3477 32.0523C56.7044 31.3134 57.8216 30.7113 57.8482 30.7113C57.8615 30.7113 58.4866 31.026 59.2314 31.4092ZM32.0859 34.7207C33.0968 35.4186 33.3894 36.4996 32.8707 37.5396C31.913 39.4828 28.987 38.7301 28.987 36.5407C28.987 35.6102 29.519 34.8302 30.3436 34.5018C30.8357 34.3102 31.647 34.4197 32.0859 34.7207ZM44.5747 43.9848V49.0479L43.4708 48.1995C42.0876 47.1048 40.0394 45.3669 39.2281 44.5869L38.603 43.9848L39.2281 43.3827C40.1724 42.4796 44.3486 38.9764 44.5348 38.9354C44.5614 38.9217 44.5747 41.2069 44.5747 43.9848ZM73.9678 41.1385C75.0318 42.0143 76.2022 43.0269 76.5613 43.369L77.2263 43.9848L76.5613 44.6006C75.8431 45.2848 72.292 48.2542 71.6403 48.7332L71.2413 49.0205V43.9848V38.9491L71.6403 39.2364C71.8664 39.4007 72.9038 40.2491 73.9678 41.1385ZM48.6312 54.3163C50.3203 55.3973 52.3685 56.6152 54.1507 57.5868L55.5472 58.3394L54.7492 58.7088C52.5015 59.7215 48.3386 61.2678 48.2455 61.1172C48.2189 61.0625 48.0327 60.2141 47.8598 59.2425C47.5672 57.7099 47.4209 56.7657 47.0352 53.7963C46.982 53.3994 47.0086 53.29 47.1283 53.3721C47.2214 53.4268 47.8997 53.851 48.6312 54.3163ZM68.7143 54.2068C68.6079 55.2468 67.9429 59.4067 67.7168 60.5015L67.5705 61.1993L66.0543 60.6793C64.0327 59.9815 60.4018 58.4762 60.4018 58.3531C60.4018 58.2846 61.1599 57.8331 62.1042 57.3268C63.6869 56.4647 67.1981 54.3436 68.2488 53.6184C68.5015 53.4405 68.7276 53.29 68.7542 53.29C68.7808 53.29 68.7542 53.7005 68.7143 54.2068ZM59.524 60.2551C61.5057 61.1583 63.3145 61.8972 65.3228 62.5951C66.2405 62.9235 67.0119 63.2109 67.0385 63.2246C67.0518 63.2519 66.8922 63.9361 66.6528 64.7572L66.2272 66.2624L65.2164 66.3172C64.0194 66.3719 63.3677 66.6593 62.6229 67.4256C61.1067 68.9856 61.0136 71.3803 62.3968 73.1592L62.7958 73.6518L61.7983 74.6097C59.3777 76.936 57.9147 77.4149 56.0527 76.4844C53.7118 75.2939 51.238 71.3529 49.5888 66.194C49.1898 64.9351 48.8307 63.7446 48.7908 63.553C48.711 63.2109 48.7509 63.1835 50.2671 62.6772C51.8764 62.1299 55.2945 60.7478 56.8108 60.0225C57.2896 59.7899 57.7551 59.5983 57.8615 59.5983C57.9546 59.5846 58.6994 59.8857 59.524 60.2551ZM66.7459 68.7666C67.1981 69.054 67.7168 69.9982 67.7168 70.5455C67.7035 71.0929 67.2513 71.9687 66.7858 72.3108C65.2164 73.4602 62.982 71.8045 63.5938 69.9298C64.0327 68.5477 65.5356 68.0003 66.7459 68.7666Z" fill="white"/>
<path d="M56.6742 36.6906C52.9103 37.3338 50.2237 41.1516 50.7956 45.0379C51.1148 47.2 52.4714 49.2663 54.2935 50.3747C55.7432 51.2641 57.8712 51.5789 59.5869 51.1683C62.0607 50.5662 64.202 48.3905 64.8404 45.8179C65.266 44.0937 65.0399 42.1095 64.2153 40.4948C63.6833 39.4411 62.2868 38.0043 61.2494 37.4432C59.9327 36.7454 58.1239 36.4443 56.6742 36.6906ZM59.5071 38.9348C61.7814 39.7011 63.1646 41.8085 63.0316 44.2989C62.9252 46.3242 61.941 47.8294 60.1588 48.7326C59.2012 49.2252 59.0815 49.2526 57.8712 49.2526C56.7141 49.2526 56.5279 49.2115 55.7432 48.8147C52.4448 47.1452 51.7 42.8758 54.2403 40.2348C55.6634 38.7706 57.6052 38.2917 59.5071 38.9348Z" fill="white"/>
</svg>
