<svg width="116" height="112" viewBox="0 0 116 112" fill="none" xmlns="http://www.w3.org/2000/svg">
<path d="M0 0H116V112L57.5797 87.6899L0 112V0Z" fill="#43BBD6"/>
<path d="M32.8985 82.5005C31.5096 82.195 30.2443 81.6672 29.2929 80.5477C27.6665 78.6338 27.4297 76.1713 28.6693 73.9672C28.727 73.8644 28.7825 73.7602 28.8728 73.5964C26.0172 73.1207 24.2478 71.588 24.0742 68.629C23.954 66.5804 25.2381 64.6714 27.111 63.8818C28.961 63.1012 30.6006 63.4575 32.2679 65.1394C32.5464 64.7818 32.7922 64.3915 33.1089 64.0713C35.0561 62.1019 37.0325 60.1609 38.9631 58.1748C39.2533 57.8769 39.4672 57.4116 39.5263 56.997C40.0388 53.4248 40.4624 49.8394 40.9999 46.2707C41.7145 41.5318 45.8388 37.9984 50.6436 37.9165C52.1756 37.8908 53.2332 38.9179 53.2888 40.4512C53.3353 41.7227 53.236 43.0339 53.5152 44.2554C54.1068 46.8401 56.5617 48.3984 59.1978 48.0707C61.7034 47.7589 63.5867 45.6061 63.679 42.9248C63.7061 42.1311 63.6777 41.3352 63.6874 40.5408C63.7089 38.8797 64.7978 37.854 66.454 37.9241C71.6103 38.1436 75.5172 41.8845 76.1256 47.1047C76.5207 50.4977 77.0027 53.8811 77.4624 57.2665C77.4957 57.5102 77.6124 57.7901 77.7832 57.9616C80.0902 60.2866 82.4131 62.5957 84.7332 64.9075C84.7659 64.9394 84.8165 64.9526 84.8596 64.9748C86.6415 63.3477 88.4054 63.0505 90.2999 64.0588C92.2075 65.0741 93.2179 67.1602 92.8624 69.3457C92.529 71.3901 90.8825 73.0505 88.8068 73.4366C88.595 73.4762 88.3832 73.52 88.1145 73.5727C88.2686 73.87 88.4186 74.1339 88.5457 74.4082C90.1103 77.7769 88.1395 81.6422 84.486 82.3776C84.3464 82.4054 84.2117 82.4575 84.0749 82.4984C67.0172 82.5005 49.9582 82.5005 32.8985 82.5005ZM48.5325 71.1089C55.1978 71.1089 61.7832 71.1089 68.4457 71.1089C68.1249 69.8207 67.8145 68.5915 67.5124 67.3602C66.9297 64.9818 66.1561 62.6318 66.4561 60.122C67.0617 55.0575 67.6617 49.9929 68.261 44.9276C68.4242 43.5491 68.5777 42.17 68.7464 40.6991C67.8527 40.5463 67.02 40.4047 66.0853 40.245C66.0853 41.1588 66.0853 41.9241 66.0853 42.6894C66.0846 45.2602 65.079 47.3345 63.0728 48.9547C59.6638 51.7082 54.1915 50.6741 52.0124 46.8776C51.2193 45.4957 50.8645 44.038 50.886 42.4651C50.8957 41.7533 50.8874 41.0422 50.8874 40.2186C49.904 40.4054 49.07 40.5644 48.2256 40.7248C48.3311 41.6387 48.4207 42.4262 48.5138 43.213C49.07 47.92 49.5679 52.6345 50.204 57.3304C50.6165 60.3748 50.6915 63.3512 49.7325 66.3207C49.236 67.8658 48.936 69.4741 48.5325 71.1089ZM55.8909 80.0922C56.2096 80.0922 56.4693 80.0922 56.729 80.0922C65.4443 80.0922 74.1603 80.0929 82.8756 80.0908C83.1881 80.0908 83.502 80.0825 83.8131 80.0519C85.336 79.904 86.5797 78.6151 86.677 77.0936C86.8068 75.0686 85.3395 73.5498 83.1957 73.5477C74.2631 73.5387 65.3311 73.5436 56.3985 73.5457C56.2374 73.5457 56.0763 73.5762 55.8902 73.595C55.8909 75.745 55.8909 77.8561 55.8909 80.0922ZM71.004 42.1227C70.8207 43.6825 70.6263 45.1276 70.4888 46.5783C70.3874 47.6484 70.1721 48.7547 70.3367 49.7929C70.7693 52.5227 71.395 55.2213 71.9158 57.938C72.2006 59.4248 72.8353 60.7095 73.9096 61.7811C76.9117 64.7748 79.9054 67.7769 82.9096 70.7679C83.0707 70.9283 83.2992 71.1276 83.4971 71.129C85.1339 71.1394 86.777 71.1852 88.4061 71.063C89.6367 70.9713 90.5471 69.7338 90.5464 68.445C90.5457 67.1866 89.6408 66.1165 88.4013 65.9082C87.4561 65.7491 86.7318 66.1908 86.5749 67.0929C86.4728 67.6783 86.3082 68.1665 85.6853 68.3623C85.02 68.5713 84.5943 68.1873 84.1735 67.7658C81.4165 65.004 78.6395 62.2616 75.9138 59.47C75.527 59.0734 75.2297 58.4637 75.1492 57.9144C74.6158 54.272 74.1693 50.6165 73.661 46.97C73.3992 45.0804 72.5999 43.4568 71.004 42.1227ZM45.9783 42.1026C44.6158 43.2783 43.729 44.5963 43.4811 46.2102C42.8895 50.0595 42.4068 53.9262 41.8464 57.7804C41.7735 58.2804 41.636 58.8797 41.3068 59.2172C38.4311 62.1623 35.5179 65.0714 32.5749 67.9498C32.2874 68.2311 31.7131 68.3637 31.2915 68.3283C30.736 68.2825 30.5165 67.7845 30.4263 67.2338C30.2464 66.1359 29.5124 65.6852 28.4408 65.9707C28.302 66.0075 28.1624 66.0477 28.0304 66.1047C26.9547 66.57 26.3006 67.7255 26.4721 68.8505C26.6603 70.0866 27.536 71.0248 28.7527 71.0915C30.2888 71.1755 31.8325 71.1533 33.3721 71.1311C33.6158 71.1276 33.9013 70.9255 34.0902 70.738C37.079 67.7693 40.052 64.7838 43.0367 61.8102C44.1297 60.7213 44.7846 59.4241 45.0638 57.9088C45.3554 56.3255 45.704 54.7519 46.0158 53.172C46.2811 51.8283 46.7707 50.4741 46.7311 49.1373C46.6631 46.8436 46.2596 44.5588 45.9783 42.1026ZM41.9061 73.5616C38.9915 73.5616 36.1506 73.5012 33.3131 73.5838C31.5589 73.6345 30.2818 75.1186 30.2867 76.838C30.2922 78.7276 31.7047 80.0797 33.7693 80.0852C40.1256 80.1019 46.4811 80.0922 52.8374 80.0887C53.0325 80.0887 53.227 80.0443 53.4221 80.0207C53.4367 79.9408 53.4513 79.8616 53.4658 79.7818C53.1547 79.6852 52.8492 79.5672 52.5325 79.4964C50.0693 78.947 47.6027 78.4116 45.1388 77.8623C43.179 77.4255 42.1138 76.1943 41.9547 74.2019C41.9402 74.0137 41.9263 73.8248 41.9061 73.5616ZM47.67 57.3484C47.6742 57.3401 47.6318 57.3991 47.6152 57.4651C47.5679 57.6512 47.5214 57.838 47.4915 58.0269C47.1235 60.313 46.079 62.222 44.4138 63.8387C42.17 66.0158 39.9839 68.2526 37.7749 70.4651C37.5978 70.6429 37.4353 70.8345 37.2575 71.029C37.3506 71.0873 37.3888 71.1311 37.4263 71.1311C40.1679 71.1394 42.9096 71.1547 45.6513 71.1276C45.8297 71.1255 46.1061 70.82 46.1652 70.6082C46.495 69.4297 46.727 68.2227 47.0756 67.0498C48.0297 63.8394 48.6172 60.6137 47.67 57.3484ZM69.3214 57.279C69.2908 57.2832 69.261 57.2873 69.2304 57.2915C69.1853 57.6158 69.1374 57.9401 69.095 58.2651C68.8353 60.2734 68.6214 62.2679 69.1943 64.2776C69.7742 66.3109 70.2638 68.372 70.7436 70.4325C70.87 70.9762 71.0693 71.1734 71.6436 71.1665C74.0999 71.1345 76.5575 71.154 79.0138 71.1505C79.2367 71.1505 79.4596 71.1193 79.7964 71.0943C79.5242 70.8075 79.3513 70.6165 79.1686 70.4338C76.8881 68.1505 74.611 65.863 72.3228 63.5873C70.9929 62.2644 70.0742 60.7172 69.6638 58.8797C69.5464 58.347 69.436 57.813 69.3214 57.279ZM53.4068 73.6005C50.3471 73.6005 47.3533 73.6005 44.3638 73.6005C44.3033 74.8352 44.6457 75.2964 45.7672 75.5484C46.5881 75.7332 47.4096 75.9172 48.2318 76.0977C49.9408 76.4734 51.6513 76.847 53.4075 77.2318C53.4068 75.988 53.4068 74.8158 53.4068 73.6005Z" fill="white"/>
<path d="M67.3306 27.4054C67.5778 30.7047 66.7063 33.5359 64.1625 35.6755C62.5403 37.0394 60.6452 37.7332 58.5139 37.7262C55.775 37.7172 53.5105 36.6526 51.7237 34.5936C49.9473 32.5457 49.4542 30.0887 49.6438 27.4123C49.1848 27.4123 48.8292 27.4165 48.4737 27.4116C47.5577 27.3991 47.0938 26.9526 47.0639 26.0436C46.923 21.7797 48.3875 18.2353 51.9299 15.7533C52.9591 15.0325 53.5278 14.4554 53.5792 13.0339C53.6771 10.329 56.0355 8.41164 58.6125 8.50262C61.2737 8.59637 63.4896 10.6366 63.4493 13.3478C63.4306 14.5839 63.941 14.9734 64.7896 15.5519C68.5605 18.1221 70.1153 21.8047 69.9056 26.295C69.8688 27.0762 69.3521 27.5193 68.5702 27.4922C68.1903 27.4783 67.8125 27.4401 67.3306 27.4054ZM51.8542 27.2061C52.0403 28.4811 52.0417 29.8144 52.4487 31.0103C53.3688 33.7179 55.423 35.1755 58.2549 35.3054C60.7466 35.4193 62.6966 34.304 64.032 32.1637C65.0889 30.47 64.9903 28.5832 64.9528 26.7096C64.9493 26.5505 64.7327 26.3721 64.5806 26.2429C63.8868 25.6526 63.1431 25.1151 62.4938 24.4811C62.1091 24.1047 61.8445 24.1408 61.3799 24.3228C59.573 25.0304 57.7556 25.7241 55.9042 26.3026C54.6514 26.6929 53.3362 26.8832 51.8542 27.2061ZM67.5049 24.913C67.3584 21.5866 65.9591 19.0422 63.2 17.3714C59.9618 15.4103 56.6341 15.486 53.4743 17.563C50.8806 19.2679 49.5778 21.763 49.4771 24.9978C50.8167 24.8103 52.0549 24.6811 53.2764 24.4582C56.1549 23.9325 58.9 23.0137 61.4688 21.5873C62.366 21.0894 62.8195 21.2179 63.4702 22.0033C63.7917 22.3915 64.1223 22.7776 64.4862 23.1262C65.323 23.9283 66.2487 24.5943 67.5049 24.913ZM55.891 13.7304C57.6646 13.7304 59.3535 13.7304 61.0834 13.7304C61.1938 12.7353 60.7896 11.9082 59.9195 11.3394C59.016 10.7484 58.0431 10.7346 57.125 11.2971C56.2125 11.8554 55.7841 12.6964 55.891 13.7304Z" fill="white"/>
</svg>
