<svg width="116" height="112" viewBox="0 0 116 112" fill="none" xmlns="http://www.w3.org/2000/svg">
<path d="M0 0H116V112L57.5797 87.6899L0 112V0Z" fill="#BD81CD"/>
<path d="M24.6822 82.0277C24.3968 82.0277 24.1114 82.0277 23.826 82.0277C23.1579 81.5958 23.044 81.0048 23.1787 80.243C23.7086 77.25 24.1669 74.2437 24.6975 71.2506C25.1114 68.9145 25.3885 66.5277 26.0822 64.2736C28.2843 57.1166 34.8489 52.3861 42.3454 52.3499C43.526 52.3444 44.7072 52.3493 45.944 52.3493C45.944 51.8451 45.8954 51.4152 45.9551 51.0006C46.0544 50.3055 45.7732 49.9861 45.144 49.6722C40.8086 47.5076 38.1475 44.0138 37.1301 39.2819C37.0343 38.8374 36.9225 38.6645 36.4378 38.6166C34.3996 38.4152 32.7475 36.884 32.4023 34.9541C32.026 32.8506 33.028 30.8958 34.9683 29.9458C35.1086 29.877 35.2433 29.7951 35.3989 29.7097C35.2662 29.4354 35.1496 29.2034 35.0405 28.9673C33.7482 26.1722 33.0489 23.2638 33.5412 20.1777C34.1725 16.2173 36.1864 13.1722 40.0815 11.9305C42.3468 11.2083 44.6128 10.5201 46.8322 9.65897C47.8093 9.27981 48.9003 9.19231 49.9398 8.97217C52.5558 8.97217 55.1718 8.97217 57.7878 8.97217C57.9197 9.01592 58.0482 9.0805 58.1829 9.09995C64.885 10.0562 69.5905 16.2361 68.6371 22.9083C68.4329 24.3361 68.0197 25.7347 67.6947 27.1444C67.5107 27.9423 67.3086 28.7354 67.1565 29.3569C68.0579 29.8506 68.9461 30.1534 69.5912 30.7291C71.0426 32.0236 71.3739 33.7131 70.7885 35.5472C70.1885 37.427 68.8058 38.3909 66.8933 38.6131C66.4433 38.6652 66.2253 38.7631 66.1739 39.2534C66.1225 39.7437 65.9641 40.227 65.8135 40.7013C64.494 44.8638 61.8544 47.8868 57.9391 49.8118C57.7148 49.9222 57.4079 50.1423 57.3871 50.3381C57.3169 50.9868 57.3607 51.6479 57.3607 52.3749C67.9266 51.6861 75.0176 55.9708 77.9003 66.2951C77.8829 66.3541 77.9072 66.3097 77.9072 66.2652C77.9093 65.5756 77.9086 64.8868 77.9079 64.1972C77.9072 63.1527 78.0392 62.9555 79.0482 62.5374C79.0482 61.8645 79.0183 61.1743 79.0572 60.4888C79.0905 59.909 78.9266 59.4624 78.5426 59.0104C77.619 57.9236 76.8961 56.6645 76.8628 55.2319C76.8051 52.7451 76.7766 50.2388 77.0218 47.7687C77.2391 45.5791 78.4975 43.9868 80.7579 43.4187C81.301 43.2819 81.8683 43.2402 82.4725 43.1479C82.4725 42.8541 82.4725 42.5729 82.4725 42.2916C82.4725 31.7361 82.478 21.1812 82.46 10.6256C82.4586 9.9305 82.6016 9.37356 83.1857 8.97217C83.4711 8.97217 83.7565 8.97217 84.0419 8.97217C84.6225 9.37495 84.769 9.92981 84.7676 10.6256C84.7496 21.2951 84.7551 31.9645 84.7551 42.634C84.7551 42.9152 84.7551 43.1965 84.7551 43.3555C86.0669 43.3555 87.3294 43.2298 88.5579 43.3812C91.1885 43.7062 94.0475 45.5055 93.8968 49.3819C93.8565 50.4256 93.8822 51.4729 93.9037 52.518C93.9607 55.3256 93.0016 57.6715 90.8135 59.4861C90.6391 59.6305 90.4898 59.9062 90.4787 60.1277C90.4391 60.9326 90.4628 61.7402 90.4628 62.5743C91.4176 62.7624 91.6176 63.4027 91.6141 64.2631C91.5933 69.6333 91.5933 75.0041 91.6169 80.3743C91.6197 81.0708 91.4676 81.6229 90.8905 82.0277C90.6051 82.0277 90.3197 82.0277 90.0343 82.0277C89.4537 81.6243 89.3044 81.0708 89.3079 80.3743C89.3322 75.4777 89.3211 70.5805 89.3211 65.684C89.3211 65.434 89.3211 65.1847 89.3211 64.9423C86.2267 64.9423 83.2405 64.9423 80.1885 64.9423C80.1885 65.2333 80.1885 65.4888 80.1885 65.7444C80.1871 70.5937 80.1794 75.443 80.1919 80.2923C80.194 80.9909 80.0718 81.5972 79.4746 82.0284C79.1891 82.0284 78.9037 82.0284 78.6183 82.0284C78.3322 81.368 77.9051 80.7326 77.7829 80.043C77.0697 76 76.3864 71.9506 75.7718 67.8916C74.8801 62.002 71.801 57.8347 66.2516 55.5729C64.8412 54.9979 63.3586 54.7027 61.7905 54.6486C61.3558 57.2187 60.9315 59.743 60.5017 62.2666C60.2954 63.477 59.5905 63.8256 58.5232 63.2388C57.7607 62.8194 57.0093 62.3798 56.3398 61.9986C55.753 63.0527 55.1968 64.0534 54.6857 64.9715C54.9079 65.6569 55.251 66.3506 55.3496 67.077C55.9516 71.4986 56.4926 75.9291 57.0697 80.3541C57.1711 81.1333 56.96 81.7055 56.2141 82.0284C56.0239 82.0284 55.8336 82.0284 55.6433 82.0284C55.3628 81.6458 55.0051 81.2958 54.8239 80.8708C54.6635 80.4937 54.6996 80.0326 54.6461 79.609C54.1426 75.5854 53.6475 71.5604 53.1294 67.5388C52.9975 66.5138 52.4822 66.0319 51.653 66.0395C50.8273 66.0472 50.3308 66.5715 50.2051 67.5701C49.6558 71.9229 49.0947 76.2736 48.5697 80.6291C48.4905 81.2868 48.2253 81.7368 47.6516 82.0284C47.4614 82.0284 47.2711 82.0284 47.0808 82.0284C46.4767 81.6812 46.1516 81.2194 46.2475 80.4645C46.7385 76.6027 47.1739 72.7333 47.6905 68.8749C47.8704 67.5326 47.8378 66.1034 48.7211 65.1027C48.1287 64.0312 47.5767 63.0333 47.0114 62.0111C46.2947 62.4111 45.5037 62.8909 44.6787 63.3027C43.7343 63.7749 43.2391 63.5847 42.976 62.5631C42.6628 61.3486 42.4551 60.1055 42.2357 58.8687C41.9885 57.4736 41.7801 56.0708 41.5523 54.6562C41.3419 54.6562 41.201 54.6472 41.0614 54.6576C34.3704 55.1423 28.7128 60.3923 27.6676 67.0409C26.953 71.5888 26.2079 76.1319 25.4273 80.6687C25.3503 81.15 24.9405 81.5756 24.6822 82.0277ZM65.1364 27.943C65.5169 26.4437 65.8746 25.1458 66.1746 23.834C67.5801 17.6888 63.7829 12.1347 57.5357 11.3437C55.7794 11.1215 53.9746 11.3138 52.1947 11.2465C49.4343 11.1409 46.8787 11.7638 44.4961 13.1659C44.1079 13.3944 43.6128 13.4986 43.1558 13.543C40.4787 13.8041 38.319 14.9763 36.9225 17.2819C34.6669 21.0055 35.7697 24.668 37.2378 28.3951C37.3412 28.2562 37.3773 28.2263 37.3885 28.1895C37.4426 28.0076 37.4898 27.8236 37.5405 27.6409C38.4898 24.2083 40.1836 21.1979 42.6593 18.6347C43.3864 17.8812 44.0711 17.9152 44.6843 18.7354C46.1121 20.6458 48.0148 21.5465 50.3933 21.5347C54.1482 21.5152 57.9037 21.5437 61.6586 21.5166C62.36 21.5118 62.7878 21.7729 63.0322 22.3972C63.335 23.1701 63.6371 23.9437 63.9315 24.7201C64.3148 25.7326 64.6905 26.7499 65.1364 27.943ZM39.2169 31.8277C39.2169 33.9194 39.0329 35.9965 39.2516 38.0305C39.8919 43.9861 45.0843 48.6965 51.0489 48.9145C57.2558 49.1416 62.8086 44.9687 63.8725 38.9999C64.2801 36.7138 64.0912 34.3208 64.1704 31.9763C64.1718 31.9388 64.1225 31.8993 64.0787 31.834C63.935 31.8229 63.7718 31.7979 63.6093 31.7999C63.4294 31.8027 63.2496 31.8298 63.0635 31.8465C63.0635 32.0437 63.0635 32.1854 63.0635 32.327C63.0565 35.0673 60.9565 37.334 58.2725 37.4986C55.528 37.6666 53.1516 35.6826 52.8183 32.943C52.6975 31.952 52.3954 31.7194 51.3808 31.8215C50.8044 31.8791 50.5023 32.0486 50.469 32.7659C50.3503 35.2923 48.2197 37.352 45.7037 37.4993C43.1391 37.6499 40.8635 35.9229 40.3614 33.4194C40.2565 32.8965 40.2371 32.3562 40.1787 31.8277C39.819 31.8277 39.4947 31.8277 39.2169 31.8277ZM88.1739 62.6076C88.1739 61.6263 88.2003 60.7041 88.1655 59.7847C88.1364 59.0111 88.3843 58.4645 89.0239 57.9631C90.7593 56.6041 91.7871 54.8749 91.6204 52.5562C91.5371 51.3972 91.5947 50.2277 91.6086 49.0631C91.6253 47.7062 90.9919 46.7465 89.8183 46.1381C88.5468 45.4791 87.1947 45.3618 85.7982 45.6409C84.4815 45.9034 83.8954 46.4013 83.7739 47.7451C83.6308 49.3256 83.6364 50.9215 83.6322 52.5104C83.6308 53.1138 84.0482 53.4249 84.6523 53.493C85.5003 53.5888 85.9482 54.0534 85.8898 54.7416C85.835 55.3868 85.3141 55.7736 84.5016 55.7729C82.9641 55.7708 81.4391 54.4555 81.3829 52.8111C81.2996 50.3847 80.9954 47.9152 82.0176 45.5701C80.4725 45.5541 79.3968 46.4937 79.2197 48.3083C79.0398 50.1458 79.0968 52.0062 79.0433 53.8562C78.9961 55.4937 79.6232 56.8777 80.7037 58.0499C81.1607 58.5458 81.3635 59.0486 81.3412 59.7083C81.3086 60.6701 81.3329 61.6347 81.3329 62.609C83.651 62.6076 85.8593 62.6076 88.1739 62.6076ZM63.2419 29.4493C62.6114 27.759 61.9614 26.0826 61.3683 24.3861C61.2023 23.9118 60.969 23.7979 60.4968 23.8006C57.0016 23.8201 53.5065 23.8243 50.0114 23.8062C47.7294 23.7944 45.7426 22.9944 44.0572 21.452C43.9072 21.3152 43.7482 21.1888 43.5676 21.0354C41.4648 23.5208 40.1121 26.2972 39.4822 29.4729C40.3586 29.5534 41.0433 29.5999 41.7176 28.8013C43.319 26.9062 46.2114 26.6361 48.2565 28.0618C48.91 28.5173 49.4808 29.0916 50.1225 29.6402C50.9565 29.6402 51.9676 29.5895 52.969 29.6652C53.3725 29.6958 53.5767 29.6624 53.8322 29.327C55.8558 26.6749 59.5641 26.509 61.7593 28.9916C62.1878 29.4756 62.5975 29.6187 63.2419 29.4493ZM45.3843 35.2208C46.953 35.2131 48.2287 33.927 48.2225 32.3597C48.2162 30.7944 46.9315 29.5215 45.3593 29.5215C43.7954 29.5215 42.5114 30.8166 42.5225 32.3826C42.5336 33.9541 43.819 35.2284 45.3843 35.2208ZM57.9211 35.2208C59.4905 35.2229 60.7753 33.9465 60.7794 32.3798C60.7836 30.8138 59.5079 29.5312 57.9364 29.5215C56.3725 29.5111 55.078 30.7979 55.0794 32.3618C55.0801 33.9347 56.3565 35.2187 57.9211 35.2208ZM48.2273 50.8104C48.2273 51.3062 48.2107 51.7083 48.2322 52.1083C48.251 52.4534 48.185 52.9138 48.376 53.1201C49.419 54.2458 50.5301 55.3083 51.6655 56.4409C52.7794 55.3229 53.851 54.2527 54.9121 53.1729C55.001 53.0826 55.0641 52.9263 55.0669 52.7986C55.0822 52.1611 55.0739 51.5229 55.0739 50.8083C52.7857 51.3215 50.5516 51.3201 48.2273 50.8104ZM49.7635 57.818C48.7093 56.7548 47.7121 55.7458 46.7086 54.743C46.6489 54.6833 46.5419 54.6409 46.4565 54.6402C45.6162 54.6326 44.7753 54.6354 43.869 54.6354C44.2086 56.6777 44.528 58.6027 44.8635 60.6208C46.5433 59.6597 48.1204 58.7576 49.7635 57.818ZM59.4336 54.6319C59.0926 54.6319 58.8766 54.6631 58.6725 54.627C57.253 54.3743 56.176 54.8624 55.3065 56.0104C54.8183 56.6548 54.1787 57.1847 53.5697 57.8048C55.2621 58.7708 56.8433 59.6736 58.4996 60.6187C58.8141 58.5993 59.1169 56.6618 59.4336 54.6319ZM54.0558 60.7541C53.3385 60.3402 52.6086 59.9104 51.8676 59.5006C51.7628 59.443 51.5746 59.4326 51.4732 59.4881C50.7114 59.9034 49.9607 60.3409 49.228 60.759C49.8586 63.0638 50.4704 63.7923 51.703 63.7618C52.91 63.7312 53.56 62.9131 54.0558 60.7541ZM36.8058 36.3208C36.8058 34.9756 36.81 33.6284 36.803 32.2819C36.801 31.8722 36.5871 31.7638 36.1919 31.8576C35.1169 32.1138 34.3197 33.2124 34.4461 34.3006C34.5891 35.5263 35.5308 36.352 36.8058 36.3208ZM66.5218 36.3159C67.7871 36.302 68.735 35.3541 68.7773 34.127C68.8155 33.0111 67.7885 31.7472 66.5218 31.8437C66.5218 33.3326 66.5218 34.8243 66.5218 36.3159Z" fill="white"/>
<path d="M51.6767 45.5022C50.4343 45.4654 49.4135 45.0848 48.5614 44.2924C47.9968 43.7674 47.933 43.0952 48.3809 42.5945C48.8114 42.1133 49.4441 42.0924 50.0343 42.5404C51.2093 43.4306 52.0982 43.4355 53.2441 42.5577C53.842 42.0994 54.451 42.1056 54.9003 42.5737C55.3482 43.0417 55.3337 43.6591 54.8031 44.2251C53.9392 45.148 52.81 45.4438 51.6767 45.5022Z" fill="white"/>
</svg>
