<svg width="116" height="112" viewBox="0 0 116 112" fill="none" xmlns="http://www.w3.org/2000/svg">
<path d="M0 0H116V112L57.5797 87.6899L0 112V0Z" fill="#A9ADBC"/>
<path d="M29.6986 38.7555C29.6986 39.1472 29.6986 39.4166 29.6986 39.6861C29.6986 44.9736 29.6917 50.2611 29.7153 55.5486C29.7167 55.8847 29.8584 56.3368 30.0993 56.5361C32.1743 58.2521 32.7917 60.5604 31.8549 63.1243C31.7056 63.534 31.675 64.0458 31.7646 64.4736C32.2875 66.9757 32.8632 69.4666 33.4181 71.9618C33.5528 72.568 33.6771 73.1875 33.1521 73.6812C32.6111 74.1896 32.0007 74.2014 31.3979 73.8007C29.1868 72.3291 26.982 72.3347 24.7716 73.7965C24.2306 74.1541 23.6611 74.1979 23.1396 73.7986C22.6229 73.4035 22.5153 72.8673 22.6993 72.2298C23.4618 69.5875 24.2104 66.941 24.9354 64.2882C25.0229 63.9687 25.0354 63.5646 24.9188 63.2639C23.9896 60.8785 24.4077 57.9854 26.7111 56.4896C26.891 56.3729 27.0125 56.0312 27.0132 55.7937C27.0299 49.9222 27.0334 44.05 27.0028 38.1785C27.0014 37.9139 26.7209 37.5257 26.4709 37.4097C25.2125 36.8243 23.9257 36.2979 22.6396 35.7736C21.741 35.4076 21.1153 34.8326 21.1056 33.8076C21.0959 32.7826 21.7097 32.1965 22.6049 31.8187C34.1716 26.9361 45.7375 22.0514 57.2979 17.1541C58.0709 16.8271 58.7868 16.8423 59.5493 17.1625C71.125 22.0236 82.7035 26.8791 94.2861 31.7236C95.2077 32.109 95.8855 32.6597 95.8945 33.7229C95.9035 34.7875 95.2403 35.3604 94.3181 35.7465C90.1667 37.4826 86.0278 39.2493 81.8709 40.9715C81.2535 41.2271 81.0035 41.5201 81.0091 42.2298C81.0473 46.9882 81.0077 51.7472 81.0389 56.5055C81.0514 58.4278 80.3035 59.8361 78.6834 60.8979C66.2792 69.0264 50.2313 68.9778 37.9132 60.7514C36.475 59.791 35.7827 58.4736 35.7868 56.7472C35.7986 51.8493 35.7792 46.9514 35.8063 42.0535C35.8097 41.4812 35.625 41.2271 35.1118 41.0215C33.3403 40.3111 31.5875 39.5507 29.6986 38.7555ZM78.3577 42.5097C77.9882 42.6507 77.707 42.7493 77.4334 42.8646C71.5195 45.3569 65.6028 47.8423 59.6979 50.3548C58.8174 50.7291 58.0236 50.7382 57.1361 50.359C51.2604 47.8472 45.3709 45.3687 39.4854 42.8812C39.1729 42.7493 38.8521 42.6354 38.4653 42.4868C38.4653 47.4132 38.4632 52.1993 38.4674 56.9854C38.4681 57.7687 38.9334 58.2576 39.5611 58.6396C52.1021 66.2729 64.6459 66.2896 77.2021 58.6708C78.0257 58.1715 78.3785 57.5125 78.3702 56.543C78.3389 52.8416 78.3577 49.1396 78.3577 45.4375C78.3577 44.4972 78.3577 43.5569 78.3577 42.5097ZM24.8903 33.7673C25.1403 33.9014 25.2097 33.9458 25.2854 33.9778C36.1604 38.5785 47.0341 43.1819 57.9195 47.7576C58.2424 47.893 58.7341 47.8347 59.0736 47.6923C68.3743 43.7916 77.6653 39.8694 86.957 35.9486C88.6389 35.2389 90.3174 34.5208 92.1132 33.7576C91.8403 33.6208 91.7035 33.5423 91.5591 33.4819C80.6959 28.9271 69.8334 24.3694 58.9598 19.8382C58.6334 19.7021 58.1424 19.7354 57.807 19.8764C48.5854 23.7493 39.3743 27.6465 30.1618 31.5403C28.4556 32.2611 26.75 32.9819 24.8903 33.7673ZM26.0695 70.1514C27.5396 70.1514 28.8771 70.1514 30.266 70.1514C29.9431 68.7187 29.6111 67.2437 29.2827 65.7875C28.5903 65.7875 27.991 65.7875 27.3118 65.7875C26.9118 67.1937 26.4966 68.6514 26.0695 70.1514ZM29.7535 60.9409C29.4604 60.2548 29.257 59.5972 28.9111 59.0243C28.6313 58.5604 28.1861 58.6055 27.7952 59.0028C26.9549 59.8569 26.95 61.9854 27.7868 62.8521C28.1716 63.2507 28.6146 63.3125 28.9014 62.8444C29.25 62.2743 29.4584 61.618 29.7535 60.9409Z" fill="white"/>
<path d="M76.3814 52.547C76.9432 55.7276 75.3613 57.5553 72.5613 58.6269C71.9398 58.8644 71.3446 59.1706 70.7196 59.397C70.0217 59.6498 69.33 59.3491 69.0405 58.7234C68.7321 58.0574 68.9794 57.3262 69.6932 56.9706C70.6856 56.4762 71.6967 56.0199 72.7044 55.5567C73.4134 55.231 73.7467 54.7095 73.7189 53.9109C73.6835 52.8838 73.7016 51.8546 73.7134 50.8269C73.7245 49.8463 74.2342 49.2477 75.0384 49.2394C75.8523 49.2303 76.3662 49.8206 76.38 50.7963C76.3884 51.3796 76.3814 51.963 76.3814 52.547Z" fill="white"/>
<path d="M58.4171 24.1665C58.7838 24.2755 59.14 24.3464 59.4678 24.4839C65.4907 27.0047 71.5081 29.5373 77.5317 32.0561C78.1796 32.3269 78.7227 32.6693 78.8713 33.4103C79.0504 34.3054 78.6449 34.9971 77.647 35.4221C74.349 36.8262 71.0463 38.2165 67.7435 39.6096C65.0303 40.754 62.3074 41.8776 59.6046 43.0464C58.8046 43.3922 58.0893 43.379 57.2865 43.0359C51.3845 40.5151 45.4713 38.0193 39.5546 35.5325C38.7581 35.1978 38.1164 34.7887 38.1018 33.8207C38.0865 32.8089 38.7484 32.3853 39.5747 32.038C45.5171 29.5415 51.4518 27.0241 57.3907 24.5186C57.7178 24.3797 58.065 24.2859 58.4171 24.1665ZM42.3484 33.77C42.6518 33.9221 42.7685 33.9894 42.8921 34.0415C47.9275 36.1714 52.9602 38.3082 58.0074 40.4089C58.3081 40.5339 58.7657 40.4707 59.0852 40.338C64.0289 38.2762 68.9615 36.1887 73.8956 34.104C74.1011 34.0172 74.2928 33.8964 74.6032 33.7311C69.2574 31.4866 64.0671 29.2991 58.8629 27.145C58.5852 27.0297 58.1609 27.1123 57.8595 27.2366C55.3192 28.2839 52.7928 29.3623 50.2615 30.4311C47.6852 31.5186 45.1081 32.6061 42.3484 33.77Z" fill="white"/>
</svg>
