<svg width="116" height="112" viewBox="0 0 116 112" fill="none" xmlns="http://www.w3.org/2000/svg">
<path d="M0 0H116V112L57.5797 87.6899L0 112V0Z" fill="#67B96F"/>
<g clip-path="url(#clip0_2224_127229)">
<path d="M21.0007 72.5043C21.3438 71.907 21.8604 71.7348 22.5361 71.7543C23.9465 71.7945 25.359 71.7668 26.8667 71.7668C26.8667 71.407 26.8667 71.1001 26.8667 70.7925C26.8667 57.8779 26.8653 44.964 26.8681 32.0494C26.8688 29.7202 28.1167 27.9334 30.1917 27.3445C30.7236 27.1938 31.2972 27.1327 31.8521 27.1307C36.2708 27.114 40.6896 27.1195 45.1083 27.1258C45.3972 27.1265 45.7021 27.1425 45.9701 27.2355C46.5014 27.4195 46.7167 27.8439 46.6458 28.3918C46.5785 28.9147 46.2569 29.2223 45.7403 29.298C45.5007 29.3334 45.2528 29.3175 45.009 29.3175C40.6882 29.3182 36.3667 29.3168 32.0458 29.3189C29.95 29.3195 29.0639 30.2084 29.0639 32.3064C29.0632 45.1716 29.0639 58.0376 29.0639 70.9029C29.0639 71.1647 29.0639 71.4265 29.0639 71.7272C30.3444 71.7272 31.5521 71.7272 32.6646 71.7272C32.7743 70.6022 32.7708 69.4959 33.0035 68.4425C34.0681 63.6258 38.6875 60.5439 43.5632 61.3091C43.7938 61.3452 44.1743 61.2508 44.2875 61.0834C46.3188 58.0807 49.0701 57.082 52.5521 58.0383C52.5951 58.0501 52.6465 58.032 52.6938 58.0279C53.6618 54.6737 55.6333 52.9723 58.5347 52.9876C61.4083 53.0029 63.3583 54.7057 64.2569 57.8612C65.5299 57.8376 66.7771 57.6654 67.9806 57.8251C69.9688 58.089 71.4889 59.2244 72.566 60.9126C72.7931 61.2682 72.9951 61.407 73.4368 61.3348C79.4528 60.3508 84.7445 65.2709 84.2188 71.3411C84.209 71.457 84.2174 71.5744 84.2174 71.7286C85.4486 71.7286 86.6556 71.7286 87.9368 71.7286C87.9368 71.4286 87.9368 71.1668 87.9368 70.905C87.9368 58.0147 87.9368 45.1251 87.9361 32.2348C87.9361 30.2432 87.0181 29.3209 85.0278 29.3195C80.6826 29.3168 76.3368 29.3188 71.9917 29.3182C71.7479 29.3182 71.5 29.3341 71.2604 29.2987C70.7438 29.2223 70.4222 28.9147 70.3542 28.3925C70.2833 27.8445 70.4958 27.4161 71.0299 27.2369C71.3215 27.139 71.6521 27.1265 71.9653 27.1258C76.3104 27.1188 80.6563 27.1182 85.0014 27.1223C88.2424 27.1251 90.1333 29.0237 90.1333 32.2695C90.134 45.1105 90.134 57.9515 90.134 70.7932C90.134 71.0834 90.134 71.3737 90.134 71.7675C91.6056 71.7675 93.0361 71.7959 94.4653 71.755C95.141 71.7355 95.6569 71.9091 96 72.505C96 73.6279 96 74.7508 96 75.8744C95.3139 77.9647 93.834 78.6834 91.6889 78.68C69.5389 78.6439 47.3889 78.6577 25.2389 78.6577C22.7896 78.6577 21.9549 78.1098 21 75.8744C21.0007 74.7501 21.0007 73.6272 21.0007 72.5043ZM81.9465 71.7661C81.9896 71.3077 82.0625 70.9001 82.0618 70.4932C82.05 65.7945 77.559 62.4029 73.0306 63.664C71.8333 63.9973 71.5819 63.8772 71.0646 62.723C69.7951 59.8897 66.4306 59.0043 63.8771 60.8487C63.3813 61.207 62.8951 61.4293 62.3424 61.0445C61.825 60.6841 61.8271 60.182 61.9667 59.6057C62.3306 58.1001 61.7667 56.6501 60.5458 55.8112C59.3278 54.9737 57.7007 54.9668 56.484 55.7945C55.2431 56.639 54.6632 58.082 55.0257 59.5716C55.1715 60.1723 55.1861 60.6973 54.6257 61.0654C54.0597 61.4369 53.5819 61.1786 53.0924 60.8265C50.5521 58.9966 47.1764 59.9133 45.9208 62.7584C45.434 63.8612 45.1563 63.9772 44.0028 63.6786C41.109 62.9307 38.6222 63.6668 36.659 65.9029C35.2042 67.5605 34.6785 69.5314 35.0764 71.7709C35.9007 71.7709 36.6569 71.7439 37.4097 71.7793C38.0306 71.8084 38.4007 72.1779 38.4368 72.8043C38.4729 73.4411 38.1069 73.805 37.5146 73.9362C37.2806 73.9883 37.0285 73.9626 36.7847 73.9626C32.5368 73.964 28.2889 73.9633 24.041 73.9633C23.7799 73.9633 23.5194 73.9633 23.2708 73.9633C23.0285 75.6862 23.2465 76.4827 25.3472 76.48C47.4903 76.4459 69.634 76.4591 91.7778 76.4584C92.0708 76.4584 92.3674 76.4786 92.6556 76.4411C93.2833 76.3598 93.6944 75.9932 93.7778 75.3661C93.8375 74.9202 93.7896 74.4598 93.7896 73.9633C93.4181 73.9633 93.1285 73.9633 92.8389 73.9633C76.1396 73.9633 59.441 73.9633 42.7417 73.9619C42.4493 73.9619 42.1472 73.9862 41.8667 73.9251C41.2986 73.8008 40.9563 73.4112 40.9771 72.832C40.9993 72.2258 41.3549 71.8404 41.984 71.7744C42.2257 71.7494 42.4715 71.7661 42.716 71.7661C55.4847 71.7661 68.2528 71.7661 81.0215 71.7661C81.309 71.7661 81.5993 71.7661 81.9465 71.7661Z" fill="white"/>
<path d="M64.3028 43.6014C63.5437 44.4917 63.1194 45.3479 63.5951 46.4979C63.9076 47.2549 64.0326 48.0931 64.2097 48.9021C64.4319 49.9174 64.0111 50.4688 62.9653 50.475C59.9882 50.4931 57.0111 50.4931 54.034 50.475C52.9909 50.4688 52.5715 49.9132 52.7951 48.8986C52.9736 48.0903 53.0965 47.2514 53.4104 46.4945C53.8889 45.3417 53.4514 44.4903 52.7118 43.6091C51.4271 44.332 50.1368 45.0577 48.8472 45.7841C47.6368 46.466 46.4319 47.1584 45.2152 47.8285C44.1236 48.4299 43.3229 47.9709 43.3034 46.7354C43.2875 45.7111 43.2916 44.6854 43.3034 43.6611C43.3173 42.4146 43.7736 41.3459 44.5791 40.3959C46.1402 38.5535 47.6896 36.6993 49.2069 34.8209C49.4173 34.5597 49.5402 34.1139 49.4986 33.7799C48.2965 24.2479 50.8277 15.9236 57.4861 8.92294C58.2361 8.13405 58.7694 8.13822 59.5243 8.92433C65.4152 15.0584 68.093 22.4042 67.7611 30.8716C67.7222 31.8681 67.5402 32.8591 67.493 33.8556C67.4777 34.1778 67.5944 34.5799 67.7951 34.8278C69.2861 36.6653 70.793 38.491 72.3368 40.2841C73.2944 41.3959 73.7521 42.6466 73.709 44.1056C73.6826 45.0077 73.7229 45.9118 73.6986 46.8139C73.6673 47.9591 72.8541 48.4236 71.85 47.8625C69.3396 46.4584 66.8409 45.0361 64.3028 43.6014ZM58.5527 19.9271C56.9187 19.9271 55.284 19.9424 53.6507 19.9174C53.2125 19.9104 53.0159 20.0459 52.8736 20.4695C52.0264 22.9799 51.5284 25.5521 51.418 28.1993C51.1986 33.4681 52.3708 38.4 54.9687 42.9959C55.2166 43.4347 55.4944 43.6042 56.0007 43.5945C57.6833 43.5632 59.3666 43.5695 61.0493 43.5917C61.4854 43.5972 61.7632 43.4875 61.9868 43.0847C66.0034 35.841 66.6826 28.291 64.1139 20.4285C63.9812 20.0222 63.7833 19.9146 63.3826 19.9195C61.7722 19.9389 60.1625 19.9271 58.5527 19.9271ZM62.9937 17.7021C61.8132 15.2042 60.3576 13.0264 58.5 11.0389C56.6382 13.0549 55.1646 15.2229 54.0173 17.7021C57.0305 17.7021 59.9458 17.7021 62.9937 17.7021ZM51.7375 41.6271C51.2027 40.1389 50.6896 38.7097 50.1507 37.2097C49.9646 37.4146 49.8014 37.5813 49.6521 37.7597C48.5882 39.0306 47.5708 40.3445 46.4507 41.5632C45.5132 42.5841 45.3923 43.7382 45.5576 45.1153C47.659 43.9292 49.7027 42.7757 51.7375 41.6271ZM65.2653 41.6243C67.2979 42.7695 69.3403 43.9202 71.4111 45.0868C71.6771 43.4945 71.484 42.7153 70.5819 41.6271C69.9444 40.8584 69.3021 40.0945 68.6611 39.3285C68.075 38.6278 67.4875 37.9278 66.8625 37.182C66.3153 38.7063 65.8014 40.1341 65.2653 41.6243ZM55.2347 48.225C57.4548 48.225 59.575 48.225 61.768 48.225C61.5861 47.4736 61.4486 46.7861 61.2361 46.1216C61.1868 45.9667 60.8868 45.7986 60.6993 45.7952C59.2402 45.7681 57.7805 45.7653 56.3222 45.7972C56.1236 45.8014 55.8139 46 55.7555 46.175C55.5437 46.8153 55.4152 47.4827 55.2347 48.225Z" fill="white"/>
<path d="M58.4884 32.839C55.9384 32.8341 53.8842 30.7841 53.8828 28.2425C53.8807 25.7105 55.9453 23.6258 58.4731 23.6071C61.021 23.5883 63.137 25.7105 63.1148 28.2633C63.0932 30.8147 61.0411 32.8439 58.4884 32.839ZM58.5286 30.6411C59.8717 30.6279 60.9384 29.5397 60.9182 28.2029C60.8988 26.8737 59.7849 25.7834 58.4689 25.8043C57.1432 25.8251 56.0648 26.9355 56.0807 28.2626C56.0967 29.6057 57.1766 30.6543 58.5286 30.6411Z" fill="white"/>
</g>
<defs>
<clipPath id="clip0_2224_127229">
<rect width="75" height="75" fill="white" transform="translate(21 6)"/>
</clipPath>
</defs>
</svg>
