<svg width="116" height="112" viewBox="0 0 116 112" fill="none" xmlns="http://www.w3.org/2000/svg">
<path d="M0 0H116V112L57.5797 87.6899L0 112V0Z" fill="#FFCC65"/>
<g clip-path="url(#clip0_2224_127231)">
<path d="M57.769 80.0003C57.0947 79.6753 56.3496 79.4455 55.7607 79.0066C54.4135 78.0024 53.9822 76.5524 54.1037 74.9239C54.1468 74.3455 54.0003 74.06 53.3843 73.8295C51.9489 73.2927 51.2003 72.1642 51.1656 70.6156C51.1211 68.6406 51.2017 66.6566 51.0517 64.6906C50.6954 60.0184 48.6572 56.142 45.1628 53.0503C42.0086 50.26 39.7982 46.8913 38.6579 42.8316C35.3086 30.9066 43.2843 18.7205 55.5739 16.983C66.7246 15.4059 77.0635 22.9142 78.801 34.0538C79.9475 41.4024 77.6461 47.6934 72.1579 52.735C69.8503 54.8545 68.0149 57.2573 66.9204 60.2038C66.1996 62.1448 65.8593 64.1545 65.8461 66.2212C65.8364 67.71 65.8593 69.1989 65.835 70.6878C65.8107 72.1441 64.9412 73.3975 63.5544 73.8621C62.9961 74.0489 62.8572 74.3135 62.8989 74.851C63.0364 76.6517 62.5135 78.1962 60.9531 79.2288C60.4364 79.5705 59.8107 79.7475 59.235 80.0003C58.7454 80.0003 58.2572 80.0003 57.769 80.0003ZM56.9961 65.2718C57.0128 65.0795 57.0315 64.9593 57.0315 64.8392C57.0329 58.0038 57.0378 51.1677 57.0162 44.3323C57.0156 44.0392 56.8343 43.6809 56.6232 43.4649C55.0378 41.8399 53.4142 40.2517 51.8281 38.6281C51.551 38.3441 51.2919 37.9691 51.201 37.5941C51.0419 36.9385 51.3281 36.385 51.9371 36.0691C52.6058 35.7218 53.2176 35.8781 53.7392 36.3968C55.1412 37.7913 56.5378 39.192 57.9378 40.5878C58.1197 40.7691 58.3135 40.9385 58.5926 41.1982C58.8301 40.908 58.9996 40.6642 59.2051 40.4573C60.5461 39.1052 61.8968 37.7628 63.2412 36.4142C63.6926 35.9614 64.2642 35.6989 64.8267 35.9941C65.2322 36.2066 65.619 36.6468 65.7864 37.0753C66.0197 37.6718 65.6461 38.1871 65.2051 38.6246C63.61 40.2059 62.0357 41.808 60.4308 43.3795C60.0878 43.7149 59.9586 44.0545 59.9593 44.5295C59.9732 51.1941 59.9683 57.8593 59.9697 64.5239C59.9697 64.76 59.9906 64.9962 60.0031 65.2552C60.9919 65.2552 61.9287 65.2552 62.8183 65.2552C63.0725 63.8337 63.235 62.4489 63.5746 61.1087C64.6642 56.8087 67.0857 53.3621 70.3489 50.3913C74.7357 46.3968 76.6482 41.3232 76.0274 35.4455C74.9669 25.4038 65.8704 18.4691 55.8565 19.9184C45.001 21.4864 38.1544 32.8802 41.8558 43.2121C42.9336 46.2198 44.7128 48.7337 47.1086 50.8406C50.4544 53.783 52.6357 57.4378 53.6024 61.7913C53.8544 62.9267 53.9676 64.0927 54.1489 65.2718C55.0864 65.2718 56.0072 65.2718 56.9961 65.2718ZM54.1017 68.2837C54.1017 69.0677 54.0503 69.8218 54.1322 70.5607C54.1579 70.7885 54.5454 71.1503 54.7725 71.1545C57.2558 71.1975 59.7406 71.1975 62.2239 71.1545C62.4531 71.1503 62.844 70.7899 62.8697 70.5621C62.9531 69.8232 62.901 69.0691 62.901 68.2837C59.944 68.2837 57.06 68.2837 54.1017 68.2837ZM57.0378 74.158C57.0926 75.1788 56.726 76.2364 57.8058 76.8684C58.3412 77.1823 58.8989 77.1274 59.3822 76.7448C60.2711 76.0413 59.8954 75.0732 59.9614 74.158C58.9586 74.158 58.0412 74.158 57.0378 74.158Z" fill="white"/>
<path d="M58.9413 5.00021C59.7323 5.42868 60.0149 6.08007 59.9857 6.98285C59.9309 8.68493 59.9746 10.3905 59.9677 12.0947C59.9635 13.171 59.4121 13.803 58.5003 13.803C57.5885 13.803 57.0399 13.1717 57.0357 12.0933C57.0295 10.3891 57.0732 8.68423 57.0177 6.98146C56.9885 6.07798 57.2677 5.4259 58.0621 4.99951C58.3552 5.00021 58.6482 5.00021 58.9413 5.00021Z" fill="white"/>
<path d="M78.5625 24.7122C78.8396 24.3421 79.0403 23.8484 79.4063 23.6227C81.0826 22.59 82.7965 21.6164 84.5167 20.656C85.2681 20.2365 86.0819 20.4754 86.4917 21.1511C86.9194 21.856 86.734 22.7192 85.9715 23.174C84.2806 24.1838 82.5799 25.181 80.8507 26.1234C79.8188 26.6859 78.6785 25.9539 78.5625 24.7122Z" fill="white"/>
<path d="M38.4469 24.7602C38.2983 25.9282 37.2018 26.6824 36.2455 26.1692C34.4462 25.2039 32.6872 24.1609 30.94 23.1025C30.2483 22.6838 30.1094 21.8497 30.5004 21.1754C30.8865 20.5102 31.6886 20.2206 32.3983 20.6115C34.1657 21.5858 35.9198 22.5886 37.6372 23.6477C37.999 23.8706 38.1816 24.3817 38.4469 24.7602Z" fill="white"/>
<path d="M85.0473 54.2449C84.9174 54.1935 84.6111 54.1102 84.3438 53.9581C82.7577 53.0567 81.1764 52.1463 79.6014 51.2247C78.7181 50.7081 78.4514 49.9025 78.8806 49.14C79.307 48.3824 80.1625 48.1754 81.0271 48.6657C82.6778 49.6011 84.323 50.5477 85.9549 51.5157C86.6174 51.9088 86.8368 52.5282 86.6452 53.2004C86.4618 53.8421 85.907 54.2525 85.0473 54.2449Z" fill="white"/>
<path d="M38.4454 49.9661C38.1752 50.3418 37.985 50.8459 37.6211 51.0702C35.9239 52.1168 34.1891 53.1043 32.4468 54.0737C31.7134 54.4814 30.8752 54.2008 30.4891 53.5112C30.0975 52.8119 30.285 51.98 31.0155 51.5446C32.7072 50.5348 34.4079 49.5369 36.135 48.5897C37.1641 48.0251 38.3134 48.7355 38.4454 49.9661Z" fill="white"/>
<path d="M30.5623 35.8988C31.0748 35.8988 31.588 35.8752 32.0984 35.9044C32.8838 35.9488 33.431 36.5009 33.4761 37.2468C33.5234 38.0377 33.0331 38.7391 32.2386 38.7905C31.122 38.8627 29.9942 38.8586 28.8768 38.7891C28.1331 38.7433 27.5963 38.0245 27.6178 37.3141C27.6407 36.5593 28.2324 35.9488 29.0255 35.9037C29.5366 35.8752 30.0498 35.8988 30.5623 35.8988Z" fill="white"/>
<path d="M44.0437 64.2945C42.7757 64.3237 42.0041 63.2146 42.4757 62.2438C42.9534 61.2598 43.5236 60.3153 44.1222 59.398C44.5416 58.7556 45.3583 58.641 46.0097 59.0223C46.6264 59.3834 46.9458 60.1362 46.6159 60.7903C46.1021 61.8112 45.5243 62.8063 44.8909 63.757C44.6896 64.0591 44.2243 64.1862 44.0437 64.2945Z" fill="white"/>
<path d="M74.6623 62.8358C74.6172 63.5407 74.2846 64.0039 73.6297 64.2178C72.9943 64.4254 72.4172 64.2483 72.0727 63.722C71.4595 62.7858 70.9005 61.8081 70.3922 60.8108C70.0741 60.1865 70.3498 59.4504 70.913 59.0706C71.4825 58.6865 72.3339 58.6747 72.7137 59.2254C73.4151 60.2435 73.9908 61.349 74.6047 62.4268C74.6714 62.5428 74.6471 62.7122 74.6623 62.8358Z" fill="white"/>
<path d="M86.4378 38.8271C85.9503 38.8271 85.4607 38.8514 84.9746 38.8215C84.0836 38.7681 83.5045 38.1486 83.5239 37.3104C83.542 36.5035 84.1197 35.9215 84.9864 35.9C85.9614 35.875 86.9378 35.875 87.9128 35.9007C88.7524 35.9229 89.367 36.5431 89.3857 37.3222C89.4038 38.0917 88.8017 38.7535 87.9739 38.816C87.4649 38.8542 86.9503 38.8229 86.4378 38.8229C86.4378 38.825 86.4378 38.8257 86.4378 38.8271Z" fill="white"/>
<path d="M45.1283 16.0038C44.7671 15.7482 44.3005 15.5656 44.0665 15.2232C43.4915 14.3809 42.9977 13.4781 42.5199 12.5739C42.1255 11.8267 42.3901 10.9976 43.0769 10.6087C43.7741 10.2142 44.5859 10.4052 45.0477 11.1399C45.579 11.9851 46.0901 12.8469 46.5428 13.7364C47.0762 14.7851 46.3526 15.9142 45.1283 16.0038Z" fill="white"/>
<path d="M74.6569 12.0553C74.6159 12.174 74.5569 12.4657 74.4201 12.7143C73.9861 13.5046 73.5354 14.2858 73.0673 15.056C72.5736 15.8692 71.7361 16.1164 71.009 15.6928C70.2777 15.2671 70.0701 14.4247 70.5263 13.5977C70.9847 12.7657 71.4583 11.9407 71.9583 11.1324C72.3312 10.5289 72.9013 10.2963 73.5965 10.4713C74.2388 10.6345 74.6555 11.2129 74.6569 12.0553Z" fill="white"/>
</g>
<defs>
<clipPath id="clip0_2224_127231">
<rect width="75" height="75" fill="white" transform="translate(21 5)"/>
</clipPath>
</defs>
</svg>
