<svg width="116" height="112" viewBox="0 0 116 112" fill="none" xmlns="http://www.w3.org/2000/svg">
<path d="M0 0H116V112L57.5797 87.6899L0 112V0Z" fill="#BD81CD"/>
<path d="M48.6786 50.9916C49.855 48.0923 50.8154 45.3464 52.0654 42.7402C53.6876 39.3569 54.2411 35.8839 54.1404 32.1409C53.9592 25.4068 54.089 18.6638 54.0897 11.9249C54.0897 11.6805 54.0786 11.4353 54.0994 11.193C54.1543 10.5562 54.5307 10.2166 55.1494 10.195C55.7717 10.1728 56.1828 10.5006 56.2661 11.1221C56.3244 11.5541 56.2904 11.9992 56.2911 12.4388C56.2932 14.1853 58.0453 15.5145 59.7099 14.8985C60.6994 14.5325 61.5967 13.9013 62.5071 13.343C63.8147 12.5409 65.0425 11.5902 66.4015 10.8937C69.3724 9.37213 71.5717 10.2478 73.4536 13.043C73.6418 13.3221 73.7105 13.7305 73.7126 14.0798C73.7307 17.8152 73.7203 21.5513 73.7265 25.2874C73.7279 25.9103 73.6467 26.4964 72.9654 26.7117C72.2974 26.9228 71.8911 26.5409 71.5189 26.0117C70.1751 24.1034 68.9133 23.8423 66.8911 25.0221C66.4071 25.3041 65.9439 25.6242 65.4828 25.9423C64.5383 26.593 63.6272 27.2943 62.6557 27.9013C61.2953 28.752 59.8599 29.4437 58.1793 29.0825C57.6425 28.9673 57.1321 28.7291 56.5425 28.5242C56.5293 28.7631 56.505 28.9957 56.5043 29.2291C56.5015 31.793 56.4967 34.3568 56.5099 36.9207C56.5112 37.2541 56.5494 37.6138 56.6779 37.9152C58.6765 42.6013 60.6932 47.2798 62.7064 51.9596C62.7515 52.0645 62.8126 52.1624 62.9133 52.3513C63.046 52.0846 63.1432 51.9027 63.2272 51.7159C65.9015 45.7819 68.5779 39.8492 71.2418 33.9103C71.473 33.3944 71.705 32.9263 72.3571 32.918C73.0432 32.9096 73.3133 33.4006 73.5494 33.9332C76.4362 40.4395 79.3237 46.9457 82.2147 53.4506C86.0154 62.0048 89.8196 70.5575 93.6224 79.111C94.0189 80.0034 93.5765 80.7444 92.6078 80.7992C92.4376 80.8089 92.2661 80.8013 92.0953 80.8013C69.7085 80.8013 47.3217 80.8013 24.9349 80.8013C24.8369 80.8013 24.7397 80.802 24.6418 80.8013C23.4175 80.7853 22.9661 80.1312 23.3987 79.0027C26.0022 72.2221 28.6071 65.4423 31.2078 58.661C34.2099 50.8326 37.2078 43.0027 40.2085 35.1735C40.2432 35.0825 40.2869 34.9944 40.3182 34.9027C40.5029 34.3645 40.8425 34.0388 41.4453 34.0409C42.0356 34.043 42.2925 34.4089 42.4821 34.9041C44.2001 39.3874 45.9265 43.868 47.6515 48.3485C47.9647 49.1582 48.2814 49.9687 48.6786 50.9916ZM68.746 57.2013C68.23 58.086 67.798 58.7902 67.4043 59.5145C67.0626 60.143 66.5557 60.4131 65.8522 60.4034C64.7293 60.3888 63.605 60.4263 62.4835 60.3881C61.9682 60.3707 61.7237 60.5416 61.5133 61.0207C59.0362 66.6694 56.5328 72.3062 54.0383 77.9471C53.9536 78.1388 53.8911 78.3409 53.8064 78.5687C66.2258 78.5687 78.5737 78.5687 90.9869 78.5687C90.8765 78.2791 90.7939 78.0305 90.689 77.7909C88.5307 72.8541 86.2821 67.9541 84.2585 62.9631C83.5904 61.3152 82.7862 60.6937 81.0279 60.8874C79.3126 61.0756 79.2501 60.9235 78.739 59.4228C78.7272 59.3881 78.6744 59.368 78.6092 59.3152C78.2071 60.0194 77.7974 60.7096 77.4154 61.4152C77.123 61.9555 76.7314 62.2985 76.08 62.2381C75.4265 62.1777 75.2106 61.7082 75.0474 61.1638C74.664 59.8867 74.2633 58.6145 73.8258 57.1985C73.1585 58.4978 72.5612 59.6666 71.9585 60.8312C71.6571 61.4131 71.4071 62.127 70.5786 62.0256C69.7203 61.9207 69.6328 61.1596 69.4849 60.4874C69.2557 59.4513 69.0196 58.4173 68.746 57.2013ZM25.8543 78.561C26.0772 78.5791 26.1737 78.5944 26.2696 78.5944C34.4453 78.5957 42.621 78.5923 50.7967 78.6055C51.2092 78.6062 51.3981 78.4555 51.5557 78.0978C52.3703 76.2464 53.2307 74.4152 54.0168 72.552C54.1654 72.2006 54.1717 71.6881 54.0335 71.3319C52.3265 66.9235 50.5876 62.5284 48.8335 58.1388C48.7189 57.852 48.4557 57.5325 48.1828 57.4221C47.7106 57.2298 47.5307 57.6673 47.3356 58.0124C46.6043 59.3075 45.8626 60.5964 45.1244 61.8881C44.8446 62.3777 44.3918 62.7339 43.8724 62.5499C43.5133 62.4228 43.1856 61.986 43.0119 61.6103C42.7703 61.0867 42.6876 60.4909 42.5342 59.9263C42.3543 59.2659 42.1717 58.6062 41.9397 57.7617C41.2355 59.1305 40.6321 60.2971 40.0335 61.4673C39.7779 61.9666 39.4744 62.427 38.8307 62.3555C38.1675 62.2819 37.9279 61.7957 37.8043 61.195C37.5175 59.8006 37.2015 58.4117 36.8647 56.8714C36.0425 57.8284 35.305 58.6638 34.5946 59.5214C34.1467 60.0624 33.6439 60.4235 32.871 60.2423C30.5376 66.336 28.2126 72.4048 25.8543 78.561ZM55.5154 40.6423C53.6474 45.07 51.8397 49.3339 50.0647 53.611C49.9536 53.8791 50.0203 54.2798 50.1293 54.5721C51.5744 58.4298 53.0418 62.2798 54.5043 66.1312C54.8619 67.0735 55.2196 68.0166 55.6022 69.027C55.7015 68.8721 55.7494 68.8152 55.7779 68.7499C57.7189 64.3832 59.6661 60.0194 61.5807 55.6409C61.7043 55.3576 61.6647 54.9214 61.5397 54.6235C60.473 52.0832 59.3696 49.5589 58.2772 47.0298C57.38 44.9534 56.4814 42.8763 55.5154 40.6423ZM72.3897 36.7673C69.189 43.9805 66.0654 51.02 62.8849 58.1888C63.8293 58.1888 64.5828 58.22 65.33 58.1687C65.5376 58.1541 65.7946 57.9346 65.9168 57.7388C66.6786 56.518 67.4147 55.2805 68.1453 54.0409C68.4293 53.5589 68.714 53.0999 69.3807 53.2291C70.0383 53.3562 70.2536 53.8478 70.3717 54.4381C70.5751 55.4562 70.8064 56.468 71.0737 57.7048C71.7203 56.4916 72.2793 55.4805 72.8008 54.4506C73.1335 53.7937 73.4696 53.1673 74.3467 53.243C75.2112 53.318 75.2772 54.0638 75.4821 54.6714C75.8821 55.8582 76.264 57.052 76.7001 58.3853C77.2022 57.4985 77.5543 56.7062 78.0675 56.0388C78.3383 55.6867 78.8953 55.3735 79.3168 55.3805C79.6085 55.3853 79.9717 55.9298 80.1543 56.3055C80.3849 56.7798 80.4668 57.3277 80.6099 57.8444C80.9175 58.9555 80.9161 58.9562 82.1696 58.7485C78.9279 51.4631 75.6946 44.1957 72.3897 36.7673ZM56.6619 16.6249C56.646 16.6853 56.6133 16.7506 56.6133 16.8152C56.6099 19.5471 56.6071 22.2791 56.6126 25.011C56.6126 25.1742 56.6411 25.3555 56.7161 25.4971C57.3487 26.6971 58.8779 27.3312 60.1578 26.877C60.7251 26.6756 61.2758 26.3881 61.7807 26.0582C62.9439 25.2999 64.0605 24.4707 65.2224 23.7089C67.2168 22.4013 69.2849 21.5263 71.6369 22.9027C71.6751 22.7728 71.7112 22.7068 71.7112 22.6416C71.7161 19.8853 71.7189 17.1291 71.7161 14.3728C71.7161 14.2312 71.696 14.0749 71.6349 13.9499C71.0731 12.8048 69.4786 12.0541 68.2758 12.5298C67.3161 12.9096 66.4293 13.495 65.5487 14.0506C64.2932 14.8423 63.0994 15.7332 61.83 16.5006C60.8092 17.118 59.6592 17.4089 58.4599 17.1964C57.8515 17.0881 57.271 16.8235 56.6619 16.6249ZM34.7189 55.8735C34.7508 55.9103 34.7828 55.9471 34.8154 55.9839C35.4536 55.2221 36.0772 54.4485 36.7335 53.7027C37.3015 53.0575 38.1474 53.177 38.5258 53.945C38.6314 54.1589 38.6717 54.4082 38.7231 54.6457C38.9446 55.6707 39.1599 56.6964 39.4203 57.927C40.1189 56.5763 40.7106 55.4325 41.3022 54.2888C41.5807 53.7513 42.0397 53.5152 42.6251 53.5631C43.2078 53.611 43.4369 54.0312 43.5522 54.545C43.6168 54.8305 43.6946 55.1124 43.7682 55.395C44.0328 56.4131 44.298 57.4305 44.6015 58.5978C44.9974 57.9159 45.296 57.3874 45.6071 56.8666C46.121 56.0055 46.4515 54.9173 47.9126 55.2221C45.7175 49.4923 43.5897 43.9388 41.396 38.2138C39.1258 44.2159 36.9224 50.0444 34.7189 55.8735Z" fill="white"/>
</svg>
