<svg width="116" height="112" viewBox="0 0 116 112" fill="none" xmlns="http://www.w3.org/2000/svg">
<path d="M0 0H116V112L57.5797 87.6899L0 112V0Z" fill="#F28D77"/>
<g clip-path="url(#clip0_2224_127228)">
<path d="M56.8905 83.0002C55.4238 82.6634 53.921 82.4363 52.496 81.9724C44.2759 79.2967 38.8905 70.9141 39.8682 62.3224C40.6148 55.7648 43.9571 50.9106 49.7009 47.7037C50.1439 47.4565 50.3127 47.2127 50.3106 46.703C50.2905 41.6516 50.2988 36.6002 50.2988 31.5183C50.1127 31.4474 49.9328 31.3926 49.7648 31.312C49.221 31.0509 49.0634 30.5821 49.1537 30.0315C49.2426 29.4884 49.5967 29.1696 50.1446 29.1113C50.4585 29.078 50.7787 29.0953 51.096 29.0953C56.2217 29.0946 61.3474 29.0919 66.4731 29.0974C67.5634 29.0988 68.1932 29.8599 67.7606 30.7183C67.5773 31.0821 67.1363 31.3169 66.7051 31.7065C66.7051 36.1683 66.7585 40.8058 66.6717 45.4405C66.646 46.7926 66.9932 47.5398 68.2231 48.271C74.9363 52.2655 78.3432 60.0196 76.9307 67.7134C75.562 75.1676 69.5669 81.1919 62.0467 82.6627C61.4051 82.7884 60.7578 82.8884 60.1134 83.0002C59.0384 83.0002 57.9648 83.0002 56.8905 83.0002ZM52.6419 31.4696C52.6419 31.7988 52.6419 32.0641 52.6419 32.3301C52.6419 37.4321 52.621 42.5342 52.6606 47.6356C52.6682 48.5877 52.3051 49.069 51.4738 49.4821C45.8099 52.2981 42.6092 56.8974 42.1453 63.1891C41.3676 73.7641 50.9273 82.2467 61.3724 80.3877C68.3189 79.1516 73.887 73.3926 74.7481 66.553C75.671 59.2231 71.9807 52.4238 65.4016 49.4217C64.6051 49.0585 64.3426 48.5752 64.3474 47.7335C64.3752 42.5828 64.3613 37.4321 64.3613 32.2815C64.3613 32.021 64.3613 31.7599 64.3613 31.469C60.4342 31.4696 56.587 31.4696 52.6419 31.4696Z" fill="white"/>
<path d="M61.9074 11.0001C62.4146 10.9999 62.9198 11.0893 63.3961 11.2637C63.6594 11.3601 63.9195 11.4634 64.1653 11.596C66.2476 12.7197 67.2987 15.2009 66.9259 17.9244C66.5746 20.4882 65.3606 22.5213 63.5227 24.1834C62.2323 25.3504 60.7824 26.2509 59.1854 26.8659C58.8387 26.9994 58.3708 27.0576 58.0416 26.9252C55.6142 25.947 53.4419 24.5514 51.8404 22.3462C50.3379 20.2769 49.6664 17.9363 50.1603 15.3571C50.5885 13.1215 51.8987 11.6672 54.05 11.1152V11.1152C54.347 11.0382 54.6581 10.9999 54.9648 11.0004C55.0026 11.0005 55.04 11.0005 55.0774 11.0006C55.4457 11.0012 55.8105 11.0728 56.1516 11.2119C56.9554 11.5398 57.7528 11.865 58.5157 12.1765C59.0534 11.9228 59.6166 11.6568 60.1883 11.3868C60.726 11.1328 61.3128 11.0004 61.9074 11.0001V11.0001ZM64.9765 16.866C65.0059 15.1428 64.2366 13.7626 62.9513 13.2225C61.7967 12.7375 60.2603 13.0058 59.2861 14.3479C58.8302 14.976 58.1033 14.9083 57.58 14.3378C57.2547 13.9829 56.9119 13.6047 56.5052 13.3798C54.6338 12.3427 52.4474 13.5145 51.9507 15.8397C51.5349 17.7873 52.1459 19.5099 53.2451 21.0474C54.5049 22.8098 56.2003 23.9869 58.1366 24.79C58.312 24.863 58.5858 24.8613 58.7431 24.7657C59.8886 24.07 61.0998 23.4515 62.131 22.5979C63.8666 21.1613 64.9301 19.2689 64.9765 16.866Z" fill="white"/>
<path d="M44.375 64.2068C44.4847 63.2638 44.5368 62.3089 44.7167 61.3791C45.1458 59.1624 46.9139 57.9242 49.084 58.5228C50.6146 58.945 52.0799 59.661 53.5097 60.3742C54.9903 61.1124 56.4056 61.986 57.8257 62.8402C58.3 63.1256 58.6674 63.1485 59.1569 62.8617C61.0285 61.7659 62.891 60.643 64.8292 59.6763C65.9681 59.1082 67.2153 58.627 68.4639 58.4395C70.4757 58.1374 71.9243 59.4221 72.341 61.5652C73.6986 68.5527 69.4153 75.6388 62.5854 77.7048C53.5653 80.4332 44.4208 73.6353 44.375 64.2068ZM70.1583 65.1805C69.9375 65.3652 69.7542 65.5138 69.575 65.6686C67.9521 67.0756 66.0785 67.761 63.9222 67.62C62.0812 67.4999 60.4028 66.8228 58.8111 65.97C56.4493 64.7048 54.1562 63.3103 51.7972 62.0381C50.8187 61.5103 49.7708 61.0777 48.709 60.7499C47.8 60.4693 47.2729 60.8631 47.0653 61.802C46.9292 62.4186 46.8278 63.0527 46.8007 63.6825C46.4694 71.4437 53.5076 77.3416 61.0944 75.6728C65.9583 74.6048 69.9576 70.0075 70.1583 65.1805ZM60.9514 64.5624C64.8604 66.2221 67.6708 65.3742 69.5667 62.0909C69.9729 61.3874 69.6521 60.8006 68.8257 60.7791C68.5382 60.7714 68.2368 60.8186 67.9625 60.9048C65.4486 61.6943 63.3701 63.2985 60.9514 64.5624Z" fill="white"/>
<path d="M54.9877 39.6306C54.9877 38.5104 54.9786 37.3896 54.9905 36.2694C54.9995 35.4285 55.4092 34.9722 56.1314 34.9583C56.8835 34.9438 57.3238 35.4153 57.3273 36.2889C57.3363 38.5299 57.337 40.7708 57.3266 43.0111C57.3231 43.8521 56.9071 44.309 56.1849 44.3236C55.4342 44.3389 54.9981 43.8653 54.9898 42.9917C54.9793 41.8708 54.9877 40.7507 54.9877 39.6306Z" fill="white"/>
<path d="M53.807 14.1148C54.4744 14.112 54.9521 14.4821 54.9674 15.1606C55.0028 16.7342 55.7681 17.8655 56.9723 18.7814C57.541 19.2141 57.6716 19.8856 57.3327 20.3773C56.9757 20.8946 56.2973 21.0481 55.7209 20.6516C53.8785 19.3849 52.716 17.6974 52.6494 15.3918C52.6257 14.5662 53.0605 14.1182 53.807 14.1148Z" fill="white"/>
<path fill-rule="evenodd" clip-rule="evenodd" d="M69.0773 12.1311C69.5459 11.3061 70.2784 10.6924 70.912 9.99943C71.4135 9.45167 70.6018 8.63334 70.0937 9.18109C69.3941 9.94003 68.5956 10.633 68.0808 11.5437C67.7113 12.197 68.7078 12.7778 69.0773 12.1311Z" fill="white"/>
<path fill-rule="evenodd" clip-rule="evenodd" d="M48.2489 15.2813C47.3313 14.4508 46.2199 13.8822 45.1484 13.2831C44.4995 12.9157 43.9305 13.9207 44.5794 14.2881C45.5589 14.8352 46.594 15.3377 47.4295 16.099C47.9799 16.6002 48.7993 15.7825 48.2489 15.2813Z" fill="white"/>
<path fill-rule="evenodd" clip-rule="evenodd" d="M47.5772 27.4066C47.9129 26.6281 48.3508 25.8348 49.0856 25.3658C49.7136 24.9628 49.0504 24.0173 48.4279 24.4165C47.5303 24.9983 46.9434 25.959 46.5323 26.9183C46.237 27.6046 47.282 28.0929 47.5772 27.4066Z" fill="white"/>
<path fill-rule="evenodd" clip-rule="evenodd" d="M71.5949 20.2195C70.5142 19.8944 69.4142 19.6323 68.2832 19.561C67.5388 19.5118 67.5077 20.669 68.2457 20.7162C69.2744 20.7838 70.2696 21.0274 71.2538 21.3298C71.9705 21.5362 72.3097 20.4323 71.5949 20.2195Z" fill="white"/>
<path fill-rule="evenodd" clip-rule="evenodd" d="M61.901 24.6436C62.1914 24.8151 62.5082 24.6898 62.693 24.439C62.9108 24.1354 63.056 23.7724 63.1351 23.4029C63.2011 23.0927 63.0494 22.7825 62.7326 22.6901C62.4422 22.6109 62.0858 22.7825 62.0198 23.0927C61.9538 23.4029 61.8746 23.6008 61.6899 23.8516C61.5117 24.109 61.6503 24.4984 61.901 24.6436Z" fill="white"/>
<path fill-rule="evenodd" clip-rule="evenodd" d="M51.3442 9.96352C51.9645 9.96352 51.9645 9 51.3442 9C50.7238 9.0066 50.7238 9.96352 51.3442 9.96352Z" fill="white"/>
<path fill-rule="evenodd" clip-rule="evenodd" d="M48.4653 11.8849C49.0856 11.8849 49.0856 10.9214 48.4653 10.9214C47.8449 10.9214 47.8449 11.8849 48.4653 11.8849Z" fill="white"/>
<path fill-rule="evenodd" clip-rule="evenodd" d="M48.4653 20.9635C49.0856 20.9635 49.0856 20 48.4653 20C47.8449 20 47.8449 20.9635 48.4653 20.9635Z" fill="white"/>
<path fill-rule="evenodd" clip-rule="evenodd" d="M47.4653 22.9635C48.0856 22.9635 48.0856 22 47.4653 22C46.8449 22.0066 46.8449 22.9635 47.4653 22.9635Z" fill="white"/>
<path fill-rule="evenodd" clip-rule="evenodd" d="M68.9821 15.9464C69.0613 15.9662 69.1537 15.9596 69.2395 15.9332C69.1801 15.9134 69.1273 15.887 69.0745 15.854C69.0679 15.854 69.0745 15.854 69.0613 15.854H69.0679C69.0547 15.8408 69.0349 15.8408 69.0217 15.8276C69.0613 15.8408 69.0811 15.8474 69.0877 15.854C69.1603 15.854 69.2395 15.854 69.3121 15.854C69.3319 15.8474 69.3517 15.8408 69.3715 15.8276C69.4309 15.7682 69.4836 15.7154 69.543 15.656C69.5496 15.6428 69.5629 15.6296 69.5695 15.6098C69.5431 15.7814 69.3979 15.887 69.2329 15.9332C69.3913 15.9794 69.5695 15.953 69.7015 15.821C69.8796 15.6428 69.8994 15.3128 69.7015 15.1412C69.5101 14.9763 69.3121 14.8773 69.0547 14.9235C68.8501 14.9631 68.6653 15.1479 68.6389 15.359C68.6059 15.6098 68.7049 15.8672 68.9821 15.9464Z" fill="white"/>
<path fill-rule="evenodd" clip-rule="evenodd" d="M69.0981 17.797C69.7184 17.797 69.7184 16.8335 69.0981 16.8335C68.4777 16.8335 68.4777 17.797 69.0981 17.797Z" fill="white"/>
<path fill-rule="evenodd" clip-rule="evenodd" d="M69.0981 23.5607C69.1377 23.5607 69.1839 23.5607 69.2235 23.5607C69.8438 23.5607 69.8438 22.5972 69.2235 22.5972C69.1839 22.5972 69.1377 22.5972 69.0981 22.5972C68.4777 22.5972 68.4777 23.5607 69.0981 23.5607Z" fill="white"/>
</g>
<defs>
<clipPath id="clip0_2224_127228">
<rect width="75" height="75" fill="white" transform="translate(21 8)"/>
</clipPath>
</defs>
</svg>
