<svg class="white-flag" width="292" height="40" viewBox="0 0 292 40" fill="none" xmlns="http://www.w3.org/2000/svg">
<path d="M0 39.5L-1.70474e-06 0.500004L291.5 0.499987L267.19 20.1413L291.5 39.5L0 39.5Z" fill="white"/>
<path d="M93.0332 13.2734C95.0645 13.2734 96.8092 14.0091 98.2676 15.4805C99.7324 16.9518 100.465 18.7454 100.465 20.8613C100.465 22.9577 99.7422 24.7318 98.2969 26.1836C96.8581 27.6354 95.11 28.3613 93.0527 28.3613C90.8978 28.3613 89.1074 27.6159 87.6816 26.125C86.2559 24.6341 85.543 22.8633 85.543 20.8125C85.543 19.4388 85.875 18.1758 86.5391 17.0234C87.2031 15.8711 88.1146 14.9596 89.2734 14.2891C90.4388 13.612 91.6921 13.2734 93.0332 13.2734ZM93.0039 15.9492C91.6758 15.9492 90.5592 16.4115 89.6543 17.3359C88.7493 18.2604 88.2969 19.4355 88.2969 20.8613C88.2969 22.4499 88.8665 23.7064 90.0059 24.6309C90.8913 25.3535 91.9069 25.7148 93.0527 25.7148C94.3483 25.7148 95.4518 25.2461 96.3633 24.3086C97.2747 23.3711 97.7305 22.2155 97.7305 20.8418C97.7305 19.4746 97.2715 18.319 96.3535 17.375C95.4355 16.4245 94.319 15.9492 93.0039 15.9492ZM117.848 28H115.133L112.477 21.291L109.771 28H107.066L111.598 17.375H113.316L117.848 28ZM120.66 28H119.244V17.375H121.842V23.6152L127.281 17.375H128.561V28H125.963V21.8867L120.66 28ZM131.256 28V17.375H133.932V25.4414H137.896V17.375H140.572V25.4414H143.277V29.8652H140.738V28H131.256ZM155.387 23.459H146.822C146.946 24.2142 147.275 24.8164 147.809 25.2656C148.349 25.7083 149.036 25.9297 149.869 25.9297C150.865 25.9297 151.721 25.5814 152.438 24.8848L154.684 25.9395C154.124 26.7337 153.453 27.3229 152.672 27.707C151.891 28.0846 150.963 28.2734 149.889 28.2734C148.222 28.2734 146.865 27.7493 145.816 26.7012C144.768 25.6465 144.244 24.3281 144.244 22.7461C144.244 21.125 144.765 19.7806 145.807 18.7129C146.855 17.6387 148.167 17.1016 149.742 17.1016C151.415 17.1016 152.776 17.6387 153.824 18.7129C154.872 19.7806 155.396 21.1934 155.396 22.9512L155.387 23.459ZM152.711 21.3594C152.535 20.7669 152.187 20.2852 151.666 19.9141C151.152 19.543 150.553 19.3574 149.869 19.3574C149.127 19.3574 148.476 19.5658 147.916 19.9824C147.564 20.2428 147.239 20.7018 146.939 21.3594H152.711ZM168.199 23.459H159.635C159.758 24.2142 160.087 24.8164 160.621 25.2656C161.161 25.7083 161.848 25.9297 162.682 25.9297C163.678 25.9297 164.534 25.5814 165.25 24.8848L167.496 25.9395C166.936 26.7337 166.266 27.3229 165.484 27.707C164.703 28.0846 163.775 28.2734 162.701 28.2734C161.035 28.2734 159.677 27.7493 158.629 26.7012C157.581 25.6465 157.057 24.3281 157.057 22.7461C157.057 21.125 157.577 19.7806 158.619 18.7129C159.667 17.6387 160.979 17.1016 162.555 17.1016C164.228 17.1016 165.589 17.6387 166.637 18.7129C167.685 19.7806 168.209 21.1934 168.209 22.9512L168.199 23.459ZM165.523 21.3594C165.348 20.7669 164.999 20.2852 164.479 19.9141C163.964 19.543 163.365 19.3574 162.682 19.3574C161.939 19.3574 161.288 19.5658 160.729 19.9824C160.377 20.2428 160.051 20.7018 159.752 21.3594H165.523Z" fill="#00B2B5"/>
</svg>
