<svg class="white-flag" width="292" height="40" viewBox="0 0 292 40" fill="none" xmlns="http://www.w3.org/2000/svg">
<path d="M0 39.5L-1.70474e-06 0.500004L291.5 0.499987L267.19 20.1413L291.5 39.5L0 39.5Z" fill="white"/>
<path d="M80.6309 13.6348H90.9727V28H88.209V16.1934H83.4043V28H80.6309V13.6348ZM98.9512 17.1016C99.9538 17.1016 100.895 17.3522 101.773 17.8535C102.659 18.3548 103.349 19.0352 103.844 19.8945C104.339 20.7539 104.586 21.6816 104.586 22.6777C104.586 23.6803 104.335 24.6178 103.834 25.4902C103.339 26.3626 102.662 27.0462 101.803 27.541C100.943 28.0293 99.9961 28.2734 98.9609 28.2734C97.4375 28.2734 96.1354 27.7331 95.0547 26.6523C93.9805 25.5651 93.4434 24.2467 93.4434 22.6973C93.4434 21.0371 94.0521 19.6536 95.2695 18.5469C96.3372 17.5833 97.5645 17.1016 98.9512 17.1016ZM98.9902 19.6113C98.1634 19.6113 97.4733 19.901 96.9199 20.4805C96.373 21.0534 96.0996 21.7891 96.0996 22.6875C96.0996 23.612 96.3698 24.3607 96.9102 24.9336C97.457 25.5065 98.1471 25.793 98.9805 25.793C99.8138 25.793 100.507 25.5033 101.061 24.9238C101.614 24.3444 101.891 23.599 101.891 22.6875C101.891 21.776 101.617 21.0371 101.07 20.4707C100.53 19.8978 99.8366 19.6113 98.9902 19.6113ZM117.174 19.5234L114.957 20.7441C114.54 20.3079 114.127 20.0052 113.717 19.8359C113.313 19.6667 112.838 19.582 112.291 19.582C111.295 19.582 110.488 19.8815 109.869 20.4805C109.257 21.0729 108.951 21.8346 108.951 22.7656C108.951 23.6706 109.247 24.4095 109.84 24.9824C110.432 25.5553 111.21 25.8418 112.174 25.8418C113.365 25.8418 114.293 25.4349 114.957 24.6211L117.057 26.0566C115.917 27.5345 114.309 28.2734 112.232 28.2734C110.364 28.2734 108.899 27.7201 107.838 26.6133C106.783 25.5065 106.256 24.2109 106.256 22.7266C106.256 21.6979 106.513 20.7507 107.027 19.8848C107.542 19.0189 108.258 18.3385 109.176 17.8438C110.1 17.349 111.132 17.1016 112.271 17.1016C113.326 17.1016 114.273 17.3132 115.113 17.7363C115.953 18.153 116.64 18.7487 117.174 19.5234ZM118.639 17.375H128.541V19.9141H125.016V28H122.34V19.9141H118.639V17.375ZM129.107 17.375H131.832L134.596 24.0449L137.643 17.375H140.377L133.717 31.8867H130.963L133.15 27.209L129.107 17.375ZM144.557 28H141.881V17.375H151.197V28H148.521V19.9434H144.557V28ZM163.395 28H160.68L158.023 21.291L155.318 28H152.613L157.145 17.375H158.863L163.395 28ZM175.445 23.459H166.881C167.005 24.2142 167.333 24.8164 167.867 25.2656C168.408 25.7083 169.094 25.9297 169.928 25.9297C170.924 25.9297 171.78 25.5814 172.496 24.8848L174.742 25.9395C174.182 26.7337 173.512 27.3229 172.73 27.707C171.949 28.0846 171.021 28.2734 169.947 28.2734C168.281 28.2734 166.923 27.7493 165.875 26.7012C164.827 25.6465 164.303 24.3281 164.303 22.7461C164.303 21.125 164.824 19.7806 165.865 18.7129C166.913 17.6387 168.225 17.1016 169.801 17.1016C171.474 17.1016 172.835 17.6387 173.883 18.7129C174.931 19.7806 175.455 21.1934 175.455 22.9512L175.445 23.459ZM172.77 21.3594C172.594 20.7669 172.245 20.2852 171.725 19.9141C171.21 19.543 170.611 19.3574 169.928 19.3574C169.186 19.3574 168.535 19.5658 167.975 19.9824C167.623 20.2428 167.298 20.7018 166.998 21.3594H172.77ZM180.279 21.2031H184.244V17.375H186.92V28H184.244V23.5957H180.279V28H177.604V17.375H180.279V21.2031ZM191.031 28H189.615V17.375H192.213V23.6152L197.652 17.375H198.932V28H196.334V21.8867L191.031 28ZM212.281 23.459H203.717C203.84 24.2142 204.169 24.8164 204.703 25.2656C205.243 25.7083 205.93 25.9297 206.764 25.9297C207.76 25.9297 208.616 25.5814 209.332 24.8848L211.578 25.9395C211.018 26.7337 210.348 27.3229 209.566 27.707C208.785 28.0846 207.857 28.2734 206.783 28.2734C205.117 28.2734 203.759 27.7493 202.711 26.7012C201.663 25.6465 201.139 24.3281 201.139 22.7461C201.139 21.125 201.66 19.7806 202.701 18.7129C203.749 17.6387 205.061 17.1016 206.637 17.1016C208.31 17.1016 209.671 17.6387 210.719 18.7129C211.767 19.7806 212.291 21.1934 212.291 22.9512L212.281 23.459ZM209.605 21.3594C209.43 20.7669 209.081 20.2852 208.561 19.9141C208.046 19.543 207.447 19.3574 206.764 19.3574C206.021 19.3574 205.37 19.5658 204.811 19.9824C204.459 20.2428 204.133 20.7018 203.834 21.3594H209.605Z" fill="#00B2B5"/>
</svg>
