<svg width="155" height="158" viewBox="0 0 155 158" fill="none" xmlns="http://www.w3.org/2000/svg">
<path d="M106.079 6.95286C103.209 5.78836 101.613 9.71089 101.613 9.71089L103.694 10.3919C103.694 10.3919 104.618 7.6611 107.223 8.7575" fill="#686867"/>
<path d="M108.6 7.76971C105.731 6.61202 104.135 10.5277 104.135 10.5277L106.222 11.2087C106.222 11.2087 107.146 8.47795 109.757 9.57435" fill="#777776"/>
<path d="M123.76 12.6052C120.891 11.4407 119.295 15.3632 119.295 15.3632L121.382 16.0374C121.382 16.0374 122.306 13.3134 124.917 14.4098" fill="#686867"/>
<path d="M126.273 13.4221C123.404 12.2576 121.808 16.1801 121.808 16.1801L123.888 16.8611C123.888 16.8611 124.813 14.1371 127.423 15.2267" fill="#777776"/>
<path d="M141.694 18.5574C138.825 17.3929 137.229 21.3154 137.229 21.3154L139.309 21.9964C139.309 21.9964 140.234 19.2724 142.838 20.362" fill="#686867"/>
<path d="M144.215 19.3741C141.346 18.2096 139.75 22.1253 139.75 22.1253L141.831 22.8063C141.831 22.8063 142.755 20.0755 145.359 21.1787" fill="#777776"/>
<path d="M88.1227 1.00804C85.2534 -0.156464 83.6572 3.76606 83.6572 3.76606L85.7381 4.44706C85.7381 4.44706 86.6622 1.71626 89.2666 2.81266" fill="#686867"/>
<path d="M90.6432 1.82493C87.7739 0.66043 86.1777 4.58296 86.1777 4.58296L88.2586 5.26395C88.2586 5.26395 89.1827 2.53998 91.7871 3.62957" fill="#777776"/>
<path d="M119.769 146.332C119.265 148.041 117.527 149.015 115.905 148.484L42.3308 124.513C40.7087 123.981 39.7911 122.15 40.2887 120.44L74.8817 2.54668C75.3858 0.830575 77.1242 -0.136429 78.7462 0.394746L152.32 24.3589C153.942 24.8901 154.866 26.722 154.362 28.4313L119.769 146.332Z" fill="#00B2B5"/>
<path d="M117.792 139.447C117.288 141.156 115.549 142.123 113.927 141.599L47.6491 120.004C46.0206 119.473 45.103 117.641 45.607 115.932L76.8526 9.43145C77.3566 7.71535 79.095 6.74834 80.7235 7.27951L146.995 28.8738C148.624 29.405 149.541 31.2369 149.037 32.953L117.792 139.447Z" fill="white"/>
<path d="M80.3997 11.4681L78.8682 16.6855L90.7645 20.5633L92.296 15.3459L80.3997 11.4681Z" fill="#474746"/>
<path d="M98.3699 17.305L96.8389 22.5229L108.736 26.3994L110.267 21.1814L98.3699 17.305Z" fill="#474746"/>
<path d="M116.333 23.1702L114.803 28.3882L126.7 32.262L128.23 27.044L116.333 23.1702Z" fill="#474746"/>
<path d="M144.671 38.1152L132.773 34.2403L134.305 29.0239L146.202 32.8988L144.671 38.1152Z" fill="#474746"/>
<path d="M91.433 10.2829C92.6285 6.21053 92.5057 4.29013 90.4377 1.75684C93.9468 3.09839 94.5931 6.41483 93.1713 11.2431C91.4006 17.2835 89.1905 17.7602 85.8301 17.4401C88.9126 16.3642 90.2374 14.3552 91.433 10.2829Z" fill="#858584"/>
<path d="M85.8341 17.4403C83.5335 16.6912 84.0958 12.6665 84.0958 12.6665L85.7695 13.2113C85.7695 13.2113 85.1879 15.8263 87.6048 16.6026C86.7712 17.1679 85.8341 17.4403 85.8341 17.4403Z" fill="#777776"/>
<path d="M88.905 9.46599C90.1005 5.38683 89.9713 3.47324 87.9098 0.939941C91.4189 2.2815 92.0651 5.59794 90.6498 10.4262C88.8791 16.4734 86.669 16.9501 83.3086 16.63C86.3847 15.5473 87.7159 13.5383 88.905 9.46599Z" fill="#858584"/>
<path d="M83.3058 16.6297C81.0052 15.8806 81.5674 11.8491 81.5674 11.8491L83.2412 12.3939C83.2412 12.3939 82.666 15.0089 85.07 15.7853C84.2428 16.3505 83.3058 16.6297 83.3058 16.6297Z" fill="#777776"/>
<path d="M109.382 16.2209C110.577 12.1485 110.448 10.2281 108.386 7.70166C111.895 9.04322 112.542 12.3597 111.126 17.1879C109.356 23.2283 107.146 23.705 103.785 23.3918C106.861 22.309 108.186 20.2932 109.382 16.2209Z" fill="#858584"/>
<path d="M103.79 23.3851C101.49 22.636 102.052 18.6113 102.052 18.6113L103.726 19.1561C103.726 19.1561 103.144 21.7779 105.561 22.5475C104.727 23.1059 103.79 23.3851 103.79 23.3851Z" fill="#777776"/>
<path d="M106.861 15.404C108.057 11.3316 107.934 9.41123 105.866 6.87793C109.375 8.21949 110.021 11.5359 108.606 16.3642C106.835 22.4046 104.625 22.8813 101.265 22.568C104.334 21.4921 105.666 19.4831 106.861 15.404Z" fill="#858584"/>
<path d="M101.263 22.5677C98.9622 21.8186 99.5245 17.7871 99.5245 17.7871L101.192 18.3319C101.192 18.3319 100.617 20.9469 103.027 21.7233C102.206 22.2953 101.263 22.5677 101.263 22.5677Z" fill="#777776"/>
<path d="M127.063 21.8737C128.258 17.8014 128.129 15.881 126.068 13.3545C129.577 14.6961 130.223 18.0125 128.801 22.8339C127.031 28.8743 124.82 29.351 121.46 29.0378C124.543 27.9618 125.874 25.9461 127.063 21.8737Z" fill="#858584"/>
<path d="M121.465 29.0374C119.164 28.2883 119.727 24.2568 119.727 24.2568L121.4 24.8016C121.4 24.8016 120.819 27.4235 123.229 28.193C122.402 28.765 121.465 29.0374 121.465 29.0374Z" fill="#777776"/>
<path d="M124.544 21.0563C125.739 16.984 125.61 15.0636 123.548 12.5303C127.058 13.8718 127.704 17.1883 126.289 22.0165C124.518 28.0569 122.308 28.5336 118.947 28.2204C122.017 27.1444 123.342 25.1355 124.544 21.0563Z" fill="#858584"/>
<path d="M118.937 28.2201C116.636 27.471 117.198 23.4463 117.198 23.4463L118.872 23.9911C118.872 23.9911 118.29 26.6129 120.707 27.3824C119.874 27.9477 118.937 28.2201 118.937 28.2201Z" fill="#777776"/>
<path d="M144.998 27.8322C146.193 23.7599 146.064 21.8394 144.003 19.3062C147.512 20.6545 148.158 23.9642 146.736 28.7924C144.965 34.8328 142.755 35.3095 139.401 34.9963C142.477 33.9135 143.802 31.9045 144.998 27.8322Z" fill="#858584"/>
<path d="M139.405 34.9896C137.105 34.2405 137.667 30.209 137.667 30.209L139.334 30.7538C139.334 30.7538 138.759 33.3756 141.17 34.1451C140.342 34.7172 139.405 34.9896 139.405 34.9896Z" fill="#777776"/>
<path d="M142.478 27.0085C143.673 22.9361 143.55 21.0157 141.482 18.4893C144.991 19.8308 145.631 23.1405 144.222 27.9755C142.452 34.0159 140.242 34.4926 136.888 34.1793C139.957 33.0966 141.282 31.0876 142.478 27.0085Z" fill="#858584"/>
<path d="M136.879 34.1722C134.572 33.4231 135.141 29.3916 135.141 29.3916L136.808 29.9364C136.808 29.9364 136.227 32.5582 138.644 33.3346C137.817 33.8998 136.879 34.1722 136.879 34.1722Z" fill="#777776"/>
<path d="M77.5538 31.3901L77.1777 32.6719L136.338 51.9476L136.714 50.6658L77.5538 31.3901Z" fill="#E5E5E5"/>
<path d="M74.6183 41.4214L74.2422 42.7031L133.403 61.9788L133.779 60.6971L74.6183 41.4214Z" fill="#E5E5E5"/>
<path d="M71.6749 51.4453L71.2988 52.7271L130.459 72.0027L130.836 70.721L71.6749 51.4453Z" fill="#E5E5E5"/>
<path d="M68.7306 61.4624L68.3545 62.7441L127.515 82.0198L127.891 80.7381L68.7306 61.4624Z" fill="#E5E5E5"/>
<path d="M65.7882 71.4859L65.4121 72.7676L124.573 92.0433L124.949 90.7615L65.7882 71.4859Z" fill="#E5E5E5"/>
<path d="M62.8497 81.5114L62.4756 82.7866L121.636 102.062L122.01 100.787L62.8497 81.5114Z" fill="#E5E5E5"/>
<path d="M59.9239 91.5371L59.5479 92.8188L118.708 112.095L119.085 110.813L59.9239 91.5371Z" fill="#E5E5E5"/>
<path d="M56.9659 101.552L56.5898 102.833L115.75 122.109L116.127 120.827L56.9659 101.552Z" fill="#E5E5E5"/>
<path d="M54.0146 111.569L53.6387 112.851L112.799 132.12L113.175 130.839L54.0146 111.569Z" fill="#E5E5E5"/>
<path d="M13.4874 121.516L6.25602 118.281C6.25602 118.281 4.09113 118.138 1.48679 124.594C-1.11754 131.056 0.491583 132.589 0.491583 132.589L7.72297 135.823L13.4874 121.516Z" fill="#BD81CD"/>
<path d="M18.4269 123.722L13.173 121.373C13.173 121.373 11.0081 121.23 8.40378 127.686C5.79945 134.148 7.40858 135.681 7.40858 135.681L12.6625 138.03L18.4269 123.722Z" fill="#C6C6C6"/>
<path d="M12.1665 129.367C14.7708 122.912 16.9293 123.055 16.9293 123.055C16.9293 123.055 17.0973 122.884 16.4511 122.551C15.8048 122.224 15.1457 122.258 15.1457 122.258C15.1457 122.258 12.9808 122.115 10.3764 128.571C7.7721 135.033 9.38124 136.566 9.38124 136.566C9.38124 136.566 9.70435 137.063 10.4798 137.369C11.2553 137.676 11.1648 137.369 11.1648 137.369C11.1648 137.369 9.56218 135.83 12.1665 129.367Z" fill="#B2B2B2"/>
<path d="M12.471 137.948C12.471 137.948 10.8618 136.416 13.4726 129.953C16.077 123.491 18.2354 123.64 18.2354 123.64L63.3879 143.519L57.6235 157.826L12.471 137.948Z" fill="#F39200"/>
<path d="M68.5484 156.165L69.8667 152.849C69.8667 152.849 64.393 144.534 64.1798 144.22C63.9601 143.907 63.3914 143.519 63.3914 143.519L57.627 157.827C57.627 157.827 58.0082 158.065 58.48 157.983C58.9517 157.895 68.5484 156.165 68.5484 156.165Z" fill="#F6CF9C"/>
<path d="M71.7467 155.865L71.9212 155.436L69.8856 152.834L68.5479 156.151L71.7467 155.865Z" fill="#331B19"/>
<path d="M12.625 132.336C12.625 132.336 12.9869 131.199 13.4457 130.007C13.9046 128.816 14.5379 127.583 14.5379 127.583L61.474 148.258L59.5611 153.005L12.625 132.336Z" fill="#F9B233"/>
<path d="M63.39 143.519C62.4013 143.471 61.4061 144.131 60.9666 145.235C60.5207 146.338 60.7598 147.55 61.4771 148.265L63.39 143.519Z" fill="#F6CF9C"/>
<path d="M61.4769 148.265C60.4882 148.217 59.493 148.878 59.0535 149.981C58.6076 151.084 58.8467 152.297 59.5641 153.012L61.4769 148.265Z" fill="#F6CF9C"/>
<path d="M59.5632 153.012C58.5745 152.965 57.5793 153.625 57.1333 154.728C56.6874 155.832 56.9266 157.044 57.6503 157.759L59.5632 153.012Z" fill="#F6CF9C"/>
<path d="M5.0029 134.114C5.0029 134.114 1.24827 132.916 0.841139 132.248C-0.36086 130.294 2.03668 124.342 2.03668 124.342C2.03668 124.342 0.886375 129.436 1.92035 131.315C3.06419 133.413 5.0029 134.114 5.0029 134.114Z" fill="#00B2B5"/>
</svg>
