<svg width="61" height="60" viewBox="0 0 61 60" fill="none" xmlns="http://www.w3.org/2000/svg">
<path fill-rule="evenodd" clip-rule="evenodd" d="M28.3731 6.05633C23.745 6.50816 19.1576 8.40707 15.5605 11.36C14.5024 12.2287 12.8272 13.9326 11.9833 14.9987C9.84961 17.6941 8.1011 21.34 7.37592 24.6055C6.92053 26.6567 6.81738 27.6538 6.81738 30.0068C6.81738 32.3598 6.92053 33.3569 7.37592 35.4081C8.11692 38.7448 9.91105 42.4429 12.1157 45.1774C12.9765 46.2451 14.6651 47.9356 15.7216 48.7871C18.3927 50.9402 22.0058 52.7046 25.2419 53.4364C27.2746 53.8959 28.2628 54 30.5946 54C32.9264 54 33.9146 53.8959 35.9473 53.4364C38.3804 52.8862 41.5617 51.5144 43.6523 50.1139C47.2782 47.6848 50.063 44.4888 51.9644 40.5746C53.129 38.1769 53.7905 36.0295 54.2072 33.2946C54.4378 31.7812 54.4378 28.2323 54.2072 26.719C53.7905 23.9841 53.129 21.8367 51.9644 19.439C50.7215 16.8804 49.3362 14.9338 47.3361 12.9361C45.3725 10.9747 43.5737 9.68582 41.0672 8.44418C38.7194 7.28107 36.5458 6.59514 33.9458 6.19676C32.7766 6.01763 29.5914 5.93731 28.3731 6.05633ZM33.5735 8.36462C38.3013 9.05758 42.5747 11.2061 45.9004 14.5619C49.2364 17.9281 51.3035 22.1197 52.0582 27.0478C52.1687 27.7692 52.2165 28.6623 52.2165 30.0068C52.2165 33.56 51.525 36.5647 49.9856 39.7011C46.791 46.2094 40.8582 50.5222 33.5269 51.6654C32.121 51.8847 29.0682 51.8847 27.6622 51.6654C22.7784 50.9039 18.6247 48.8179 15.2888 45.4516C11.9528 42.0855 9.88564 37.8939 9.13095 32.9658C8.91368 31.5471 8.91368 28.4665 9.13095 27.0478C9.51467 24.5424 10.1655 22.4277 11.2036 20.3125C14.341 13.9206 20.2317 9.56953 27.3334 8.39834C29.1291 8.10225 31.6892 8.08835 33.5735 8.36462ZM32.0019 18.1184C31.1273 18.4055 30.2858 19.2078 30.0361 19.9924C29.7439 20.9109 30.0842 22.1027 30.8264 22.7603C32.4625 24.2099 35.2145 23.59 35.8609 21.6261C36.4426 19.8589 35.1071 18.0986 33.121 18.0146C32.6789 17.9959 32.2555 18.0351 32.0019 18.1184ZM28.9236 26.1628C28.2867 26.2763 25.7428 27.1555 25.6065 27.3092C25.5017 27.4275 25.1642 28.5976 25.2189 28.6529C25.2359 28.6701 25.5204 28.5984 25.851 28.4938C27.1487 28.0827 28.3587 28.2732 28.6728 28.9379C29.0066 29.644 28.8449 30.6267 27.8064 34.205C27.0042 36.9695 26.8646 37.6254 26.85 38.6959C26.8406 39.3874 26.8772 39.6304 27.0509 40.0311C27.3252 40.6632 28.0052 41.3031 28.8036 41.6801C29.3664 41.9459 29.5352 41.9788 30.515 42.0141C31.82 42.061 32.4396 41.9399 34.1786 41.2979L35.3887 40.8511L35.5685 40.221C35.6673 39.8745 35.7262 39.5687 35.6994 39.5416C35.6725 39.5145 35.4659 39.5621 35.2403 39.6473C34.6369 39.8754 33.0708 39.8796 32.6617 39.6541C31.6898 39.1187 31.7496 38.2154 33.0566 33.6967C33.8736 30.872 33.9461 30.5269 33.9547 29.425C33.9668 27.8602 33.4642 27.0491 32.084 26.4066C31.5461 26.1562 31.3653 26.122 30.4549 26.0987C29.8918 26.0842 29.2027 26.1132 28.9236 26.1628Z" fill="#D7D7D7"/>
</svg>
