<svg class="how-to-entry-accor-svgs" width="64" height="83" viewBox="0 0 64 83" fill="none" xmlns="http://www.w3.org/2000/svg">
<path d="M2.84933e-06 0L64 -5.19945e-06L64 83L30.9333 57.8816L7.80819e-06 83L2.84933e-06 0Z" fill="#FFCC65"/>
<path d="M21.8906 24.4375C23.5677 24.4375 25.0104 24.849 26.2188 25.6719C27.4375 26.4948 28.375 27.7552 29.0312 29.4531C29.6979 31.1406 30.0312 33.4948 30.0312 36.5156C30.0312 39.5677 29.6927 41.9427 29.0156 43.6406C28.349 45.3385 27.4479 46.5885 26.3125 47.3906C25.1771 48.1823 23.7448 48.5781 22.0156 48.5781C20.2865 48.5781 18.8333 48.1771 17.6562 47.375C16.4792 46.5729 15.5573 45.3542 14.8906 43.7188C14.224 42.0833 13.8906 39.7552 13.8906 36.7344C13.8906 32.5156 14.5417 29.4583 15.8438 27.5625C17.2917 25.4792 19.3073 24.4375 21.8906 24.4375ZM22 28.5938C21.2604 28.5938 20.6042 28.8333 20.0312 29.3125C19.4583 29.7812 19.0208 30.5938 18.7188 31.75C18.4167 32.9062 18.2656 34.599 18.2656 36.8281C18.2656 39.7344 18.6094 41.7448 19.2969 42.8594C19.9948 43.9635 20.8958 44.5156 22 44.5156C23.0625 44.5156 23.9062 43.9896 24.5312 42.9375C25.2917 41.6667 25.6719 39.5417 25.6719 36.5625C25.6719 33.5417 25.3281 31.4583 24.6406 30.3125C23.9635 29.1667 23.0833 28.5938 22 28.5938ZM41.5312 24.4375H45.9062V39.2344H47.9531V43.2812H45.9062V48H41.625V43.2812H31.5938V39.2344L41.5312 24.4375ZM41.625 39.2344V31.5312L36.375 39.2344H41.625Z" fill="white"/>
</svg>
