<svg class="how-to-entry-accor-svgs" width="64" height="83" viewBox="0 0 64 83" fill="none" xmlns="http://www.w3.org/2000/svg">
<path d="M2.84933e-06 0L64 -5.19945e-06L64 83L30.9333 57.8816L7.80818e-06 83L2.84933e-06 0Z" fill="#67B96F"/>
<path d="M21.8906 24.4375C23.5677 24.4375 25.0104 24.849 26.2188 25.6719C27.4375 26.4948 28.375 27.7552 29.0312 29.4531C29.6979 31.1406 30.0312 33.4948 30.0312 36.5156C30.0312 39.5677 29.6927 41.9427 29.0156 43.6406C28.349 45.3385 27.4479 46.5885 26.3125 47.3906C25.1771 48.1823 23.7448 48.5781 22.0156 48.5781C20.2865 48.5781 18.8333 48.1771 17.6562 47.375C16.4792 46.5729 15.5573 45.3542 14.8906 43.7188C14.224 42.0833 13.8906 39.7552 13.8906 36.7344C13.8906 32.5156 14.5417 29.4583 15.8438 27.5625C17.2917 25.4792 19.3073 24.4375 21.8906 24.4375ZM22 28.5938C21.2604 28.5938 20.6042 28.8333 20.0312 29.3125C19.4583 29.7812 19.0208 30.5938 18.7188 31.75C18.4167 32.9062 18.2656 34.599 18.2656 36.8281C18.2656 39.7344 18.6094 41.7448 19.2969 42.8594C19.9948 43.9635 20.8958 44.5156 22 44.5156C23.0625 44.5156 23.9062 43.9896 24.5312 42.9375C25.2917 41.6667 25.6719 39.5417 25.6719 36.5625C25.6719 33.5417 25.3281 31.4583 24.6406 30.3125C23.9635 29.1667 23.0833 28.5938 22 28.5938ZM36.2812 25.0156H47.0469V29.0469H39.5469L38.6094 33.2344C38.8698 33.1615 39.125 33.1094 39.375 33.0781C39.625 33.0365 39.8646 33.0156 40.0938 33.0156C42.1771 33.0156 43.9062 33.7292 45.2812 35.1562C46.6667 36.5729 47.3594 38.3906 47.3594 40.6094C47.3594 42.849 46.5938 44.7396 45.0625 46.2812C43.5417 47.8125 41.6875 48.5781 39.5 48.5781C37.5417 48.5781 35.8594 48.0208 34.4531 46.9062C33.0469 45.7917 32.125 44.2656 31.6875 42.3281H36.2812C36.6354 43.0469 37.099 43.5938 37.6719 43.9688C38.2552 44.3333 38.8958 44.5156 39.5938 44.5156C40.5625 44.5156 41.3854 44.1667 42.0625 43.4688C42.7396 42.7708 43.0781 41.875 43.0781 40.7812C43.0781 39.7188 42.7604 38.849 42.125 38.1719C41.5 37.4844 40.7396 37.1406 39.8438 37.1406C39.3646 37.1406 38.8906 37.2604 38.4219 37.5C37.9635 37.7396 37.5104 38.099 37.0625 38.5781L33.5 37.7812L36.2812 25.0156Z" fill="white"/>
</svg>
