<svg class="how-to-entry-accor-svgs" width="64" height="83" viewBox="0 0 64 83" fill="none" xmlns="http://www.w3.org/2000/svg">
<path d="M2.84933e-06 0L64 -5.19945e-06L64 83L30.9333 57.8816L7.80818e-06 83L2.84933e-06 0Z" fill="#BD81CD"/>
<path d="M21.8906 24.4375C23.5677 24.4375 25.0104 24.849 26.2188 25.6719C27.4375 26.4948 28.375 27.7552 29.0312 29.4531C29.6979 31.1406 30.0312 33.4948 30.0312 36.5156C30.0312 39.5677 29.6927 41.9427 29.0156 43.6406C28.349 45.3385 27.4479 46.5885 26.3125 47.3906C25.1771 48.1823 23.7448 48.5781 22.0156 48.5781C20.2865 48.5781 18.8333 48.1771 17.6562 47.375C16.4792 46.5729 15.5573 45.3542 14.8906 43.7188C14.224 42.0833 13.8906 39.7552 13.8906 36.7344C13.8906 32.5156 14.5417 29.4583 15.8438 27.5625C17.2917 25.4792 19.3073 24.4375 21.8906 24.4375ZM22 28.5938C21.2604 28.5938 20.6042 28.8333 20.0312 29.3125C19.4583 29.7812 19.0208 30.5938 18.7188 31.75C18.4167 32.9062 18.2656 34.599 18.2656 36.8281C18.2656 39.7344 18.6094 41.7448 19.2969 42.8594C19.9948 43.9635 20.8958 44.5156 22 44.5156C23.0625 44.5156 23.9062 43.9896 24.5312 42.9375C25.2917 41.6667 25.6719 39.5417 25.6719 36.5625C25.6719 33.5417 25.3281 31.4583 24.6406 30.3125C23.9635 29.1667 23.0833 28.5938 22 28.5938ZM36.5156 32.4219H32.25C32.3646 29.9427 33.1406 27.9948 34.5781 26.5781C36.026 25.151 37.8802 24.4375 40.1406 24.4375C41.5365 24.4375 42.7656 24.7344 43.8281 25.3281C44.901 25.9115 45.7552 26.7604 46.3906 27.875C47.0365 28.9792 47.3594 30.1042 47.3594 31.25C47.3594 32.6146 46.9688 34.0833 46.1875 35.6562C45.4167 37.2292 44 39.0885 41.9375 41.2344L39.3594 43.9531H47.5469V48H31.625V45.9062L38.7344 38.6562C40.4531 36.9167 41.5938 35.5208 42.1562 34.4688C42.7292 33.4062 43.0156 32.4479 43.0156 31.5938C43.0156 30.7083 42.7188 29.9792 42.125 29.4062C41.5417 28.8229 40.7865 28.5312 39.8594 28.5312C38.9219 28.5312 38.1406 28.8802 37.5156 29.5781C36.8906 30.276 36.5573 31.224 36.5156 32.4219Z" fill="white"/>
</svg>
