<svg class="how-to-entry-accor-svgs" width="64" height="83" viewBox="0 0 64 83" fill="none" xmlns="http://www.w3.org/2000/svg">
<path d="M2.84933e-06 0L64 -5.19945e-06L64 83L30.9333 57.8816L7.80818e-06 83L2.84933e-06 0Z" fill="#F28D77"/>
<path d="M21.8906 24.4375C23.5677 24.4375 25.0104 24.849 26.2188 25.6719C27.4375 26.4948 28.375 27.7552 29.0312 29.4531C29.6979 31.1406 30.0312 33.4948 30.0312 36.5156C30.0312 39.5677 29.6927 41.9427 29.0156 43.6406C28.349 45.3385 27.4479 46.5885 26.3125 47.3906C25.1771 48.1823 23.7448 48.5781 22.0156 48.5781C20.2865 48.5781 18.8333 48.1771 17.6562 47.375C16.4792 46.5729 15.5573 45.3542 14.8906 43.7188C14.224 42.0833 13.8906 39.7552 13.8906 36.7344C13.8906 32.5156 14.5417 29.4583 15.8438 27.5625C17.2917 25.4792 19.3073 24.4375 21.8906 24.4375ZM22 28.5938C21.2604 28.5938 20.6042 28.8333 20.0312 29.3125C19.4583 29.7812 19.0208 30.5938 18.7188 31.75C18.4167 32.9062 18.2656 34.599 18.2656 36.8281C18.2656 39.7344 18.6094 41.7448 19.2969 42.8594C19.9948 43.9635 20.8958 44.5156 22 44.5156C23.0625 44.5156 23.9062 43.9896 24.5312 42.9375C25.2917 41.6667 25.6719 39.5417 25.6719 36.5625C25.6719 33.5417 25.3281 31.4583 24.6406 30.3125C23.9635 29.1667 23.0833 28.5938 22 28.5938ZM37.0156 30.6875H32.8125C33.0312 28.9896 33.6406 27.625 34.6406 26.5938C36.0365 25.1562 37.7917 24.4375 39.9062 24.4375C41.7917 24.4375 43.3698 25.0365 44.6406 26.2344C45.9219 27.4323 46.5625 28.8542 46.5625 30.5C46.5625 31.5208 46.2812 32.4531 45.7188 33.2969C45.1667 34.1406 44.3594 34.8229 43.2969 35.3438C44.6927 35.7604 45.7812 36.4896 46.5625 37.5312C47.3542 38.5625 47.75 39.7812 47.75 41.1875C47.75 43.25 46.9896 45 45.4688 46.4375C43.9479 47.8646 42.0104 48.5781 39.6562 48.5781C37.4271 48.5781 35.6094 47.9062 34.2031 46.5625C32.7969 45.2083 32.026 43.3698 31.8906 41.0469H36.2188C36.4062 42.2344 36.8177 43.1198 37.4531 43.7031C38.099 44.276 38.9115 44.5625 39.8906 44.5625C40.9115 44.5625 41.7552 44.2344 42.4219 43.5781C43.099 42.9219 43.4375 42.1198 43.4375 41.1719C43.4375 40.1302 42.9844 39.25 42.0781 38.5312C41.1719 37.8125 39.8646 37.4427 38.1562 37.4219V33.6719C39.2083 33.5885 39.9896 33.4271 40.5 33.1875C41.0208 32.9375 41.4219 32.599 41.7031 32.1719C41.9948 31.7448 42.1406 31.2917 42.1406 30.8125C42.1406 30.1875 41.9219 29.6719 41.4844 29.2656C41.0469 28.849 40.474 28.6406 39.7656 28.6406C39.1406 28.6406 38.5729 28.8333 38.0625 29.2188C37.5521 29.5938 37.2031 30.0833 37.0156 30.6875Z" fill="white"/>
</svg>
