<svg width="182" height="204" viewBox="0 0 182 204" fill="none" xmlns="http://www.w3.org/2000/svg">
<path d="M109.986 72.2744L110.41 69.7869C110.675 68.2244 111.126 66.9495 111.744 65.9545C112.372 64.9673 113.087 64.1433 113.909 63.4826C114.731 62.8218 115.544 62.2466 116.366 61.7413C117.462 61.0884 118.443 60.4276 119.326 59.7591C120.201 59.0906 120.749 58.1344 120.961 56.8829C121.076 56.1988 120.979 55.5925 120.67 55.0717C120.36 54.5509 119.954 54.1233 119.441 53.7813C118.938 53.4393 118.416 53.2372 117.886 53.1672C116.852 53.0273 115.96 53.1283 115.191 53.4548C114.422 53.7891 113.759 54.2477 113.202 54.8463C112.646 55.4448 112.142 56.0822 111.7 56.7585L106 53.4082C106.309 52.8718 106.804 52.2033 107.493 51.3949C108.174 50.5864 109.084 49.8168 110.215 49.0706C111.346 48.3243 112.699 47.7491 114.272 47.3527C115.845 46.9562 117.665 46.894 119.733 47.1661C121.757 47.4382 123.533 47.9823 125.044 48.8063C126.555 49.6303 127.686 50.7419 128.429 52.1333C129.171 53.5248 129.366 55.2583 129.012 57.3182C128.72 59.0362 128.208 60.3965 127.492 61.3915C126.776 62.3865 125.963 63.195 125.053 63.8246C124.143 64.4543 123.241 65.0761 122.331 65.698C121.633 66.1489 120.953 66.6619 120.299 67.2294C119.636 67.7969 119.07 68.4809 118.611 69.2816C118.142 70.0822 117.815 71.0772 117.612 72.2666L117.444 73.2538L109.986 72.2744ZM112.027 82.6753C110.746 82.5042 109.747 82.0611 109.04 81.346C108.324 80.6308 108.059 79.768 108.227 78.7652C108.395 77.7935 108.952 77.0395 109.897 76.4876C110.843 75.9434 111.939 75.7491 113.185 75.9123C114.431 76.0756 115.394 76.542 116.083 77.3038C116.773 78.0656 117.029 78.9362 116.87 79.9001C116.702 80.9029 116.172 81.6569 115.279 82.1622C114.386 82.6753 113.308 82.8463 112.027 82.6753Z" fill="#C9ECED"/>
<path d="M100.685 21.7249L100.252 19.7194C99.9785 18.4601 99.9343 17.3718 100.111 16.4701C100.288 15.5683 100.588 14.7677 101.021 14.0681C101.454 13.3684 101.905 12.731 102.373 12.1558C103.01 11.394 103.566 10.6555 104.035 9.94035C104.503 9.2252 104.636 8.36234 104.415 7.35179C104.3 6.79988 104.035 6.35679 103.646 6.0303C103.248 5.70381 102.806 5.47062 102.312 5.33069C101.817 5.19077 101.357 5.1519 100.933 5.22963C100.102 5.36956 99.4394 5.6494 98.9534 6.08471C98.4674 6.52003 98.105 7.03308 97.8576 7.61609C97.6102 8.20687 97.4246 8.8132 97.292 9.43508L91.9102 8.21465C91.9809 7.73269 92.1576 7.10304 92.4404 6.3257C92.7232 5.54835 93.1739 4.73991 93.819 3.90037C94.4553 3.06084 95.3213 2.30682 96.4083 1.63053C97.4953 0.954234 98.8739 0.480053 100.535 0.200209C102.17 -0.0718622 103.69 -0.0640901 105.104 0.207981C106.518 0.480052 107.72 1.07084 108.71 1.96478C109.699 2.85873 110.38 4.13358 110.733 5.80487C111.034 7.19632 111.052 8.35456 110.813 9.27961C110.565 10.2124 110.194 11.0209 109.691 11.7205C109.187 12.4201 108.683 13.1119 108.171 13.796C107.773 14.309 107.411 14.8532 107.075 15.444C106.739 16.0347 106.518 16.6955 106.403 17.4184C106.288 18.1414 106.341 18.9809 106.545 19.9448L106.712 20.7377L100.685 21.7249ZM105.405 29.2108C104.371 29.3818 103.469 29.2729 102.709 28.892C101.94 28.5111 101.472 27.9126 101.304 27.1041C101.136 26.319 101.331 25.6116 101.896 24.9664C102.453 24.329 103.239 23.9248 104.247 23.7538C105.254 23.5905 106.129 23.7149 106.889 24.1425C107.649 24.5622 108.109 25.1686 108.277 25.9537C108.453 26.7621 108.277 27.4617 107.746 28.0603C107.216 28.6588 106.439 29.0397 105.405 29.2108Z" fill="#C9ECED"/>
<path d="M161.267 66.507L161.682 65.0456C161.947 64.1283 162.292 63.3898 162.725 62.8302C163.158 62.2705 163.644 61.8196 164.183 61.462C164.713 61.1122 165.244 60.8091 165.756 60.5448C166.454 60.2105 167.082 59.8607 167.647 59.5109C168.213 59.1533 168.602 58.6092 168.814 57.8785C168.929 57.4742 168.911 57.1089 168.761 56.7824C168.611 56.4559 168.39 56.1761 168.116 55.9506C167.833 55.7252 167.541 55.5775 167.223 55.5076C166.613 55.3754 166.074 55.391 165.597 55.5464C165.12 55.7019 164.696 55.9506 164.325 56.2771C163.953 56.6036 163.618 56.9612 163.308 57.3421L160.127 55.0567C160.348 54.7535 160.684 54.3804 161.143 53.9296C161.603 53.4865 162.195 53.0667 162.911 52.678C163.635 52.2894 164.475 52.0173 165.447 51.854C166.41 51.6986 167.506 51.7452 168.717 52.0173C169.91 52.2816 170.926 52.6936 171.783 53.261C172.631 53.8285 173.232 54.5437 173.586 55.4143C173.939 56.2849 173.939 57.3266 173.595 58.5392C173.303 59.5498 172.914 60.3349 172.428 60.8946C171.933 61.4543 171.403 61.8973 170.82 62.2238C170.237 62.5581 169.653 62.8846 169.079 63.2033C168.637 63.4365 168.195 63.7086 167.762 64.0117C167.329 64.3149 166.949 64.6958 166.622 65.1544C166.295 65.6131 166.03 66.1883 165.827 66.8879L165.659 67.4709L161.267 66.507ZM161.815 72.8113C161.064 72.648 160.498 72.3293 160.118 71.8629C159.738 71.3965 159.632 70.8757 159.8 70.2849C159.959 69.7174 160.339 69.2899 160.949 69.0101C161.55 68.7302 162.212 68.6758 162.946 68.8313C163.679 68.9945 164.227 69.321 164.581 69.8107C164.943 70.3005 165.04 70.829 164.881 71.4043C164.713 71.9951 164.351 72.4148 163.785 72.6714C163.22 72.9279 162.566 72.9745 161.815 72.8113Z" fill="#C9ECED"/>
<path d="M122.451 183.086C147.075 180.693 164.832 161.194 162.111 139.533C159.39 117.873 137.223 102.254 112.598 104.647C87.9738 107.04 70.2172 126.539 72.9379 148.2C75.6585 169.86 97.826 185.479 122.451 183.086Z" fill="#BD81CD"/>
<path d="M110.423 182.822C137.111 186.677 161.999 172.368 166.013 150.863C170.028 129.359 151.647 108.801 124.959 104.946C98.2714 101.092 73.3827 115.4 69.3686 136.905C65.3545 158.41 83.7351 178.968 110.423 182.822Z" stroke="#BD81CD" stroke-width="0.9215" stroke-miterlimit="10"/>
<path d="M128.497 179.623L113.913 196.793L117.428 176.299L128.497 179.623Z" fill="#BD81CD"/>
<path d="M111.763 154.911L112.63 151.361C113.177 149.13 113.948 147.325 114.95 145.951C115.951 144.578 117.075 143.446 118.326 142.562C119.578 141.678 120.813 140.912 122.035 140.253C123.678 139.398 125.163 138.526 126.497 137.632C127.83 136.743 128.714 135.402 129.152 133.62C129.391 132.638 129.313 131.759 128.923 130.987C128.528 130.209 127.985 129.563 127.289 129.031C126.593 128.505 125.868 128.165 125.106 128.022C123.631 127.744 122.333 127.813 121.194 128.227C120.055 128.642 119.059 129.257 118.192 130.076C117.326 130.89 116.541 131.771 115.832 132.711L113.757 132.319L107.963 127.441C108.463 126.694 109.25 125.771 110.313 124.663C111.382 123.561 112.764 122.51 114.468 121.528C116.166 120.544 118.175 119.824 120.487 119.377C122.799 118.93 125.428 118.982 128.372 119.539C131.262 120.087 133.758 121.016 135.854 122.323C137.95 123.631 139.461 125.318 140.385 127.384C141.309 129.451 141.412 131.956 140.694 134.904C140.094 137.357 139.227 139.274 138.096 140.645C136.965 142.016 135.709 143.123 134.336 143.957C132.963 144.796 131.593 145.619 130.224 146.432C129.175 147.029 128.148 147.71 127.136 148.476C126.124 149.242 125.246 150.185 124.492 151.299C123.743 152.42 123.158 153.826 122.742 155.519L122.4 156.922L111.763 154.911ZM113.632 170.039C111.803 169.693 110.416 168.974 109.46 167.88C108.503 166.786 108.204 165.531 108.551 164.101C108.89 162.719 109.768 161.672 111.192 160.96C112.61 160.248 114.209 160.064 115.99 160.397C117.765 160.736 119.109 161.481 120.024 162.635C120.938 163.788 121.223 165.057 120.884 166.439C120.537 167.869 119.696 168.911 118.363 169.57C117.035 170.23 115.454 170.389 113.632 170.039Z" fill="#BD81CD"/>
<path d="M109.69 154.514L110.558 150.964C111.105 148.734 111.876 146.928 112.877 145.555C113.879 144.181 115.002 143.05 116.254 142.166C117.505 141.281 118.741 140.515 119.963 139.856C121.606 139.001 123.091 138.129 124.425 137.235C125.758 136.347 126.641 135.005 127.08 133.223C127.319 132.242 127.241 131.362 126.851 130.591C126.456 129.813 125.912 129.166 125.217 128.635C124.521 128.108 123.796 127.769 123.034 127.626C121.565 127.348 120.261 127.416 119.122 127.831C117.983 128.245 116.987 128.86 116.12 129.68C115.254 130.494 114.469 131.374 113.76 132.315L105.892 127.039C106.391 126.293 107.178 125.369 108.242 124.261C109.31 123.159 110.692 122.108 112.397 121.126C114.095 120.143 116.104 119.423 118.416 118.976C120.728 118.529 123.357 118.581 126.301 119.137C129.191 119.685 131.687 120.614 133.783 121.921C135.879 123.229 137.389 124.916 138.314 126.982C139.244 129.05 139.341 131.554 138.623 134.502C138.023 136.955 137.156 138.872 136.024 140.243C134.893 141.614 133.637 142.721 132.265 143.555C130.892 144.394 129.521 145.218 128.153 146.03C127.104 146.627 126.077 147.308 125.065 148.074C124.053 148.84 123.175 149.783 122.421 150.898C121.672 152.018 121.086 153.424 120.671 155.117L120.329 156.52L109.69 154.514ZM111.559 169.648C109.73 169.302 108.343 168.582 107.386 167.489C106.43 166.395 106.13 165.139 106.478 163.71C106.816 162.328 107.695 161.281 109.119 160.569C110.537 159.857 112.136 159.673 113.917 160.006C115.691 160.344 117.036 161.09 117.95 162.243C118.865 163.397 119.149 164.666 118.811 166.048C118.463 167.478 117.623 168.519 116.29 169.179C114.962 169.839 113.387 169.994 111.559 169.648Z" fill="#F5F6F9"/>
<path d="M66.8911 88.5127C81.6784 80.2122 86.0161 62.9388 76.5798 49.9315C67.1434 36.9242 47.5063 33.1086 32.719 41.4091C17.9318 49.7096 13.594 66.983 23.0304 79.9903C32.4668 92.9976 52.1039 96.8132 66.8911 88.5127Z" fill="#6CD3D3"/>
<path d="M59.1538 91.6591C77.4748 86.7583 88.1895 70.8176 83.0856 56.0546C77.9818 41.2916 58.9922 33.2967 40.6712 38.1975C22.3502 43.0984 11.6355 59.0391 16.7393 73.8021C21.8431 88.5651 40.8327 96.5599 59.1538 91.6591Z" stroke="#6CD3D3" stroke-width="0.9215" stroke-miterlimit="10"/>
<path d="M69.4979 84.6487L66.3461 99.5688L61.2852 85.5854L69.4979 84.6487Z" fill="#6CD3D3"/>
<path d="M50.0807 73.5634L49.3683 71.0701C48.9217 69.5028 48.7692 68.1438 48.9164 66.9959C49.0635 65.8479 49.3744 64.8196 49.8546 63.9135C50.3347 63.0075 50.8467 62.1806 51.3882 61.4257C52.1276 60.4303 52.7603 59.4675 53.2894 58.5324C53.8196 57.6009 53.9035 56.5058 53.5475 55.2531C53.3501 54.5642 52.9876 54.0271 52.4654 53.6444C51.9378 53.2591 51.3625 52.9983 50.7317 52.852C50.1021 52.7094 49.5208 52.6934 48.9862 52.8125C47.9502 53.0417 47.1505 53.4431 46.5747 54.0198C45.9988 54.5966 45.585 55.2616 45.3261 56.0207C45.0659 56.7762 44.8806 57.5516 44.7648 58.3442L43.3075 58.6662L37.8919 57.1639C37.9433 56.552 38.1144 55.7486 38.3955 54.7522C38.6821 53.7583 39.1857 52.7104 39.9185 51.6171C40.6471 50.525 41.6668 49.5144 42.9761 48.5939C44.2854 47.6734 45.9734 46.9826 48.0412 46.5252C50.0717 46.0778 51.9873 45.9801 53.7839 46.2332C55.5806 46.4864 57.1401 47.142 58.4624 48.1999C59.7848 49.2579 60.742 50.8203 61.3354 52.8907C61.8267 54.6136 61.9584 56.0699 61.7279 57.2521C61.4974 58.4343 61.0939 59.4834 60.5191 60.3909C59.9455 61.302 59.3681 62.2021 58.7882 63.095C58.3345 63.7627 57.9246 64.4785 57.5544 65.2435C57.1842 66.0085 56.9626 66.8494 56.8801 67.7647C56.803 68.6826 56.9317 69.7368 57.2704 70.9263L57.5522 71.9117L50.0807 73.5634ZM56.6517 82.6565C55.3671 82.9403 54.2305 82.8655 53.2337 82.4343C52.2368 82.0031 51.5998 81.2882 51.3117 80.2846C51.0351 79.3138 51.2202 78.4069 51.8714 77.5627C52.5183 76.7197 53.4682 76.1625 54.7183 75.884C55.9656 75.6101 57.0848 75.7135 58.0761 76.1941C59.0673 76.6746 59.6998 77.4027 59.9765 78.3735C60.2646 79.3772 60.1018 80.2701 59.4894 81.056C58.8812 81.8408 57.9334 82.3775 56.6517 82.6565Z" fill="#6CD3D3"/>
<path d="M48.6161 73.882L47.9038 71.3887C47.4571 69.8214 47.3047 68.4624 47.4518 67.3145C47.5989 66.1665 47.9099 65.1382 48.39 64.2321C48.8701 63.3261 49.3822 62.4992 49.9236 61.7442C50.663 60.7489 51.2958 59.7861 51.8248 58.851C52.3551 57.9195 52.4389 56.8244 52.0829 55.5717C51.8855 54.8828 51.523 54.3457 51.0008 53.963C50.4732 53.5777 49.898 53.3169 49.2671 53.1706C48.6375 53.028 48.0562 53.012 47.5216 53.131C46.4898 53.3592 45.686 53.7617 45.1101 54.3384C44.5343 54.9151 44.1204 55.5802 43.8615 56.3393C43.6014 57.0948 43.4161 57.8702 43.3002 58.6628L36.4261 57.4789C36.4775 56.8669 36.6485 56.0635 36.9297 55.0671C37.2163 54.0732 37.7199 53.0253 38.4526 51.9321C39.1812 50.8399 40.201 49.8294 41.5103 48.9089C42.8196 47.9884 44.5075 47.2976 46.5754 46.8402C48.6058 46.3927 50.5215 46.295 52.3181 46.5482C54.1148 46.8013 55.6743 47.4569 56.9966 48.5149C58.3231 49.5717 59.2762 51.1352 59.8696 53.2057C60.3609 54.9286 60.4926 56.3848 60.2621 57.567C60.0316 58.7493 59.6281 59.7983 59.0532 60.7058C58.4797 61.6169 57.9023 62.5171 57.3224 63.4099C56.8687 64.0776 56.4588 64.7934 56.0886 65.5584C55.7184 66.3234 55.4968 67.1643 55.4143 68.0797C55.3372 68.9975 55.4659 70.0518 55.8046 71.2413L56.0863 72.2267L48.6161 73.882ZM55.1884 82.9788C53.9038 83.2626 52.7672 83.1878 51.7704 82.7565C50.7735 82.3253 50.1365 81.6104 49.8484 80.6068C49.5718 79.636 49.7569 78.7291 50.4081 77.885C51.055 77.0419 52.0049 76.4848 53.255 76.2062C54.5023 75.9324 55.6215 76.0358 56.6128 76.5163C57.604 76.9969 58.2365 77.7249 58.5132 78.6957C58.8012 79.6994 58.6385 80.5923 58.0261 81.3782C57.4179 82.163 56.473 82.6949 55.1884 82.9788Z" fill="#F5F6F9"/>
</svg>
