<svg class="how-to-entry-accor-svgs" width="64" height="83" viewBox="0 0 64 83" fill="none" xmlns="http://www.w3.org/2000/svg">
<path d="M2.84933e-06 0L64 -5.19945e-06L64 83L30.9333 57.8816L7.80819e-06 83L2.84933e-06 0Z" fill="#43BBD6"/>
<path d="M23.3227 24.4375C24.9998 24.4375 26.4425 24.849 27.6508 25.6719C28.8696 26.4948 29.8071 27.7552 30.4633 29.4531C31.13 31.1406 31.4633 33.4948 31.4633 36.5156C31.4633 39.5677 31.1248 41.9427 30.4477 43.6406C29.781 45.3385 28.88 46.5885 27.7446 47.3906C26.6091 48.1823 25.1769 48.5781 23.4477 48.5781C21.7185 48.5781 20.2654 48.1771 19.0883 47.375C17.9112 46.5729 16.9894 45.3542 16.3227 43.7188C15.656 42.0833 15.3227 39.7552 15.3227 36.7344C15.3227 32.5156 15.9737 29.4583 17.2758 27.5625C18.7237 25.4792 20.7394 24.4375 23.3227 24.4375ZM23.4321 28.5938C22.6925 28.5938 22.0362 28.8333 21.4633 29.3125C20.8904 29.7812 20.4529 30.5938 20.1508 31.75C19.8487 32.9062 19.6977 34.599 19.6977 36.8281C19.6977 39.7344 20.0414 41.7448 20.7289 42.8594C21.4269 43.9635 22.3279 44.5156 23.4321 44.5156C24.4946 44.5156 25.3383 43.9896 25.9633 42.9375C26.7237 41.6667 27.1039 39.5417 27.1039 36.5625C27.1039 33.5417 26.7602 31.4583 26.0727 30.3125C25.3956 29.1667 24.5154 28.5938 23.4321 28.5938ZM37.6352 25.0156H44.1821V48H39.8383V29.125H35.1039L37.6352 25.0156Z" fill="white"/>
</svg>
