<svg  id="contacts-phone" class="svg-footer-color" viewBox="0 0 24 24" fill="none" xmlns="http://www.w3.org/2000/svg">
<path fill-rule="evenodd" clip-rule="evenodd" d="M2.82821 0.76672C3.09067 0.504653 3.40583 0.301358 3.7528 0.170305C4.09977 0.0392528 4.47064 -0.0165637 4.84082 0.00655466C5.21099 0.029673 5.57203 0.131198 5.9 0.304402C6.22797 0.477607 6.51539 0.718535 6.74321 1.01122L9.43571 4.47022C9.92921 5.10472 10.1032 5.93122 9.90821 6.71122L9.08771 9.99622C9.04529 10.1664 9.04758 10.3446 9.09436 10.5136C9.14114 10.6826 9.23083 10.8366 9.35471 10.9607L13.0402 14.6462C13.1645 14.7704 13.3187 14.8602 13.488 14.907C13.6573 14.9538 13.8358 14.9559 14.0062 14.9132L17.2897 14.0927C17.6746 13.9965 18.0764 13.989 18.4646 14.0709C18.8529 14.1527 19.2174 14.3218 19.5307 14.5652L22.9897 17.2562C24.2332 18.2237 24.3472 20.0612 23.2342 21.1727L21.6832 22.7237C20.5732 23.8337 18.9142 24.3212 17.3677 23.7767C13.4095 22.384 9.81561 20.118 6.85271 17.1467C3.88164 14.1842 1.61562 10.5909 0.222706 6.63322C-0.320294 5.08822 0.167206 3.42772 1.27721 2.31772L2.82821 0.76672Z" fill="#00B2B5"/>
</svg>
