<svg id="eye" z viewBox="0 0 24 24" fill="none" xmlns="http://www.w3.org/2000/svg">
<path fill-rule="evenodd" clip-rule="evenodd" d="M0.359918 10.8992C2.6072 6.78999 6.97685 4 11.9998 4C17.0228 4 21.3925 6.79007 23.6398 10.8994C24.1199 11.7772 24.1199 12.8384 23.6398 13.7162C21.3925 17.8254 17.0228 20.6154 11.9999 20.6154C6.97686 20.6154 2.60715 17.8253 0.359896 13.716C-0.120177 12.8382 -0.120168 11.777 0.359918 10.8992ZM8.99985 12C8.99985 10.3431 10.343 9 11.9998 9C13.6567 9 14.9998 10.3431 14.9998 12C14.9998 13.6569 13.6567 15 11.9998 15C10.343 15 8.99985 13.6569 8.99985 12ZM11.9998 7C9.23842 7 6.99985 9.23858 6.99985 12C6.99985 14.7614 9.23842 17 11.9998 17C14.7613 17 16.9998 14.7614 16.9998 12C16.9998 9.23858 14.7613 7 11.9998 7Z" fill="#25282B"/>
</svg>
