<svg id="eyeacross" width="25" height="24" viewBox="0 0 25 24" fill="none" xmlns="http://www.w3.org/2000/svg">
<path fill-rule="evenodd" clip-rule="evenodd" d="M6.13307 18.873C3.69404 17.6239 1.68143 15.6631 0.37055 13.266C-0.123525 12.3626 -0.123516 11.2704 0.370573 10.367C2.6834 6.13796 7.1805 3.2666 12.35 3.2666C15.0295 3.2666 17.5283 4.03804 19.636 5.37013L15.9598 9.04633C15.128 7.96416 13.8205 7.26667 12.3501 7.26667C9.8372 7.26667 7.8001 9.30377 7.8001 11.8167C7.8001 13.2871 8.49759 14.5946 9.57976 15.4263L6.13307 18.873ZM7.60681 19.5206C9.08403 20.0677 10.682 20.3666 12.35 20.3666C17.5195 20.3666 22.0166 17.4952 24.3294 13.2662C24.8235 12.3628 24.8235 11.2706 24.3295 10.3672C23.4598 8.777 22.2814 7.37877 20.8745 6.25296L16.6879 10.4395C16.8258 10.8739 16.9001 11.3366 16.9001 11.8167C16.9001 14.3296 14.863 16.3667 12.3501 16.3667C11.87 16.3667 11.4073 16.2923 10.9729 16.1545L7.60681 19.5206ZM12.3501 11.8167L10.2008 13.9807C9.64453 13.4282 9.3001 12.6627 9.3001 11.8167C9.3001 10.1322 10.6656 8.76667 12.3501 8.76667C13.0448 8.76667 13.6852 8.9989 14.1979 9.38996L12.3501 11.8167Z" fill="#25282B"/>
<path d="M21.5352 2L2.53516 21" stroke="#25282B" stroke-width="1.5" stroke-linecap="round" stroke-linejoin="round"/>
</svg>
