<svg id="img-header" width="30" height="26" viewBox="0 0 30 26" fill="none" xmlns="http://www.w3.org/2000/svg">
<path fill-rule="evenodd" clip-rule="evenodd" d="M1.39203 1.7265C2.07073 1.0478 2.99125 0.666504 3.95108 0.666504H25.6654C26.6252 0.666504 27.5457 1.0478 28.2244 1.7265C28.9031 2.4052 29.2844 3.32572 29.2844 4.28555V22.3808C29.2844 23.3406 28.9031 24.2611 28.2244 24.9398C27.5457 25.6185 26.6252 25.9998 25.6654 25.9998H3.95108C2.99125 25.9998 2.07073 25.6185 1.39203 24.9398C0.713323 24.2611 0.332031 23.3406 0.332031 22.3808V4.28555C0.332031 3.32572 0.713323 2.4052 1.39203 1.7265ZM26.9449 3.00602C26.6055 2.66667 26.1453 2.47603 25.6654 2.47603H3.95108C3.47116 2.47603 3.0109 2.66667 2.67155 3.00602C2.3322 3.34538 2.14155 3.80564 2.14155 4.28555V20.5713L6.92956 16.3116C7.07745 16.1643 7.27176 16.0726 7.47954 16.0522C7.68731 16.0317 7.89577 16.0838 8.06955 16.1995L12.8829 19.4059L19.5962 12.6926C19.7306 12.5586 19.9037 12.4702 20.0911 12.44C20.2785 12.4098 20.4706 12.4393 20.6403 12.5243L27.4749 16.0475V4.28555C27.4749 3.80564 27.2842 3.34538 26.9449 3.00602ZM10.1239 11.1212C10.6865 10.5585 11.0026 9.79549 11.0026 8.99984C11.0026 8.20419 10.6865 7.44113 10.1239 6.87852C9.56132 6.31591 8.79825 5.99984 8.0026 5.99984C7.20695 5.99984 6.44389 6.31591 5.88128 6.87852C5.31867 7.44113 5.0026 8.20419 5.0026 8.99984C5.0026 9.79549 5.31867 10.5585 5.88128 11.1212C6.44389 11.6838 7.20695 11.9998 8.0026 11.9998C8.79825 11.9998 9.56132 11.6838 10.1239 11.1212Z" fill="#25282B"/>
</svg>
