<svg id="logo"  width="99" height="61" viewBox="0 0 99 61" fill="none" xmlns="http://www.w3.org/2000/svg">
<path d="M25.3494 57.3559V56.4097H26.1878V52.5947C21.9112 53.7456 17.5184 54.3429 13.472 54.3429C13.0153 54.3429 12.5586 54.3356 12.1055 54.3199C13.9384 55.5386 16.17 56.5938 18.6402 57.4092H18.6426L18.7904 57.4564C20.7627 58.1118 26.9316 59.482 29.1111 59.7994C32.267 59.4118 35.6604 58.5564 38.3426 57.4407C38.3426 57.391 38.3426 57.4092 38.3426 57.3559H25.3494Z" fill="white"/>
<path d="M31.3003 18.1056H25.547C25.4137 18.1056 25.3047 17.9965 25.3047 17.8633V16.9147C25.3047 16.7814 25.4137 16.6724 25.547 16.6724H31.3003C31.4336 16.6724 31.5426 16.7814 31.5426 16.9147V17.8633C31.5426 17.9965 31.4348 18.1056 31.3003 18.1056ZM25.7893 17.621H31.058V17.157H25.7893V17.621Z" fill="white"/>
<path d="M31.2663 57.3836H25.4718C25.3385 57.3836 25.2295 57.2745 25.2295 57.1413V55.8946C25.2295 55.7614 25.3385 55.6523 25.4718 55.6523H31.2663C31.3996 55.6523 31.5086 55.7614 31.5086 55.8946V57.1413C31.5086 57.2745 31.3996 57.3836 31.2663 57.3836ZM25.7141 56.899H31.024V56.1369H25.7141V56.899Z" fill="white"/>
<path d="M30.7801 56.1367H25.9571C25.8917 56.1367 25.8299 56.1113 25.7851 56.064C25.7391 56.018 25.7148 55.955 25.7148 55.8908L25.7318 54.6757C25.7342 54.5436 25.842 54.437 25.9741 54.437H30.797C30.8624 54.437 30.9242 54.4624 30.9691 54.5097C31.0151 54.5557 31.0393 54.6187 31.0393 54.6829L31.0224 55.8981C31.0199 56.0301 30.9121 56.1367 30.7801 56.1367ZM26.2031 55.6521H30.5414L30.5511 54.9216H26.2128L26.2031 55.6521Z" fill="white"/>
<path d="M28.4227 19.4615C27.0562 19.4615 25.8398 18.5844 25.8398 17.8927C25.8398 17.8854 25.8398 17.8769 25.8411 17.8696C25.8507 17.7436 25.9549 17.6455 26.0821 17.6455H30.7633C30.8942 17.6455 31.0008 17.7485 31.0056 17.8781C31.0056 17.883 31.0056 17.889 31.0056 17.8927C31.0056 18.5844 29.7893 19.4615 28.4227 19.4615ZM26.4262 18.1301C26.6927 18.4899 27.4535 18.9769 28.4227 18.9769C29.3919 18.9769 30.1527 18.4899 30.4193 18.1301H26.4262Z" fill="white"/>
<path d="M30.364 54.661C30.2308 54.661 30.1217 54.5519 30.1217 54.4187V21.3051C29.7316 20.783 29.6359 19.9871 29.8479 19.3728C28.8812 19.4964 27.8732 19.4964 26.8883 19.3716C27.1015 19.9858 27.0046 20.783 26.6145 21.3051V54.4187C26.6145 54.5519 26.5054 54.661 26.3722 54.661C26.2389 54.661 26.1299 54.5519 26.1299 54.4187V21.2216C26.1299 21.1646 26.1505 21.1089 26.1868 21.0653C26.5915 20.5855 26.6278 19.6696 26.2607 19.2141C26.1977 19.1354 26.1892 19.0263 26.2401 18.9391C26.291 18.8519 26.3904 18.8059 26.4897 18.8228C27.7351 19.0336 29.0338 19.0336 30.2453 18.8228C30.3446 18.8059 30.444 18.8519 30.4961 18.9391C30.547 19.0263 30.5385 19.1354 30.4755 19.2141C30.1084 19.6684 30.146 20.5843 30.5494 21.0653C30.5857 21.1089 30.6063 21.1646 30.6063 21.2216V54.4199C30.6063 54.5531 30.4973 54.661 30.364 54.661Z" fill="white"/>
<path d="M27.7032 54.1319C27.57 54.1319 27.4609 54.0229 27.4609 53.8896V21.3697C27.4609 21.2365 27.57 21.1274 27.7032 21.1274C27.8365 21.1274 27.9455 21.2365 27.9455 21.3697V53.8896C27.9455 54.0241 27.8377 54.1319 27.7032 54.1319Z" fill="white"/>
<path d="M29.0333 54.1319C28.9 54.1319 28.791 54.0229 28.791 53.8896V21.3697C28.791 21.2365 28.9 21.1274 29.0333 21.1274C29.1666 21.1274 29.2756 21.2365 29.2756 21.3697V53.8896C29.2756 54.0241 29.1666 54.1319 29.0333 54.1319Z" fill="white"/>
<path d="M45.2378 18.1056H39.4845C39.3512 18.1056 39.2422 17.9965 39.2422 17.8633V16.9147C39.2422 16.7814 39.3512 16.6724 39.4845 16.6724H45.2378C45.3711 16.6724 45.4801 16.7814 45.4801 16.9147V17.8633C45.4801 17.9965 45.3723 18.1056 45.2378 18.1056ZM39.7268 17.621H44.9955V17.157H39.7268V17.621Z" fill="white"/>
<path d="M45.2038 57.3836H39.4093C39.276 57.3836 39.167 57.2745 39.167 57.1413V55.8946C39.167 55.7614 39.276 55.6523 39.4093 55.6523H45.2038C45.3371 55.6523 45.4461 55.7614 45.4461 55.8946V57.1413C45.4461 57.2745 45.3371 57.3836 45.2038 57.3836ZM39.6516 56.899H44.9615V56.1369H39.6516V56.899Z" fill="white"/>
<path d="M44.7176 56.137H39.8946C39.8292 56.137 39.7674 56.1115 39.7226 56.0643C39.6778 56.017 39.6523 55.9553 39.6523 55.891L39.6681 54.6771C39.6693 54.5451 39.7783 54.4385 39.9104 54.4385H44.7333C44.7987 54.4385 44.8605 54.4639 44.9053 54.5112C44.9502 54.5584 44.9756 54.6202 44.9756 54.6844L44.9586 55.8983C44.9574 56.0304 44.8496 56.137 44.7176 56.137ZM40.1406 55.6524H44.4789L44.4886 54.9231H40.1503L40.1406 55.6524Z" fill="white"/>
<path d="M42.3602 19.461C40.9937 19.461 39.7773 18.5839 39.7773 17.8922C39.7773 17.8861 39.7773 17.8788 39.7786 17.8716C39.787 17.7444 39.8912 17.645 40.0209 17.645H44.702C44.8304 17.645 44.9358 17.7456 44.9443 17.8716C44.9443 17.8788 44.9455 17.8861 44.9455 17.8922C44.9431 18.5839 43.728 19.461 42.3602 19.461ZM40.3637 18.1296C40.6302 18.4894 41.391 18.9764 42.3602 18.9764C43.3294 18.9764 44.0902 18.4894 44.3568 18.1296H40.3637Z" fill="white"/>
<path d="M44.3015 54.6614C44.1683 54.6614 44.0592 54.5524 44.0592 54.4192V21.3056C43.6703 20.7835 43.5734 19.9875 43.7854 19.3733C42.8187 19.4969 41.8107 19.4969 40.8258 19.3721C41.039 19.9863 40.9421 20.7835 40.552 21.3056V54.4192C40.552 54.5524 40.4429 54.6614 40.3097 54.6614C40.1764 54.6614 40.0674 54.5524 40.0674 54.4192V21.222C40.0674 21.1651 40.088 21.1094 40.1243 21.0658C40.529 20.586 40.5653 19.6701 40.1982 19.2146C40.1352 19.1359 40.1267 19.0268 40.1776 18.9396C40.2285 18.8524 40.3291 18.8063 40.4272 18.8233C41.6726 19.0341 42.9713 19.0341 44.1828 18.8233C44.2821 18.8063 44.3815 18.8524 44.4336 18.9396C44.4845 19.0268 44.4772 19.1359 44.413 19.2146C44.0459 19.6689 44.0835 20.5848 44.4869 21.0658C44.5232 21.1094 44.5438 21.1651 44.5438 21.222V54.4204C44.5438 54.5536 44.436 54.6614 44.3015 54.6614Z" fill="white"/>
<path d="M41.6407 54.1314C41.5075 54.1314 41.3984 54.0224 41.3984 53.8891V21.3693C41.3984 21.236 41.5075 21.127 41.6407 21.127C41.774 21.127 41.883 21.236 41.883 21.3693V53.8891C41.883 54.0236 41.7752 54.1314 41.6407 54.1314Z" fill="white"/>
<path d="M42.9708 54.1319C42.8375 54.1319 42.7285 54.0229 42.7285 53.8896V21.3697C42.7285 21.2365 42.8375 21.1274 42.9708 21.1274C43.1041 21.1274 43.2131 21.2365 43.2131 21.3697V53.8896C43.2131 54.0241 43.1041 54.1319 42.9708 54.1319Z" fill="white"/>
<path d="M59.1763 18.1056H53.423C53.2897 18.1056 53.1807 17.9965 53.1807 17.8633V16.9147C53.1807 16.7814 53.2897 16.6724 53.423 16.6724H59.1763C59.3096 16.6724 59.4186 16.7814 59.4186 16.9147V17.8633C59.4186 17.9965 59.3108 18.1056 59.1763 18.1056ZM53.6653 17.621H58.934V17.157H53.6653V17.621Z" fill="white"/>
<path d="M59.1423 57.3836H53.3478C53.2145 57.3836 53.1055 57.2745 53.1055 57.1413V55.8946C53.1055 55.7614 53.2145 55.6523 53.3478 55.6523H59.1423C59.2756 55.6523 59.3846 55.7614 59.3846 55.8946V57.1413C59.3846 57.2745 59.2768 57.3836 59.1423 57.3836ZM53.5901 56.899H58.9V56.1369H53.5901V56.899Z" fill="white"/>
<path d="M58.656 56.137H53.8331C53.7677 56.137 53.7059 56.1115 53.6611 56.0643C53.6163 56.017 53.5908 55.9553 53.5908 55.891L53.6078 54.6771C53.609 54.5451 53.718 54.4385 53.8501 54.4385H58.673C58.7384 54.4385 58.8002 54.4639 58.845 54.5112C58.8899 54.5584 58.9153 54.6202 58.9153 54.6844L58.8995 55.8983C58.8971 56.0304 58.7881 56.137 58.656 56.137ZM54.0791 55.6524H58.4174L58.4271 54.9231H54.0887L54.0791 55.6524Z" fill="white"/>
<path d="M56.2987 19.4615C54.9322 19.4615 53.7158 18.5844 53.7158 17.8927C53.7158 17.8866 53.7158 17.8793 53.717 17.8721C53.7255 17.7448 53.8297 17.6455 53.9593 17.6455H58.6405C58.7713 17.6455 58.878 17.7485 58.8828 17.8781C58.8828 17.883 58.8828 17.889 58.8828 17.8927C58.8828 18.5844 57.6665 19.4615 56.2987 19.4615ZM54.3022 18.1301C54.5687 18.4899 55.3295 18.9769 56.2987 18.9769C57.2679 18.9769 58.0287 18.4899 58.2952 18.1301H54.3022Z" fill="white"/>
<path d="M58.241 54.6614C58.1077 54.6614 57.9987 54.5524 57.9987 54.4192V21.3056C57.6086 20.7835 57.5129 19.9875 57.7249 19.3733C56.7581 19.4969 55.7502 19.4969 54.7652 19.3721C54.9784 19.9863 54.8815 20.7835 54.4914 21.3056V54.4192C54.4914 54.5524 54.3824 54.6614 54.2491 54.6614C54.1159 54.6614 54.0068 54.5524 54.0068 54.4192V21.222C54.0068 21.1651 54.0274 21.1094 54.0638 21.0658C54.4684 20.586 54.5048 19.6701 54.1377 19.2146C54.0747 19.1359 54.0662 19.0268 54.1171 18.9396C54.168 18.8524 54.2685 18.8063 54.3667 18.8233C55.6121 19.0341 56.9108 19.0341 58.1223 18.8233C58.2216 18.8063 58.3209 18.8524 58.373 18.9396C58.4239 19.0268 58.4166 19.1359 58.3524 19.2146C57.9854 19.6689 58.0229 20.5848 58.4263 21.0658C58.4627 21.1094 58.4833 21.1651 58.4833 21.222V54.4204C58.4833 54.5536 58.3755 54.6614 58.241 54.6614Z" fill="white"/>
<path d="M55.5792 54.1319C55.4459 54.1319 55.3369 54.0229 55.3369 53.8896V21.3697C55.3369 21.2365 55.4459 21.1274 55.5792 21.1274C55.7125 21.1274 55.8215 21.2365 55.8215 21.3697V53.8896C55.8215 54.0241 55.7137 54.1319 55.5792 54.1319Z" fill="white"/>
<path d="M56.9112 54.1319C56.778 54.1319 56.6689 54.0229 56.6689 53.8896V21.3697C56.6689 21.2365 56.778 21.1274 56.9112 21.1274C57.0445 21.1274 57.1535 21.2365 57.1535 21.3697V53.8896C57.1535 54.0241 57.0445 54.1319 56.9112 54.1319Z" fill="white"/>
<path d="M73.1148 18.106H67.3614C67.2282 18.106 67.1191 17.997 67.1191 17.8637V16.9151C67.1191 16.7819 67.2282 16.6729 67.3614 16.6729H73.1148C73.248 16.6729 73.3571 16.7819 73.3571 16.9151V17.8637C73.3571 17.997 73.248 18.106 73.1148 18.106ZM67.6025 17.6214H72.8713V17.1574H67.6025V17.6214Z" fill="white"/>
<path d="M73.0788 57.384H67.2843C67.151 57.384 67.042 57.275 67.042 57.1417V55.8951C67.042 55.7619 67.151 55.6528 67.2843 55.6528H73.0788C73.2121 55.6528 73.3211 55.7619 73.3211 55.8951V57.1417C73.3211 57.275 73.2133 57.384 73.0788 57.384ZM67.5266 56.8994H72.8365V56.1374H67.5266V56.8994Z" fill="white"/>
<path d="M72.5926 56.1375H67.7696C67.7042 56.1375 67.6424 56.112 67.5976 56.0648C67.5528 56.0175 67.5273 55.9557 67.5273 55.8915L67.5431 54.6776C67.5443 54.5456 67.6533 54.439 67.7854 54.439H72.6083C72.6737 54.439 72.7355 54.4644 72.7803 54.5117C72.8252 54.5589 72.8506 54.6207 72.8506 54.6849L72.8349 55.8988C72.8336 56.0309 72.7258 56.1375 72.5926 56.1375ZM68.0156 55.6529H72.3539L72.3636 54.9236H68.0253L68.0156 55.6529Z" fill="white"/>
<path d="M70.2362 19.4615C68.8697 19.4615 67.6533 18.5844 67.6533 17.8927C67.6533 17.8842 67.6533 17.8757 67.6545 17.8672C67.6654 17.7436 67.7696 17.6455 67.8956 17.6455H72.5768C72.7076 17.6455 72.8142 17.7485 72.8191 17.8781C72.8191 17.883 72.8191 17.889 72.8191 17.8927C72.8203 18.5844 71.604 19.4615 70.2362 19.4615ZM68.2409 18.1301C68.5074 18.4899 69.2682 18.9769 70.2374 18.9769C71.2066 18.9769 71.9674 18.4899 72.2339 18.1301H68.2409Z" fill="white"/>
<path d="M72.1775 54.6614C72.0442 54.6614 71.9352 54.5524 71.9352 54.4192V21.3056C71.5451 20.7835 71.4494 19.9875 71.6614 19.3733C70.6946 19.4969 69.6867 19.4969 68.7017 19.3721C68.915 19.9875 68.8181 20.7835 68.428 21.3056V54.4192C68.428 54.5524 68.3189 54.6614 68.1857 54.6614C68.0524 54.6614 67.9434 54.5524 67.9434 54.4192V21.222C67.9434 21.1651 67.964 21.1094 68.0003 21.0658C68.4049 20.586 68.4413 19.6701 68.0742 19.2146C68.0112 19.1359 68.0027 19.0268 68.0536 18.9396C68.1045 18.8524 68.205 18.8063 68.3032 18.8233C69.5486 19.0341 70.8473 19.0341 72.0588 18.8233C72.1581 18.8063 72.2575 18.8524 72.3095 18.9396C72.3604 19.0268 72.3532 19.1359 72.289 19.2146C71.9219 19.6689 71.9594 20.5848 72.3629 21.0658C72.3992 21.1094 72.4198 21.1651 72.4198 21.222V54.4204C72.4198 54.5536 72.312 54.6614 72.1775 54.6614Z" fill="white"/>
<path d="M69.5167 54.1319C69.3834 54.1319 69.2744 54.0229 69.2744 53.8896V21.3697C69.2744 21.2365 69.3834 21.1274 69.5167 21.1274C69.65 21.1274 69.759 21.2365 69.759 21.3697V53.8896C69.759 54.0241 69.6512 54.1319 69.5167 54.1319Z" fill="white"/>
<path d="M70.8478 54.1319C70.7145 54.1319 70.6055 54.0229 70.6055 53.8896V21.3697C70.6055 21.2365 70.7145 21.1274 70.8478 21.1274C70.981 21.1274 71.0901 21.2365 71.0901 21.3697V53.8896C71.0901 54.0241 70.981 54.1319 70.8478 54.1319Z" fill="white"/>
<path d="M73.1153 17.1577H25.5209C25.4215 17.1577 25.3319 17.0971 25.2955 17.0038L24.2815 14.4355C24.2525 14.3603 24.2609 14.2768 24.307 14.2101C24.3518 14.1435 24.4269 14.1035 24.5069 14.1035H74.1293C74.2092 14.1035 74.2843 14.1435 74.3292 14.2101C74.374 14.2768 74.3837 14.3603 74.3546 14.4355L73.3406 17.0038C73.3031 17.0971 73.2146 17.1577 73.1153 17.1577ZM25.6856 16.6731H72.9493L73.7719 14.5893H24.863L25.6856 16.6731Z" fill="white"/>
<path d="M62.4294 12.784H36.2044C36.0869 12.784 35.9875 12.7004 35.9657 12.5853C35.9451 12.4702 36.0094 12.3563 36.1184 12.3151L49.2315 7.36017C49.2872 7.33958 49.3478 7.33958 49.4023 7.36017L62.5154 12.3151C62.6245 12.3563 62.6887 12.4702 62.6681 12.5853C62.6475 12.7004 62.5469 12.784 62.4294 12.784ZM37.531 12.2994H61.1028L49.3163 7.84477L37.531 12.2994Z" fill="white"/>
<path d="M74.1286 14.5892H24.5062C24.3886 14.5892 24.2893 14.5056 24.2675 14.3905C24.2469 14.2754 24.3111 14.1616 24.4201 14.1204L49.2314 4.74347C49.2871 4.72288 49.3477 4.72288 49.4022 4.74347L74.2134 14.1204C74.3224 14.1616 74.3866 14.2754 74.366 14.3905C74.3454 14.5056 74.2449 14.5892 74.1286 14.5892ZM25.8327 14.1046H72.802L49.3174 5.22928L25.8327 14.1046Z" fill="white"/>
<path d="M74.348 10.3053L64.6331 6.40064L49.3176 0.177246L34.0007 6.40064L24.2168 10.3343V12.6228L36.9192 7.58547L49.3176 2.54933L61.7147 7.58547L74.348 12.6228V10.3053Z" fill="white"/>
<path d="M37.8588 49.9582V56.8976H32.8518V49.9582H37.8588ZM38.3434 49.4736H32.3672V57.3822H38.3434V49.4736Z" fill="white"/>
<path d="M34.8658 26.2168H34.2031V28.0219H34.8658V26.2168Z" fill="white"/>
<path d="M34.6246 26.4587V27.7792H34.4465V26.4587H34.6246ZM35.1092 25.9741H33.9619V28.2638H35.1092V25.9741Z" fill="white"/>
<path d="M33.2347 31.7637H32.6084V33.5688H33.2347V31.7637Z" fill="white"/>
<path d="M32.9935 32.0061V33.3266H32.8518V32.0061H32.9935ZM33.4781 31.5215H32.3672V33.8112H33.4781V31.5215Z" fill="white"/>
<path d="M33.2347 34.5386H32.6084V36.3437H33.2347V34.5386Z" fill="white"/>
<path d="M32.9935 34.7805V36.101H32.8518V34.7805H32.9935ZM33.4781 34.2959H32.3672V36.5856H33.4781V34.2959Z" fill="white"/>
<path d="M34.54 22.473C34.6321 22.3712 34.7436 22.2864 34.8671 22.2246V22.473H34.54Z" fill="white"/>
<path d="M35.1088 21.8901C34.6521 21.9749 34.2753 22.2923 34.1094 22.7152H35.1088V21.8901Z" fill="white"/>
<path d="M33.2347 26.2168H32.6084V28.0219H33.2347V26.2168Z" fill="white"/>
<path d="M32.9935 26.4587V27.7792H32.8518V26.4587H32.9935ZM33.4781 25.9741H32.3672V28.2638H33.4781V25.9741Z" fill="white"/>
<path d="M33.2347 28.9902H32.6084V30.7953H33.2347V28.9902Z" fill="white"/>
<path d="M32.9935 29.2326V30.5532H32.8518V29.2326H32.9935ZM33.4781 28.748H32.3672V31.0378H33.4781V28.748Z" fill="white"/>
<path d="M33.2347 40.0854H32.6084V41.8906H33.2347V40.0854Z" fill="white"/>
<path d="M32.9935 40.3279V41.6484H32.8518V40.3279H32.9935ZM33.4781 39.8433H32.3672V42.133H33.4781V39.8433Z" fill="white"/>
<path d="M34.8658 23.4429H34.2031V25.248H34.8658V23.4429Z" fill="white"/>
<path d="M34.6246 23.6848V25.0053H34.4465V23.6848H34.6246ZM35.1092 23.2002H33.9619V25.4899H35.1092V23.2002Z" fill="white"/>
<path d="M33.2347 23.4424H32.6084V25.2475H33.2347V23.4424Z" fill="white"/>
<path d="M32.9935 23.6848V25.0053H32.8518V23.6848H32.9935ZM33.4781 23.2002H32.3672V25.4899H33.4781V23.2002Z" fill="white"/>
<path d="M33.2347 42.8584H32.6084V44.6635H33.2347V42.8584Z" fill="white"/>
<path d="M32.9935 43.1008V44.4213H32.8518V43.1008H32.9935ZM33.4781 42.6162H32.3672V44.9059H33.4781V42.6162Z" fill="white"/>
<path d="M33.2347 37.311H32.6084V39.1161H33.2347V37.311Z" fill="white"/>
<path d="M32.9935 37.5539V38.8744H32.8518V37.5539H32.9935ZM33.4781 37.0693H32.3672V39.359H33.4781V37.0693Z" fill="white"/>
<path d="M38.0929 37.3115H37.4678V39.1166H38.0929V37.3115Z" fill="white"/>
<path d="M37.8517 37.5534V38.874H37.7112V37.5534H37.8517ZM38.3363 37.0688H37.2266V39.3585H38.3363V37.0688Z" fill="white"/>
<path d="M37.2774 22.473C37.0375 21.8357 36.4984 21.3596 35.8369 21.1997V20.5273C36.8812 20.7091 37.722 21.4662 37.9982 22.4718H37.2774V22.473Z" fill="white"/>
<path d="M36.0803 20.8337C36.7939 21.0445 37.373 21.5582 37.6589 22.2318H37.4396C37.1731 21.6563 36.6812 21.2178 36.0803 21.0191V20.8337ZM35.5957 20.2534V21.4007C36.3214 21.4976 36.9114 22.0234 37.1028 22.7152H38.2997C38.0841 21.391 36.9719 20.3637 35.5957 20.2534Z" fill="white"/>
<path d="M38.0929 42.8579H37.4678V44.663H38.0929V42.8579Z" fill="white"/>
<path d="M37.8517 43.1008V44.4213H37.7112V43.1008H37.8517ZM38.3363 42.6162H37.2266V44.9059H38.3363V42.6162Z" fill="white"/>
<path d="M38.0929 40.0854H37.4678V41.8906H38.0929V40.0854Z" fill="white"/>
<path d="M37.8517 40.3279V41.6484H37.7112V40.3279H37.8517ZM38.3363 39.8433H37.2266V42.133H38.3363V39.8433Z" fill="white"/>
<path d="M38.0929 34.5386H37.4678V36.3437H38.0929V34.5386Z" fill="white"/>
<path d="M37.8517 34.7805V36.101H37.7112V34.7805H37.8517ZM38.3363 34.2959H37.2266V36.5856H38.3363V34.2959Z" fill="white"/>
<path d="M38.0929 31.7642H37.4678V33.5693H38.0929V31.7642Z" fill="white"/>
<path d="M37.8517 32.0066V33.3271H37.7112V32.0066H37.8517ZM38.3363 31.522H37.2266V33.8117H38.3363V31.522Z" fill="white"/>
<path d="M38.0929 26.2163H37.4678V28.0214H38.0929V26.2163Z" fill="white"/>
<path d="M37.8517 26.4587V27.7792H37.7112V26.4587H37.8517ZM38.3363 25.9741H37.2266V28.2638H38.3363V25.9741Z" fill="white"/>
<path d="M38.0929 23.4424H37.4678V25.2475H38.0929V23.4424Z" fill="white"/>
<path d="M37.8517 23.6848V25.0053H37.7112V23.6848H37.8517ZM38.3363 23.2002H37.2266V25.4899H38.3363V23.2002Z" fill="white"/>
<path d="M38.0929 28.9907H37.4678V30.7958H38.0929V28.9907Z" fill="white"/>
<path d="M37.8517 29.2331V30.5537H37.7112V29.2331H37.8517ZM38.3363 28.7485H37.2266V31.0382H38.3363V28.7485Z" fill="white"/>
<path d="M32.7051 22.473C32.9813 21.4675 33.8221 20.7091 34.8676 20.5273V21.1997C34.2061 21.3584 33.6658 21.8345 33.4259 22.473H32.7051Z" fill="white"/>
<path d="M34.6259 20.8337V21.0179C34.025 21.2165 33.532 21.6551 33.2654 22.2318H33.0461C33.3321 21.5582 33.9111 21.0433 34.6259 20.8337ZM35.1105 20.2534C33.7343 20.3625 32.6209 21.391 32.4053 22.7152H33.6022C33.7936 22.0222 34.3836 21.4976 35.1105 21.4007V20.2534Z" fill="white"/>
<path d="M36.4996 23.4424H35.8369V25.2475H36.4996V23.4424Z" fill="white"/>
<path d="M36.2584 23.6848V25.0053H36.0803V23.6848H36.2584ZM36.743 23.2002H35.5957V25.4899H36.743V23.2002Z" fill="white"/>
<path d="M36.4996 26.2168H35.8369V28.0219H36.4996V26.2168Z" fill="white"/>
<path d="M36.2584 26.4587V27.7792H36.0803V26.4587H36.2584ZM36.743 25.9741H35.5957V28.2638H36.743V25.9741Z" fill="white"/>
<path d="M36.4996 28.9897H35.8369V30.7949H36.4996V28.9897Z" fill="white"/>
<path d="M36.2584 29.2326V30.5532H36.0803V29.2326H36.2584ZM36.743 28.748H35.5957V31.0378H36.743V28.748Z" fill="white"/>
<path d="M36.4996 31.7642H35.8369V33.5693H36.4996V31.7642Z" fill="white"/>
<path d="M36.2584 32.0061V33.3266H36.0803V32.0061H36.2584ZM36.743 31.5215H35.5957V33.8112H36.743V31.5215Z" fill="white"/>
<path d="M38.0929 45.6328H37.4678V47.4064H38.0929V45.6328Z" fill="white"/>
<path d="M37.8517 45.8752V47.1642H37.7112V45.8752H37.8517ZM38.3363 45.3906H37.2266V47.6488H38.3363V45.3906Z" fill="white"/>
<path d="M36.4996 34.5381H35.8369V36.3432H36.4996V34.5381Z" fill="white"/>
<path d="M36.2584 34.7805V36.101H36.0803V34.7805H36.2584ZM36.743 34.2959H35.5957V36.5856H36.743V34.2959Z" fill="white"/>
<path d="M33.2347 45.6328H32.6084V47.4064H33.2347V45.6328Z" fill="white"/>
<path d="M32.9935 45.8747V47.1638H32.8518V45.8747H32.9935ZM33.4781 45.3901H32.3672V47.6483H33.4781V45.3901Z" fill="white"/>
<path d="M36.4996 45.6328H35.8369V47.4064H36.4996V45.6328Z" fill="white"/>
<path d="M36.2584 45.8752V47.1642H36.0803V45.8752H36.2584ZM36.743 45.3906H35.5957V47.6488H36.743V45.3906Z" fill="white"/>
<path d="M35.8369 22.473V22.2246C35.9593 22.2864 36.0707 22.3712 36.1628 22.473H35.8369Z" fill="white"/>
<path d="M35.5957 21.8916V22.7166H36.594C36.428 22.2926 36.0524 21.9752 35.5957 21.8916Z" fill="white"/>
<path d="M36.4996 42.8579H35.8369V44.663H36.4996V42.8579Z" fill="white"/>
<path d="M36.2584 43.1008V44.4213H36.0803V43.1008H36.2584ZM36.743 42.6162H35.5957V44.9059H36.743V42.6162Z" fill="white"/>
<path d="M34.8658 37.3115H34.2031V39.1166H34.8658V37.3115Z" fill="white"/>
<path d="M34.6246 37.5539V38.8744H34.4465V37.5539H34.6246ZM35.1092 37.0693H33.9619V39.359H35.1092V37.0693Z" fill="white"/>
<path d="M34.8658 34.5381H34.2031V36.3432H34.8658V34.5381Z" fill="white"/>
<path d="M34.6246 34.7805V36.101H34.4465V34.7805H34.6246ZM35.1092 34.2959H33.9619V36.5856H35.1092V34.2959Z" fill="white"/>
<path d="M34.8658 40.0859H34.2031V41.8911H34.8658V40.0859Z" fill="white"/>
<path d="M34.6246 40.3283V41.6489H34.4465V40.3283H34.6246ZM35.1092 39.8438H33.9619V42.1335H35.1092V39.8438Z" fill="white"/>
<path d="M34.8658 31.7642H34.2031V33.5693H34.8658V31.7642Z" fill="white"/>
<path d="M34.6246 32.0066V33.3271H34.4465V32.0066H34.6246ZM35.1092 31.522H33.9619V33.8117H35.1092V31.522Z" fill="white"/>
<path d="M36.4996 37.311H35.8369V39.1161H36.4996V37.311Z" fill="white"/>
<path d="M36.2584 37.5534V38.874H36.0803V37.5534H36.2584ZM36.743 37.0688H35.5957V39.3585H36.743V37.0688Z" fill="white"/>
<path d="M36.4996 40.0854H35.8369V41.8906H36.4996V40.0854Z" fill="white"/>
<path d="M36.2584 40.3279V41.6484H36.0803V40.3279H36.2584ZM36.743 39.8433H35.5957V42.133H36.743V39.8433Z" fill="white"/>
<path d="M34.8658 42.8589H34.2031V44.664H34.8658V42.8589Z" fill="white"/>
<path d="M34.6246 43.1008V44.4213H34.4465V43.1008H34.6246ZM35.1092 42.6162H33.9619V44.9059H35.1092V42.6162Z" fill="white"/>
<path d="M34.8658 28.9907H34.2031V30.7958H34.8658V28.9907Z" fill="white"/>
<path d="M34.6246 29.2326V30.5532H34.4465V29.2326H34.6246ZM35.1092 28.748H33.9619V31.0378H35.1092V28.748Z" fill="white"/>
<path d="M34.8658 45.6328H34.2031V47.4064H34.8658V45.6328Z" fill="white"/>
<path d="M34.6246 45.8747V47.1638H34.4465V45.8747H34.6246ZM35.1092 45.3901H33.9619V47.6483H35.1092V45.3901Z" fill="white"/>
<path d="M51.7954 49.9582V56.8976H46.7883V49.9582H51.7954ZM52.28 49.4736H46.3037V57.3822H52.28V49.4736Z" fill="white"/>
<path d="M48.8033 26.2168H48.1406V28.0219H48.8033V26.2168Z" fill="white"/>
<path d="M48.5631 26.4587V27.7792H48.385V26.4587H48.5631ZM49.0477 25.9741H47.9004V28.2638H49.0477V25.9741Z" fill="white"/>
<path d="M47.1703 31.7642H46.5439V33.5693H47.1703V31.7642Z" fill="white"/>
<path d="M46.9271 32.0066V33.3271H46.7854V32.0066H46.9271ZM47.4117 31.522H46.3008V33.8117H47.4117V31.522Z" fill="white"/>
<path d="M47.1703 34.5386H46.5439V36.3437H47.1703V34.5386Z" fill="white"/>
<path d="M46.9271 34.7805V36.101H46.7854V34.7805H46.9271ZM47.4117 34.2959H46.3008V36.5856H47.4117V34.2959Z" fill="white"/>
<path d="M48.4766 22.473C48.5686 22.3712 48.6801 22.2864 48.8037 22.2246V22.473H48.4766Z" fill="white"/>
<path d="M49.0473 21.8901C48.5906 21.9749 48.2138 22.2923 48.0479 22.7152H49.0473V21.8901Z" fill="white"/>
<path d="M47.1703 26.2163H46.5439V28.0214H47.1703V26.2163Z" fill="white"/>
<path d="M46.9271 26.4587V27.7792H46.7854V26.4587H46.9271ZM47.4117 25.9741H46.3008V28.2638H47.4117V25.9741Z" fill="white"/>
<path d="M47.1703 28.9907H46.5439V30.7958H47.1703V28.9907Z" fill="white"/>
<path d="M46.9271 29.2326V30.5532H46.7854V29.2326H46.9271ZM47.4117 28.748H46.3008V31.0378H47.4117V28.748Z" fill="white"/>
<path d="M47.1703 40.0859H46.5439V41.8911H47.1703V40.0859Z" fill="white"/>
<path d="M46.9271 40.3283V41.6489H46.7854V40.3283H46.9271ZM47.4117 39.8438H46.3008V42.1335H47.4117V39.8438Z" fill="white"/>
<path d="M48.8033 23.4424H48.1406V25.2475H48.8033V23.4424Z" fill="white"/>
<path d="M48.5631 23.6848V25.0053H48.385V23.6848H48.5631ZM49.0477 23.2002H47.9004V25.4899H49.0477V23.2002Z" fill="white"/>
<path d="M47.1703 23.4424H46.5439V25.2475H47.1703V23.4424Z" fill="white"/>
<path d="M46.9271 23.6848V25.0053H46.7854V23.6848H46.9271ZM47.4117 23.2002H46.3008V25.4899H47.4117V23.2002Z" fill="white"/>
<path d="M47.1703 42.8589H46.5439V44.664H47.1703V42.8589Z" fill="white"/>
<path d="M46.9271 43.1008V44.4213H46.7854V43.1008H46.9271ZM47.4117 42.6162H46.3008V44.9059H47.4117V42.6162Z" fill="white"/>
<path d="M47.1703 37.3115H46.5439V39.1166H47.1703V37.3115Z" fill="white"/>
<path d="M46.9271 37.5539V38.8744H46.7854V37.5539H46.9271ZM47.4117 37.0693H46.3008V39.359H47.4117V37.0693Z" fill="white"/>
<path d="M52.0304 37.3115H51.4053V39.1166H52.0304V37.3115Z" fill="white"/>
<path d="M51.7872 37.5534V38.874H51.6467V37.5534H51.7872ZM52.2718 37.0688H51.1621V39.3585H52.2718V37.0688Z" fill="white"/>
<path d="M51.2139 22.4725C50.974 21.8353 50.4349 21.3591 49.7734 21.1992V20.5269C50.8177 20.7086 51.6585 21.4658 51.9347 22.4713H51.2139V22.4725Z" fill="white"/>
<path d="M50.0158 20.8337C50.7294 21.0445 51.3085 21.5582 51.5944 22.2318H51.3751C51.1086 21.6563 50.6167 21.2178 50.0158 21.0191V20.8337ZM49.5312 20.2534V21.4007C50.2569 21.4976 50.8469 22.0234 51.0383 22.7152H52.2353C52.0196 21.391 50.9075 20.3637 49.5312 20.2534Z" fill="white"/>
<path d="M52.0304 42.8589H51.4053V44.664H52.0304V42.8589Z" fill="white"/>
<path d="M51.7872 43.1008V44.4213H51.6467V43.1008H51.7872ZM52.2718 42.6162H51.1621V44.9059H52.2718V42.6162Z" fill="white"/>
<path d="M52.0304 40.0859H51.4053V41.8911H52.0304V40.0859Z" fill="white"/>
<path d="M51.7872 40.3283V41.6489H51.6467V40.3283H51.7872ZM52.2718 39.8438H51.1621V42.1335H52.2718V39.8438Z" fill="white"/>
<path d="M52.0304 34.5381H51.4053V36.3432H52.0304V34.5381Z" fill="white"/>
<path d="M51.7872 34.7805V36.101H51.6467V34.7805H51.7872ZM52.2718 34.2959H51.1621V36.5856H52.2718V34.2959Z" fill="white"/>
<path d="M52.0304 31.7642H51.4053V33.5693H52.0304V31.7642Z" fill="white"/>
<path d="M51.7872 32.0066V33.3271H51.6467V32.0066H51.7872ZM52.2718 31.522H51.1621V33.8117H52.2718V31.522Z" fill="white"/>
<path d="M52.0304 26.2168H51.4053V28.0219H52.0304V26.2168Z" fill="white"/>
<path d="M51.7872 26.4587V27.7792H51.6467V26.4587H51.7872ZM52.2718 25.9741H51.1621V28.2638H52.2718V25.9741Z" fill="white"/>
<path d="M52.0304 23.4424H51.4053V25.2475H52.0304V23.4424Z" fill="white"/>
<path d="M51.7872 23.6848V25.0053H51.6467V23.6848H51.7872ZM52.2718 23.2002H51.1621V25.4899H52.2718V23.2002Z" fill="white"/>
<path d="M52.0304 28.9907H51.4053V30.7958H52.0304V28.9907Z" fill="white"/>
<path d="M51.7872 29.2326V30.5532H51.6467V29.2326H51.7872ZM52.2718 28.748H51.1621V31.0378H52.2718V28.748Z" fill="white"/>
<path d="M46.6406 22.4725C46.9168 21.467 47.7576 20.7086 48.8031 20.5269V21.1992C48.1417 21.3579 47.6013 21.834 47.3615 22.4725H46.6406Z" fill="white"/>
<path d="M48.5615 20.8337V21.0179C47.9606 21.2165 47.4675 21.6551 47.201 22.2318H46.9817C47.2676 21.5582 47.8467 21.0433 48.5615 20.8337ZM49.0461 20.2534C47.6698 20.3625 46.5565 21.391 46.3408 22.7152H47.5378C47.7292 22.0222 48.3192 21.4976 49.0461 21.4007V20.2534Z" fill="white"/>
<path d="M50.4361 23.4424H49.7734V25.2475H50.4361V23.4424Z" fill="white"/>
<path d="M50.1939 23.6843V25.0048H50.0158V23.6843H50.1939ZM50.6785 23.1997H49.5312V25.4894H50.6785V23.1997Z" fill="white"/>
<path d="M50.4361 26.2168H49.7734V28.0219H50.4361V26.2168Z" fill="white"/>
<path d="M50.1939 26.4587V27.7792H50.0158V26.4587H50.1939ZM50.6785 25.9741H49.5312V28.2638H50.6785V25.9741Z" fill="white"/>
<path d="M50.4361 28.9907H49.7734V30.7958H50.4361V28.9907Z" fill="white"/>
<path d="M50.1939 29.2326V30.5532H50.0158V29.2326H50.1939ZM50.6785 28.748H49.5312V31.0378H50.6785V28.748Z" fill="white"/>
<path d="M50.4361 31.7642H49.7734V33.5693H50.4361V31.7642Z" fill="white"/>
<path d="M50.1939 32.0066V33.3271H50.0158V32.0066H50.1939ZM50.6785 31.522H49.5312V33.8117H50.6785V31.522Z" fill="white"/>
<path d="M52.0304 45.6328H51.4053V47.4064H52.0304V45.6328Z" fill="white"/>
<path d="M51.7872 45.8752V47.1642H51.6467V45.8752H51.7872ZM52.2718 45.3906H51.1621V47.6488H52.2718V45.3906Z" fill="white"/>
<path d="M50.4361 34.5381H49.7734V36.3432H50.4361V34.5381Z" fill="white"/>
<path d="M50.1939 34.7805V36.101H50.0158V34.7805H50.1939ZM50.6785 34.2959H49.5312V36.5856H50.6785V34.2959Z" fill="white"/>
<path d="M47.1703 45.6323H46.5439V47.4059H47.1703V45.6323Z" fill="white"/>
<path d="M46.9271 45.8747V47.1638H46.7854V45.8747H46.9271ZM47.4117 45.3901H46.3008V47.6483H47.4117V45.3901Z" fill="white"/>
<path d="M50.4361 45.6328H49.7734V47.4064H50.4361V45.6328Z" fill="white"/>
<path d="M50.1939 45.8747V47.1638H50.0158V45.8747H50.1939ZM50.6785 45.3901H49.5312V47.6483H50.6785V45.3901Z" fill="white"/>
<path d="M49.7734 22.473V22.2246C49.8958 22.2864 50.0073 22.3712 50.0993 22.473H49.7734Z" fill="white"/>
<path d="M49.5312 21.8921V22.7171H50.5295C50.3635 22.2931 49.988 21.9757 49.5312 21.8921Z" fill="white"/>
<path d="M50.4361 42.8589H49.7734V44.664H50.4361V42.8589Z" fill="white"/>
<path d="M50.1939 43.1008V44.4213H50.0158V43.1008H50.1939ZM50.6785 42.6162H49.5312V44.9059H50.6785V42.6162Z" fill="white"/>
<path d="M48.8033 37.311H48.1406V39.1161H48.8033V37.311Z" fill="white"/>
<path d="M48.5631 37.5539V38.8744H48.385V37.5539H48.5631ZM49.0477 37.0693H47.9004V39.359H49.0477V37.0693Z" fill="white"/>
<path d="M48.8033 34.5386H48.1406V36.3437H48.8033V34.5386Z" fill="white"/>
<path d="M48.5631 34.7805V36.101H48.385V34.7805H48.5631ZM49.0477 34.2959H47.9004V36.5856H49.0477V34.2959Z" fill="white"/>
<path d="M48.8033 40.0864H48.1406V41.8915H48.8033V40.0864Z" fill="white"/>
<path d="M48.5631 40.3283V41.6489H48.385V40.3283H48.5631ZM49.0477 39.8438H47.9004V42.1335H49.0477V39.8438Z" fill="white"/>
<path d="M48.8033 31.7642H48.1406V33.5693H48.8033V31.7642Z" fill="white"/>
<path d="M48.5631 32.0066V33.3271H48.385V32.0066H48.5631ZM49.0477 31.522H47.9004V33.8117H49.0477V31.522Z" fill="white"/>
<path d="M50.4361 37.3115H49.7734V39.1166H50.4361V37.3115Z" fill="white"/>
<path d="M50.1939 37.5539V38.8744H50.0158V37.5539H50.1939ZM50.6785 37.0693H49.5312V39.359H50.6785V37.0693Z" fill="white"/>
<path d="M50.4361 40.0859H49.7734V41.8911H50.4361V40.0859Z" fill="white"/>
<path d="M50.1939 40.3283V41.6489H50.0158V40.3283H50.1939ZM50.6785 39.8438H49.5312V42.1335H50.6785V39.8438Z" fill="white"/>
<path d="M48.8033 42.8584H48.1406V44.6635H48.8033V42.8584Z" fill="white"/>
<path d="M48.5631 43.1008V44.4213H48.385V43.1008H48.5631ZM49.0477 42.6162H47.9004V44.9059H49.0477V42.6162Z" fill="white"/>
<path d="M48.8033 28.9902H48.1406V30.7953H48.8033V28.9902Z" fill="white"/>
<path d="M48.5631 29.2326V30.5532H48.385V29.2326H48.5631ZM49.0477 28.748H47.9004V31.0378H49.0477V28.748Z" fill="white"/>
<path d="M48.8033 45.6323H48.1406V47.4059H48.8033V45.6323Z" fill="white"/>
<path d="M48.5631 45.8747V47.1638H48.385V45.8747H48.5631ZM49.0477 45.3901H47.9004V47.6483H49.0477V45.3901Z" fill="white"/>
<path d="M65.7338 49.9582V56.8976H60.7268V49.9582H65.7338ZM66.2184 49.4736H60.2422V57.3822H66.2184V49.4736Z" fill="white"/>
<path d="M62.7428 26.2163H62.0801V28.0214H62.7428V26.2163Z" fill="white"/>
<path d="M62.5016 26.4587V27.7792H62.3235V26.4587H62.5016ZM62.9861 25.9741H61.8389V28.2638H62.9861V25.9741Z" fill="white"/>
<path d="M61.1117 31.7642H60.4854V33.5693H61.1117V31.7642Z" fill="white"/>
<path d="M60.8685 32.0066V33.3271H60.7268V32.0066H60.8685ZM61.3531 31.522H60.2422V33.8117H61.3531V31.522Z" fill="white"/>
<path d="M61.1117 34.5381H60.4854V36.3432H61.1117V34.5381Z" fill="white"/>
<path d="M60.8685 34.781V36.1015H60.7268V34.781H60.8685ZM61.3531 34.2964H60.2422V36.5861H61.3531V34.2964Z" fill="white"/>
<path d="M62.416 22.4735C62.5081 22.3717 62.6195 22.2869 62.7431 22.2251V22.4735H62.416Z" fill="white"/>
<path d="M62.9848 21.8906C62.5281 21.9754 62.1513 22.2928 61.9854 22.7156H62.9848V21.8906Z" fill="white"/>
<path d="M61.1117 26.2168H60.4854V28.0219H61.1117V26.2168Z" fill="white"/>
<path d="M60.8685 26.4592V27.7797H60.7268V26.4592H60.8685ZM61.3531 25.9746H60.2422V28.2643H61.3531V25.9746Z" fill="white"/>
<path d="M61.1117 28.9912H60.4854V30.7963H61.1117V28.9912Z" fill="white"/>
<path d="M60.8685 29.2336V30.5541H60.7268V29.2336H60.8685ZM61.3531 28.749H60.2422V31.0387H61.3531V28.749Z" fill="white"/>
<path d="M61.1117 40.0859H60.4854V41.8911H61.1117V40.0859Z" fill="white"/>
<path d="M60.8685 40.3283V41.6489H60.7268V40.3283H60.8685ZM61.3531 39.8438H60.2422V42.1335H61.3531V39.8438Z" fill="white"/>
<path d="M62.7428 23.4424H62.0801V25.2475H62.7428V23.4424Z" fill="white"/>
<path d="M62.5016 23.6843V25.0048H62.3235V23.6843H62.5016ZM62.9861 23.1997H61.8389V25.4894H62.9861V23.1997Z" fill="white"/>
<path d="M61.1117 23.4429H60.4854V25.248H61.1117V23.4429Z" fill="white"/>
<path d="M60.8685 23.6848V25.0053H60.7268V23.6848H60.8685ZM61.3531 23.2002H60.2422V25.4899H61.3531V23.2002Z" fill="white"/>
<path d="M61.1117 42.8594H60.4854V44.6645H61.1117V42.8594Z" fill="white"/>
<path d="M60.8685 43.1013V44.4218H60.7268V43.1013H60.8685ZM61.3531 42.6167H60.2422V44.9064H61.3531V42.6167Z" fill="white"/>
<path d="M61.1117 37.311H60.4854V39.1161H61.1117V37.311Z" fill="white"/>
<path d="M60.8685 37.5534V38.874H60.7268V37.5534H60.8685ZM61.3531 37.0688H60.2422V39.3585H61.3531V37.0688Z" fill="white"/>
<path d="M65.9689 37.3115H65.3438V39.1166H65.9689V37.3115Z" fill="white"/>
<path d="M65.7267 37.5539V38.8744H65.5862V37.5539H65.7267ZM66.2113 37.0693H65.1016V39.359H66.2113V37.0693Z" fill="white"/>
<path d="M65.1533 22.473C64.9135 21.8357 64.3744 21.3596 63.7129 21.1997V20.5273C64.7572 20.7091 65.598 21.4662 65.8742 22.4718H65.1533V22.473Z" fill="white"/>
<path d="M63.9543 20.8342C64.6679 21.045 65.247 21.5587 65.5329 22.2323H65.3136C65.0471 21.6568 64.5552 21.2182 63.9543 21.0196V20.8342ZM63.4697 20.2539V21.4012C64.1954 21.4981 64.7854 22.0239 64.9768 22.7156H66.1738C65.9581 21.3915 64.846 20.3642 63.4697 20.2539Z" fill="white"/>
<path d="M65.9689 42.8589H65.3438V44.664H65.9689V42.8589Z" fill="white"/>
<path d="M65.7267 43.1008V44.4213H65.5862V43.1008H65.7267ZM66.2113 42.6162H65.1016V44.9059H66.2113V42.6162Z" fill="white"/>
<path d="M65.9689 40.0859H65.3438V41.8911H65.9689V40.0859Z" fill="white"/>
<path d="M65.7267 40.3283V41.6489H65.5862V40.3283H65.7267ZM66.2113 39.8438H65.1016V42.1335H66.2113V39.8438Z" fill="white"/>
<path d="M65.9689 34.5386H65.3438V36.3437H65.9689V34.5386Z" fill="white"/>
<path d="M65.7267 34.7805V36.101H65.5862V34.7805H65.7267ZM66.2113 34.2959H65.1016V36.5856H66.2113V34.2959Z" fill="white"/>
<path d="M65.9689 31.7642H65.3438V33.5693H65.9689V31.7642Z" fill="white"/>
<path d="M65.7267 32.0066V33.3271H65.5862V32.0066H65.7267ZM66.2113 31.522H65.1016V33.8117H66.2113V31.522Z" fill="white"/>
<path d="M65.9689 26.2163H65.3438V28.0214H65.9689V26.2163Z" fill="white"/>
<path d="M65.7267 26.4587V27.7792H65.5862V26.4587H65.7267ZM66.2113 25.9741H65.1016V28.2638H66.2113V25.9741Z" fill="white"/>
<path d="M65.9689 23.4424H65.3438V25.2475H65.9689V23.4424Z" fill="white"/>
<path d="M65.7267 23.6848V25.0053H65.5862V23.6848H65.7267ZM66.2113 23.2002H65.1016V25.4899H66.2113V23.2002Z" fill="white"/>
<path d="M65.9689 28.9912H65.3438V30.7963H65.9689V28.9912Z" fill="white"/>
<path d="M65.7267 29.2331V30.5537H65.5862V29.2331H65.7267ZM66.2113 28.7485H65.1016V31.0382H66.2113V28.7485Z" fill="white"/>
<path d="M60.5811 22.473C60.8573 21.4675 61.698 20.7091 62.7436 20.5273V21.1997C62.0821 21.3584 61.5418 21.8345 61.3019 22.473H60.5811Z" fill="white"/>
<path d="M62.5009 20.8342V21.0184C61.9 21.217 61.407 21.6556 61.1404 22.2323H60.9211C61.2071 21.5587 61.7862 21.0438 62.5009 20.8342ZM62.9855 20.2539C61.6093 20.3629 60.4959 21.3915 60.2803 22.7156H61.4772C61.6686 22.0227 62.2586 21.4981 62.9855 21.4012V20.2539Z" fill="white"/>
<path d="M64.3756 23.4429H63.7129V25.248H64.3756V23.4429Z" fill="white"/>
<path d="M64.1324 23.6853V25.0058H63.9543V23.6853H64.1324ZM64.617 23.2007H63.4697V25.4904H64.617V23.2007Z" fill="white"/>
<path d="M64.3756 26.2173H63.7129V28.0224H64.3756V26.2173Z" fill="white"/>
<path d="M64.1324 26.4592V27.7797H63.9543V26.4592H64.1324ZM64.617 25.9746H63.4697V28.2643H64.617V25.9746Z" fill="white"/>
<path d="M64.3756 28.9912H63.7129V30.7963H64.3756V28.9912Z" fill="white"/>
<path d="M64.1324 29.2331V30.5537H63.9543V29.2331H64.1324ZM64.617 28.7485H63.4697V31.0382H64.617V28.7485Z" fill="white"/>
<path d="M64.3756 31.7642H63.7129V33.5693H64.3756V31.7642Z" fill="white"/>
<path d="M64.1324 32.0066V33.3271H63.9543V32.0066H64.1324ZM64.617 31.522H63.4697V33.8117H64.617V31.522Z" fill="white"/>
<path d="M65.9689 45.6328H65.3438V47.4064H65.9689V45.6328Z" fill="white"/>
<path d="M65.7267 45.8752V47.1642H65.5862V45.8752H65.7267ZM66.2113 45.3906H65.1016V47.6488H66.2113V45.3906Z" fill="white"/>
<path d="M64.3756 34.5381H63.7129V36.3432H64.3756V34.5381Z" fill="white"/>
<path d="M64.1324 34.7805V36.101H63.9543V34.7805H64.1324ZM64.617 34.2959H63.4697V36.5856H64.617V34.2959Z" fill="white"/>
<path d="M61.1117 45.6333H60.4854V47.4069H61.1117V45.6333Z" fill="white"/>
<path d="M60.8685 45.8757V47.1647H60.7268V45.8757H60.8685ZM61.3531 45.3911H60.2422V47.6493H61.3531V45.3911Z" fill="white"/>
<path d="M64.3756 45.6333H63.7129V47.4069H64.3756V45.6333Z" fill="white"/>
<path d="M64.1324 45.8757V47.1647H63.9543V45.8757H64.1324ZM64.617 45.3911H63.4697V47.6493H64.617V45.3911Z" fill="white"/>
<path d="M63.7129 22.4735V22.2251C63.8353 22.2869 63.9467 22.3717 64.0388 22.4735H63.7129Z" fill="white"/>
<path d="M63.4697 21.8916V22.7166H64.468C64.302 22.2926 63.9265 21.9752 63.4697 21.8916Z" fill="white"/>
<path d="M64.3756 42.8594H63.7129V44.6645H64.3756V42.8594Z" fill="white"/>
<path d="M64.1324 43.1013V44.4218H63.9543V43.1013H64.1324ZM64.617 42.6167H63.4697V44.9064H64.617V42.6167Z" fill="white"/>
<path d="M62.7428 37.311H62.0801V39.1161H62.7428V37.311Z" fill="white"/>
<path d="M62.5016 37.5539V38.8744H62.3235V37.5539H62.5016ZM62.9861 37.0693H61.8389V39.359H62.9861V37.0693Z" fill="white"/>
<path d="M62.7428 34.5386H62.0801V36.3437H62.7428V34.5386Z" fill="white"/>
<path d="M62.5016 34.7805V36.101H62.3235V34.7805H62.5016ZM62.9861 34.2959H61.8389V36.5856H62.9861V34.2959Z" fill="white"/>
<path d="M62.7428 40.0864H62.0801V41.8915H62.7428V40.0864Z" fill="white"/>
<path d="M62.5016 40.3283V41.6489H62.3235V40.3283H62.5016ZM62.9861 39.8438H61.8389V42.1335H62.9861V39.8438Z" fill="white"/>
<path d="M62.7428 31.7646H62.0801V33.5698H62.7428V31.7646Z" fill="white"/>
<path d="M62.5016 32.0066V33.3271H62.3235V32.0066H62.5016ZM62.9861 31.522H61.8389V33.8117H62.9861V31.522Z" fill="white"/>
<path d="M64.3756 37.3115H63.7129V39.1166H64.3756V37.3115Z" fill="white"/>
<path d="M64.1324 37.5534V38.874H63.9543V37.5534H64.1324ZM64.617 37.0688H63.4697V39.3585H64.617V37.0688Z" fill="white"/>
<path d="M64.3756 40.0859H63.7129V41.8911H64.3756V40.0859Z" fill="white"/>
<path d="M64.1324 40.3283V41.6489H63.9543V40.3283H64.1324ZM64.617 39.8438H63.4697V42.1335H64.617V39.8438Z" fill="white"/>
<path d="M62.7428 42.8589H62.0801V44.664H62.7428V42.8589Z" fill="white"/>
<path d="M62.5016 43.1013V44.4218H62.3235V43.1013H62.5016ZM62.9861 42.6167H61.8389V44.9064H62.9861V42.6167Z" fill="white"/>
<path d="M62.7428 28.9907H62.0801V30.7958H62.7428V28.9907Z" fill="white"/>
<path d="M62.5016 29.2331V30.5537H62.3235V29.2331H62.5016ZM62.9861 28.7485H61.8389V31.0382H62.9861V28.7485Z" fill="white"/>
<path d="M62.7428 45.6328H62.0801V47.4064H62.7428V45.6328Z" fill="white"/>
<path d="M62.5016 45.8752V47.1642H62.3235V45.8752H62.5016ZM62.9861 45.3906H61.8389V47.6488H62.9861V45.3906Z" fill="white"/>
<path d="M1.63408 51.8786C3.37014 54.2325 6.56846 56.355 10.6378 57.8537C14.7654 59.3741 19.4659 60.1773 24.2307 60.1773C24.6741 60.1773 25.1175 60.17 25.5609 60.1555C22.9174 59.6067 19.6731 58.8398 18.1866 58.3637L18.0594 58.3237C14.8611 57.2855 12.0335 55.8595 9.88187 54.1998C5.16677 50.5641 4.16124 46.3155 7.0264 42.4072C6.36977 42.532 5.72163 42.6738 5.08802 42.8325C3.69603 43.1911 2.36218 43.6199 1.12404 44.1057C-0.385465 46.6935 -0.2098 49.3781 1.63408 51.8786Z" fill="white"/>
<path d="M95.8925 42.5842C93.444 39.9601 89.2959 37.8037 84.2149 36.511C81.0094 35.6957 77.513 35.2656 74.1039 35.2656C73.6496 35.2656 73.1953 35.2729 72.7422 35.2886C75.3784 35.8423 78.6397 36.6225 80.1577 37.1107L80.2728 37.1471C83.4117 38.1671 86.2006 39.5628 88.3376 41.1849C93.1085 44.8061 94.1794 49.056 91.37 52.9727C93.4307 52.6032 95.3909 52.0495 97.2154 51.3239C98.9357 48.3763 98.4802 45.3573 95.8925 42.5842Z" fill="white"/>
<path d="M90.9805 54.023C90.4547 54.1199 89.9132 54.178 89.368 54.2059C88.1432 54.2665 85.8269 54.3731 84.8492 54.3731C78.8608 54.3731 72.4993 53.1241 66.4528 50.7592L66.4322 50.752L66.4128 50.7435C64.9905 50.0941 62.8898 49.1407 60.4971 48.0588C56.5853 46.2889 53.0247 44.6861 51.8241 44.153L51.8144 44.1591L51.3589 43.9519L51.0742 43.8223L48.7833 42.778C45.0761 41.0867 41.3399 39.3834 37.8206 37.7794C33.8505 36.1281 29.1584 35.2559 24.2507 35.2559C19.5308 35.2559 14.8835 36.0518 10.8117 37.5565C7.30811 38.8515 4.41387 40.6143 2.33496 42.7065C3.07397 42.4654 3.83236 42.2485 4.60286 42.0547C4.92512 41.9723 5.24858 41.8924 5.57447 41.8173C6.96889 41.495 8.41904 41.2818 9.89099 41.1655C11.3218 41.0528 13.2674 40.9135 14.1881 40.9135C20.3255 40.9135 26.6252 42.2546 31.9267 44.6897C32.9819 45.1719 34.9166 46.0502 37.8412 47.3756C40.7257 48.684 44.1881 50.2516 47.5585 51.7781L49.5526 52.6806C54.0993 54.7402 58.6908 56.8203 60.5177 57.6526C64.4878 59.3038 69.1798 60.1761 74.0876 60.1761C78.8075 60.1761 83.4536 59.3814 87.5241 57.8767C91.0253 56.5828 93.9184 54.8213 95.9973 52.7315C94.3581 53.2743 92.6621 53.7116 90.9805 54.023Z" fill="white"/>
<path d="M79.9317 37.9402H79.9293L79.7815 37.893C78.4973 37.4665 75.0288 36.6827 72.3672 36.1182V42.4639C76.1252 41.4124 80.3157 40.866 84.2761 40.866C84.9497 40.866 85.6233 40.8829 86.2932 40.9144C84.4929 39.7454 82.3232 38.7289 79.9317 37.9402Z" fill="white"/>
<path d="M24.0697 36.6372L26.5181 37.1569L25.7961 40.5612L25.1407 40.4219L25.7343 37.6234L24.5979 37.3823L24.0043 40.1808L23.3477 40.0415L24.0697 36.6372Z" fill="white"/>
<path d="M27.4739 37.4102L29.2996 37.9359L29.1203 38.5586L27.927 38.2146L27.7525 38.8191L28.9458 39.1632L28.7689 39.775L27.5756 39.4309L27.3224 40.3105L28.517 40.6545L28.3364 41.2796L26.5107 40.7539L27.4739 37.4102Z" fill="white"/>
<path d="M30.0291 38.1743L30.6918 38.4069C31.0504 38.5329 31.2975 38.6565 31.4332 38.7776C31.5689 38.9 31.6561 39.0502 31.6961 39.2307C31.7361 39.4112 31.7191 39.6039 31.6464 39.811C31.5664 40.04 31.4392 40.2096 31.266 40.3199C31.0928 40.4301 30.8929 40.4786 30.6663 40.4664C30.5343 40.458 30.3077 40.3986 29.9891 40.2871L29.5021 41.6779L28.877 41.4586L30.0291 38.1743ZM30.2047 39.6766L30.4034 39.7468C30.5597 39.8013 30.6724 39.828 30.7414 39.828C30.8105 39.828 30.8711 39.8074 30.9244 39.7674C30.9777 39.7274 31.0164 39.6717 31.0419 39.599C31.0867 39.4718 31.0697 39.3628 30.9922 39.2695C30.9365 39.2017 30.8105 39.1326 30.6179 39.0648L30.441 39.003L30.2047 39.6766Z" fill="white"/>
<path d="M31.4004 42.3638L32.6955 39.1328L33.2031 39.3363C33.4975 39.4539 33.7058 39.5593 33.827 39.6525C34.0002 39.781 34.1153 39.9385 34.1747 40.1226C34.2328 40.308 34.2244 40.4945 34.1492 40.6835C34.0996 40.8059 34.0293 40.9076 33.9372 40.9876C33.8452 41.0676 33.7228 41.1269 33.5702 41.1681C33.7289 41.3389 33.827 41.5122 33.8621 41.6866C33.8973 41.8611 33.8767 42.0428 33.8016 42.2318C33.7289 42.4135 33.615 42.5601 33.4623 42.6716C33.3085 42.783 33.1425 42.846 32.9656 42.8606C32.7888 42.8751 32.5683 42.8303 32.3078 42.7261L31.4004 42.3638ZM32.5828 41.196L32.2509 42.0234L32.4047 42.0852C32.6603 42.187 32.8457 42.2245 32.9596 42.1954C33.0747 42.1664 33.1558 42.0913 33.2055 41.9677C33.2612 41.8284 33.2528 41.6975 33.1813 41.5752C33.1098 41.4528 32.9523 41.3426 32.71 41.2456L32.5828 41.196ZM33.0759 39.9651L32.8033 40.646L32.9378 40.7005C33.088 40.761 33.2116 40.7732 33.3097 40.7405C33.4078 40.7065 33.4781 40.6351 33.5217 40.5272C33.5617 40.4267 33.5593 40.3322 33.5144 40.245C33.4696 40.1577 33.3763 40.0863 33.2346 40.0293L33.0759 39.9651Z" fill="white"/>
<path d="M33.9785 43.4066L35.3717 40.2168L35.9787 40.4821L35.4529 41.6851L35.5849 41.7433C35.8369 41.8535 36.0356 41.9747 36.1774 42.1067C36.3191 42.2388 36.4172 42.4132 36.4681 42.6313C36.519 42.8494 36.4936 43.0735 36.393 43.3049C36.2973 43.5229 36.164 43.6853 35.992 43.7907C35.82 43.8961 35.6504 43.9506 35.4844 43.9518C35.3184 43.953 35.1125 43.9021 34.8702 43.7955L33.9785 43.4066ZM35.2167 42.2279L34.8387 43.0929L34.9901 43.1595C35.2409 43.2685 35.4226 43.3109 35.5353 43.2867C35.6467 43.2613 35.7364 43.174 35.8018 43.0238C35.9339 42.7221 35.7812 42.475 35.3426 42.2836L35.2167 42.2279ZM37.8056 41.2805L38.4089 41.5434L37.0157 44.7332L36.4124 44.4703L37.8056 41.2805Z" fill="white"/>
<path d="M41.464 42.9093L40.049 46.0894L39.4433 45.8205L40.3289 43.8288L38.2572 45.2923L37.7314 45.0584L39.1465 41.8783L39.7522 42.1472L38.8375 44.2031L40.954 42.6815L41.464 42.9093ZM39.8213 41.1562L40.2986 41.3683C40.3095 41.4434 40.3422 41.5112 40.3967 41.5706C40.45 41.6299 40.5251 41.6808 40.622 41.7244C40.7202 41.7681 40.8159 41.7899 40.9104 41.7911C40.9722 41.7911 41.0364 41.7693 41.1018 41.7256L41.5791 41.9377C41.4701 42.1085 41.3174 42.2163 41.12 42.2623C40.9225 42.3072 40.6923 42.2708 40.427 42.1533C40.2489 42.0733 40.1096 41.9825 40.0115 41.8795C39.9133 41.7765 39.8479 41.6627 39.8152 41.5367C39.7837 41.4119 39.7861 41.2847 39.8213 41.1562Z" fill="white"/>
<path d="M44.0794 47.8348L44.1969 45.1029L42.2912 47.0716L41.6455 46.7953L44.2466 44.1216L44.8644 44.3857L44.7299 48.1122L44.0794 47.8348Z" fill="white"/>
<path d="M48.0069 45.6081C48.46 45.802 48.7799 46.1315 48.9652 46.5991C49.1506 47.0667 49.1433 47.5356 48.9422 48.0069C48.7423 48.4745 48.4128 48.8004 47.9536 48.987C47.4945 49.1735 47.0353 49.1687 46.5762 48.9724C46.0964 48.7677 45.7669 48.4309 45.5912 47.9632C45.4156 47.4956 45.4241 47.0328 45.6191 46.5761C45.7499 46.2696 45.9438 46.02 46.2018 45.8262C46.4599 45.6323 46.7494 45.516 47.0729 45.4761C47.3964 45.4373 47.7077 45.4809 48.0069 45.6081ZM47.7465 46.2017C47.4497 46.0758 47.1577 46.0721 46.8669 46.1921C46.5774 46.312 46.3642 46.5313 46.2285 46.8487C46.077 47.2024 46.0855 47.5368 46.2515 47.8518C46.3799 48.0977 46.5725 48.2746 46.8282 48.3836C47.1165 48.5072 47.4073 48.5072 47.7004 48.3848C47.9924 48.2625 48.2044 48.048 48.3353 47.7428C48.4649 47.4387 48.4734 47.137 48.3583 46.8378C48.2432 46.5385 48.0397 46.3277 47.7465 46.2017Z" fill="white"/>
<path d="M48.8213 49.8505L50.2302 46.668L51.8936 47.4046L51.6319 47.9958L50.5743 47.5269L50.3041 48.1375L50.4362 48.1956C50.7039 48.3144 50.9111 48.4416 51.0553 48.5761C51.1994 48.7105 51.2915 48.885 51.3327 49.0982C51.3739 49.3126 51.3436 49.5307 51.2455 49.7548C51.1473 49.9765 51.0262 50.1352 50.882 50.2297C50.7379 50.3242 50.5731 50.38 50.3877 50.3969C50.2024 50.4139 49.977 50.3642 49.7129 50.2467L48.8213 49.8505ZM50.0643 48.6778L49.6814 49.5404L49.8329 49.607C50.1103 49.7294 50.3005 49.7718 50.4059 49.7318C50.5113 49.6918 50.5913 49.6107 50.6458 49.4883C50.7827 49.1794 50.63 48.9274 50.1891 48.7323L50.0643 48.6778Z" fill="white"/>
<path d="M53.7258 48.2217L54.34 48.4943L54.1486 52.2184L53.5198 51.9385L53.5622 51.1729L52.2647 50.5962L51.7147 51.1365L51.0859 50.8567L53.7258 48.2217ZM53.6616 49.203L52.7493 50.1043L53.5998 50.4823L53.6616 49.203Z" fill="white"/>
<path d="M56.6164 51.6302L56.4129 51.5418C56.1197 51.4146 55.9089 51.3043 55.7829 51.2135C55.6569 51.1226 55.5515 51.0002 55.4667 50.8452C55.3819 50.6913 55.3443 50.5314 55.354 50.3679C55.3637 50.2043 55.4182 50.0056 55.52 49.773L55.795 49.1406L56.4117 49.4084L56.1403 50.0311C56.0458 50.2479 56.0191 50.4163 56.0603 50.535C56.1015 50.655 56.2493 50.7689 56.5037 50.8803L56.872 51.0414L57.3966 49.8372L58.0084 50.1037L56.62 53.2948L56.0082 53.0283L56.6164 51.6302Z" fill="white"/>
<path d="M58.6856 50.3945L60.4386 51.1287L60.1878 51.7272L59.0417 51.2474L58.7982 51.8277L59.9443 52.3075L59.6984 52.895L58.5523 52.4153L58.1986 53.2597L59.3446 53.7394L59.0938 54.3403L57.3408 53.6062L58.6856 50.3945Z" fill="white"/>
<path d="M59.6514 54.5657L60.9307 51.3286L61.4395 51.5297C61.7351 51.646 61.9435 51.7502 62.0646 51.8423C62.2379 51.9707 62.3542 52.127 62.4148 52.3111C62.4741 52.4953 62.4669 52.6831 62.3917 52.872C62.3433 52.9956 62.273 53.0974 62.1809 53.1773C62.0889 53.2573 61.9677 53.3179 61.8151 53.3591C61.975 53.5287 62.0731 53.7019 62.1095 53.8764C62.1458 54.0508 62.1264 54.2325 62.0513 54.4215C61.9798 54.6033 61.8672 54.7511 61.7133 54.8637C61.5607 54.9764 61.3947 55.0406 61.2178 55.0551C61.0409 55.0709 60.8204 55.0261 60.5588 54.9231L59.6514 54.5657ZM60.8277 53.393L60.4994 54.2228L60.6545 54.2834C60.9101 54.384 61.0955 54.4203 61.2105 54.3912C61.3244 54.3622 61.4068 54.2858 61.4553 54.1623C61.5098 54.0229 61.5013 53.8921 61.4286 53.7698C61.3559 53.6474 61.1984 53.5384 60.9561 53.4426L60.8277 53.393ZM61.3147 52.1597L61.0458 52.8418L61.1803 52.8951C61.3305 52.9544 61.4541 52.9665 61.5522 52.9326C61.6503 52.8987 61.7206 52.8272 61.763 52.7182C61.803 52.6164 61.8005 52.5231 61.7545 52.4359C61.7085 52.3487 61.6152 52.2784 61.4734 52.2215L61.3147 52.1597Z" fill="white"/>
<path d="M66.2329 53.9601L65.6489 54.2218C65.4636 53.8026 65.1849 53.5264 64.813 53.3955C64.4992 53.2841 64.1976 53.2974 63.9068 53.4355C63.6161 53.5736 63.415 53.8002 63.3035 54.1139C63.226 54.332 63.2042 54.544 63.2393 54.7475C63.2744 54.9511 63.3616 55.1316 63.501 55.2903C63.6403 55.449 63.816 55.5653 64.0292 55.6404C64.2109 55.7046 64.3878 55.7301 64.5622 55.7155C64.7367 55.701 64.9451 55.6368 65.1886 55.5217L65.4551 56.1129C65.1292 56.2631 64.8421 56.3467 64.5937 56.3612C64.3454 56.3758 64.0837 56.3346 63.8063 56.2365C63.2962 56.0559 62.9364 55.7458 62.7268 55.3072C62.516 54.8687 62.5015 54.3962 62.6808 53.891C62.7971 53.5639 62.974 53.2998 63.2114 53.0975C63.4501 52.8952 63.7336 52.7668 64.0643 52.7098C64.395 52.6529 64.7185 52.6808 65.0371 52.7934C65.3073 52.8891 65.5484 53.0394 65.758 53.2417C65.9675 53.4452 66.1263 53.6851 66.2329 53.9601Z" fill="white"/>
<path d="M66.9241 53.5308L67.5662 53.721L67.2258 54.8719L68.4724 53.9899L69.2344 54.2152L67.628 55.3601L68.3597 57.5868L67.6062 57.3639L67.0162 55.5757L66.5776 57.0586L65.9355 56.8684L66.9241 53.5308Z" fill="white"/>
<path d="M71.3208 54.6082C71.8029 54.7099 72.1797 54.9716 72.4535 55.3944C72.7273 55.8172 72.8097 56.2788 72.7031 56.7803C72.5977 57.2771 72.3384 57.6611 71.9229 57.9337C71.5073 58.2063 71.0566 58.2899 70.5684 58.1869C70.0572 58.0791 69.6695 57.8125 69.4066 57.3873C69.1425 56.9621 69.0625 56.5066 69.1655 56.0207C69.2346 55.6949 69.3763 55.4126 69.592 55.1727C69.8076 54.9328 70.0693 54.762 70.3794 54.6603C70.6896 54.5585 71.0033 54.5403 71.3208 54.6082ZM71.1802 55.2406C70.8652 55.1739 70.5769 55.2272 70.3164 55.4017C70.0547 55.5749 69.8888 55.8318 69.8173 56.1698C69.7373 56.5465 69.81 56.8724 70.0342 57.1486C70.2074 57.3643 70.4315 57.5012 70.7029 57.5581C71.0106 57.6235 71.2953 57.5678 71.5594 57.3909C71.8223 57.2141 71.9883 56.9633 72.0573 56.6374C72.1264 56.3139 72.0755 56.0159 71.9047 55.7457C71.7339 55.4756 71.4928 55.3072 71.1802 55.2406Z" fill="white"/>
<path d="M73.5524 55.0977L75.2702 55.2818L75.2012 55.9263L74.1375 55.8124L73.8358 58.6291L73.1816 58.5589L73.5524 55.0977Z" fill="white"/>
<path d="M77.2256 55.203C77.7175 55.1849 78.1476 55.346 78.5147 55.6888C78.883 56.0317 79.0756 56.4593 79.095 56.9718C79.1143 57.4794 78.9556 57.9156 78.6201 58.2802C78.2845 58.6449 77.8665 58.8363 77.3686 58.8557C76.8464 58.8751 76.4055 58.7115 76.0469 58.3638C75.6883 58.0161 75.4981 57.5933 75.4799 57.0966C75.4678 56.7634 75.5356 56.4557 75.6871 56.1698C75.8373 55.8851 76.0505 55.6549 76.3255 55.4817C76.6005 55.3084 76.901 55.2152 77.2256 55.203ZM77.2426 55.8512C76.9204 55.8633 76.6538 55.9857 76.443 56.2183C76.2322 56.4509 76.1329 56.7392 76.1462 57.0845C76.1607 57.4685 76.311 57.7678 76.5957 57.981C76.8174 58.1482 77.0657 58.2257 77.3444 58.2148C77.6581 58.2027 77.921 58.0791 78.1343 57.8441C78.3475 57.609 78.4468 57.3244 78.4335 56.9924C78.4214 56.6617 78.299 56.3855 78.0676 56.165C77.8362 55.9445 77.5612 55.8391 77.2426 55.8512Z" fill="white"/>
</svg>
