<svg id="logo"  viewBox="0 0 70 60" fill="none" xmlns="http://www.w3.org/2000/svg">
<path d="M70 25.1166C64.4048 22.9142 58.6628 21.1156 52.8474 19.5844C47.0058 18.0899 41.2113 16.6426 35.1075 16.543C35.0551 16.543 34.9502 16.543 34.8978 16.543C25.8049 16.716 17.1159 19.4743 8.49502 22.0962C5.64237 23.0348 2.79497 23.9892 0 25.1166C1.05926 24.9069 2.12375 24.6971 3.18301 24.4821V42.5629C2.12375 42.5314 1.0645 42.5 0 42.4842C2.88411 43.0978 5.7892 43.5697 8.69429 44.0364C17.3886 45.3212 26.0829 46.4328 34.8925 46.5272C34.9449 46.5272 35.0498 46.5272 35.1023 46.5272C38.0231 46.5272 40.8967 46.328 43.7703 46.1077C52.5747 45.3736 61.3372 44.2252 70 42.4842C68.967 42.5 67.9025 42.5262 66.817 42.5577V24.4821C67.8762 24.6971 68.9408 24.9069 70 25.1166ZM55.6109 22.2011V43.0244C54.9869 43.0558 54.3681 43.0873 53.7441 43.1187V34.4507L53.7389 34.2252C53.655 32.2325 52.2811 30.6699 50.6135 30.6699C48.9408 30.6699 47.5669 32.2325 47.4882 34.2252L47.483 43.4439C46.8432 43.4753 46.2035 43.5068 45.5794 43.5382V20.3448C48.9303 20.9006 52.2758 21.5351 55.6109 22.2011ZM48.6838 43.3809V34.7338L48.689 34.2671C48.7467 32.9247 49.591 31.8812 50.6135 31.8812C51.6361 31.8812 52.4803 32.9352 52.538 34.2724L52.5433 43.1869C51.2375 43.2498 49.9528 43.3128 48.6838 43.3809ZM35.0184 43.9053C33.9853 43.9053 32.8579 43.8791 31.678 43.8424V33.1607L31.6885 32.7989C31.7934 30.8167 33.2564 29.2645 35.0184 29.2645C36.775 29.2645 38.2328 30.8115 38.3429 32.7884L38.3534 43.8424C37.2365 43.8791 36.1248 43.9106 35.0184 43.9053ZM39.7588 32.7255C39.612 29.9934 37.5302 27.8539 35.0184 27.8539C32.5066 27.8539 30.4247 29.9934 30.2779 32.7412L30.2674 43.8004C29.5962 43.7742 28.9093 43.748 28.2223 43.7165V19.7417C30.5087 19.4271 32.7897 19.1701 35.0498 19.1544C37.268 19.1387 39.549 19.4323 41.8249 19.7574V43.7113C41.1379 43.7428 40.4562 43.769 39.7693 43.7952V33.1397L39.7588 32.7255ZM24.4625 20.329V43.5382C23.8228 43.5068 23.183 43.4701 22.559 43.4386L22.5537 34.2252C22.4698 32.2325 21.096 30.6699 19.4284 30.6699C17.7556 30.6699 16.3818 32.2325 16.3031 34.2357L16.2979 43.1187C15.6633 43.0873 15.0288 43.0558 14.3943 43.0191V22.2063C15.4693 21.9913 16.5391 21.7763 17.6141 21.5666C19.8689 21.1575 22.1657 20.7223 24.4625 20.329ZM17.6141 43.1869C17.5773 43.1869 17.5354 43.1817 17.4987 43.1817V34.5765L17.5039 34.2724C17.5616 32.93 18.4059 31.876 19.4284 31.876C20.451 31.876 21.29 32.9247 21.3529 34.2671L21.3582 43.3757C20.0315 43.3023 18.7677 43.2394 17.6141 43.1869ZM4.95543 24.1256C7.37284 23.6326 9.79025 23.1397 12.2077 22.6468V42.9195C11.7881 42.8985 11.3739 42.8828 10.9544 42.8618V35.1953C10.9544 33.7113 9.88988 32.5 8.57892 32.5C7.27321 32.5 6.2087 33.7061 6.2087 35.1953V42.6625C5.7892 42.6468 5.37493 42.6311 4.95543 42.6153V24.1256ZM7.1526 42.694V35.1901C7.1526 34.2252 7.79235 33.4439 8.57892 33.4439C9.3655 33.4439 10.0052 34.2304 10.0052 35.1901V42.8094C9.05611 42.7726 8.10697 42.7307 7.1526 42.694ZM62.8422 42.6992C61.8983 42.7359 60.9439 42.7779 59.9843 42.8198V35.1953C59.9843 34.2304 60.624 33.4491 61.4106 33.4491C62.1972 33.4491 62.8369 34.2357 62.8369 35.1953V42.6992H62.8422ZM65.0446 42.6153C64.6303 42.6311 64.2108 42.6468 63.786 42.6625V35.1953C63.786 33.7113 62.7215 32.5 61.4106 32.5C60.1049 32.5 59.0404 33.7061 59.0404 35.1953V42.8618C58.6261 42.8828 58.2066 42.8985 57.7923 42.9195V22.6416C60.2098 23.1345 62.6272 23.6326 65.0446 24.1256V42.6153Z" fill="white"/>
<path d="M26.193 10.0354C27.1264 9.76796 28.065 9.50577 29.0037 9.27504C32.7425 8.35737 36.6439 8.31017 40.4038 9.12821C44.5569 10.0354 48.6681 11.6033 52.6272 12.9877C58.4793 15.1744 64.2423 17.5918 70 20.0406C68.5789 19.1859 67.1421 18.3626 65.6896 17.5603C61.1851 14.1571 47.226 4.01023 36.3136 0.224174C35.4588 -0.0747247 34.5307 -0.0747247 33.6759 0.224174C22.6744 4.04169 8.57892 14.3301 4.19507 17.6442C2.78448 18.4255 1.38437 19.2174 0 20.0406C8.61038 16.4224 17.2365 12.6783 26.193 10.0354ZM33.3718 2.38464C34.3734 2.05428 35.4483 2.00708 36.4394 2.3689C40.1101 3.71657 50.4457 8.21054 63.7074 16.4906C60.2884 14.6814 56.7908 13.0139 53.2355 11.4775C52.1605 11.0003 49.9528 10.1088 48.8568 9.70504C44.3786 8.06896 40.0105 6.40666 35.1075 6.30703C35.0551 6.30703 34.9502 6.30703 34.8978 6.30703C31.6204 6.3752 28.5947 7.2247 25.6266 8.14237C19.2659 10.2189 13.1411 12.9143 7.22601 16.0186C13.9276 11.9913 26.623 4.62376 33.3718 2.38464Z" fill="white"/>
<path d="M37.9549 56.7998C34.903 57.2613 31.7881 57.0253 28.8201 56.1705L26.2507 55.4312C17.2837 52.7201 8.65233 48.9183 0 45.3105C8.77294 50.8638 24.5097 59.1648 34.8925 59.7101C34.9449 59.7154 34.9974 59.7154 35.1023 59.7101C41.6571 59.3063 47.4777 56.8365 53.3456 54.3037C59.1033 51.6975 64.6828 48.7295 69.9948 45.3105C64.2003 47.7437 58.4268 50.1978 52.5642 52.4159C47.8081 54.0992 42.9575 56.0342 37.9549 56.7998Z" fill="white"/>
</svg>
