<svg id="noimg-header" width="32" height="32" viewBox="0 0 32 32" fill="none" xmlns="http://www.w3.org/2000/svg">
<path fill-rule="evenodd" clip-rule="evenodd" d="M27.9475 2.90125C27.5417 2.74749 27.1077 2.6665 26.6654 2.6665H4.95108C3.99125 2.6665 3.07073 3.0478 2.39203 3.7265C1.71332 4.4052 1.33203 5.32572 1.33203 6.28555V24.3808C1.33203 25.3406 1.71332 26.2611 2.39203 26.9398C2.72988 27.2777 3.12766 27.5419 3.56038 27.722C3.63387 27.3743 3.80563 27.0432 4.07566 26.7731L11.2181 19.6307L9.06955 18.1995C8.89577 18.0838 8.68731 18.0317 8.47954 18.0522C8.27176 18.0726 8.07745 18.1643 7.92956 18.3116L3.14155 22.5713V6.28555C3.14155 5.80564 3.3322 5.34538 3.67155 5.00602C4.0109 4.66667 4.47116 4.47603 4.95108 4.47603H26.3728L27.9475 2.90125ZM28.4749 7.74792L30.2692 5.95363C30.2793 6.06353 30.2844 6.17428 30.2844 6.28555V24.3808C30.2844 25.3406 29.9031 26.2611 29.2244 26.9398C28.5457 27.6185 27.6252 27.9998 26.6654 27.9998H8.22297L21.6787 14.5441L28.4749 18.0475V7.74792ZM11.4691 10.5832C11.4691 11.339 11.1688 12.0639 10.6343 12.5984C10.0999 13.1329 9.37494 13.4332 8.61907 13.4332C7.86321 13.4332 7.1383 13.1329 6.60382 12.5984C6.06934 12.0639 5.76908 11.339 5.76908 10.5832C5.76908 9.8273 6.06934 9.10239 6.60382 8.56792C7.1383 8.03344 7.86321 7.73317 8.61907 7.73317C9.37494 7.73317 10.0999 8.03344 10.6343 8.56792C11.1688 9.10239 11.4691 9.8273 11.4691 10.5832Z" fill="#25282B"/>
<path fill-rule="evenodd" clip-rule="evenodd" d="M28.9191 1.90152C28.4072 1.3896 27.3954 1.57136 26.6593 2.30748L2.66767 26.2991C1.93154 27.0353 1.74979 28.047 2.26171 28.5589C2.77362 29.0708 3.78536 28.8891 4.52148 28.1529L28.5131 4.1613C29.2493 3.42517 29.431 2.41344 28.9191 1.90152Z" fill="#25282B" stroke="#25282B" stroke-linecap="round"/>
</svg>
