<svg id="ok"  viewBox="0 0 35 35" fill="none" xmlns="http://www.w3.org/2000/svg">
<path fill-rule="evenodd" clip-rule="evenodd" d="M35 17.5C35 27.165 27.165 35 17.5 35C7.83502 35 0 27.165 0 17.5C0 7.83502 7.83502 0 17.5 0C27.165 0 35 7.83502 35 17.5ZM16.8397 6.32721C15.517 6.46736 14.1943 7.10244 13.2526 8.04411C12.4248 8.87628 11.9124 9.83109 11.6846 10.9742C11.5664 11.5743 11.5839 12.5378 11.7284 13.1554C11.9781 14.2416 12.4818 15.1395 13.2921 15.9366C14.1067 16.7381 15.1404 17.2768 16.3623 17.5396C16.9361 17.6623 18.1187 17.6491 18.7187 17.5177C19.9451 17.2418 20.9218 16.7162 21.7452 15.8884C22.5686 15.0606 23.0898 14.0883 23.3044 12.9627C23.3964 12.494 23.4095 11.5349 23.3263 11.0706C22.9365 8.85876 21.2371 7.05864 19.0078 6.49364C18.342 6.32283 17.4836 6.25713 16.8397 6.32721ZM18.2238 9.26609C19.4764 9.59896 20.3042 10.5888 20.3743 11.8371C20.4049 12.367 20.3349 12.6824 20.0765 13.2123C19.7655 13.843 19.1392 14.3774 18.4165 14.6183C18.0223 14.7541 17.2427 14.7847 16.8178 14.6884C16.209 14.5438 15.574 14.1453 15.2017 13.6722C14.0936 12.2575 14.5797 10.2516 16.2222 9.46756C16.4018 9.38435 16.6558 9.28799 16.7916 9.25295C17.1595 9.16535 17.8602 9.16973 18.2238 9.26609ZM10.8081 18.1572C10.9658 17.947 11.2987 17.7061 11.5133 17.6448C11.9776 17.509 12.525 17.6492 13.1426 18.0609C15.7223 19.7734 19.2832 19.7734 21.8541 18.0609C22.3972 17.6973 22.7564 17.5747 23.1856 17.6054C23.72 17.6448 24.1842 17.9952 24.3726 18.5076C24.6047 19.1296 24.5259 19.4668 24.0266 19.9617C23.4659 20.5224 22.4717 21.1268 21.5607 21.4684C20.8774 21.7224 19.3357 22.0641 18.8671 22.0641C18.7926 22.0641 18.7182 22.0816 18.705 22.1035C18.6919 22.1254 19.6949 23.1152 20.9388 24.3022C22.9053 26.1899 23.2119 26.5009 23.3214 26.7242C23.6499 27.3724 23.3039 28.1827 22.5418 28.555C22.2834 28.682 22.2089 28.6995 21.8979 28.6995C21.6045 28.6995 21.5125 28.6776 21.3286 28.5813C21.1796 28.5068 20.619 27.9944 19.6204 27.0264C19.2448 26.6649 18.871 26.3042 18.5595 26.0037C18.1917 25.6488 17.9108 25.3777 17.8159 25.2876L17.5006 24.9898L15.7442 26.6936C13.7295 28.6426 13.6551 28.6995 13.1163 28.6952C12.709 28.6952 12.3937 28.5638 12.0695 28.2616C11.7542 27.9637 11.5834 27.6046 11.5834 27.2323C11.5834 27.1433 11.5825 27.0702 11.593 26.9987C11.6448 26.645 11.9743 26.3319 14.0624 24.3241C15.3019 23.1327 16.318 22.1385 16.318 22.121C16.318 22.1035 16.2611 22.0816 16.1954 22.0728C15.3019 21.9852 14.0142 21.6962 13.3309 21.429C12.2535 21.0129 10.9527 20.1238 10.6373 19.5851C10.4797 19.3135 10.4578 19.0288 10.5716 18.6565C10.6242 18.4857 10.7293 18.2623 10.8081 18.1572Z" fill="#00B2B5"/>
</svg>
