<svg id="quotes"  viewBox="0 0 33 29" fill="none" xmlns="http://www.w3.org/2000/svg">
<path d="M28.4665 29L24.4073 26.6758C25.7428 23.9994 26.639 21.9041 27.0958 20.3898C27.5527 18.8755 27.8866 16.9211 28.0974 14.5264H23.4585V0H33V9.08561C33 13.6284 32.6837 17.2028 32.0511 19.8087C31.4537 22.3795 30.2588 25.4432 28.4665 29ZM5.00799 29L0.948882 26.6758C2.28435 23.9994 3.18051 21.9041 3.63738 20.3898C4.09425 18.8755 4.42811 16.9211 4.63898 14.5264H0V0H9.54153V9.08561C9.54153 13.6284 9.22524 17.2028 8.59265 19.8087C7.99521 22.3795 6.80032 25.4432 5.00799 29Z" fill="#00B2B5"/>
</svg>
