<svg id="search"  viewBox="0 0 24 24" fill="none" xmlns="http://www.w3.org/2000/svg">
<path fill-rule="evenodd" clip-rule="evenodd" d="M8.38766 2.00934C7.09896 2.14319 6.03294 2.52234 5.05337 3.19537C1.38906 5.71283 0.876641 11.0183 3.98735 14.2327C5.84506 16.1523 8.58255 16.8209 11.1092 15.9719C11.5504 15.8237 12.2328 15.4995 12.5686 15.2786C12.6879 15.2002 12.7938 15.136 12.8038 15.136C12.8139 15.136 12.8221 15.1944 12.8221 15.2658C12.8221 15.433 12.919 15.7677 13.0395 16.0166C13.1675 16.2809 18.2492 21.5278 18.577 21.734C18.8904 21.9312 19.1406 22.0003 19.5404 22C20.0932 21.9996 20.5058 21.8268 20.8726 21.4417C21.2438 21.0523 21.4009 20.6496 21.4012 20.0868C21.4015 19.6757 21.3343 19.4185 21.1425 19.0962C20.942 18.7592 15.8388 13.5342 15.5818 13.4027C15.3397 13.2788 15.0142 13.1792 14.8516 13.1792C14.7821 13.1792 14.7253 13.1707 14.7253 13.1603C14.7253 13.15 14.7877 13.0412 14.8641 12.9185C15.0789 12.5733 15.3942 11.8716 15.5383 11.418C15.9167 10.2275 15.9915 8.9425 15.7527 7.73733C15.4751 6.33671 14.8269 5.09815 13.8468 4.09544C12.7849 3.00908 11.4986 2.33409 10.0054 2.07959C9.6789 2.02394 8.66922 1.9801 8.38766 2.00934ZM9.64015 4.26071C11.319 4.48672 12.8262 5.74391 13.4445 7.4341C13.661 8.02596 13.7148 8.37064 13.715 9.16766C13.7151 9.96385 13.6713 10.2472 13.4503 10.877C12.9834 12.2081 11.8776 13.3449 10.583 13.8251C9.97055 14.0523 9.69493 14.0973 8.92055 14.0972C8.28755 14.097 8.15223 14.0854 7.83573 14.0044C6.71174 13.7165 5.78229 13.1075 5.11838 12.224C4.42497 11.3012 4.10211 10.3302 4.10211 9.16766C4.10211 7.7922 4.56759 6.63646 5.51318 5.66427C6.62933 4.51662 8.02232 4.04288 9.64015 4.26071Z" fill="#25282B"/>
</svg>
