<svg class="infra-svg" width="41" height="40" viewBox="0 0 41 40" fill="none" xmlns="http://www.w3.org/2000/svg">
<path d="M4.65634 39.9996C4.20952 39.751 4.08124 39.3694 4.08203 38.867C4.09323 30.7972 4.08843 22.7278 4.09043 14.6581C4.09163 11.0768 6.0807 8.34674 9.48494 7.2437C10.9189 6.77931 12.3536 6.31851 13.7892 5.85891C15.132 5.42888 15.7499 4.58202 15.7511 3.16205C15.7515 2.47225 15.7707 1.78165 15.7447 1.09265C15.7251 0.578297 15.8954 0.208219 16.3761 0C16.5324 0 16.6887 0 16.8449 0C17.2941 0.246985 17.4412 0.629053 17.4176 1.13262C17.3701 2.15772 17.4648 3.20122 17.3069 4.20674C17.0616 5.77098 16.0788 6.82287 14.5849 7.34002C13.075 7.86237 11.5471 8.33276 10.0253 8.81953C7.30603 9.68958 5.75058 11.8089 5.75018 14.6593C5.74939 22.7414 5.74699 30.824 5.75658 38.9062C5.75738 39.4193 5.60391 39.7898 5.12473 39.9996C4.96886 39.9996 4.8126 39.9996 4.65634 39.9996Z" fill="#9696A0"/>
<path d="M25.1271 0C25.6075 0.209018 25.7761 0.579097 25.7585 1.09345C25.733 1.84759 25.7481 2.60294 25.7529 3.35788C25.7605 4.52367 26.4168 5.42728 27.5306 5.79177C29.0369 6.28494 30.5468 6.76812 32.0551 7.25529C35.3886 8.33196 37.4084 11.082 37.4116 14.5797C37.4176 21.2959 37.4136 28.0116 37.4136 34.7278C37.4136 36.1074 37.3972 37.4874 37.422 38.8666C37.4312 39.3706 37.2905 39.749 36.8469 39.9992C36.6906 39.9992 36.5344 39.9992 36.3781 39.9992C35.9009 39.7886 35.7455 39.4205 35.7463 38.9062C35.7562 30.85 35.7534 22.7934 35.753 14.7372C35.753 11.8041 34.2615 9.73394 31.4776 8.81913C30.0336 8.34474 28.5849 7.88355 27.1369 7.42195C25.2106 6.80768 24.1052 5.30938 24.0924 3.27995C24.088 2.56417 24.114 1.84719 24.084 1.13262C24.0628 0.628654 24.2107 0.248184 24.6579 0C24.8146 0 24.9708 0 25.1271 0Z" fill="#9696A0"/>
<path d="M9.65947 39.9994C9.10995 39.7052 9.01963 39.2349 9.14152 38.6749C9.5092 36.9872 9.88687 35.3011 10.235 33.6093C10.8093 30.8202 10.8964 28.0106 10.5547 25.1839C10.3209 23.2507 9.83692 21.3824 9.18628 19.5512C8.9409 18.8606 9.36093 18.2815 10.0287 18.3526C10.3936 18.3914 10.6146 18.6136 10.7353 18.9429C11.4807 20.9771 11.9974 23.0661 12.2376 25.2218C12.6593 29.0069 12.318 32.7225 11.2901 36.3877C11.0455 37.2602 10.9156 38.1678 10.7809 39.0666C10.7142 39.5118 10.5351 39.8203 10.1287 39.9998C9.972 39.9994 9.81574 39.9994 9.65947 39.9994Z" fill="#9696A0"/>
<path d="M31.3795 39.9996C30.9539 39.8145 30.8072 39.4764 30.7193 39.0284C30.3836 37.3207 29.9843 35.6258 29.635 33.9209C29.022 30.9243 28.942 27.9065 29.3145 24.8727C29.5611 22.8629 30.0539 20.9154 30.7489 19.0162C30.9679 18.4183 31.479 18.1757 31.969 18.4379C32.3583 18.6461 32.4742 19.0434 32.3275 19.5517C31.9538 20.849 31.5062 22.1327 31.2416 23.4524C30.4303 27.5004 30.6334 31.5205 31.7132 35.5071C32.0014 36.5706 32.156 37.6696 32.379 38.7511C32.4913 39.2954 32.3447 39.7194 31.8479 39.9996C31.692 39.9996 31.5358 39.9996 31.3795 39.9996Z" fill="#9696A0"/>
<path d="M19.9105 24.999C19.9105 21.5628 19.9105 18.1266 19.9105 14.69C19.9105 14.5857 19.9097 14.4818 19.9105 14.3775C19.9165 13.7145 20.225 13.3396 20.7598 13.3448C21.2793 13.35 21.5891 13.7193 21.5891 14.3579C21.5907 21.4517 21.5907 28.5456 21.5891 35.6394C21.5891 36.2469 21.3141 36.6066 20.8377 36.6493C20.3989 36.6885 20.0412 36.4387 19.9481 36.0067C19.9129 35.8436 19.9117 35.671 19.9117 35.5027C19.9101 32.0018 19.9105 28.5004 19.9105 24.999Z" fill="#9696A0"/>
<path d="M15.7422 11.5647C15.779 13.3747 15.2099 14.9589 13.9658 16.287C13.5617 16.7182 13.0577 16.7777 12.6953 16.45C12.3072 16.0991 12.3264 15.6088 12.7532 15.148C13.632 14.1996 14.0653 13.0754 14.0881 11.7881C14.094 11.45 14.0793 11.1111 14.0992 10.7742C14.1256 10.3385 14.4617 10.0208 14.8826 10.0036C15.3126 9.98604 15.6951 10.3038 15.7374 10.7462C15.7634 11.0167 15.7422 11.2917 15.7422 11.5647Z" fill="#9696A0"/>
<path d="M25.7518 11.576C25.7518 11.3158 25.7378 11.0548 25.755 10.7963C25.7858 10.3303 26.1583 9.99136 26.6039 10.0037C27.0411 10.0157 27.378 10.3415 27.4016 10.8019C27.4268 11.2946 27.41 11.7902 27.4488 12.2818C27.5355 13.3844 28.0027 14.3184 28.7292 15.1457C28.9035 15.3439 29.0362 15.6349 29.0602 15.895C29.0905 16.2247 28.8695 16.4869 28.547 16.6032C28.1989 16.7283 27.884 16.6496 27.6202 16.3798C26.6455 15.3823 26.0416 14.1969 25.8314 12.8189C25.769 12.4093 25.7574 11.992 25.7227 11.5784C25.7326 11.5776 25.7422 11.5768 25.7518 11.576Z" fill="#9696A0"/>
</svg>
