<svg class="infra-svg" width="34" height="41" viewBox="0 0 34 41" fill="none" xmlns="http://www.w3.org/2000/svg">
<path d="M16.008 0.545475C15.269 0.701061 14.491 1.14837 14.034 1.68319L13.645 2.1305L12.9838 1.96519C10.4847 1.3234 8.54962 1.90685 7.99535 3.49187C7.91756 3.7058 7.78142 4.25035 7.6939 4.69765C7.47997 5.74785 7.35356 5.98123 6.84791 6.26323C6.49784 6.44799 6.42005 6.54523 6.4006 6.8175C6.35198 7.25508 6.58536 7.47874 7.2466 7.61488C7.99535 7.78019 9.72624 7.78019 10.2805 7.61488C11.0293 7.40095 11.3793 7.03143 11.9628 5.82565C12.2545 5.22276 12.624 4.58096 12.7893 4.39621L13.081 4.05587L13.0908 5.7284C13.0908 7.55653 13.188 8.03301 13.7131 8.72342L13.9659 9.04432L13.6742 9.725C12.8671 11.6309 12.5948 13.2937 12.6337 16.1721C12.6532 18.0488 12.6337 18.3308 12.4393 19.099C12.167 20.1395 11.778 21.0147 11.1362 22.026C10.4555 23.0859 10.2416 23.7082 10.2416 24.6709C10.2319 26.1392 10.8445 27.3839 11.9822 28.2105L12.5948 28.6481L12.5462 29.2801C12.517 29.6399 12.4781 30.2039 12.449 30.5442L12.3906 31.1569L9.2692 31.0791C7.54804 31.0304 5.48654 30.9916 4.67944 30.9916C3.25973 30.9916 3.2111 31.0013 2.7638 31.2541C2.5207 31.4097 2.18035 31.6917 2.01504 31.8862C1.4705 32.5377 1.42188 32.8683 1.42188 35.5132C1.42188 37.7984 1.4316 37.9345 1.62608 38.1776C1.82056 38.4305 2.25815 38.518 2.62766 38.3721C2.71518 38.3332 3.16248 37.6817 3.62924 36.9135L4.46551 35.5132L5.05868 35.5619C5.3893 35.591 6.85763 35.6786 8.32597 35.7564C9.7943 35.8341 11.4766 35.9508 12.0697 36.0092C13.8201 36.1842 15.055 35.98 15.9788 35.3479C16.7178 34.852 17.0096 34.3269 17.5736 32.5474C17.8458 31.6917 18.1765 30.6318 18.3223 30.1845L18.5751 29.3871H19.3822H20.1893V29.99C20.1893 30.3303 20.1407 32.314 20.0824 34.395C19.9754 37.8665 19.9851 38.236 20.131 38.6833C20.3449 39.3543 20.7728 39.8307 21.434 40.1516C21.9883 40.4239 21.998 40.4239 24.2054 40.4531C26.6267 40.492 27.0059 40.4628 27.2976 40.1711C27.531 39.9377 27.5407 39.3932 27.3171 39.1403C27.2198 39.0334 26.5781 38.6055 25.8779 38.1874C25.1875 37.7692 24.6041 37.4192 24.5943 37.4192C24.5554 37.39 24.9444 30.9332 25.0611 29.7177C25.2167 27.9382 24.9639 26.5768 24.3221 25.7308C23.8164 25.0696 23.2038 24.7779 20.5297 23.9416C19.1391 23.504 17.982 23.1345 17.9722 23.1151C17.9528 23.0956 18.1765 22.6483 18.4682 22.1232C19.0711 21.0341 19.6253 19.6825 19.8101 18.8559C19.9171 18.36 19.9851 18.253 20.3255 18.0099C21.3076 17.3292 21.8522 16.386 21.8813 15.3261C21.8813 14.9857 21.9397 14.7037 21.9883 14.7037C22.1342 14.7037 25.771 14.4315 26.5392 14.3634C26.967 14.3245 27.1907 14.3342 27.1907 14.4023C27.1907 14.4606 27.0351 14.5092 26.8406 14.5092C26.4905 14.5092 26.1307 14.6551 26.0043 14.8399C25.9654 14.8982 25.9265 15.5205 25.9265 16.2207C25.9265 17.3292 25.946 17.514 26.1016 17.6501C26.2572 17.796 26.5975 17.8154 28.9216 17.8154C32.1208 17.8154 31.8582 17.9613 31.8582 16.1818C31.8582 15.0441 31.8485 14.976 31.6151 14.7523C31.4304 14.5676 31.2748 14.5092 30.9344 14.5092C30.526 14.5092 30.4871 14.4898 30.5163 14.2856C30.5358 14.1106 30.6135 14.0717 30.9831 14.0425C31.2651 14.023 31.4984 13.9355 31.6443 13.8091C31.8485 13.6146 31.8582 13.5174 31.8582 12.3116C31.8582 10.7558 31.7902 10.6196 31.0025 10.5418C30.526 10.5029 30.4969 10.4835 30.4969 10.2307C30.4969 9.97783 30.526 9.95838 31.0025 9.91948C31.7804 9.84169 31.8582 9.69583 31.8582 8.23722C31.8582 7.20647 31.8291 7.01198 31.6735 6.8175L31.4887 6.58413H28.9118C25.6834 6.58413 25.9265 6.44799 25.9265 8.23722C25.9265 9.71528 25.9849 9.83196 26.7531 9.90976C27.1615 9.95838 27.1907 9.98755 27.1907 10.2404V10.5224H22.8343H18.4779L18.3126 10.182L18.1473 9.84169H19.11C20.52 9.84169 20.4422 10.0362 20.5297 6.55495C20.588 4.11421 20.5783 3.67662 20.4422 3.20987C19.9073 1.3623 17.8653 0.137066 16.008 0.545475ZM17.9625 2.12077C18.4585 2.39305 18.9349 2.91815 19.1391 3.4238C19.2558 3.68635 19.2558 6.15627 19.1586 7.67322L19.1002 8.57756L17.4763 8.56783C15.4926 8.55811 15.1134 8.44142 14.6563 7.70239C14.4716 7.3815 14.4521 7.23564 14.4521 5.41724V3.47242L14.7439 2.96677C15.4051 1.81933 16.747 1.45954 17.9625 2.12077ZM11.8947 3.09318C12.0989 3.15153 12.0892 3.17097 11.6808 3.6669C11.3113 4.12393 10.8251 5.01855 10.475 5.88399C10.3291 6.24378 9.84292 6.43826 9.10389 6.43826H8.51073L8.65659 6.16599C8.72466 6.02013 8.88996 5.46585 8.99693 4.94075C9.11362 4.40593 9.27893 3.85166 9.36644 3.7058C9.52203 3.44325 9.89154 3.20987 10.3194 3.10291C10.6014 3.03484 11.6516 3.02511 11.8947 3.09318ZM30.4969 8.23722C30.4969 8.57756 30.4969 8.57756 30.0593 8.57756C29.3786 8.57756 29.2327 8.78176 29.2327 9.74445V10.5224H28.8924H28.552V9.80279C28.552 8.84011 28.3576 8.57756 27.6672 8.57756H27.1907V8.23722V7.89687H28.8438H30.4969V8.23722ZM16.115 9.84169C16.6303 9.84169 16.6595 9.85141 16.8151 10.182C17.029 10.6196 17.029 10.6196 16.747 10.6196C16.397 10.6196 15.7163 10.8822 15.3565 11.1642C14.8897 11.524 14.6466 12.0588 14.6466 12.7297C14.6466 13.4396 14.88 13.9647 15.4051 14.4315C16.0761 15.0343 16.4747 15.1024 18.5946 14.9468C19.5962 14.869 20.4519 14.8301 20.5102 14.869C20.5589 14.8982 20.5783 15.1316 20.5491 15.4136C20.4811 15.9873 20.1115 16.5999 19.6837 16.8236C18.828 17.2903 18.8085 17.3292 18.5849 18.253C18.2931 19.4102 17.8945 20.4312 17.2721 21.5495L16.7567 22.4733L14.1701 23.5818C12.7504 24.1944 11.5641 24.6515 11.5544 24.6028C11.4668 24.3889 11.7877 23.4943 12.1475 22.9497C12.6726 22.1329 13.2172 21.0244 13.4797 20.2465C13.8979 18.992 13.9854 18.2822 13.9757 16.0165C13.9562 13.284 14.1896 11.8448 14.8994 10.2501C15.1036 9.79307 15.162 9.725 15.3468 9.78334C15.4732 9.81252 15.8135 9.84169 16.115 9.84169ZM30.4969 12.3213C30.4969 12.5644 30.4677 12.7589 30.4288 12.7589C30.3802 12.7589 27.3074 12.9826 23.5928 13.2548C16.0469 13.7994 16.3775 13.8091 16.0469 13.109C15.8038 12.6228 15.9302 12.3019 16.4261 12.0782C16.8151 11.8935 17.1457 11.8837 23.6706 11.8837H30.4969V12.3213ZM29.2327 14.8496C29.2327 15.647 29.4078 15.8706 30.0593 15.8706C30.4969 15.8706 30.4969 15.8706 30.4969 16.211V16.5513H28.8438H27.1907V16.211V15.8706H27.6672C28.3284 15.8706 28.552 15.5886 28.552 14.7912V14.2175H28.8924H29.2327V14.8496ZM19.5184 25.0112C21.0937 25.5072 22.562 26.0128 22.7857 26.1392C23.0871 26.3143 23.2621 26.5088 23.4664 26.9269C23.7192 27.452 23.7386 27.5784 23.7386 28.6092C23.7289 29.2218 23.6122 31.5653 23.4761 33.8115C23.2524 37.3122 23.233 37.9248 23.3497 38.0999C23.4275 38.2165 23.7775 38.4791 24.1276 38.6833L24.7791 39.0625L23.6706 39.0917C23.0677 39.1112 22.4356 39.0917 22.2703 39.0625C21.9008 38.9945 21.4535 38.5374 21.366 38.1485C21.3368 37.9734 21.366 35.7564 21.4437 33.2086L21.5702 28.5703L21.3271 28.3661C21.1326 28.191 20.9186 28.1424 20.0338 28.0938C14.0729 27.7243 13.927 27.7145 13.4311 27.5298C12.9255 27.345 12.2059 26.7227 11.9725 26.2657L11.8461 26.0226L14.141 25.0307C15.4051 24.4861 16.4942 24.0583 16.5525 24.0777C16.6109 24.0972 17.9431 24.5153 19.5184 25.0112ZM17.1068 29.2898C17.1943 29.3676 16.0858 33.0142 15.8038 33.5782C15.5607 34.0741 15.1134 34.4144 14.4716 34.5992C13.859 34.7839 14.209 34.7937 7.88838 34.4144C5.32123 34.2588 3.93069 34.2102 3.79455 34.2686C3.68758 34.3269 3.42503 34.6575 3.2111 35.0076L2.83187 35.6591L2.80269 34.4242C2.77352 32.9947 2.87076 32.6933 3.41531 32.4307C3.72648 32.2849 4.13489 32.2751 8.53017 32.3918C13.2075 32.5182 13.3047 32.5182 13.4895 32.3335C13.645 32.1779 13.6937 31.9251 13.7715 30.8846C13.8201 30.1942 13.8687 29.5038 13.8687 29.3482V29.0662L15.4537 29.144C16.3192 29.1829 17.0679 29.2412 17.1068 29.2898Z" fill="#9696A0"/>
<path d="M1.71327 11.9712C0.517204 12.3407 -0.202377 13.5173 0.0504487 14.6648C0.19631 15.3163 0.614445 15.8803 1.18817 16.2206C1.80078 16.5804 2.72457 16.5998 3.32746 16.2887C3.86229 16.0067 4.38739 15.3843 4.53325 14.8398C4.67911 14.3341 4.61104 13.5854 4.39711 13.1575C3.91091 12.224 2.68567 11.6795 1.71327 11.9712ZM2.98712 13.527C3.21077 13.7507 3.26912 13.8966 3.26912 14.2174C3.26912 15.2093 1.91747 15.5691 1.46044 14.6939C1.28541 14.3439 1.28541 14.0813 1.47016 13.7312C1.65492 13.3715 1.86885 13.2548 2.32588 13.245C2.60788 13.245 2.76347 13.3131 2.98712 13.527Z" fill="#9696A0"/>
<path d="M24.7601 20.0522C24.2642 20.5481 24.8476 21.3941 25.4894 21.1024C25.9367 20.8982 25.9756 20.1883 25.5478 19.9647C25.256 19.7994 24.974 19.8383 24.7601 20.0522Z" fill="#9696A0"/>
<path d="M4.06629 20.4409C3.81346 20.5479 3.63843 20.9369 3.72595 21.1897C3.75512 21.2869 3.92043 21.5106 4.07601 21.6759L4.37746 21.9968L4.12463 22.2593C3.74539 22.6775 3.64815 22.9206 3.75512 23.2026C3.9496 23.7374 4.48442 23.786 4.99007 23.3193L5.35959 22.9886L5.71938 23.3193C6.13752 23.6985 6.48758 23.7374 6.76958 23.4554C7.07103 23.154 7.02241 22.765 6.62372 22.3858L6.2931 22.0649L6.63344 21.6856C7.05158 21.2189 7.0613 20.8105 6.66262 20.509C6.35145 20.2854 6.11807 20.3437 5.64159 20.7521L5.31097 21.0438L4.92201 20.6938C4.5136 20.3243 4.42608 20.3048 4.06629 20.4409Z" fill="#9696A0"/>
<path d="M32.2753 21.8995C31.828 22.0843 31.7308 22.6191 32.0905 22.9595C32.5476 23.3873 33.3158 22.9595 33.1602 22.3468C33.1116 22.1426 32.674 21.7731 32.5184 21.812C32.499 21.812 32.392 21.8509 32.2753 21.8995Z" fill="#9696A0"/>
</svg>
