<svg class="infra-svg" width="41" height="36" viewBox="0 0 41 36" fill="none" xmlns="http://www.w3.org/2000/svg">
<path d="M12.7704 0.19244C11.5184 0.591518 10.5951 1.48358 10.1882 2.65734C9.80472 3.78415 9.9534 4.97356 10.6342 6.15515C10.6498 6.17863 10.4073 6.25688 10.0943 6.3273C8.76399 6.64031 7.23027 7.64974 6.37734 8.76873C5.71221 9.63731 5.47745 10.1851 4.68712 12.6421C3.41163 16.5938 3.30208 17.0633 3.30208 18.5892C3.30208 19.8412 3.46641 20.6628 4.28022 23.5816C4.68712 25.0527 5.0236 26.2891 5.0236 26.3204C5.0236 26.3595 4.11589 27.2203 2.9969 28.2375C1.88574 29.2548 0.845008 30.2329 0.680681 30.4129C0.211176 30.9293 0.0625 31.3519 0.0625 32.1657C0.0625 32.7761 0.0859752 32.9247 0.273777 33.3082C0.563305 33.9029 1.18149 34.4819 1.77619 34.701C2.44132 34.9514 3.32556 34.9123 3.92809 34.6071C4.44454 34.3567 9.84385 29.4504 10.2038 28.9105C10.6342 28.2688 10.689 27.9089 10.6342 25.9213C10.6107 24.9432 10.6029 24.145 10.6264 24.145C10.642 24.145 11.135 24.5206 11.714 24.9745C12.3713 25.4909 12.7704 25.8587 12.7704 25.9448C12.7704 26.023 12.52 27.6272 12.2148 29.513C11.7923 32.1422 11.6749 33.0812 11.6984 33.5038C11.7532 34.4976 12.2774 35.3114 13.1773 35.7809C13.5529 35.9765 13.6703 36 14.3746 36C15.0319 36 15.2119 35.9687 15.517 35.82C16.0726 35.5461 16.4717 35.1627 16.7456 34.6384C16.9881 34.2002 17.0429 33.8951 17.7081 29.7634C18.4827 24.9666 18.5297 24.4737 18.248 23.7381C17.888 22.7678 17.9193 22.7991 14.3589 19.8256L12.2305 18.0414L12.7 16.6955C12.9661 15.9521 13.3573 14.8253 13.5764 14.1915C13.8033 13.5499 14.0146 13.0334 14.0459 13.0334C14.0772 13.0334 14.6719 13.4559 15.3605 13.9802C16.8708 15.1149 17.2307 15.3027 17.935 15.2948C18.2167 15.2948 18.5688 15.2479 18.7253 15.1931L19.0148 15.0914L19.1009 15.3809C19.2261 15.8113 19.6408 16.3825 20.0008 16.6173C20.6816 17.0711 20.5799 17.0633 23.5925 17.0868C26.6052 17.1103 26.8712 17.0868 27.3642 16.6955C27.4737 16.6095 27.5833 16.5469 27.5911 16.5625C27.6068 16.5782 27.7007 16.9459 27.7946 17.3763C27.8963 17.8067 27.9824 18.1979 28.0059 18.2449C28.0215 18.284 27.0277 19.1135 25.7914 20.076C24.5628 21.0385 23.3499 22.0479 23.0995 22.3218C22.5909 22.8773 22.1527 23.699 21.9571 24.458C21.7223 25.3657 21.7849 26.0622 22.4657 30.272C23.0526 33.9029 23.1152 34.2081 23.3499 34.6384C23.6238 35.1627 24.0229 35.5461 24.5785 35.82C24.8836 35.9687 25.0636 36 25.7209 36C26.4252 36 26.5426 35.9765 26.9182 35.7809C27.8337 35.2957 28.3502 34.4898 28.3971 33.4568C28.4128 33.0656 28.2797 31.7432 28.0059 29.5443L27.5833 26.2187L28.491 25.2953C28.9918 24.7945 29.4222 24.3798 29.4457 24.3798C29.477 24.3798 29.477 25.131 29.4535 26.0465C29.4144 27.8854 29.4691 28.261 29.8839 28.8948C30.2047 29.4035 35.604 34.3098 36.1439 34.5915C36.5039 34.7871 36.6995 34.8341 37.216 34.8497C38.0454 34.8888 38.5854 34.6932 39.1801 34.1533C39.9782 33.4177 40.2521 32.4161 39.9313 31.3597C39.72 30.6633 39.587 30.5146 37.0751 28.214C35.9718 27.2124 35.0719 26.3595 35.0719 26.3204C35.0719 26.2891 35.4006 25.0684 35.8075 23.6207C36.2065 22.1653 36.5821 20.6707 36.6369 20.3029C36.6995 19.8725 36.723 19.1839 36.6995 18.3466C36.6604 17.2511 36.6213 16.9303 36.4178 16.1634C36.0187 14.6688 35.7918 14.2854 35.291 14.2854C34.9545 14.2854 34.6963 14.4419 34.5554 14.7393C34.4302 15.0131 34.4302 15.0366 34.7119 15.9208C34.8685 16.4217 35.0171 17.0164 35.0484 17.2355L35.0954 17.6502H32.2783H29.4613L29.1014 16.0226L28.7336 14.4028L29.164 13.3307C29.3987 12.736 29.5943 12.1805 29.5943 12.1022C29.5943 11.8362 29.4144 11.5388 29.1953 11.4214C28.7101 11.171 28.2797 11.3667 28.0372 11.9379C27.9433 12.1492 27.8415 12.3291 27.8024 12.3291C27.7398 12.3291 26.1435 11.6484 26.1044 11.6014C26.0496 11.5466 26.6208 9.48863 26.7695 9.16781C27.1999 8.2914 28.0998 7.63409 29.1014 7.47759C30.1265 7.31326 31.2533 7.75147 31.934 8.58092C32.1218 8.81568 32.3644 9.05043 32.474 9.10521C32.8965 9.33996 33.4756 9.0113 33.5538 8.48702C33.6712 7.74364 32.0984 6.3899 30.682 6.02213C29.9856 5.84215 28.9136 5.8578 28.2641 6.06125C27.9902 6.14733 27.7555 6.20993 27.7555 6.2021C27.7476 6.19428 27.7007 5.92822 27.6537 5.6074C27.3407 3.71373 25.7053 2.31304 23.8038 2.31304C22.7944 2.31304 21.9179 2.65734 21.1667 3.3616C19.8991 4.54318 19.5469 6.31165 20.2669 7.86884C20.3764 8.1036 20.4703 8.3227 20.4703 8.354C20.4781 8.42442 18.1697 9.91901 18.0915 9.88771C17.9272 9.82511 15.564 7.44629 15.6422 7.42281C15.877 7.34456 16.4795 6.87506 16.7769 6.5464C18.6705 4.44146 17.7472 1.02972 15.0632 0.200268C14.4059 -0.00318527 13.3808 -0.00318527 12.7704 0.19244ZM14.8519 1.79658C15.3214 2.01569 15.7518 2.42259 15.9944 2.88427C16.143 3.15815 16.1743 3.33812 16.1743 3.91718C16.1743 4.55883 16.1509 4.66056 15.9318 5.05182C14.7423 7.15676 11.5575 6.3273 11.5654 3.90936C11.5654 2.58691 12.5513 1.62443 13.9051 1.6166C14.3198 1.60878 14.5467 1.65573 14.8519 1.79658ZM24.868 4.13628C25.3062 4.36321 25.6662 4.73099 25.9322 5.23179C26.2061 5.74042 26.1826 6.66378 25.8853 7.26631C24.9932 9.08956 22.3327 8.93305 21.6049 7.01591C21.1354 5.7639 21.8397 4.38668 23.1778 3.94848C23.5612 3.82328 24.4454 3.91718 24.868 4.13628ZM12.9661 7.80624C13.6468 7.97839 14.1868 8.34617 15.2823 9.37126C15.9005 9.95031 16.3621 10.4433 16.3387 10.4981C16.3074 10.592 15.4936 11.7266 15.3449 11.8909C15.3058 11.9301 15.0397 11.7814 14.711 11.531C13.8346 10.8658 13.6781 10.8111 13.2399 11.038C12.9817 11.171 12.9739 11.1867 11.628 15.0053L10.7046 17.6502H7.82498H4.94535V17.4311C4.94535 17.0477 5.17228 16.2417 6.00956 13.6203C6.46341 12.1961 6.96422 10.7876 7.12072 10.4902C7.50415 9.73904 8.53706 8.70613 9.28827 8.3227C10.5246 7.68887 11.8079 7.50889 12.9661 7.80624ZM22.1292 10.0129C22.4187 10.3024 22.4735 10.592 22.3014 10.9519C22.2231 11.1397 21.1902 11.8518 18.9992 13.2447C17.9976 13.8785 17.8411 13.8863 17.1212 13.3386C16.7925 13.096 16.6125 12.9004 16.636 12.8378C16.6595 12.7752 16.8551 12.4856 17.0742 12.1805L17.4733 11.6327L17.8567 11.6797C18.2323 11.7266 18.2558 11.7188 19.3591 10.991C21.558 9.55906 21.6441 9.52776 22.1292 10.0129ZM24.5628 11.2336L24.3046 12.2118L23.8116 12.2352L23.3265 12.2587L23.5221 11.9614C23.8038 11.531 23.9603 11.038 23.9603 10.5685V10.1538L24.375 10.0833C24.7115 10.0286 24.7819 10.0364 24.8054 10.1381C24.8132 10.2007 24.7037 10.6937 24.5628 11.2336ZM26.4721 13.4716C26.8321 13.6281 27.1529 13.7768 27.192 13.8081C27.2938 13.902 26.7695 15.0914 26.5269 15.3261L26.3 15.5452L23.6786 15.5218L21.0494 15.4983L20.8224 15.2401C20.5094 14.8879 20.5094 14.4654 20.8224 14.1133L21.0494 13.855L23.0917 13.8472C25.3062 13.8316 25.4236 13.8159 25.6192 13.3777C25.6662 13.276 25.7288 13.1899 25.7601 13.1899C25.7835 13.1899 26.1044 13.3151 26.4721 13.4716ZM13.8503 21.4454C16.7769 23.8946 16.8551 23.9807 16.8551 24.7867C16.8551 25.2327 15.5562 33.4881 15.4388 33.7855C15.2666 34.2315 14.8597 34.4741 14.2963 34.4741C13.7407 34.4741 13.2399 33.942 13.2399 33.3473C13.2399 33.1986 13.506 31.4145 13.8268 29.3956C14.1476 27.3689 14.4137 25.6161 14.4137 25.4909C14.4137 25.3657 14.3433 25.1701 14.2572 25.0605C14.1242 24.8962 11.135 22.4939 10.2821 21.8757C9.90645 21.6019 9.51519 21.6332 9.21784 21.9618L8.99091 22.2122L9.04569 24.9588L9.10829 27.7054L8.92049 27.9793C8.71704 28.2766 3.72464 32.9091 3.34121 33.1517C2.69955 33.5586 1.75272 33.1438 1.61187 32.3848C1.49449 31.7588 1.56492 31.6806 4.16284 29.2939C5.82958 27.768 6.61209 27.009 6.66687 26.8447C6.73729 26.6412 6.63557 26.1952 5.95478 23.7929C5.1175 20.7959 4.9923 20.2794 4.91405 19.6221L4.85927 19.2152H8.0206H11.1898L13.8503 21.4454ZM35.1502 19.4813C35.1502 19.9899 34.9076 21.0071 34.1329 23.8007C33.4678 26.1874 33.3582 26.6412 33.4286 26.8447C33.4834 27.0012 34.2659 27.768 35.9014 29.2704C37.5681 30.7807 38.335 31.5397 38.4132 31.7275C38.6323 32.244 38.4289 32.8465 37.9437 33.1438C37.662 33.3238 37.0829 33.3473 36.8247 33.1986C36.5195 33.0265 31.3159 28.214 31.1515 27.9558C31.0029 27.7132 30.995 27.6193 31.0498 24.9666L31.1046 22.2279L30.8933 21.9775C30.6429 21.6879 30.3769 21.6097 30.0717 21.7349C29.7274 21.8836 26.0809 25.3892 26.0183 25.6239C25.9948 25.7335 26.167 27.4628 26.4095 29.4661C26.6599 31.4693 26.8556 33.2221 26.8556 33.3629C26.8556 33.6916 26.6912 34.0124 26.3861 34.2707C26.1904 34.435 26.0574 34.4741 25.7288 34.4741C25.2123 34.4741 24.8523 34.2472 24.6645 33.7855C24.6019 33.6368 23.6551 27.8932 23.4125 26.1952C23.2717 25.1623 23.6003 24.0824 24.2811 23.339C24.4689 23.1356 25.6975 22.1261 27.0121 21.1011L29.3987 19.2309L32.2783 19.223L35.1502 19.2152V19.4813Z" fill="#9696A0"/>
<path d="M33.696 11.0695C33.0309 11.4764 33.3048 12.4858 34.0795 12.4858C34.9168 12.4858 35.1359 11.2808 34.3533 11.0069C34.0247 10.8895 33.9777 10.8973 33.696 11.0695Z" fill="#9696A0"/>
</svg>
