<svg class="infra-svg" width="41" height="48" viewBox="0 0 41 48" fill="none" xmlns="http://www.w3.org/2000/svg">
<path d="M28.1862 8.11023C27.9476 8.19548 24.6656 9.72138 20.9062 11.503C14.8964 14.3502 14.0098 14.7935 13.6092 15.1601C12.5436 16.1319 12.1344 17.6152 12.5606 18.9706C12.6544 19.2689 13.1488 20.2663 13.6688 21.1784C14.1803 22.0906 14.5724 22.8578 14.5384 22.8919C14.5043 22.926 11.8616 24.4945 8.6649 26.3785L2.84259 29.7968L2.34816 29.7372C1.69177 29.669 1.30816 29.8224 1.10357 30.2486C0.916031 30.6408 0.984227 30.9647 1.29964 31.2716C1.51275 31.4762 1.64915 31.5188 2.29702 31.5785C3.23472 31.6722 3.77177 31.8513 4.76063 32.4224C6.15866 33.2237 6.9344 33.4113 8.62227 33.3516C9.93506 33.3004 10.6767 33.0788 11.8361 32.3883C12.9613 31.7149 13.6092 31.5444 14.8452 31.604C15.9961 31.6467 16.2688 31.7319 17.4452 32.3968C17.897 32.6611 18.5705 32.9765 18.937 33.0958C19.5423 33.3004 19.7128 33.3175 21 33.326C22.3213 33.326 22.4492 33.309 23.0885 33.0873C23.4636 32.9509 24.1456 32.6355 24.5974 32.3713C25.7397 31.7319 26.2597 31.5785 27.3679 31.5785C28.4505 31.5785 29.1325 31.7831 30.2066 32.4224C30.6072 32.6526 31.2381 32.9595 31.6131 33.0873C32.2525 33.309 32.3803 33.326 33.7017 33.326C34.9463 33.326 35.1764 33.3004 35.6964 33.1299C36.3613 32.9083 36.7535 32.7208 37.4695 32.2945C38.1515 31.8768 38.825 31.6637 39.703 31.5785C40.3509 31.5188 40.4872 31.4762 40.7004 31.2716C41.0158 30.9647 41.084 30.6408 40.8964 30.2486C40.6663 29.7713 40.3253 29.6604 39.3705 29.7713C38.3817 29.8821 37.4781 30.189 36.5233 30.7345C35.4236 31.3568 34.9804 31.5017 34.0341 31.5529C33.0026 31.6126 32.1587 31.4421 31.4426 31.0244C30.5305 30.4873 29.5672 30.0526 29.0131 29.9247C28.7148 29.8565 28.4505 29.7627 28.4164 29.7286C28.3056 29.6093 21.0682 19.0047 21.0341 18.9194C21.017 18.8683 23.2761 17.6919 26.0636 16.3024C30.7181 13.9752 31.1528 13.7365 31.4853 13.3614C32.4912 12.2276 32.6105 10.5909 31.7751 9.35482C31.4171 8.83482 31.0676 8.54498 30.4112 8.24662C29.7803 7.96531 28.8171 7.90564 28.1862 8.11023ZM29.9253 10.0368C30.2492 10.2499 30.5476 10.7955 30.5476 11.1706C30.539 11.5627 30.2492 12.1253 29.9338 12.3129C29.7803 12.4066 27.4702 13.5745 24.7934 14.9214C21.0341 16.8053 19.8662 17.4276 19.619 17.6834C19.1587 18.1607 19.0138 18.8427 19.2439 19.4735C19.3036 19.6355 20.8892 22.0139 22.7731 24.7503C24.6571 27.4867 26.1744 29.7542 26.1489 29.7968C26.1233 29.8394 26.021 29.8735 25.9187 29.8735C25.5692 29.8821 24.5718 30.2827 23.7023 30.7857C22.6964 31.3568 21.9974 31.5699 21.0597 31.5699C20.1561 31.5785 19.3718 31.3824 18.6557 30.9817C16.8826 29.9673 16.1751 29.7542 14.6065 29.7542C13.3364 29.7542 12.5351 29.9503 11.5377 30.4873C10.1993 31.2204 9.78162 31.3994 9.22752 31.5017C8.44326 31.6381 7.27539 31.5614 6.63604 31.3227C6.11604 31.1267 5.22948 30.6408 5.22948 30.5555C5.22948 30.5214 7.57375 29.1234 10.4465 27.4355C13.3108 25.7562 15.7829 24.2473 15.9449 24.0939C16.337 23.7103 16.5331 23.0112 16.3967 22.4827C16.3456 22.2696 15.8767 21.3404 15.3482 20.4198C14.8282 19.4991 14.3508 18.5955 14.2826 18.408C14.078 17.8198 14.3082 16.9673 14.7941 16.5155C14.939 16.3706 27.598 10.3011 28.7574 9.81515C28.9876 9.71286 29.6354 9.84072 29.9253 10.0368Z" fill="#9696A0"/>
<path d="M32.6795 15.8078C31.29 16.0038 30.0113 16.6602 28.9713 17.7173C28.1956 18.5101 27.8034 19.1153 27.4625 20.0786C26.6611 22.3547 27.1726 24.8609 28.8008 26.617C30.1051 28.0235 31.6821 28.714 33.5746 28.7055C34.6316 28.7055 35.3733 28.552 36.2087 28.177C39.3202 26.7704 40.812 23.2838 39.6782 20.0701C38.8087 17.6235 36.5753 15.9442 33.9497 15.7822C33.5575 15.7566 32.9864 15.7737 32.6795 15.8078ZM34.7595 17.7343C36.3366 18.1435 37.6835 19.4819 38.0926 21.0504C38.2546 21.6983 38.2546 22.7894 38.0926 23.4373C37.6835 24.9888 36.4133 26.276 34.8192 26.7534C34.231 26.9238 33.0461 26.9324 32.3811 26.7619C30.8211 26.3527 29.4657 24.9973 29.0566 23.4373C28.7838 22.3632 28.9372 21.0248 29.4657 20.0274C29.8067 19.3881 30.6933 18.493 31.3156 18.152C32.3215 17.615 33.6684 17.453 34.7595 17.7343Z" fill="#9696A0"/>
<path d="M1.36637 35.4998C1.05096 35.7555 0.923093 36.1818 1.07654 36.5398C1.25555 36.966 1.409 37.0513 2.18473 37.128C3.06277 37.2132 3.86408 37.4604 4.40113 37.8014C5.58605 38.5516 6.60048 38.9011 7.82802 38.9693C9.33688 39.0545 10.5133 38.7647 11.8175 37.9975C12.9769 37.307 13.4287 37.1706 14.6051 37.1706C15.773 37.1621 16.148 37.2644 17.35 37.9463C18.3474 38.509 18.8759 38.7136 19.7028 38.8755C21.3992 39.1995 23.0189 38.8926 24.6556 37.9378C25.491 37.4519 26.2156 37.2132 27.034 37.1536C28.0569 37.0768 28.7645 37.2644 30.1284 37.9634C31.6884 38.7647 32.3363 38.9437 33.7002 38.9437C35.1835 38.9522 36.1127 38.688 37.451 37.8867C38.1756 37.4519 38.9087 37.2218 39.7953 37.128C40.5881 37.0513 40.7415 36.966 40.9205 36.5398C41.074 36.1818 40.9461 35.7555 40.6307 35.4998C40.4602 35.3634 40.2812 35.3293 39.8038 35.3293C38.815 35.3293 37.8943 35.6021 36.6412 36.2585C35.3028 36.9745 34.7402 37.145 33.7854 37.1536C32.6432 37.1621 32.2851 37.0427 30.4438 36.0795C29.3697 35.5168 28.7133 35.3719 27.2641 35.3719C26.1474 35.3804 26.0195 35.3975 25.2608 35.6532C24.8176 35.8067 24.1271 36.1306 23.7179 36.3608C21.6976 37.5286 20.0779 37.469 17.9126 36.1562C17.6398 35.9942 17.0857 35.7555 16.6766 35.6191C15.9775 35.389 15.8326 35.3719 14.6051 35.3719C13.4031 35.3804 13.2241 35.3975 12.6018 35.6106C12.2267 35.7299 11.5362 36.0539 11.0674 36.3181C9.87393 37.0086 9.40508 37.145 8.25425 37.145C7.18015 37.145 6.54933 36.9745 5.72245 36.4716C4.45228 35.6959 3.31851 35.3293 2.19326 35.3293C1.71588 35.3293 1.53686 35.3634 1.36637 35.4998Z" fill="#9696A0"/>
</svg>
