<svg class="infra-svg" width="41" height="41" viewBox="0 0 41 41" fill="none" xmlns="http://www.w3.org/2000/svg">
<path d="M25.5272 0.838451C23.6747 1.06106 22.2675 1.51424 20.0732 2.6114L18.3877 3.4621L18.0379 3.31104C16.4398 2.63525 14.5556 2.66705 13.037 3.41439C11.4628 4.17764 10.3021 5.58487 9.81711 7.31012C9.6263 8.00181 9.61834 9.5283 9.80916 10.2359L9.94431 10.7368L9.71375 11.0707C9.01411 12.0963 8.38602 13.7182 8.14751 15.1016C7.8613 16.8109 8.20316 19.848 8.95846 22.3762C9.80121 25.1986 9.82506 26.1765 9.10952 27.8461L8.8233 28.514L5.82598 31.2887C0.769492 35.9715 1.00801 35.7012 1.00005 36.7268C1.00005 37.5775 1.19882 37.8876 2.6299 39.3107C3.97352 40.6305 4.27564 40.8133 5.09454 40.8213C6.03269 40.8213 5.98499 40.861 9.80916 36.7506C13.4902 32.7834 13.3948 32.8708 14.5953 32.4574C14.9769 32.3222 15.4063 32.2507 15.9469 32.2189C16.8851 32.1632 17.4734 32.2666 19.0873 32.7516C21.2976 33.4194 23.3408 33.7454 25.2887 33.7374C26.529 33.7374 26.7675 33.7136 27.4353 33.5307C29.7489 32.9026 31.5854 31.7737 33.6764 29.6906C35.0041 28.3709 35.9025 27.2737 37.0156 25.5962C38.0412 24.0538 38.6613 22.9725 39.4484 21.3506C40.1481 19.8957 40.5536 18.7826 40.808 17.6139C41.0385 16.5247 41.0624 14.5132 40.8398 13.5115C40.3071 11.0707 39.0032 8.88431 36.5306 6.28451C33.6526 3.26334 30.8779 1.49834 28.1986 0.98951C27.5625 0.870251 26.0201 0.782795 25.5272 0.838451ZM27.7215 2.26158C30.21 2.69886 32.3646 4.02658 35.187 6.86489C37.5562 9.24208 38.884 11.2694 39.4484 13.4002C39.687 14.2986 39.7426 16.0795 39.5597 17.0494C39.1702 19.1483 37.8345 21.9787 35.8548 24.9204C33.4061 28.5537 30.6552 31.0025 27.9362 31.9804C27.3399 32.195 26.2348 32.4335 25.8134 32.4335C25.5908 32.4335 24.7719 31.6465 17.4654 24.332L9.36393 16.2305L9.41958 15.6819C9.51499 14.712 10.0079 13.1696 10.4531 12.4541L10.636 12.1599L11.0256 12.621C11.7729 13.5115 12.727 14.1634 13.8003 14.5212C14.3727 14.7199 14.5476 14.7358 15.6289 14.7438C16.6704 14.7438 16.893 14.7199 17.378 14.5609C19.0555 13.9965 20.3515 12.8834 21.0431 11.3887C21.4248 10.5857 21.5599 10.0212 21.6076 9.05922C21.6871 7.44528 21.1624 5.99034 20.0573 4.76597L19.6439 4.30485L20.9318 3.66881C22.6332 2.83401 24.0564 2.34108 25.2489 2.19798C25.8611 2.11847 27.0855 2.15027 27.7215 2.26158ZM16.5829 4.2492C18.2843 4.60696 19.7313 5.99034 20.1606 7.66789C20.3117 8.27212 20.3117 9.36929 20.1606 9.95762C19.7313 11.6113 18.3559 12.9629 16.7022 13.3604C16.09 13.5115 15.0088 13.4876 14.4363 13.3207C11.9399 12.5892 10.5088 10.1325 11.1369 7.67584C11.3595 6.80129 11.7252 6.16525 12.3692 5.52127C13.4982 4.38435 15.0326 3.92323 16.5829 4.2492ZM11.9955 20.7702L14.484 23.2587L13.0291 24.6103C12.2261 25.3576 11.431 26.097 11.2482 26.256L10.9222 26.5502V25.5723C10.9222 24.4433 10.8268 23.8868 10.4611 22.734C10.0079 21.3347 9.7376 20.1501 9.52294 18.5759C9.49909 18.4169 9.48319 18.2817 9.49114 18.2817C9.49909 18.2817 10.6281 19.4028 11.9955 20.7702ZM16.5352 25.3099L17.6085 26.3833L17.0759 26.9636C14.3171 30.0166 5.49206 39.4061 5.3251 39.4617C4.91963 39.6049 4.68906 39.4538 3.48855 38.2453C2.35163 37.1164 2.31188 37.0687 2.31188 36.7506C2.31188 36.4883 2.35958 36.369 2.57424 36.1544C2.7094 36.0033 5.03093 33.8487 7.71819 31.3602C10.4054 28.8638 13.2278 26.2481 13.9911 25.5326C14.7623 24.825 15.4063 24.2446 15.4301 24.2446C15.454 24.2446 15.9549 24.7216 16.5352 25.3099ZM23.3011 32.2586C22.8797 32.3302 20.6695 31.8611 19.2225 31.4C17.9186 30.9866 17.3939 30.8991 16.257 30.8912L15.287 30.8832L15.5335 30.6049C15.6686 30.4539 16.4001 29.6509 17.1713 28.832L18.5626 27.3373L21.0113 29.786C22.9354 31.7101 23.4283 32.2427 23.3011 32.2586Z" fill="#9696A0"/>
</svg>
