<svg class="infra-svg" width="41" height="40" viewBox="0 0 41 40" fill="none" xmlns="http://www.w3.org/2000/svg">
<path d="M12.0081 0.11557C10.3674 0.342136 8.05489 1.10778 7.47675 1.62342C7.28143 1.78749 7.29705 2.225 7.49237 2.42032C7.71894 2.64688 7.96895 2.61563 8.75022 2.26406C9.13304 2.09218 9.46117 1.95155 9.48461 1.95155C9.50805 1.95155 9.16429 2.31094 8.71897 2.74845C7.2033 4.27974 5.8517 6.33448 5.14856 8.21734C5.05481 8.46735 4.95324 8.67048 4.91418 8.67048C4.83605 8.67048 3.77352 7.44389 3.57039 7.11575C3.42976 6.90481 3.42976 6.897 3.78134 6.39698C4.32823 5.62353 5.16418 4.69381 5.81264 4.14693C6.14859 3.85786 6.42203 3.55316 6.45328 3.44378C6.51578 3.18596 6.32828 2.87346 6.06265 2.7797C5.74232 2.66251 5.41419 2.87346 4.45323 3.8266C2.41411 5.83447 1.16408 8.20953 0.648441 11.0534C0.539063 11.6393 0.507812 12.2174 0.507812 13.3581C0.507812 14.7019 0.539063 14.9988 0.718756 15.866C1.84379 21.2021 5.88295 25.2569 11.1409 26.3194C11.5706 26.4131 12.0472 26.4834 12.1878 26.4834C12.6331 26.4834 12.3519 26.6006 10.8128 27.0694C10.0002 27.3116 9.19554 27.585 9.03929 27.6632C8.58615 27.8975 8.21895 28.2569 7.79707 28.8819C6.8361 30.296 5.53919 31.6476 4.98449 31.7961C4.35166 31.968 3.71883 31.7648 3.61727 31.3508C3.52352 30.9836 3.67977 30.7648 4.32823 30.3117C5.46107 29.5382 7.71113 27.1632 7.85176 26.5928C7.95332 26.1788 7.5705 25.7803 7.16424 25.8819C7.04705 25.9131 6.7736 26.1944 6.47672 26.5772C5.76576 27.4913 4.4376 28.8038 3.68758 29.3273C3.33601 29.5695 2.94538 29.8898 2.81256 30.0382C2.1016 30.8507 2.38286 32.2414 3.35945 32.7336C3.52352 32.8196 3.66415 32.8977 3.66415 32.9133C3.66415 32.9211 3.57821 33.1008 3.46883 33.3118C3.0235 34.1868 3.32039 35.2259 4.15635 35.7024C4.3751 35.8274 4.6173 35.9368 4.6798 35.9368C4.7423 35.9368 4.84386 35.9681 4.90637 36.0071C4.99231 36.0618 4.91418 36.2025 4.56261 36.6478C4.3126 36.9681 4.04697 37.3665 3.96884 37.5384C3.53914 38.4681 4.08603 39.64 5.07824 39.9213C5.24231 39.9682 7.42987 39.9994 10.6565 39.9994C17.1332 39.9994 16.6567 40.0619 18.4302 38.8822C20.5708 37.4447 22.0162 36.14 22.8287 34.8977C23.2584 34.2571 24.1334 32.5852 24.2506 32.2102C24.3131 31.9914 24.2428 32.007 26.4772 31.7648C32.8446 31.0773 39.8213 30.3039 39.9776 30.2648C40.2276 30.2101 40.462 29.9523 40.462 29.7335C40.462 29.4366 40.1729 29.1398 39.8917 29.1398C39.4307 29.132 23.86 30.8664 23.6803 30.9445C23.5709 30.9836 23.4381 31.1633 23.3443 31.3898C22.9615 32.2727 22.2428 33.6789 21.8834 34.218C21.1099 35.3821 20.0239 36.3743 18.0317 37.7337C16.6879 38.6478 16.3832 38.7728 15.391 38.8119L14.5863 38.8431L14.9848 38.3275C15.2738 37.9369 15.3832 37.7337 15.3832 37.5462C15.3832 37.2181 15.1801 37.0306 14.8129 37.0306C14.5394 37.0306 14.4847 37.0775 13.8128 37.9291L13.1019 38.8275H12.2425H11.3831L11.7737 38.3353C12.7972 37.0384 13.3753 36.2728 13.4457 36.1165C13.6253 35.7337 13.1488 35.2181 12.7269 35.3509C12.6409 35.3821 11.9691 36.1712 11.2347 37.1165L9.9065 38.8275H8.89085H7.86738L8.25802 38.3353C10.1565 35.929 11.3987 34.2571 11.3987 34.0852C11.3987 33.843 11.0706 33.5149 10.8206 33.5149C10.7112 33.5149 10.5393 33.593 10.4299 33.6868C10.3206 33.7883 9.37523 34.9759 8.32833 36.3275L6.42984 38.7885L5.92202 38.8119C5.50013 38.8275 5.37513 38.8041 5.20325 38.6713C4.75011 38.3119 4.69542 38.3978 8.46115 33.5149C10.3753 31.0461 12.1878 28.7569 12.5081 28.4366C13.4457 27.4678 13.3597 27.4991 22.4146 24.7256C26.821 23.3818 30.4852 22.2568 30.5633 22.2255C30.8758 22.1005 30.9539 21.5224 30.6961 21.288C30.6102 21.2099 30.4383 21.1474 30.3211 21.1474C30.2039 21.1474 28.4226 21.663 26.3601 22.2958C24.2975 22.9287 22.5396 23.4677 22.4537 23.4912C22.3678 23.5146 22.6881 23.1318 23.1647 22.6474C23.6334 22.1552 24.11 21.6474 24.2194 21.5068C24.5944 21.0146 30.032 18.1239 32.1024 17.3191C33.4931 16.7723 35.0634 16.3894 36.6728 16.2097C36.9306 16.1785 37.8213 16.1316 38.6494 16.1004C40.1182 16.0535 40.1729 16.0457 40.3135 15.866C40.5089 15.6238 40.501 15.3816 40.2901 15.116L40.1182 14.8972L38.4776 14.9441C34.7431 15.0535 32.6962 15.6003 28.9461 17.4754C28.2117 17.8426 27.2038 18.366 26.7038 18.6395C26.2038 18.9129 25.7741 19.1395 25.7507 19.1395C25.7272 19.1395 25.8054 18.9207 25.9304 18.6473C26.2194 17.9988 26.6726 16.5301 26.8444 15.6628C27.0632 14.5613 27.0398 11.8034 26.8054 10.7018C25.9225 6.63918 23.4381 3.35003 19.8364 1.4906C17.4145 0.240574 14.6488 -0.243816 12.0081 0.11557ZM16.1176 1.41248C16.5551 1.49842 17.2036 1.6703 17.5708 1.7953C18.2973 2.03749 19.6489 2.63126 19.5942 2.69376C19.5708 2.70939 19.2817 2.7797 18.938 2.85002C15.1332 3.6391 11.1018 6.72512 8.9846 10.4674C8.75022 10.8737 8.54709 11.2252 8.53927 11.2409C8.46115 11.3346 5.92983 9.67051 5.92983 9.51425C5.92983 9.46737 6.05483 9.10799 6.21109 8.71736C7.65644 5.09226 10.2503 2.27969 13.0003 1.34998C13.4925 1.18591 13.641 1.17028 14.4379 1.20935C14.9301 1.23278 15.6879 1.31873 16.1176 1.41248ZM21.3365 3.89692C21.7584 4.06099 23.6647 6.08448 23.6647 6.36573C23.6647 6.42042 23.4928 6.48293 23.2584 6.50636C22.2193 6.63137 20.7896 7.10794 19.3286 7.80327C17.0707 8.88924 14.9535 10.5768 13.7972 12.2018C13.4925 12.6315 13.4613 12.655 13.1488 12.655C12.6097 12.655 11.5784 12.4284 10.555 12.0924L9.6018 11.7721L9.88306 11.2565C10.5862 9.9752 11.4534 8.85799 12.6956 7.65483C15.1566 5.27195 18.0395 3.88129 20.5943 3.83442C20.899 3.83442 21.2349 3.85786 21.3365 3.89692ZM24.7584 8.21734C25.1178 8.99861 25.485 10.1158 25.6725 11.0143C25.7819 11.5299 25.8132 12.0456 25.8132 13.28C25.8132 14.1628 25.7819 14.9831 25.7428 15.116C25.6882 15.3269 25.6569 15.2722 25.5007 14.5691C25.0397 12.5612 23.985 10.3658 22.6568 8.63142C22.1959 8.02984 22.1178 7.88921 22.2428 7.88921C22.274 7.88921 22.6178 7.8189 23.0006 7.74077C23.3912 7.65483 23.8756 7.58451 24.0787 7.58451L24.4538 7.5767L24.7584 8.21734ZM3.78134 9.20956C5.27356 10.8033 7.94551 12.4675 10.2581 13.2331C11.1565 13.53 12.5394 13.8269 13.0316 13.8269C13.1956 13.8269 13.3675 13.8737 13.4144 13.9206C13.6878 14.2722 14.2738 16.1551 14.4301 17.2176L14.5004 17.6785L13.2035 17.6317C11.7972 17.5848 10.9925 17.4676 9.60961 17.1004C8.20333 16.7254 6.78141 16.1238 5.57826 15.3894C4.89074 14.9675 4.59386 14.9753 4.40635 15.4128C4.19541 15.9207 4.55479 16.2488 6.22671 17.0691C8.53146 18.2098 11.1409 18.827 13.6019 18.827H14.6254L14.5785 20.2098C14.5238 21.7724 14.5004 21.9365 14.2582 21.9911C13.0785 22.2724 10.5628 22.3505 9.13304 22.1474C6.94548 21.8349 5.03137 21.038 3.83602 19.952C3.38289 19.538 3.23445 19.3348 2.8985 18.6551C2.21098 17.2723 1.78128 15.7175 1.66409 14.1784L1.6094 13.4753L2.17192 14.0769C2.66412 14.6003 2.78131 14.6863 3.00007 14.6863C3.18757 14.6863 3.30476 14.6316 3.42195 14.4831C3.67977 14.1628 3.63289 13.9441 3.21101 13.4909C2.66412 12.905 2.39067 12.53 2.06254 11.9206L1.76566 11.3893L1.90629 10.7487C2.06254 10.0143 2.43755 8.84236 2.66412 8.40485L2.82037 8.09234L3.10944 8.44391C3.25788 8.63142 3.56258 8.97517 3.78134 9.20956ZM21.7584 9.38925C23.5944 11.8268 24.6256 14.6238 24.6178 17.1473C24.6178 18.4989 24.4381 19.1083 23.7662 20.1161C23.1178 21.0849 21.6256 22.6005 20.7037 23.2255C20.3365 23.4677 20.0318 23.6552 20.0239 23.6474C20.0083 23.6318 20.0865 23.3662 20.1958 23.0537C20.7193 21.5536 20.938 19.6473 20.7896 17.8192C20.688 16.5301 20.6177 16.3035 20.2974 16.1707C20.0239 16.0535 19.7896 16.1238 19.6333 16.3738C19.5161 16.5379 19.5161 16.6785 19.6021 17.6317C19.7583 19.3583 19.6099 21.0224 19.1646 22.4365C18.9458 23.1396 18.352 24.3584 18.1333 24.5537C17.9301 24.7334 16.7739 25.0693 15.7504 25.2412C15.2348 25.3272 14.8051 25.3819 14.7816 25.3662C14.766 25.3428 14.8519 25.0303 14.9769 24.6709C15.2738 23.8271 15.5863 22.4365 15.6879 21.4677C15.7973 20.4989 15.7973 18.7957 15.6879 17.827C15.5395 16.4285 15.0394 14.53 14.5863 13.6394L14.4301 13.3425L14.7347 12.8972C15.0551 12.4284 16.3051 11.1315 16.8442 10.7174L17.1645 10.4674L17.4536 10.9362C17.8911 11.6549 18.5395 13.0768 18.8286 13.9362C19.1099 14.8035 19.2583 14.9988 19.6021 14.9988C19.9146 14.9988 20.149 14.7566 20.149 14.4206C20.149 13.8659 19.2583 11.6784 18.5552 10.5065L18.1411 9.80332L18.3833 9.63926C18.813 9.35019 19.688 8.88142 20.2974 8.6236C21.0005 8.31891 20.9068 8.26422 21.7584 9.38925ZM8.15645 23.1709C9.39086 23.4365 12.0628 23.5146 13.3519 23.3271C13.7972 23.2646 14.18 23.2255 14.1957 23.2334C14.2269 23.2724 13.7738 24.6006 13.5863 25.0147C13.43 25.3819 13.4144 25.3897 13.0785 25.3897C12.0706 25.3897 10.2112 24.96 9.03929 24.4521C8.0002 24.0068 6.73454 23.2412 6.05483 22.6474C6.01577 22.6162 6.26578 22.6708 6.60172 22.7802C6.94548 22.8818 7.64081 23.0615 8.15645 23.1709ZM11.0315 28.296C10.9846 28.3507 9.9065 29.7492 8.62521 31.4055C7.35174 33.0617 6.2189 34.4993 6.11733 34.6087C5.96889 34.7571 5.83608 34.804 5.43763 34.8274C4.99231 34.8587 4.92199 34.8352 4.69542 34.6477C4.5001 34.4837 4.44542 34.3821 4.44542 34.1477C4.44542 33.8118 4.53917 33.7102 5.30481 33.1946C6.28921 32.5383 7.85176 30.8898 8.73459 29.5773C9.21898 28.8663 9.4143 28.7179 10.2893 28.4366C11.0862 28.1788 11.1331 28.171 11.0315 28.296Z" fill="#9696A0"/>
<path d="M36.1337 19.2954C34.2039 19.8892 32.532 20.4205 32.4148 20.4674C32.1023 20.5924 31.9617 20.9674 32.1101 21.2408C32.3211 21.6158 32.5398 21.6236 33.6414 21.2877C38.5556 19.8111 40.1963 19.2876 40.3291 19.1314C40.6181 18.772 40.3447 18.1939 39.8916 18.2095C39.7509 18.2095 38.0634 18.7017 36.1337 19.2954Z" fill="#9696A0"/>
</svg>
