<svg class="infra-svg" width="41" height="40" viewBox="0 0 41 40" fill="none" xmlns="http://www.w3.org/2000/svg">
<path d="M40.9985 9.43554C40.561 11.7177 39.2892 13.6593 38.4059 15.7591C38.2882 16.0393 38.2799 16.231 38.4559 16.4956C41.5328 21.1276 40.0662 27.446 35.2707 30.25C35.0978 30.351 34.8874 30.4417 34.6936 30.4437C33.2614 30.4604 31.8302 30.4562 30.398 30.45C29.9751 30.4479 29.7074 30.1854 29.7168 29.8136C29.7252 29.4594 29.9856 29.2219 30.3897 29.2042C30.4803 29.2001 30.572 29.2032 30.6626 29.2032C31.8729 29.2032 33.0843 29.2094 34.2947 29.1969C34.478 29.1948 34.6853 29.1469 34.8394 29.0522C37.783 27.2293 39.3059 23.6775 38.6413 20.2151C37.9934 16.8372 35.2665 14.1197 31.8969 13.4916C27.9242 12.752 24.1369 14.7363 22.4953 18.4173C22.4849 18.4413 22.4776 18.4663 22.4672 18.4902C22.2485 18.9746 21.9308 19.1527 21.5704 18.9944C21.1975 18.8308 21.0871 18.4746 21.3204 18.0038C21.5964 17.4455 21.8964 16.8976 22.2214 16.3664C22.3526 16.1518 22.3756 15.9998 22.2672 15.7696C21.6006 14.3592 20.935 12.9478 20.3007 11.5229C18.5143 7.51274 20.7611 3.06924 25.0462 2.14012C25.4993 2.04221 25.9754 2.01096 26.4399 2.00888C29.0304 1.99638 31.6209 1.9995 34.2114 2.00367C37.656 2.00888 40.4006 4.36812 40.9297 7.76897C40.9433 7.85751 40.9766 7.94292 41.0006 8.02937C40.9985 8.49706 40.9985 8.96682 40.9985 9.43554ZM35.079 13.302C35.605 12.1656 36.1175 11.0709 36.6196 9.97301C37.5289 7.9825 36.2956 6.07011 34.103 6.05969C33.8562 6.05865 33.6031 6.07323 33.3656 6.02428C33.0312 5.95449 32.851 5.71075 32.8854 5.36702C32.9177 5.04725 33.1135 4.82851 33.4458 4.82226C33.9395 4.81289 34.4436 4.78164 34.9249 4.86601C37.4976 5.31807 38.8871 7.96063 37.8205 10.347C37.2747 11.5677 36.7029 12.776 36.1394 13.9967C36.5508 14.3551 36.9456 14.7009 37.3653 15.0665C38.0434 13.5853 38.7267 12.1541 39.3569 10.7001C39.786 9.70845 39.86 8.65955 39.6277 7.60023C39.0621 5.02121 36.9425 3.27756 34.2957 3.25568C31.6532 3.23381 29.0106 3.24943 26.3691 3.25256C26.1222 3.25256 25.8722 3.25881 25.6295 3.29943C21.8881 3.91815 19.9038 7.65023 21.4787 11.1052C22.0287 12.3114 22.5922 13.5114 23.1516 14.7134C23.1932 14.804 23.2463 14.8894 23.2984 14.9852C23.7067 14.6311 24.0973 14.2915 24.5025 13.9415C24.4452 13.8103 24.39 13.6801 24.3317 13.553C23.8286 12.4677 23.3078 11.3917 22.8266 10.297C21.7652 7.88251 23.3443 5.02538 25.9212 4.85559C27.8263 4.7306 29.746 4.81705 31.6594 4.82018C32.0084 4.82122 32.2177 5.03475 32.2479 5.37848C32.2792 5.72534 32.0927 5.94928 31.7615 6.03261C31.625 6.06698 31.4782 6.06178 31.3355 6.06178C29.6429 6.06594 27.9502 6.04199 26.2597 6.07636C24.6598 6.10865 23.4807 7.63565 23.7942 9.20327C23.8099 9.2793 23.813 9.36159 23.8432 9.43138C24.414 10.7084 24.9879 11.9844 25.5671 13.2718C28.7585 11.6615 31.9032 11.6719 35.079 13.302Z" fill="#9696A0"/>
<path d="M1 22.4835C1.1302 21.8221 1.21874 21.1492 1.39894 20.5024C2.15723 17.7765 3.66131 15.5818 6.09763 14.0798C7.6965 13.0934 9.3714 12.9632 11.0932 13.7205C12.2587 14.2329 13.4233 14.7537 14.5617 15.3245C16.3408 16.2162 17.3095 17.6942 17.5407 19.6608C17.5866 20.0462 17.3407 20.3461 16.9897 20.3805C16.6252 20.4159 16.3523 20.1961 16.3064 19.793C16.196 18.8014 15.819 17.94 15.1169 17.2244C14.0888 16.1766 12.8639 15.9995 11.5213 16.4359C10.1068 16.8953 9.0433 17.84 8.1496 18.99C7.26007 20.1336 6.64552 21.4169 6.2997 22.8262C6.2747 22.9272 6.25283 23.0293 6.22471 23.1293C6.11013 23.5293 5.78723 23.7376 5.43725 23.6407C5.09977 23.548 4.91541 23.2262 5.00811 22.8366C5.3633 21.3305 5.92681 19.9097 6.82467 18.6389C7.88815 17.1338 9.28495 16.0401 10.9942 15.3475C11.0765 15.3141 11.1567 15.2745 11.2463 15.235C9.90054 14.2725 8.09752 14.2892 6.74655 15.1402C4.75396 16.3953 3.46132 18.1785 2.72074 20.3868C2.22597 21.8606 2.11244 23.373 2.4218 24.8928C2.74886 26.501 3.79255 27.4832 5.25914 28.0009C5.10289 27.2208 4.94145 26.4385 4.79354 25.6542C4.76021 25.4771 4.75708 25.2896 4.76854 25.1094C4.7925 24.7334 5.04456 24.4949 5.3935 24.4959C5.74244 24.4969 5.96014 24.7334 6.01326 25.1146C6.10492 25.7687 6.1445 26.4448 6.33928 27.0687C7.05174 29.3467 9.06101 30.2425 11.2609 29.3206C11.4109 29.2581 11.5911 29.2061 11.7463 29.2279C12.0275 29.2665 12.2129 29.454 12.2494 29.7477C12.29 30.0758 12.1348 30.3018 11.839 30.4268C10.4786 31.0028 9.10059 31.1507 7.71525 30.5279C6.43511 29.9518 5.15602 29.3727 3.89463 28.7582C2.2541 27.9582 1.50206 26.5187 1.15624 24.8094C1.09999 24.5313 1.05312 24.2511 1.00104 23.9709C1 23.473 1 22.9783 1 22.4835Z" fill="#9696A0"/>
<path d="M29.3821 27.3493C29.129 31.0824 27.7145 34.1604 24.5793 36.2769C22.8242 37.4623 20.9472 37.7435 18.9744 36.7332C18.038 36.254 17.0797 35.8113 16.1079 35.4114C14.1799 34.6187 13.233 33.1032 12.8768 31.1397C12.606 29.6502 12.7549 28.1836 13.1903 26.7441C13.2768 26.4587 13.2476 26.315 12.9633 26.1702C12.1529 25.7567 11.3769 25.2755 10.5603 24.8765C9.81136 24.5109 9.51763 23.9412 9.59367 23.1412C9.67804 22.2496 10.0676 21.5246 10.8051 21.0111C11.2904 20.6726 11.7956 20.6184 12.3393 20.9309C13.2289 21.4423 14.1445 21.9111 15.0361 22.4204C15.2975 22.5704 15.4413 22.5517 15.6485 22.3225C16.7506 21.0997 18.0494 20.1778 19.6827 19.7987C20.7451 19.5518 21.7711 19.6424 22.7638 20.108C23.846 20.6153 24.9188 21.1465 26.0209 21.6069C27.8687 22.3788 28.803 23.8339 29.1853 25.7129C29.2957 26.2598 29.3207 26.8233 29.3821 27.3493ZM17.7276 31.3085C17.7765 31.8251 17.8005 32.2803 17.864 32.7303C18.2765 35.6561 21.0555 37.0206 23.6345 35.4197C25.823 34.0614 27.1416 32.0626 27.7937 29.6044C28.2197 28.0003 28.2937 26.3921 27.6333 24.8234C27.0114 23.3454 25.7115 22.5173 24.272 22.6569C23.4564 22.736 22.695 22.9871 22.0159 23.4516C19.2327 25.3546 17.9265 28.0576 17.7276 31.3085ZM22.971 21.6017C22.3055 21.2726 21.6826 20.9403 20.9462 20.9143C19.6816 20.8705 18.5932 21.3476 17.6536 22.1288C15.1829 24.1818 13.9601 26.8431 13.9882 30.0523C13.9976 31.1751 14.3059 32.2355 15.0204 33.1427C15.5444 33.8094 16.2683 34.1458 17.0755 34.4489C15.2517 30.0294 18.0307 23.2631 22.971 21.6017ZM14.6028 23.6047C13.7674 23.1475 12.9383 22.6923 12.1081 22.2392C11.5425 21.9309 11.3113 21.9986 11.0342 22.5933C10.9373 22.8006 10.8915 23.035 10.8446 23.261C10.7967 23.4912 10.8936 23.6391 11.1134 23.7547C11.93 24.1828 12.7341 24.6338 13.5445 25.0734C13.608 25.1078 13.682 25.1223 13.7466 25.1453C14.0351 24.6265 14.3111 24.1297 14.6028 23.6047Z" fill="#9696A0"/>
<path d="M30.3165 17.2808C32.706 17.3224 34.7194 19.2004 34.8288 21.5139C34.9496 24.0564 33.1882 26.1355 30.7092 26.3761C30.6321 26.3834 30.553 26.3865 30.4749 26.3865C30.0613 26.3865 29.7687 26.1344 29.7624 25.773C29.7562 25.4293 30.0218 25.1866 30.4165 25.1355C30.7498 25.0918 31.0915 25.0512 31.4061 24.9418C32.8226 24.4502 33.6726 23.1096 33.5778 21.5597C33.4914 20.1546 32.4164 18.9453 30.9686 18.6234C29.5697 18.313 28.1 18.9952 27.4042 20.2775C27.3542 20.3691 27.3146 20.465 27.2615 20.5545C27.0678 20.8826 26.7438 20.992 26.4334 20.8368C26.1261 20.6837 25.997 20.3493 26.1511 20.0098C26.7772 18.6265 27.8427 17.7641 29.3135 17.412C29.6405 17.336 29.9822 17.3235 30.3165 17.2808Z" fill="#9696A0"/>
</svg>
