<svg class="infra-svg" width="41" height="48" viewBox="0 0 41 48" fill="none" xmlns="http://www.w3.org/2000/svg">
<path d="M20.4405 1.23559C20.2681 1.45333 20.25 1.59849 20.25 2.82329C20.25 3.63075 20.2954 4.25676 20.3498 4.39285C20.5857 4.89184 21.3659 4.89184 21.6018 4.39285C21.6562 4.25676 21.7016 3.63075 21.7016 2.82329C21.7016 1.59849 21.6835 1.45333 21.5111 1.23559C21.3659 1.05414 21.248 0.999701 20.9758 0.999701C20.7036 0.999701 20.5857 1.05414 20.4405 1.23559Z" fill="#9696A0"/>
<path d="M29.9128 3.44045C29.6406 3.55839 29.4955 3.75799 28.8422 4.93742C28.4975 5.54529 28.2344 6.12593 28.2344 6.27109C28.2344 6.77916 28.9965 7.08763 29.3775 6.72472C29.4864 6.634 29.8584 6.01706 30.2213 5.36384C30.9017 4.14811 30.938 3.97573 30.6658 3.61283C30.5207 3.4223 30.1578 3.34065 29.9128 3.44045Z" fill="#9696A0"/>
<path d="M11.3128 3.67609C11.1857 3.79403 11.0859 3.98455 11.0859 4.09343C11.0859 4.31117 12.1837 6.34343 12.5013 6.70633C12.9095 7.1781 13.717 6.89685 13.717 6.27992C13.717 5.98052 12.5013 3.77589 12.2382 3.58536C11.9478 3.38576 11.5668 3.41298 11.3128 3.67609Z" fill="#9696A0"/>
<path d="M19.6508 5.53629C17.4371 5.77217 15.3777 6.5252 13.4361 7.81351C12.2567 8.60282 10.4966 10.372 9.69822 11.5786C7.60246 14.7359 6.91294 18.4919 7.74762 22.0937C8.27383 24.38 9.22645 26.2399 10.8595 28.1724C12.6377 30.2772 13.3182 31.9012 13.5359 34.5413L13.6176 35.5575L13.3 36.1562C13.0369 36.6734 12.9916 36.8458 12.9916 37.381C12.9916 38.2067 13.2365 38.8599 13.7355 39.3679C14.1891 39.8216 14.67 40.0847 15.1962 40.1754L15.5773 40.248L15.6317 40.9194C15.7496 42.3528 16.2305 43.4325 17.2103 44.4214C18.2264 45.4556 19.542 46 21.0027 46C22.4452 46 23.7063 45.4647 24.7406 44.4214C25.7113 43.4325 26.174 42.4163 26.3101 40.9556L26.3736 40.248L26.7728 40.1754C27.5258 40.0484 28.2879 39.4405 28.7053 38.6512C28.8595 38.3518 28.923 38.0524 28.9502 37.5353C28.9775 36.8639 28.9593 36.7823 28.6418 36.1472L28.3152 35.4758L28.415 34.4143C28.669 31.8468 29.4492 30.0776 31.173 28.127C32.8605 26.2218 33.9946 23.872 34.421 21.3679C34.6569 19.9617 34.6115 17.4849 34.3303 16.1966C33.9402 14.4728 33.2053 12.7853 32.1891 11.2974C31.5359 10.3357 30.1025 8.85685 29.1408 8.14012C26.3736 6.09879 23.0258 5.18246 19.6508 5.53629ZM23.7698 7.29637C27.916 8.33971 31.2456 11.4062 32.5339 15.371C32.9785 16.7319 33.0873 17.4486 33.0873 19.1452C33.0873 20.9052 33.0057 21.4859 32.5339 22.9556C32.0077 24.5978 31.2547 25.9042 29.9664 27.3831C29.0773 28.3992 28.6508 29.0252 28.1519 30.005C27.5258 31.2661 27.1448 32.5907 26.9996 33.997L26.9361 34.6593H20.921H14.8968V34.3054C14.8968 34.1149 14.8333 33.6069 14.7607 33.1804C14.3887 31.0393 13.4906 29.1976 11.8938 27.3105C10.6327 25.8135 9.92504 24.5796 9.36254 22.874C8.53693 20.4153 8.53693 17.8206 9.35346 15.3347C9.67101 14.3639 10.4966 12.8034 11.1226 11.9778C12.293 10.4173 14.0258 8.96572 15.668 8.16734C17.5279 7.26008 18.8887 6.97883 21.2023 7.02419C22.5904 7.05141 22.9714 7.09677 23.7698 7.29637ZM26.9271 36.256C27.4079 36.6099 27.5531 36.9002 27.5531 37.4718C27.5531 38.0796 27.3716 38.3972 26.8726 38.6603C26.5732 38.8236 26.2375 38.8327 21.0389 38.8327C15.5773 38.8327 15.5047 38.8327 15.169 38.6421C14.1438 38.0615 14.2527 36.5645 15.3504 36.12C15.4956 36.0655 17.5641 36.0383 21.1297 36.0474C26.5732 36.0655 26.6821 36.0655 26.9271 36.256ZM24.8585 41.0101C24.8222 41.6089 24.7587 41.8448 24.4865 42.4073C23.044 45.3286 18.9069 45.3286 17.4644 42.4073C17.1922 41.8448 17.1287 41.6089 17.0924 41.0101L17.047 40.2843H20.9754H24.9039L24.8585 41.0101Z" fill="#9696A0"/>
<path d="M18.3618 8.96566C18.0987 9.06546 17.7358 9.26506 17.5452 9.41022C17.3547 9.56445 17.0644 9.71869 16.892 9.75498C16.511 9.83663 15.7761 10.2177 15.5674 10.4445C15.4858 10.5352 15.2862 10.8709 15.1229 11.1794C14.8598 11.7056 14.8053 11.7509 14.4696 11.8145C13.1904 12.0322 12.2468 13.2842 12.3829 14.5816C12.4283 15.0352 12.4192 15.0715 12.1924 15.1895C11.8023 15.3981 11.2942 15.9788 11.0674 16.4687C10.7771 17.1219 10.7862 17.9657 11.1037 18.5282C11.3305 18.9364 11.3305 18.9455 11.1672 19.1542C10.9585 19.4173 10.7227 20.1612 10.7227 20.5513C10.7227 21.0503 10.9767 21.7217 11.3124 22.1209C11.6118 22.4657 11.639 22.5473 11.6662 23.1552C11.6843 23.8266 11.8567 24.2802 12.2378 24.7338C12.51 25.0423 13.1632 25.4778 13.4535 25.5413C13.6622 25.5866 13.7166 25.6501 13.7166 25.8497C13.7166 27.002 14.9142 28.0362 16.2569 28.0362C16.638 28.0362 16.6833 28.0634 16.8466 28.3628C17.0644 28.7711 17.6269 29.2792 18.1077 29.4969C18.888 29.8507 20.1763 29.6602 20.7751 29.1068L20.9747 28.9163L21.1833 29.0977C22.3083 30.132 24.3769 29.7963 25.1027 28.4626C25.266 28.1542 25.2841 28.1451 25.9102 28.1088C27.1622 28.0272 28.1057 27.2106 28.3053 26.0403C28.3598 25.7046 28.4142 25.6501 28.9585 25.378C29.9021 24.9062 30.4102 24.0987 30.4102 23.0554C30.4102 22.6471 30.4555 22.5201 30.7277 22.1935C31.3809 21.386 31.517 20.2701 31.0543 19.3991L30.8003 18.9001L30.9817 18.5554C31.1995 18.1199 31.2811 17.3124 31.145 16.8316C30.9999 16.2872 30.5553 15.6431 30.1017 15.3255L29.7025 15.0443V14.3911C29.7025 13.6562 29.5483 13.2116 29.0856 12.6401C28.7408 12.2136 27.9787 11.7963 27.5432 11.7963C27.2801 11.7963 27.2348 11.7509 26.9716 11.2066C26.8083 10.8709 26.5271 10.4899 26.3094 10.3084C25.9646 10.009 25.2932 9.70961 24.9666 9.70961C24.885 9.70961 24.7216 9.60074 24.5946 9.47373C23.8325 8.65719 22.3265 8.60276 21.3739 9.35578C21.0382 9.61889 21.0382 9.61889 20.8477 9.44651C20.2852 8.91123 19.1329 8.69349 18.3618 8.96566ZM19.7862 10.3265C20.3759 10.6441 20.4303 10.8618 20.4303 13.1118C20.4303 14.9717 20.4212 15.1169 20.2579 15.2167C19.7862 15.5161 19.1239 15.4163 18.5523 14.9717C18.144 14.6542 17.6269 14.7812 17.4454 15.253C17.264 15.752 17.8083 16.3417 18.7428 16.6592C19.0694 16.7681 19.3598 16.7953 19.8497 16.759L20.521 16.7136V17.7298V18.755L19.8225 18.7096C19.2509 18.6824 19.015 18.7096 18.6067 18.8638C17.518 19.2721 17.0916 19.9979 17.6541 20.4788C17.9807 20.76 18.2529 20.7419 18.6612 20.4153C19.0876 20.0705 19.5412 19.9888 20.0221 20.1522L20.385 20.2792L20.4122 21.4495C20.4303 22.5382 20.4212 22.6108 20.2761 22.5473C19.8587 22.3749 19.2872 22.2298 19.0241 22.2298C18.6067 22.2298 18.2529 22.5382 18.2529 22.9011C18.2529 23.3638 18.4616 23.5725 18.9878 23.6451C19.5775 23.7268 19.9767 23.9899 20.2307 24.4979C20.4212 24.879 20.4394 24.9969 20.4122 26.2489L20.385 27.6007L20.0493 27.9092C19.7589 28.1632 19.641 28.2177 19.2872 28.2177C18.5432 28.2177 18.0714 27.7459 18.0714 27.002C18.0714 26.7661 18.0079 26.6028 17.8446 26.4485C17.5815 26.1763 17.4001 26.1673 16.9555 26.4032C16.3023 26.757 15.513 26.5846 15.1682 26.013C14.9142 25.6048 14.9414 25.5231 15.3769 25.3054C16.1662 24.9062 16.6289 24.253 16.6561 23.4909C16.6652 22.9374 16.4565 22.6834 15.9757 22.6834C15.5765 22.6834 15.2589 23.0009 15.2589 23.4092C15.2589 23.9899 14.3698 24.3074 13.5714 23.9989C13.3537 23.9173 13.0997 23.7449 13.0271 23.627C12.8819 23.4183 12.8819 23.3185 13.0452 22.2479C13.0997 21.8759 13.0906 21.8578 12.637 21.4314C12.3194 21.1411 12.1561 20.9052 12.1108 20.6874L12.0563 20.3699L12.3557 20.6239C13.0815 21.2409 14.1158 21.504 14.5059 21.1774C15.0412 20.7328 14.7509 19.9979 14.0069 19.8981C13.4807 19.8255 13.1087 19.4626 13.0362 18.9274C12.9908 18.6733 12.891 18.4465 12.7458 18.3104C12.1017 17.7116 12.1108 16.8588 12.7731 16.3417C13.2902 15.9334 14.261 16.2782 14.261 16.8679C14.261 17.3941 14.76 17.7661 15.2499 17.5937C16.2025 17.258 15.4676 15.2893 14.2247 14.881C14.0432 14.8265 13.8527 14.6995 13.8073 14.6088C13.4807 14.0009 14.0886 13.0755 14.8144 13.0665C14.9868 13.0665 15.1138 13.1572 15.268 13.384C15.64 13.9374 16.4928 14.4183 17.1188 14.4274C18.1259 14.4364 18.7065 13.7106 18.1259 13.1663C17.9263 12.9757 17.8446 12.9576 17.391 13.0211C16.765 13.0937 16.4928 12.9485 16.3567 12.4677C16.1208 11.6149 16.6289 11.0705 17.6723 11.0705C17.9081 11.0705 18.0261 11.007 18.2257 10.7439C18.6612 10.1814 19.2327 10.0272 19.7862 10.3265ZM23.3154 10.2903C23.4515 10.3628 23.7055 10.5624 23.8688 10.7439C24.1047 10.9888 24.2589 11.0705 24.4858 11.0705C24.9303 11.0705 25.5019 11.3336 25.638 11.6058C25.9102 12.1501 25.9011 12.3134 25.5473 12.7036C25.2297 13.0574 25.1934 13.0665 24.6491 13.0665C24.2045 13.0665 24.0503 13.1028 23.9233 13.2479C23.6783 13.5201 23.7055 13.9647 23.9868 14.2005C24.6581 14.7721 26.1188 14.4092 26.7539 13.5201C26.9444 13.2479 27.0714 13.1572 27.262 13.1572C27.6884 13.1572 28.0513 13.4112 28.2509 13.8467C28.4958 14.4183 28.3688 14.8084 27.888 14.9536C27.1168 15.1895 26.4182 16.1239 26.4182 16.9405C26.4182 17.4213 26.6541 17.6935 27.0805 17.6935C27.516 17.6935 27.6975 17.5211 27.7882 17.013C27.8971 16.4505 28.0785 16.2419 28.4868 16.2419C28.895 16.2419 29.5483 16.6229 29.7297 16.9677C29.9656 17.4213 29.9021 17.7479 29.5029 18.1834C29.2489 18.4556 29.1128 18.7005 29.0765 18.9364C28.9676 19.635 28.5775 20.0524 28.0241 20.0524C27.6612 20.0524 27.3255 20.379 27.3255 20.7419C27.3255 21.2046 27.5795 21.4132 28.1692 21.4132C28.6954 21.4132 29.2126 21.2046 29.6662 20.8326C29.9384 20.5967 29.9565 20.5967 29.9565 20.7691C29.9565 21.0866 29.7569 21.3951 29.4031 21.631C28.9585 21.9304 28.9041 22.1481 29.1037 22.7288C29.2216 23.0917 29.2398 23.2822 29.1763 23.509C29.0221 24.0443 28.2509 24.4072 27.5432 24.2802C27.1259 24.1985 26.89 23.9445 26.8174 23.4999C26.7358 23.0282 26.4001 22.7378 26.01 22.8104C24.9666 23.01 25.3839 24.7429 26.636 25.4143C27.0896 25.6501 27.144 25.8134 26.9081 26.2217C26.5906 26.757 25.8829 26.9203 25.3749 26.5846C25.021 26.3487 24.5856 26.3487 24.3769 26.5846C24.2862 26.6844 24.1773 27.002 24.141 27.2832C24.0503 27.9727 23.7146 28.3175 23.0886 28.3719C22.5442 28.4173 22.1087 28.1723 21.9182 27.7187C21.764 27.3558 21.7368 25.3689 21.8819 24.8608C22.0452 24.2802 22.7257 23.7721 23.3426 23.7721C23.9142 23.7721 24.1954 23.0009 23.7781 22.5836C23.6148 22.4203 23.5059 22.3931 23.0251 22.4294C22.7257 22.4475 22.3356 22.5382 22.1632 22.6199C21.9908 22.7016 21.8366 22.7741 21.8184 22.7741C21.8094 22.7741 21.7912 22.2661 21.7912 21.6491C21.7912 20.5786 21.8003 20.506 21.9908 20.379C22.1087 20.2882 22.39 20.2338 22.6622 20.2338C23.0341 20.2338 23.1975 20.2882 23.4969 20.506C24.0956 20.9415 24.6944 20.8145 24.8305 20.2157C24.8759 20.0251 24.8305 19.9072 24.5674 19.6169C24.0775 19.0725 23.4515 18.8366 22.5442 18.8366H21.7912V17.8749V16.9132H22.5442C23.1793 16.9223 23.3608 16.886 23.8053 16.6683C24.4767 16.3417 24.9122 15.8518 24.8305 15.5251C24.6854 14.9173 24.1229 14.7721 23.5604 15.2076C23.261 15.4344 23.1339 15.4707 22.6531 15.4707C21.764 15.4707 21.7912 15.5524 21.7912 13.1663C21.7912 10.8437 21.8456 10.6169 22.4263 10.3265C22.8073 10.127 22.9979 10.127 23.3154 10.2903Z" fill="#9696A0"/>
<path d="M4.77918 10.172C4.36184 10.4079 4.24389 10.8524 4.507 11.2244C4.71567 11.5238 6.89309 12.7305 7.21063 12.7305C7.52817 12.7305 7.90922 12.3585 7.90922 12.041C7.90922 11.6871 7.67333 11.4785 6.51204 10.8162C5.2691 10.1085 5.05135 10.0268 4.77918 10.172Z" fill="#9696A0"/>
<path d="M35.401 10.8252C34.2125 11.5147 33.9857 11.7597 34.0946 12.1952C34.1672 12.5037 34.4484 12.7305 34.7569 12.7305C35.0563 12.7305 37.2428 11.5057 37.4424 11.2244C37.6329 10.9522 37.6148 10.5621 37.397 10.3444C37.0613 10.0087 36.644 10.1085 35.401 10.8252Z" fill="#9696A0"/>
<path d="M2.51246 19.2994C1.99532 19.4355 1.82294 20.1341 2.21307 20.506C2.39452 20.6694 2.53061 20.6875 3.87335 20.6875C5.21609 20.6875 5.35218 20.6694 5.53363 20.506C5.80581 20.252 5.80581 19.6895 5.5427 19.4536C5.3794 19.2994 5.18887 19.2812 4.01851 19.2631C3.2927 19.254 2.61226 19.2722 2.51246 19.2994Z" fill="#9696A0"/>
<path d="M36.7156 19.2994C36.1984 19.4355 36.0261 20.1341 36.4162 20.506C36.5976 20.6694 36.7337 20.6875 38.0765 20.6875C39.4192 20.6875 39.5553 20.6694 39.7368 20.506C40.0089 20.252 40.0089 19.6895 39.7458 19.4536C39.5825 19.2994 39.392 19.2812 38.2216 19.2631C37.4958 19.254 36.8154 19.2722 36.7156 19.2994Z" fill="#9696A0"/>
<path d="M5.78015 27.9546C5.18136 28.2903 4.61886 28.6623 4.53721 28.7711C4.35576 28.9889 4.32854 29.3246 4.46463 29.5786C4.58257 29.8054 5.05435 29.9506 5.31745 29.8508C5.68943 29.7147 7.49487 28.6623 7.6854 28.4899C7.91221 28.2631 7.91221 27.7459 7.6854 27.4919C7.39507 27.1653 6.97773 27.2651 5.78015 27.9546Z" fill="#9696A0"/>
<path d="M34.2313 27.5462C33.9682 27.8729 33.9954 28.1813 34.2948 28.4807C34.6215 28.7983 36.6809 29.9414 36.935 29.9414C37.0438 29.9414 37.2344 29.8325 37.3704 29.7055C37.561 29.515 37.5882 29.4152 37.5519 29.1521C37.5247 28.9797 37.4521 28.7801 37.3977 28.7166C37.3432 28.644 36.7807 28.2993 36.1547 27.9545C34.8573 27.2287 34.5398 27.1561 34.2313 27.5462Z" fill="#9696A0"/>
</svg>
