<svg class="infra-svg" width="41" height="41" viewBox="0 0 41 41" fill="none" xmlns="http://www.w3.org/2000/svg">
<path d="M19.0076 0.758423C16.5593 1.13509 14.7387 2.06892 13.1457 3.76392C12.0628 4.92532 11.3252 6.25935 10.9093 7.8288C10.6189 8.95096 10.564 10.8421 10.7994 11.9957C11.0113 13.0158 11.3487 13.9418 11.7881 14.7187C11.9843 15.0561 12.1413 15.3622 12.1413 15.3857C12.1413 15.4171 11.8431 16.1861 11.4743 17.0964C11.1054 18.0067 10.8072 18.862 10.8072 18.9954C10.8072 19.3643 11.0976 19.5997 11.5135 19.5526C11.5763 19.5448 12.361 19.2152 13.2634 18.8228L14.8878 18.1087L15.6568 18.5089C16.4808 18.9405 17.2812 19.2309 18.1994 19.4349C19.039 19.6311 21.0715 19.6311 21.9503 19.4349C25.513 18.658 28.2674 16.037 29.2248 12.5058C29.4209 11.7917 29.4366 11.619 29.4366 10.1673C29.4366 8.71554 29.4209 8.5429 29.2248 7.8288C28.2831 4.36031 25.5601 1.72364 22.1073 0.938911C21.456 0.789812 19.5255 0.679951 19.0076 0.758423ZM21.3775 2.08461C24.5085 2.59468 27.0275 4.839 27.9692 7.97005C28.1654 8.62922 28.1811 8.77047 28.1811 10.1673C28.1811 11.5719 28.1654 11.6975 27.9692 12.3645C27.5376 13.7692 26.8706 14.9149 25.9132 15.8879C23.1981 18.658 18.9841 19.1524 15.6882 17.0886C15.4057 16.9081 15.0997 16.7747 14.982 16.7825C14.8643 16.7825 14.2914 17.0022 13.7107 17.2534C13.13 17.5123 12.6435 17.7007 12.6278 17.6693C12.62 17.6379 12.8083 17.1435 13.0437 16.5706C13.2791 15.9978 13.4753 15.4249 13.4753 15.2994C13.4753 15.1738 13.3498 14.8756 13.1928 14.6324C12.7847 13.9967 12.4159 13.1728 12.1648 12.3645C11.9686 11.6975 11.9529 11.5719 11.9529 10.1673C11.9529 8.76263 11.9686 8.63707 12.1648 7.97005C12.6121 6.51831 13.2713 5.404 14.2679 4.4074C16.1591 2.50836 18.7644 1.66086 21.3775 2.08461Z" fill="#9696A0"/>
<path d="M15.2744 9.57108C15.0861 9.75942 15.0469 9.86928 15.0469 10.1675C15.0469 10.4657 15.0861 10.5755 15.2744 10.7639C15.7217 11.2033 16.5222 11.0071 16.6791 10.4186C16.836 9.83789 16.4594 9.34351 15.863 9.34351C15.5726 9.34351 15.4628 9.3906 15.2744 9.57108Z" fill="#9696A0"/>
<path d="M19.5503 9.48454C18.899 10.0103 19.2207 10.9834 20.0447 10.9912C20.3037 10.9912 20.4371 10.9363 20.6332 10.7636C20.853 10.5675 20.8922 10.4811 20.8922 10.1672C20.8922 9.85336 20.853 9.76704 20.6332 9.57086C20.335 9.30405 19.825 9.25697 19.5503 9.48454Z" fill="#9696A0"/>
<path d="M23.7189 9.51615C23.4756 9.73588 23.3736 10.089 23.46 10.4186C23.6169 11.0071 24.4173 11.2033 24.8646 10.7639C25.0529 10.5755 25.0922 10.4657 25.0922 10.1675C25.0922 9.86928 25.0529 9.75942 24.8646 9.57108C24.5664 9.27289 24.0328 9.24935 23.7189 9.51615Z" fill="#9696A0"/>
<path d="M8.11734 21.2634C7.01088 21.5694 6.02213 22.2129 5.35511 23.0604C3.55024 25.3283 3.92691 28.6633 6.18692 30.4525L6.55574 30.7429L5.8181 31.0332C4.08385 31.7238 2.56149 32.9244 1.45502 34.486C0.960646 35.1844 0.262241 36.6126 0.0896009 37.2796C-0.216442 38.4803 0.277935 39.7123 1.32162 40.3558C1.92586 40.7324 1.90232 40.7324 9.44353 40.7324C16.3256 40.7324 16.5375 40.7246 17.0318 40.5755C17.7224 40.3636 18.3031 39.8378 18.6248 39.1473C18.9387 38.4646 18.9387 37.5778 18.6248 36.7696C17.8322 34.7607 16.5296 33.1049 14.8424 31.9749C14.2225 31.559 13.1867 31.0411 12.5981 30.8527L12.2999 30.7507L12.6766 30.4525C14.0263 29.3853 14.7169 27.8551 14.6384 26.0659C14.5756 24.6769 14.1205 23.6411 13.1239 22.6445C12.0881 21.6087 11.0915 21.1849 9.59263 21.1457C8.84714 21.1221 8.5411 21.1457 8.11734 21.2634ZM10.4558 22.4875C12.1744 22.9427 13.3985 24.5278 13.3985 26.3327C13.3985 27.8943 12.5746 29.2126 11.1621 29.9111C10.0556 30.4604 8.84714 30.4604 7.72498 29.9111C6.30463 29.2283 5.47282 27.9022 5.47282 26.3327C5.47282 24.8653 6.27324 23.5234 7.56804 22.825C8.3763 22.3777 9.52985 22.2521 10.4558 22.4875ZM11.0208 31.7473C14.0577 32.328 16.5453 34.4939 17.5184 37.4287C17.7773 38.2213 17.4948 38.9903 16.82 39.3199C16.4904 39.4769 16.3648 39.4769 9.43568 39.4769C2.41239 39.4769 2.381 39.4769 2.03572 39.3121C1.21961 38.9119 1.05481 38.08 1.56489 36.8637C2.67135 34.2192 4.99414 32.3045 7.79561 31.7552C8.5411 31.6061 10.2518 31.5982 11.0208 31.7473Z" fill="#9696A0"/>
<path d="M29.383 21.2634C28.2765 21.5694 27.2878 22.2129 26.6207 23.0604C24.8159 25.3283 25.1925 28.6633 27.4525 30.4525L27.8214 30.7429L27.0837 31.0332C25.3495 31.7238 23.8271 32.9244 22.7206 34.486C22.2263 35.1844 21.5279 36.6126 21.3552 37.2796C21.0492 38.4803 21.5436 39.7123 22.5872 40.3558C23.1915 40.7324 23.1679 40.7324 30.7092 40.7324C37.5912 40.7324 37.8031 40.7246 38.2975 40.5755C38.988 40.3636 39.5687 39.8378 39.8904 39.1473C40.2043 38.4646 40.2043 37.5778 39.8904 36.7696C39.0979 34.7607 37.7952 33.1049 36.1081 31.9749C35.4881 31.559 34.4523 31.0411 33.8638 30.8527L33.5656 30.7507L33.9422 30.4525C35.292 29.3853 35.9825 27.8551 35.904 26.0659C35.8413 24.6769 35.3861 23.6411 34.3895 22.6445C33.3537 21.6087 32.3571 21.1849 30.8583 21.1457C30.1128 21.1221 29.8067 21.1457 29.383 21.2634ZM31.7215 22.4875C33.44 22.9427 34.6642 24.5278 34.6642 26.3327C34.6642 27.8943 33.8402 29.2126 32.4277 29.9111C31.3212 30.4604 30.1128 30.4604 28.9906 29.9111C27.5703 29.2283 26.7384 27.9022 26.7384 26.3327C26.7384 24.8653 27.5389 23.5234 28.8337 22.825C29.6419 22.3777 30.7955 22.2521 31.7215 22.4875ZM32.2865 31.7473C35.3233 32.328 37.8109 34.4939 38.784 37.4287C39.0429 38.2213 38.7604 38.9903 38.0856 39.3199C37.756 39.4769 37.6304 39.4769 30.7013 39.4769C23.678 39.4769 23.6466 39.4769 23.3013 39.3121C22.4852 38.9119 22.3204 38.08 22.8305 36.8637C23.937 34.2192 26.2598 32.3045 29.0612 31.7552C29.8067 31.6061 31.5174 31.5982 32.2865 31.7473Z" fill="#9696A0"/>
</svg>
