<svg class="infra-svg" width="41" height="41" viewBox="0 0 41 41" fill="none" xmlns="http://www.w3.org/2000/svg">
<path d="M20.7148 0.0751863C20.6289 0.114248 20.4883 0.223619 20.4023 0.317366C20.2539 0.481423 20.2461 0.598607 20.2461 2.58292V4.6766L20.4336 4.87972C20.5351 4.98909 20.7148 5.09846 20.8398 5.1219C21.1289 5.1844 21.5664 4.98128 21.6835 4.72348C21.8242 4.4188 21.8007 0.684542 21.6601 0.403301C21.4882 0.0673742 21.082 -0.0732465 20.7148 0.0751863Z" fill="#9696A0"/>
<path d="M12.731 0.926491C12.106 1.41085 12.5748 2.44207 13.356 2.29364C13.6607 2.23114 13.9575 1.84834 13.9575 1.51241C13.9575 0.934303 13.1919 0.567127 12.731 0.926491Z" fill="#9696A0"/>
<path d="M28.4503 0.871866C27.6847 1.31716 28.0597 2.47338 28.9112 2.31713C29.7549 2.16089 29.7237 0.942177 28.8722 0.817181C28.7315 0.801556 28.5362 0.824993 28.4503 0.871866Z" fill="#9696A0"/>
<path d="M26.4176 2.92649C26.0895 3.07492 24.2145 4.99673 24.152 5.25454C24.027 5.7389 24.4255 6.21545 24.9411 6.19982C25.1989 6.19201 25.3317 6.09045 26.277 5.14517C27.4644 3.97333 27.6129 3.73896 27.441 3.33272C27.3316 3.07492 26.9801 2.81712 26.7535 2.81712C26.6988 2.82493 26.5504 2.8718 26.4176 2.92649Z" fill="#9696A0"/>
<path d="M15.0351 3.09824C14.7617 3.23886 14.6602 3.43417 14.6602 3.80134C14.6602 4.06696 14.7383 4.16852 15.582 5.02006C16.5195 5.97315 16.7773 6.17627 17.0976 6.17627C17.5351 6.17627 17.9022 5.64504 17.7772 5.20755C17.7304 5.05912 17.3632 4.62163 16.832 4.08259C15.6992 2.94981 15.5039 2.84044 15.0351 3.09824Z" fill="#9696A0"/>
<path d="M11.9331 8.8011C11.6049 9.07452 11.5893 9.5667 11.894 9.87137C12.1518 10.1292 12.4877 10.1761 13.8158 10.1448C14.7455 10.1214 14.9095 10.0979 15.097 9.95731C15.5033 9.66044 15.5345 9.15265 15.1673 8.78547C14.9798 8.59798 14.9564 8.59798 13.5736 8.59798C12.1752 8.59798 12.1674 8.59798 11.9331 8.8011Z" fill="#9696A0"/>
<path d="M19.8951 8.74658C18.9654 9.04344 18.1139 9.78561 17.7076 10.645C17.3873 11.3246 17.2936 11.8637 17.3327 12.7777C17.3873 13.762 17.5592 14.2698 18.1451 15.0589C18.2936 15.262 18.3404 15.2386 17.4108 15.4261C15.9968 15.6995 14.8796 16.5354 14.239 17.7932C13.9031 18.465 13.8093 18.9806 13.5984 21.4024C13.489 22.6758 13.3875 23.793 13.364 23.8867L13.3328 24.0664H9.53602C5.49709 24.0664 5.41115 24.0742 5.21585 24.4492C5.13772 24.5898 1.09098 38.6753 1.01285 39.0816C0.950357 39.3862 1.12223 39.7534 1.38784 39.8862C1.71596 40.0581 40.2616 40.0581 40.5897 39.894C40.8085 39.7768 40.9882 39.48 40.9882 39.2378C40.9882 39.0347 39.6679 34.4645 39.5351 34.2145C39.4726 34.0895 39.3554 33.9567 39.2773 33.9098C39.0273 33.7848 38.6054 33.8161 38.3867 33.988C38.0195 34.277 38.0429 34.4958 38.6289 36.5504L39.1679 38.441H20.9888H2.80967L4.62993 32.0662C5.6299 28.5585 6.46581 25.6757 6.48143 25.6601C6.49706 25.6367 7.70796 25.6367 9.16104 25.6445L11.8094 25.6679L11.1063 26.0976C9.87976 26.8476 9.48915 27.3944 9.48915 28.3631C9.48915 28.9413 9.56727 29.1678 9.9032 29.6678L10.1454 30.0193L9.9032 30.3631C8.7548 31.9568 9.12197 34.0583 10.7313 35.1286C11.2235 35.4567 11.9891 35.691 12.5516 35.6988C13.1531 35.7067 13.6765 35.527 17.0748 34.1052C18.8873 33.3552 20.4107 32.738 20.4654 32.738C20.5201 32.738 22.2622 33.3708 24.3481 34.152C26.4261 34.9254 28.3167 35.6129 28.5589 35.6754C30.0979 36.0738 31.7072 35.277 32.4181 33.777C32.6994 33.1677 32.7931 32.2224 32.6369 31.5896C32.5119 31.1052 32.1837 30.4412 31.9572 30.2303L31.7853 30.0662L32.0431 29.699C32.4025 29.1991 32.4884 28.9569 32.4884 28.3631C32.4884 27.3944 32.0978 26.8476 30.8713 26.0976L30.1682 25.6679L32.8165 25.6445C34.2696 25.6367 35.4805 25.6367 35.4961 25.6523C35.5118 25.6679 35.7149 26.3632 35.9571 27.1991C36.3242 28.496 36.418 28.7459 36.6211 28.9256C36.7461 29.0506 36.9414 29.1444 37.0508 29.1444C37.4883 29.1444 37.8633 28.7772 37.8633 28.3397C37.8633 28.1444 36.8789 24.6601 36.7617 24.4414C36.5664 24.0742 36.4727 24.0664 32.4415 24.0664H28.6448L28.6135 23.8867C28.5901 23.793 28.5042 22.8321 28.4104 21.7618C28.1917 19.1525 28.1292 18.7384 27.8323 18.0432C27.2308 16.637 26.0746 15.7151 24.5512 15.4182C23.6371 15.2386 23.684 15.262 23.8324 15.0589C24.4027 14.2855 24.5824 13.7699 24.6371 12.8168C24.6605 12.4027 24.6371 11.8637 24.5902 11.6059C24.3324 10.2465 23.309 9.10594 21.9809 8.72314C21.4185 8.55908 20.4419 8.56689 19.8951 8.74658ZM21.9106 10.3637C22.7231 10.7699 23.0981 11.4574 23.0981 12.5355C23.0903 13.5511 22.7231 14.1995 21.9184 14.6058C21.5435 14.7933 21.3247 14.8479 20.9888 14.8479C20.6529 14.8479 20.4341 14.7933 20.0591 14.6058C19.5513 14.348 19.2935 14.0823 19.0435 13.5199C18.8404 13.0824 18.8248 12.0746 19.0045 11.5512C19.2857 10.7231 20.0826 10.1606 20.9888 10.1606C21.3872 10.1606 21.5981 10.2075 21.9106 10.3637ZM22.645 16.6838C23.6137 16.8323 24.598 17.0276 24.8402 17.1135C25.3246 17.2932 25.9105 17.7697 26.1839 18.215C26.5355 18.7619 26.6136 19.215 26.8792 22.1602C27.1683 25.3164 27.1917 25.4179 27.7229 25.9101C27.8636 26.0429 28.512 26.4804 29.1526 26.8788C30.7932 27.8866 30.8244 27.91 30.9025 28.1522C31.0432 28.535 30.7385 28.9881 30.3479 28.9881C30.0901 28.9881 26.2074 27.1601 25.7933 26.8476C25.6527 26.7382 25.4652 26.496 25.3715 26.3085C25.2152 25.9882 25.2074 25.8554 25.2074 23.3086C25.2074 21.8477 25.184 20.5431 25.1605 20.4025C25.0355 19.7775 24.3168 19.5509 23.8715 20.004L23.6371 20.2306L23.6606 23.3399L23.684 26.4491L23.8949 26.9023C24.0278 27.1835 24.2934 27.5429 24.598 27.8397C25.0668 28.3006 25.2152 28.3866 27.6292 29.5272C29.0276 30.1912 30.2854 30.8162 30.426 30.9178C30.8635 31.2459 31.0978 31.6755 31.1291 32.2302C31.1838 33.0896 30.84 33.6911 30.0901 34.0348C29.4182 34.3551 29.3088 34.3239 25.9261 33.0739L22.8247 31.9177L23.9574 31.8787C24.5824 31.8474 25.1527 31.8005 25.223 31.7693C25.434 31.6755 25.598 31.363 25.598 31.0584C25.598 30.8474 25.5355 30.7146 25.3636 30.5428L25.1293 30.3084L23.5512 30.3318L21.9653 30.3553L17.5123 32.2302C13.239 34.027 13.0359 34.1052 12.5516 34.1052C12.1453 34.1052 11.9734 34.0661 11.6844 33.8942C10.6141 33.2692 10.4891 31.8083 11.4344 31.0193C11.5985 30.8865 12.8953 30.2225 14.3093 29.5506C16.7624 28.3866 16.9108 28.3006 17.3795 27.8397C17.6842 27.5429 17.9498 27.1835 18.0826 26.9023L18.2936 26.4491L18.317 23.3399L18.3404 20.2306L18.1061 20.004C17.7936 19.6837 17.4108 19.6837 17.067 19.9962L16.8092 20.2228L16.7702 23.1836L16.7311 26.1523L16.5202 26.4726C16.403 26.6444 16.153 26.8866 15.9577 26.996C15.1921 27.4413 11.8406 28.9881 11.6297 28.9881C11.2313 28.9881 10.9422 28.535 11.075 28.1366C11.1453 27.9491 11.4266 27.7382 12.575 27.0272C13.3562 26.5507 14.114 26.0429 14.2546 25.9101C14.7859 25.4257 14.8015 25.332 15.0905 22.1524C15.4186 18.6525 15.489 18.3635 16.2858 17.6447C16.903 17.0901 17.153 17.0119 19.4654 16.6526C20.2388 16.5276 20.8716 16.426 20.8794 16.4182C20.8794 16.4182 21.6763 16.5354 22.645 16.6838Z" fill="#9696A0"/>
<path d="M26.5293 8.82486C26.0841 9.27016 26.3106 9.98889 26.9356 10.1139C27.3653 10.1998 29.5293 10.1608 29.8183 10.0592C30.0058 9.9967 30.1308 9.87952 30.2245 9.69202C30.3886 9.3561 30.3339 9.05923 30.0761 8.79362L29.873 8.59831H28.3184H26.7559L26.5293 8.82486Z" fill="#9696A0"/>
<path d="M37.6914 31.0663C37.4258 31.2069 37.3164 31.4022 37.3164 31.7225C37.3164 32.0506 37.4336 32.2459 37.7226 32.3944C38.2226 32.6522 38.8007 32.3084 38.8007 31.7459C38.8007 31.3944 38.6914 31.2069 38.4101 31.0585C38.1289 30.91 37.9648 30.9178 37.6914 31.0663Z" fill="#9696A0"/>
</svg>
