<svg class="infra-svg" width="41" height="40" viewBox="0 0 41 40" fill="none" xmlns="http://www.w3.org/2000/svg">
<path d="M20.8283 0.0948522C20.5 0.274606 20.4375 0.501251 20.4297 1.52507C20.4297 2.56451 20.4844 2.78334 20.8205 2.97872C21.2112 3.21319 21.6333 3.10377 21.8599 2.72082C22.024 2.44728 22.0475 0.743528 21.899 0.415282C21.727 0.0401447 21.2112 -0.116163 20.8283 0.0948522Z" fill="#D7D7D7"/>
<path d="M13.6134 1.90808C13.3477 2.04876 13.2383 2.24414 13.2383 2.56457C13.2383 2.86937 14.0198 4.29177 14.3168 4.51841C14.5513 4.70598 14.9733 4.72161 15.2312 4.54968C15.45 4.409 15.6142 3.98697 15.536 3.76814C15.4031 3.393 14.606 2.08002 14.4262 1.93934C14.1996 1.75959 13.9104 1.74396 13.6134 1.90808Z" fill="#D7D7D7"/>
<path d="M28.0434 2.0876C27.6995 2.23609 26.8398 3.74445 26.8398 4.19775C26.8398 4.83079 27.6683 5.15904 28.1059 4.69011C28.4733 4.30716 29.1063 3.08796 29.1063 2.78316C29.1063 2.25172 28.5358 1.8844 28.0434 2.0876Z" fill="#D7D7D7"/>
<path d="M9.65249 8.61355C9.24609 8.84019 9.26172 8.62136 9.25391 15.5145C9.25391 20.3366 9.27735 21.9935 9.34769 22.142C9.54307 22.5718 9.55089 22.5718 13.6852 22.5718H17.4913L19.0231 24.088C20.5706 25.6354 20.7581 25.7683 21.1958 25.6589C21.3287 25.6276 21.9695 25.0415 22.9308 24.088L24.4626 22.5718H28.2687C32.403 22.5718 32.4108 22.5718 32.6062 22.142C32.7391 21.8528 32.7391 9.22315 32.6062 8.93398C32.403 8.48069 33.0517 8.50413 20.9613 8.50413C11.8799 8.51195 9.8088 8.52758 9.65249 8.61355ZM31.1369 15.538V21.0087H27.5184C24.2985 21.0087 23.8843 21.0244 23.7123 21.1338C23.6029 21.2041 22.9464 21.8293 22.2431 22.5249L20.977 23.7832L19.664 22.478C18.945 21.7668 18.2807 21.1416 18.1869 21.0947C18.0696 21.0322 16.8973 21.0087 14.4199 21.0087H10.817V15.538V10.0672H20.977H31.1369V15.538Z" fill="#D7D7D7"/>
<path d="M15.9055 14.8657C15.2256 15.2408 15.5147 16.3193 16.2885 16.3193C16.687 16.3193 17.07 15.9364 17.07 15.5456C17.07 14.9595 16.4213 14.5765 15.9055 14.8657Z" fill="#D7D7D7"/>
<path d="M20.593 14.8657C19.9131 15.2408 20.2022 16.3193 20.976 16.3193C21.3745 16.3193 21.7575 15.9364 21.7575 15.5456C21.7575 14.9595 21.1088 14.5765 20.593 14.8657Z" fill="#D7D7D7"/>
<path d="M25.2805 14.8657C24.6006 15.2408 24.8897 16.3193 25.6635 16.3193C26.062 16.3193 26.445 15.9364 26.445 15.5456C26.445 14.9595 25.7963 14.5765 25.2805 14.8657Z" fill="#D7D7D7"/>
<path d="M12.2612 28.7928C9.22885 29.2539 7.20467 30.5981 5.7979 33.0834C5.35243 33.8649 3 39.0231 3 39.2106C3 39.6249 3.37514 40 3.78935 40C4.25046 40 4.34424 39.8593 5.38369 37.6007C7.25938 33.5367 7.47821 33.1616 8.56454 32.0908C9.1507 31.5047 9.36953 31.3484 10.0573 31.0201C11.1436 30.4965 11.6438 30.3793 13.0506 30.3324C14.301 30.2855 14.8403 30.3324 17.4975 30.6997C20.1782 31.0748 20.4283 31.0748 23.7811 30.7075C25.391 30.5278 26.8681 30.3871 27.0479 30.3871C27.7044 30.3871 28.0014 30.9967 27.5559 31.4265C27.0713 31.8876 24.3203 32.9271 21.5068 33.7008C20.9754 33.8493 20.7409 34.1072 20.7409 34.5214C20.7409 34.8887 20.905 35.1232 21.2411 35.2326C21.4599 35.303 21.624 35.2873 22.132 35.1623C23.9608 34.6934 27.4621 33.396 28.1889 32.9193C28.4078 32.7708 28.6813 32.552 28.7907 32.4269C28.9705 32.2237 29.2518 32.1456 32.5968 31.3328C36.145 30.4809 36.8249 30.3636 37.0828 30.5668C37.2548 30.6997 37.3876 30.9654 37.3876 31.1999C37.3876 31.6219 37.1532 31.747 34.027 33.0131C23.359 37.3271 23.2184 37.3662 20.6627 37.3584C19.8656 37.3506 18.1696 37.2959 16.8957 37.2334C15.403 37.1552 14.4964 37.1396 14.3792 37.1865C14.2698 37.2255 14.1291 37.3428 14.0587 37.4444C13.9024 37.6867 13.4726 38.9606 13.4726 39.1872C13.4726 39.6327 13.8399 40 14.2854 40C14.598 40 14.9341 39.6483 15.0904 39.1716L15.2232 38.7495H15.7703C16.0751 38.7495 16.9583 38.7886 17.732 38.8355C18.5057 38.8746 19.8421 38.9137 20.7018 38.9137C23.445 38.9215 23.9921 38.7574 32.1044 35.4749C34.2146 34.6152 36.3638 33.7477 36.8796 33.5445C37.7159 33.2163 37.8644 33.1303 38.263 32.7239C38.6146 32.3722 38.7319 32.1846 38.8413 31.8251C39.1617 30.7153 38.7084 29.6524 37.6846 29.1445C36.8718 28.7381 36.567 28.7693 32.7766 29.6837C30.9947 30.1136 29.4785 30.4887 29.4081 30.5043C29.3222 30.5356 29.2596 30.4652 29.1971 30.2464C29.0643 29.8166 28.5484 29.2617 28.0483 29.0116C27.4856 28.7381 27.2902 28.7459 23.7107 29.1366C20.2642 29.5196 19.9515 29.5196 17.4584 29.0976C15.9657 28.8397 15.5984 28.8084 14.1369 28.7849C13.2381 28.7693 12.3941 28.7771 12.2612 28.7928Z" fill="#D7D7D7"/>
</svg>
