<svg class="infra-svg" width="41" height="41" viewBox="0 0 41 41" fill="none" xmlns="http://www.w3.org/2000/svg">
<path d="M0.215506 10.0268C-0.182233 10.4157 -0.102685 10.619 1.08169 12.2011L2.16884 13.6507L2.58426 14.9146C4.62599 21.2254 7.62228 25.7507 11.4406 28.3228C13.9066 29.9756 16.5493 30.833 19.6605 30.9832C23.0811 31.1511 26.7226 30.0552 29.9752 27.8632L30.9563 27.2091L31.2745 27.5096C31.7783 27.9958 32.1318 28.1372 32.8301 28.146C33.6609 28.146 34.0852 27.925 35.0221 27.0058C35.4551 26.5727 36.0031 26.1308 36.3655 25.9364C37.3643 25.3795 37.7885 24.8404 37.8858 24.036C37.9211 23.7002 37.8946 23.5234 37.7355 23.2052C37.382 22.4716 36.5953 22.1799 35.5347 22.3921L35.1458 22.4628L35.3226 22.2153C36.1799 20.9956 37.5499 17.7695 38.4426 14.8969L38.8227 13.6595L39.9098 12.2011C41.103 10.619 41.1826 10.4157 40.7848 10.0268C40.5816 9.81468 40.281 9.75281 39.9982 9.85888C39.9275 9.88539 39.3618 10.5748 38.752 11.3968C37.6825 12.8287 37.6118 12.8994 36.6307 13.5976C35.2961 14.5522 33.82 15.4449 32.2732 16.2315C31.575 16.5851 30.9828 16.8768 30.9474 16.8768C30.9121 16.8768 30.7707 16.6735 30.6204 16.426C29.9133 15.2239 28.7289 14.6671 27.4385 14.9323C26.2895 15.1621 25.1405 15.8868 21.7022 18.5738L20.2085 19.7316L18.9534 19.6256C17.5569 19.5107 15.5594 19.1306 14.3662 18.7594L13.5795 18.5119L13.5707 17.4513C13.5618 16.4437 13.5442 16.3553 13.2702 15.7808C12.5896 14.3489 10.8661 13.2529 9.27511 13.2529C8.25867 13.2529 7.46319 13.5711 6.49094 14.3577L6.01365 14.7466L4.97069 14.0219C4.39618 13.6153 3.79515 13.191 3.63606 13.0761C3.47696 12.9524 2.84942 12.1923 2.23955 11.388C1.62969 10.5748 1.07285 9.88539 1.00214 9.85888C0.719308 9.75281 0.418795 9.81468 0.215506 10.0268ZM10.4948 14.9764C11.2284 15.3477 11.9267 16.0548 12.0858 16.5851C12.1477 16.7795 12.1919 17.1684 12.1919 17.4513C12.1919 17.9551 12.1919 17.9551 11.9532 17.8932C11.3875 17.7518 7.50738 15.7719 7.3748 15.551C7.32177 15.4626 7.86093 15.056 8.32053 14.8439C8.57686 14.729 8.90389 14.6671 9.28395 14.6671C9.77891 14.6671 9.96452 14.7113 10.4948 14.9764ZM35.5082 16.3111C34.7039 17.4513 32.1849 20.2089 32.0788 20.0852C31.9992 19.9968 31.354 18.2733 31.3894 18.2467C31.4071 18.2379 32.0169 17.9286 32.7417 17.5662C33.4753 17.1949 34.4475 16.6735 34.9072 16.3995C35.3668 16.1343 35.7557 15.9045 35.7733 15.9045C35.791 15.9045 35.6673 16.0901 35.5082 16.3111ZM28.8792 16.5144C29.2946 16.806 29.5421 17.301 30.1431 19.0069C30.7795 20.8188 31.1596 21.6673 31.8313 22.7544C32.9096 24.4957 33.6609 24.9906 34.421 24.4691C35.4551 23.7709 36.4981 23.5057 36.4981 23.9388C36.4981 24.1421 36.2241 24.3808 35.4817 24.8138C35.1458 25.0083 34.6243 25.4149 34.3326 25.7154C33.5637 26.5109 33.1748 26.776 32.7859 26.776C32.3528 26.776 32.2025 26.5993 31.5485 25.3265C30.7088 23.6737 30.2492 23.0992 28.9676 22.1092C27.7479 21.1547 27.138 20.2885 26.9082 19.1836C26.7668 18.5296 26.5635 18.2909 26.1392 18.2909C25.8387 18.2909 25.4498 18.6356 25.4498 18.9008C25.4498 18.998 25.3791 19.0953 25.2996 19.1218C24.9725 19.219 23.7793 19.44 23.2755 19.493L22.754 19.5549L23.0192 19.3339C23.4434 18.9803 25.6177 17.3806 26.1657 17.0182C27.3324 16.2492 28.2693 16.0724 28.8792 16.5144ZM7.98467 19.8289C9.73472 21.2342 11.7411 22.4274 13.5707 23.161C14.3662 23.4704 16.019 23.9477 16.3195 23.9477C16.6112 23.9477 16.9647 23.5676 16.9647 23.2582C16.9647 22.8163 16.7261 22.6395 15.8599 22.4097C13.5442 21.791 11.6173 20.8099 9.40769 19.1306C8.45312 18.4058 6.80913 16.9121 7.24222 17.1684C10.7246 19.1836 13.6149 20.3238 16.6112 20.8541C17.4243 21.0044 18.211 21.0663 19.5986 21.0928C21.6669 21.1458 22.7805 21.0574 24.5659 20.7127C25.1758 20.5978 25.6973 20.5006 25.7238 20.5006C25.7592 20.5006 25.9359 20.7658 26.1215 21.0928C26.316 21.4198 26.7579 21.9766 27.1115 22.339C27.465 22.7014 27.7479 23.0108 27.7302 23.0196C27.7125 23.0373 27.3678 23.1522 26.9524 23.2759C25.8829 23.6118 24.398 23.8504 22.9043 23.9211C21.7199 23.9742 21.5962 23.9919 21.4106 24.1775C21.1277 24.4603 21.1454 24.8669 21.4371 25.1586L21.6669 25.3884L22.8954 25.3353C25.0432 25.2381 26.8817 24.8846 28.3489 24.2924L29.0295 24.0184L29.3211 24.3542C29.7012 24.7962 30.2492 25.7861 30.1962 25.9275C30.1078 26.1485 28.2163 27.3329 26.9966 27.925C23.6202 29.5779 20.5797 29.9756 17.1503 29.242C14.87 28.747 12.7045 27.6776 10.8837 26.1396C10.486 25.7949 10.1413 25.4856 10.1148 25.4502C10.0883 25.4149 10.5655 25.6358 11.1577 25.9452C13.8624 27.3329 16.4344 28.0223 19.5191 28.1637L20.7477 28.2167L20.9775 27.9869C21.278 27.6864 21.2868 27.2887 20.9863 26.997C20.8007 26.8025 20.6946 26.776 20.1201 26.776C19.139 26.776 17.663 26.6169 16.4521 26.3694C13.7033 25.8215 11.4494 24.7431 8.37357 22.5158C7.23338 21.6938 7.12732 21.5966 6.7119 20.916C5.9341 19.6609 4.77624 17.2568 4.7674 16.8944C4.7674 16.8591 5.29772 17.3452 5.94294 17.9816C6.58816 18.6091 7.50738 19.4488 7.98467 19.8289ZM35.5524 18.7064C35.1104 19.7847 33.5637 22.5335 33.4046 22.5335C33.3781 22.5335 33.219 22.3125 33.0599 22.0474L32.7682 21.5701L33.9084 20.3503C34.5271 19.6786 35.1723 18.9627 35.3402 18.7505C35.5082 18.5473 35.6584 18.3793 35.6673 18.3793C35.685 18.3793 35.6319 18.5296 35.5524 18.7064Z" fill="#9696A0"/>
</svg>
