<svg class="infra-svg" width="41" height="40" viewBox="0 0 41 40" fill="none" xmlns="http://www.w3.org/2000/svg">
<path d="M40.5 3.03895C40.3267 3.72303 39.8826 4.21858 39.3963 4.70266C36.3511 7.7334 33.3196 10.7778 30.2752 13.8093C30.0548 14.029 29.9781 14.1975 30.1259 14.5045C30.5678 15.4212 30.5052 16.3504 30.067 17.2519C29.407 18.6108 28.463 19.7482 27.2493 20.6401C26.4956 21.1938 25.6881 21.6741 24.9052 22.1875C24.7896 22.2634 24.6741 22.3397 24.4719 22.4727C25.4922 22.6715 26.4296 22.8023 27.3374 23.0441C28.5026 23.3549 29.6696 23.6904 30.7893 24.133C32.2741 24.7197 32.9944 26.2949 32.6541 27.9308C32.0956 30.6167 31.5433 33.3038 30.9893 35.9904C30.9844 36.0145 30.9919 36.0408 30.9963 36.1108C31.3544 36.2049 31.723 36.3164 32.0981 36.3975C33.1052 36.6152 33.8 37.1845 34.1774 38.1534C34.2174 38.2556 34.4252 38.3501 34.5559 38.3512C36.2352 38.3645 37.9144 38.3693 39.5937 38.3527C39.9752 38.3489 40.2778 38.436 40.5004 38.7504C40.5004 38.9067 40.5004 39.063 40.5004 39.2193C40.2807 39.539 39.977 39.6171 39.5959 39.6167C26.8656 39.6086 14.1352 39.6086 1.40481 39.6167C1.02296 39.6171 0.721481 39.5356 0.50037 39.2189C0.50037 39.0627 0.50037 38.9064 0.50037 38.7501C0.829259 38.2115 1.40222 38.4064 1.8837 38.3452C1.73444 38.0008 1.59852 37.7075 1.47889 37.4071C1.14852 36.5801 0.825556 35.7501 0.5 34.9212C0.5 34.6345 0.5 34.3482 0.5 34.0615C0.731111 33.2627 1.29556 32.7671 1.9737 32.3319C3.38593 31.4252 4.80815 30.5267 6.15407 29.5275C7.4163 28.5901 8.58148 27.5219 9.79704 26.5212C11.5152 25.1067 13.2207 23.676 14.97 22.3012C15.9481 21.5323 17.0907 20.9852 17.9867 20.0941C18.2685 19.8134 18.6537 19.863 18.8863 20.1364C19.1019 20.3897 19.0915 20.7627 18.8126 21.0115C18.3274 21.4445 17.8093 21.8401 17.3237 22.2727C17.18 22.4008 17.0407 22.5864 16.9989 22.7682C16.7841 23.7093 16.8719 24.6293 17.2804 25.5112C17.6015 26.2045 18.1137 26.6841 18.8307 26.9671C19.8515 27.3701 20.903 27.4934 21.9974 27.5167C24.0778 27.5608 26.1567 27.6882 28.2352 27.7971C28.8011 27.8267 28.9874 28.0693 28.93 28.6438C28.8522 29.4204 28.7544 30.1952 28.6656 30.9712C28.6511 31.0967 28.6407 31.2227 28.6244 31.389C29.27 31.389 29.8796 31.3982 30.4885 31.3778C30.5678 31.3752 30.6907 31.2297 30.7111 31.1327C30.9763 29.8864 31.2437 28.6397 31.4748 27.3867C31.6511 26.4308 31.0307 25.5197 30.037 25.1564C28.4819 24.5875 26.8867 24.1804 25.2552 23.9015C23.6548 23.6282 22.0593 23.3278 20.4611 23.0423C20.0937 22.9767 19.857 22.7134 19.8789 22.3786C19.9022 22.0249 20.1919 21.7682 20.5781 21.8023C21.083 21.8467 21.5889 21.9027 22.0878 21.9923C22.4941 22.0652 22.837 22.006 23.1893 21.7745C24.2322 21.0882 25.3119 20.4567 26.3441 19.7556C27.417 19.0267 28.2211 18.036 28.85 16.909C29.1544 16.363 29.3111 15.7812 29.0089 15.1052C28.8037 15.3034 28.6244 15.4808 28.4407 15.6527C28.0763 15.9941 27.72 16.0264 27.4504 15.7456C27.1837 15.4682 27.2256 15.1015 27.5715 14.7549C31.2626 11.0619 34.9544 7.36969 38.6459 3.6771C38.7656 3.55747 38.8907 3.44155 38.9974 3.31118C39.3422 2.89043 39.33 2.33562 38.9763 1.95858C38.6085 1.56636 38.047 1.52525 37.5959 1.85488C37.4915 1.93118 37.3919 2.02932 37.2737 2.06858C36.9841 2.16525 36.7267 2.08821 36.5556 1.82895C36.3622 1.53599 36.4241 1.26229 36.6607 1.01636C37.7419 -0.108824 39.7626 0.331176 40.3441 1.82006C40.4004 1.96414 40.4481 2.11192 40.5 2.25784C40.5 2.51784 40.5 2.77858 40.5 3.03895ZM26.7104 38.3445C26.4181 37.6986 26.5022 37.1019 26.6767 36.5034C26.7419 36.2793 26.8026 36.0504 26.8307 35.8197C27.0437 34.0638 27.2489 32.3071 27.4544 30.5504C27.5141 30.0393 27.5678 29.5278 27.6344 28.9208C25.7211 28.8634 23.8652 28.7878 22.0085 28.7597C21.0407 28.7449 20.0881 28.6919 19.1574 28.4004C19.0148 28.3556 18.8193 28.379 18.6796 28.4412C16.71 29.3193 14.7481 30.2149 12.7793 31.0952C10.2478 32.2271 7.78407 33.483 5.49481 35.0586C5.37963 35.1378 5.23333 35.3127 5.24926 35.4208C5.39407 36.3949 5.57185 37.3645 5.74148 38.3445C12.7289 38.3445 19.6878 38.3445 26.7104 38.3445ZM15.6304 23.3467C15.4122 23.509 15.2633 23.6112 15.1244 23.7252C14.2593 24.4338 13.3915 25.1393 12.5341 25.8567C10.9281 27.2001 9.32704 28.5493 7.73111 29.9045C7.63259 29.9882 7.51519 30.1727 7.54556 30.2638C7.72963 30.8156 7.95407 31.3538 8.15667 31.8745C11.2485 30.4541 14.3137 29.0464 17.4037 27.6267C16.08 26.5093 15.6104 25.0741 15.6304 23.3467ZM4.46667 38.3238C4.3937 37.9049 4.32444 37.509 4.25556 37.1127C4.18667 36.716 4.11519 36.3197 4.04963 35.9227C3.81593 34.5034 3.69407 34.7171 4.91185 33.9401C5.63185 33.4804 6.35222 33.0212 7.07852 32.5578C6.8537 31.983 6.64259 31.4434 6.42074 30.876C4.96815 31.8475 3.55 32.7871 2.14259 33.7423C1.79889 33.9756 1.65296 34.3364 1.79889 34.7352C2.12852 35.6371 2.46593 36.5375 2.84667 37.4186C3.12 38.0523 3.76333 38.3871 4.46667 38.3238ZM32.8567 38.3586C32.6837 37.953 32.3774 37.7656 32.013 37.6671C31.4367 37.5115 30.8541 37.3797 30.2759 37.2312C29.6856 37.0793 29.5367 36.8375 29.6593 36.2364C29.7711 35.6893 29.8919 35.1445 30.0037 34.5975C30.1348 33.9575 30.2604 33.3164 30.3896 32.6693C29.7152 32.6693 29.0978 32.6693 28.5548 32.6693C28.29 34.2304 28.0293 35.7515 27.7756 37.2734C27.6807 37.8419 28.0881 38.3486 28.6711 38.3541C30.0489 38.3678 31.4267 38.3586 32.8567 38.3586Z" fill="#9696A0"/>
<path d="M22.2243 6.82234C21.7243 6.64086 21.255 6.54567 20.8665 6.31456C20.0228 5.81271 19.6898 4.81567 19.9839 3.86641C20.1069 3.46938 20.2598 3.08197 20.395 2.68863C20.6895 1.8316 21.2954 1.32604 22.1783 1.19308C23.0439 1.06271 23.7639 1.36345 24.3065 2.06197C24.3457 2.11271 24.385 2.16308 24.4346 2.22678C26.0543 1.53271 27.5902 1.64715 28.978 2.76419C30.3835 3.89567 30.5454 5.4716 30.392 7.21308C30.5383 7.10049 30.6191 7.05123 30.6843 6.98641C31.4957 6.17789 32.3069 5.369 33.1139 4.55641C34.022 3.6416 34.5261 2.54456 34.5883 1.25123C34.5928 1.16012 34.5954 1.06863 34.608 0.978634C34.6606 0.600486 34.915 0.368634 35.2546 0.38456C35.5935 0.400856 35.8365 0.655671 35.8409 1.03715C35.8506 1.85382 35.6891 2.63937 35.3765 3.39382C35.0535 4.17345 34.5857 4.8553 33.9895 5.45123C31.3754 8.06493 28.7624 10.6797 26.148 13.2931C25.7928 13.6483 25.435 13.7027 25.1572 13.4516C24.8806 13.2016 24.8776 12.826 25.1583 12.5183C25.2987 12.3646 25.4446 12.2146 25.6006 12.0775C25.7461 11.9497 25.9087 11.8412 26.0639 11.7242C26.0487 11.6749 26.0335 11.626 26.0183 11.5768C25.5957 11.349 25.1728 11.1216 24.7261 10.8809C24.5087 11.5409 24.3524 12.189 24.0861 12.7886C23.4857 14.1401 22.835 15.4694 22.1961 16.8038C22.052 17.1046 21.7806 17.2897 21.4646 17.1627C21.2698 17.0842 21.0732 16.8575 21.0091 16.6553C20.9591 16.4975 21.0783 16.2557 21.1787 16.0846C21.9783 14.7227 22.6235 13.2923 23.1206 11.7946C23.1698 11.6464 23.1995 11.4909 23.2613 11.3486C23.615 10.5327 23.6732 9.80938 23.002 9.05234C22.4546 8.43604 22.3057 7.58271 22.2243 6.82234ZM29.1717 5.45456C29.0106 5.58863 28.9332 5.65567 28.8528 5.71938C28.0187 6.37975 27.0746 6.7316 26.0054 6.72012C25.6543 6.71641 25.4443 6.52752 25.4083 6.17789C25.3732 5.83308 25.5269 5.59715 25.8706 5.51308C26.008 5.47938 26.1532 5.47715 26.295 5.46308C27.2495 5.36826 28.0169 4.94752 28.5909 4.1816C27.7961 3.09975 26.3172 2.75234 25.0706 3.32493C24.8417 3.43012 24.7243 3.57086 24.642 3.8216C24.3739 4.64049 24.2424 5.53086 23.5483 6.15308C23.5046 6.19197 23.4657 6.26234 23.4646 6.319C23.4495 7.10308 23.6628 7.81789 24.1128 8.52086C24.2183 8.269 24.2954 8.07789 24.378 7.889C24.5632 7.4653 24.8876 7.30382 25.2391 7.45715C25.575 7.60345 25.6902 7.93604 25.5343 8.34937C25.3832 8.74937 25.2198 9.14419 25.0561 9.55567C25.6432 10.0449 26.308 10.3175 27.0335 10.4464C27.1254 10.4627 27.2613 10.3986 27.3339 10.3279C27.9113 9.76493 28.4802 9.19271 29.0465 8.61826C29.1054 8.55863 29.165 8.46604 29.1654 8.38826C29.1743 7.44197 29.1717 6.49567 29.1717 5.45456ZM22.4006 2.41345C22.0632 2.43567 21.7524 2.63493 21.5972 3.04123C21.4587 3.40419 21.3302 3.7716 21.2072 4.14012C21.0195 4.70308 21.2317 5.18863 21.7413 5.38234C22.2557 5.57789 22.7791 5.34271 23.0013 4.79271C23.1565 4.40863 23.2935 4.01604 23.4143 3.62012C23.608 2.98604 23.1539 2.4016 22.4006 2.41345Z" fill="#9696A0"/>
<path d="M20.1251 19.3097C19.7788 19.3164 19.4973 19.0527 19.4885 18.7134C19.4792 18.3575 19.8418 17.9708 20.1918 17.963C20.5385 17.9556 20.8125 18.2171 20.8207 18.5638C20.8299 18.939 20.4907 19.3027 20.1251 19.3097Z" fill="#9696A0"/>
</svg>
