<svg width="1075" height="99" viewBox="0 0 1075 99" fill="none" xmlns="http://www.w3.org/2000/svg">
<g opacity="0.3">
<path d="M26.9315 33.4706L26.9316 33.4706C37.2324 24.6556 53.9945 27.0974 64.3613 39.2506C69.5743 45.3634 72.665 51.8953 72.904 58.3428C73.142 64.7634 70.5566 71.2139 64.1911 77.2097L64.6601 77.7076L64.191 77.2097C54.3646 86.4655 37.1791 83.5851 26.7879 71.4056C16.4232 59.2519 16.6299 42.2839 26.9315 33.4706Z" stroke="#00B2B5" stroke-width="1.5"/>
<path d="M66.0367 37.3279C76.2644 49.3179 75.9612 66.1614 65.6541 74.982C55.347 83.8026 38.6893 81.4738 28.4616 69.4838C18.2338 57.4938 18.537 40.6503 28.8441 31.8297C39.1513 23.0091 55.8089 25.3379 66.0367 37.3279Z" stroke="#00B2B5" stroke-width="1.5"/>
<path d="M63.1789 39.7708C71.8678 49.9568 71.5957 64.2436 62.8659 71.7143C54.1361 79.1851 40.0046 77.2245 31.3158 67.0386C22.6269 56.8526 22.899 42.5658 31.6288 35.0951C40.3586 27.6243 54.4901 29.5848 63.1789 39.7708Z" stroke="#00B2B5" stroke-width="1.5"/>
<path d="M60.5482 42.0202C67.8206 50.5456 67.577 62.4791 60.2991 68.7074C53.0211 74.9358 41.2148 73.3142 33.9424 64.7888C26.67 56.2633 26.9135 44.3298 34.1915 38.1015C41.4694 31.8732 53.2757 33.4947 60.5482 42.0202Z" stroke="#00B2B5" stroke-width="1.5"/>
<path d="M57.8179 44.3573C63.6175 51.1562 63.4029 60.6437 57.6332 65.5813C51.8634 70.5189 42.4738 69.2506 36.6742 62.4517C30.8746 55.6528 31.0892 46.1653 36.8589 41.2277C42.6287 36.2901 52.0183 37.5584 57.8179 44.3573Z" stroke="#00B2B5" stroke-width="1.5"/>
<path d="M55.0705 46.7178C59.3849 51.7755 59.1999 58.7957 54.952 62.4309C50.7042 66.0662 43.7523 65.1535 39.438 60.0958C35.1236 55.0382 35.3086 48.0179 39.5565 44.3827C43.8043 40.7475 50.7562 41.6602 55.0705 46.7178Z" stroke="#00B2B5" stroke-width="1.5"/>
<path d="M52.2726 49.1074C55.0811 52.3997 54.9261 56.9186 52.221 59.2335C49.516 61.5485 45.0355 60.9966 42.227 57.7042C39.4186 54.4118 39.5735 49.893 42.2786 47.578C44.9837 45.2631 49.4642 45.815 52.2726 49.1074Z" stroke="#00B2B5" stroke-width="1.5"/>
<path d="M49.0961 51.8244C50.1964 53.1158 50.0762 54.7966 49.1219 55.6135C48.1683 56.43 46.4919 56.288 45.3929 54.9983C44.2928 53.707 44.4128 52.0265 45.3668 51.2094C46.3234 50.3922 47.9975 50.535 49.0961 51.8244Z" stroke="#00B2B5" stroke-width="1.5"/>
<path d="M75.9384 24.1531C76.1422 23.5431 76.3692 22.8863 76.6092 22.2303C77.0573 21.0056 77.542 19.8077 77.9971 18.9253C78.2266 18.4804 78.4322 18.1484 78.6038 17.938C78.6525 17.8784 78.6922 17.8364 78.7223 17.8077C78.7922 17.8342 78.8894 17.898 79.0148 18.0448C79.2054 18.268 79.3843 18.5986 79.5397 18.9797C79.6917 19.3528 79.8045 19.7326 79.8797 20.0235C79.8883 20.0564 79.8963 20.0881 79.9037 20.1183L75.9384 24.1531ZM78.7825 17.7581C78.7825 17.7582 78.7817 17.7587 78.7799 17.7597C78.7817 17.7585 78.7826 17.7581 78.7825 17.7581Z" stroke="#00B2B5" stroke-width="1.5"/>
<path d="M77.2813 25.5042L81.312 21.53C81.3416 21.5374 81.3727 21.5452 81.405 21.5536C81.6953 21.6289 82.0744 21.7419 82.4467 21.8941C82.827 22.0496 83.1569 22.2287 83.3796 22.4195C83.5273 22.546 83.5911 22.6442 83.6173 22.7149C83.5887 22.7452 83.5464 22.7853 83.4862 22.8346C83.2763 23.0064 82.9449 23.2123 82.5008 23.4421C81.62 23.8979 80.4241 24.3833 79.2014 24.8321C78.5463 25.0726 77.8904 25.3 77.2813 25.5042ZM83.6659 22.6554C83.666 22.6554 83.6655 22.6563 83.6644 22.658C83.6653 22.6563 83.6659 22.6554 83.6659 22.6554Z" stroke="#00B2B5" stroke-width="1.5"/>
<path d="M80.9877 20.5161L47.25 53.41" stroke="#00B2B5" stroke-width="1.5" stroke-miterlimit="10"/>
<path d="M85.6181 39.082C86.0614 38.6149 86.5459 38.1149 87.0419 37.6212C87.9654 36.7019 88.9107 35.8225 89.696 35.2165C90.092 34.911 90.4185 34.6976 90.6628 34.58C90.7321 34.5467 90.7858 34.5255 90.8252 34.5123C90.8778 34.5663 90.9393 34.6659 90.9911 34.8531C91.0696 35.1366 91.092 35.5123 91.0716 35.9236C91.0517 36.3262 90.9934 36.7183 90.9387 37.0138C90.9325 37.047 90.9265 37.0789 90.9205 37.1092L85.6181 39.082ZM90.9005 34.4931C90.9005 34.4931 90.8994 34.4933 90.8975 34.4934L90.9005 34.4931Z" stroke="#00B2B5" stroke-width="1.5"/>
<path d="M86.2684 40.8747L91.5988 38.9855C91.6227 39.0048 91.6476 39.0252 91.6735 39.0466C91.9048 39.238 92.2007 39.501 92.4738 39.7967C92.7528 40.0989 92.976 40.401 93.0971 40.6683C93.1773 40.8453 93.1936 40.9612 93.1876 41.0362C93.1489 41.0515 93.0938 41.0698 93.0187 41.0888C92.7559 41.1554 92.3686 41.2013 91.8692 41.2211C90.8786 41.2603 89.5902 41.1927 88.293 41.0806C87.5975 41.0205 86.9068 40.9483 86.2684 40.8747ZM93.257 41.0029C93.2571 41.0029 93.2563 41.0035 93.2545 41.0046C93.2561 41.0035 93.257 41.0029 93.257 41.0029Z" stroke="#00B2B5" stroke-width="1.5"/>
<path d="M91.7252 37.9229L47.2539 53.4117" stroke="#00B2B5" stroke-width="1.5" stroke-miterlimit="10"/>
<path d="M92.9438 62.5585L87.4002 61.4439C88.022 61.2805 88.6959 61.1109 89.3763 60.9527C90.6446 60.6577 91.9104 60.408 92.8965 60.3063C93.3936 60.2551 93.7833 60.2456 94.0526 60.2742C94.1291 60.2823 94.1858 60.2926 94.2262 60.3021C94.2427 60.3757 94.2428 60.4928 94.1884 60.6794C94.1062 60.9615 93.928 61.2924 93.6946 61.6312C93.4662 61.9628 93.2107 62.2652 93.0089 62.4875C92.9864 62.5123 92.9647 62.536 92.9438 62.5585ZM94.3002 60.3253C94.3001 60.3253 94.2992 60.3249 94.2975 60.324C94.2993 60.3248 94.3002 60.3253 94.3002 60.3253Z" stroke="#00B2B5" stroke-width="1.5"/>
<path d="M87.0135 63.3151L92.538 64.5171C92.5482 64.5463 92.5587 64.577 92.5695 64.6091C92.6656 64.8939 92.7788 65.2738 92.8555 65.6695C92.9339 66.0738 92.9649 66.4488 92.9274 66.7403C92.9026 66.9326 92.8559 67.0396 92.8117 67.1003C92.7709 67.0928 92.7149 67.0794 92.6419 67.0562C92.3835 66.9743 92.0302 66.8093 91.5951 66.5628C90.7322 66.0741 89.6722 65.3374 88.6281 64.5583C88.0678 64.1402 87.518 63.7143 87.0135 63.3151ZM92.8892 67.1088C92.8892 67.1088 92.8882 67.1089 92.8862 67.1089L92.8892 67.1088Z" stroke="#00B2B5" stroke-width="1.5"/>
<path d="M93.2073 63.6835L47.2539 53.4116" stroke="#00B2B5" stroke-width="1.5" stroke-miterlimit="10"/>
<path d="M84.78 81.0783L80.2296 77.718C80.8614 77.8336 81.5429 77.9657 82.2254 78.1108C83.4992 78.3815 84.7515 78.6922 85.6877 79.0184C86.1598 79.1828 86.5168 79.3395 86.7488 79.4798C86.8152 79.5199 86.8625 79.5535 86.8951 79.5793C86.8791 79.653 86.8298 79.7592 86.7015 79.9052C86.508 80.1256 86.2067 80.3496 85.8521 80.5573C85.505 80.7606 85.1457 80.926 84.8689 81.0417C84.8381 81.0545 84.8084 81.0668 84.78 81.0783ZM86.9518 79.6314C86.9518 79.6314 86.9511 79.6306 86.9499 79.6291C86.9513 79.6306 86.9519 79.6314 86.9518 79.6314Z" stroke="#00B2B5" stroke-width="1.5"/>
<path d="M79.0875 79.2501L83.5821 82.681C83.579 82.7121 83.5755 82.7447 83.5717 82.7787C83.5385 83.0775 83.4806 83.4697 83.383 83.8607C83.2833 84.2603 83.153 84.6131 82.996 84.8612C82.8927 85.0244 82.8055 85.1013 82.7401 85.1375C82.7063 85.1134 82.6611 85.0774 82.6046 85.0253C82.4051 84.8415 82.1546 84.5419 81.8646 84.1341C81.2894 83.3252 80.6404 82.208 80.0237 81.0592C79.6933 80.4435 79.3755 79.8252 79.0875 79.2501ZM82.8069 85.1781C82.8069 85.1781 82.8059 85.1778 82.804 85.1769C82.8059 85.1776 82.8068 85.178 82.8069 85.1781Z" stroke="#00B2B5" stroke-width="1.5"/>
<path d="M84.5412 82.2088L47.2539 53.4116" stroke="#00B2B5" stroke-width="1.5" stroke-miterlimit="10"/>
</g>
<g opacity="0.3">
<path d="M612.458 37.2606C612.681 35.8475 611.959 33.792 610.516 33.234C608.475 32.4446 605.264 34.242 603.535 32.798C604.013 32.3341 604.486 31.8713 604.954 31.4122C605.083 31.4772 605.229 31.5223 605.41 31.5367C605.865 31.5742 606.317 31.2754 606.631 30.9787C606.99 30.6398 607.231 30.1711 607.3 29.6844C607.387 29.0596 607.04 28.6352 606.685 28.1648C601.636 21.6159 595.331 15.3322 588.867 10.1839C588.846 10.167 588.824 10.155 588.803 10.1419C588.784 10.1232 588.767 10.1052 588.746 10.0883C588.302 9.74338 587.873 9.45688 587.285 9.51967C586.796 9.5729 586.357 9.7997 586.016 10.1542C585.7 10.4821 585.491 10.9372 585.511 11.397C585.517 11.5325 585.546 11.6518 585.585 11.7639C585.186 12.1488 584.77 12.5517 584.336 12.9765C583.088 11.3658 584.557 8.19537 584.227 6.29838C583.937 4.63607 581.625 3.72059 580.153 3.90845C576.342 4.39537 573.368 7.7593 571.262 10.724C565.93 18.232 564.778 28.1878 571.585 35.1518C571.604 35.1717 571.625 35.1855 571.644 35.2024C571.731 36.0608 571.921 36.9117 572.218 37.7519C572.194 37.7981 572.173 37.8486 572.161 37.9091C571.772 39.8111 570.66 41.4944 569.439 42.9789C568.882 42.7811 568.331 42.7764 567.9 43.1798C567.29 43.7526 566.56 44.5583 566.799 45.4582C563.891 47.2871 560.825 47.3154 557.511 46.625C555.081 46.1188 554.488 45.9371 552.718 47.5669C551.683 46.6892 550.941 47.0928 549.914 48.09C547.866 50.0771 545.822 52.0686 543.746 54.0272C543.315 53.5329 542.854 53.0297 542.358 52.7256C540.614 51.6607 538.916 54.3915 537.854 55.42C537.629 55.6384 537.622 56.012 537.841 56.2371C544.9 63.4825 551.959 70.7291 559.017 77.9745C559.133 78.0926 559.263 78.1424 559.39 78.1468C559.537 78.1649 559.694 78.1226 559.833 77.9874C560.812 77.0318 563.056 75.6744 562.834 74.0872C562.749 73.4818 561.916 72.7474 561.322 72.206C563.212 70.3151 565.131 68.454 567.045 66.5886C568.201 65.4629 569.047 64.7362 568.052 63.4099C569.505 61.9333 569.741 61.304 569.242 59.1673C568.441 55.7334 568.61 52.3177 570.594 49.3609C571.435 49.6047 572.231 48.9949 572.816 48.4149C572.854 48.3769 572.884 48.3369 572.909 48.2969C572.91 48.2957 572.911 48.2945 572.912 48.2939C573.26 47.8372 573.286 47.3192 573.14 46.8042C574.625 45.6522 576.299 44.6158 578.159 44.2604C579.07 44.6112 580.022 44.8015 580.997 44.8671C581.006 44.877 581.011 44.8863 581.02 44.8956C587.838 51.9982 597.645 50.9576 605.387 45.9578C608.421 43.996 611.864 41.0159 612.458 37.2606ZM575.406 40.9071C571.627 37.0108 572.555 32.0927 574.468 27.6209C576.974 21.7605 581.813 16.99 586.336 12.6441C586.395 12.6909 586.456 12.7372 586.516 12.7853C592.888 17.9132 599.15 24.089 604.147 30.5875C599.643 35.0145 594.795 39.6165 588.903 42.1164C584.262 44.0857 579.279 44.9011 575.406 40.9071ZM572.288 29.7218C569.342 24.0393 571.524 17.062 575.067 12.0843C575.861 10.969 578.206 7.76827 579.973 8.52905C580.544 8.7742 579.891 10.7782 579.821 11.2311C579.525 13.1511 579.863 14.8442 580.999 16.3919C577.428 20.2387 573.782 24.9318 572.288 29.7218ZM605.442 30.3896C605.446 30.394 605.45 30.4002 605.462 30.4095C605.455 30.4039 605.448 30.3959 605.442 30.3896ZM588.217 43.6102C592.63 42.0553 596.507 39.2062 600.051 36.0556C601.554 37.2241 603.225 37.609 605.14 37.3715C605.739 37.2967 607.419 36.7211 607.841 37.3009C608.919 38.7785 604.949 41.5275 604.145 42.1048C599.159 45.6888 591.776 47.4487 586.25 44.228C586.908 44.048 587.565 43.8393 588.217 43.6102ZM588.101 11.0386C594.543 16.1768 600.824 22.4405 605.857 28.969C606.019 29.1834 606.176 29.3206 606.158 29.5862C606.147 29.7619 606.001 29.9606 605.888 30.0876C605.761 30.2321 605.618 30.3396 605.434 30.3828C605.301 30.2625 605.202 30.0797 605.098 29.9396C600.082 23.3844 593.768 17.1496 587.344 11.9805C586.985 11.6969 586.411 11.4542 586.819 10.983C587.258 10.4769 587.664 10.7042 588.101 11.0386ZM571.782 12.0118C573.6 9.18241 576.181 6.25244 579.472 5.2007C580.734 4.79768 582.606 5.14955 583.107 6.57427C583.416 7.45571 583.058 8.73264 582.934 9.62284C582.734 11.0657 582.546 12.605 583.512 13.793C582.953 14.3506 582.378 14.9374 581.795 15.5474C580.657 13.9286 580.793 12.182 581.149 10.2979C581.288 9.56542 581.541 8.65329 581.077 7.99007C579.438 5.64744 576.173 8.99531 575.129 10.1657C570.27 15.6136 567.64 24.7848 571.873 31.2938C571.725 32.0115 571.632 32.7288 571.599 33.4445C566.223 27.094 567.428 18.784 571.782 12.0118ZM571.956 47.6391C571.491 48.0983 571.121 48.4211 570.529 48.055C570.035 47.7491 569.612 47.3212 569.206 46.9106C568.355 46.0504 567.264 45.0033 568.672 44.0358C569.156 43.7031 570.542 45.0769 570.813 45.342C571.259 45.7789 572.373 46.9353 571.956 47.6391ZM559.453 76.7667C552.656 69.7888 545.857 62.8108 539.06 55.8328C540.122 54.6965 541.306 53.2268 542.616 54.5817C543.34 55.3303 544.064 56.0796 544.789 56.8276C547.086 59.2005 549.383 61.5721 551.68 63.9443C553.978 66.3165 556.275 68.6881 558.574 71.0597C559.298 71.8077 560.023 72.5552 560.749 73.3032C562.042 74.6358 560.595 75.7547 559.453 76.7667ZM565.36 66.6176C563.734 68.2019 562.107 69.7855 560.503 71.3904C557.952 68.7594 555.403 66.1273 552.853 63.4945C550.074 60.6255 547.295 57.7565 544.517 54.8862C546.009 53.4776 547.483 52.0503 548.957 50.6236C550.106 49.5119 551.276 47.7032 552.719 49.1961C554.943 51.4967 557.169 53.7944 559.395 56.0919C561.682 58.4536 563.97 60.8152 566.258 63.175C567.635 64.5941 566.624 65.385 565.36 66.6176ZM568.021 58.9087C568.141 59.5869 568.678 61.0097 568.191 61.5826C567.91 61.914 567.602 62.2261 567.294 62.5352C565.158 60.1605 562.796 57.9448 560.578 55.6553C558.23 53.2308 555.881 50.8082 553.536 48.3807C554.508 47.4954 555.172 47.22 556.673 47.6201C557.803 47.9216 558.982 48.0858 560.144 48.2058C562.711 48.472 565.159 47.8486 567.319 46.4899C567.637 46.9383 568.032 47.3505 568.379 47.7166C568.739 48.0958 569.145 48.4776 569.584 48.801C568.243 50.7958 567.637 52.9377 567.622 55.3625C567.615 56.5474 567.816 57.7451 568.021 58.9087ZM572.63 45.7457C572.319 45.2748 571.944 44.8518 571.641 44.5384C571.373 44.2605 570.95 43.8687 570.469 43.5318C571.477 42.2788 572.396 40.9032 572.935 39.3864C573.294 40.0474 573.73 40.6997 574.25 41.3411C574.983 42.2449 575.778 42.945 576.619 43.4786C575.176 43.9824 573.849 44.8219 572.63 45.7457ZM604.117 45.3963C597.279 49.6648 588.78 50.4526 582.649 44.8645C583.327 44.8209 584.011 44.7253 584.698 44.5923C584.713 44.6054 584.727 44.6203 584.744 44.6322C590.932 49.062 599.821 46.9407 605.461 42.5671C606.893 41.4571 610.611 38.4543 608.533 36.3097C608.006 35.765 607.146 35.9266 606.479 36.0145C604.453 36.2828 602.63 36.5609 600.911 35.2794C601.517 34.725 602.114 34.1648 602.702 33.6015C605.275 35.7573 612.723 31.8399 611.147 37.9037C610.304 41.1479 606.803 43.7202 604.117 45.3963Z" fill="#00B2B5"/>
<path d="M561.281 63.4976C561.691 63.0933 562.024 62.6578 562.081 62.0693C562.147 61.3767 561.603 60.7343 561.163 60.2718C559.204 58.2509 557.247 56.23 555.29 54.2084C554.925 53.8371 554.506 53.5232 553.968 53.4997C553.417 53.4755 552.93 53.8559 552.554 54.2148C551.966 54.7855 551.375 55.3555 550.784 55.9237C550.246 56.4406 549.701 57.0022 549.677 57.794C549.658 58.4585 550.137 58.9302 550.563 59.3692C552.304 61.1675 554.046 62.9658 555.788 64.7641C556.289 65.2815 556.819 65.923 557.548 66.1038C558.421 66.3204 559.093 65.6389 559.657 65.0844C560.198 64.5552 560.739 64.0267 561.281 63.4976ZM557.786 64.9733C557.33 64.8604 556.923 64.2777 556.616 63.9606C554.874 62.1623 553.133 60.364 551.391 58.5657C551.283 58.4543 551.175 58.3424 551.067 58.2311C551.054 58.2174 550.962 58.1076 550.953 58.1038C550.868 57.9812 550.834 57.8839 550.831 57.8121C550.813 57.3958 551.315 57.0156 551.588 56.7538C552.179 56.1856 552.77 55.6156 553.358 55.0449C553.498 54.9116 553.601 54.8207 553.721 54.7459C553.737 54.7357 553.851 54.6829 553.86 54.6745C553.879 54.6692 553.898 54.6628 553.917 54.6588C553.923 54.657 553.924 54.6571 553.928 54.6559C553.935 54.656 553.94 54.6561 553.952 54.6563C553.967 54.6559 553.969 54.6547 553.972 54.6535C553.981 54.6573 553.995 54.663 554.029 54.6721C554.038 54.6753 554.036 54.6741 554.042 54.6766C554.066 54.6892 554.09 54.7019 554.114 54.7163C554.263 54.8019 554.304 54.8534 554.463 55.0145C556.42 57.0372 558.378 59.0575 560.335 61.0784C560.507 61.2599 560.672 61.4413 560.802 61.6553C560.889 61.7976 560.926 61.9139 560.929 61.9973C560.932 62.0788 560.901 62.1506 560.838 62.2569C560.756 62.3941 560.626 62.5239 560.478 62.6705C559.936 63.1996 559.395 63.7276 558.854 64.2579C558.608 64.498 558.191 65.0738 557.786 64.9733Z" fill="#00B2B5"/>
<path d="M601.64 31.4988C601.682 31.4387 601.597 31.3878 601.548 31.4257C597.733 34.3069 593.927 36.961 589.43 38.7021C587.006 39.6402 584.414 40.2975 581.802 40.261C579.187 40.2251 577.173 39.1285 575.099 37.6603C575.092 37.6559 575.086 37.657 575.079 37.6551C575.078 37.6545 575.076 37.6544 575.075 37.6538C575.064 37.6524 575.054 37.6547 575.044 37.6595C575.04 37.6612 575.037 37.6624 575.033 37.6648C575.031 37.6672 575.028 37.6696 575.026 37.6721C575.018 37.6799 575.013 37.6884 575.011 37.6994C575.011 37.7012 575.011 37.7031 575.011 37.7043C575.011 37.711 575.008 37.7171 575.01 37.7245C575.012 37.7294 575.015 37.7338 575.016 37.7381C575.016 37.7381 575.016 37.7381 575.017 37.7387L575.018 37.7393C577.073 43.3392 584.323 42.3149 588.636 40.6121C591.484 39.4875 594.152 37.8663 596.616 36.0576C598.391 34.755 600.355 33.3222 601.64 31.4988Z" fill="#00B2B5"/>
<path d="M567.891 49.9938C567.902 49.9646 567.884 49.9361 567.86 49.9211C567.836 49.906 567.803 49.9043 567.783 49.9297C565.441 52.8339 564.172 57.1494 567.103 60.0961C567.122 60.116 567.152 60.1165 567.176 60.1046C567.199 60.0927 567.214 60.0696 567.204 60.0401C566.697 58.6226 566.358 57.2101 566.392 55.6949C566.437 53.6828 567.215 51.856 567.891 49.9938Z" fill="#00B2B5"/>
<path d="M594.881 21.9979C594.885 22.0011 594.888 22.0042 594.892 22.0073C594.915 22.0248 594.938 22.0172 594.954 22.0009C594.956 21.9997 594.957 21.9991 594.959 21.9973C594.96 21.9955 594.96 21.9942 594.962 21.9924C594.979 21.9774 594.987 21.9548 594.971 21.9313C594.968 21.927 594.965 21.9238 594.962 21.9195C594.961 21.9189 594.961 21.9189 594.961 21.9189C593.656 20.1315 592.031 18.6547 590.372 17.2057C589.134 16.1245 587.761 14.7276 586.213 14.108C586.172 14.0908 586.14 14.1118 586.123 14.1434C586.107 14.175 586.107 14.2172 586.132 14.2458C587.235 15.5094 588.692 16.5179 589.939 17.6378C591.576 19.1074 593.143 20.6457 594.882 21.9967C594.88 21.9973 594.88 21.9973 594.881 21.9979Z" fill="#00B2B5"/>
</g>
<path opacity="0.3" d="M681.684 42.5852C679.765 40.8276 677.991 38.9202 676.016 37.224C675.84 36.9046 675.508 36.6899 675.015 36.735C669.929 37.2005 664.836 37.3665 659.732 37.3828C659.478 37.2872 659.184 37.3052 658.883 37.4892C658.739 37.5542 658.62 37.6463 658.523 37.7563C656.264 39.4742 654.201 41.5584 652.317 43.6696C651.967 44.0612 651.936 44.5159 652.082 44.9003C652.111 44.9996 652.149 45.0988 652.208 45.1999C656.186 51.9468 661.186 59.006 666.908 64.3996C667.021 64.5061 667.14 64.5783 667.262 64.6324C667.673 64.8995 668.203 64.9085 668.606 64.3996C673.638 58.0496 678.194 51.272 681.872 44.0414C681.897 43.9908 681.911 43.9439 681.929 43.8952C682.142 43.4928 682.127 42.9912 681.684 42.5852ZM680 43.6696C678.058 44.1226 674.853 43.8862 672.858 44.0973C673.685 42.6537 674.357 39.2847 675.015 37.7563C676.265 38.8914 678.784 42.4949 680 43.6696ZM671.3 43.9133C670.116 42.4895 668.897 40.0858 667.778 38.6097C669.763 38.5249 671.747 38.4004 673.73 38.238C673.031 39.8458 672.184 42.4029 671.3 43.9133ZM669.81 44.3662C669.08 44.4221 668.351 44.4726 667.626 44.5214C666.372 44.6044 665.074 44.6874 663.762 44.7397C664.706 43.2853 665.673 41.8291 666.517 40.3151C667.56 41.7063 668.689 43.0345 669.81 44.3662ZM662.537 43.9782C661.733 42.6321 661.033 40.2157 660.398 38.7812C662.004 38.7721 663.609 38.7433 665.21 38.6964C664.387 40.1598 663.452 42.5689 662.537 43.9782ZM666.682 46.0191C667.965 45.9577 669.266 45.8819 670.57 45.7809C669.846 50.792 668.295 56.5476 667.262 61.5082C665.657 56.7407 664.814 51.032 663.616 46.1526C664.652 46.1165 665.679 46.066 666.682 46.0191ZM672.042 45.6564C674.339 45.4398 677.775 45.0284 680 44.5214C677.251 49.6768 672.094 56.8165 668.606 61.5082C669.574 56.9482 671.403 50.2668 672.042 45.6564ZM659 39.2325C659.665 40.7465 660.489 43.3683 661.341 44.7848C659.218 44.7812 656.018 44.4762 654 44.0414C655.252 42.6826 657.579 40.3982 659 39.2325ZM654 45.6564C656.218 46.0696 659.853 46.2212 662.141 46.1851C663.272 50.7956 664.212 56.9789 665.677 61.5082C661.672 57.2099 657.041 50.6277 654 45.6564Z" fill="#00B2B5"/>
<path opacity="0.3" d="M1003.6 31.2002C1001.83 30.9204 1000.09 30.5008 998.312 30.2771C998.092 30.1614 997.819 30.1638 997.545 30.3757C994.722 32.5591 991.785 34.5743 988.788 36.5081C988.604 36.5493 988.437 36.6703 988.328 36.8888C988.266 36.9802 988.23 37.0776 988.213 37.1771C987.51 39.0096 987.056 40.977 986.717 42.8927C986.654 43.248 986.802 43.5191 987.028 43.6835C987.081 43.7293 987.139 43.7717 987.211 43.8069C992.012 46.1582 997.527 48.3026 1002.86 49.2238C1002.97 49.2418 1003.06 49.2381 1003.15 49.2229C1003.49 49.2204 1003.81 49.0258 1003.86 48.5832C1004.51 43.0612 1004.72 37.4745 1004.24 31.9608C1004.24 31.9224 1004.23 31.8902 1004.22 31.8556C1004.2 31.5457 1004.01 31.2648 1003.6 31.2002ZM1003.01 32.4543C1002.03 33.4451 1000.06 34.5188 998.96 35.3913C998.92 34.2555 998.087 32.0791 997.917 30.9587C999.067 31.1351 1001.86 32.2423 1003.01 32.4543ZM997.976 35.8738C996.76 35.5075 995.166 34.5953 993.97 34.1746C995.107 33.3776 996.229 32.5586 997.337 31.718C997.512 32.8993 997.946 34.6782 997.976 35.8738ZM997.264 36.6942C996.855 37.0012 996.444 37.3052 996.036 37.6061C995.329 38.1263 994.594 38.6634 993.842 39.1878C993.867 38.0017 993.905 36.8057 993.849 35.6236C994.971 36.0244 996.119 36.3566 997.264 36.6942ZM992.843 39.2151C991.88 38.7497 990.586 37.6347 989.69 37.0549C990.631 36.4445 991.565 35.8228 992.491 35.1921C992.54 36.3379 992.868 38.0656 992.843 39.2151ZM996.027 38.817C996.759 38.2983 997.497 37.7645 998.228 37.215C999.628 40.3485 1000.81 44.2187 1002.02 47.4395C999.333 45.3235 996.755 42.3828 994.271 40.0494C994.867 39.6382 995.453 39.2221 996.027 38.817ZM999.048 36.589C1000.32 35.5992 1002.19 34.0688 1003.32 32.9404C1003.58 36.9198 1003.15 42.9395 1002.81 46.9327C1001.71 43.9651 1000.35 39.4618 999.048 36.589ZM989.032 37.8399C989.975 38.4534 991.416 39.6393 992.433 40.1266C991.183 40.9248 989.189 41.9575 987.843 42.4701C988.084 41.2224 988.62 39.0413 989.032 37.8399ZM988.432 43.392C989.887 42.7916 992.081 41.5076 993.415 40.6243C995.761 42.8294 998.569 46.0042 1001.08 48.0373C997.159 47.0939 992.034 45.083 988.432 43.392Z" fill="#00B2B5"/>
<path opacity="0.3" d="M630.954 80.0845C630.376 79.4438 629.461 79.1723 628.707 78.7705C627.426 78.0837 626.309 77.5271 625.253 76.4873C623.111 74.3779 622.272 71.1445 621.733 68.2994C621.653 67.8786 621.326 67.7374 621.001 67.789C620.68 67.7374 620.35 67.8786 620.27 68.2994C619.709 71.2504 618.818 74.215 616.744 76.4873C615.174 78.2085 612.512 78.4529 611.043 80.0845C610.991 80.1415 610.986 80.2311 611.03 80.299C610.986 80.3669 610.991 80.4537 611.043 80.5134C611.618 81.1541 612.534 81.4256 613.29 81.8301C614.572 82.517 615.691 83.0735 616.747 84.1133C618.892 86.2228 619.731 89.4534 620.273 92.2986C620.352 92.7194 620.68 92.8606 621.004 92.809C621.329 92.8606 621.656 92.7194 621.736 92.2986C622.297 89.3503 623.185 86.3856 625.256 84.1133C626.826 82.3921 629.488 82.1478 630.957 80.5162C631.009 80.4591 631.014 80.3695 630.97 80.3017C631.012 80.2338 631.003 80.1442 630.954 80.0845ZM624.062 82.1288C622.632 83.364 621.601 84.9359 620.974 86.6544C620.396 85.1694 619.519 83.7848 618.348 82.5279C617.666 81.7976 616.51 80.8827 615.256 80.28C616.304 79.7587 617.272 79.0366 617.932 78.4665C619.365 77.2312 620.394 75.6593 621.023 73.9408C621.601 75.4258 622.475 76.8104 623.65 78.0674C624.329 78.7977 625.484 79.7126 626.738 80.3153C625.69 80.8365 624.722 81.5614 624.062 82.1288Z" fill="#00B2B5"/>
<path opacity="0.3" d="M695.913 9.69319C695.599 9.77912 695.332 10.0487 695.057 10.2386C694.587 10.561 694.192 10.8493 693.657 11.03C692.573 11.3967 691.398 11.109 690.404 10.7866C690.257 10.739 690.148 10.8274 690.099 10.9494C690.019 11.052 689.997 11.192 690.113 11.2951C690.921 12.0187 691.668 12.8594 691.964 13.987C692.188 14.8411 691.734 15.81 691.951 16.6126C691.958 16.641 691.985 16.659 692.015 16.6558C692.027 16.6833 692.055 16.6969 692.084 16.6895C692.398 16.6045 692.665 16.3348 692.942 16.1445C693.411 15.8222 693.808 15.5329 694.342 15.3521C695.426 14.9845 696.601 15.2718 697.595 15.5931C697.743 15.6408 697.852 15.5524 697.9 15.4304C697.981 15.3268 698.002 15.1878 697.887 15.0847C697.079 14.3616 696.332 13.5218 696.035 12.3951C695.811 11.5411 696.265 10.5722 696.049 9.76955C696.041 9.74118 696.014 9.72323 695.984 9.72636C695.972 9.69987 695.942 9.68668 695.913 9.69319ZM695.179 12.4544C695.28 13.1727 695.564 13.8126 695.975 14.3384C695.397 14.2731 694.791 14.3299 694.166 14.5119C693.803 14.6181 693.288 14.8556 692.85 15.1835C692.896 14.726 692.864 14.2602 692.817 13.9287C692.717 13.2095 692.432 12.5705 692.022 12.0438C692.6 12.1091 693.205 12.0532 693.831 11.8703C694.194 11.765 694.709 11.5275 695.146 11.1997C695.1 11.6572 695.134 12.1234 695.179 12.4544Z" fill="#00B2B5"/>
<path opacity="0.3" d="M642.977 89.2192C642.688 88.9373 642.23 88.8178 641.854 88.641C641.213 88.3388 640.655 88.0939 640.127 87.6364C639.055 86.7083 638.636 85.2856 638.366 84.0337C638.327 83.8486 638.163 83.7865 638.001 83.8092C637.84 83.7865 637.675 83.8486 637.635 84.0337C637.354 85.3322 636.909 86.6366 635.872 87.6364C635.087 88.3938 633.756 88.5013 633.022 89.2192C632.996 89.2443 632.993 89.2837 633.015 89.3136C632.993 89.3434 632.996 89.3816 633.022 89.4079C633.309 89.6898 633.767 89.8093 634.145 89.9873C634.786 90.2895 635.345 90.5344 635.874 90.9919C636.946 91.92 637.365 93.3415 637.636 94.5934C637.676 94.7785 637.84 94.8407 638.002 94.818C638.164 94.8407 638.328 94.7785 638.368 94.5934C638.648 93.2961 639.092 91.9917 640.128 90.9919C640.913 90.2345 642.244 90.127 642.978 89.4091C643.004 89.384 643.007 89.3446 642.985 89.3147C643.006 89.2849 643.002 89.2455 642.977 89.2192ZM639.531 90.1187C638.816 90.6622 638.3 91.3538 637.987 92.11C637.698 91.4565 637.26 90.8473 636.674 90.2943C636.333 89.9729 635.755 89.5704 635.128 89.3052C635.652 89.0758 636.136 88.7581 636.466 88.5073C637.183 87.9637 637.697 87.2721 638.012 86.516C638.3 87.1694 638.738 87.7786 639.325 88.3316C639.664 88.653 640.242 89.0555 640.869 89.3207C640.345 89.5501 639.861 89.869 639.531 90.1187Z" fill="#00B2B5"/>
<path opacity="0.3" d="M527.284 29.3777C527.192 28.908 526.834 28.5222 526.589 28.1164C526.174 27.428 525.8 26.8477 525.592 26.0533C525.17 24.4377 525.684 22.6407 526.231 21.1148C526.312 20.8891 526.196 20.7299 526.028 20.6646C525.889 20.5502 525.693 20.5268 525.536 20.7082C524.437 21.9795 523.177 23.1657 521.552 23.6884C520.32 24.0844 518.987 23.4627 517.829 23.8436C517.789 23.8567 517.761 23.8985 517.763 23.9422C517.724 23.9615 517.701 24.0064 517.71 24.0485C517.802 24.5181 518.16 24.9039 518.405 25.3098C518.82 25.9982 519.194 26.5785 519.403 27.3736C519.827 28.99 519.313 30.7857 518.768 32.3123C518.687 32.538 518.803 32.6973 518.971 32.7625C519.109 32.8769 519.306 32.9003 519.463 32.719C520.561 31.4489 521.819 30.262 523.444 29.7385C524.675 29.3425 526.01 29.965 527.167 29.582C527.208 29.5689 527.236 29.5271 527.233 29.4834C527.27 29.4659 527.292 29.4211 527.284 29.3777ZM523.436 28.4516C522.408 28.6516 521.475 29.1252 520.692 29.7821C520.837 28.9034 520.811 27.9899 520.61 27.0563C520.492 26.5135 520.202 25.75 519.778 25.1107C520.422 25.1498 521.086 25.0696 521.56 24.9773C522.589 24.7781 523.521 24.3038 524.305 23.6476C524.16 24.5264 524.185 25.4391 524.387 26.3747C524.503 26.9168 524.794 27.679 525.22 28.319C524.573 28.2784 523.91 28.3594 523.436 28.4516Z" fill="#00B2B5"/>
<path opacity="0.3" d="M16.9608 80.1224C16.4723 79.584 15.6939 79.3559 15.051 79.016C13.9617 78.4388 13.0103 77.9712 12.1151 77.0998C10.2941 75.3273 9.58112 72.6103 9.12296 70.2196C9.05517 69.866 8.777 69.7474 8.50117 69.7908C8.22767 69.7474 7.94717 69.866 7.87938 70.2196C7.40251 72.6993 6.64514 75.1904 4.88261 77.0998C3.54786 78.5461 1.28509 78.7514 0.0368314 80.1224C-0.00758237 80.1703 -0.0122582 80.2456 0.0251429 80.3003C-0.0122582 80.3551 -0.00758237 80.4303 0.0368314 80.4782C0.525383 81.0166 1.30379 81.2447 1.94663 81.5846C3.03593 82.1618 3.98732 82.6294 4.88495 83.5009C6.70825 85.2734 7.42121 87.988 7.88171 90.3787C7.9495 90.7323 8.22767 90.8509 8.50351 90.8076C8.777 90.8509 9.05751 90.7323 9.1253 90.3787C9.60216 87.9013 10.3572 85.4102 12.1174 83.5009C13.4521 82.0546 15.7172 81.8493 16.9632 80.476C17.0076 80.4281 17.0123 80.3528 16.9749 80.298C17.0099 80.2478 17.0052 80.1726 16.9608 80.1224ZM11.1052 81.8401C9.88968 82.8781 9.0131 84.1989 8.48013 85.6429C7.98924 84.3951 7.24356 83.2317 6.24775 82.1755C5.66803 81.5618 4.68626 80.793 3.62266 80.2866C4.51328 79.8486 5.3361 79.2418 5.89712 78.7628C7.11499 77.7248 7.98924 76.404 8.52454 74.96C9.01543 76.2078 9.75878 77.3712 10.7569 78.4297C11.3343 79.0434 12.3161 79.8098 13.382 80.3163C12.4867 80.7543 11.6662 81.3611 11.1052 81.8401Z" fill="#00B2B5"/>
<path opacity="0.3" d="M1023.07 87.9783C1022.7 87.5524 1022.1 87.3719 1021.6 87.1031C1020.76 86.6465 1020.03 86.2766 1019.34 85.5873C1017.93 84.1852 1017.39 82.0361 1017.03 80.145C1016.98 79.8671 1016.77 79.7732 1016.56 79.8057C1016.34 79.7696 1016.13 79.8635 1016.07 80.145C1015.71 82.1064 1015.12 84.0769 1013.76 85.5873C1012.73 86.7313 1010.99 86.8938 1010.03 87.9783C1009.99 88.0161 1009.99 88.0757 1010.02 88.119C1009.99 88.1623 1010 88.2219 1010.03 88.2598C1010.4 88.6856 1011.01 88.8679 1011.5 89.1349C1012.34 89.5915 1013.07 89.9614 1013.76 90.6507C1015.17 92.0528 1015.72 94.2001 1016.07 96.0912C1016.12 96.3727 1016.34 96.4666 1016.56 96.4305C1016.77 96.463 1016.98 96.3691 1017.03 96.0912C1017.4 94.1316 1017.98 92.1611 1019.34 90.6507C1020.37 89.5067 1022.11 89.3442 1023.07 88.2579C1023.11 88.2201 1023.11 88.1605 1023.08 88.1172C1023.11 88.0757 1023.11 88.0161 1023.07 87.9783ZM1018.56 89.337C1017.62 90.1581 1016.95 91.2029 1016.54 92.3451C1016.16 91.3581 1015.58 90.4378 1014.82 89.6023C1014.37 89.1169 1013.61 88.5106 1012.79 88.11C1013.48 87.7635 1014.11 87.2835 1014.54 86.9046C1015.48 86.0835 1016.16 85.0387 1016.57 83.8947C1016.95 84.8817 1017.52 85.8038 1018.29 86.6393C1018.74 87.1247 1019.49 87.731 1020.31 88.1316C1019.63 88.4781 1018.99 88.9581 1018.56 89.337Z" fill="#00B2B5"/>
<path opacity="0.3" d="M1039.18 94.1948C1039.15 93.823 1038.9 93.4953 1038.74 93.162C1038.47 92.5955 1038.23 92.1167 1038.13 91.4841C1037.92 90.1981 1038.46 88.8482 1039 87.7102C1039.08 87.5428 1039.01 87.4109 1038.88 87.3459C1038.78 87.2445 1038.63 87.2106 1038.5 87.3388C1037.55 88.2352 1036.48 89.0529 1035.17 89.3272C1034.19 89.5351 1033.2 88.9465 1032.28 89.1486C1032.24 89.1554 1032.22 89.1856 1032.22 89.2197C1032.18 89.2314 1032.16 89.2651 1032.17 89.2977C1032.2 89.6688 1032.45 89.9981 1032.61 90.3305C1032.88 90.897 1033.12 91.3765 1033.22 92.0084C1033.43 93.2944 1032.89 94.644 1032.35 95.7827C1032.27 95.952 1032.35 96.086 1032.47 96.1491C1032.57 96.2479 1032.72 96.2804 1032.86 96.1542C1033.81 95.2586 1034.87 94.4403 1036.17 94.1653C1037.16 93.9567 1038.15 94.546 1039.08 94.3429C1039.11 94.3361 1039.13 94.306 1039.13 94.2719C1039.17 94.2617 1039.19 94.2281 1039.18 94.1948ZM1036.27 93.1686C1035.46 93.241 1034.7 93.5336 1034.04 93.9789C1034.22 93.3098 1034.27 92.6002 1034.18 91.8602C1034.13 91.4304 1033.97 90.8166 1033.69 90.2874C1034.18 90.3694 1034.71 90.3606 1035.08 90.3272C1035.89 90.2548 1036.65 89.9629 1037.31 89.5167C1037.13 90.1857 1037.08 90.8956 1037.17 91.6356C1037.21 92.0647 1037.38 92.6785 1037.66 93.2084C1037.16 93.1256 1036.64 93.1352 1036.27 93.1686Z" fill="#00B2B5"/>
<g opacity="0.3">
<path d="M1052.56 47.0311C1048.1 45.7129 1043.1 48.479 1041.88 52.9639C1040.57 57.8176 1042.85 62.617 1047.69 64.2077C1052.44 65.7681 1057.13 63.0761 1058.83 58.5838C1058.86 58.5464 1058.87 58.5051 1058.89 58.4565C1058.91 58.4088 1058.91 58.3624 1058.92 58.3172C1060.24 53.3094 1057.57 48.5126 1052.56 47.0311ZM1042.6 55.0046C1042.85 50.5548 1046.73 47.616 1051 47.8613C1056.06 48.1526 1059.16 53.3877 1057.87 58.0359C1054.76 66.6039 1042.08 64.242 1042.6 55.0046Z" fill="#00B2B5"/>
<path d="M1040.29 56.8645C1039.87 56.6939 1039.47 56.9686 1039.36 57.3665C1039.27 57.6917 1039.49 58.0386 1039.79 58.1511C1040.08 58.2563 1040.34 58.1636 1040.52 57.9701C1040.6 57.911 1040.66 57.8292 1040.69 57.7201C1040.73 57.628 1040.73 57.5279 1040.71 57.4318C1040.68 57.1844 1040.53 56.9659 1040.29 56.8645ZM1039.62 57.474C1039.62 57.4931 1039.62 57.5102 1039.62 57.5283C1039.62 57.5245 1039.61 57.5207 1039.61 57.5161C1039.62 57.5026 1039.62 57.4883 1039.62 57.474Z" fill="#00B2B5"/>
<path d="M1061.03 53.1986C1060.68 53.0557 1060.23 53.2479 1060.13 53.617C1060.03 53.9752 1060.17 54.351 1060.53 54.4855C1060.82 54.592 1061.08 54.4963 1061.27 54.2972C1061.34 54.2392 1061.4 54.1603 1061.43 54.0567C1061.47 53.9638 1061.47 53.8642 1061.45 53.768C1061.42 53.52 1061.27 53.2993 1061.03 53.1986ZM1060.36 53.8073C1060.36 53.8264 1060.36 53.8435 1060.36 53.8617C1060.36 53.8578 1060.36 53.854 1060.35 53.8502C1060.36 53.8367 1060.36 53.8216 1060.36 53.8073Z" fill="#00B2B5"/>
<path d="M1048.35 45.9389C1048.44 45.9789 1048.55 45.9834 1048.64 45.9588C1048.89 45.9293 1049.11 45.7827 1049.21 45.5377C1049.38 45.1264 1049.11 44.7207 1048.71 44.6129C1048.38 44.5254 1048.04 44.7391 1047.93 45.0455C1047.82 45.3349 1047.91 45.5935 1048.11 45.7782C1048.17 45.8498 1048.25 45.9065 1048.35 45.9389ZM1048.6 44.8712C1048.58 44.8687 1048.57 44.8701 1048.55 44.8691C1048.55 44.8675 1048.55 44.866 1048.56 44.8641C1048.57 44.867 1048.59 44.8688 1048.6 44.8712Z" fill="#00B2B5"/>
<path d="M1052.46 65.4121C1052.1 65.3148 1051.72 65.4535 1051.59 65.822C1051.48 66.1082 1051.57 66.3632 1051.77 66.5472C1051.82 66.624 1051.91 66.6843 1052.02 66.717C1052.11 66.7561 1052.21 66.7599 1052.31 66.7345C1052.55 66.7035 1052.77 66.5589 1052.87 66.3139C1053.02 65.9688 1052.82 65.513 1052.46 65.4121ZM1052.26 65.6485C1052.24 65.646 1052.23 65.6478 1052.21 65.6468C1052.21 65.6449 1052.22 65.6433 1052.22 65.6414C1052.24 65.6435 1052.25 65.6456 1052.26 65.6485Z" fill="#00B2B5"/>
<path d="M1041.81 50.296C1041.89 50.3016 1041.97 50.2905 1042.04 50.2564C1042.05 50.2561 1042.05 50.2566 1042.05 50.2563C1042.05 50.2556 1042.05 50.2553 1042.05 50.255C1042.06 50.2504 1042.07 50.2466 1042.08 50.2418C1042.15 50.2117 1042.22 50.1606 1042.27 50.0958C1042.48 49.862 1042.55 49.4813 1042.33 49.2205C1042.12 48.9699 1041.78 48.8342 1041.47 49.0067C1041.15 49.1901 1040.98 49.5547 1041.15 49.9103C1041.28 50.1963 1041.54 50.3102 1041.81 50.296ZM1041.5 49.3126C1041.48 49.3238 1041.47 49.3361 1041.46 49.3474C1041.46 49.3445 1041.46 49.342 1041.47 49.3388C1041.48 49.331 1041.49 49.3218 1041.5 49.3126Z" fill="#00B2B5"/>
<path d="M1058.73 61.1058C1058.41 61.2922 1058.24 61.6516 1058.41 62.0094C1058.54 62.2957 1058.79 62.408 1059.07 62.3939C1059.15 62.4 1059.22 62.3889 1059.3 62.3552C1059.3 62.3549 1059.3 62.3546 1059.31 62.3543C1059.31 62.3536 1059.31 62.3533 1059.31 62.353C1059.32 62.3492 1059.33 62.3454 1059.34 62.3408C1059.41 62.3101 1059.48 62.2579 1059.53 62.1929C1059.74 61.9582 1059.81 61.5801 1059.59 61.3193C1059.38 61.071 1059.03 60.931 1058.73 61.1058ZM1058.76 61.4117C1058.74 61.4229 1058.73 61.4348 1058.72 61.4454C1058.72 61.4433 1058.72 61.4403 1058.72 61.4379C1058.73 61.429 1058.75 61.4198 1058.76 61.4117Z" fill="#00B2B5"/>
<path d="M1056.15 46.4036C1055.87 46.5358 1055.76 46.7945 1055.77 47.0707C1055.76 47.1455 1055.78 47.223 1055.81 47.3005C1055.81 47.3013 1055.81 47.302 1055.81 47.3036C1055.81 47.3051 1055.81 47.3066 1055.81 47.3081C1055.82 47.3173 1055.82 47.3257 1055.82 47.3338C1055.85 47.4107 1055.9 47.4736 1055.97 47.5222C1056.2 47.7354 1056.58 47.8026 1056.84 47.5875C1057.09 47.3822 1057.23 47.0309 1057.06 46.7287C1056.87 46.406 1056.51 46.2393 1056.15 46.4036ZM1056.75 46.7537C1056.74 46.7392 1056.73 46.7299 1056.72 46.7176C1056.72 46.7185 1056.72 46.7194 1056.72 46.7203C1056.73 46.7317 1056.74 46.7431 1056.75 46.7537Z" fill="#00B2B5"/>
<path d="M1044.07 63.6905C1043.79 63.8228 1043.67 64.0796 1043.69 64.3562C1043.68 64.431 1043.69 64.5088 1043.73 64.5878C1043.73 64.5886 1043.73 64.5896 1043.73 64.5912C1043.73 64.5927 1043.73 64.5942 1043.73 64.5957C1043.73 64.6049 1043.74 64.6125 1043.74 64.6214C1043.77 64.6991 1043.82 64.7627 1043.89 64.8114C1044.12 65.0221 1044.5 65.0905 1044.76 64.8748C1045.01 64.668 1045.15 64.3197 1044.98 64.0152C1044.79 63.6922 1044.43 63.5262 1044.07 63.6905ZM1044.67 64.0414C1044.66 64.027 1044.65 64.0172 1044.64 64.0049C1044.64 64.0058 1044.64 64.0074 1044.64 64.008C1044.65 64.0186 1044.66 64.0293 1044.67 64.0414Z" fill="#00B2B5"/>
<path d="M1040.48 53.8781C1040.56 53.8465 1040.62 53.7975 1040.67 53.7276C1040.68 53.7217 1040.68 53.7153 1040.69 53.709C1040.69 53.7087 1040.69 53.7076 1040.69 53.7065C1040.69 53.7065 1040.69 53.7062 1040.69 53.7054C1040.74 53.6394 1040.77 53.569 1040.78 53.4967C1040.86 53.2749 1040.83 53.0632 1040.67 52.8389C1040.43 52.4985 1039.86 52.528 1039.62 52.8413C1039.14 53.4518 1039.86 54.2254 1040.48 53.8781ZM1039.95 52.913C1039.95 52.9131 1039.95 52.9125 1039.95 52.9123C1039.94 52.9217 1039.93 52.9285 1039.91 52.9386C1039.92 52.9302 1039.94 52.9214 1039.95 52.913Z" fill="#00B2B5"/>
<path d="M1060.13 57.6221C1059.65 58.2313 1060.37 59.0039 1060.99 58.6599C1061.07 58.6287 1061.14 58.5786 1061.18 58.5079C1061.19 58.5012 1061.19 58.4956 1061.2 58.4882C1061.2 58.4879 1061.2 58.4876 1061.2 58.4868L1061.2 58.4857C1061.25 58.4194 1061.28 58.3479 1061.3 58.2744C1061.37 58.0529 1061.34 57.8428 1061.18 57.6185C1060.94 57.2788 1060.38 57.3099 1060.13 57.6221ZM1060.46 57.6948C1060.46 57.6942 1060.46 57.6943 1060.47 57.6941C1060.45 57.7035 1060.44 57.7103 1060.42 57.7204C1060.44 57.712 1060.45 57.7033 1060.46 57.6948Z" fill="#00B2B5"/>
<path d="M1052.34 45.9257C1052.35 45.9298 1052.35 45.9339 1052.36 45.9379C1052.36 45.9391 1052.36 45.9404 1052.36 45.9416C1052.36 45.942 1052.36 45.9425 1052.36 45.9432C1052.43 45.9926 1052.5 46.0235 1052.57 46.037C1052.79 46.112 1053 46.0845 1053.23 45.9234C1053.57 45.6786 1053.54 45.1173 1053.23 44.8693C1052.62 44.3866 1051.84 45.1137 1052.19 45.7369C1052.22 45.8121 1052.27 45.8786 1052.34 45.9257ZM1053.15 45.2012C1053.15 45.203 1053.15 45.2045 1053.15 45.2056C1053.14 45.1924 1053.14 45.1782 1053.13 45.1645C1053.14 45.1762 1053.15 45.1887 1053.15 45.2012Z" fill="#00B2B5"/>
<path d="M1047.42 66.2895C1047.45 66.3639 1047.5 66.4285 1047.57 66.4763C1047.58 66.4804 1047.58 66.4837 1047.58 66.4881C1047.59 66.489 1047.59 66.4912 1047.59 66.4921C1047.59 66.4934 1047.59 66.493 1047.59 66.4942C1047.66 66.5424 1047.72 66.5724 1047.79 66.5869C1048.02 66.6638 1048.23 66.6362 1048.46 66.474C1048.79 66.2302 1048.77 65.6647 1048.46 65.4191C1047.84 64.9421 1047.07 65.6658 1047.42 66.2895ZM1048.38 65.751C1048.38 65.7525 1048.38 65.7536 1048.38 65.7551C1048.38 65.7419 1048.37 65.7277 1048.36 65.7143C1048.37 65.7268 1048.37 65.7385 1048.38 65.751Z" fill="#00B2B5"/>
<path d="M1044.65 47.3753C1044.73 47.4113 1044.82 47.4265 1044.91 47.4027C1044.92 47.4011 1044.92 47.3992 1044.93 47.3984C1045.01 47.3858 1045.08 47.3558 1045.14 47.3121C1045.39 47.182 1045.56 46.9567 1045.52 46.6387C1045.48 46.2815 1045.15 45.9872 1044.78 46.03C1044.01 46.1192 1043.96 47.1796 1044.65 47.3753ZM1044.96 46.3162C1044.96 46.3174 1044.96 46.3179 1044.96 46.3191C1044.95 46.3166 1044.93 46.3121 1044.92 46.3099C1044.93 46.3122 1044.94 46.3142 1044.96 46.3162Z" fill="#00B2B5"/>
<path d="M1055.91 63.9414C1055.53 63.9887 1055.27 64.2886 1055.28 64.6723C1055.29 64.971 1055.52 65.2158 1055.79 65.2913C1055.87 65.3226 1055.96 65.3345 1056.05 65.3137C1056.06 65.3109 1056.07 65.3051 1056.08 65.3015C1056.14 65.2888 1056.2 65.268 1056.25 65.2381C1056.51 65.1117 1056.69 64.8774 1056.65 64.5512C1056.61 64.1956 1056.28 63.8953 1055.91 63.9414ZM1056.09 64.2284C1056.09 64.2284 1056.09 64.2284 1056.09 64.2288C1056.08 64.2264 1056.07 64.2219 1056.05 64.2206C1056.07 64.2236 1056.08 64.2264 1056.09 64.2284Z" fill="#00B2B5"/>
<path d="M1059.3 49.4111C1059 49.4189 1058.76 49.6421 1058.68 49.9185C1058.65 49.9991 1058.64 50.0867 1058.66 50.1749C1058.66 50.1832 1058.66 50.1905 1058.67 50.1988C1058.68 50.2723 1058.7 50.3359 1058.74 50.3911C1058.87 50.6439 1059.1 50.8225 1059.42 50.7823C1059.78 50.7376 1060.07 50.4095 1060.03 50.0417C1059.99 49.6575 1059.68 49.4012 1059.3 49.4111ZM1059.74 50.2185C1059.74 50.2188 1059.74 50.2199 1059.74 50.221C1059.74 50.2074 1059.75 50.1959 1059.75 50.1816C1059.75 50.1936 1059.75 50.206 1059.74 50.2185Z" fill="#00B2B5"/>
<path d="M1040.8 61.06C1040.76 61.1437 1040.75 61.2341 1040.77 61.3262C1040.77 61.3303 1040.77 61.3341 1040.78 61.3379C1040.79 61.4232 1040.82 61.4973 1040.86 61.5597C1040.99 61.8034 1041.22 61.9738 1041.54 61.9336C1041.89 61.8893 1042.19 61.5606 1042.14 61.1931C1042.05 60.4238 1041 60.3721 1040.8 61.06ZM1041.86 61.3694C1041.86 61.3708 1041.86 61.3719 1041.85 61.3733C1041.86 61.3598 1041.86 61.3471 1041.86 61.3328C1041.86 61.3453 1041.86 61.3577 1041.86 61.3694Z" fill="#00B2B5"/>
<path d="M1050.85 50.0287C1049.76 50.247 1048.66 50.1923 1047.93 51.0795C1046.7 52.5807 1046.25 52.8004 1046.57 54.7341C1046.61 55.0182 1046.88 55.2664 1047.18 55.2124C1047.61 55.1366 1048.04 55.0598 1048.47 54.984C1048.65 56.0143 1048.83 57.0445 1049.01 58.0739C1048.6 58.1469 1048.19 58.2195 1047.77 58.2932C1047.49 58.3432 1047.24 58.6017 1047.3 58.9083C1047.43 59.6479 1047.57 60.3878 1047.71 61.1253C1047.77 61.4059 1048.02 61.6609 1048.33 61.6036C1050.32 61.2367 1052.31 60.8641 1054.3 60.5065C1054.59 60.4547 1054.83 60.1997 1054.78 59.8915C1054.67 59.1983 1054.57 58.5045 1054.45 57.813C1054.4 57.5187 1054.15 57.2949 1053.84 57.3346C1053.45 57.3848 1053.07 57.4347 1052.69 57.4856C1052.28 55.1595 1051.87 52.833 1051.46 50.5071C1051.41 50.2291 1051.15 49.9677 1050.85 50.0287ZM1048.59 52.0078C1049.13 51.3531 1049.64 51.3332 1050.47 51.2097C1050.88 53.5291 1051.28 55.8486 1051.69 58.1683C1051.74 58.4624 1052 58.6871 1052.31 58.6467C1052.69 58.597 1053.07 58.5473 1053.45 58.4972C1053.5 58.8366 1053.55 59.1756 1053.61 59.516C1051.97 59.8118 1050.33 60.1143 1048.7 60.4176C1048.62 60.0399 1048.55 59.6626 1048.48 59.2847C1048.89 59.2119 1049.3 59.1391 1049.71 59.0664C1049.78 59.0545 1049.84 59.0315 1049.89 59.0026C1050.09 58.9219 1050.24 58.7331 1050.19 58.451C1049.94 57.061 1049.7 55.6703 1049.46 54.2776C1049.42 53.9934 1049.15 53.7453 1048.85 53.7992C1048.41 53.8778 1047.96 53.956 1047.52 54.0343C1047.45 53.7507 1047.39 53.4705 1047.48 53.3704C1047.85 52.9164 1048.22 52.4623 1048.59 52.0078Z" fill="#00B2B5"/>
<path d="M1055.21 26.1907C1055.19 24.1076 1054.76 22.0373 1054.4 19.9923C1053.96 17.4807 1053.61 14.8991 1052.97 12.4306C1052.17 9.34627 1048.4 10.4538 1046.22 10.8403C1043.14 11.384 1040.07 11.928 1037 12.4735C1033.47 13.2599 1033.08 15.3014 1033.63 18.5487C1034.04 21.0243 1034.44 23.5024 1034.91 25.9683C1035.21 27.5756 1035.47 29.5022 1036.43 30.8762C1037.67 32.6519 1039.94 33.8038 1042.1 34.7988C1041.57 37.2428 1042.63 39.601 1044.88 40.6302C1044.82 40.7582 1044.75 40.8867 1044.68 41.0155C1043.39 40.4479 1042.07 39.9518 1040.69 39.6045C1040.4 39.5289 1040.12 39.8054 1040.07 40.0754C1039.83 41.4902 1039.67 42.9106 1039.53 44.3389C1038.14 44.3089 1036.75 44.3436 1035.37 44.5476C1035.1 44.5882 1034.83 44.8649 1034.9 45.1627C1035.21 46.5833 1035.61 47.9746 1036.04 49.3664C1034.72 49.8796 1033.43 50.4643 1032.21 51.1938C1031.95 51.3534 1031.96 51.7452 1032.12 51.967C1032.94 53.1405 1033.83 54.2527 1034.74 55.3597C1033.73 56.3244 1032.77 57.3368 1031.94 58.4554C1031.77 58.6805 1031.79 59.0648 1032.05 59.227C1033.27 60.0053 1034.54 60.7019 1035.82 61.3863C1035.25 62.6813 1034.75 64.0018 1034.4 65.3746C1034.33 65.6741 1034.6 65.9477 1034.87 65.995C1036.29 66.2422 1037.71 66.398 1039.13 66.538C1039.1 67.9282 1039.13 69.3217 1039.34 70.6984C1039.38 70.9731 1039.65 71.2431 1039.95 71.1768C1041.37 70.8596 1042.76 70.4547 1044.15 70.0329C1044.66 71.3526 1045.24 72.6404 1045.97 73.856C1046.13 74.1225 1046.52 74.1077 1046.74 73.9523C1047.92 73.1287 1049.03 72.2348 1050.13 71.3262C1051.1 72.3312 1052.11 73.2914 1053.22 74.1243C1053.45 74.2921 1053.83 74.2734 1053.99 74.0182C1054.77 72.7904 1055.47 71.5226 1056.15 70.2421C1057.45 70.8097 1058.76 71.3059 1060.14 71.6531C1060.43 71.7287 1060.71 71.4522 1060.76 71.1823C1061 69.7671 1061.16 68.347 1061.3 66.919C1062.69 66.949 1064.08 66.9143 1065.46 66.71C1065.73 66.6694 1066 66.393 1065.94 66.095C1065.62 64.675 1065.22 63.283 1064.8 61.8923C1066.11 61.3791 1067.4 60.7944 1068.62 60.0642C1068.88 59.9045 1068.87 59.5135 1068.71 59.291C1067.89 58.1171 1067 57.0052 1066.09 55.8983C1067.1 54.9327 1068.06 53.9211 1068.89 52.8023C1069.06 52.5763 1069.04 52.1929 1068.78 52.0307C1067.56 51.2515 1066.29 50.5558 1065.01 49.8721C1065.58 48.5771 1066.08 47.2563 1066.43 45.883C1066.5 45.5835 1066.23 45.3099 1065.96 45.2626C1064.54 45.0154 1063.13 44.8604 1061.7 44.72C1061.73 43.3295 1061.7 41.9362 1061.49 40.5588C1061.45 40.2844 1061.18 40.0141 1060.88 40.0804C1059.46 40.3983 1058.07 40.8024 1056.68 41.2246C1056.17 39.9049 1055.58 38.6171 1054.86 37.4018C1054.7 37.1353 1054.31 37.1501 1054.09 37.3055C1052.91 38.1284 1051.8 39.0222 1050.69 39.9317C1050.62 39.851 1050.54 39.7703 1050.46 39.6903C1052.23 37.8807 1052.47 35.2088 1051.03 33.1169C1052.87 31.1648 1055.24 29.0571 1055.21 26.1907ZM1051.48 23.4387C1049.65 26.35 1047.7 29.1811 1045.74 32.0011C1045.51 31.9526 1045.27 31.8554 1045.03 31.732C1047.17 28.6697 1049.3 25.5953 1051.3 22.4344C1051.36 22.7631 1051.42 23.1002 1051.48 23.4387ZM1051.59 24.4883C1051.63 25.3688 1051.52 26.2274 1051.02 26.964C1050.49 27.7416 1049.81 28.4368 1049.19 29.1365C1048.66 29.7271 1047.61 31.2348 1046.67 31.8086C1048.35 29.3955 1050.01 26.9686 1051.59 24.4883ZM1037.13 13.5664C1037.49 13.5026 1037.85 13.4392 1038.21 13.3761C1037.7 14.1503 1037.16 14.9095 1036.62 15.665C1036.52 15.0465 1036.42 14.428 1036.31 13.8095C1036.56 13.7179 1036.82 13.6347 1037.13 13.5664ZM1036.78 16.5858C1037.57 15.4779 1038.36 14.3686 1039.09 13.2192C1039.43 13.1592 1039.77 13.0985 1040.11 13.0386C1039.11 14.602 1038.03 16.12 1036.96 17.6337C1036.9 17.2839 1036.84 16.934 1036.78 16.5858ZM1037.45 20.5098C1039.32 17.8866 1041.21 15.2692 1042.92 12.541C1043.26 12.4807 1043.6 12.4201 1043.94 12.3591C1041.96 15.4983 1039.79 18.5249 1037.63 21.5498C1037.57 21.2043 1037.51 20.8574 1037.45 20.5098ZM1037.8 22.4581C1040.2 19.0839 1042.64 15.7194 1044.82 12.2039C1045.17 12.1435 1045.51 12.0823 1045.85 12.0211C1043.39 15.9445 1040.67 19.7155 1037.99 23.489C1037.92 23.146 1037.86 22.8022 1037.8 22.4581ZM1038.19 24.5827C1038.18 24.5196 1038.17 24.4563 1038.15 24.3932C1041.08 20.284 1044.05 16.1891 1046.71 11.9031C1046.72 11.8896 1046.72 11.8749 1046.72 11.8605C1047.08 11.7895 1047.44 11.7105 1047.81 11.6348C1044.85 16.3533 1041.58 20.8844 1038.35 25.4216C1038.29 25.1408 1038.24 24.8594 1038.19 24.5827ZM1038.53 26.295C1042 21.4211 1045.53 16.5621 1048.69 11.4784C1048.9 11.4464 1049.12 11.4252 1049.34 11.4108C1049.36 11.5204 1049.38 11.6311 1049.4 11.7407C1046.1 17.04 1042.43 22.1167 1038.81 27.1997C1038.7 26.9084 1038.61 26.6053 1038.53 26.295ZM1051.13 21.4781C1049.02 24.863 1046.73 28.1421 1044.45 31.4091C1044.22 31.2746 1044 31.1392 1043.81 31.0254C1046.25 27.5553 1048.69 24.073 1050.96 20.4854C1051.01 20.8165 1051.07 21.1471 1051.13 21.4781ZM1050.79 19.5257C1048.41 23.3417 1045.81 27.0309 1043.23 30.7099C1043 30.5956 1042.78 30.477 1042.56 30.3595C1045.31 26.4678 1048.07 22.5703 1050.62 18.5401C1050.68 18.8683 1050.73 19.1971 1050.79 19.5257ZM1050.45 17.574C1047.79 21.8367 1044.87 25.9455 1041.97 30.0492C1041.75 29.9295 1041.54 29.8009 1041.32 29.6776C1044.38 25.3644 1047.46 21.0489 1050.28 16.5734C1050.33 16.9073 1050.39 17.2409 1050.45 17.574ZM1050.1 15.6166C1047.18 20.3172 1043.94 24.8333 1040.74 29.349C1040.61 29.2727 1040.48 29.2018 1040.35 29.1241C1040.26 29.0719 1040.18 29.0154 1040.1 28.9583C1043.45 24.2406 1046.85 19.5276 1049.92 14.6225C1049.98 14.9535 1050.04 15.2849 1050.1 15.6166ZM1049.75 13.6657C1046.59 18.7586 1043.07 23.6349 1039.61 28.5178C1039.42 28.3213 1039.27 28.106 1039.14 27.8795C1042.7 22.8813 1046.3 17.8915 1049.57 12.6957C1049.63 13.0191 1049.69 13.3426 1049.75 13.6657ZM1042.03 12.6987C1040.53 15.0483 1038.91 17.3251 1037.29 19.5972C1037.23 19.2485 1037.17 18.9005 1037.11 18.5518C1038.44 16.6861 1039.78 14.8242 1041 12.8816C1041.33 12.8224 1041.67 12.7626 1042 12.703C1042.01 12.7015 1042.02 12.6995 1042.03 12.6987ZM1043.13 35.2703C1043.41 35.3982 1043.68 35.5241 1043.94 35.6499C1043.79 37.1109 1044.55 38.3593 1045.86 38.8763C1045.71 39.1354 1045.56 39.3958 1045.42 39.657C1043.63 38.8654 1042.84 37.1565 1043.13 35.2703ZM1048.83 35.4563C1049.07 36.2246 1048.81 37.0494 1048.18 37.5864C1047.99 37.4341 1047.8 37.2783 1047.61 37.133C1047.38 36.9652 1047 36.9831 1046.84 37.2391C1046.7 37.4599 1046.56 37.6848 1046.43 37.9082C1045.59 37.6612 1045.1 36.9963 1045.04 36.1709C1046.66 36.8523 1047.78 36.3911 1048.83 35.4563ZM1051.22 40.928C1052.09 40.2105 1052.96 39.5013 1053.86 38.8267C1053.58 40.1067 1053.29 41.3856 1053 42.6657C1051.46 42.3087 1049.92 42.2578 1048.44 42.4699C1048.21 41.2017 1047.99 39.9336 1047.77 38.6647C1048.62 39.3743 1049.41 40.1488 1050.16 40.9571C1050.38 41.1861 1050.67 41.1783 1050.89 41.0532C1051 41.0531 1051.11 41.017 1051.22 40.928ZM1060.6 45.0603C1060.59 45.3722 1060.8 45.5759 1061.04 45.6446C1061.11 45.7217 1061.22 45.7773 1061.36 45.7906C1062.48 45.9007 1063.6 46.0179 1064.72 46.1797C1063.58 46.8996 1062.45 47.6195 1061.31 48.3386C1060.47 47.1037 1059.43 46.0019 1058.19 45.0836C1058.97 43.9712 1059.75 42.8582 1060.53 41.7454C1060.63 42.8468 1060.64 43.9546 1060.6 45.0603ZM1065.07 55.3653C1064.84 55.5802 1064.85 55.8734 1064.97 56.0893C1064.97 56.1967 1065.01 56.3104 1065.1 56.4185C1065.81 57.2908 1066.52 58.1655 1067.19 59.0681C1065.92 58.7816 1064.65 58.4954 1063.38 58.2088C1063.65 56.6602 1063.65 55.1283 1063.42 53.661C1064.73 53.4286 1066.05 53.1952 1067.36 52.962C1066.65 53.8126 1065.88 54.6052 1065.07 55.3653ZM1061.99 59.364C1059.85 65.4916 1054.29 68.6675 1047.93 67.5989C1041.01 66.4378 1037.32 59.665 1038.51 53.0849C1039.72 46.3719 1046.26 42.5588 1052.72 43.7488C1059.87 45.0645 1063.98 52.598 1061.99 59.364ZM1045.01 69.2165C1044.89 68.8855 1044.57 68.8248 1044.32 68.9272C1044.22 68.9003 1044.12 68.8975 1044 68.933C1042.97 69.2483 1041.94 69.5563 1040.89 69.8242C1041.61 68.8004 1042.32 67.7774 1043.04 66.7536C1044.06 67.4258 1045.18 67.9703 1046.4 68.3545C1046.65 68.4348 1046.91 68.5051 1047.16 68.5694C1046.89 69.7999 1046.61 71.03 1046.33 72.2608C1045.82 71.2783 1045.4 70.25 1045.01 69.2165ZM1040.23 66.1959C1040.24 65.8841 1040.03 65.6803 1039.8 65.6116C1039.72 65.5345 1039.61 65.4792 1039.48 65.4656C1038.35 65.3566 1037.23 65.2383 1036.11 65.0765C1037.18 64.3992 1038.25 63.7238 1039.32 63.0472C1040.17 64.3215 1041.24 65.4514 1042.5 66.3766C1041.77 67.4209 1041.04 68.4662 1040.31 69.5111C1040.21 68.4092 1040.2 67.3016 1040.23 66.1959ZM1035.76 55.892C1035.99 55.6771 1035.98 55.3828 1035.86 55.1673C1035.86 55.0599 1035.82 54.947 1035.73 54.8381C1035.02 53.9658 1034.31 53.091 1033.64 52.1877C1034.89 52.469 1036.14 52.7507 1037.39 53.032C1037.07 54.5869 1037.03 56.1358 1037.24 57.6245C1035.99 57.8476 1034.73 58.0699 1033.47 58.2922C1034.18 57.4433 1034.95 56.6526 1035.76 55.892ZM1057.65 44.7021C1056.62 44.0053 1055.47 43.4288 1054.21 43.0057C1054.02 42.941 1053.83 42.8838 1053.64 42.8294C1053.93 41.5512 1054.21 40.2741 1054.5 38.9962C1055.01 39.9787 1055.43 41.007 1055.82 42.0405C1055.95 42.3715 1056.26 42.433 1056.51 42.3295C1056.61 42.3556 1056.72 42.3591 1056.83 42.3236C1057.87 42.0084 1058.9 41.7004 1059.94 41.4322C1059.18 42.5222 1058.42 43.6119 1057.65 44.7021ZM1044.64 42.2014C1044.97 42.3468 1045.23 42.1681 1045.34 41.9175C1045.42 41.8678 1045.5 41.7933 1045.56 41.6866C1046.07 40.7322 1046.58 39.7844 1047.13 38.8563C1047.35 40.0978 1047.57 41.3393 1047.79 42.5808C1046.3 42.8747 1044.88 43.4337 1043.6 44.2151C1042.92 43.1396 1042.24 42.0643 1041.56 40.989C1042.62 41.3234 1043.64 41.7468 1044.64 42.2014ZM1040.6 44.6815C1040.71 43.5555 1040.83 42.4338 1040.99 41.316C1041.68 42.4006 1042.36 43.4851 1043.05 44.5704C1041.79 45.4252 1040.66 46.4996 1039.75 47.7497C1038.68 47.0051 1037.62 46.2612 1036.56 45.5173C1037.66 45.416 1038.77 45.4048 1039.87 45.4394C1040.18 45.4496 1040.38 45.24 1040.45 45.0023C1040.53 44.927 1040.59 44.822 1040.6 44.6815ZM1036.85 50.2282C1037.18 50.1038 1037.24 49.7904 1037.14 49.5369C1037.17 49.4399 1037.17 49.3315 1037.13 49.2157C1036.82 48.1811 1036.51 47.1481 1036.25 46.1028C1037.29 46.8323 1038.33 47.5617 1039.37 48.2911C1038.6 49.4536 1037.99 50.7486 1037.6 52.1488C1037.58 52.2298 1037.56 52.3104 1037.54 52.3926C1036.3 52.1125 1035.05 51.8328 1033.81 51.5527C1034.79 51.0426 1035.82 50.6173 1036.85 50.2282ZM1037 61.4184C1037.15 61.0961 1036.97 60.8309 1036.72 60.725C1036.67 60.6374 1036.59 60.5592 1036.49 60.5023C1035.54 59.9947 1034.59 59.4814 1033.66 58.9316C1034.89 58.7133 1036.13 58.4957 1037.36 58.2774C1037.65 59.7731 1038.2 61.1969 1038.97 62.491C1037.91 63.1622 1036.85 63.8337 1035.79 64.5057C1036.12 63.4511 1036.55 62.4255 1037 61.4184ZM1050.67 70.2999C1050.45 70.0709 1050.16 70.079 1049.94 70.2041C1049.84 70.2039 1049.72 70.2403 1049.62 70.3297C1048.74 71.0465 1047.87 71.7557 1046.97 72.4303C1047.25 71.1926 1047.53 69.9549 1047.8 68.7164C1049.37 69.0344 1050.92 69.0602 1052.4 68.8303C1052.62 70.0842 1052.85 71.3381 1053.07 72.5927C1052.22 71.8835 1051.43 71.1082 1050.67 70.2999ZM1056.19 69.0548C1055.87 68.9094 1055.6 69.0881 1055.49 69.3398C1055.41 69.3903 1055.33 69.4636 1055.27 69.5704C1054.76 70.5248 1054.25 71.4726 1053.7 72.4007C1053.49 71.1708 1053.27 69.9413 1053.05 68.7114C1054.54 68.4025 1055.95 67.8332 1057.23 67.0415C1057.91 68.1171 1058.59 69.1916 1059.27 70.2677C1058.22 69.9333 1057.19 69.5099 1056.19 69.0548ZM1060.23 66.5758C1060.12 67.7018 1060 68.8235 1059.84 69.941C1059.16 68.8557 1058.47 67.7696 1057.79 66.6843C1059.03 65.8264 1060.15 64.7506 1061.07 63.4928C1062.13 64.242 1063.2 64.9916 1064.27 65.7404C1063.17 65.841 1062.07 65.8532 1060.96 65.8179C1060.65 65.8077 1060.45 66.0173 1060.38 66.2551C1060.3 66.3292 1060.25 66.4342 1060.23 66.5758ZM1063.98 61.0288C1063.65 61.1531 1063.59 61.4658 1063.69 61.7191C1063.67 61.816 1063.66 61.9247 1063.7 62.0406C1064.01 63.0748 1064.32 64.107 1064.59 65.1523C1063.54 64.4179 1062.49 63.6835 1061.44 62.9491C1062.08 61.9846 1062.61 60.9263 1063.01 59.7842C1063.1 59.4736 1063.18 59.1634 1063.25 58.8539C1064.51 59.138 1065.77 59.421 1067.02 59.7043C1066.04 60.2144 1065.02 60.6397 1063.98 61.0288ZM1063.83 49.8386C1063.69 50.1609 1063.86 50.4253 1064.11 50.532C1064.16 50.6196 1064.24 50.6978 1064.34 50.7547C1065.3 51.2622 1066.24 51.7748 1067.17 52.3247C1065.88 52.5535 1064.59 52.7824 1063.3 53.0108C1062.98 51.5476 1062.43 50.1579 1061.66 48.8918C1062.79 48.1779 1063.92 47.4644 1065.04 46.7502C1064.71 47.8056 1064.29 48.8315 1063.83 49.8386ZM1049.69 38.9194C1049.47 38.7134 1049.25 38.5124 1049.03 38.314C1050.06 37.3636 1050.28 35.8662 1049.66 34.6243C1049.86 34.4092 1050.06 34.1847 1050.27 33.9534C1051.25 35.5612 1051.04 37.5589 1049.69 38.9194ZM1052.66 29.5909C1051.81 30.6528 1050.88 31.6582 1049.96 32.6649C1049.13 33.5727 1047.66 35.899 1046.22 35.5075C1043.65 34.8063 1040.79 32.8617 1038.57 31.4549C1036.21 29.961 1036.08 26.3418 1035.64 23.8445C1035.31 22.0375 1035.02 20.224 1034.72 18.4132C1034.42 16.644 1034.3 15.2739 1035.29 14.3952C1035.95 18.3563 1036.56 22.3441 1037.41 26.2676C1037.83 28.2174 1038.58 29.3856 1040.3 30.3663C1041.56 31.091 1042.86 31.7637 1044.16 32.423C1044.7 32.6999 1045.59 33.3068 1046.26 33.1409C1048.02 32.7101 1049.37 30.5825 1050.5 29.3108C1051.94 27.6973 1052.74 26.5588 1052.66 24.353C1052.49 20.081 1051.26 15.6662 1050.47 11.4584C1050.62 11.4835 1050.77 11.5111 1050.91 11.5563C1052.38 12.0074 1052.55 15.9626 1052.78 17.2146C1053.08 18.8409 1053.38 20.4681 1053.65 22.099C1054.12 24.8981 1054.54 27.2733 1052.66 29.5909Z" fill="#00B2B5"/>
</g>
</svg>
