<svg width="349" height="204" viewBox="0 0 349 204" fill="none" xmlns="http://www.w3.org/2000/svg">
<path d="M159.958 108.239C159.958 105.688 159.958 103.218 159.958 100.663C156.534 100.663 153.154 100.663 149.652 100.663C149.652 110.037 149.652 119.44 149.652 128.925C145.318 128.925 141.103 128.925 136.769 128.925C136.769 133.244 136.769 137.489 136.769 141.849C133.27 141.849 129.887 141.849 126.426 141.849C126.426 146.183 126.426 150.398 126.426 154.732C122.107 154.732 117.862 154.732 113.554 154.732C113.554 166.836 113.554 178.82 113.554 190.886C118.656 190.886 123.733 190.886 128.892 190.886C128.892 195.206 128.892 199.447 128.892 203.755C121.215 203.755 113.531 203.755 105.769 203.755C105.769 192.617 105.769 181.52 105.769 170.301C101.45 170.301 97.2054 170.301 92.8862 170.301C92.8862 165.967 92.8862 161.751 92.8862 157.447C89.4249 157.447 86.0454 157.447 82.5433 157.447C82.5433 161.659 82.5433 165.904 82.5433 170.226C79.0708 170.226 75.7135 170.226 72.2411 170.226C72.2411 174.546 72.2411 178.79 72.2411 183.15C67.8811 183.15 63.6399 183.15 59.3393 183.15C59.3393 185.765 59.3393 188.261 59.3393 190.875C63.5657 190.875 67.8068 190.875 72.1186 190.875C72.1186 195.235 72.1186 199.476 72.1186 203.77C63.5694 203.77 55.0499 203.77 46.4153 203.77C46.4153 188.346 46.4153 172.919 46.4153 157.373C43.7785 157.373 41.2568 157.373 38.6571 157.373C38.6571 150.458 38.6571 143.662 38.6571 136.746C32.6147 136.746 26.654 136.746 20.6117 136.746C20.6117 133.274 20.6117 129.917 20.6117 126.444C17.1504 126.444 13.7708 126.444 10.2687 126.444C10.2687 123.807 10.2687 121.286 10.2687 118.682C6.79628 118.682 3.43899 118.682 0 118.682C0 102.316 0 86.0305 0 69.6749C3.36843 69.6749 6.75172 69.6749 10.213 69.6749C10.213 74.7814 10.213 79.8582 10.213 85.0538C15.3938 85.0538 20.4965 85.0538 25.7182 85.0538C25.7182 87.6906 25.7182 90.2123 25.7182 92.8157C29.1906 92.8157 32.5479 92.8157 36.024 92.8157C36.024 95.4153 36.024 97.937 36.024 100.518C48.1013 100.518 60.0598 100.518 72.1408 100.518C72.1408 97.1645 72.1408 93.7813 72.1408 90.2828C75.6393 90.2828 79.0226 90.2828 82.4838 90.2828C82.4838 86.8104 82.4838 83.4531 82.4838 79.9807C87.6646 79.9807 92.7674 79.9807 97.989 79.9807C97.989 75.6207 97.989 71.3795 97.989 67.0566C102.323 67.0566 106.538 67.0566 110.872 67.0566C110.872 64.457 110.872 61.9353 110.872 59.2948C115.232 59.2948 119.473 59.2948 123.796 59.2948C123.796 42.0552 123.796 24.9346 123.796 7.69131C127.254 7.69131 130.637 7.69131 134.098 7.69131C134.098 5.0805 134.098 2.58482 134.098 0C155.627 0 177.075 0 198.645 0C198.645 3.34986 198.645 6.73315 198.645 10.1944C203.84 10.1944 208.917 10.1944 214.079 10.1944C214.079 24.8417 214.079 39.4073 214.079 54.088C196.951 54.088 179.804 54.088 162.598 54.088C162.598 57.5604 162.598 60.9177 162.598 64.3901C172.845 64.3901 183.11 64.3901 193.445 64.3901C193.445 66.169 193.445 67.8291 193.445 69.5672C179.738 69.5672 166.056 69.5672 152.296 69.5672C152.296 76.4712 152.296 83.2934 152.296 90.2346C158.253 90.2346 164.214 90.2346 170.23 90.2346C170.23 96.2881 170.23 102.226 170.23 108.239C166.839 108.239 163.46 108.239 159.958 108.239ZM141.953 15.4383C141.953 18.0417 141.953 20.5597 141.953 23.0517C144.549 23.0517 147.067 23.0517 149.566 23.0517C149.566 20.4743 149.566 17.9786 149.566 15.4383C147.019 15.4383 144.527 15.4383 141.953 15.4383Z" fill="#00AEB4"/>
<path d="M141.953 15.4382C144.523 15.4382 147.019 15.4382 149.566 15.4382C149.566 17.9785 149.566 20.4705 149.566 23.0516C147.067 23.0516 144.549 23.0516 141.953 23.0516C141.953 20.5633 141.953 18.0416 141.953 15.4382Z" fill="white"/>
<path d="M254.888 147.62C254.888 146.12 254.888 144.668 254.888 143.167C256.901 143.167 258.887 143.167 260.945 143.167C260.945 148.676 260.945 154.203 260.945 159.778C263.493 159.778 265.97 159.778 268.518 159.778C268.518 162.317 268.518 164.812 268.518 167.375C270.574 167.375 272.563 167.375 274.597 167.375C274.597 169.922 274.597 172.4 274.597 174.947C277.136 174.947 279.631 174.947 282.163 174.947C282.163 182.061 282.163 189.105 282.163 196.197C279.164 196.197 276.18 196.197 273.148 196.197C273.148 198.736 273.148 201.229 273.148 203.761C277.66 203.761 282.176 203.761 286.738 203.761C286.738 197.214 286.738 190.692 286.738 184.098C289.277 184.098 291.772 184.098 294.311 184.098C294.311 181.55 294.311 179.073 294.311 176.543C296.345 176.543 298.331 176.543 300.39 176.543C300.39 179.018 300.39 181.513 300.39 184.054C302.431 184.054 304.404 184.054 306.445 184.054C306.445 186.593 306.445 189.088 306.445 191.65C309.008 191.65 311.501 191.65 314.028 191.65C314.028 193.187 314.028 194.654 314.028 196.191C311.544 196.191 309.051 196.191 306.517 196.191C306.517 198.753 306.517 201.246 306.517 203.77C311.542 203.77 316.55 203.77 321.625 203.77C321.625 194.704 321.625 185.637 321.625 176.499C323.175 176.499 324.657 176.499 326.185 176.499C326.185 172.435 326.185 168.44 326.185 164.375C329.736 164.375 333.24 164.375 336.791 164.375C336.791 162.334 336.791 160.361 336.791 158.32C338.826 158.32 340.812 158.32 342.871 158.32C342.871 156.77 342.871 155.288 342.871 153.758C344.912 153.758 346.885 153.758 348.906 153.758C348.906 144.138 348.906 134.566 348.906 124.953C346.926 124.953 344.938 124.953 342.903 124.953C342.903 127.954 342.903 130.938 342.903 133.992C339.858 133.992 336.859 133.992 333.79 133.992C333.79 135.542 333.79 137.024 333.79 138.554C331.749 138.554 329.776 138.554 327.732 138.554C327.732 140.082 327.732 141.564 327.732 143.082C320.634 143.082 313.605 143.082 306.504 143.082C306.504 141.11 306.504 139.122 306.504 137.066C304.448 137.066 302.459 137.066 300.425 137.066C300.425 135.025 300.425 133.051 300.425 131.01C297.38 131.01 294.38 131.01 291.311 131.01C291.311 128.448 291.311 125.955 291.311 123.414C288.764 123.414 286.286 123.414 283.739 123.414C283.739 121.886 283.739 120.404 283.739 118.852C281.176 118.852 278.683 118.852 276.143 118.852C276.143 108.719 276.143 98.6558 276.143 88.5207C274.11 88.5207 272.122 88.5207 270.087 88.5207C270.087 86.9862 270.087 85.5193 270.087 84C257.433 84 244.827 84 232.149 84C232.149 85.9689 232.149 87.9575 232.149 89.992C229.095 89.992 226.111 89.992 223.077 89.992C223.077 98.6012 223.077 107.162 223.077 115.791C233.144 115.791 243.223 115.791 253.336 115.791C253.336 117.832 253.336 119.806 253.336 121.847C247.313 121.847 241.28 121.847 235.205 121.847C235.205 122.892 235.205 123.868 235.205 124.889C243.262 124.889 251.304 124.889 259.391 124.889C259.391 128.947 259.391 132.957 259.391 137.037C255.89 137.037 252.386 137.037 248.85 137.037C248.85 140.595 248.85 144.086 248.85 147.62C250.843 147.62 252.829 147.62 254.888 147.62ZM265.47 93.0742C265.47 94.6044 265.47 96.0844 265.47 97.5491C263.945 97.5491 262.465 97.5491 260.996 97.5491C260.996 96.0342 260.996 94.5673 260.996 93.0742C262.493 93.0742 263.958 93.0742 265.47 93.0742Z" fill="#00AEB4"/>
<path d="M265.469 93.0742C263.958 93.0742 262.491 93.0742 260.994 93.0742C260.994 94.5672 260.994 96.0319 260.994 97.549C262.463 97.549 263.943 97.549 265.469 97.549C265.469 96.0865 265.469 94.6043 265.469 93.0742Z" fill="white"/>
</svg>
