<svg class="infra-svg" width="41" height="40" viewBox="0 0 41 40" fill="none" xmlns="http://www.w3.org/2000/svg">
<path d="M30.8117 40C30.0671 39.6508 29.7312 38.9875 29.4851 38.261C28.914 36.5743 28.6109 34.8267 28.4844 33.0634C28.2719 30.1049 28.1562 27.1393 28 24.1769C27.9969 24.1152 27.9906 24.0534 27.9773 23.8792C27.5656 24.2722 27.1883 24.5847 26.8664 24.9456C25.3274 26.676 24.736 28.7182 24.9165 31.0072C25.1547 34.029 24.1282 36.4969 21.5923 38.2125C19.3517 39.7281 16.8768 39.9313 14.3901 38.9766C8.08476 36.5548 4.36374 31.9595 3.1747 25.3128C3.14501 25.1464 3.13017 24.9776 3.11376 24.8089C3.07001 24.3472 3.35751 23.9675 3.78953 23.9128C4.20515 23.8597 4.5817 24.1284 4.64498 24.5823C4.84264 26.0057 5.15982 27.3971 5.72856 28.7198C7.5918 33.0525 10.7167 36.072 15.1893 37.6008C18.3392 38.6774 21.6118 37.2579 22.8954 34.3728C23.3517 33.347 23.4384 32.2642 23.3634 31.1611C23.1009 27.3073 24.5344 24.2909 27.7844 22.1597C27.9062 22.08 28.0008 21.8761 28.0109 21.723C28.1469 19.7106 28.2078 17.6918 28.4062 15.6856C28.557 14.1622 28.8664 12.6544 29.1304 11.1443C29.1734 10.899 29.1445 10.7764 28.9359 10.6365C28.1992 10.1404 27.7055 9.45528 27.4227 8.61155C27.375 8.46859 27.2695 8.29046 27.1438 8.23656C23.0751 6.48503 18.9127 6.08816 14.7276 7.70844C9.76598 9.62872 6.58245 13.2388 5.09029 18.3418C5.06451 18.4293 5.04654 18.5184 5.02076 18.6059C4.87623 19.0934 4.50124 19.3293 4.04656 19.2199C3.6161 19.1168 3.36532 18.6903 3.51454 18.209C3.79188 17.3168 4.03093 16.4012 4.41921 15.5559C7.03869 9.8584 11.4292 6.39128 17.6299 5.34286C20.8189 4.80381 23.929 5.29365 26.9383 6.45144C27.0352 6.48894 27.132 6.52722 27.2297 6.56237C27.2539 6.57097 27.2805 6.57175 27.3469 6.58347C27.3984 6.43816 27.4524 6.28581 27.5063 6.13347C28.2336 4.07023 29.3492 2.20699 30.4984 0.362493C30.589 0.217183 30.7578 0.119529 30.8898 0C31.046 0 31.2023 0 31.3585 0C31.5077 0.121091 31.7023 0.214058 31.7991 0.367962C32.9374 2.18824 34.0264 4.03508 34.7686 6.06394C35.1592 7.13267 35.1506 8.18187 34.6202 9.19904C34.4421 9.54044 34.2007 9.84824 33.978 10.1857C34.0843 10.2764 34.1897 10.3701 34.2991 10.46C35.3202 11.2982 36.2451 12.2294 37.0131 13.3068C38.2209 15.0005 38.9654 16.8278 38.6256 18.966C38.3209 20.8832 37.1428 22.098 35.3452 22.3074C34.9913 22.3488 34.628 22.3136 34.2585 22.3136C34.2514 22.4628 34.2436 22.5394 34.2436 22.6152C34.2749 26.0932 34.1561 29.565 33.7788 33.0244C33.5866 34.7837 33.3397 36.5344 32.7749 38.2227C32.5273 38.9633 32.1952 39.6422 31.4374 39.9992C31.2281 40 31.0203 40 30.8117 40ZM29.6929 19.1074C29.6765 19.4074 29.6586 19.7059 29.6453 20.0035C29.4711 23.8308 29.5711 27.6526 29.8851 31.4689C30.0398 33.3478 30.2492 35.222 30.739 37.0508C30.8296 37.3907 30.9624 37.7188 31.0765 38.0524C31.239 37.861 31.3296 37.6875 31.3671 37.5024C31.6281 36.2313 31.9609 34.9681 32.1171 33.6837C32.6843 29.0244 32.7991 24.3448 32.5913 19.6574C32.5827 19.4676 32.5577 19.2785 32.5413 19.1067C31.5835 19.1074 30.6648 19.1074 29.6929 19.1074ZM31.1765 2.33042C31.1265 2.37027 31.0843 2.38823 31.0687 2.41948C30.3789 3.79993 29.6789 5.17646 29.0125 6.56784C28.8765 6.85143 28.8008 7.1983 28.814 7.51079C28.8554 8.47718 29.3359 9.19591 30.2281 9.57794C31.1202 9.95996 31.9734 9.81934 32.6976 9.17248C33.4225 8.52483 33.6694 7.70297 33.3561 6.76862C32.8288 5.19677 32.0015 3.76946 31.1765 2.33042ZM33.3077 11.7115C33.8749 14.7013 34.071 17.7192 34.203 20.7715C34.4772 20.7715 34.7092 20.7754 34.9413 20.7707C35.9491 20.7512 36.6365 20.2363 36.9397 19.2785C37.185 18.5028 37.2061 17.7161 37.0162 16.9286C36.478 14.7021 35.0178 13.1247 33.3077 11.7115ZM30.6859 11.3342C30.1773 13.3615 29.9664 15.4075 29.7929 17.5098C30.7023 17.5098 31.5718 17.5098 32.4601 17.5098C32.2687 15.3856 32.0757 13.3357 31.5577 11.3342C31.2554 11.3342 30.996 11.3342 30.6859 11.3342Z" fill="#9696A0"/>
<path d="M20.9835 9.06448C22.7046 9.07073 24.1022 10.4863 24.0921 12.2129C24.0819 13.9316 22.6585 15.3269 20.9328 15.312C19.2312 15.2964 17.8414 13.8886 17.8438 12.1824C17.8469 10.4598 19.2586 9.05745 20.9835 9.06448ZM20.971 13.7488C21.828 13.7472 22.5312 13.0417 22.5296 12.1839C22.528 11.3254 21.8234 10.6246 20.9648 10.6262C20.1062 10.6277 19.4054 11.3316 19.407 12.1902C19.4086 13.0488 20.1132 13.7503 20.971 13.7488Z" fill="#9696A0"/>
<path d="M12.3524 19.2174C10.6337 19.208 9.23681 17.7878 9.25009 16.062C9.26337 14.3441 10.6876 12.9527 12.4149 12.9699C14.1172 12.9871 15.5023 14.3956 15.4976 16.105C15.4929 17.826 14.0766 19.2276 12.3524 19.2174ZM13.9352 16.1097C13.943 15.2503 13.2469 14.5402 12.3891 14.5331C11.529 14.5253 10.8196 15.2206 10.8126 16.0784C10.8048 16.937 11.5008 17.6479 12.3578 17.6557C13.2164 17.6635 13.9273 16.9659 13.9352 16.1097Z" fill="#9696A0"/>
<path d="M13.1547 25.4839C13.1484 27.2042 11.7305 28.6042 10.0055 28.5932C8.2868 28.5823 6.89229 27.1605 6.90636 25.4347C6.92042 23.7332 8.3282 22.3441 10.0352 22.3457C11.7586 22.3473 13.1609 23.759 13.1547 25.4839ZM11.5922 25.4605C11.5883 24.6027 10.8813 23.9035 10.0219 23.9082C9.16334 23.9121 8.46492 24.6183 8.46961 25.4777C8.47351 26.3347 9.18131 27.0347 10.0391 27.0308C10.8961 27.0261 11.5961 26.3183 11.5922 25.4605Z" fill="#9696A0"/>
<path d="M17.0742 34.8432C15.3508 34.8487 13.9383 33.4441 13.9375 31.7222C13.9359 29.9996 15.3445 28.5926 17.0679 28.5957C18.7749 28.5981 20.1757 29.991 20.1858 31.6964C20.1944 33.4214 18.7952 34.8378 17.0742 34.8432ZM18.6226 31.7074C18.6171 30.8496 17.9085 30.1519 17.0499 30.1582C16.1921 30.1636 15.4945 30.8714 15.5008 31.7308C15.5062 32.5886 16.2148 33.2862 17.0734 33.2808C17.9296 33.2745 18.628 32.5659 18.6226 31.7074Z" fill="#9696A0"/>
<path d="M3.76014 20.7849C4.1906 20.774 4.55778 21.1333 4.557 21.5638C4.55622 21.9794 4.21326 22.331 3.79686 22.3411C3.36562 22.3521 3 21.9943 3 21.5622C3.00078 21.1458 3.34374 20.7951 3.76014 20.7849Z" fill="#9696A0"/>
</svg>
