<svg class="infra-svg" width="41" height="40" viewBox="0 0 41 40" fill="none" xmlns="http://www.w3.org/2000/svg">
<path d="M9.4168 40C8.00975 39.6761 7.03422 38.8014 6.44909 37.5245C6.06748 36.6918 5.75339 35.8141 5.52835 34.9266C5.06553 33.0998 4.96083 31.2211 5.01171 29.3474C5.06748 27.2945 5.24557 25.2456 5.34929 23.1937C5.40702 22.0509 5.36885 20.9002 5.47257 19.7622C5.59684 18.4041 5.8395 17.0577 6.00975 15.7035C6.47062 12.0597 6.51269 8.41292 6.08216 4.76223C5.93246 3.49609 5.80525 2.22798 5.6761 0.959882C5.5988 0.191781 5.78177 0 6.55379 0C9.2485 0 11.9422 0 14.637 0C15.4364 0 15.635 0.209393 15.5029 0.985323C14.9236 4.36791 14.3356 7.74951 13.7475 11.1301C13.5587 12.2182 13.2651 13.2984 13.1888 14.3943C13.0968 15.6986 13.1966 17.0166 13.1947 18.3278C13.1937 18.9481 13.451 19.4706 13.6986 20.0186C14.2221 21.1781 14.4295 22.4266 14.5694 23.683C14.8669 26.3659 14.955 29.0577 14.7964 31.7515C14.6751 33.8102 14.3953 35.8464 13.3963 37.7016C12.7847 38.8366 11.9276 39.681 10.6037 39.9354C10.5704 39.9423 10.542 39.9775 10.5117 40C10.1458 40 9.78177 40 9.4168 40ZM14.2779 1.20157C11.7867 1.20157 9.34831 1.20157 6.84244 1.20157C7.66338 6.72994 7.88451 12.2319 6.88745 17.7182C8.16827 18.0489 10.997 18.0528 11.9745 17.7329C11.9677 17.589 11.951 17.4354 11.953 17.2818C11.9696 16.2299 11.8708 15.1595 12.0332 14.1311C12.5283 10.9873 13.1272 7.8591 13.681 4.72407C13.8865 3.56067 14.0763 2.39432 14.2779 1.20157ZM12.588 27.2466C12.5557 27.2397 12.5244 27.2329 12.4921 27.226C12.4921 26.9658 12.4765 26.7045 12.497 26.4462C12.5137 26.229 12.4295 26.1399 12.2348 26.0431C11.3649 25.6115 10.5049 25.1614 9.65261 24.6967C9.4804 24.6027 9.37962 24.589 9.20838 24.6986C8.41093 25.2074 7.59684 25.6908 6.79547 26.1947C6.70349 26.2524 6.59195 26.3796 6.59292 26.4736C6.60369 27.8268 6.61739 29.184 7.06846 30.4824C7.47746 31.6595 8.25144 32.18 9.5303 32.182C10.8101 32.184 11.6497 31.6791 11.9824 30.4883C12.2769 29.4335 12.3933 28.3288 12.588 27.2466ZM6.29058 31.68C6.24655 31.6849 6.20154 31.6898 6.1575 31.6947C6.38549 32.9178 6.5714 34.1507 6.85516 35.3611C7.06259 36.2456 7.41289 37.091 7.99703 37.816C8.87864 38.911 10.224 39.1429 11.3219 38.3669C12.1986 37.7466 12.6135 36.816 12.9139 35.8405C13.6389 33.4863 13.7289 31.0587 13.6722 28.6184C13.6712 28.5724 13.6487 28.5264 13.633 28.4726C13.5019 29.1566 13.4119 29.8346 13.2358 30.4883C12.9579 31.5225 12.4462 32.4168 11.4452 32.9276C9.64772 33.8474 7.63304 33.3552 6.29058 31.68ZM12.0303 18.9804C10.2573 19.2955 8.49019 19.2104 6.5939 18.9335C6.70056 19.2906 6.72404 19.5665 6.85613 19.775C7.24655 20.3875 7.65359 20.9932 8.10369 21.5626C8.49214 22.0548 8.94811 22.4941 9.45496 23.044C10.2886 22.0157 11.0557 21.0528 11.8424 20.1076C12.1193 19.775 12.1966 19.4325 12.0303 18.9804ZM12.4148 24.8982C12.4501 24.8708 12.4843 24.8444 12.5195 24.817C12.4589 23.7476 12.3992 22.6781 12.3346 21.5333C11.635 22.3209 11.0137 23.0196 10.3415 23.7759C11.0391 24.1526 11.727 24.5254 12.4148 24.8982ZM8.46768 23.8102C7.82384 23.0714 7.226 22.3865 6.58901 21.6556C6.58901 22.7808 6.58901 23.8395 6.58901 24.999C7.25144 24.5802 7.84831 24.2025 8.46768 23.8102Z" fill="#9696A0"/>
<path d="M18.3228 15.3913C18.7729 14.5762 19.2298 13.8355 19.6016 13.0527C20.0694 12.0674 20.4764 11.0527 20.8864 10.0419C20.9431 9.90202 20.9187 9.6848 20.8492 9.54488C19.5087 6.83059 18.1555 4.12218 16.8061 1.4118C16.6124 1.02237 16.6829 0.700453 16.9872 0.528242C17.3042 0.349181 17.6418 0.467577 17.8472 0.878535C19.1075 3.38636 20.3668 5.89517 21.6065 8.41278C22.0077 9.22883 22.4373 10.0067 23.2279 10.5126C23.5028 10.6887 23.7797 10.8472 24.1202 10.6192C24.2279 10.5478 24.3962 10.5507 24.5371 10.5488C25.539 10.5322 26.542 10.5165 27.5439 10.5145C28.6476 10.5116 29.2641 11.1564 29.1946 12.2611C29.0752 14.1642 29.2465 16.0459 30.1692 17.723C30.904 19.0576 31.8502 20.2846 32.7787 21.5018C33.6535 22.6496 34.6388 23.7122 35.5527 24.8316C36.7357 26.2807 36.1261 28.3531 34.3795 28.857C33.5439 29.0977 32.7905 28.9001 32.0977 28.3942C30.5322 27.2513 28.9617 26.1143 27.3922 24.9754C26.8658 24.5928 26.3394 24.2112 25.813 23.8286C24.039 22.538 22.2582 21.2582 20.4989 19.948C20.129 19.6721 19.8042 19.314 19.5234 18.9451C17.9627 16.8952 16.4216 14.8296 14.8756 12.7689C14.8061 12.676 14.7298 12.5801 14.6887 12.4734C14.583 12.2014 14.6349 11.9549 14.8766 11.7797C15.1163 11.6055 15.3688 11.6173 15.5909 11.8159C15.7063 11.9187 15.8003 12.0468 15.8942 12.1711C16.6858 13.2161 17.4744 14.265 18.3228 15.3913ZM24.5772 11.6887C24.5772 11.8854 24.5782 12.0341 24.5772 12.1838C24.5547 15.3629 24.9989 18.4813 25.766 21.5625C25.9353 22.2425 26.2102 22.7875 26.8453 23.129C27.0948 23.2631 27.311 23.4607 27.5429 23.628C29.269 24.8824 30.996 26.1339 32.7181 27.3922C33.1506 27.7083 33.6036 27.8864 34.1349 27.6946C35.0371 27.3687 35.2768 26.3394 34.632 25.5537C33.3365 23.9754 32.0175 22.4147 30.7416 20.8198C29.6369 19.4382 28.7621 17.9275 28.3443 16.1809C28.0331 14.8785 27.9363 13.5615 28.0273 12.2298C28.0488 11.9147 27.9999 11.6848 27.6114 11.6868C26.6222 11.6916 25.6339 11.6887 24.5772 11.6887ZM21.8316 11.0077C21.8384 10.9979 21.8022 11.0351 21.7836 11.0801C21.0566 12.8639 20.2807 14.6232 19.1525 16.2024C19.1075 16.265 19.0997 16.4118 19.1427 16.4705C19.5987 17.0987 20.0684 17.7181 20.5322 18.3365C21.7905 17.8462 22.7161 17.0106 23.4813 15.9793C23.542 15.8971 23.5547 15.7611 23.5508 15.6515C23.5067 14.4686 23.4578 13.2856 23.3981 12.1026C23.3932 12.0077 23.3296 11.8785 23.2533 11.8316C22.7905 11.5498 22.3169 11.2866 21.8316 11.0077ZM21.5175 19.3267C22.4715 19.9979 23.4519 20.6887 24.494 21.4226C24.2357 20.0909 23.995 18.8541 23.7631 17.6603C23.0302 18.2044 22.2944 18.7504 21.5175 19.3267Z" fill="#9696A0"/>
</svg>
