<svg class="infra-svg" width="42" height="48" viewBox="0 0 42 48" fill="none" xmlns="http://www.w3.org/2000/svg">
<path d="M41.0024 7.90537C40.7127 8.31731 40.4221 8.73022 40.0425 9.26936C40.1834 9.37601 40.3996 9.50321 40.5699 9.67542C40.835 9.9445 40.8399 10.2782 40.6208 10.512C40.381 10.7674 40.0562 10.7703 39.7529 10.4983C39.6002 10.3613 39.473 10.196 39.3037 10.0091C38.9515 10.4063 38.6452 10.7527 38.2959 11.147C38.5317 11.3721 38.7617 11.5776 38.975 11.7997C39.2695 12.1069 39.2949 12.4582 39.0562 12.6989C38.8067 12.9513 38.4681 12.9386 38.1589 12.6343C37.9564 12.4347 37.7832 12.2048 37.5777 11.967C37.2049 12.3897 36.8957 12.739 36.4828 13.2057C36.6824 13.3535 36.8977 13.4817 37.0738 13.65C37.4769 14.0325 37.5366 14.3858 37.2734 14.6578C36.9877 14.9533 36.6658 14.8955 36.2372 14.467C36.0993 14.329 35.9691 14.1842 35.7989 14.0042C35.5954 14.2282 35.4124 14.422 35.2382 14.6235C34.9936 14.9073 34.703 15.0629 34.3145 15.0276C34.2138 15.0188 34.0875 15.0687 34.0044 15.1333C33.7324 15.3427 33.4574 15.3965 33.1932 15.1519C32.932 14.9102 32.9535 14.6265 33.1433 14.3427C33.1639 14.3124 33.1736 14.2742 33.1746 14.2723C32.3527 13.4503 31.5465 12.6421 30.7715 11.8672C26.7471 15.8916 22.7011 19.9376 18.6395 23.9992C19.6962 24.4747 20.523 25.279 21.071 26.553C21.1953 26.3632 21.2549 26.2252 21.3538 26.1264C24.6101 22.8652 27.8694 19.6069 31.1287 16.3486C31.2118 16.2654 31.2911 16.1793 31.3811 16.104C31.6649 15.8672 32.0005 15.8672 32.2216 16.0991C32.4555 16.3437 32.4457 16.6421 32.1903 16.9386C32.1228 17.0169 32.0445 17.0873 31.9711 17.1617C30.9134 18.2204 29.8547 19.2801 28.797 20.3397C28.6972 20.4395 28.6013 20.5442 28.5778 20.5687C28.9956 21.6245 29.4584 22.601 29.7696 23.6235C30.5788 26.2829 29.5729 28.9072 27.2265 30.4072C26.2177 31.052 25.1942 31.6704 24.3851 32.5794C23.2813 33.8201 22.6512 35.278 22.3273 36.8895C22.0886 38.0764 21.6228 39.1713 20.932 40.1674C20.8733 40.2525 20.8176 40.3435 20.7442 40.415C20.524 40.6302 20.2667 40.6938 20.0045 40.5108C19.7334 40.322 19.663 40.051 19.8244 39.7574C19.9996 39.4384 20.251 39.1537 20.3792 38.8201C20.7129 37.9502 21.0749 37.0803 21.2872 36.1772C21.933 33.4297 23.4496 31.3426 25.8586 29.8954C26.794 29.3338 27.6756 28.7193 28.2432 27.7565C28.9927 26.4835 29.0171 25.1264 28.6013 23.7595C28.3694 22.9973 28.0171 22.2712 27.6962 21.4708C27.5269 21.6245 27.4408 21.6959 27.3616 21.7751C25.4467 23.69 23.5348 25.6068 21.615 27.5168C21.4281 27.7027 21.341 27.8837 21.3371 28.1587C21.3068 30.4561 19.5915 32.3788 17.4086 32.5892C14.983 32.823 12.9301 31.3269 12.4526 28.9767C11.8949 26.236 14.0172 23.6812 16.8822 23.6342C17.0456 23.6313 17.254 23.5794 17.3626 23.4718C19.3694 21.4836 21.3645 19.4826 23.3606 17.4846C23.388 17.4572 23.4076 17.4229 23.4643 17.3486C23.3058 17.2556 23.159 17.1607 23.0044 17.0805C21.7765 16.4454 20.5045 15.9895 19.0876 16.0932C17.6004 16.2018 16.5681 17.0384 15.7149 18.1695C15.5818 18.3456 15.4702 18.5384 15.3381 18.7155C15.1199 19.0071 14.7794 19.0824 14.5201 18.9073C14.2481 18.7223 14.1738 18.3906 14.3675 18.0805C15.9379 15.5619 18.1336 14.377 21.3088 15.1539C21.8479 15.286 22.3743 15.4934 22.8841 15.7145C23.3821 15.9308 23.8528 16.2106 24.3547 16.4728C24.4262 16.4063 24.5142 16.331 24.5964 16.2488C26.3097 14.5374 28.0201 12.8232 29.7363 11.1147C29.9017 10.9504 29.9633 10.786 29.9907 10.5463C30.021 10.287 30.1795 10.0208 30.3439 9.80458C30.5122 9.58345 30.7559 9.41906 31.0279 9.17542C30.8204 8.99734 30.6326 8.85547 30.4682 8.69108C30.1032 8.32905 30.0631 8.01594 30.3273 7.74001C30.5856 7.46996 30.9486 7.51692 31.3097 7.88091C31.4917 8.06389 31.657 8.26447 31.842 8.46995C32.248 8.11379 32.5973 7.80655 33.0259 7.43082C32.7891 7.22045 32.5562 7.03845 32.3517 6.8271C32.0474 6.51399 32.0386 6.18034 32.2999 5.93083C32.5357 5.70578 32.884 5.72241 33.1717 5.99638C33.3967 6.21165 33.6012 6.44844 33.841 6.70284C34.2226 6.37016 34.5709 6.06585 34.9603 5.72535C34.7969 5.55705 34.6413 5.40832 34.5005 5.24688C34.2333 4.94062 34.2314 4.61674 34.4858 4.37702C34.7186 4.15882 35.0504 4.16665 35.3243 4.42692C35.4926 4.58641 35.6267 4.78211 35.794 4.98269C36.0954 4.72046 36.3243 4.51401 36.5621 4.31733C37.0865 3.88289 37.5719 3.89072 38.0542 4.3643C38.9173 5.21361 39.7734 6.06977 40.6188 6.93571C40.7773 7.09716 40.8752 7.31829 41.0004 7.51203C41.0024 7.6451 41.0024 7.77524 41.0024 7.90537ZM20.1688 28.1313C20.1639 26.3113 18.7031 24.8426 16.8763 24.8211C15.0632 24.8006 13.5466 26.3123 13.5485 28.1381C13.5505 29.9679 15.0593 31.4639 16.8831 31.4434C18.7119 31.4228 20.1737 29.9493 20.1688 28.1313ZM34.4339 13.7605C36.202 11.7517 37.975 9.73706 39.7157 7.76056C38.8703 6.91516 38.0631 6.10793 37.2382 5.28308C35.2519 7.03258 33.2441 8.80165 31.2382 10.5688C32.3126 11.6421 33.3615 12.6891 34.4339 13.7605Z" fill="#9696A0"/>
<path d="M35.2938 43.999C34.9553 43.8708 34.6001 43.7759 34.2831 43.6085C33.2508 43.0645 32.8389 42.0087 33.241 41.0136C33.6402 40.0273 34.6373 39.5636 35.7606 39.9011C36.2361 40.044 36.6764 40.3072 37.1696 40.5332C37.7576 39.0225 38.3662 37.4559 38.9964 35.8376C37.0238 35.0704 35.0698 34.3102 33.0903 33.5401C33.0355 33.6624 32.9847 33.7632 32.9436 33.8679C32.1657 35.8659 31.3917 37.8649 30.6099 39.862C30.2224 40.8522 29.5091 41.3199 28.5091 41.2612C27.4064 41.1956 26.3908 40.4784 26.1461 39.5763C25.9416 38.8199 26.1344 38.1458 26.6794 37.6047C27.2616 37.0264 27.9994 36.9432 28.7479 37.1771C29.2234 37.3258 29.6628 37.5871 30.1481 37.8101C30.3369 37.3268 30.5502 36.7857 30.7606 36.2446C31.4152 34.5607 32.0669 32.8767 32.7224 31.1937C33.0434 30.3679 33.5629 30.138 34.3819 30.455C36.2478 31.1781 38.1099 31.91 39.9807 32.6204C40.4239 32.7886 40.7889 33.0137 40.9954 33.453C40.9954 33.635 40.9954 33.818 40.9954 34C40.966 34.0548 40.9298 34.1076 40.9073 34.1663C39.8545 36.8718 38.784 39.5714 37.7606 42.2886C37.4416 43.135 36.9748 43.7622 36.0737 43.9999C35.8154 43.9989 35.5551 43.999 35.2938 43.999ZM39.7821 33.8072C37.7977 33.0362 35.8418 32.2769 33.8614 31.5078C33.7361 31.8327 33.6256 32.1184 33.5003 32.4413C35.4788 33.2104 37.4337 33.9697 39.421 34.7417C39.5472 34.4158 39.6578 34.1301 39.7821 33.8072ZM28.5845 40.1771C29.0639 40.1037 29.3673 39.8953 29.4827 39.5019C29.5952 39.1203 29.4798 38.7955 29.0855 38.591C28.7909 38.4383 28.4671 38.317 28.1422 38.2553C27.7841 38.1878 27.4769 38.3268 27.3203 38.6947C27.1638 39.0616 27.2107 39.4139 27.5346 39.6379C27.8565 39.8591 28.2322 40 28.5845 40.1771ZM35.6216 42.9031C36.0756 42.8326 36.3662 42.633 36.4895 42.2514C36.6128 41.8727 36.5247 41.5577 36.1568 41.3522C35.8565 41.1849 35.5218 41.0557 35.1862 40.9804C34.7909 40.8913 34.4934 41.0821 34.3359 41.4363C34.1823 41.7798 34.239 42.1565 34.5649 42.3757C34.8897 42.5929 35.2674 42.7299 35.6216 42.9031Z" fill="#9696A0"/>
<path d="M12.6395 43.9993C11.8636 43.8496 11.073 43.7498 10.3127 43.5404C7.61212 42.7987 5.43209 41.2557 3.69531 39.0825C2.50158 37.5884 1.66402 35.9045 1.2785 34.0248C0.583788 30.6423 1.17576 27.5767 3.64346 25.0288C4.90274 23.7284 6.47123 22.9642 8.23736 22.6188C10.0397 22.2676 11.6013 21.4858 12.8861 20.1619C13.209 19.8292 13.5583 19.8077 13.8127 20.0631C14.0622 20.3136 14.026 20.6648 13.7109 20.9916C12.2716 22.4809 10.5064 23.34 8.49176 23.7705C5.20509 24.472 3.14052 26.4779 2.38025 29.7548C1.9057 31.8008 2.20119 33.8056 3.03974 35.7058C4.43112 38.8614 6.75596 41.0757 10.0143 42.2342C12.482 43.1109 14.9399 43.0913 17.3166 41.8653C17.5817 41.7283 17.8283 41.5561 18.0827 41.3995C18.4966 41.1442 18.8469 41.1755 19.0406 41.4866C19.2314 41.7929 19.1277 42.105 18.7393 42.3711C17.4584 43.2498 16.0455 43.7664 14.5015 43.9279C14.4007 43.9387 14.3019 43.9749 14.2021 43.9993C13.6806 43.9993 13.16 43.9993 12.6395 43.9993Z" fill="#9696A0"/>
<path d="M4.14199 8.67557C4.4688 10.1785 4.78582 11.6364 5.10284 13.0933C5.26038 13.8174 5.41889 14.5405 5.5774 15.2646C5.88268 16.6569 5.04805 17.8086 3.62144 17.9818C2.73006 18.0894 1.91695 17.9642 1.3739 17.1648C0.560798 15.9681 1.12342 14.5239 2.58133 14.0894C3.0461 13.9515 3.5461 13.9329 4.06567 13.8546C3.86802 12.9456 3.6645 12.0082 3.46 11.0718C3.14689 9.6374 2.83182 8.20297 2.52165 6.76756C2.37488 6.08948 2.6919 5.56991 3.36509 5.42021C5.48445 4.95152 7.60478 4.49066 9.72708 4.03372C10.3504 3.89967 10.8699 4.24898 11.0167 4.91336C11.5901 7.50141 12.1517 10.0924 12.7183 12.6824C12.7877 12.9994 12.8592 13.3164 12.9286 13.6344C13.2251 15.0023 12.5343 16.0894 11.1527 16.3301C10.6938 16.4104 10.184 16.4025 9.73393 16.29C8.89538 16.0787 8.37092 15.2959 8.3582 14.4143C8.34548 13.5787 8.91104 12.8135 9.84058 12.5229C10.3259 12.3712 10.8474 12.3341 11.4159 12.2343C11.0715 10.6501 10.7153 9.00923 10.3494 7.32235C8.26818 7.77538 6.21927 8.22156 4.14199 8.67557ZM9.88168 5.19809C7.80439 5.65113 5.75842 6.09731 3.67917 6.55034C3.75745 6.90259 3.82594 7.20982 3.89639 7.52783C5.98836 7.07088 8.02552 6.62568 10.0999 6.17265C10.0245 5.83703 9.95702 5.5386 9.88168 5.19809ZM10.502 15.3096C10.8034 15.2049 11.1194 15.1286 11.4032 14.9877C11.7819 14.7998 11.9159 14.4505 11.8132 14.0767C11.7065 13.6883 11.4325 13.4544 11.0128 13.475C10.7202 13.4896 10.4169 13.5483 10.1429 13.653C9.65467 13.8409 9.46974 14.1726 9.56074 14.5767C9.66054 15.0219 9.95311 15.2333 10.502 15.3096ZM3.57937 15.0297C3.26137 15.1305 2.92869 15.2 2.6283 15.3389C2.29562 15.4926 2.11363 15.7763 2.19582 16.1657C2.27605 16.5503 2.50893 16.8272 2.90716 16.8194C3.27213 16.8115 3.65569 16.7489 3.99228 16.6139C4.43161 16.4368 4.56469 16.0767 4.45118 15.6628C4.3416 15.2655 4.06371 15.0777 3.57937 15.0297Z" fill="#9696A0"/>
<path d="M7.46813 29.5644C8.02487 29.5938 8.50237 29.8032 8.89669 30.1985C10.8663 32.1681 12.8428 34.1309 14.8008 36.1114C15.6403 36.9607 15.6315 38.2239 14.8242 39.0145C14.0239 39.7992 12.789 39.8051 11.9485 38.9744C9.95735 37.0086 7.98182 35.0262 6.01314 33.039C5.36442 32.3844 5.22841 31.5184 5.59338 30.7386C5.93291 30.0116 6.69611 29.5331 7.46813 29.5644ZM14.2528 37.4245C14.1677 37.2924 14.0542 37.0233 13.8634 36.8315C11.9691 34.9186 10.062 33.0184 8.15599 31.1173C8.05618 31.0175 7.94366 30.9206 7.82135 30.8531C7.26363 30.5458 6.53369 30.9676 6.5875 31.5967C6.60805 31.8423 6.75971 32.1231 6.9378 32.3032C8.84776 34.2376 10.7744 36.1544 12.698 38.0742C12.789 38.1652 12.8937 38.2474 13.0063 38.31C13.562 38.6182 14.2606 38.2004 14.2528 37.4245Z" fill="#9696A0"/>
<path d="M27.5642 19.1795C27.5642 19.6873 27.0525 20.0131 26.713 19.7323C26.1865 19.2979 25.7139 18.793 25.2541 18.2851C25.0584 18.0689 25.1337 17.7851 25.3441 17.5836C25.5554 17.3801 25.8363 17.3341 26.0505 17.5278C26.5388 17.9711 26.9967 18.4485 27.4556 18.9231C27.53 18.9984 27.5456 19.1305 27.5642 19.1795Z" fill="#9696A0"/>
<path d="M23.9881 19.0698C24.2014 19.2029 24.3697 19.2753 24.495 19.3937C24.8727 19.7499 25.2376 20.1187 25.5977 20.4915C25.901 20.8056 25.9196 21.1344 25.6682 21.3868C25.4167 21.6393 25.0879 21.6226 24.7719 21.3174C24.3795 20.9387 23.9735 20.5698 23.63 20.151C23.5018 19.9955 23.4607 19.6882 23.5165 19.4876C23.5615 19.3252 23.8101 19.2176 23.9881 19.0698Z" fill="#9696A0"/>
<path d="M24.1387 22.7824C24.0448 22.9028 23.9528 23.122 23.7943 23.1963C23.6358 23.2707 23.3393 23.2805 23.2258 23.1797C22.7229 22.7345 22.2376 22.2599 21.8061 21.7462C21.7023 21.622 21.7532 21.2462 21.8716 21.0946C21.9763 20.9605 22.3745 20.8627 22.4704 20.9468C23.0301 21.438 23.5409 21.986 24.0624 22.5192C24.1015 22.5593 24.0996 22.6405 24.1387 22.7824Z" fill="#9696A0"/>
<path d="M31.0708 15.8425C30.972 15.9726 30.883 16.1986 30.7284 16.2622C30.5552 16.3337 30.2519 16.3376 30.1276 16.23C29.6403 15.8073 29.1844 15.3444 28.7509 14.866C28.5484 14.6419 28.5836 14.3493 28.8047 14.1282C29.0112 13.9218 29.2969 13.866 29.5092 14.0578C30.0073 14.5079 30.4701 14.9971 30.9368 15.4805C31.0014 15.547 31.0092 15.6683 31.0708 15.8425Z" fill="#9696A0"/>
<path d="M29.3449 17.588C29.2285 17.728 29.1306 17.951 28.9731 18.0078C28.796 18.0714 28.4986 18.0616 28.3684 17.9491C27.8988 17.545 27.4643 17.0968 27.0426 16.6419C26.8215 16.4041 26.8322 16.1076 27.0602 15.8698C27.2892 15.6301 27.5935 15.6086 27.8293 15.8239C28.298 16.2495 28.7353 16.7103 29.1727 17.1692C29.253 17.2534 29.2706 17.3992 29.3449 17.588Z" fill="#9696A0"/>
<path d="M38.158 7.68489C38.4555 7.69468 38.7285 7.97941 38.7236 8.27393C38.7187 8.59683 38.431 8.86199 38.1052 8.84144C37.795 8.82285 37.5524 8.55182 37.567 8.24066C37.5807 7.93342 37.8567 7.67413 38.158 7.68489Z" fill="#9696A0"/>
<path d="M35.1975 11.8143C35.1789 12.1225 34.9079 12.37 34.5977 12.3602C34.2719 12.3505 34.0184 12.0657 34.0449 11.7379C34.0693 11.4287 34.3511 11.1831 34.6544 11.2066C34.9539 11.2301 35.2141 11.5217 35.1975 11.8143Z" fill="#9696A0"/>
<path d="M37.3089 6.88491C37.301 7.19411 37.0388 7.44558 36.7247 7.44362C36.394 7.44264 36.1347 7.16769 36.1533 6.8399C36.1709 6.53267 36.4468 6.28022 36.7502 6.29294C37.0505 6.30664 37.3167 6.58844 37.3089 6.88491Z" fill="#9696A0"/>
<path d="M36.3845 9.45665C36.7025 9.46252 36.9432 9.71105 36.9413 10.03C36.9393 10.348 36.6927 10.5995 36.3777 10.6034C36.0567 10.6073 35.7788 10.3216 35.7935 10.0036C35.8082 9.6905 36.0675 9.45078 36.3845 9.45665Z" fill="#9696A0"/>
<path d="M34.9582 8.05785C35.2733 8.04905 35.5316 8.28975 35.5443 8.60481C35.558 8.93456 35.2948 9.21538 34.9729 9.21342C34.6784 9.21244 34.3985 8.93358 34.3946 8.63808C34.3897 8.33378 34.649 8.06666 34.9582 8.05785Z" fill="#9696A0"/>
<path d="M33.7955 10.4101C33.7847 10.7202 33.5225 10.9668 33.2075 10.9629C32.8748 10.959 32.6204 10.686 32.6419 10.3562C32.6615 10.0471 32.9354 9.80048 33.2417 9.81614C33.545 9.83179 33.8063 10.1116 33.7955 10.4101Z" fill="#9696A0"/>
</svg>
