<svg class="infra-svg" width="41" height="48" viewBox="0 0 41 48" fill="none" xmlns="http://www.w3.org/2000/svg">
<path d="M31.3614 33.817C31.6254 34.0714 31.9406 34.3497 32.2272 34.6554C33.7226 36.2513 33.6217 38.3277 31.9693 39.7831C31.4906 40.2049 31.1471 40.6858 31.3953 41.3251C31.7532 42.2474 32.4346 42.8944 33.2904 42.657C33.4869 42.6026 33.6787 42.4991 33.8483 42.3826C34.4206 41.9886 34.9776 41.5729 35.5472 41.175C36.7257 40.3523 38.0576 40.4688 39.086 41.4807C39.5252 41.913 39.9613 42.3491 40.3931 42.7887C40.7354 43.137 40.7602 43.5041 40.4745 43.7932C40.1931 44.0776 39.8087 44.0593 39.4678 43.7276C39.026 43.2975 38.599 42.8527 38.1572 42.423C37.5797 41.8608 36.9814 41.8077 36.3121 42.2608C35.7151 42.6652 35.1298 43.0866 34.5323 43.4901C33.2739 44.3403 31.8167 44.1085 30.8474 42.9353C30.2461 42.2073 29.8573 41.4277 30.0465 40.4488C30.1656 39.8322 30.477 39.3387 30.9301 38.9099C31.1936 38.6608 31.4545 38.3872 31.6371 38.0776C32.1559 37.2006 32.065 36.4239 31.3897 35.6638C31.1288 35.3703 30.8509 35.089 30.5544 34.832C30.47 34.7589 30.2665 34.7354 30.1639 34.785C28.8289 35.429 27.6057 35.2659 26.4633 34.3323C21.6705 30.4157 16.8742 26.5038 12.0822 22.5859C11.9004 22.4376 11.7408 22.3624 11.4873 22.3967C11.0603 22.4546 10.7011 22.2624 10.3985 21.9567C9.69706 21.2483 9.00001 20.5352 8.2773 19.849C8.10423 19.6846 7.84637 19.5489 7.61242 19.5189C4.21672 19.0819 1.4172 16.1924 1.07367 12.7819C0.798848 10.0537 1.55678 7.69899 3.65795 5.90091C5.90435 3.97846 8.50733 3.4997 11.2721 4.53071C14.0198 5.55521 15.654 7.6055 16.1184 10.5129C16.2154 11.1203 16.4224 11.5739 16.865 11.9831C17.4616 12.5345 18.0069 13.1406 18.5827 13.7151C18.9197 14.0512 19.0719 14.4386 19.0453 14.9191C19.0366 15.0774 19.1162 15.274 19.2197 15.4009C23.105 20.1681 26.993 24.9336 30.8948 29.6873C31.5602 30.4979 31.9646 31.3736 31.7841 32.4307C31.7084 32.8752 31.5232 33.3004 31.3614 33.817ZM12.9175 21.5518C12.9897 21.6153 13.0745 21.6958 13.1649 21.7697C17.8513 25.6041 22.538 29.4386 27.2252 33.2717C28.0762 33.9675 29.1411 33.9544 29.8573 33.2448C30.5818 32.5273 30.6105 31.4667 29.9143 30.6153C26.0655 25.9077 22.2127 21.2022 18.3626 16.495C18.2978 16.4159 18.2487 16.3246 18.2078 16.2619C16.4106 18.0587 14.6691 19.7998 12.9175 21.5518ZM8.67866 5.67131C7.38935 5.70132 6.26092 6.02745 5.22947 6.68711C2.09773 8.68913 1.4172 13.0819 3.79014 15.9436C3.96712 16.1571 4.13628 16.2454 4.38588 16.1158C4.83811 15.8815 5.32297 15.691 5.73172 15.3957C8.04248 13.7272 10.0715 11.76 11.7613 9.46402C12.1657 8.91481 12.4118 8.24733 12.7118 7.62507C12.8171 7.40677 12.754 7.22197 12.5383 7.05281C11.3821 6.14529 10.0719 5.69653 8.67866 5.67131ZM13.8794 8.59042C11.7474 12.2088 8.80041 14.9865 5.33992 17.2477C7.28281 18.6501 10.7055 18.6984 13.0188 16.4146C15.42 14.0442 15.2826 10.5281 13.8794 8.59042ZM9.94449 19.4507C10.4428 19.9512 10.9559 20.466 11.419 20.9313C13.4793 18.8806 15.5749 16.7946 17.6317 14.7474C17.1346 14.2547 16.6211 13.7455 16.1284 13.2572C15.3631 16.6085 13.2732 18.6953 9.94449 19.4507Z" fill="#9696A0"/>
<path d="M11.5954 32.1079C10.2978 32.3858 9.07072 32.6532 7.84054 32.9076C7.57485 32.9624 7.61095 33.1415 7.61095 33.3229C7.61138 35.7228 7.6153 38.1223 7.60964 40.5222C7.60573 42.0715 6.70256 43.3247 5.28714 43.7683C3.5769 44.304 1.74012 43.3721 1.17395 41.681C0.597782 39.9599 1.49747 38.0975 3.21424 37.5209C3.5469 37.4091 3.64908 37.2713 3.64604 36.9225C3.62821 34.7196 3.63647 32.5162 3.63734 30.3133C3.63778 29.2336 3.96565 28.8479 5.03928 28.6305C7.94056 28.0434 10.841 27.4534 13.7409 26.8615C14.8663 26.6319 15.5638 27.1877 15.5642 28.33C15.5656 31.5296 15.5721 34.7296 15.5616 37.9292C15.556 39.6272 14.3267 41.0079 12.6625 41.2253C11.0823 41.4319 9.53948 40.4178 9.09681 38.8819C8.61935 37.2256 9.55731 35.451 11.2489 34.8587C11.525 34.7622 11.608 34.6387 11.6015 34.3613C11.5841 33.629 11.5954 32.8972 11.5954 32.1079ZM14.2362 28.1565C14.0853 28.18 13.9823 28.1922 13.881 28.213C11.108 28.7757 8.33409 29.3358 5.5624 29.9046C4.8823 30.0442 4.99753 29.9002 4.99493 30.5794C4.98753 32.7698 4.99406 34.9605 4.99145 37.1508C4.99014 38.0914 4.69488 38.4758 3.79476 38.7345C3.74431 38.7489 3.69561 38.7689 3.64647 38.7867C2.86462 39.0624 2.3489 39.779 2.33238 40.6135C2.31542 41.4645 2.78374 42.1828 3.56037 42.4959C4.87447 43.026 6.2738 42.0828 6.27989 40.6426C6.29076 38.1109 6.28076 35.5797 6.28467 33.0481C6.28598 32.2688 6.67429 31.7961 7.43136 31.6305C8.68545 31.3556 9.93997 31.0834 11.1945 30.8112C12.1877 30.596 12.9013 31.1695 12.9091 32.194C12.9147 32.9154 12.9104 33.6368 12.9104 34.3582C12.91 35.4988 12.7178 35.7663 11.642 36.1224C10.3287 36.5568 9.84735 38.2105 10.7244 39.275C11.248 39.9103 12.1181 40.1599 12.8939 39.8973C13.6957 39.6259 14.2323 38.8845 14.2341 38.0053C14.2393 34.8966 14.2362 31.7879 14.2362 28.6792C14.2362 28.5226 14.2362 28.3661 14.2362 28.1565Z" fill="#9696A0"/>
<path d="M38.0163 17.2984C38.0163 18.9434 38.0319 20.6076 38.011 22.2713C37.9967 23.4301 37.4749 24.3477 36.4991 24.9625C35.3568 25.6826 34.1575 25.7092 33.006 25.0025C31.8371 24.285 31.3279 23.184 31.4679 21.8269C31.608 20.468 32.352 19.5161 33.6304 19.0404C34.0022 18.9021 34.0818 18.733 34.0748 18.3707C34.0514 17.1519 34.0631 15.9321 34.067 14.7133C34.0696 13.9431 34.4275 13.4848 35.1672 13.2974C36.3978 12.9852 37.628 12.6725 38.8607 12.3686C39.9348 12.1038 40.6693 12.6856 40.674 13.7962C40.6766 14.3336 40.6779 14.8711 40.6736 15.4086C40.6671 16.1752 40.317 16.6357 39.5821 16.8405C39.0903 16.9775 38.5959 17.1027 38.1028 17.2349C38.0811 17.2419 38.0628 17.264 38.0163 17.2984ZM39.3465 13.6074C38.1137 13.9171 36.9361 14.2241 35.752 14.5019C35.4655 14.5693 35.3794 14.6846 35.3829 14.9733C35.3985 16.2322 35.3946 17.4915 35.3876 18.7503C35.3833 19.5587 35.0506 19.9914 34.2888 20.2192C34.1883 20.2493 34.0866 20.2762 33.99 20.3162C33.1951 20.6467 32.6864 21.4646 32.7407 22.3195C32.7951 23.1727 33.3787 23.8867 34.2083 24.1168C35.4824 24.4694 36.6822 23.5297 36.6961 22.1373C36.7135 20.4323 36.6996 18.7273 36.7013 17.0223C36.7017 16.3731 36.8278 16.2122 37.4436 16.0595C37.9902 15.9239 38.5407 15.8017 39.0812 15.6443C39.189 15.6129 39.3295 15.4538 39.3343 15.3481C39.3599 14.7863 39.3465 14.2223 39.3465 13.6074Z" fill="#9696A0"/>
<path d="M30.7611 9.32408C30.7611 10.8726 30.7641 12.4041 30.7585 13.936C30.7576 14.21 30.7433 14.4874 30.6976 14.7566C30.4276 16.3625 29.0704 17.4952 27.4389 17.4887C25.8008 17.4818 24.4806 16.3442 24.1897 14.6883C23.9236 13.1729 24.8563 11.6 26.3613 11.0991C26.714 10.9817 26.8114 10.8269 26.8045 10.4703C26.781 9.27798 26.7927 8.08434 26.7966 6.89156C26.7997 5.96621 27.1245 5.56441 28.0272 5.34047C29.2087 5.04695 30.3893 4.74908 31.5703 4.45339C32.6557 4.18161 33.3867 4.73821 33.398 5.84967C33.4036 6.41323 33.4076 6.97722 33.3963 7.54078C33.3815 8.28132 33.0475 8.71095 32.3374 8.91054C31.833 9.05186 31.3247 9.1771 30.7611 9.32408ZM32.0835 5.70443C31.9256 5.73313 31.8112 5.74748 31.6999 5.77531C30.6463 6.0397 29.597 6.32496 28.5373 6.56151C28.1773 6.64196 28.0925 6.79285 28.0999 7.14116C28.1233 8.29437 28.109 9.44844 28.1085 10.6016C28.1081 11.7062 27.9129 11.9779 26.8566 12.3423C25.7582 12.7215 25.1947 13.906 25.6021 14.9805C25.9361 15.8611 26.8366 16.379 27.7707 16.2277C28.7208 16.0737 29.4196 15.2897 29.427 14.3187C29.4405 12.5619 29.4309 10.8056 29.4326 9.04882C29.4331 8.46439 29.5675 8.29437 30.1441 8.14652C30.702 8.00346 31.2633 7.8717 31.8178 7.71646C31.9191 7.68819 32.0687 7.57426 32.0717 7.49556C32.0935 6.90939 32.0835 6.32235 32.0835 5.70443Z" fill="#9696A0"/>
<path d="M18.3091 19.5607C18.8566 19.585 19.4232 19.7946 19.7606 20.3538C20.1785 21.0461 20.5638 21.7618 20.9073 22.4937C21.156 23.0233 21.0608 23.556 20.629 23.9774C20.2111 24.3848 19.6941 24.4818 19.1757 24.2348C18.4456 23.8869 17.7168 23.5225 17.0367 23.0881C16.2949 22.6141 16.051 21.7288 16.3323 20.9021C16.6102 20.0851 17.3594 19.552 18.3091 19.5607ZM19.5662 23.0633C19.618 23.0103 19.6702 22.9577 19.7219 22.9046C19.381 22.3063 19.0614 21.6949 18.6909 21.1157C18.4856 20.7952 18.0325 20.7973 17.7551 21.0591C17.4768 21.3222 17.4446 21.7879 17.7564 21.9953C18.3395 22.3819 18.9609 22.7107 19.5662 23.0633Z" fill="#9696A0"/>
</svg>
