<svg class="infra-svg" width="41" height="40" viewBox="0 0 41 40" fill="none" xmlns="http://www.w3.org/2000/svg">
<g clip-path="url(#clip0_2137_122999)">
<path d="M1 20.7811C1.17444 20.0659 1.28333 19.3263 1.53704 18.6404C2.06074 17.2241 3.00926 16.0767 4.05185 15.0093C6.27 12.7385 8.85926 10.95 11.5633 9.32407C13.2007 8.33963 14.8822 7.42889 16.5474 6.49074C17.0256 6.22148 17.2956 6.28704 17.6204 6.71889C18.9511 8.48852 18.5163 11.0011 16.6626 12.2456C16.3315 12.4678 15.9952 12.6826 15.5681 12.9619C21.1081 12.9619 26.5356 12.9619 31.9196 12.9619C31.8115 12.0963 31.703 11.2281 31.5967 10.3785C31.2356 10.293 30.8459 10.24 30.4852 10.1074C29.1296 9.60963 28.2996 8.32815 28.3422 6.84852C28.3815 5.48741 29.3322 4.2537 30.6674 3.83148C32.01 3.40704 33.4819 3.86963 34.3152 5.01704C34.5022 5.27444 34.6407 5.32222 34.9422 5.22518C37.5926 4.37185 40.3822 6.05333 40.9211 8.81C40.9378 8.89592 40.9733 8.97852 41.0004 9.06259C41.0004 11.1719 41.0004 13.2815 41.0004 15.3907C40.603 16.6141 39.7311 17.0941 38.4874 17.0085C38.1841 16.9878 37.8781 17.0056 37.5363 17.0056C37.5852 17.1696 37.6056 17.2704 37.6448 17.3637C38.3126 18.957 38.9641 20.5578 39.66 22.1385C40.0344 22.9889 40.21 23.8541 40.0078 24.7585C39.647 26.3722 38.5741 27.3881 37.1322 28.0844C36.9126 28.1907 36.6922 28.3618 36.5541 28.56C34.9244 30.8911 32.8863 32.7718 30.4167 34.1826C29.9481 34.4504 29.4641 34.6915 28.883 35.0004C29.6644 35.0004 30.3337 35.0004 31.003 35.0004C32.3178 35.0004 33.6322 34.9963 34.947 35.0037C35.3711 35.0059 35.6681 35.2937 35.6685 35.6663C35.6689 36.0389 35.3719 36.3133 34.9478 36.3304C34.8696 36.3333 34.7915 36.3315 34.7133 36.3315C24.4563 36.3315 14.1993 36.3315 3.94222 36.3311C3.81222 36.3311 3.67926 36.3407 3.55259 36.3178C3.0737 36.2315 2.81593 35.6537 3.13889 35.3007C3.29667 35.1281 3.60741 35.0152 3.85 35.013C6.20593 34.9922 8.56185 35.0004 10.9178 35.0004C11.0489 35.0004 11.1796 35.0004 11.3107 35.0004C11.2533 34.8989 11.1981 34.8659 11.1411 34.8381C9.14815 33.863 7.37037 32.5841 5.80148 31.0181C3.86963 29.09 2.32 26.9078 1.51296 24.2711C1.26741 23.4689 1.16704 22.6226 1 21.797C1 21.4585 1 21.1196 1 20.7811ZM7.20926 13.9667C5.84 14.85 3.65259 17.2148 2.98333 18.6589C2.69852 19.2733 2.49815 19.9563 2.41185 20.6278C2.20222 22.2626 2.61815 23.8104 3.31519 25.2752C4.97741 28.767 7.61778 31.3363 10.9511 33.2237C13.0978 34.4393 15.3944 35.0881 17.887 35.0081C19.3307 34.9618 20.7785 35.0441 22.2211 34.9856C23.3341 34.9404 24.4663 34.8737 25.5478 34.6293C29.8748 33.6518 33.1267 31.1067 35.6426 27.5267C35.8093 27.2896 36.0922 27.1252 36.3419 26.9578C36.8237 26.6341 37.3789 26.3956 37.7993 26.0085C38.8481 25.0418 38.9907 23.9352 38.4215 22.6426C37.6989 21.0022 36.9959 19.3511 36.357 17.677C36.1248 17.0689 35.8937 16.5741 35.1996 16.453C35.1378 16.4422 35.0841 16.3848 35.0226 16.3748C34.8433 16.3463 34.6559 16.2922 34.4822 16.3181C34.0796 16.3781 33.7389 16.1467 33.6689 15.7241C33.4937 14.6641 33.1019 14.3311 32.023 14.3311C25.1756 14.3307 18.3278 14.3307 11.4804 14.3307C11.3281 14.3307 11.1763 14.3307 11.0004 14.3307C11.0004 14.5263 11.0085 14.6689 10.9993 14.8104C10.867 16.7993 11.6259 17.0378 13.1767 17.017C16.2485 16.9763 19.3211 17.0048 22.3933 17.0048C25.2181 17.0048 28.0433 17.0059 30.8681 17.0037C31.4119 17.0033 31.5941 16.8519 31.67 16.3611C31.7444 15.8778 31.9952 15.6448 32.4004 15.6815C32.8022 15.7178 33.0422 16.0522 32.9978 16.533C32.93 17.2652 32.577 17.8196 31.9004 18.1167C31.6448 18.2285 31.5337 18.3659 31.5307 18.6304C31.5293 18.7456 31.49 18.8604 31.4659 18.9748C30.7881 22.1963 29.0552 24.6037 26.0215 25.9922C25.753 26.1152 25.6622 26.2444 25.6667 26.5344C25.6841 27.693 25.6741 28.8515 25.6733 30.01C25.6733 30.127 25.6796 30.2456 25.6656 30.3611C25.62 30.7385 25.34 31.0019 24.997 31C24.633 30.9981 24.3489 30.7204 24.3456 30.3148C24.3356 29 24.3474 27.6852 24.3304 26.3704C24.3285 26.2215 24.2363 26.0022 24.1185 25.9374C22.7122 25.16 21.2278 24.7904 19.6159 25.1385C18.1667 25.4515 16.9619 26.2459 15.7856 27.0859C15.3752 27.3789 14.9611 27.5167 14.4726 27.4156C12.2107 26.9493 10.137 26.0604 8.29296 24.6581C7.37667 23.9615 6.82111 23.03 6.50519 21.9359C6.26556 21.1052 6.33074 20.3463 6.80407 19.5867C7.55111 18.3874 8.39556 17.2752 9.41259 16.3022C8.66815 15.5133 7.93815 14.7396 7.20926 13.9667ZM10.2622 17.3422C9.26741 18.3011 8.45481 19.3448 7.83111 20.5274C7.73 20.7189 7.69259 20.9822 7.72407 21.1981C7.87037 22.2063 8.34593 23.0311 9.16963 23.6507C10.7874 24.867 12.5974 25.653 14.5707 26.0685C14.7119 26.0981 14.9007 26.0415 15.0304 25.9633C15.6985 25.5615 16.3393 25.1115 17.0178 24.7289C19.6115 23.267 22.2096 23.3667 24.7878 24.7759C25.0215 24.9037 25.2011 24.9111 25.4359 24.8056C27.7837 23.7507 29.2552 21.9481 29.9748 19.5044C30.0826 19.1381 30.1507 18.76 30.2478 18.3404C30.013 18.3404 29.8459 18.3404 29.6793 18.3404C24.0293 18.3404 18.3796 18.3352 12.7296 18.3456C11.7722 18.3467 10.9259 18.1304 10.2622 17.3422ZM33.2544 12.7841C33.5281 13.0885 33.7452 13.3326 33.9656 13.5737C34.1578 13.7837 34.4181 13.9593 34.5359 14.2041C34.8619 14.8811 35.4719 15.1459 36.103 15.3893C37.0644 15.76 38.073 15.6856 39.0707 15.6463C39.4707 15.6307 39.6667 15.3419 39.6674 14.8759C39.6707 13.1341 39.6793 11.3922 39.6596 9.65074C39.6552 9.25741 39.5441 8.86555 39.4719 8.40852C38.5281 9.14667 37.5556 9.56518 36.4422 9.63926C36.3489 9.64556 36.2448 9.80185 36.1819 9.91C35.8833 10.4222 35.6452 10.9767 35.2959 11.4496C34.8222 12.0907 34.1274 12.4652 33.2544 12.7841ZM16.7456 7.92963C14.6389 8.89815 8.94667 12.4267 8.31185 13.1674C8.73815 13.6341 9.16704 14.1041 9.66926 14.6537C9.66926 14.3148 9.66889 14.1078 9.66926 13.9004C9.67111 13.2067 9.88 12.9974 10.5819 12.9948C11.363 12.9922 12.1437 12.9989 12.9244 12.9896C13.073 12.9878 13.2481 12.9707 13.3652 12.8922C14.2826 12.2759 15.2011 11.6596 16.0948 11.01C17.0778 10.2967 17.3507 8.96148 16.7456 7.92963ZM33.0215 11.4207C33.1352 11.3863 33.197 11.3744 33.2533 11.3496C34.2352 10.9189 34.8137 10.1711 34.9815 9.11444C35.0756 8.52111 35.2333 8.36667 35.8374 8.33333C36.0707 8.32037 36.3052 8.30889 36.5363 8.27592C37.3341 8.16185 38.0741 7.91741 38.6548 7.31704C37.0481 5.55222 33.9811 6.26593 33.1885 8.57778C32.8733 9.49815 33.0352 10.4444 33.0215 11.4207ZM33.3874 6.04222C32.8693 5.12555 31.8393 4.77148 30.9081 5.15111C29.987 5.52704 29.4859 6.51667 29.7307 7.47741C29.9696 8.41555 30.8207 9.05667 31.7204 8.95407C31.9133 7.79074 32.4719 6.81815 33.3874 6.04222Z" fill="#9696A0"/>
<path d="M37.979 36.3303C37.9012 36.3306 37.8231 36.3325 37.7453 36.3303C37.2838 36.3173 37.0031 36.0603 37.0079 35.6569C37.0127 35.2699 37.2871 35.0158 37.7245 35.0014C37.919 34.9951 38.1145 34.9932 38.3086 35.0025C38.719 35.0229 38.9816 35.2803 38.9864 35.6554C38.9916 36.048 38.7223 36.3099 38.2901 36.3292C38.1871 36.334 38.0831 36.3299 37.979 36.3303Z" fill="#9696A0"/>
</g>
<defs>
<clipPath id="clip0_2137_122999">
<rect width="40" height="40" fill="white" transform="translate(0.5)"/>
</clipPath>
</defs>
</svg>
