<svg class="infra-svg" width="41" height="40" viewBox="0 0 41 40" fill="none" xmlns="http://www.w3.org/2000/svg">
<path d="M26.3923 29.4049C26.0537 30.2297 25.7672 31.0643 25.3798 31.8478C24.0232 34.5913 21.9775 36.6056 19.0072 37.5259C15.8187 38.5123 12.8288 37.9165 10.0701 36.1378C6.76447 34.0053 4.69924 30.9319 3.65089 27.1867C2.40177 22.7252 1.23838 18.242 0.0413504 13.7676C-0.120352 13.1653 0.206308 12.7974 0.774979 12.9525C3.02687 13.5679 5.30915 13.5603 7.59903 13.277C10.6171 12.9048 13.5136 12.0811 16.3006 10.8602C16.5784 10.7386 16.6695 10.5921 16.6685 10.2893C16.6554 7.46769 16.6609 4.64604 16.6609 1.82439C16.6609 1.02022 17.045 0.79449 17.7418 1.19603C19.6887 2.31927 21.8191 2.88142 24.0178 3.18421C27.8444 3.71056 31.6471 3.57164 35.4064 2.63507C36.7391 2.30299 38.0229 1.84067 39.2156 1.14503C39.7821 0.814024 40.1978 1.0658 40.1978 1.7354C40.1999 5.61517 40.1967 9.49494 40.1999 13.3747C40.2021 15.1382 40.2412 16.9018 39.8744 18.6425C39.0821 22.4051 37.3457 25.5848 34.1182 27.802C31.8891 29.3333 29.4115 29.89 26.7266 29.4321C26.6332 29.4158 26.5388 29.4049 26.4444 29.3962C26.4183 29.393 26.3923 29.4049 26.3923 29.4049ZM1.34256 14.2711C2.52766 18.661 3.63244 23.0074 4.88591 27.3104C5.8279 30.5434 7.69887 33.1903 10.5335 35.0819C12.4881 36.3874 14.639 37.0538 17.0038 36.7846C20.0013 36.4439 22.2445 34.8724 23.8007 32.3416C25.8432 29.0197 26.2197 25.4004 25.3136 21.6779C24.3173 17.5866 23.1604 13.5332 22.073 9.46346C22.0155 9.2475 21.9536 9.03262 21.8842 8.78301C18.9833 11.1641 15.6711 12.5738 12.1506 13.5321C8.62785 14.4914 5.05737 14.9451 1.34256 14.2711ZM26.6028 28.2415C27.509 28.4532 28.3848 28.4987 29.265 28.4032C32.104 28.095 34.3081 26.6658 36.0326 24.4649C38.1466 21.7669 39.0463 18.6468 39.0561 15.2533C39.068 11.1565 39.0593 7.05964 39.0583 2.96282C39.0583 2.83584 39.0474 2.70778 39.0441 2.65027C31.9444 5.27332 24.8838 5.38401 17.8297 2.65244C17.8297 5.09316 17.8297 7.57838 17.8297 10.1135C19.2307 9.36796 20.5135 8.54643 21.6063 7.4525C22.1598 6.89902 22.5885 7.0108 22.7936 7.75962C23.0671 8.76131 23.3373 9.76516 23.6043 10.7484C23.6683 10.7658 23.6944 10.7777 23.7204 10.7777C24.4399 10.7994 24.9587 10.4706 25.3418 9.87694C25.5567 9.54377 25.8551 9.46672 26.1373 9.63493C26.4346 9.81074 26.4987 10.1309 26.3001 10.4814C26.2339 10.5986 26.1568 10.7115 26.0732 10.8179C25.5306 11.5059 24.7948 11.8402 23.9212 11.9454C24.4671 13.9792 25.0064 15.9912 25.5512 18.025C25.7021 17.9469 25.8204 17.8839 25.9398 17.8231C27.6544 16.968 29.3626 16.9886 31.0469 17.8937C32.4643 18.6555 33.4703 19.8385 34.2614 21.2091C34.3776 21.4088 34.4036 21.7355 34.3276 21.9536C34.2245 22.2488 33.9066 22.2217 33.6222 22.1837C32.601 22.0513 31.5809 21.87 30.5553 21.8223C29.2324 21.7593 27.9041 21.8071 26.5366 21.8071C26.9534 23.9429 27.0055 26.071 26.6028 28.2415ZM25.8714 19.2047C25.9636 19.5585 26.0678 19.8938 26.134 20.2378C26.1959 20.5547 26.3261 20.6556 26.6755 20.6524C28.0961 20.6405 29.5178 20.6676 30.9373 20.7056C31.493 20.7208 32.0465 20.8022 32.6325 20.8553C31.0524 18.56 28.324 17.4715 25.8714 19.2047Z" fill="#9696A0"/>
<path d="M15.679 31.7211C13.8503 31.6907 12.4102 30.9571 11.1025 29.9065C10.7964 29.6613 10.4893 29.4062 10.2354 29.11C10.1051 28.958 9.99119 28.6672 10.052 28.5087C10.1203 28.3297 10.3775 28.143 10.5794 28.1061C12.1107 27.825 13.6582 27.6319 15.1809 27.3106C17.0681 26.9134 18.8718 26.2384 20.6245 25.4321C20.7818 25.3594 20.9544 25.2856 21.1215 25.2801C21.4688 25.2682 21.6902 25.5688 21.6489 25.9497C21.3657 28.5663 18.951 31.2078 16.4256 31.6549C16.1467 31.7037 15.8591 31.7059 15.679 31.7211ZM11.898 29.098C13.4672 30.256 15.0506 30.9744 16.9248 30.3591C18.5788 29.8165 19.4665 28.5077 20.1589 26.883C17.461 27.9987 14.7771 28.7128 11.898 29.098Z" fill="#9696A0"/>
<path d="M21.037 18.3169C20.8937 18.4971 20.7982 18.7391 20.6484 18.7781C20.4466 18.8313 20.1438 18.8042 19.9908 18.6794C19.561 18.331 19.1096 18.0858 18.5517 18.14C17.7812 18.2149 17.2505 18.624 16.989 19.3631C16.9705 19.4141 16.9532 19.4651 16.9347 19.5161C16.8153 19.8428 16.5885 20.0023 16.2423 19.9101C15.8929 19.8156 15.7735 19.5508 15.8505 19.2177C16.0481 18.3636 16.556 17.7352 17.3221 17.3261C18.4139 16.7433 19.79 16.9343 20.6712 17.7884C20.8091 17.9219 20.8948 18.1085 21.037 18.3169Z" fill="#9696A0"/>
<path d="M9.71431 19.398C10.4946 19.4034 11.1675 19.6779 11.7318 20.2141C12.0248 20.493 12.0628 20.8272 11.8457 21.0768C11.6135 21.3449 11.2901 21.334 10.9537 21.0475C9.86191 20.1196 8.48581 20.4886 7.99419 21.8398C7.84443 22.2511 7.56335 22.4269 7.2356 22.314C6.91437 22.2033 6.79282 21.8864 6.9122 21.4664C7.25622 20.2553 8.41853 19.3969 9.71431 19.398Z" fill="#9696A0"/>
<path d="M32.8124 11.9206C31.9724 11.8848 31.1324 11.4247 30.5648 10.4957C30.3477 10.1408 30.4053 9.83261 30.6983 9.64378C30.9859 9.4582 31.2822 9.54502 31.5252 9.88796C32.3804 11.0937 33.7652 11.0958 34.6128 9.89339C34.857 9.54611 35.1467 9.45712 35.4376 9.64053C35.7393 9.82936 35.7838 10.1517 35.5624 10.5261C35.0501 11.391 34.0908 11.925 32.8124 11.9206Z" fill="#9696A0"/>
</svg>
